<svg xmlns="http://www.w3.org/2000/svg" viewBox="0 0 600.21 600.98"><defs><style>.cls-1,.cls-10,.cls-11,.cls-12,.cls-13,.cls-16,.cls-17,.cls-21,.cls-6,.cls-9{fill:none;}.cls-14,.cls-15,.cls-18,.cls-19,.cls-2,.cls-20,.cls-3,.cls-4,.cls-5,.cls-7,.cls-8{fill:#fff;}.cls-18,.cls-19,.cls-2,.cls-20,.cls-3{stroke:blue;}.cls-10,.cls-11,.cls-12,.cls-13,.cls-14,.cls-15,.cls-16,.cls-17,.cls-18,.cls-19,.cls-2,.cls-21,.cls-3,.cls-4,.cls-5,.cls-6,.cls-7,.cls-8,.cls-9{stroke-miterlimit:10;}.cls-11,.cls-2,.cls-5{stroke-width:0.84px;}.cls-3,.cls-4{stroke-width:0.91px;}.cls-4,.cls-5,.cls-8{stroke:#29abe2;}.cls-6{stroke:#000;stroke-width:0.3px;}.cls-21,.cls-7{stroke:#179fe5;}.cls-16,.cls-17,.cls-21,.cls-7{stroke-width:0.76px;}.cls-8{stroke-width:1.06px;}.cls-11,.cls-12,.cls-13,.cls-9{stroke:#999;}.cls-10,.cls-9{stroke-width:0.23px;}.cls-13,.cls-9{stroke-dasharray:0.84 0.84 0.84 0.84;}.cls-10{stroke:#b3b3b3;}.cls-10,.cls-12{stroke-dasharray:1.69 1.69 1.69 1.69;}.cls-12,.cls-13{stroke-width:0.21px;}.cls-14{stroke:#1f43f0;}.cls-14,.cls-18{stroke-width:0.74px;}.cls-15,.cls-16{stroke:#1ff0bd;}.cls-15,.cls-19{stroke-width:0.37px;}.cls-17{stroke:#e51729;}.cls-20{stroke-miterlimit:10;stroke-width:0.85px;}</style></defs><g id="Layer_2" data-name="Layer 2"><g id="Layer_1-2" data-name="Layer 1"><rect class="cls-1" width="600" height="600"/><path class="cls-2" d="M316.41,390.57a1.26,1.26,0,0,0,1.76.27,1,1,0,0,0,.28-.27c9.88-13.58,23.77-8.31,35.48-4.76,12.13,3.67,20.22-.37,20.22-.37a4,4,0,0,1-.89-2.1c-.71-4,1.89-8.93,5.47-10.88,10.67-5.81,28.84-2.66,41-1a33.53,33.53,0,0,0,19.13-2.89c25-12.06,5.55-40.13,5.55-40.13s-26.65,16.36-54.22-2.2c-26.05-17.55-43.25-11.62-54.36-4.7a7.55,7.55,0,0,1-4.19,1.13h-.15a7.39,7.39,0,0,1-5.54-2.74L319,311.42a2,2,0,0,0-3.06,0l-7,8.52a7.4,7.4,0,0,1-5.54,2.77h-.14a7.54,7.54,0,0,1-4.19-1.14c-11.12-6.91-28.31-12.84-54.37,4.7-27.57,18.57-54.22,2.21-54.22,2.21s-19.43,28.07,5.56,40.13a33.49,33.49,0,0,0,19.12,2.89c12.12-1.67,30.28-4.84,41,1,3.57,1.94,6.17,6.88,5.46,10.88a3.91,3.91,0,0,1-.89,2.1s8.09,4,20.22.36C292.65,382.25,306.53,377,316.41,390.57Z"/><rect class="cls-3" x="216.21" y="253.2" width="205.75" height="35.51"/><rect class="cls-4" x="216.21" y="413.55" width="202.38" height="36.25"/><path class="cls-5" d="M316.41,390.53a1.26,1.26,0,0,0,1.76.28,1.24,1.24,0,0,0,.28-.28c9.88-13.58,23.77-8.31,35.48-4.76,12.13,3.67,20.22-.37,20.22-.37a3.93,3.93,0,0,1-.89-2.09c-.71-4,1.89-8.94,5.47-10.89,10.67-5.81,28.84-2.62,41-1a33.54,33.54,0,0,0,19.13-2.9c25-12.06,5.55-40.13,5.55-40.13s-26.65,16.36-54.22-2.2c-26.05-17.55-43.25-11.62-54.36-4.7a7.47,7.47,0,0,1-4.19,1.13h-.15a7.39,7.39,0,0,1-5.54-2.74L319,311.36a2,2,0,0,0-3.06,0l-7,8.55a7.42,7.42,0,0,1-5.54,2.74h-.14a7.46,7.46,0,0,1-4.19-1.14c-11.12-6.91-28.31-12.84-54.37,4.71-27.57,18.56-54.22,2.2-54.22,2.2s-19.43,28.07,5.56,40.13a33.48,33.48,0,0,0,19.12,2.88c12.12-1.68,30.28-4.84,41,1,3.57,2,6.17,6.88,5.46,10.88a3.88,3.88,0,0,1-.89,2.1s8.09,4,20.22.37C292.65,382.22,306.53,377,316.41,390.53Z"/><rect class="cls-4" x="216.21" y="253.2" width="205.75" height="35.51"/><path class="cls-6" d="M284.71,218.83h0c-.28-.93-1.8-1.62-2.81-1.62s-2.52.69-2.81,1.62h0a1.83,1.83,0,0,0-1.8,1.85H280a2.2,2.2,0,0,0,3.85,0h2.69A1.83,1.83,0,0,0,284.71,218.83Z"/><path class="cls-6" d="M298.55,218.83h0c-.29-.93-1.8-1.62-2.81-1.62s-2.53.69-2.81,1.62h0a1.83,1.83,0,0,0-1.81,1.85h2.69a2.2,2.2,0,0,0,3.85,0h2.69A1.83,1.83,0,0,0,298.55,218.83Z"/><path class="cls-6" d="M313.61,218.83h0c-.28-.93-1.8-1.62-2.81-1.62s-2.52.69-2.81,1.62h0a1.83,1.83,0,0,0-1.8,1.85h2.69a2.2,2.2,0,0,0,3.85,0h2.69A1.83,1.83,0,0,0,313.61,218.83Z"/><path class="cls-6" d="M328.5,218.83h0c-.28-.93-1.8-1.62-2.81-1.62s-2.53.69-2.81,1.62h0a1.82,1.82,0,0,0-1.8,1.85h2.68a2.2,2.2,0,0,0,3.86,0h2.68A1.82,1.82,0,0,0,328.5,218.83Z"/><path class="cls-6" d="M343.39,218.83h0c-.28-.93-1.8-1.62-2.81-1.62s-2.53.69-2.81,1.62h0a1.83,1.83,0,0,0-1.8,1.85h2.68a2.2,2.2,0,0,0,3.86,0h2.68A1.82,1.82,0,0,0,343.39,218.83Z"/><path class="cls-6" d="M358.64,218.83h0c-.28-.93-1.8-1.62-2.81-1.62s-2.52.69-2.81,1.62h0a1.83,1.83,0,0,0-1.8,1.85h2.68a2.25,2.25,0,0,0,1.93,1.14,2.22,2.22,0,0,0,1.93-1.14h2.69A1.83,1.83,0,0,0,358.64,218.83Z"/><path class="cls-7" d="M318.25,231.44H420v-3.31l-22.44-.24a48,48,0,0,1-6.55-.54l-1.05-.16a32.34,32.34,0,0,1-14.59-6,3.71,3.71,0,0,0-2.17-.74H263.33a3.71,3.71,0,0,0-2.17.74,32.3,32.3,0,0,1-14.57,6.06l-1.06.16a47.8,47.8,0,0,1-6.54.54l-22.44.24v3.31Z"/><path class="cls-8" d="M318.25,150.19h102v35.73H399.72l-1.08.1a106.4,106.4,0,0,0-33.74,9.1h0a41.65,41.65,0,0,1-17.27,3.75H288.86a41.69,41.69,0,0,1-17.28-3.75h0a106.66,106.66,0,0,0-33.74-9.1l-1.08-.1H216.19V150.2H318.25"/><line class="cls-9" x1="418.58" y1="415.79" x2="216.21" y2="415.79"/><line class="cls-9" x1="418.58" y1="418.05" x2="216.21" y2="418.05"/><line class="cls-9" x1="418.58" y1="420.32" x2="216.21" y2="420.32"/><line class="cls-9" x1="418.58" y1="422.58" x2="216.21" y2="422.58"/><line class="cls-9" x1="418.58" y1="424.85" x2="216.21" y2="424.85"/><line class="cls-9" x1="418.58" y1="427.11" x2="216.21" y2="427.11"/><line class="cls-9" x1="418.58" y1="429.38" x2="216.21" y2="429.38"/><line class="cls-9" x1="418.58" y1="431.64" x2="216.21" y2="431.64"/><line class="cls-9" x1="418.58" y1="433.91" x2="216.21" y2="433.91"/><line class="cls-9" x1="418.58" y1="436.17" x2="216.21" y2="436.17"/><line class="cls-9" x1="418.58" y1="438.44" x2="216.21" y2="438.44"/><line class="cls-9" x1="418.58" y1="440.71" x2="216.21" y2="440.71"/><line class="cls-9" x1="418.58" y1="442.97" x2="216.21" y2="442.97"/><line class="cls-9" x1="418.58" y1="445.24" x2="216.21" y2="445.24"/><line class="cls-9" x1="418.58" y1="447.5" x2="216.21" y2="447.5"/><line class="cls-10" x1="419.96" y1="229.87" x2="216.53" y2="229.87"/><line class="cls-10" x1="388.38" y1="228.31" x2="242.35" y2="228.31"/><line class="cls-10" x1="383.69" y1="226.75" x2="251.91" y2="226.75"/><line class="cls-10" x1="379.19" y1="225.19" x2="256.23" y2="225.19"/><line class="cls-10" x1="375.42" y1="223.62" x2="259.86" y2="223.62"/><line class="cls-10" x1="375.42" y1="222.06" x2="261.37" y2="222.06"/><line class="cls-10" x1="421.96" y1="257.45" x2="216.21" y2="257.45"/><line class="cls-10" x1="421.96" y1="261.89" x2="216.21" y2="261.89"/><line class="cls-10" x1="421.96" y1="264.11" x2="216.21" y2="264.11"/><line class="cls-10" x1="421.96" y1="259.67" x2="216.21" y2="259.67"/><line class="cls-10" x1="421.96" y1="255.23" x2="216.21" y2="255.23"/><line class="cls-10" x1="421.96" y1="266.33" x2="216.21" y2="266.33"/><line class="cls-10" x1="421.96" y1="268.55" x2="216.21" y2="268.55"/><line class="cls-10" x1="421.96" y1="270.77" x2="216.21" y2="270.77"/><line class="cls-10" x1="421.96" y1="272.99" x2="216.21" y2="272.99"/><line class="cls-10" x1="421.96" y1="275.21" x2="216.21" y2="275.21"/><line class="cls-10" x1="421.96" y1="277.43" x2="216.21" y2="277.43"/><line class="cls-10" x1="421.96" y1="279.64" x2="216.21" y2="279.64"/><line class="cls-10" x1="421.96" y1="281.86" x2="216.21" y2="281.86"/><line class="cls-10" x1="421.96" y1="284.08" x2="216.21" y2="284.08"/><line class="cls-10" x1="421.96" y1="286.29" x2="216.21" y2="286.29"/><path class="cls-11" d="M405.58,333.37a51.23,51.23,0,0,0,26.25,0"/><path class="cls-11" d="M299.46,321.72a7.51,7.51,0,0,0,3.79.94h.15a7.35,7.35,0,0,0,3.36-.94"/><path class="cls-11" d="M203,333.37a51.19,51.19,0,0,0,26.24,0"/><path class="cls-11" d="M431.83,333.37a56.19,56.19,0,0,0,8.48-2.91"/><path class="cls-11" d="M397.63,330.46a50.74,50.74,0,0,0,7.95,2.91"/><path class="cls-11" d="M343.93,382.89c-5.35-1.27-10.78-1.81-15.81,0"/><path class="cls-11" d="M306.72,382.89c-5-1.81-10.46-1.27-15.81,0"/><path class="cls-11" d="M253.54,371.24c-10.39-4-25.78-1.56-36.89,0"/><path class="cls-11" d="M418.21,371.24c-11.11-1.56-26.53-4-36.88,0"/><path class="cls-11" d="M290.91,382.89c-3.4.81-6.77,1.91-10,2.88l-.13,0"/><path class="cls-11" d="M311.94,385.8a18.58,18.58,0,0,0-5.22-2.91"/><path class="cls-11" d="M286.31,315.89a41.66,41.66,0,0,1,7.88,2.92"/><line class="cls-11" x1="309.86" y1="318.81" x2="312.23" y2="315.89"/><path class="cls-11" d="M340.68,318.81a41,41,0,0,1,7.88-2.92"/><line class="cls-11" x1="322.63" y1="315.89" x2="325" y2="318.81"/><path class="cls-11" d="M325,318.81l.89,1.08a7.57,7.57,0,0,0,2.17,1.81"/><path class="cls-11" d="M335.4,321.72l.38-.2a53,53,0,0,1,4.9-2.71"/><path class="cls-11" d="M306.78,321.72a7.41,7.41,0,0,0,2.17-1.81l.9-1.08"/><path class="cls-11" d="M294.19,318.81a53.78,53.78,0,0,1,4.87,2.7c.12.08.25.13.38.2"/><path class="cls-12" d="M261.5,380H373.36a12,12,0,0,1,1-2.91H260.46A11.11,11.11,0,0,1,261.5,380Z"/><path class="cls-13" d="M261.66,382.89h29.25c5.35-1.27,10.78-1.81,15.81,0h21.42c5-1.81,10.47-1.27,15.81,0h29.23a9.17,9.17,0,0,1,.15-2.91H261.5A9.17,9.17,0,0,1,261.66,382.89Z"/><path class="cls-12" d="M353.93,385.77l.13,0h19.1c.63-.23,1-.4,1-.4a3.85,3.85,0,0,1-.89-2.09c0-.14,0-.28-.06-.42H343.93C347.36,383.7,350.72,384.8,353.93,385.77Z"/><path class="cls-12" d="M196.06,368.55a32.06,32.06,0,0,0,8.43,2.71h12.16c11.11-1.57,26.53-4,36.89,0H381.33c10.38-4,25.77-1.57,36.88,0h12.16a32.13,32.13,0,0,0,8.44-2.71l.44-.23H195.62Z"/><path class="cls-12" d="M299.09,321.52a54,54,0,0,0-4.88-2.71h-36q-2.92,1.24-6,2.91h47.32A3.35,3.35,0,0,0,299.09,321.52Z"/><path class="cls-12" d="M303.28,322.66a7.46,7.46,0,0,1-3.79-.94H252.14c-1.62.88-3.28,1.84-5,2.91H387.71c-1.7-1.08-3.37-2-5-2.91H335.4"/><line class="cls-12" x1="328.08" y1="321.72" x2="306.78" y2="321.72"/><path class="cls-12" d="M335.4,321.72h47.33c-2.08-1.12-4.09-2.09-6.05-2.91h-36"/><path class="cls-12" d="M215.18,371.43l1.47-.21H204.49A34.84,34.84,0,0,0,215.18,371.43Z"/><path class="cls-12" d="M260.46,377.07H374.4a12.07,12.07,0,0,1,2.09-2.92H258.38A11.84,11.84,0,0,1,260.46,377.07Z"/><path class="cls-12" d="M256.14,372.42a9.66,9.66,0,0,1,2.24,1.73H376.49a9.45,9.45,0,0,1,2.24-1.73,22.51,22.51,0,0,1,2.6-1.18H253.54A22.51,22.51,0,0,1,256.14,372.42Z"/><path class="cls-12" d="M315,388.75h4.93a21.93,21.93,0,0,1,3-2.92h-11A22,22,0,0,1,315,388.75Z"/><path class="cls-12" d="M316.41,390.53a1.26,1.26,0,0,0,1.76.28,1.24,1.24,0,0,0,.28-.28c.47-.65,1-1.25,1.45-1.81H315C315.45,389.29,315.94,389.88,316.41,390.53Z"/><path class="cls-12" d="M373.16,385.8h-19.1C363.67,388.68,370.71,386.72,373.16,385.8Z"/><path class="cls-12" d="M419.71,371.43a34.84,34.84,0,0,0,10.69-.21H418.21Z"/><path class="cls-12" d="M444.36,328.43a37.34,37.34,0,0,1-4.05,2h5.31C444.88,329.17,444.36,328.43,444.36,328.43Z"/><path class="cls-12" d="M348.55,315.89H367.9A39.84,39.84,0,0,0,348.55,315.89Z"/><path class="cls-12" d="M280.8,385.8H261.69C264.16,386.72,271.19,388.68,280.8,385.8Z"/><path class="cls-12" d="M306.72,382.89a18.58,18.58,0,0,1,5.22,2.91h11a18.86,18.86,0,0,1,5.22-2.91Z"/><path class="cls-12" d="M195.62,368.32H439.25a27.91,27.91,0,0,0,4.68-2.91h-253A27.28,27.28,0,0,0,195.62,368.32Z"/><path class="cls-12" d="M290.91,382.89H261.66a2,2,0,0,1-.06.42,3.85,3.85,0,0,1-.89,2.09s.35.17,1,.4H280.8l.13,0C284.14,384.8,287.51,383.7,290.91,382.89Z"/><path class="cls-12" d="M376.68,318.81a54.46,54.46,0,0,0-8.78-2.92H348.55a41.14,41.14,0,0,0-7.87,2.92Z"/><path class="cls-12" d="M309,319.91a7.37,7.37,0,0,1-2.16,1.81h21.3a7.41,7.41,0,0,1-2.17-1.81l-.89-1.08H309.88Z"/><path class="cls-12" d="M286.31,315.89H267a54.25,54.25,0,0,0-8.79,2.92h36A41.66,41.66,0,0,0,286.31,315.89Z"/><path class="cls-12" d="M447.19,333.37c-.57-1.14-1.11-2.13-1.57-2.91h-5.31a56.19,56.19,0,0,1-8.48,2.91Z"/><path class="cls-12" d="M229.28,333.37h176.3a50.74,50.74,0,0,1-7.95-2.91H237.24A51.23,51.23,0,0,1,229.28,333.37Z"/><path class="cls-12" d="M194.54,330.46h-5.3c-.45.78-1,1.77-1.57,2.91H203A56.43,56.43,0,0,1,194.54,330.46Z"/><polygon class="cls-12" points="325 318.81 322.63 315.89 312.23 315.89 309.86 318.81 325 318.81"/><path class="cls-12" d="M405.58,333.37H229.28a51.19,51.19,0,0,1-26.24,0H187.67c-.44.88-.89,1.86-1.33,2.92H448.53c-.44-1.06-.9-2-1.34-2.92H431.83A51.23,51.23,0,0,1,405.58,333.37Z"/><polygon class="cls-12" points="320.27 312.98 314.6 312.98 312.23 315.89 322.63 315.89 320.27 312.98"/><path class="cls-12" d="M319,311.38a2,2,0,0,0-2.77-.29,2,2,0,0,0-.29.29L314.6,313h5.67Z"/><path class="cls-12" d="M267,315.89h19.34A39.8,39.8,0,0,0,267,315.89Z"/><path class="cls-12" d="M244.72,326.22c-.69.46-1.38.9-2.06,1.32H392.21q-1-.63-2.07-1.32c-.82-.54-1.62-1.08-2.43-1.59H247.16C246.36,325.14,245.54,325.67,244.72,326.22Z"/><path class="cls-13" d="M237.24,330.46H397.63a55.4,55.4,0,0,1-5.42-2.92H242.66A55.4,55.4,0,0,1,237.24,330.46Z"/><path class="cls-12" d="M183.34,350.86H451.53a28.44,28.44,0,0,0,0-2.92H183.36A25.86,25.86,0,0,0,183.34,350.86Z"/><path class="cls-12" d="M184.46,356.68H450.4a19.68,19.68,0,0,0,.79-2.92H183.67A19.68,19.68,0,0,0,184.46,356.68Z"/><path class="cls-12" d="M183.67,353.76H451.19a22,22,0,0,0,.34-2.91H183.34A22,22,0,0,0,183.67,353.76Z"/><path class="cls-12" d="M185.79,359.59H449.07a18.61,18.61,0,0,0,1.33-2.91H184.46A18.61,18.61,0,0,0,185.79,359.59Z"/><path class="cls-12" d="M190.5,328.43a21.82,21.82,0,0,0-1.26,2h5.3A37.19,37.19,0,0,1,190.5,328.43Z"/><path class="cls-12" d="M190.94,365.41h253A20.62,20.62,0,0,0,447,362.5H187.86A21.19,21.19,0,0,0,190.94,365.41Z"/><path class="cls-12" d="M187.86,362.5H447a19.19,19.19,0,0,0,2.07-2.91H185.79A19.19,19.19,0,0,0,187.86,362.5Z"/><path class="cls-12" d="M184.34,342.11H450.52c-.26-1-.54-2-.88-2.91H185.22C184.9,340.13,184.6,341.11,184.34,342.11Z"/><path class="cls-12" d="M185.22,339.2H449.64c-.35-1-.73-2-1.08-2.91H186.34C186,337.2,185.57,338.17,185.22,339.2Z"/><path class="cls-12" d="M183.36,347.93H451.5c-.07-1-.19-1.94-.35-2.91H183.71C183.55,346,183.43,347,183.36,347.93Z"/><path class="cls-12" d="M183.71,345H451.15q-.25-1.49-.63-2.91H184.34C184.1,343.06,183.88,344,183.71,345Z"/><line class="cls-9" x1="420.29" y1="152.21" x2="216.21" y2="152.21"/><line class="cls-9" x1="420.29" y1="154.44" x2="216.21" y2="154.44"/><line class="cls-9" x1="420.29" y1="156.68" x2="216.21" y2="156.68"/><line class="cls-9" x1="420.29" y1="158.91" x2="216.21" y2="158.91"/><line class="cls-9" x1="420.29" y1="161.14" x2="216.21" y2="161.14"/><line class="cls-9" x1="420.29" y1="163.37" x2="216.21" y2="163.37"/><line class="cls-9" x1="420.29" y1="165.61" x2="216.21" y2="165.61"/><line class="cls-9" x1="420.29" y1="167.84" x2="216.21" y2="167.84"/><line class="cls-9" x1="420.29" y1="170.07" x2="216.21" y2="170.07"/><line class="cls-9" x1="420.29" y1="172.3" x2="216.21" y2="172.3"/><line class="cls-9" x1="420.29" y1="174.54" x2="216.21" y2="174.54"/><line class="cls-9" x1="420.29" y1="176.77" x2="216.21" y2="176.77"/><line class="cls-9" x1="420.29" y1="179" x2="216.21" y2="179"/><line class="cls-9" x1="420.29" y1="181.23" x2="216.21" y2="181.23"/><line class="cls-9" x1="420.29" y1="183.47" x2="216.21" y2="183.47"/><line class="cls-9" x1="420.29" y1="185.7" x2="216.21" y2="185.7"/><line class="cls-9" x1="386.2" y1="187.93" x2="251.59" y2="187.93"/><line class="cls-9" x1="377.92" y1="190.16" x2="259.86" y2="190.16"/><line class="cls-9" x1="371.52" y1="192.4" x2="266.26" y2="192.4"/><line class="cls-9" x1="365.56" y1="194.91" x2="272.23" y2="194.91"/><line class="cls-9" x1="360.38" y1="196.87" x2="277.41" y2="196.87"/><circle class="cls-14" cx="280.66" cy="438.64" r="6.06"/><circle class="cls-15" cx="280.66" cy="438.64" r="3.05"/><circle class="cls-14" cx="295.74" cy="438.64" r="6.06"/><circle class="cls-15" cx="295.74" cy="438.64" r="3.05"/><circle class="cls-14" cx="310.8" cy="438.64" r="6.06"/><circle class="cls-15" cx="310.8" cy="438.64" r="3.05"/><circle class="cls-14" cx="325.69" cy="438.64" r="6.06"/><circle class="cls-15" cx="325.69" cy="438.64" r="3.05"/><circle class="cls-14" cx="340.58" cy="438.64" r="6.06"/><circle class="cls-15" cx="340.58" cy="438.64" r="3.05"/><circle class="cls-14" cx="355.83" cy="438.64" r="6.06"/><circle class="cls-15" cx="355.83" cy="438.64" r="3.05"/><path class="cls-16" d="M242.17,432.54l-25.25,16.73a.44.44,0,0,1-.62-.08.47.47,0,0,1-.09-.28V414.38a.43.43,0,0,1,.45-.44.4.4,0,0,1,.24.07l25.22,16.78a1.08,1.08,0,0,1,.28,1.5A.92.92,0,0,1,242.17,432.54Z"/><path class="cls-16" d="M253.28,413.54a20.57,20.57,0,0,0,.32,36.27h9.47a18.76,18.76,0,0,0,1.72-7.83V418.29a7.4,7.4,0,0,0-1.72-4.74h-9.79Z"/><path class="cls-16" d="M392.65,432.54l25.24,16.73a.46.46,0,0,0,.63-.08.47.47,0,0,0,.09-.28V414.38a.46.46,0,0,0-.7-.37l-25.22,16.78a1.05,1.05,0,0,0-.33,1.45A1.18,1.18,0,0,0,392.65,432.54Z"/><path class="cls-16" d="M381.51,413.52a20.56,20.56,0,0,1-.32,36.26h-9.47l-1.19-2.56a5.9,5.9,0,0,1-.54-2.44V416.24a1.8,1.8,0,0,1,.42-1.16l1.3-1.55Z"/><rect class="cls-17" x="257.34" y="421.47" width="117.67" height="2.94" transform="translate(-11.11 8.54) rotate(-1.52)"/><path class="cls-16" d="M252.14,321.72s16.28,18.85,1.4,49.52"/><path class="cls-16" d="M382.07,321.72s-16.28,18.87-1.4,49.52"/><path class="cls-17" d="M268.12,158.46l99.06-3a1.46,1.46,0,0,1,1.51,1.42h0a1.47,1.47,0,0,1-1.43,1.52l-99.06,3a1.47,1.47,0,0,1-1.51-1.43h0A1.47,1.47,0,0,1,268.12,158.46Z"/><circle class="cls-14" cx="280.66" cy="174.54" r="6.06"/><circle class="cls-15" cx="280.66" cy="174.54" r="3.05"/><circle class="cls-14" cx="295.74" cy="174.54" r="6.06"/><circle class="cls-15" cx="295.74" cy="174.54" r="3.05"/><circle class="cls-14" cx="310.8" cy="174.54" r="6.06"/><circle class="cls-15" cx="310.8" cy="174.54" r="3.05"/><circle class="cls-14" cx="325.69" cy="174.54" r="6.06"/><circle class="cls-15" cx="325.69" cy="174.54" r="3.05"/><circle class="cls-14" cx="340.58" cy="174.54" r="6.06"/><circle class="cls-15" cx="340.58" cy="174.54" r="3.05"/><circle class="cls-14" cx="355.83" cy="174.54" r="6.06"/><circle class="cls-15" cx="355.83" cy="174.54" r="3.05"/><path class="cls-16" d="M254.39,150.19l3.18,1.84a9.3,9.3,0,0,1,4.63,8v23.18a6.43,6.43,0,0,1-1.63,4.28l-2.26,2.56"/><path class="cls-17" d="M268,261.84l99-2.66a1.47,1.47,0,0,1,1.51,1.43h0a1.47,1.47,0,0,1-1.43,1.51l-99,2.66a1.47,1.47,0,0,1-1.51-1.43h0A1.47,1.47,0,0,1,268,261.84Z"/><circle class="cls-14" cx="280.66" cy="277.54" r="6.06"/><circle class="cls-15" cx="280.66" cy="277.54" r="3.05"/><circle class="cls-14" cx="295.74" cy="277.54" r="6.06"/><circle class="cls-15" cx="295.74" cy="277.54" r="3.05"/><circle class="cls-14" cx="310.8" cy="277.54" r="6.06"/><circle class="cls-15" cx="310.8" cy="277.54" r="3.05"/><circle class="cls-14" cx="325.69" cy="277.54" r="6.06"/><circle class="cls-15" cx="325.69" cy="277.54" r="3.05"/><circle class="cls-14" cx="340.58" cy="277.54" r="6.06"/><circle class="cls-15" cx="340.58" cy="277.54" r="3.05"/><circle class="cls-14" cx="355.83" cy="277.54" r="6.06"/><circle class="cls-15" cx="355.83" cy="277.54" r="3.05"/><path class="cls-16" d="M254.39,253.2l3.18,1.63a8.16,8.16,0,0,1,4.65,7.17v20.65a5.45,5.45,0,0,1-1.62,3.79l-2.29,2.3"/><path class="cls-16" d="M383,253l-3.19,1.63a8.14,8.14,0,0,0-4.64,7.16v20.66a5.41,5.41,0,0,0,1.62,3.81l2.29,2.3"/><path class="cls-16" d="M382.1,150.19,378.92,152a9.28,9.28,0,0,0-4.64,8v23.18a6.37,6.37,0,0,0,1.62,4.28l2.28,2.58"/><circle class="cls-18" cx="309.87" cy="368.03" r="6.06"/><circle class="cls-19" cx="309.87" cy="368.03" r="3.05"/><circle class="cls-18" cx="294.89" cy="365" r="6.06"/><circle class="cls-19" cx="294.89" cy="365" r="3.05"/><circle class="cls-18" cx="354.98" cy="360.6" r="6.06"/><circle class="cls-19" cx="354.98" cy="360.6" r="3.05"/><circle class="cls-18" cx="279.82" cy="360.6" r="6.06"/><circle class="cls-19" cx="279.82" cy="360.6" r="3.05"/><circle class="cls-18" cx="324.85" cy="368.03" r="6.06"/><circle class="cls-19" cx="324.85" cy="368.03" r="3.05"/><circle class="cls-18" cx="339.73" cy="365" r="6.06"/><circle class="cls-19" cx="339.73" cy="365" r="3.05"/><path class="cls-20" d="M267.12,344.91l99-2.67a1.47,1.47,0,0,1,1.51,1.43h0a1.47,1.47,0,0,1-1.43,1.51l-99,2.66a1.46,1.46,0,0,1-1.51-1.43h0A1.46,1.46,0,0,1,267.12,344.91Z"/><circle class="cls-14" cx="279.82" cy="360.6" r="6.06"/><circle class="cls-15" cx="279.82" cy="360.6" r="3.05"/><circle class="cls-14" cx="354.98" cy="360.61" r="6.06"/><circle class="cls-15" cx="354.98" cy="360.61" r="3.05"/><circle class="cls-14" cx="294.89" cy="364.99" r="6.06"/><circle class="cls-15" cx="294.89" cy="364.99" r="3.05"/><circle class="cls-14" cx="309.87" cy="368.05" r="6.06"/><circle class="cls-15" cx="309.87" cy="368.05" r="3.05"/><circle class="cls-14" cx="324.85" cy="368.03" r="6.06"/><circle class="cls-15" cx="324.85" cy="368.03" r="3.05"/><circle class="cls-14" cx="339.73" cy="364.99" r="6.06"/><circle class="cls-15" cx="339.73" cy="364.99" r="3.05"/><path class="cls-17" d="M267.12,344.91l99-2.67a1.47,1.47,0,0,1,1.51,1.43h0a1.47,1.47,0,0,1-1.43,1.51l-99,2.66a1.46,1.46,0,0,1-1.51-1.43h0A1.46,1.46,0,0,1,267.12,344.91Z"/><rect class="cls-21" x="216.21" y="413.55" width="202.38" height="36.25"/><rect class="cls-21" x="216.21" y="253.2" width="205.75" height="35.51"/><path class="cls-21" d="M318.25,150.19h102v35.73H399.72l-1.08.1a106.4,106.4,0,0,0-33.74,9.1h0a41.65,41.65,0,0,1-17.27,3.75H288.86a41.69,41.69,0,0,1-17.28-3.75h0a106.66,106.66,0,0,0-33.74-9.1l-1.08-.1H216.19V150.2H318.25"/><path class="cls-21" d="M316.41,390.57a1.26,1.26,0,0,0,1.76.27,1,1,0,0,0,.28-.27c9.88-13.58,23.77-8.31,35.48-4.76,12.13,3.67,20.22-.37,20.22-.37a4,4,0,0,1-.89-2.1c-.71-4,1.89-8.93,5.47-10.88,10.67-5.81,28.84-2.66,41-1a33.53,33.53,0,0,0,19.13-2.89c25-12.06,5.55-40.13,5.55-40.13s-26.65,16.36-54.22-2.2c-26.05-17.55-43.25-11.62-54.36-4.7a7.55,7.55,0,0,1-4.19,1.13h-.15a7.39,7.39,0,0,1-5.54-2.74L319,311.42a2,2,0,0,0-3.06,0l-7,8.52a7.4,7.4,0,0,1-5.54,2.77h-.14a7.54,7.54,0,0,1-4.19-1.14c-11.12-6.91-28.31-12.84-54.37,4.7-27.57,18.57-54.22,2.21-54.22,2.21s-19.43,28.07,5.56,40.13a33.49,33.49,0,0,0,19.12,2.89c12.12-1.67,30.28-4.84,41,1,3.57,1.94,6.17,6.88,5.46,10.88a3.91,3.91,0,0,1-.89,2.1s8.09,4,20.22.36C292.65,382.25,306.53,377,316.41,390.57Z"/><rect class="cls-1" y="452.39" width="600" height="148.59"/><rect class="cls-1" x="0.21" y="2.05" width="600" height="148.59"/></g></g></svg>