<svg xmlns="http://www.w3.org/2000/svg" viewBox="0 0 224.14 582.02"><defs><style>.cls-1{fill:#ce1c1f;}.cls-2{fill:#2b5086;}.cls-3{fill:#eee7d3;}.cls-23,.cls-25,.cls-26,.cls-27,.cls-28,.cls-29,.cls-30,.cls-4,.cls-5,.cls-8{fill:none;}.cls-4{stroke:#e2d6af;}.cls-10,.cls-21,.cls-22,.cls-23,.cls-24,.cls-25,.cls-26,.cls-27,.cls-28,.cls-29,.cls-30,.cls-31,.cls-4,.cls-5,.cls-6,.cls-7,.cls-8,.cls-9{stroke-miterlimit:10;}.cls-10,.cls-21,.cls-4,.cls-7,.cls-8,.cls-9{stroke-width:0.72px;}.cls-5{stroke:#d2a87b;stroke-width:2.17px;}.cls-10,.cls-21,.cls-22,.cls-31,.cls-6,.cls-7{stroke:#000;}.cls-6{stroke-width:2.22px;}.cls-7{fill:#754c24;}.cls-8{stroke:#ccc;}.cls-23,.cls-8{stroke-linecap:round;}.cls-9{fill:#e6e6e6;stroke:#e6e6e6;}.cls-11{fill:#205077;}.cls-12{fill:#fffb6e;}.cls-13,.cls-15,.cls-18,.cls-31{fill:#fff;}.cls-14{fill:#0f3544;}.cls-15,.cls-18{font-size:4.67px;}.cls-15{font-family:ScriptoramaJF-Tradeshow, ScriptoramaJF;}.cls-16{letter-spacing:-0.04em;}.cls-17{letter-spacing:-0.03em;}.cls-18{font-family:Helvetica-Light, Helvetica;font-weight:300;letter-spacing:-0.07em;}.cls-19{font-size:1.61px;letter-spacing:-0.07em;}.cls-20{fill:#514635;}.cls-21{fill:#8c6239;}.cls-22{fill:#999;}.cls-22,.cls-31{stroke-width:0.18px;}.cls-23{stroke:#fff;stroke-width:1.45px;}.cls-24{fill:red;}.cls-24,.cls-25,.cls-26,.cls-27,.cls-28,.cls-29,.cls-30{stroke:#666;}.cls-24,.cls-30{stroke-width:0.52px;}.cls-25{stroke-width:0.45px;}.cls-26{stroke-width:0.19px;}.cls-27{stroke-width:0.26px;}.cls-28{stroke-width:0.32px;}.cls-29{stroke-width:0.39px;}</style></defs><g id="Layer_2" data-name="Layer 2"><g id="Layer_1-2" data-name="Layer 1"><path class="cls-1" d="M34.63,379.24c8.86,19.95,10.78,22-.74,39.9C27.24,429.48,4.33,456.82,1.38,496c-4.42,58.5,32,77.87,76.07,83.58V296.36C40.61,301.69,8.25,319.9,34.63,379.24Z"/><path class="cls-2" d="M223.78,496c-2.95-39.16-25.86-66.5-32.51-76.84-11.53-17.93-9.61-19.95-.74-39.9,26.57-59.78-6.48-77.82-43.65-83V579.67C191.36,574.09,228.22,554.84,223.78,496Z"/><path class="cls-3" d="M113.36,294.24h-.74a247.06,247.06,0,0,0-34.75,2.09v283.2A293.87,293.87,0,0,0,113,581.67a297.66,297.66,0,0,0,34.3-2V296.21A250.43,250.43,0,0,0,113.36,294.24Z"/><path class="cls-4" d="M111.93,581.66c57.76-.45,116.76-12.13,111.2-85.71-2.95-39.16-25.86-66.5-32.51-76.84-11.52-17.93-9.6-19.95-.74-39.9,34.76-78.21-32.51-85-77.58-85h-.74c-45.07,0-112.34,6.77-77.58,85,8.86,20,10.78,22-.74,39.9C26.59,429.45,3.68,456.79.73,496c-5.56,73.58,53.44,85.26,111.2,85.71"/><circle class="cls-5" cx="111.93" cy="376.99" r="29.03"/><circle class="cls-6" cx="111.93" cy="376.99" r="25.86"/><path class="cls-7" d="M127.34,347.33H96.53q2.35-122.76,4.7-245.54h21.41Q125,224.57,127.34,347.33Z"/><line class="cls-8" x1="100.98" y1="121.55" x2="122.87" y2="121.55"/><line class="cls-8" x1="100.55" y1="140.25" x2="123.13" y2="140.25"/><line class="cls-8" x1="100.33" y1="158.59" x2="123.58" y2="158.59"/><line class="cls-8" x1="99.59" y1="175.53" x2="123.89" y2="175.53"/><line class="cls-8" x1="99.68" y1="191.05" x2="124.55" y2="191.05"/><line class="cls-8" x1="99.38" y1="205.87" x2="124.55" y2="205.87"/><line class="cls-8" x1="99.03" y1="220.58" x2="124.93" y2="220.58"/><line class="cls-8" x1="98.61" y1="233.76" x2="125.35" y2="233.76"/><line class="cls-8" x1="98.61" y1="246.63" x2="125.35" y2="246.63"/><line class="cls-8" x1="98.03" y1="269.77" x2="125.7" y2="269.77"/><line class="cls-8" x1="98.03" y1="258.58" x2="125.7" y2="258.58"/><line class="cls-8" x1="97.33" y1="290.76" x2="126.31" y2="290.76"/><line class="cls-8" x1="98.03" y1="280.65" x2="126.31" y2="280.65"/><line class="cls-8" x1="97.34" y1="309.15" x2="126.31" y2="309.15"/><line class="cls-8" x1="97.34" y1="300.11" x2="126.31" y2="300.11"/><line class="cls-8" x1="97.34" y1="317.58" x2="126.92" y2="317.58"/><line class="cls-8" x1="96.53" y1="333.67" x2="127.34" y2="333.67"/><line class="cls-8" x1="96.53" y1="340.26" x2="126.92" y2="340.26"/><line class="cls-8" x1="96.64" y1="325.86" x2="126.92" y2="325.86"/><circle class="cls-9" cx="111.94" cy="183.36" r="0.44"/><circle class="cls-10" cx="102.4" cy="213.22" r="0.44"/><circle class="cls-10" cx="121.48" cy="213.22" r="0.44"/><circle class="cls-9" cx="111.82" cy="252.61" r="0.44"/><circle class="cls-9" cx="111.93" cy="304.63" r="0.44"/><circle class="cls-9" cx="102.4" cy="213.22" r="0.44"/><circle class="cls-9" cx="121.48" cy="213.22" r="0.44"/><circle class="cls-9" cx="101.22" cy="275.24" r="0.44"/><circle class="cls-9" cx="122.67" cy="275.21" r="0.44"/><rect x="126.9" y="24.74" width="9.51" height="2.22" transform="translate(263.31 51.69) rotate(-180)"/><rect x="87.71" y="24.73" width="9.51" height="2.22"/><rect x="87.13" y="61.2" width="9.51" height="2.22"/><rect x="127.22" y="61.2" width="9.51" height="2.22" transform="translate(263.95 124.63) rotate(-180)"/><rect x="125.43" y="42.47" width="9.51" height="2.22" transform="translate(260.37 87.15) rotate(-180)"/><rect x="89.15" y="42.48" width="9.51" height="2.22"/><path class="cls-11" d="M100.69,100.83l-.07-.9c-.8-11.7-4.28-17.08-6.81-21-2-3-3.51-5.43-2.84-9.14,6.25-24.65,1.92-42-1-53.47-1.72-6.92-2.87-11.5-.45-14A4.4,4.4,0,0,1,92.75,1h.17a43,43,0,0,1,4.8.68,79.86,79.86,0,0,0,14.17,1.5H112a80.33,80.33,0,0,0,14.19-1.5A42.75,42.75,0,0,1,131,1h.17a4.37,4.37,0,0,1,3.17,1.33c2.42,2.51,1.28,7.09-.45,14-2.86,11.48-7.19,28.82-1,53.4.68,3.78-.86,6.18-2.82,9.21-2.54,3.93-6,9.31-6.82,21l-.06.9Z"/><path class="cls-12" d="M131.21,1.94a3.41,3.41,0,0,1,2.47,1C139.19,8.7,122,30.47,132,70c1.42,7.87-8.24,9.16-9.67,29.92H101.59C100.16,79.11,90.51,77.82,91.92,70c10-39.48-7.16-61.25-1.65-67a3.43,3.43,0,0,1,2.48-1h.13c3.21.12,10.23,2.18,19,2.18H112c8.78,0,15.82-2.06,19-2.18h.14m0-1.94H131a40.21,40.21,0,0,0-4.94.7,79.91,79.91,0,0,1-14,1.48h-.15a78.72,78.72,0,0,1-14-1.49A41.49,41.49,0,0,0,93,0h-.2a5.35,5.35,0,0,0-3.88,1.63c-2.79,2.9-1.59,7.68.21,14.92,2.84,11.38,7.14,28.58,1,52.92l0,.07v.07c-.73,4.09,1,6.75,3,9.84,2.48,3.84,5.88,9.09,6.67,20.55l.12,1.8h24.39l.13-1.8c.79-11.46,4.18-16.71,6.66-20.55,2-3.09,3.72-5.75,3-9.84v-.07l0-.07c-6.17-24.34-1.88-41.54,1-52.92,1.81-7.24,3-12,.21-14.92A5.35,5.35,0,0,0,131.21,0Z"/><polyline class="cls-13" points="109.02 28.84 107.14 34.63 112.05 31 117.33 34.63 115.21 28.91 120.14 25.08 114.15 25.08 112.17 18.96 110.17 25.08 103.95 25.08 109.02 28.84"/><polyline class="cls-13" points="109.02 46.56 107.14 52.35 112.05 48.72 117.33 52.35 115.21 46.63 120.14 42.8 114.15 42.8 112.17 36.68 110.17 42.8 103.95 42.8 109.02 46.56"/><polyline class="cls-13" points="109.02 65.35 107.14 71.15 112.05 67.51 117.33 71.15 115.21 65.42 120.14 61.59 114.15 61.59 112.17 55.47 110.17 61.59 103.95 61.59 109.02 65.35"/><circle class="cls-14" cx="98.66" cy="43.6" r="2.1"/><circle class="cls-14" cx="126.88" cy="25.86" r="2.1"/><circle class="cls-14" cx="125.43" cy="43.6" r="2.1"/><path class="cls-13" d="M89.63,47.91a7.21,7.21,0,0,1-3.8,0,10.71,10.71,0,0,1,0-8.63,7.21,7.21,0,0,1,3.8,0A10.71,10.71,0,0,1,89.63,47.91Z"/><path d="M87.73,48.3A7.42,7.42,0,0,1,85.8,48l-.07,0,0-.06a10.87,10.87,0,0,1,0-8.73l0-.06.07,0a7.43,7.43,0,0,1,3.86,0l.07,0,0,.06a10.79,10.79,0,0,1,0,8.73l0,.06-.07,0A7.42,7.42,0,0,1,87.73,48.3Zm-1.8-.5a7.08,7.08,0,0,0,3.6,0,10.6,10.6,0,0,0,0-8.41,7.08,7.08,0,0,0-3.6,0A10.6,10.6,0,0,0,85.93,47.8Z"/><path class="cls-13" d="M134.46,47.9a7.21,7.21,0,0,0,3.8,0,10.71,10.71,0,0,0,0-8.63,7.21,7.21,0,0,0-3.8,0A10.71,10.71,0,0,0,134.46,47.9Z"/><path d="M134.43,48l-.07,0,0-.06a10.87,10.87,0,0,1,0-8.73l0-.06.07,0a7.43,7.43,0,0,1,3.86,0l.07,0,0,.06a10.87,10.87,0,0,1,0,8.73l0,.06-.07,0a7.29,7.29,0,0,1-3.86,0Zm3.73-8.65a7.08,7.08,0,0,0-3.6,0,10.6,10.6,0,0,0,0,8.41,7.08,7.08,0,0,0,3.6,0A10.6,10.6,0,0,0,138.16,39.38Z"/><path class="cls-13" d="M88.19,30.16a7.21,7.21,0,0,1-3.8,0,10.71,10.71,0,0,1,0-8.63,7.21,7.21,0,0,1,3.8,0A10.63,10.63,0,0,1,88.19,30.16Z"/><path d="M86.29,30.55a7.42,7.42,0,0,1-1.93-.26l-.06,0,0-.06a10.87,10.87,0,0,1,0-8.73l0-.06.06,0a7.47,7.47,0,0,1,3.87,0l.06,0,0,.06a10.87,10.87,0,0,1,0,8.73l0,.06-.06,0A7.55,7.55,0,0,1,86.29,30.55Zm-1.8-.5a7.08,7.08,0,0,0,3.6,0,10.51,10.51,0,0,0,0-8.41,7.08,7.08,0,0,0-3.6,0A10.6,10.6,0,0,0,84.49,30.05Z"/><path class="cls-13" d="M135.93,30.17a7.21,7.21,0,0,0,3.8,0,10.71,10.71,0,0,0,0-8.63,7.21,7.21,0,0,0-3.8,0A10.71,10.71,0,0,0,135.93,30.17Z"/><path d="M135.9,30.3h-.07l0-.07a10.87,10.87,0,0,1,0-8.73l0-.06.07,0a7.43,7.43,0,0,1,3.86,0l.07,0,0,.06a10.79,10.79,0,0,1,0,8.73l0,.07h-.07a7.29,7.29,0,0,1-3.86,0Zm3.73-8.65a7.08,7.08,0,0,0-3.6,0,10.6,10.6,0,0,0,0,8.41,7.08,7.08,0,0,0,3.6,0A10.6,10.6,0,0,0,139.63,21.65Z"/><path class="cls-13" d="M87.61,66.64a7.21,7.21,0,0,1-3.8,0,10.71,10.71,0,0,1,0-8.63,7.21,7.21,0,0,1,3.8,0A10.71,10.71,0,0,1,87.61,66.64Z"/><path d="M85.71,67a7.41,7.41,0,0,1-1.93-.25l-.07,0,0-.06a10.79,10.79,0,0,1,0-8.73l0-.07h.07a7.43,7.43,0,0,1,3.86,0h.07l0,.07a10.87,10.87,0,0,1,0,8.73l0,.06-.07,0A7.41,7.41,0,0,1,85.71,67Zm-1.8-.49a7.08,7.08,0,0,0,3.6,0,10.6,10.6,0,0,0,0-8.41,7.08,7.08,0,0,0-3.6,0A10.6,10.6,0,0,0,83.91,66.53Z"/><path class="cls-13" d="M136.25,66.64a7.21,7.21,0,0,0,3.8,0,10.71,10.71,0,0,0,0-8.63,7.21,7.21,0,0,0-3.8,0A10.71,10.71,0,0,0,136.25,66.64Z"/><path d="M136.22,66.77l-.07,0,0-.06a10.79,10.79,0,0,1,0-8.73l0-.07h.07a7.43,7.43,0,0,1,3.86,0h.07l0,.07a10.87,10.87,0,0,1,0,8.73l0,.06-.07,0a7.57,7.57,0,0,1-3.86,0ZM140,58.12a7.08,7.08,0,0,0-3.6,0,10.6,10.6,0,0,0,0,8.41,7.08,7.08,0,0,0,3.6,0A10.6,10.6,0,0,0,140,58.12Z"/><path class="cls-13" d="M111.62,98.25h3.13s4.78-11.32,4.5-13-4.56-9.84-7.26-10.58h0c-2.7.74-7,8.87-7.25,10.58s4.49,13,4.49,13h3.13"/><path class="cls-13" d="M114.87,98.43h-5.78l0-.11s-1.21-2.87-2.35-5.88c-1.55-4.07-2.28-6.51-2.15-7.25a24.29,24.29,0,0,1,2.74-5.71c1-1.68,3-4.56,4.64-5H112c1.62.45,3.6,3.33,4.63,5a24,24,0,0,1,2.75,5.71c.12.74-.6,3.18-2.15,7.25-1.15,3-2.35,5.85-2.36,5.88Zm-3.25-.35h3c.22-.54,1.29-3.08,2.31-5.76,2-5.26,2.19-6.69,2.13-7.07-.29-1.73-4.54-9.68-7.1-10.44-2.57.76-6.82,8.71-7.11,10.44-.06.38.13,1.81,2.14,7.07,1,2.68,2.08,5.22,2.3,5.76Z"/><path d="M107.3,86.66a.93.93,0,1,1,.92-.92A.93.93,0,0,1,107.3,86.66Zm0-1.73a.81.81,0,1,0,.81.81A.81.81,0,0,0,107.3,84.93Z"/><rect x="107.21" y="85.16" width="0.17" height="1.15" transform="translate(-27.14 113.85) rotate(-50.44)"/><path d="M116.88,86.66l-.19,0a.91.91,0,0,1-.59-.4,1,1,0,0,1-.13-.7.94.94,0,0,1,.41-.58.93.93,0,0,1,.69-.13,1,1,0,0,1,.59.4.91.91,0,0,1,.12.7.93.93,0,0,1-.9.73Zm0-1.73a.76.76,0,0,0-.44.13.77.77,0,0,0-.35.51.78.78,0,0,0,.11.61.84.84,0,0,0,.51.35.82.82,0,0,0,.61-.12h0a.81.81,0,0,0,.24-1.11.81.81,0,0,0-.51-.36Z"/><rect x="116.3" y="85.65" width="1.15" height="0.17" transform="translate(18.25 191.96) rotate(-83.38)"/><path class="cls-13" d="M99.86,98.79H124a.81.81,0,0,1,.81.81v2.24a0,0,0,0,1,0,0H99.19a0,0,0,0,1,0,0V99.46A.67.67,0,0,1,99.86,98.79Z"/><path d="M124.89,102H99.06V99.46a.8.8,0,0,1,.8-.8H124a.94.94,0,0,1,.94.94Zm-25.57-.26h25.31V99.6a.67.67,0,0,0-.68-.68H99.86a.54.54,0,0,0-.54.54Z"/><line class="cls-13" x1="103.04" y1="98.79" x2="103.04" y2="101.84"/><rect x="102.6" y="98.79" width="0.88" height="3.05"/><line class="cls-13" x1="106.53" y1="98.79" x2="106.53" y2="101.84"/><rect x="106.18" y="98.79" width="0.71" height="3.05"/><line class="cls-13" x1="120.89" y1="98.79" x2="120.89" y2="101.84"/><rect x="120.8" y="98.79" width="0.18" height="3.05"/><line class="cls-13" x1="117.29" y1="98.79" x2="117.29" y2="101.84"/><rect x="117.16" y="98.79" width="0.26" height="3.05"/><line class="cls-13" x1="113.69" y1="98.79" x2="113.69" y2="101.84"/><rect x="113.52" y="98.79" width="0.35" height="3.05"/><line class="cls-13" x1="110.02" y1="98.79" x2="110.02" y2="101.84"/><rect x="109.76" y="98.79" width="0.53" height="3.05"/><text class="cls-15" transform="matrix(0.98, -0.2, 0.2, 0.98, 92.53, 14.77)">Baxenda<tspan class="cls-16" x="14.73" y="0">l</tspan><tspan x="15.92" y="0">e Convers</tspan><tspan class="cls-17" x="32.76" y="0">i</tspan><tspan x="33.95" y="0">ons</tspan></text><text class="cls-18" transform="matrix(0.98, -0.2, 0.2, 0.98, 112.62, 16.54)">ATHENS, <tspan class="cls-19" x="18.21" y="0">GA</tspan></text><path class="cls-20" d="M131.45,352.53s18.35-.26,25.15-4.72c7.56-5,31.64-.71,22.2,29.65-8.21,26.4-12.28,25.07,7.08,60.31,0,0,2.84,18.89-10.86,15.12-8.55-2.36-9-14.17-38.25-16.53S110.32,408,110.32,408C134.52,412.86,159.79,376.26,131.45,352.53Z"/><path class="cls-21" d="M111.94,488.08s15.64,6.85,26.27-.47,17.94-5.19,17.94-5.19-1.18-5-6.14-11.34c0,0-3.42-5.08-15.23-2.83a122.45,122.45,0,0,1-23.37,1.89h1.06a122.57,122.57,0,0,1-23.38-1.89c-11.8-2.25-15.23,2.83-15.23,2.83-5,6.38-6.14,11.34-6.14,11.34-3,.86,4.85-3.84,18,5.19,10.62,7.32,26.27.47,26.27.47Z"/><circle class="cls-22" cx="74.73" cy="475.09" r="2.05"/><circle class="cls-22" cx="145.64" cy="475.09" r="2.05"/><circle class="cls-22" cx="89.05" cy="477.14" r="2.68"/><circle class="cls-22" cx="135.81" cy="477.14" r="2.68"/><circle class="cls-14" cx="96.73" cy="62.32" r="2.1"/><circle class="cls-14" cx="127.22" cy="62.32" r="2.1"/><line class="cls-23" x1="93.15" y1="476.98" x2="131.08" y2="476.35"/><line class="cls-24" x1="98.67" y1="61.13" x2="96.48" y2="61.57"/><line class="cls-25" x1="99.18" y1="42.73" x2="101.74" y2="46.6"/><line class="cls-26" x1="127.13" y1="61.61" x2="129.52" y2="61.67"/><line class="cls-27" x1="126.36" y1="43.85" x2="126.77" y2="39.89"/><circle class="cls-14" cx="97.21" cy="25.86" r="2.1"/><line class="cls-28" x1="129.03" y1="28.71" x2="127.6" y2="25.2"/><line class="cls-29" x1="96.74" y1="25.21" x2="99.04" y2="23.18"/><polyline class="cls-30" points="95.21 482.64 102.53 99.03 97.57 62.32"/><polyline class="cls-25" points="102.06 481.69 106.38 99.01 99.46 44.02"/><polyline class="cls-29" points="108.67 481.93 110.11 99.01 98.04 25.72"/><polyline class="cls-27" points="121.89 481.46 117.68 99.03 124.55 43.61"/><polyline class="cls-28" points="115.04 481.69 114.04 99.01 125.96 25.66"/><polyline class="cls-26" points="128.5 481.69 120.99 99.01 126.26 62.15"/><circle class="cls-13" cx="127.22" cy="62.32" r="1.11"/><path class="cls-13" d="M127.22,63.44a1.12,1.12,0,1,1,1.12-1.12A1.12,1.12,0,0,1,127.22,63.44Zm0-2.22a1.1,1.1,0,1,0,1.1,1.1A1.1,1.1,0,0,0,127.22,61.22Z"/><circle class="cls-13" cx="96.73" cy="62.32" r="1.11"/><path class="cls-13" d="M96.73,63.44a1.12,1.12,0,1,1,1.12-1.12A1.12,1.12,0,0,1,96.73,63.44Zm0-2.22a1.1,1.1,0,1,0,1.1,1.1A1.1,1.1,0,0,0,96.73,61.22Z"/><circle class="cls-13" cx="98.66" cy="43.6" r="1.11"/><path class="cls-13" d="M98.66,44.72a1.12,1.12,0,1,1,1.12-1.12A1.12,1.12,0,0,1,98.66,44.72Zm0-2.22a1.1,1.1,0,1,0,1.1,1.1A1.1,1.1,0,0,0,98.66,42.5Z"/><circle class="cls-13" cx="125.43" cy="43.6" r="1.11"/><path class="cls-13" d="M125.43,44.72a1.12,1.12,0,1,1,1.12-1.12A1.12,1.12,0,0,1,125.43,44.72Zm0-2.22a1.1,1.1,0,1,0,1.1,1.1A1.1,1.1,0,0,0,125.43,42.5Z"/><circle class="cls-13" cx="97.21" cy="25.86" r="1.11"/><path class="cls-13" d="M97.21,27a1.12,1.12,0,1,1,1.12-1.12A1.12,1.12,0,0,1,97.21,27Zm0-2.22a1.1,1.1,0,1,0,0,2.2,1.1,1.1,0,1,0,0-2.2Z"/><circle class="cls-13" cx="126.88" cy="25.86" r="1.11"/><path class="cls-13" d="M126.88,27A1.12,1.12,0,1,1,128,25.86,1.12,1.12,0,0,1,126.88,27Zm0-2.22a1.1,1.1,0,1,0,1.1,1.1A1.1,1.1,0,0,0,126.88,24.76Z"/><circle class="cls-31" cx="95.03" cy="483.28" r="2.2"/><circle class="cls-31" cx="101.62" cy="483.28" r="2.2"/><circle class="cls-31" cx="108.43" cy="483.28" r="2.2"/><circle class="cls-31" cx="115.13" cy="483.28" r="2.2"/><circle class="cls-31" cx="121.93" cy="483.28" r="2.2"/><circle class="cls-31" cx="128.5" cy="483.28" r="2.2"/><line class="cls-22" x1="135.81" y1="476.24" x2="135.81" y2="477.93"/><line class="cls-22" x1="134.96" y1="477.08" x2="136.65" y2="477.08"/><line class="cls-22" x1="146.17" y1="474.43" x2="145.12" y2="475.76"/><line class="cls-22" x1="144.98" y1="474.57" x2="146.31" y2="475.62"/><line class="cls-22" x1="89.85" y1="476.81" x2="88.25" y2="477.35"/><line class="cls-22" x1="88.78" y1="476.28" x2="89.32" y2="477.88"/><line class="cls-22" x1="75.54" y1="475.34" x2="73.92" y2="474.85"/><line class="cls-22" x1="74.97" y1="474.28" x2="74.48" y2="475.91"/><path class="cls-21" d="M141.77,467.62s-3.3,7.4,0,18.1"/><path class="cls-21" d="M83,467.62s3.31,7.4,0,18.1"/></g></g></svg>