<svg xmlns="http://www.w3.org/2000/svg" viewBox="0 0 58.32 101.97"><defs><style>.cls-1{fill:#205077;}.cls-2{fill:#fffb6e;}.cls-3{fill:#fff;}.cls-4{fill:#0f3544;}</style></defs><g id="Layer_2" data-name="Layer 2"><g id="Layer_1-2" data-name="Layer 1"><rect x="44.13" y="24.74" width="9.51" height="2.22" transform="translate(97.77 51.69) rotate(-180)"/><rect x="4.94" y="24.73" width="9.51" height="2.22"/><rect x="4.36" y="61.2" width="9.51" height="2.22"/><rect x="44.45" y="61.2" width="9.51" height="2.22" transform="translate(98.41 124.63) rotate(-180)"/><rect x="42.66" y="42.47" width="9.51" height="2.22" transform="translate(94.83 87.15) rotate(-180)"/><rect x="6.38" y="42.48" width="9.51" height="2.22"/><path class="cls-1" d="M17.92,100.83l-.07-.9c-.8-11.7-4.28-17.08-6.81-21-2-3-3.51-5.43-2.84-9.14,6.25-24.65,1.92-42-.95-53.47C5.52,9.39,4.38,4.81,6.8,2.3A4.4,4.4,0,0,1,10,1h.16A42.75,42.75,0,0,1,15,1.65a79.86,79.86,0,0,0,14.17,1.5h.15a80.33,80.33,0,0,0,14.19-1.5A42.75,42.75,0,0,1,48.27,1h.17A4.37,4.37,0,0,1,51.61,2.3c2.42,2.51,1.28,7.09-.45,14-2.86,11.48-7.19,28.82-1,53.4.68,3.78-.86,6.18-2.82,9.21-2.54,3.93-6,9.31-6.82,21l-.06.9Z"/><path class="cls-2" d="M48.44,1.94a3.41,3.41,0,0,1,2.47,1c5.51,5.73-11.66,27.5-1.65,67,1.41,7.87-8.24,9.16-9.67,29.92H18.82C17.39,79.11,7.74,77.82,9.15,70,19.17,30.47,2,8.7,7.5,3a3.42,3.42,0,0,1,2.47-1h.14c3.21.12,10.23,2.18,19,2.18h.15c8.78,0,15.82-2.06,19-2.18h.14m0-1.94h-.21a40.21,40.21,0,0,0-4.94.7,79.91,79.91,0,0,1-14,1.48h-.15a78.62,78.62,0,0,1-14-1.49A41.49,41.49,0,0,0,10.18,0H10A5.35,5.35,0,0,0,6.1,1.63c-2.79,2.9-1.59,7.68.21,14.92,2.84,11.38,7.14,28.58,1,52.92l0,.07v.07c-.73,4.09,1,6.75,3,9.84,2.48,3.84,5.88,9.09,6.67,20.55l.12,1.8H41.4l.13-1.8c.79-11.46,4.18-16.71,6.66-20.55,2-3.09,3.72-5.75,3-9.84v-.07l0-.07c-6.17-24.34-1.88-41.54,1-52.92,1.81-7.24,3-12,.21-14.92A5.35,5.35,0,0,0,48.44,0Z"/><polyline class="cls-3" points="26.25 28.84 24.37 34.63 29.27 31 34.56 34.63 32.44 28.91 37.37 25.08 31.38 25.08 29.4 18.96 27.4 25.08 21.18 25.08 26.25 28.84"/><polyline class="cls-3" points="26.25 46.56 24.37 52.35 29.27 48.72 34.56 52.35 32.44 46.63 37.37 42.8 31.38 42.8 29.4 36.68 27.4 42.8 21.18 42.8 26.25 46.56"/><polyline class="cls-3" points="26.25 65.35 24.37 71.15 29.27 67.51 34.56 71.15 32.44 65.42 37.37 61.59 31.38 61.59 29.4 55.47 27.4 61.59 21.18 61.59 26.25 65.35"/><circle class="cls-4" cx="15.89" cy="43.6" r="2.1"/><circle class="cls-4" cx="44.11" cy="25.86" r="2.1"/><circle class="cls-4" cx="42.66" cy="43.6" r="2.1"/><path class="cls-3" d="M6.86,47.91a7.21,7.21,0,0,1-3.8,0,10.71,10.71,0,0,1,0-8.63,7.21,7.21,0,0,1,3.8,0A10.71,10.71,0,0,1,6.86,47.91Z"/><path d="M5,48.3A7.42,7.42,0,0,1,3,48L3,48l0-.06a10.87,10.87,0,0,1,0-8.73l0-.06.07,0a7.43,7.43,0,0,1,3.86,0l.07,0,0,.06A10.79,10.79,0,0,1,7,48L7,48l-.07,0A7.42,7.42,0,0,1,5,48.3Zm-1.8-.5a7.08,7.08,0,0,0,3.6,0,10.6,10.6,0,0,0,0-8.41,7.08,7.08,0,0,0-3.6,0A10.6,10.6,0,0,0,3.16,47.8Z"/><path class="cls-3" d="M51.69,47.9a7.21,7.21,0,0,0,3.8,0,10.71,10.71,0,0,0,0-8.63,7.21,7.21,0,0,0-3.8,0A10.71,10.71,0,0,0,51.69,47.9Z"/><path d="M51.66,48l-.07,0,0-.06a10.87,10.87,0,0,1,0-8.73l0-.06.07,0a7.43,7.43,0,0,1,3.86,0l.07,0,0,.06a10.87,10.87,0,0,1,0,8.73l0,.06-.07,0a7.29,7.29,0,0,1-3.86,0Zm3.73-8.65a7.08,7.08,0,0,0-3.6,0,10.6,10.6,0,0,0,0,8.41,7.08,7.08,0,0,0,3.6,0A10.6,10.6,0,0,0,55.39,39.38Z"/><path class="cls-3" d="M5.42,30.16a7.21,7.21,0,0,1-3.8,0,10.71,10.71,0,0,1,0-8.63,7.21,7.21,0,0,1,3.8,0A10.63,10.63,0,0,1,5.42,30.16Z"/><path d="M3.52,30.55a7.42,7.42,0,0,1-1.93-.26l-.06,0,0-.06a10.87,10.87,0,0,1,0-8.73l0-.06.06,0a7.47,7.47,0,0,1,3.87,0l.06,0,0,.06a10.79,10.79,0,0,1,0,8.73l0,.06-.06,0A7.55,7.55,0,0,1,3.52,30.55Zm-1.8-.5a7.08,7.08,0,0,0,3.6,0,10.51,10.51,0,0,0,0-8.41,7.08,7.08,0,0,0-3.6,0A10.6,10.6,0,0,0,1.72,30.05Z"/><path class="cls-3" d="M53.16,30.17a7.21,7.21,0,0,0,3.8,0,10.71,10.71,0,0,0,0-8.63,7.21,7.21,0,0,0-3.8,0A10.71,10.71,0,0,0,53.16,30.17Z"/><path d="M53.13,30.3h-.07l0-.07a10.87,10.87,0,0,1,0-8.73l0-.06.07,0a7.43,7.43,0,0,1,3.86,0l.07,0,0,.06a10.79,10.79,0,0,1,0,8.73l0,.07H57a7.29,7.29,0,0,1-3.86,0Zm3.73-8.65a7.08,7.08,0,0,0-3.6,0,10.6,10.6,0,0,0,0,8.41,7.08,7.08,0,0,0,3.6,0A10.6,10.6,0,0,0,56.86,21.65Z"/><path class="cls-3" d="M4.84,66.64a7.21,7.21,0,0,1-3.8,0A10.71,10.71,0,0,1,1,58a7.21,7.21,0,0,1,3.8,0A10.71,10.71,0,0,1,4.84,66.64Z"/><path d="M2.94,67A7.41,7.41,0,0,1,1,66.77l-.07,0,0-.06A10.79,10.79,0,0,1,.92,58l0-.07H1a7.43,7.43,0,0,1,3.86,0h.07L5,58a10.87,10.87,0,0,1,0,8.73l0,.06-.07,0A7.41,7.41,0,0,1,2.94,67Zm-1.8-.49a7.08,7.08,0,0,0,3.6,0,10.6,10.6,0,0,0,0-8.41,7.08,7.08,0,0,0-3.6,0A10.6,10.6,0,0,0,1.14,66.53Z"/><path class="cls-3" d="M53.48,66.64a7.21,7.21,0,0,0,3.8,0,10.71,10.71,0,0,0,0-8.63,7.21,7.21,0,0,0-3.8,0A10.71,10.71,0,0,0,53.48,66.64Z"/><path d="M53.45,66.77l-.07,0,0-.06a10.79,10.79,0,0,1,0-8.73l0-.07h.07a7.43,7.43,0,0,1,3.86,0h.07l0,.07a10.87,10.87,0,0,1,0,8.73l0,.06-.07,0a7.57,7.57,0,0,1-3.86,0Zm3.73-8.65a7.08,7.08,0,0,0-3.6,0,10.6,10.6,0,0,0,0,8.41,7.08,7.08,0,0,0,3.6,0A10.6,10.6,0,0,0,57.18,58.12Z"/><path class="cls-3" d="M28.85,98.25H32s4.78-11.32,4.5-13-4.56-9.84-7.26-10.58h0c-2.7.74-7,8.87-7.26,10.58s4.5,13,4.5,13h3.13"/><path class="cls-3" d="M32.1,98.43H26.32l-.05-.11s-1.21-2.87-2.35-5.88c-1.55-4.07-2.28-6.51-2.15-7.25a24.29,24.29,0,0,1,2.74-5.71c1-1.68,3-4.56,4.64-5h.11c1.63.45,3.61,3.33,4.64,5a24,24,0,0,1,2.75,5.71c.12.74-.6,3.18-2.15,7.25-1.15,3-2.35,5.85-2.36,5.88Zm-3.25-.35h3c.22-.54,1.29-3.08,2.31-5.76,2-5.26,2.19-6.69,2.13-7.07-.29-1.73-4.54-9.68-7.1-10.44-2.57.76-6.82,8.71-7.11,10.44-.06.38.13,1.81,2.14,7.07,1,2.68,2.08,5.22,2.3,5.76Z"/><path d="M24.53,86.66a.93.93,0,1,1,.92-.92A.93.93,0,0,1,24.53,86.66Zm0-1.73a.81.81,0,1,0,.81.81A.81.81,0,0,0,24.53,84.93Z"/><rect x="24.44" y="85.16" width="0.17" height="1.15" transform="translate(-57.19 50.04) rotate(-50.44)"/><path d="M34.11,86.66l-.19,0a.91.91,0,0,1-.59-.4,1,1,0,0,1-.13-.7.94.94,0,0,1,.41-.58.91.91,0,0,1,1.27.27.91.91,0,0,1,.13.7.93.93,0,0,1-.9.73Zm0-1.73a.76.76,0,0,0-.44.13.77.77,0,0,0-.35.51.78.78,0,0,0,.11.61.84.84,0,0,0,.51.35.82.82,0,0,0,.61-.12h0a.81.81,0,0,0,.24-1.11.81.81,0,0,0-.51-.36Z"/><rect x="33.53" y="85.65" width="1.15" height="0.17" transform="translate(-54.99 109.74) rotate(-83.38)"/><path class="cls-3" d="M17.09,98.79H41.18a.81.81,0,0,1,.81.81v2.24a0,0,0,0,1,0,0H16.42a0,0,0,0,1,0,0V99.46A.67.67,0,0,1,17.09,98.79Z"/><path d="M42.12,102H16.29V99.46a.8.8,0,0,1,.8-.8H41.18a.94.94,0,0,1,.94.94Zm-25.57-.26H41.86V99.6a.67.67,0,0,0-.68-.68H17.09a.54.54,0,0,0-.54.54Z"/><line class="cls-3" x1="20.27" y1="98.79" x2="20.27" y2="101.84"/><rect x="19.83" y="98.79" width="0.88" height="3.05"/><line class="cls-3" x1="23.76" y1="98.79" x2="23.76" y2="101.84"/><rect x="23.41" y="98.79" width="0.71" height="3.05"/><line class="cls-3" x1="38.12" y1="98.79" x2="38.12" y2="101.84"/><rect x="38.03" y="98.79" width="0.18" height="3.05"/><line class="cls-3" x1="34.52" y1="98.79" x2="34.52" y2="101.84"/><rect x="34.39" y="98.79" width="0.26" height="3.05"/><line class="cls-3" x1="30.92" y1="98.79" x2="30.92" y2="101.84"/><rect x="30.75" y="98.79" width="0.35" height="3.05"/><line class="cls-3" x1="27.25" y1="98.79" x2="27.25" y2="101.84"/><rect x="26.99" y="98.79" width="0.53" height="3.05"/><path class="cls-3" d="M12,12.59a.88.88,0,0,1,.71.63.76.76,0,0,1-.11.55,2.12,2.12,0,0,1-1.25.76.65.65,0,0,1-.34,0,1.24,1.24,0,0,1-.53-.51,1.86,1.86,0,0,0-.11.65c0,.06,0,.08,0,.11s0,0,0,0-.39-.21-.42-.34a13.84,13.84,0,0,1,.54-2.6,2.53,2.53,0,0,1-.33.11c-.17,0-.7-.21-.74-.39s.7-.44,1.36-.65c.08-.25.14-.34.19-.35a.69.69,0,0,1,.42.17l.11,0a3.44,3.44,0,0,1,1.1-.06,1.33,1.33,0,0,1,.63.65v0C13.2,11.92,12.49,12.43,12,12.59Zm-1.15.22c-.1.32-.2.63-.28.9.08.1.38.49.65.43s.88-.71.81-1A.17.17,0,0,0,12,13,2,2,0,0,0,10.83,12.81Zm.73-1.31-.29.07c-.09.24-.2.54-.31.86a5.69,5.69,0,0,0,1-.32c.39-.18.71-.5.68-.63v0A2.11,2.11,0,0,0,11.56,11.5Z"/><path class="cls-3" d="M14.24,14a.35.35,0,0,1-.39-.14.59.59,0,0,1-.33.27c-.2,0-.51-.19-.58-.52a1.6,1.6,0,0,1,.87-1.42c.11,0,.23.11.31.2.08-.16.12-.18.16-.19s.38,0,.4.15a1.05,1.05,0,0,1-.11.31,2.82,2.82,0,0,0-.27.93s0,0,.07,0c.19,0,.44-.55.51-.68a.22.22,0,0,1,.11-.09.14.14,0,0,1,.14.11.22.22,0,0,1,0,.1C15,13.32,14.63,13.88,14.24,14Zm-.32-1.41c-.09,0-.24.31-.32.54a1.68,1.68,0,0,0-.13.58s0,0,0,0,.28-.41.31-.53a3.66,3.66,0,0,1,.17-.53S14,12.54,13.92,12.55Z"/><path class="cls-3" d="M16.26,13.52c-.19,0-.25-.12-.39-.37-.31.44-.42.63-.47.67a.58.58,0,0,1-.2.11c-.08,0-.13,0-.14,0a6.31,6.31,0,0,1,.63-1.06,1.84,1.84,0,0,0-.24-.44s-.31.62-.39.73a.08.08,0,0,1-.07,0,.12.12,0,0,1-.16-.09.21.21,0,0,1,0-.12c.11-.2.39-.84.46-.92a1,1,0,0,1,.38-.17c.11,0,.22.2.34.46a7.6,7.6,0,0,0,.42-.82.24.24,0,0,1,.18.17v.05a3.26,3.26,0,0,1-.44,1c.07.16.16.36.23.35s.32-.43.37-.51a.13.13,0,0,1,.24,0,.15.15,0,0,1,0,.11C16.93,12.87,16.54,13.47,16.26,13.52Z"/><path class="cls-3" d="M18.29,12.76a1.14,1.14,0,0,1-.68.51.91.91,0,0,1-.7-.21.44.44,0,0,1-.08-.22,1.35,1.35,0,0,1,.79-1.45h.06c.13,0,.46.14.49.31a.88.88,0,0,1-.44.83.77.77,0,0,1-.38-.07.89.89,0,0,0,0,.32c0,.17.12.21.29.17s.46-.29.68-.72c0-.05.06-.08.09-.08a.14.14,0,0,1,.15.11.2.2,0,0,1,0,.07A2,2,0,0,1,18.29,12.76Zm-.58-1a.86.86,0,0,0-.27.41.21.21,0,0,0,.13,0c.1,0,.19-.32.17-.41s0,0,0,0Z"/><path class="cls-3" d="M19.75,13c-.09,0-.49-.13-.53-.37a3.19,3.19,0,0,1,.14-.65,5.63,5.63,0,0,0-.72,1.1.13.13,0,0,1-.09.07.54.54,0,0,1-.42-.18,3.5,3.5,0,0,1,.59-1.57c.07,0,.41,0,.44.18s-.16.32-.22.52A4.92,4.92,0,0,1,19.82,11c.15,0,.29.21.33.39a.21.21,0,0,1,0,.14,2.42,2.42,0,0,0-.33,1s0,0,0,0,.49-.62.56-.75a.14.14,0,0,1,.1-.09.14.14,0,0,1,.15.1.28.28,0,0,1,0,.09C20.56,12.11,20.11,12.88,19.75,13Z"/><path class="cls-3" d="M21.72,12.07a.05.05,0,0,0,.07,0c.19,0,.45-.56.52-.69s.07-.09.1-.09a.12.12,0,0,1,.14.11.12.12,0,0,1,0,.1c-.14.3-.49.88-.89,1a.36.36,0,0,1-.39-.15.59.59,0,0,1-.32.28c-.22,0-.52-.2-.59-.54s.36-1.37.81-1.46a.37.37,0,0,1,.34.16c.13-.39.52-1.57.71-1.61s.38,0,.4.15a.13.13,0,0,1,0,.06A10.32,10.32,0,0,0,21.72,12.07Zm-.39-1c-.08,0-.24.31-.33.56a1.1,1.1,0,0,0-.13.57.06.06,0,0,0,.05.06c.11,0,.27-.44.3-.56s.11-.37.17-.54S21.36,11,21.33,11Z"/><path class="cls-3" d="M23.54,12.11a.35.35,0,0,1-.39-.14.6.6,0,0,1-.32.27c-.21,0-.52-.19-.58-.52a1.57,1.57,0,0,1,.86-1.42c.11,0,.23.11.31.2.08-.16.12-.18.16-.19s.38,0,.4.15a1.39,1.39,0,0,1-.1.31,2.65,2.65,0,0,0-.28.93s0,0,.07,0c.19,0,.44-.55.52-.68a.17.17,0,0,1,.1-.09.14.14,0,0,1,.14.11.22.22,0,0,1,0,.1C24.27,11.47,23.93,12,23.54,12.11Zm-.32-1.41c-.08,0-.24.31-.32.54a1.68,1.68,0,0,0-.13.58s0,0,0,0,.28-.41.31-.53a3.66,3.66,0,0,1,.17-.53S23.25,10.69,23.22,10.7Z"/><path class="cls-3" d="M25.39,9.86a2.07,2.07,0,0,1-.6.71,2.63,2.63,0,0,0-.08.78c0,.09.07.12.18.1a.94.94,0,0,0,.47-.35c.12-.17.24-.51.36-.53a.12.12,0,0,1,.14.09.17.17,0,0,1,0,.12c-.19.42-.54,1-1,1.08h-.21c-.17,0-.43-.33-.46-.45-.12-.61.61-2.74,1.13-2.84a.45.45,0,0,1,.43.29A1.84,1.84,0,0,1,25.39,9.86Zm0-.76c-.11,0-.31.58-.44,1a2,2,0,0,0,.48-1,0,0,0,0,0,0,0Z"/><path class="cls-3" d="M26.84,11.06a1.14,1.14,0,0,1-.68.51,1,1,0,0,1-.7-.21.44.44,0,0,1-.08-.22,1.37,1.37,0,0,1,.79-1.46h.06c.13,0,.45.14.49.31a.88.88,0,0,1-.44.83.77.77,0,0,1-.38-.07.89.89,0,0,0,0,.32c0,.17.12.21.29.17s.46-.29.68-.72c0,0,.06-.08.09-.08a.13.13,0,0,1,.15.11.2.2,0,0,1,0,.07A2.29,2.29,0,0,1,26.84,11.06Zm-.58-1a.79.79,0,0,0-.27.41.21.21,0,0,0,.13,0c.1,0,.19-.32.17-.41s0,0,0,0Z"/><path class="cls-3" d="M30.67,8.46a1,1,0,0,1-.61-.23s.18-.5.21-.61a.48.48,0,0,0,.06-.21s0,0,0,0a2.9,2.9,0,0,0-1,1.4A2.57,2.57,0,0,0,29.12,10a.44.44,0,0,0,.58.38,2.36,2.36,0,0,0,1.16-.73l0,0c.09,0,.17.09.18.13v0a2.44,2.44,0,0,1-1.34,1.14,1.56,1.56,0,0,1-1.31-.42.46.46,0,0,1-.06-.18,3.05,3.05,0,0,1,.21-1.58C29,7.56,29.65,7,30.1,6.93a.84.84,0,0,1,.86.41C31,7.56,30.82,8.43,30.67,8.46Z"/><path class="cls-3" d="M32.79,10a.59.59,0,0,1-.23,0,1,1,0,0,1-.55.46.75.75,0,0,1-.72-.5,1.38,1.38,0,0,1,.82-1.39.55.55,0,0,1,.33.07.37.37,0,0,1,.16-.07.25.25,0,0,1,.32.23,1.66,1.66,0,0,1-.19.93h0c.27-.05.38-.51.5-.53a.13.13,0,0,1,.15.1.23.23,0,0,1,0,.11A.94.94,0,0,1,32.79,10Zm-.72-.46a.66.66,0,0,1,0-.28,1.15,1.15,0,0,0-.3.74.1.1,0,0,0,.14.08.56.56,0,0,0,.32-.25A.5.5,0,0,1,32.07,9.54ZM32.53,9c-.09,0-.14.22-.12.34s0,.08,0,.09A1.31,1.31,0,0,0,32.57,9h0Z"/><path class="cls-3" d="M34.62,10c-.09,0-.49-.13-.54-.37A3.35,3.35,0,0,1,34.23,9a5,5,0,0,0-.73,1.1.12.12,0,0,1-.09.06A.55.55,0,0,1,33,10a3.5,3.5,0,0,1,.59-1.57c.08,0,.42,0,.44.18s-.15.33-.21.52a4.59,4.59,0,0,1,.87-1c.16,0,.3.2.34.38a.21.21,0,0,1,0,.14,2.49,2.49,0,0,0-.34,1s0,0,0,0,.5-.61.56-.75a.2.2,0,0,1,.1-.09.13.13,0,0,1,.15.11.08.08,0,0,1,0,.08C35.42,9.15,35,9.92,34.62,10Z"/><path class="cls-3" d="M36.92,9.15a.57.57,0,0,1-.29,0c-.19.35-.39.54-.5.56a1,1,0,0,1-.51-.09A1,1,0,0,1,35.31,9c-.11-.57.08-1,.25-1.06s.38.07.39.15,0,0,0,0a1.69,1.69,0,0,0-.06,1.07c0,.16.07.23.11.22s.24-.24.35-.46a.88.88,0,0,1-.2-.41.81.81,0,0,1,.45-.94c.07,0,.32.16.34.28a2.3,2.3,0,0,1-.19,1,.37.37,0,0,0,.15,0c.17,0,.25-.21.37-.43a.16.16,0,0,1,.11-.09.13.13,0,0,1,.13.1,0,0,0,0,1,0,0A1,1,0,0,1,36.92,9.15Zm-.35-1.32c-.08,0-.21.37-.16.63a.51.51,0,0,0,.07.17,3.7,3.7,0,0,0,.11-.79h0Z"/><path class="cls-3" d="M38.76,8.69a1.08,1.08,0,0,1-.68.5.9.9,0,0,1-.7-.2.56.56,0,0,1-.08-.22,1.37,1.37,0,0,1,.79-1.46h.06c.13,0,.46.14.49.31a.88.88,0,0,1-.44.83.91.91,0,0,1-.38-.07.89.89,0,0,0,0,.32c0,.17.12.21.29.17s.46-.29.68-.72c0-.05.06-.08.09-.08a.13.13,0,0,1,.15.11.2.2,0,0,1,0,.07A2.29,2.29,0,0,1,38.76,8.69Zm-.57-1a.9.9,0,0,0-.28.42.21.21,0,0,0,.13,0c.1,0,.19-.32.17-.41s0,0,0,0Z"/><path class="cls-3" d="M39.82,8.9a.58.58,0,0,1-.57-.37,3.82,3.82,0,0,1,.21-.95l-.15,0c-.06.15-.31.85-.46.88a.13.13,0,0,1-.15-.11.12.12,0,0,1,0-.1A5.33,5.33,0,0,0,39,7.55a.39.39,0,0,1-.14-.24.33.33,0,0,1,.23-.38.27.27,0,0,1,.33.23.17.17,0,0,1,0,.1c.16-.06.24-.26.34-.28s.33.26.36.43a.14.14,0,0,1,0,.09,2.7,2.7,0,0,0-.34,1,.08.08,0,0,0,.1.07c.09,0,.2-.2.24-.26.15-.23.28-.53.38-.55a.11.11,0,0,1,.14.09.19.19,0,0,1,0,.1C40.52,8.25,40.18,8.83,39.82,8.9Z"/><path class="cls-3" d="M41.18,8.61a.69.69,0,0,1-.75-.29s0,0,0,0a.14.14,0,0,1-.17-.08s.33-.64.41-.89.21-.6.33-.62a.27.27,0,0,1,.19.08c.07.06.18.06.2.15a2.32,2.32,0,0,0,0,.38c0,.28.22.37.29.57.14-.12.24-.46.34-.48a.12.12,0,0,1,.14.1v.07C42.05,7.81,41.7,8.5,41.18,8.61ZM40.91,7.5v0l-.31.6c.09.18.22.24.32.22A.22.22,0,0,0,41.07,8a.23.23,0,0,0,0-.11A1.9,1.9,0,0,1,40.91,7.5Z"/><path class="cls-3" d="M43,8a1.07,1.07,0,0,1-.51.31.77.77,0,0,1-.26,0,.58.58,0,0,1-.39-.41,3.37,3.37,0,0,1,.52-1.44l.06,0a.4.4,0,0,1,.4.22,6.48,6.48,0,0,1-.31.82,1,1,0,0,0-.1.44c0,.06.06.08.14.06s.21-.12.34-.28.29-.53.41-.55a.11.11,0,0,1,.13.1.17.17,0,0,1,0,.1A2.16,2.16,0,0,1,43,8Zm-.06-1.77A.39.39,0,0,1,42.55,6a.51.51,0,0,1,.26-.44.31.31,0,0,1,.35.18.48.48,0,0,1,0,.26C43.07,6.15,43,6.23,42.92,6.25Z"/><path class="cls-3" d="M44.53,7.66a.44.44,0,0,1-.23,0,1,1,0,0,1-.56.45A.71.71,0,0,1,43,7.63a1.38,1.38,0,0,1,.81-1.39.68.68,0,0,1,.34.06.39.39,0,0,1,.16-.07.27.27,0,0,1,.32.24,1.63,1.63,0,0,1-.2.92s0,0,0,0c.27,0,.38-.52.49-.54a.14.14,0,0,1,.15.11.18.18,0,0,1,0,.1C45,7.34,44.82,7.61,44.53,7.66ZM43.8,7.2a1.31,1.31,0,0,1,0-.28,1.23,1.23,0,0,0-.3.74.11.11,0,0,0,.14.09A.54.54,0,0,0,44,7.5.59.59,0,0,1,43.8,7.2Zm.46-.55c-.08,0-.14.23-.12.34a.34.34,0,0,0,0,.1,1.08,1.08,0,0,0,.12-.42v0Z"/><path class="cls-3" d="M46.35,7.66c-.09,0-.49-.13-.54-.37A3.41,3.41,0,0,1,46,6.64a6.18,6.18,0,0,0-.73,1.1.1.1,0,0,1-.08.07.54.54,0,0,1-.42-.18,3.61,3.61,0,0,1,.58-1.57c.08,0,.42,0,.45.17s-.16.33-.22.53c.24-.33.72-1,.88-1s.29.21.33.39a.21.21,0,0,1,0,.14,2.45,2.45,0,0,0-.34,1s0,0,0,0,.49-.62.56-.75a.13.13,0,0,1,.1-.09.14.14,0,0,1,.15.1.28.28,0,0,1,0,.09C47.15,6.81,46.71,7.59,46.35,7.66Z"/><path class="cls-3" d="M47.76,7.3A.69.69,0,0,1,47,7s0,0,0,0A.14.14,0,0,1,46.79,7s.33-.64.41-.89.21-.6.33-.62a.32.32,0,0,1,.2.08c.06.06.17.06.19.15a2.32,2.32,0,0,0,0,.38c.06.28.22.37.29.57.14-.12.24-.46.34-.48a.12.12,0,0,1,.14.1s0,0,0,.07C48.63,6.5,48.29,7.19,47.76,7.3ZM47.5,6.19v0l-.31.6c.09.18.22.24.32.22a.22.22,0,0,0,.15-.29.17.17,0,0,0,0-.1A2.16,2.16,0,0,1,47.5,6.19Z"/><path class="cls-3" d="M29.91,16.53,30.55,13l.36-.07,1.92,3-.32.06-.59-1-1.5.3-.19,1.11Zm.56-1.46,1.29-.26-1-1.61Z"/><path class="cls-3" d="M32,12.68l2.39-.47.06.26-1.05.21.61,3-.31.06-.61-3-1,.21Z"/><path class="cls-3" d="M35.19,15.48l-.66-3.3.31-.06.29,1.41,1.95-.38-.28-1.42.31-.06.65,3.3-.31.06-.32-1.62-2,.39.32,1.62Z"/><path class="cls-3" d="M38.19,14.88l-.66-3.3,2.2-.43.05.26-1.88.38L38.13,13l1.7-.34.06.27-1.7.33.26,1.31,1.93-.38,0,.27Z"/><path class="cls-3" d="M40.41,11.45h0L41,14.33l-.31.06L40,11.09l.35-.07,2.48,2.5h0l-.57-2.88.31-.06.65,3.3-.36.07Z"/><path class="cls-3" d="M43.6,12.78a1,1,0,0,0,.18.36.6.6,0,0,0,.25.2.69.69,0,0,0,.32.08,1.45,1.45,0,0,0,.36,0,1.15,1.15,0,0,0,.37-.13.77.77,0,0,0,.23-.2.62.62,0,0,0,.11-.25.82.82,0,0,0,0-.27.43.43,0,0,0-.15-.29.61.61,0,0,0-.26-.15,1.22,1.22,0,0,0-.35-.06l-.38,0a2.6,2.6,0,0,1-.4,0,1.06,1.06,0,0,1-.35-.09.83.83,0,0,1-.28-.22,1,1,0,0,1-.16-.72.84.84,0,0,1,.16-.33,1,1,0,0,1,.31-.27A1.84,1.84,0,0,1,44,10.2a1.72,1.72,0,0,1,.5,0,1.13,1.13,0,0,1,.39.15.87.87,0,0,1,.27.27.92.92,0,0,1,.14.37L45,11a.66.66,0,0,0-.13-.32.55.55,0,0,0-.22-.18.74.74,0,0,0-.29-.08,1.1,1.1,0,0,0-.31,0,1,1,0,0,0-.39.15.66.66,0,0,0-.22.22.62.62,0,0,0-.09.26.75.75,0,0,0,0,.26.47.47,0,0,0,.18.23.78.78,0,0,0,.28.11,1.79,1.79,0,0,0,.34,0h.38l.37,0a1,1,0,0,1,.34.1.75.75,0,0,1,.26.21.83.83,0,0,1,.16.38.88.88,0,0,1-.17.78,1.46,1.46,0,0,1-.84.43,1.64,1.64,0,0,1-.49,0,.94.94,0,0,1-.42-.12,1,1,0,0,1-.32-.29,1.32,1.32,0,0,1-.18-.45Z"/><path class="cls-3" d="M46.62,13.35a.62.62,0,0,1,0,.34.53.53,0,0,1-.21.21l0-.17a.38.38,0,0,0,.09-.12.29.29,0,0,0,0-.21l0-.15-.16,0-.08-.41.34-.06Z"/><path class="cls-3" d="M48.22,12.37l0-.09.49-.1.11.59-.09,0,0-.2a.37.37,0,0,1-.05.11l-.07.09-.11.07-.15,0a.34.34,0,0,1-.2,0,.37.37,0,0,1-.18-.08.56.56,0,0,1-.14-.16,1,1,0,0,1-.09-.26,1,1,0,0,1,0-.24.65.65,0,0,1,.06-.21.5.5,0,0,1,.14-.15.54.54,0,0,1,.23-.1h.17l.15,0a.38.38,0,0,1,.13.09.38.38,0,0,1,.09.15l-.11,0a.36.36,0,0,0-.07-.1.23.23,0,0,0-.1-.07.2.2,0,0,0-.11,0h-.13a.49.49,0,0,0-.18.08.3.3,0,0,0-.11.14.34.34,0,0,0,0,.18.91.91,0,0,0,0,.23.87.87,0,0,0,.07.17.38.38,0,0,0,.11.14.35.35,0,0,0,.15.07.35.35,0,0,0,.18,0l.09,0,.09,0,.07-.08a.37.37,0,0,0,.05-.11.37.37,0,0,0,0-.24Z"/><path class="cls-3" d="M48.85,12.76l.22-1.22.12,0,.66,1.05-.11,0-.2-.33-.52.11-.06.38Zm.19-.5.45-.09-.34-.55Z"/><circle class="cls-4" cx="13.96" cy="62.32" r="2.1"/><circle class="cls-4" cx="44.45" cy="62.32" r="2.1"/><circle class="cls-4" cx="14.44" cy="25.86" r="2.1"/><circle class="cls-3" cx="44.45" cy="62.32" r="1.11"/><path class="cls-3" d="M44.45,63.44a1.12,1.12,0,1,1,1.12-1.12A1.12,1.12,0,0,1,44.45,63.44Zm0-2.22a1.1,1.1,0,1,0,1.1,1.1A1.1,1.1,0,0,0,44.45,61.22Z"/><circle class="cls-3" cx="13.96" cy="62.32" r="1.11"/><path class="cls-3" d="M14,63.44a1.12,1.12,0,1,1,1.12-1.12A1.12,1.12,0,0,1,14,63.44Zm0-2.22a1.1,1.1,0,1,0,1.1,1.1A1.1,1.1,0,0,0,14,61.22Z"/><circle class="cls-3" cx="15.89" cy="43.6" r="1.11"/><path class="cls-3" d="M15.89,44.72A1.12,1.12,0,1,1,17,43.6,1.12,1.12,0,0,1,15.89,44.72Zm0-2.22A1.1,1.1,0,1,0,17,43.6,1.1,1.1,0,0,0,15.89,42.5Z"/><circle class="cls-3" cx="42.66" cy="43.6" r="1.11"/><path class="cls-3" d="M42.66,44.72a1.12,1.12,0,1,1,1.12-1.12A1.12,1.12,0,0,1,42.66,44.72Zm0-2.22a1.1,1.1,0,1,0,1.1,1.1A1.1,1.1,0,0,0,42.66,42.5Z"/><circle class="cls-3" cx="14.44" cy="25.86" r="1.11"/><path class="cls-3" d="M14.44,27a1.12,1.12,0,1,1,1.12-1.12A1.12,1.12,0,0,1,14.44,27Zm0-2.22a1.1,1.1,0,1,0,0,2.2,1.1,1.1,0,1,0,0-2.2Z"/><circle class="cls-3" cx="44.11" cy="25.86" r="1.11"/><path class="cls-3" d="M44.11,27a1.12,1.12,0,1,1,1.12-1.12A1.12,1.12,0,0,1,44.11,27Zm0-2.22a1.1,1.1,0,1,0,1.1,1.1A1.1,1.1,0,0,0,44.11,24.76Z"/></g></g></svg>