<svg xmlns="http://www.w3.org/2000/svg" viewBox="0 0 58.32 101.97"><defs><style>.cls-1{fill:#205077;}.cls-2{fill:#fffb6e;}.cls-3,.cls-5,.cls-8{fill:#fff;}.cls-4{fill:#0f3544;}.cls-5,.cls-8{font-size:4.67px;}.cls-5{font-family:ScriptoramaJF-Tradeshow, ScriptoramaJF;}.cls-6{letter-spacing:-0.04em;}.cls-7{letter-spacing:-0.03em;}.cls-8{font-family:Helvetica-Light, Helvetica;font-weight:300;letter-spacing:-0.07em;}.cls-9{font-size:1.61px;letter-spacing:-0.07em;}</style></defs><g id="Layer_2" data-name="Layer 2"><g id="Layer_1-2" data-name="Layer 1"><rect x="44.13" y="24.74" width="9.51" height="2.22" transform="translate(97.77 51.69) rotate(-180)"/><rect x="4.94" y="24.73" width="9.51" height="2.22"/><rect x="4.36" y="61.2" width="9.51" height="2.22"/><rect x="44.45" y="61.2" width="9.51" height="2.22" transform="translate(98.41 124.63) rotate(-180)"/><rect x="42.66" y="42.47" width="9.51" height="2.22" transform="translate(94.83 87.15) rotate(-180)"/><rect x="6.38" y="42.48" width="9.51" height="2.22"/><path class="cls-1" d="M17.92,100.83l-.07-.9c-.8-11.7-4.28-17.08-6.81-21-2-3-3.51-5.43-2.84-9.14,6.25-24.65,1.92-42-.95-53.47C5.52,9.39,4.38,4.81,6.8,2.3A4.4,4.4,0,0,1,10,1h.16a42.33,42.33,0,0,1,4.8.68,80.1,80.1,0,0,0,14.18,1.5h.15a80.33,80.33,0,0,0,14.19-1.5A42.75,42.75,0,0,1,48.27,1h.17A4.37,4.37,0,0,1,51.61,2.3c2.42,2.51,1.28,7.09-.45,14-2.86,11.48-7.19,28.82-1,53.4.68,3.78-.86,6.18-2.82,9.21-2.54,3.93-6,9.31-6.82,21l-.06.9Z"/><path class="cls-2" d="M48.44,1.94a3.41,3.41,0,0,1,2.47,1c5.51,5.73-11.66,27.5-1.65,67,1.41,7.87-8.24,9.16-9.67,29.92H18.82C17.39,79.11,7.74,77.82,9.15,70,19.17,30.47,2,8.7,7.5,3a3.42,3.42,0,0,1,2.47-1h.14c3.21.12,10.23,2.18,19,2.18h.15c8.78,0,15.82-2.06,19-2.18h.14m0-1.94h-.21a40.21,40.21,0,0,0-4.94.7,79.91,79.91,0,0,1-14,1.48h-.15a78.62,78.62,0,0,1-14-1.49A41.49,41.49,0,0,0,10.18,0H10A5.35,5.35,0,0,0,6.1,1.63c-2.79,2.9-1.59,7.68.21,14.92,2.84,11.38,7.14,28.58,1,52.92l0,.07v.07c-.73,4.09,1,6.75,3,9.84,2.48,3.84,5.88,9.09,6.67,20.55l.12,1.8H41.4l.13-1.8c.79-11.46,4.18-16.71,6.66-20.55,2-3.09,3.72-5.75,3-9.84v-.07l0-.07c-6.17-24.34-1.88-41.54,1-52.92,1.81-7.24,3-12,.21-14.92A5.35,5.35,0,0,0,48.44,0Z"/><polyline class="cls-3" points="26.25 28.84 24.37 34.63 29.27 31 34.56 34.63 32.44 28.91 37.37 25.08 31.38 25.08 29.4 18.96 27.4 25.08 21.18 25.08 26.25 28.84"/><polyline class="cls-3" points="26.25 46.56 24.37 52.35 29.27 48.72 34.56 52.35 32.44 46.63 37.37 42.8 31.38 42.8 29.4 36.68 27.4 42.8 21.18 42.8 26.25 46.56"/><polyline class="cls-3" points="26.25 65.35 24.37 71.15 29.27 67.51 34.56 71.15 32.44 65.42 37.37 61.59 31.38 61.59 29.4 55.47 27.4 61.59 21.18 61.59 26.25 65.35"/><circle class="cls-4" cx="15.89" cy="43.6" r="2.1"/><circle class="cls-4" cx="44.11" cy="25.86" r="2.1"/><circle class="cls-4" cx="42.66" cy="43.6" r="2.1"/><path class="cls-3" d="M6.86,47.91a7.21,7.21,0,0,1-3.8,0,10.71,10.71,0,0,1,0-8.63,7.21,7.21,0,0,1,3.8,0A10.71,10.71,0,0,1,6.86,47.91Z"/><path d="M5,48.3A7.42,7.42,0,0,1,3,48L3,48l0-.06a10.87,10.87,0,0,1,0-8.73l0-.06.07,0a7.43,7.43,0,0,1,3.86,0l.07,0,0,.06A10.79,10.79,0,0,1,7,48L7,48l-.07,0A7.42,7.42,0,0,1,5,48.3Zm-1.8-.5a7.08,7.08,0,0,0,3.6,0,10.6,10.6,0,0,0,0-8.41,7.08,7.08,0,0,0-3.6,0A10.6,10.6,0,0,0,3.16,47.8Z"/><path class="cls-3" d="M51.69,47.9a7.21,7.21,0,0,0,3.8,0,10.71,10.71,0,0,0,0-8.63,7.21,7.21,0,0,0-3.8,0A10.71,10.71,0,0,0,51.69,47.9Z"/><path d="M51.66,48l-.07,0,0-.06a10.87,10.87,0,0,1,0-8.73l0-.06.07,0a7.43,7.43,0,0,1,3.86,0l.07,0,0,.06a10.87,10.87,0,0,1,0,8.73l0,.06-.07,0a7.29,7.29,0,0,1-3.86,0Zm3.73-8.65a7.08,7.08,0,0,0-3.6,0,10.6,10.6,0,0,0,0,8.41,7.08,7.08,0,0,0,3.6,0A10.6,10.6,0,0,0,55.39,39.38Z"/><path class="cls-3" d="M5.42,30.16a7.21,7.21,0,0,1-3.8,0,10.71,10.71,0,0,1,0-8.63,7.21,7.21,0,0,1,3.8,0A10.63,10.63,0,0,1,5.42,30.16Z"/><path d="M3.52,30.55a7.42,7.42,0,0,1-1.93-.26l-.06,0,0-.06a10.87,10.87,0,0,1,0-8.73l0-.06.06,0a7.47,7.47,0,0,1,3.87,0l.06,0,0,.06a10.79,10.79,0,0,1,0,8.73l0,.06-.06,0A7.55,7.55,0,0,1,3.52,30.55Zm-1.8-.5a7.08,7.08,0,0,0,3.6,0,10.51,10.51,0,0,0,0-8.41,7.08,7.08,0,0,0-3.6,0A10.6,10.6,0,0,0,1.72,30.05Z"/><path class="cls-3" d="M53.16,30.17a7.21,7.21,0,0,0,3.8,0,10.71,10.71,0,0,0,0-8.63,7.21,7.21,0,0,0-3.8,0A10.71,10.71,0,0,0,53.16,30.17Z"/><path d="M53.13,30.3h-.07l0-.07a10.87,10.87,0,0,1,0-8.73l0-.06.07,0a7.43,7.43,0,0,1,3.86,0l.07,0,0,.06a10.79,10.79,0,0,1,0,8.73l0,.07H57a7.29,7.29,0,0,1-3.86,0Zm3.73-8.65a7.08,7.08,0,0,0-3.6,0,10.6,10.6,0,0,0,0,8.41,7.08,7.08,0,0,0,3.6,0A10.6,10.6,0,0,0,56.86,21.65Z"/><path class="cls-3" d="M4.84,66.64a7.21,7.21,0,0,1-3.8,0A10.71,10.71,0,0,1,1,58a7.21,7.21,0,0,1,3.8,0A10.71,10.71,0,0,1,4.84,66.64Z"/><path d="M2.94,67A7.41,7.41,0,0,1,1,66.77l-.07,0,0-.06A10.79,10.79,0,0,1,.92,58l0-.07H1a7.43,7.43,0,0,1,3.86,0h.07L5,58a10.87,10.87,0,0,1,0,8.73l0,.06-.07,0A7.41,7.41,0,0,1,2.94,67Zm-1.8-.49a7.08,7.08,0,0,0,3.6,0,10.6,10.6,0,0,0,0-8.41,7.08,7.08,0,0,0-3.6,0A10.6,10.6,0,0,0,1.14,66.53Z"/><path class="cls-3" d="M53.48,66.64a7.21,7.21,0,0,0,3.8,0,10.71,10.71,0,0,0,0-8.63,7.21,7.21,0,0,0-3.8,0A10.71,10.71,0,0,0,53.48,66.64Z"/><path d="M53.45,66.77l-.07,0,0-.06a10.79,10.79,0,0,1,0-8.73l0-.07h.07a7.43,7.43,0,0,1,3.86,0h.07l0,.07a10.87,10.87,0,0,1,0,8.73l0,.06-.07,0a7.57,7.57,0,0,1-3.86,0Zm3.73-8.65a7.08,7.08,0,0,0-3.6,0,10.6,10.6,0,0,0,0,8.41,7.08,7.08,0,0,0,3.6,0A10.6,10.6,0,0,0,57.18,58.12Z"/><path class="cls-3" d="M28.85,98.25H32s4.78-11.32,4.5-13-4.56-9.84-7.26-10.58h0c-2.7.74-7,8.87-7.26,10.58s4.5,13,4.5,13h3.13"/><path class="cls-3" d="M32.1,98.43H26.32l-.05-.11s-1.21-2.87-2.35-5.88c-1.55-4.07-2.28-6.51-2.15-7.25a24.29,24.29,0,0,1,2.74-5.71c1-1.68,3-4.56,4.64-5h.11c1.63.45,3.61,3.33,4.64,5a24,24,0,0,1,2.75,5.71c.12.74-.6,3.18-2.15,7.25-1.15,3-2.35,5.85-2.36,5.88Zm-3.25-.35h3c.22-.54,1.29-3.08,2.31-5.76,2-5.26,2.19-6.69,2.13-7.07-.29-1.73-4.54-9.68-7.1-10.44-2.57.76-6.82,8.71-7.11,10.44-.06.38.13,1.81,2.14,7.07,1,2.68,2.08,5.22,2.3,5.76Z"/><path d="M24.53,86.66a.93.93,0,1,1,.92-.92A.93.93,0,0,1,24.53,86.66Zm0-1.73a.81.81,0,1,0,.81.81A.81.81,0,0,0,24.53,84.93Z"/><rect x="24.44" y="85.16" width="0.17" height="1.15" transform="translate(-57.19 50.04) rotate(-50.44)"/><path d="M34.11,86.66l-.19,0a.91.91,0,0,1-.59-.4,1,1,0,0,1-.13-.7.94.94,0,0,1,.41-.58.91.91,0,0,1,1.27.27.91.91,0,0,1,.13.7.93.93,0,0,1-.9.73Zm0-1.73a.76.76,0,0,0-.44.13.77.77,0,0,0-.35.51.78.78,0,0,0,.11.61.84.84,0,0,0,.51.35.82.82,0,0,0,.61-.12h0a.81.81,0,0,0,.24-1.11.81.81,0,0,0-.51-.36Z"/><rect x="33.53" y="85.65" width="1.15" height="0.17" transform="translate(-54.99 109.74) rotate(-83.38)"/><path class="cls-3" d="M17.09,98.79H41.18a.81.81,0,0,1,.81.81v2.24a0,0,0,0,1,0,0H16.42a0,0,0,0,1,0,0V99.46A.67.67,0,0,1,17.09,98.79Z"/><path d="M42.12,102H16.29V99.46a.8.8,0,0,1,.8-.8H41.18a.94.94,0,0,1,.94.94Zm-25.57-.26H41.86V99.6a.67.67,0,0,0-.68-.68H17.09a.54.54,0,0,0-.54.54Z"/><line class="cls-3" x1="20.27" y1="98.79" x2="20.27" y2="101.84"/><rect x="19.83" y="98.79" width="0.88" height="3.05"/><line class="cls-3" x1="23.76" y1="98.79" x2="23.76" y2="101.84"/><rect x="23.41" y="98.79" width="0.71" height="3.05"/><line class="cls-3" x1="38.12" y1="98.79" x2="38.12" y2="101.84"/><rect x="38.03" y="98.79" width="0.18" height="3.05"/><line class="cls-3" x1="34.52" y1="98.79" x2="34.52" y2="101.84"/><rect x="34.39" y="98.79" width="0.26" height="3.05"/><line class="cls-3" x1="30.92" y1="98.79" x2="30.92" y2="101.84"/><rect x="30.75" y="98.79" width="0.35" height="3.05"/><line class="cls-3" x1="27.25" y1="98.79" x2="27.25" y2="101.84"/><rect x="26.99" y="98.79" width="0.53" height="3.05"/><text class="cls-5" transform="matrix(0.98, -0.2, 0.2, 0.98, 9.76, 14.77)">Baxenda<tspan class="cls-6" x="14.73" y="0">l</tspan><tspan x="15.92" y="0">e Convers</tspan><tspan class="cls-7" x="32.76" y="0">i</tspan><tspan x="33.95" y="0">ons</tspan></text><text class="cls-8" transform="matrix(0.98, -0.2, 0.2, 0.98, 29.84, 16.54)">ATHENS, <tspan class="cls-9" x="18.21" y="0">GA</tspan></text><circle class="cls-4" cx="13.96" cy="62.32" r="2.1"/><circle class="cls-4" cx="44.45" cy="62.32" r="2.1"/><circle class="cls-4" cx="14.44" cy="25.86" r="2.1"/><circle class="cls-3" cx="44.45" cy="62.32" r="1.11"/><path class="cls-3" d="M44.45,63.44a1.12,1.12,0,1,1,1.12-1.12A1.12,1.12,0,0,1,44.45,63.44Zm0-2.22a1.1,1.1,0,1,0,1.1,1.1A1.1,1.1,0,0,0,44.45,61.22Z"/><circle class="cls-3" cx="13.96" cy="62.32" r="1.11"/><path class="cls-3" d="M14,63.44a1.12,1.12,0,1,1,1.12-1.12A1.12,1.12,0,0,1,14,63.44Zm0-2.22a1.1,1.1,0,1,0,1.1,1.1A1.1,1.1,0,0,0,14,61.22Z"/><circle class="cls-3" cx="15.89" cy="43.6" r="1.11"/><path class="cls-3" d="M15.89,44.72A1.12,1.12,0,1,1,17,43.6,1.12,1.12,0,0,1,15.89,44.72Zm0-2.22A1.1,1.1,0,1,0,17,43.6,1.1,1.1,0,0,0,15.89,42.5Z"/><circle class="cls-3" cx="42.66" cy="43.6" r="1.11"/><path class="cls-3" d="M42.66,44.72a1.12,1.12,0,1,1,1.12-1.12A1.12,1.12,0,0,1,42.66,44.72Zm0-2.22a1.1,1.1,0,1,0,1.1,1.1A1.1,1.1,0,0,0,42.66,42.5Z"/><circle class="cls-3" cx="14.44" cy="25.86" r="1.11"/><path class="cls-3" d="M14.44,27a1.12,1.12,0,1,1,1.12-1.12A1.12,1.12,0,0,1,14.44,27Zm0-2.22a1.1,1.1,0,1,0,0,2.2,1.1,1.1,0,1,0,0-2.2Z"/><circle class="cls-3" cx="44.11" cy="25.86" r="1.11"/><path class="cls-3" d="M44.11,27a1.12,1.12,0,1,1,1.12-1.12A1.12,1.12,0,0,1,44.11,27Zm0-2.22a1.1,1.1,0,1,0,1.1,1.1A1.1,1.1,0,0,0,44.11,24.76Z"/></g></g></svg>