<svg xmlns="http://www.w3.org/2000/svg" viewBox="0 0 797.41 532.91"><defs><style>.cls-1,.cls-16,.cls-17,.cls-18,.cls-19,.cls-2,.cls-9{fill:none;}.cls-10,.cls-11,.cls-12,.cls-15,.cls-2,.cls-4,.cls-5,.cls-8,.cls-9{stroke:#f40;}.cls-10,.cls-11,.cls-12,.cls-13,.cls-14,.cls-15,.cls-16,.cls-17,.cls-18,.cls-19,.cls-2,.cls-24,.cls-4,.cls-5,.cls-6,.cls-7,.cls-8,.cls-9{stroke-miterlimit:10;}.cls-10,.cls-2{stroke-width:0.96px;}.cls-10,.cls-12,.cls-15,.cls-3,.cls-5,.cls-8{fill:#f40;}.cls-11,.cls-4{fill:red;}.cls-11,.cls-12,.cls-15,.cls-22,.cls-23,.cls-4,.cls-5,.cls-8{stroke-linecap:round;}.cls-4,.cls-8{stroke-width:4.81px;}.cls-5{stroke-width:0.72px;}.cls-13,.cls-6{fill:#666;stroke:#666;}.cls-18,.cls-6,.cls-7{stroke-width:0.76px;}.cls-14,.cls-16,.cls-18,.cls-19,.cls-23,.cls-7{stroke:#000;}.cls-9{stroke-width:0.91px;}.cls-11,.cls-15{stroke-width:4.57px;}.cls-12{stroke-width:0.69px;}.cls-13,.cls-14{stroke-width:0.73px;}.cls-16,.cls-24{stroke-width:1.35px;}.cls-17,.cls-22{stroke:#0fc;}.cls-17{stroke-width:2.88px;}.cls-19{stroke-width:1.06px;}.cls-20{fill:#00b38f;}.cls-21{fill:#1f3d4c;}.cls-22,.cls-23{fill:#29abe2;stroke-linejoin:round;}.cls-22{stroke-width:3.85px;}.cls-23{stroke-width:5.77px;}.cls-24{fill:#179fe5;stroke:#1f3d4c;}</style></defs><g id="Layer_2" data-name="Layer 2"><g id="Layer_1-2" data-name="Layer 1"><rect class="cls-1" y="1.3" width="531.61" height="531.61"/><rect class="cls-1" x="531.61" y="1.3" width="265.8" height="531.61"/><circle class="cls-2" cx="294.17" cy="356.73" r="14.42"/><path class="cls-3" d="M308.48,335.74l-8.63-.73L342,299.16a27.42,27.42,0,0,1,15.53-6.41l23.61-1.93a24.77,24.77,0,0,1,7.82.6l88.66,21.21a25.44,25.44,0,0,1,13.6,8.38l11.3,13.62-8.62-.72-7.08-9.18a19.73,19.73,0,0,0-10.54-6.48L387.63,297a19.28,19.28,0,0,0-6-.46L358,298.5a21.56,21.56,0,0,0-12.27,5.07Z"/><line class="cls-4" x1="295.78" y1="337.57" x2="313.03" y2="339.01"/><path class="cls-5" d="M312.27,342.33l-13.79,16.49a4.33,4.33,0,0,1-5.21.86h0a4.33,4.33,0,0,1-1.95-5.54l3.7-13.26Z"/><circle class="cls-6" cx="295.21" cy="355.85" r="2.07"/><polygon class="cls-7" points="294.78 356.48 295.54 356.55 295.97 355.92 295.65 355.23 294.89 355.16 294.45 355.79 294.78 356.48"/><circle class="cls-2" cx="488.21" cy="356.11" r="14.42"/><line class="cls-8" x1="489.82" y1="336.94" x2="507.07" y2="338.39"/><path class="cls-5" d="M506.31,341.7l-13.79,16.49a4.34,4.34,0,0,1-5.21.87h0a4.34,4.34,0,0,1-2-5.55l3.71-13.25Z"/><circle class="cls-6" cx="489.25" cy="355.23" r="2.07"/><polygon class="cls-7" points="488.81 355.86 489.57 355.92 490.01 355.3 489.69 354.6 488.92 354.54 488.49 355.17 488.81 355.86"/><circle class="cls-9" cx="296.93" cy="327.82" r="13.7"/><path class="cls-10" d="M310.51,307.87l-8.19-.68,40-34.06A26,26,0,0,1,357.11,267l22.42-1.83a23.87,23.87,0,0,1,7.44.57l84.21,20.15a24.12,24.12,0,0,1,12.92,7.95l10.73,12.94-8.19-.68-6.73-8.72a18.7,18.7,0,0,0-10-6.16l-84.22-20.15a18.27,18.27,0,0,0-5.71-.44l-22.42,1.83a20.59,20.59,0,0,0-11.66,4.82Z"/><line class="cls-11" x1="298.45" y1="309.61" x2="314.83" y2="310.98"/><path class="cls-12" d="M314.11,314.13,301,329.79a4.13,4.13,0,0,1-4.95.83h0a4.13,4.13,0,0,1-1.86-5.27l3.52-12.59Z"/><circle class="cls-13" cx="297.91" cy="326.98" r="1.97"/><polygon class="cls-14" points="297.5 327.58 298.22 327.64 298.63 327.04 298.33 326.39 297.6 326.32 297.19 326.92 297.5 327.58"/><circle class="cls-9" cx="481.23" cy="327.22" r="13.7"/><line class="cls-15" x1="482.75" y1="309.02" x2="499.14" y2="310.39"/><path class="cls-12" d="M498.41,313.54,485.32,329.2a4.14,4.14,0,0,1-4.95.83h0a4.13,4.13,0,0,1-1.86-5.27L482,312.17Z"/><circle class="cls-13" cx="482.21" cy="326.39" r="1.97"/><polygon class="cls-14" points="481.8 326.99 482.52 327.05 482.94 326.45 482.63 325.79 481.9 325.73 481.49 326.33 481.8 326.99"/><path class="cls-16" d="M328.93,146.56l2.31,18.54-8.12-1.31-3-20.37-20.28-8.59a3.69,3.69,0,0,1-1.86-5.06h0a3.69,3.69,0,0,1,4.7-1.77l38.17,15.58L383.16,270c4.15,14.65-2.86,12-4.64,5.58h0"/><path class="cls-17" d="M312.58,132l-9.89-4.1a3.71,3.71,0,0,0-4.71,1.77h0a3.7,3.7,0,0,0,1.87,5.06l9.83,4.22Z"/><circle class="cls-18" cx="301.36" cy="131.47" r="1.98"/><circle class="cls-19" cx="328.47" cy="143.86" r="2.75"/><path class="cls-20" d="M349.46,283.08a1,1,0,0,1-.95-.83l-19-134.15a1,1,0,0,1,.3-.85,1,1,0,0,1,.65-.25.91.91,0,0,1,.23,0l200.5,48.65a1,1,0,0,1,.73,1l-8.46,79.22a6.48,6.48,0,0,1-6.46,5.81Z"/><path class="cls-21" d="M330.49,148,531,196.61l-8.46,79.22a5.54,5.54,0,0,1-5.5,4.95l-167.57,1.34L330.49,148m0-1.92a1.92,1.92,0,0,0-1.9,2.19l19,134.16a1.92,1.92,0,0,0,1.9,1.65h0L517,282.7a7.45,7.45,0,0,0,7.41-6.67l8.45-79.21a1.92,1.92,0,0,0-1.46-2.08l-200.5-48.65a1.73,1.73,0,0,0-.45-.05Z"/><line class="cls-22" x1="404.13" y1="287.19" x2="346.81" y2="287.99"/><line class="cls-23" x1="254.69" y1="374.59" x2="542.72" y2="374.59"/><path class="cls-24" d="M532.55,204.51l-7.87-2.11c-5.85-1.56-9.81-5.17-8.25-11h0l17.14,4.72Z"/><rect class="cls-1" x="98.71" width="600" height="148.59"/><rect class="cls-1" x="97.71" y="378.64" width="600" height="148.59"/></g></g></svg>