<svg xmlns="http://www.w3.org/2000/svg" viewBox="0 0 170.05 469.92"><defs><style>.cls-1,.cls-10,.cls-11,.cls-12,.cls-13,.cls-14,.cls-15,.cls-16,.cls-17,.cls-18,.cls-19,.cls-21,.cls-28,.cls-29,.cls-3,.cls-30,.cls-31,.cls-32,.cls-6,.cls-7,.cls-8,.cls-9{stroke:#000;}.cls-1,.cls-10,.cls-11,.cls-12,.cls-13,.cls-14,.cls-15,.cls-16,.cls-17,.cls-18,.cls-19,.cls-21,.cls-22,.cls-28,.cls-29,.cls-3,.cls-30,.cls-31,.cls-32,.cls-6,.cls-7,.cls-8,.cls-9{stroke-miterlimit:10;}.cls-1,.cls-19,.cls-3{stroke-width:0.3px;}.cls-2{fill:#e50b0a;}.cls-10,.cls-11,.cls-12,.cls-16,.cls-21,.cls-28,.cls-29,.cls-3,.cls-32,.cls-5,.cls-8,.cls-9{fill:none;}.cls-4{fill:#f2ebd6;}.cls-5{stroke:#231f20;}.cls-29,.cls-5{stroke-width:0.9px;}.cls-19,.cls-31,.cls-6,.cls-7{fill:#fff;}.cls-13,.cls-16,.cls-6{stroke-width:0.3px;}.cls-30,.cls-7,.cls-8{stroke-width:0.6px;}.cls-9{stroke-width:0.53px;}.cls-10{stroke-width:0.45px;}.cls-11{stroke-width:0.38px;}.cls-12{stroke-width:0.23px;}.cls-13{fill:#8c6239;}.cls-14{fill:#666;stroke-width:0.25px;}.cls-15{stroke-width:0.03px;}.cls-17{stroke-width:0.01px;}.cls-18{stroke-width:0.08px;}.cls-20{fill:#ebe2c3;}.cls-21{stroke-width:0.13px;}.cls-22{font-size:5.48px;fill:red;stroke:#fff;stroke-width:0.3px;font-family:MyriadPro-Bold, Myriad Pro;font-weight:700;}.cls-23{letter-spacing:-0.03em;}.cls-24{letter-spacing:-0.04em;}.cls-25{letter-spacing:0.01em;}.cls-26{letter-spacing:0em;}.cls-27{letter-spacing:0em;}.cls-28{stroke-width:0.31px;}.cls-30{fill:#a67c52;}.cls-31{stroke-width:0.15px;}.cls-32{stroke-width:0.3px;}</style></defs><g id="Layer_2" data-name="Layer 2"><g id="Layer_1-2" data-name="Layer 1"><rect class="cls-1" x="101.1" y="41.62" width="2.1" height="1.2"/><rect class="cls-1" x="100.5" y="23.01" width="2.1" height="1.2"/><rect class="cls-1" x="100.8" y="58.13" width="2.1" height="1.2"/><rect class="cls-1" x="66.59" y="41.62" width="2.1" height="1.2" transform="translate(135.27 84.44) rotate(-180)"/><rect class="cls-1" x="67.19" y="23.01" width="2.1" height="1.2" transform="translate(136.48 47.22) rotate(-180)"/><rect class="cls-1" x="66.89" y="58.13" width="2.1" height="1.2" transform="translate(135.88 117.45) rotate(-180)"/><path class="cls-2" d="M85.05,82h12.6l.11-1.09a48.13,48.13,0,0,1,3.57-14,6.49,6.49,0,0,0,.52-2.57V3.79a1.2,1.2,0,0,0-1-1.19L88,.24a18.31,18.31,0,0,0-5.91,0L69.27,2.6a1.2,1.2,0,0,0-1,1.19V64.46a6,6,0,0,0,.48,2.37A47.89,47.89,0,0,1,72.33,80.9L72.44,82Z"/><path class="cls-3" d="M169.49,407.94c-2-48.07-40.12-62.29-30.61-84.34,15-34.82,26.11-72.63-54.33-72.33h1C5.06,251,16.17,288.78,31.17,323.6c9.51,22-28.62,36.27-30.61,84.34-.75,18.16,0,61.53,84.34,61.53C169.54,469.47,170.24,426.1,169.49,407.94Z"/><path class="cls-4" d="M169.49,407.94c-2-48.07-40.12-62.29-30.61-84.34,15-34.82,26.11-72.63-54.33-72.33h1C5.06,251,16.17,288.78,31.17,323.6c9.51,22-28.62,36.27-30.61,84.34-.75,18.16,0,61.53,84.34,61.53C169.54,469.47,170.24,426.1,169.49,407.94Z"/><path class="cls-5" d="M169.49,407.94c-2-48.07-40.12-62.29-30.61-84.34,15-34.82,26.11-72.63-54.33-72.33h1C5.06,251,16.17,288.78,31.17,323.6c9.51,22-28.62,36.27-30.61,84.34-.75,18.16,0,61.53,84.34,61.53C169.54,469.47,170.24,426.1,169.49,407.94Z"/><path class="cls-2" d="M128.86,359.15a43.28,43.28,0,0,0-7,23.63v.06a20.15,20.15,0,0,1-5.64-21.57,20.26,20.26,0,0,0,3.14.25A20,20,0,0,0,128.86,359.15Z"/><path class="cls-2" d="M165.31,426.21c1.09,0,2.18,0,3.26-.12a70,70,0,0,0,.77-19c-2.16-20.46-6.46-28.73-12.91-41.16.78,2.15-1-.57-1,1.85a20.15,20.15,0,0,1-33.6,15A43.42,43.42,0,0,0,165.31,426.21Zm0-43.43Z"/><path class="cls-2" d="M153.5,360.92c0,2.72,3.51,3.58,3.51,6,0,11.13-10.56,21.05-21.7,21.05a20.07,20.07,0,0,1-13.43-5.14v-.06a43.28,43.28,0,0,1,7-23.63A20.24,20.24,0,0,0,138.05,349c.39-.32,2.14-2.17,2.55-2.47,3.53.69,4.62,3.86,7.23,6.15C149.66,355.25,151.58,358,153.5,360.92Z"/><path class="cls-2" d="M116.41,361.92a20.19,20.19,0,0,1-16-13.65,24.71,24.71,0,0,0,9.68-19.64,25.69,25.69,0,0,0-.36-4.23c2.91-1.63,8.8-2.64,12.38-2.68,16-.17,14.28,9.91,18.25,20.28.74,1.93,4.69,7.21,5.35,8.47-1,1.74-7,1.15-6.84,2.21C140.86,370.76,132.28,366.63,116.41,361.92Z"/><path class="cls-2" d="M41.44,360.16a43.2,43.2,0,0,1,7,23.63v.06a20.15,20.15,0,0,0,5.64-21.57,20.1,20.1,0,0,1-12.63-2.12Z"/><path class="cls-2" d="M48.43,383.85a20.15,20.15,0,0,1-32.38-21.92C8.58,373.32,1.21,387.64.37,408.06a70.85,70.85,0,0,0,1.37,19c1.08.08,2.17.12,3.26.12A43.42,43.42,0,0,0,48.43,383.85ZM5,383.79Z"/><path class="cls-2" d="M16.05,361.93a19.93,19.93,0,0,0-1.22,6.89,20.15,20.15,0,0,0,33.6,15v-.06a43.2,43.2,0,0,0-7-23.63A20.27,20.27,0,0,1,32.26,350c-.39-.32-.79-.63-1.19-.93a20.09,20.09,0,0,0-9.36,4.61C19.89,356.26,18,359,16.05,361.93Z"/><path class="cls-2" d="M54.07,362.28a20.16,20.16,0,0,0,16-13.64,24.7,24.7,0,0,1-9.31-23.87c-2.91-1.63-7.32,0-9.85-2.57-17-17-15.92,10.4-21.27,20.17-2.76,5-3.27,5.51-.92,7.56,1-.16,5.19-1.27,6.26-1.27A20.18,20.18,0,0,1,54.07,362.28Z"/><path class="cls-2" d="M83.67,310.38c13.68,0,26.13,4.14,26.13,17.64a22.81,22.81,0,0,1-.13,2.49l27.57,0a17.12,17.12,0,0,1,1.49-7.84c15-34.31,26.07-71.57-53.85-71.42h0C5,251.12,16.05,288.38,31,322.69a17.09,17.09,0,0,1,1.5,7.77l30.77,0a21.76,21.76,0,0,1-.16-2.57,22.08,22.08,0,0,1,.13-2.32,21,21,0,0,0-2.63-1.74"/><path class="cls-6" d="M72.66,79.39H97.25a.74.74,0,0,1,.74.74V82a0,0,0,0,1,0,0H71.93a0,0,0,0,1,0,0v-1.9A.74.74,0,0,1,72.66,79.39Z"/><circle class="cls-7" cx="85.37" cy="328.88" r="24.77"/><polyline class="cls-8" points="73.78 81.97 73.78 79.33 76.34 55.73"/><polyline class="cls-9" points="78.82 82.03 78.82 79.39 76.86 37.49"/><polyline class="cls-10" points="82.97 82.03 82.97 79.39 76.81 19.25"/><polyline class="cls-3" points="91.75 82.06 91.75 79.42 94.1 37.44"/><polyline class="cls-11" points="87.52 82.03 87.52 79.39 94.14 19.13"/><polyline class="cls-12" points="95.59 82.03 95.59 79.39 94.03 54.79"/><line class="cls-8" x1="79.28" y1="54.75" x2="76.73" y2="55.27"/><line class="cls-9" x1="71.58" y1="33.53" x2="74.57" y2="38.03"/><line class="cls-10" x1="75.79" y1="17.89" x2="79.11" y2="17.98"/><line class="cls-12" x1="95.36" y1="53.42" x2="98.13" y2="53.49"/><line class="cls-11" x1="94.09" y1="18.78" x2="92.5" y2="16.88"/><rect class="cls-13" x="56.13" y="403.84" width="57.5" height="5.67"/><path class="cls-14" d="M100,417.23a139.57,139.57,0,0,0-30,0,4.12,4.12,0,0,0-3.68,4.66c2.3,15.86,4.68,31.47,7,47.33,3.86,0,7.64.13,11.47.13s7.91-.13,11.87-.13c2.3-15.86,4.77-31.47,7.07-47.33A4.12,4.12,0,0,0,100,417.23Zm-20.67,13.6c.79-1.25,2.7-3.4,5.33-.61a.5.5,0,0,0,.74,0c2.63-2.8,4.55-.65,5.33.6a1,1,0,0,1-.12,1.25,20.51,20.51,0,0,0-5.17,9.48.42.42,0,0,1-.82,0,20.43,20.43,0,0,0-5.17-9.47A1,1,0,0,1,79.34,430.83Zm-2.73,26.78c-1.28-8.64-2.56-17.24-3.84-25.89a1.29,1.29,0,0,1,2-1.24,19.31,19.31,0,0,1,4.11,27.74A1.28,1.28,0,0,1,76.61,457.61Zm14,5.64c-.78,1.25-2.7,3.4-5.33.6a.51.51,0,0,0-.74,0c-2.63,2.8-4.54.64-5.33-.61A1,1,0,0,1,79.3,462a20.43,20.43,0,0,0,5.17-9.47.42.42,0,0,1,.82,0A20.51,20.51,0,0,0,90.46,462,1,1,0,0,1,90.58,463.25ZM93,457.61a1.29,1.29,0,0,1-2.28.61,19.31,19.31,0,0,1,4.12-27.74,1.28,1.28,0,0,1,2,1.24C95.6,440.37,94.31,449,93,457.61Z"/><path class="cls-15" d="M71.71,422.51,71,423.74a.46.46,0,0,0,.4.68h1.41a.46.46,0,0,0,.4-.68l-.71-1.23A.46.46,0,0,0,71.71,422.51Z"/><path class="cls-15" d="M76.67,422.3,76,423.53a.45.45,0,0,0,.39.68h1.42a.45.45,0,0,0,.39-.68l-.71-1.23A.45.45,0,0,0,76.67,422.3Z"/><path class="cls-15" d="M82.14,422.3l-.71,1.23a.46.46,0,0,0,.4.68h1.41a.46.46,0,0,0,.4-.68l-.71-1.23A.46.46,0,0,0,82.14,422.3Z"/><path class="cls-15" d="M87.36,422.3l-.71,1.23a.45.45,0,0,0,.39.68h1.42a.45.45,0,0,0,.39-.68l-.71-1.23A.45.45,0,0,0,87.36,422.3Z"/><path class="cls-15" d="M92.31,422.3l-.71,1.23a.46.46,0,0,0,.4.68h1.41a.46.46,0,0,0,.4-.68l-.71-1.23A.46.46,0,0,0,92.31,422.3Z"/><path class="cls-15" d="M97.66,422.51,97,423.74a.45.45,0,0,0,.39.68h1.42a.45.45,0,0,0,.39-.68l-.71-1.23A.45.45,0,0,0,97.66,422.51Z"/><rect class="cls-16" x="68.47" y="403.84" width="33.15" height="5.67"/><line class="cls-16" x1="68.47" y1="406.67" x2="101.62" y2="406.67"/><polygon class="cls-17" points="72.2 406.06 71.5 407.29 72.91 407.29 72.2 406.06"/><polygon class="cls-17" points="72.2 407.29 71.5 406.06 72.91 406.06 72.2 407.29"/><polygon class="cls-17" points="77.17 406.05 76.46 407.28 77.87 407.28 77.17 406.05"/><polygon class="cls-17" points="77.17 407.28 76.46 406.05 77.87 406.05 77.17 407.28"/><polygon class="cls-17" points="82.56 406.07 81.85 407.29 83.27 407.29 82.56 406.07"/><polygon class="cls-17" points="82.56 407.29 81.85 406.07 83.27 406.07 82.56 407.29"/><polygon class="cls-17" points="87.76 406.07 87.05 407.29 88.47 407.29 87.76 406.07"/><polygon class="cls-17" points="87.76 407.29 87.05 406.07 88.47 406.07 87.76 407.29"/><polygon class="cls-17" points="92.66 406.07 91.95 407.29 93.37 407.29 92.66 406.07"/><polygon class="cls-17" points="92.66 407.29 91.95 406.07 93.37 406.07 92.66 407.29"/><polygon class="cls-17" points="97.94 406.03 97.23 407.26 98.65 407.26 97.94 406.03"/><polygon class="cls-17" points="97.94 407.26 97.23 406.03 98.65 406.03 97.94 407.26"/><circle class="cls-18" cx="75.59" cy="19.11" r="1.5"/><circle class="cls-18" cx="95.4" cy="19.11" r="1.5"/><circle class="cls-18" cx="95.4" cy="37.42" r="1.5"/><circle class="cls-18" cx="75.59" cy="37.42" r="1.5"/><circle class="cls-18" cx="75.59" cy="54.84" r="1.5"/><circle class="cls-18" cx="95.4" cy="54.83" r="1.5"/><ellipse class="cls-19" cx="106.21" cy="42.07" rx="3.3" ry="5.25"/><ellipse class="cls-19" cx="105.61" cy="23.46" rx="3.3" ry="5.25"/><ellipse class="cls-19" cx="105.91" cy="58.58" rx="3.3" ry="5.25"/><ellipse class="cls-19" cx="63.59" cy="42.07" rx="3.3" ry="5.25"/><ellipse class="cls-19" cx="64.19" cy="23.46" rx="3.3" ry="5.25"/><ellipse class="cls-19" cx="63.89" cy="58.58" rx="3.3" ry="5.25"/><path class="cls-20" d="M81.09,6.92c-.15.08,1.93.5,2-1,.22-3.49-5.25-2.83-4.83-.16,1.8,11.4-4.63,6.62-3.21,4.53.75-1.11,2.49-1.16,2.54.08s-1.37.37-1.42.42c-.34.34.59,1.39,1.54.76,2-1.3-1.38-4.69-3.35-1.89-2.81,4,6.6,8.1,5.4-2.1C79.11,1.73,84.24,5.24,81.09,6.92Z"/><path class="cls-20" d="M81.39,12.75s-.78,1-.81.52,1.63-3.22,1.63-3.22l.91-.07.29-.39-1,0,.82-1.21-.62-.06-.91,1.14H80.45l-.17.49h1s-2.54,3.39-1.3,3.91A1.51,1.51,0,0,0,81.82,13Z"/><path class="cls-20" d="M86,9.62c-.58-1.71-5.15,1.07-3.56,3.88.53,1,2.48.05,2.59-.92,0,0,0,0,0,0s-1.78.92-1.88,0C83.08,11.79,86.67,11.44,86,9.62Z"/><ellipse class="cls-2" cx="84.38" cy="10.41" rx="1.11" ry="0.38" transform="translate(6.1 43.58) rotate(-30)"/><path class="cls-20" d="M87.58,7.16s1,.36,2.16-1l.58.19s-5,7.24-4,7,.72-.39.72-.39,1.08-.2.26.65-3.39.52-.91-3,2-2.8,2-2.8l-1.08,0Z"/><path class="cls-20" d="M90,7.16s1,.36,2.16-1l.58.19s-5,7.24-4,7,.72-.39.72-.39,1.08-.2.26.65-3.39.52-.91-3,2-2.8,2-2.8l-1.08,0Z"/><path class="cls-20" d="M92.63,13.93c1,.16,2.61-1.24,2.19-1.67s-.88.64-1.53.89.79-1.66,1.28-2.6-.79-.42-.79-.42a1.1,1.1,0,0,0-.48-1c-.67-.39-1.85.42-2.56,1.66s-.7,2.76.07,2.82a2.22,2.22,0,0,0,1.53-.48S91.93,13.81,92.63,13.93Z"/><ellipse class="cls-2" cx="92.22" cy="11.37" rx="1.71" ry="0.57" transform="translate(29.78 80.18) rotate(-54.81)"/><circle class="cls-21" cx="75.59" cy="37.42" r="2.45"/><circle class="cls-21" cx="75.59" cy="19.11" r="2.45"/><circle class="cls-21" cx="95.4" cy="19.11" r="2.45"/><circle class="cls-21" cx="95.4" cy="37.42" r="2.45"/><circle class="cls-21" cx="95.4" cy="54.83" r="2.45"/><circle class="cls-21" cx="75.59" cy="54.83" r="2.45"/><line class="cls-3" x1="96.4" y1="40.06" x2="96.71" y2="37.76"/><polygon class="cls-20" points="92.17 30.75 91.56 31.16 92.11 31.65 91.45 31.97 91.94 32.52 91.24 32.76 91.65 33.37 90.93 33.52 91.25 34.18 90.52 34.22 90.75 34.92 90.02 34.87 90.17 35.59 89.44 35.45 89.49 36.18 88.8 35.94 88.75 36.68 88.09 36.35 87.95 37.08 87.34 36.66 87.1 37.36 86.55 36.87 86.22 37.54 85.74 36.98 85.33 37.59 84.92 36.98 84.44 37.54 84.11 36.87 83.56 37.36 83.32 36.66 82.71 37.07 82.57 36.35 81.91 36.68 81.86 35.94 81.16 36.18 81.21 35.44 80.49 35.59 80.64 34.87 79.9 34.92 80.14 34.22 79.4 34.17 79.73 33.51 79.01 33.37 79.42 32.76 78.72 32.52 79.21 31.97 78.55 31.65 79.1 31.16 78.49 30.75 79.1 30.34 78.55 29.86 79.21 29.53 78.72 28.98 79.42 28.74 79.01 28.13 79.73 27.99 79.4 27.33 80.14 27.28 79.9 26.59 80.64 26.64 80.49 25.91 81.22 26.06 81.17 25.32 81.86 25.56 81.91 24.83 82.57 25.15 82.71 24.43 83.32 24.84 83.56 24.14 84.11 24.63 84.44 23.97 84.92 24.52 85.33 23.91 85.74 24.52 86.22 23.97 86.55 24.63 87.1 24.14 87.34 24.84 87.95 24.43 88.09 25.15 88.75 24.83 88.8 25.56 89.5 25.33 89.44 26.06 90.17 25.92 90.02 26.64 90.76 26.59 90.52 27.29 91.25 27.33 90.93 27.99 91.65 28.13 91.24 28.75 91.94 28.98 91.45 29.53 92.11 29.86 91.56 30.34 92.17 30.75"/><text class="cls-22" transform="translate(71.58 32.51)"><tspan class="cls-23">C</tspan><tspan x="3.09" y="0">O</tspan><tspan class="cls-24" x="7.02" y="0">L</tspan><tspan x="9.61" y="0">O</tspan><tspan class="cls-25" x="13.54" y="0">R</tspan><tspan x="16.84" y="0">A</tspan><tspan class="cls-26" x="20.43" y="0">M</tspan><tspan class="cls-27" x="25.05" y="0">A</tspan></text><path class="cls-2" d="M31.07,349.05a42.46,42.46,0,0,0-4.29-2.84c-1.51,2.38-3.24,4.84-5.07,7.45A20.09,20.09,0,0,1,31.07,349.05Z"/><path class="cls-2" d="M31.86,348.91l-.79.14c.4.3.8.61,1.19.93C32.12,349.63,32,349.27,31.86,348.91Z"/><path class="cls-2" d="M16.05,361.93c1.92-2.93,3.84-5.67,5.66-8.27A20.19,20.19,0,0,0,16.05,361.93Z"/><path class="cls-2" d="M41.44,360.16a20.1,20.1,0,0,0,12.63,2.12,20.13,20.13,0,0,0-22.21-13.37c.12.36.26.72.4,1.07A43.44,43.44,0,0,1,41.44,360.16Z"/><path class="cls-2" d="M32.26,350a20.27,20.27,0,0,0,9.18,10.18A43.44,43.44,0,0,0,32.26,350Z"/><circle class="cls-28" cx="85.37" cy="328.88" r="22.08"/><path class="cls-3" d="M169.49,407.94c-2-48.07-40.12-62.29-30.61-84.34,15-34.82,26.11-72.63-54.33-72.33h1C5.06,251,16.17,288.78,31.17,323.6c9.51,22-28.62,36.27-30.61,84.34-.75,18.16,0,61.53,84.34,61.53C169.54,469.47,170.24,426.1,169.49,407.94Z"/><path class="cls-29" d="M169.49,407.94c-2-48.07-40.12-62.29-30.61-84.34,15-34.82,26.11-72.63-54.33-72.33h1C5.06,251,16.17,288.78,31.17,323.6c9.51,22-28.62,36.27-30.61,84.34-.75,18.16,0,61.53,84.34,61.53C169.54,469.47,170.24,426.1,169.49,407.94Z"/><path class="cls-30" d="M100.22,305.66H69.88L72.64,81.93H97.46Z"/><rect class="cls-31" x="79.02" y="157.29" width="13.36" height="2.48"/><rect class="cls-31" x="79.02" y="163.86" width="13.36" height="2.48"/><rect class="cls-31" x="74.89" y="160.58" width="21.31" height="2.48"/><rect class="cls-31" x="79.16" y="186.11" width="13.36" height="2.48"/><rect class="cls-31" x="79.16" y="192.68" width="13.36" height="2.48"/><rect class="cls-31" x="75.04" y="189.39" width="21.31" height="2.48"/><rect class="cls-31" x="79.16" y="210.85" width="13.36" height="2.48"/><rect class="cls-31" x="79.16" y="217.42" width="13.36" height="2.48"/><rect class="cls-31" x="75.04" y="214.14" width="21.31" height="2.48"/><line class="cls-32" x1="72.4" y1="101.69" x2="97.7" y2="101.69"/><line class="cls-32" x1="72.17" y1="120.2" x2="97.93" y2="120.2"/><line class="cls-32" x1="71.95" y1="137.54" x2="98.14" y2="137.54"/><line class="cls-32" x1="71.75" y1="153.9" x2="98.34" y2="153.9"/><line class="cls-32" x1="71.57" y1="169.16" x2="98.53" y2="169.16"/><line class="cls-32" x1="71.39" y1="183.56" x2="98.71" y2="183.56"/><line class="cls-32" x1="71.22" y1="196.8" x2="98.87" y2="196.8"/><line class="cls-32" x1="71.07" y1="209.51" x2="99.03" y2="209.51"/><line class="cls-32" x1="70.92" y1="221.18" x2="99.17" y2="221.18"/><line class="cls-32" x1="70.66" y1="242.43" x2="99.44" y2="242.43"/><line class="cls-32" x1="70.54" y1="252.21" x2="99.56" y2="252.21"/><line class="cls-32" x1="70.43" y1="261.2" x2="99.67" y2="261.2"/><line class="cls-32" x1="70.32" y1="269.94" x2="99.78" y2="269.94"/><line class="cls-32" x1="70.22" y1="277.89" x2="99.87" y2="277.89"/><line class="cls-32" x1="70.13" y1="285.45" x2="99.97" y2="285.45"/><line class="cls-32" x1="70.04" y1="292.69" x2="100.06" y2="292.69"/><line class="cls-32" x1="69.88" y1="299.4" x2="100.14" y2="299.4"/><line class="cls-32" x1="70.79" y1="232.13" x2="99.31" y2="232.13"/><line class="cls-8" x1="74.17" y1="82.03" x2="72.11" y2="422.54"/><line class="cls-9" x1="78.82" y1="82.03" x2="77.06" y2="422.54"/><line class="cls-10" x1="82.98" y1="82.03" x2="82.54" y2="422.68"/><line class="cls-11" x1="87.52" y1="82.03" x2="87.75" y2="422.68"/><line class="cls-3" x1="91.56" y1="82.03" x2="92.7" y2="422.81"/><line class="cls-12" x1="95.59" y1="82.03" x2="98.05" y2="422.28"/></g></g></svg>