<svg xmlns="http://www.w3.org/2000/svg" viewBox="0 0 422.52 359.27"><defs><style>.cls-1{fill:#0fc;}.cls-1,.cls-2{stroke:#999;stroke-width:25.86px;}.cls-1,.cls-10,.cls-12,.cls-15,.cls-2,.cls-6,.cls-7,.cls-8,.cls-9{stroke-miterlimit:10;}.cls-12,.cls-2,.cls-5,.cls-7,.cls-9{fill:none;}.cls-3{fill:#00b38f;}.cls-4{fill:#ccc;}.cls-6,.cls-8{stroke:#000;}.cls-6{stroke-width:0.78px;}.cls-10,.cls-12,.cls-15,.cls-7,.cls-9{stroke:#ed1c24;}.cls-7{stroke-width:0.47px;}.cls-8{stroke-width:0.2px;}.cls-9{stroke-width:0.41px;}.cls-10{fill:red;stroke-width:0.44px;}.cls-11{fill:#ff4500;}.cls-12,.cls-15{stroke-width:0.36px;}.cls-13,.cls-15{fill:#ff0;}.cls-14{fill:#b3b3b3;}.cls-16{fill:#fcee21;}</style></defs><g id="Layer_2" data-name="Layer 2"><g id="Top_Face_Tracing" data-name="Top Face Tracing"><line class="cls-1" x1="100.75" y1="131.61" x2="258.69" y2="74.42"/><polyline class="cls-2" points="109.98 282.39 220.97 294.17 330.02 267.25"/><polygon class="cls-3" points="109.09 101.51 119.85 106.43 122.45 95.42 115.72 92.34 109.09 101.51"/><polygon class="cls-3" points="91.68 102.37 103.4 100.69 99.63 90.02 92.3 91.06 91.68 102.37"/><polygon class="cls-3" points="77.5 112.5 86.45 104.75 77.51 97.81 71.91 102.65 77.5 112.5"/><polygon class="cls-3" points="71.05 128.69 74.39 117.33 63.11 116.33 61.03 123.43 71.05 128.69"/><polygon class="cls-3" points="74.37 145.8 71.04 134.44 61.02 139.69 63.1 146.79 74.37 145.8"/><polygon class="cls-3" points="86.42 158.39 77.48 150.63 71.88 160.47 77.47 165.32 86.42 158.39"/><polygon class="cls-3" points="103.36 162.47 91.65 160.78 92.26 172.09 99.58 173.14 103.36 162.47"/><polygon class="cls-3" points="119.83 156.75 109.05 161.66 115.68 170.84 122.41 167.77 119.83 156.75"/><polygon class="cls-3" points="130.58 143.03 124.17 152.99 134.71 157.13 138.71 150.9 130.58 143.03"/><polygon class="cls-3" points="132.21 125.68 132.2 137.52 143.3 135.3 143.3 127.9 132.21 125.68"/><polygon class="cls-3" points="124.19 110.2 130.59 120.16 138.73 112.3 134.74 106.07 124.19 110.2"/><polygon class="cls-3" points="109.09 101.51 119.85 106.43 122.45 95.42 115.72 92.34 109.09 101.51"/><polygon class="cls-3" points="91.68 102.37 103.4 100.69 99.63 90.02 92.3 91.06 91.68 102.37"/><polygon class="cls-3" points="77.5 112.5 86.45 104.75 77.51 97.81 71.91 102.65 77.5 112.5"/><polygon class="cls-3" points="71.05 128.69 74.39 117.33 63.11 116.33 61.03 123.43 71.05 128.69"/><polygon class="cls-3" points="74.37 145.8 71.04 134.44 61.02 139.69 63.1 146.79 74.37 145.8"/><polygon class="cls-3" points="86.42 158.39 77.48 150.63 71.88 160.47 77.47 165.32 86.42 158.39"/><polygon class="cls-3" points="103.36 162.47 91.65 160.78 92.26 172.09 99.58 173.14 103.36 162.47"/><polygon class="cls-3" points="119.83 156.75 109.05 161.66 115.68 170.84 122.41 167.77 119.83 156.75"/><polygon class="cls-3" points="130.58 143.03 124.17 152.99 134.71 157.13 138.71 150.9 130.58 143.03"/><polygon class="cls-3" points="132.21 125.68 132.2 137.52 143.3 135.3 143.3 127.9 132.21 125.68"/><polygon class="cls-3" points="124.19 110.2 130.59 120.16 138.73 112.3 134.74 106.07 124.19 110.2"/><circle class="cls-3" cx="101.84" cy="131.58" r="8.45"/><circle class="cls-3" cx="101.84" cy="131.58" r="13.7"/><line class="cls-3" x1="108.46" y1="155.23" x2="108.59" y2="143.5"/><line class="cls-3" x1="115.31" y1="129.05" x2="125.03" y2="123.48"/><circle class="cls-3" cx="101.84" cy="131.65" r="8.45"/><circle class="cls-3" cx="101.9" cy="131.62" r="8.45"/><path class="cls-3" d="M114.86,103.12A31.29,31.29,0,1,0,130.3,144.6,31.29,31.29,0,0,0,114.86,103.12ZM86.67,150.93l-.1-.08a24.57,24.57,0,0,1-8.48-25.3l10.1,5.94a13.68,13.68,0,0,0,5.14,10.87,13.92,13.92,0,0,0,4,2.2l0,11.21A24.48,24.48,0,0,1,86.67,150.93Zm10.15-32.07a13.88,13.88,0,0,0-3.91,2.36l-9.69-5.63a24.43,24.43,0,0,1,9.52-6.79l.12,0A24.55,24.55,0,0,1,119,114.06l-10.19,5.78A13.65,13.65,0,0,0,96.82,118.86Zm11.67,36.38.1-11.72a13.69,13.69,0,0,0,6.84-9.89,14,14,0,0,0-.09-4.57l9.72-5.58a24.43,24.43,0,0,1,1.12,11.64l0,.13A24.56,24.56,0,0,1,108.49,155.24Z"/><circle class="cls-3" cx="101.84" cy="131.58" r="13.7"/><circle class="cls-3" cx="101.9" cy="131.62" r="8.45"/><polygon class="cls-3" points="260.72 43.91 272.1 47.18 273.03 35.9 265.91 33.86 260.72 43.91"/><polygon class="cls-3" points="243.63 47.36 254.97 43.95 249.65 33.96 242.57 36.09 243.63 47.36"/><polygon class="cls-3" points="231.12 59.49 238.82 50.49 228.94 44.96 224.13 50.59 231.12 59.49"/><polygon class="cls-3" points="227.16 76.46 228.77 64.73 217.47 65.42 216.46 72.75 227.16 76.46"/><polygon class="cls-3" points="232.99 92.88 228.01 82.14 218.88 88.83 221.99 95.54 232.99 92.88"/><polygon class="cls-3" points="246.78 103.54 236.78 97.2 232.72 107.77 238.97 111.73 246.78 103.54"/><polygon class="cls-3" points="264.15 105.05 252.31 105.13 254.6 116.21 262 116.17 264.15 105.05"/><polygon class="cls-3" points="279.57 96.94 269.65 103.4 277.57 111.49 283.77 107.45 279.57 96.94"/><polygon class="cls-3" points="288.16 81.77 283.31 92.57 294.34 95.09 297.37 88.34 288.16 81.77"/><polygon class="cls-3" points="287.18 64.37 288.94 76.08 299.59 72.23 298.49 64.92 287.18 64.37"/><polygon class="cls-3" points="276.95 50.26 284.76 59.16 291.64 50.17 286.76 44.6 276.95 50.26"/><polygon class="cls-3" points="260.72 43.91 272.1 47.18 273.03 35.9 265.91 33.86 260.72 43.91"/><polygon class="cls-3" points="243.63 47.36 254.97 43.95 249.65 33.96 242.57 36.09 243.63 47.36"/><polygon class="cls-3" points="231.12 59.49 238.82 50.49 228.94 44.96 224.13 50.59 231.12 59.49"/><polygon class="cls-3" points="227.16 76.46 228.77 64.73 217.47 65.42 216.46 72.75 227.16 76.46"/><polygon class="cls-3" points="232.99 92.88 228.01 82.14 218.88 88.83 221.99 95.54 232.99 92.88"/><polygon class="cls-3" points="246.78 103.54 236.78 97.2 232.72 107.77 238.97 111.73 246.78 103.54"/><polygon class="cls-3" points="264.15 105.05 252.31 105.13 254.6 116.21 262 116.17 264.15 105.05"/><polygon class="cls-3" points="279.57 96.94 269.65 103.4 277.57 111.49 283.77 107.45 279.57 96.94"/><polygon class="cls-3" points="288.16 81.77 283.31 92.57 294.34 95.09 297.37 88.34 288.16 81.77"/><polygon class="cls-3" points="287.18 64.37 288.94 76.08 299.59 72.23 298.49 64.92 287.18 64.37"/><polygon class="cls-3" points="276.95 50.26 284.76 59.16 291.64 50.17 286.76 44.6 276.95 50.26"/><circle class="cls-3" cx="258.04" cy="74.73" r="8.45"/><circle class="cls-3" cx="258.04" cy="74.73" r="13.7"/><line class="cls-3" x1="268.1" y1="97.13" x2="266.49" y2="85.51"/><line class="cls-3" x1="270.98" y1="70.22" x2="279.75" y2="63.26"/><circle class="cls-3" cx="258.05" cy="74.8" r="8.45"/><circle class="cls-3" cx="258.1" cy="74.76" r="8.45"/><path class="cls-3" d="M266.67,44.65a31.29,31.29,0,1,0,21.45,38.71A31.29,31.29,0,0,0,266.67,44.65ZM245.91,96.12l-.11-.06A24.57,24.57,0,0,1,233.65,72.3l10.87,4.38a13.67,13.67,0,0,0,11,11.56l1.64,11.09A24.43,24.43,0,0,1,245.91,96.12Zm5.27-33.22a13.75,13.75,0,0,0-3.52,2.92l-10.42-4.13a24.44,24.44,0,0,1,8.4-8.13l.11-.06a24.53,24.53,0,0,1,26.64,1.35l-9.22,7.23A13.64,13.64,0,0,0,251.18,62.9Zm17,34.23-1.65-11.6a13.69,13.69,0,0,0,5.29-10.8,13.42,13.42,0,0,0-.78-4.5l8.79-7a24.49,24.49,0,0,1,2.84,11.34v.13A24.55,24.55,0,0,1,268.14,97.13Z"/><circle class="cls-3" cx="258.04" cy="74.73" r="13.7"/><circle class="cls-3" cx="258.1" cy="74.76" r="8.45"/><polygon class="cls-4" points="113.79 251.31 125.17 254.58 126.1 243.3 118.99 241.26 113.79 251.31"/><polygon class="cls-4" points="96.71 254.76 108.05 251.35 102.73 241.36 95.64 243.49 96.71 254.76"/><polygon class="cls-4" points="84.19 266.89 91.89 257.89 82.02 252.36 77.2 257.99 84.19 266.89"/><polygon class="cls-4" points="80.23 283.86 81.84 272.13 70.54 272.82 69.53 280.15 80.23 283.86"/><polygon class="cls-4" points="86.07 300.28 81.08 289.54 71.95 296.23 75.06 302.94 86.07 300.28"/><polygon class="cls-4" points="99.86 310.94 89.86 304.6 85.79 315.17 92.04 319.13 99.86 310.94"/><polygon class="cls-4" points="117.22 312.45 105.38 312.52 107.67 323.61 115.07 323.56 117.22 312.45"/><polygon class="cls-4" points="132.64 304.33 122.72 310.8 130.64 318.89 136.84 314.85 132.64 304.33"/><polygon class="cls-4" points="141.23 289.17 136.38 299.97 147.41 302.49 150.45 295.74 141.23 289.17"/><polygon class="cls-4" points="140.25 271.77 142.01 283.48 152.66 279.63 151.56 272.31 140.25 271.77"/><polygon class="cls-4" points="130.03 257.66 137.84 266.56 144.71 257.57 139.83 252 130.03 257.66"/><polygon class="cls-4" points="113.79 251.31 125.17 254.58 126.1 243.3 118.99 241.26 113.79 251.31"/><polygon class="cls-4" points="96.71 254.76 108.05 251.35 102.73 241.36 95.64 243.49 96.71 254.76"/><polygon class="cls-4" points="84.19 266.89 91.89 257.89 82.02 252.36 77.2 257.99 84.19 266.89"/><polygon class="cls-4" points="80.23 283.86 81.84 272.13 70.54 272.82 69.53 280.15 80.23 283.86"/><polygon class="cls-4" points="86.07 300.28 81.08 289.54 71.95 296.23 75.06 302.94 86.07 300.28"/><polygon class="cls-4" points="99.86 310.94 89.86 304.6 85.79 315.17 92.04 319.13 99.86 310.94"/><polygon class="cls-4" points="117.22 312.45 105.38 312.52 107.67 323.61 115.07 323.56 117.22 312.45"/><polygon class="cls-4" points="132.64 304.33 122.72 310.8 130.64 318.89 136.84 314.85 132.64 304.33"/><polygon class="cls-4" points="141.23 289.17 136.38 299.97 147.41 302.49 150.45 295.74 141.23 289.17"/><polygon class="cls-4" points="140.25 271.77 142.01 283.48 152.66 279.63 151.56 272.31 140.25 271.77"/><polygon class="cls-4" points="130.03 257.66 137.84 266.56 144.71 257.57 139.83 252 130.03 257.66"/><circle class="cls-4" cx="111.11" cy="282.13" r="8.45"/><circle class="cls-4" cx="111.11" cy="282.13" r="13.7"/><line class="cls-4" x1="121.17" y1="304.53" x2="119.56" y2="292.91"/><line class="cls-4" x1="124.05" y1="277.62" x2="132.83" y2="270.66"/><circle class="cls-4" cx="111.12" cy="282.2" r="8.45"/><circle class="cls-4" cx="111.17" cy="282.16" r="8.45"/><path class="cls-4" d="M119.74,252.05a31.29,31.29,0,1,0,21.45,38.71A31.3,31.3,0,0,0,119.74,252.05ZM99,303.52l-.11-.06A24.58,24.58,0,0,1,86.72,279.7l10.88,4.37a13.64,13.64,0,0,0,11,11.57l1.64,11.09A24.39,24.39,0,0,1,99,303.52Zm5.26-33.22a13.7,13.7,0,0,0-3.51,2.92l-10.43-4.13a24.44,24.44,0,0,1,8.4-8.13l.11-.06a24.55,24.55,0,0,1,26.65,1.35l-9.22,7.23A13.66,13.66,0,0,0,104.25,270.3Zm17,34.23-1.65-11.6a13.63,13.63,0,0,0,4.52-15.3l8.78-7A24.5,24.5,0,0,1,135.71,282v.13A24.58,24.58,0,0,1,121.21,304.53Z"/><circle class="cls-4" cx="111.3" cy="282.13" r="13.7"/><circle class="cls-4" cx="111.36" cy="282.16" r="8.45"/><polygon class="cls-3" points="221.69 264.94 233.19 267.75 233.67 256.44 226.48 254.69 221.69 264.94"/><polygon class="cls-3" points="204.75 269.06 215.95 265.2 210.24 255.43 203.24 257.84 204.75 269.06"/><polygon class="cls-3" points="192.73 281.68 200.06 272.38 189.98 267.25 185.39 273.06 192.73 281.68"/><polygon class="cls-3" points="189.44 298.79 190.59 287.01 179.32 288.14 178.61 295.51 189.44 298.79"/><polygon class="cls-3" points="195.92 314.97 190.52 304.44 181.66 311.48 185.04 318.06 195.92 314.97"/><polygon class="cls-3" points="210.13 325.07 199.88 319.13 196.24 329.85 202.64 333.56 210.13 325.07"/><polygon class="cls-3" points="227.53 325.89 215.71 326.44 218.43 337.42 225.83 337.08 227.53 325.89"/><polygon class="cls-3" points="242.63 317.17 232.97 324.02 241.2 331.79 247.24 327.51 242.63 317.17"/><polygon class="cls-3" points="250.6 301.68 246.19 312.66 257.31 314.75 260.07 307.88 250.6 301.68"/><polygon class="cls-3" points="248.94 284.33 251.16 295.96 261.65 291.69 260.26 284.43 248.94 284.33"/><polygon class="cls-3" points="238.16 270.63 246.31 279.22 252.83 269.96 247.74 264.6 238.16 270.63"/><polygon class="cls-3" points="221.69 264.94 233.19 267.75 233.67 256.44 226.48 254.69 221.69 264.94"/><polygon class="cls-3" points="204.75 269.06 215.95 265.2 210.24 255.43 203.24 257.84 204.75 269.06"/><polygon class="cls-3" points="192.73 281.68 200.06 272.38 189.98 267.25 185.39 273.06 192.73 281.68"/><polygon class="cls-3" points="189.44 298.79 190.59 287.01 179.32 288.14 178.61 295.51 189.44 298.79"/><polygon class="cls-3" points="195.92 314.97 190.52 304.44 181.66 311.48 185.04 318.06 195.92 314.97"/><polygon class="cls-3" points="210.13 325.07 199.88 319.13 196.24 329.85 202.64 333.56 210.13 325.07"/><polygon class="cls-3" points="227.53 325.89 215.71 326.44 218.43 337.42 225.83 337.08 227.53 325.89"/><polygon class="cls-3" points="242.63 317.17 232.97 324.02 241.2 331.79 247.24 327.51 242.63 317.17"/><polygon class="cls-3" points="250.6 301.68 246.19 312.66 257.31 314.75 260.07 307.88 250.6 301.68"/><polygon class="cls-3" points="248.94 284.33 251.16 295.96 261.65 291.69 260.26 284.43 248.94 284.33"/><polygon class="cls-3" points="238.16 270.63 246.31 279.22 252.83 269.96 247.74 264.6 238.16 270.63"/><circle class="cls-3" cx="220.23" cy="295.84" r="8.45"/><circle class="cls-3" cx="220.23" cy="295.84" r="13.7"/><line class="cls-3" x1="231.17" y1="317.82" x2="229.1" y2="306.27"/><line class="cls-3" x1="232.98" y1="290.82" x2="241.47" y2="283.52"/><circle class="cls-3" cx="220.24" cy="295.9" r="8.45"/><circle class="cls-3" cx="220.29" cy="295.86" r="8.45"/><path class="cls-3" d="M227.66,265.44a31.29,31.29,0,1,0,23,37.83A31.3,31.3,0,0,0,227.66,265.44ZM209,317.69l-.11-.06a24.56,24.56,0,0,1-13.09-23.25l11,3.94a13.66,13.66,0,0,0,7.1,9.7,13.46,13.46,0,0,0,4.34,1.41l2.08,11A24.44,24.44,0,0,1,209,317.69Zm3.94-33.4a13.61,13.61,0,0,0-3.39,3l-10.58-3.71a24.46,24.46,0,0,1,8.07-8.45l.11-.07a24.55,24.55,0,0,1,26.68.29L224.86,283A13.66,13.66,0,0,0,212.9,284.29Zm18.31,33.53-2.11-11.53a13.68,13.68,0,0,0,4.86-11,14,14,0,0,0-1-4.46l8.5-7.31a24.31,24.31,0,0,1,3.29,11.21v.13A24.55,24.55,0,0,1,231.21,317.82Z"/><circle class="cls-3" cx="220.42" cy="295.83" r="13.7"/><circle class="cls-3" cx="220.48" cy="295.85" r="8.45"/><polygon class="cls-4" points="332.35 235.6 343.73 238.86 344.66 227.58 337.55 225.54 332.35 235.6"/><polygon class="cls-4" points="315.26 239.04 326.6 235.63 321.29 225.64 314.2 227.77 315.26 239.04"/><polygon class="cls-4" points="302.75 251.17 310.45 242.18 300.57 236.65 295.76 242.27 302.75 251.17"/><polygon class="cls-4" points="298.79 268.14 300.4 256.42 289.1 257.1 288.09 264.44 298.79 268.14"/><polygon class="cls-4" points="304.63 284.57 299.64 273.83 290.51 280.51 293.62 287.23 304.63 284.57"/><polygon class="cls-4" points="318.42 295.23 308.42 288.89 304.35 299.45 310.6 303.41 318.42 295.23"/><polygon class="cls-4" points="335.78 296.74 323.94 296.81 326.23 307.89 333.63 307.85 335.78 296.74"/><polygon class="cls-4" points="351.2 288.62 341.28 295.08 349.2 303.17 355.4 299.13 351.2 288.62"/><polygon class="cls-4" points="359.79 273.45 354.94 284.25 365.97 286.78 369 280.03 359.79 273.45"/><polygon class="cls-4" points="358.81 256.05 360.57 267.76 371.22 263.92 370.12 256.6 358.81 256.05"/><polygon class="cls-4" points="348.58 241.94 356.39 250.84 363.27 241.85 358.39 236.29 348.58 241.94"/><polygon class="cls-4" points="332.35 235.6 343.73 238.86 344.66 227.58 337.55 225.54 332.35 235.6"/><polygon class="cls-4" points="315.26 239.04 326.6 235.63 321.29 225.64 314.2 227.77 315.26 239.04"/><polygon class="cls-4" points="302.75 251.17 310.45 242.18 300.57 236.65 295.76 242.27 302.75 251.17"/><polygon class="cls-4" points="298.79 268.14 300.4 256.42 289.1 257.1 288.09 264.44 298.79 268.14"/><polygon class="cls-4" points="304.63 284.57 299.64 273.83 290.51 280.51 293.62 287.23 304.63 284.57"/><polygon class="cls-4" points="318.42 295.23 308.42 288.89 304.35 299.45 310.6 303.41 318.42 295.23"/><polygon class="cls-4" points="335.78 296.74 323.94 296.81 326.23 307.89 333.63 307.85 335.78 296.74"/><polygon class="cls-4" points="351.2 288.62 341.28 295.08 349.2 303.17 355.4 299.13 351.2 288.62"/><polygon class="cls-4" points="359.79 273.45 354.94 284.25 365.97 286.78 369 280.03 359.79 273.45"/><polygon class="cls-4" points="358.81 256.05 360.57 267.76 371.22 263.92 370.12 256.6 358.81 256.05"/><polygon class="cls-4" points="348.58 241.94 356.39 250.84 363.27 241.85 358.39 236.29 348.58 241.94"/><circle class="cls-4" cx="329.67" cy="266.41" r="8.45"/><circle class="cls-4" cx="329.67" cy="266.41" r="13.7"/><line class="cls-4" x1="339.73" y1="288.81" x2="338.12" y2="277.19"/><line class="cls-4" x1="342.61" y1="261.91" x2="351.39" y2="254.95"/><circle class="cls-4" cx="329.68" cy="266.48" r="8.45"/><circle class="cls-4" cx="329.73" cy="266.44" r="8.45"/><path class="cls-4" d="M338.3,236.33A31.29,31.29,0,1,0,359.75,275,31.3,31.3,0,0,0,338.3,236.33ZM317.55,287.8l-.12-.06A24.56,24.56,0,0,1,305.28,264l10.87,4.37a13.62,13.62,0,0,0,11,11.56L328.78,291A24.36,24.36,0,0,1,317.55,287.8Zm5.26-33.22a13.53,13.53,0,0,0-3.51,2.92l-10.43-4.13a24.41,24.41,0,0,1,8.4-8.12l.11-.07A24.57,24.57,0,0,1,344,246.53l-9.23,7.23A13.67,13.67,0,0,0,322.81,254.58Zm17,34.23-1.65-11.6a13.63,13.63,0,0,0,4.52-15.3l8.78-7a24.33,24.33,0,0,1,2.84,11.33v.13A24.55,24.55,0,0,1,339.77,288.81Z"/><circle class="cls-4" cx="329.86" cy="266.41" r="13.7"/><circle class="cls-4" cx="329.92" cy="266.44" r="8.45"/><circle class="cls-5" cx="101.79" cy="131.06" r="89.83"/><circle class="cls-5" cx="101.79" cy="131.06" r="89.83"/><circle class="cls-5" cx="101.79" cy="131.06" r="89.83"/><circle class="cls-5" cx="101.79" cy="131.06" r="89.83"/><circle class="cls-5" cx="101.79" cy="131.06" r="89.83"/><circle class="cls-5" cx="101.79" cy="131.06" r="89.83"/><circle class="cls-5" cx="101.79" cy="131.06" r="89.83"/><circle class="cls-5" cx="101.79" cy="131.06" r="89.83"/><circle class="cls-5" cx="101.79" cy="131.06" r="89.83"/><circle class="cls-5" cx="101.79" cy="131.06" r="89.83"/><circle class="cls-5" cx="101.79" cy="131.06" r="89.83"/><circle class="cls-5" cx="101.79" cy="131.06" r="89.83"/><circle class="cls-5" cx="101.79" cy="131.06" r="89.83"/><circle class="cls-5" cx="101.79" cy="131.06" r="89.83"/><circle class="cls-5" cx="101.79" cy="131.06" r="89.83"/><circle class="cls-5" cx="101.79" cy="131.06" r="89.83"/><circle class="cls-5" cx="101.79" cy="131.06" r="89.83"/><circle class="cls-5" cx="101.79" cy="131.06" r="89.83"/><circle class="cls-5" cx="101.79" cy="131.06" r="89.83"/><circle class="cls-5" cx="101.79" cy="131.06" r="89.83"/><circle class="cls-5" cx="101.79" cy="131.06" r="89.83"/><circle class="cls-5" cx="101.79" cy="131.06" r="89.83"/><circle class="cls-5" cx="101.79" cy="131.06" r="89.83"/><circle class="cls-5" cx="101.79" cy="131.06" r="89.83"/><circle class="cls-5" cx="101.79" cy="131.06" r="89.83"/><circle class="cls-5" cx="101.79" cy="131.06" r="89.83"/><circle class="cls-5" cx="101.77" cy="131.16" r="89.83"/><circle class="cls-5" cx="101.77" cy="131.16" r="89.83"/><circle class="cls-5" cx="101.77" cy="131.16" r="89.83"/><circle class="cls-5" cx="101.77" cy="131.16" r="89.83"/><circle class="cls-5" cx="101.77" cy="131.16" r="89.83"/><circle class="cls-5" cx="101.77" cy="131.16" r="89.83"/><circle class="cls-5" cx="101.77" cy="131.16" r="89.83"/><circle class="cls-5" cx="101.77" cy="131.16" r="89.83"/><circle class="cls-5" cx="101.77" cy="131.16" r="89.83"/><circle class="cls-5" cx="101.77" cy="131.16" r="89.83"/><circle class="cls-5" cx="101.77" cy="131.16" r="89.83"/><circle class="cls-5" cx="101.77" cy="131.16" r="89.83"/><circle class="cls-5" cx="101.77" cy="131.16" r="89.83"/><circle class="cls-5" cx="101.77" cy="131.16" r="89.83"/><circle class="cls-5" cx="101.77" cy="131.16" r="89.83"/><circle class="cls-5" cx="101.77" cy="131.16" r="89.83"/><circle class="cls-5" cx="101.77" cy="131.16" r="89.83"/><circle class="cls-5" cx="101.77" cy="131.16" r="89.83"/><circle class="cls-5" cx="101.77" cy="131.16" r="89.83"/><circle class="cls-5" cx="101.77" cy="131.16" r="89.83"/><circle class="cls-5" cx="101.77" cy="131.16" r="89.83"/><circle class="cls-5" cx="101.77" cy="131.16" r="89.83"/><circle class="cls-5" cx="101.77" cy="131.16" r="89.83"/><circle class="cls-5" cx="101.77" cy="131.16" r="89.83"/><circle class="cls-5" cx="101.77" cy="131.16" r="89.83"/><circle class="cls-5" cx="101.77" cy="131.16" r="89.83"/><circle class="cls-5" cx="101.77" cy="131.25" r="89.83"/><circle class="cls-5" cx="101.77" cy="131.25" r="89.83"/><circle class="cls-5" cx="101.77" cy="131.25" r="89.83"/><circle class="cls-5" cx="101.77" cy="131.25" r="89.83"/><circle class="cls-5" cx="101.77" cy="131.25" r="89.83"/><circle class="cls-5" cx="101.77" cy="131.25" r="89.83"/><circle class="cls-5" cx="101.77" cy="131.25" r="89.83"/><circle class="cls-5" cx="101.77" cy="131.25" r="89.83"/><circle class="cls-5" cx="101.77" cy="131.25" r="89.83"/><circle class="cls-5" cx="101.77" cy="131.25" r="89.83"/><circle class="cls-5" cx="101.77" cy="131.25" r="89.83"/><circle class="cls-5" cx="101.77" cy="131.25" r="89.83"/><circle class="cls-5" cx="101.77" cy="131.25" r="89.83"/><circle class="cls-5" cx="101.77" cy="131.25" r="89.83"/><circle class="cls-5" cx="101.77" cy="131.25" r="89.83"/><circle class="cls-5" cx="101.77" cy="131.25" r="89.83"/><circle class="cls-5" cx="101.77" cy="131.25" r="89.83"/><circle class="cls-5" cx="101.77" cy="131.25" r="89.83"/><circle class="cls-5" cx="101.77" cy="131.25" r="89.83"/><circle class="cls-5" cx="101.77" cy="131.25" r="89.83"/><circle class="cls-5" cx="101.77" cy="131.25" r="89.83"/><circle class="cls-5" cx="101.77" cy="131.25" r="89.83"/><circle class="cls-5" cx="101.77" cy="131.25" r="89.83"/><circle class="cls-5" cx="101.77" cy="131.25" r="89.83"/><circle class="cls-5" cx="101.77" cy="131.25" r="89.83"/><circle class="cls-5" cx="101.77" cy="131.25" r="89.83"/><circle class="cls-5" cx="101.79" cy="131.34" r="89.83"/><circle class="cls-5" cx="101.79" cy="131.34" r="89.83"/><circle class="cls-5" cx="101.79" cy="131.34" r="89.83"/><circle class="cls-5" cx="101.79" cy="131.34" r="89.83"/><circle class="cls-5" cx="101.79" cy="131.34" r="89.83"/><circle class="cls-5" cx="101.79" cy="131.34" r="89.83"/><circle class="cls-5" cx="101.79" cy="131.34" r="89.83"/><circle class="cls-5" cx="101.79" cy="131.34" r="89.83"/><circle class="cls-5" cx="101.79" cy="131.34" r="89.83"/><circle class="cls-5" cx="101.79" cy="131.34" r="89.83"/><circle class="cls-5" cx="101.79" cy="131.34" r="89.83"/><circle class="cls-5" cx="101.79" cy="131.34" r="89.83"/><circle class="cls-5" cx="101.79" cy="131.34" r="89.83"/><circle class="cls-5" cx="101.79" cy="131.34" r="89.83"/><circle class="cls-5" cx="101.79" cy="131.34" r="89.83"/><circle class="cls-5" cx="101.79" cy="131.34" r="89.83"/><circle class="cls-5" cx="101.79" cy="131.34" r="89.83"/><circle class="cls-5" cx="101.79" cy="131.34" r="89.83"/><circle class="cls-5" cx="101.79" cy="131.34" r="89.83"/><circle class="cls-5" cx="101.79" cy="131.34" r="89.83"/><circle class="cls-5" cx="101.79" cy="131.34" r="89.83"/><circle class="cls-5" cx="101.79" cy="131.34" r="89.83"/><circle class="cls-5" cx="101.79" cy="131.34" r="89.83"/><circle class="cls-5" cx="101.79" cy="131.34" r="89.83"/><circle class="cls-5" cx="101.79" cy="131.34" r="89.83"/><circle class="cls-5" cx="101.79" cy="131.34" r="89.83"/><circle class="cls-5" cx="101.84" cy="131.42" r="89.83"/><circle class="cls-5" cx="101.84" cy="131.42" r="89.83"/><circle class="cls-5" cx="101.84" cy="131.42" r="89.83"/><circle class="cls-5" cx="101.84" cy="131.42" r="89.83"/><circle class="cls-5" cx="101.84" cy="131.42" r="89.83"/><circle class="cls-5" cx="101.84" cy="131.42" r="89.83"/><circle class="cls-5" cx="101.84" cy="131.42" r="89.83"/><circle class="cls-5" cx="101.84" cy="131.42" r="89.83"/><circle class="cls-5" cx="101.84" cy="131.42" r="89.83"/><circle class="cls-5" cx="101.84" cy="131.42" r="89.83"/><circle class="cls-5" cx="101.84" cy="131.42" r="89.83"/><circle class="cls-5" cx="101.84" cy="131.42" r="89.83"/><circle class="cls-5" cx="101.84" cy="131.42" r="89.83"/><circle class="cls-5" cx="101.84" cy="131.42" r="89.83"/><circle class="cls-5" cx="101.84" cy="131.42" r="89.83"/><circle class="cls-5" cx="101.84" cy="131.42" r="89.83"/><circle class="cls-5" cx="101.84" cy="131.42" r="89.83"/><circle class="cls-5" cx="101.84" cy="131.42" r="89.83"/><circle class="cls-5" cx="101.84" cy="131.42" r="89.83"/><circle class="cls-5" cx="101.84" cy="131.42" r="89.83"/><circle class="cls-5" cx="101.84" cy="131.42" r="89.83"/><circle class="cls-5" cx="101.84" cy="131.42" r="89.83"/><circle class="cls-5" cx="101.84" cy="131.42" r="89.83"/><circle class="cls-5" cx="101.84" cy="131.42" r="89.83"/><circle class="cls-5" cx="101.84" cy="131.42" r="89.83"/><circle class="cls-5" cx="101.84" cy="131.42" r="89.83"/><circle class="cls-5" cx="101.91" cy="131.48" r="89.83"/><circle class="cls-5" cx="101.91" cy="131.48" r="89.83"/><circle class="cls-5" cx="101.91" cy="131.48" r="89.83"/><circle class="cls-5" cx="101.91" cy="131.48" r="89.83"/><circle class="cls-5" cx="101.91" cy="131.48" r="89.83"/><circle class="cls-5" cx="101.91" cy="131.48" r="89.83"/><circle class="cls-5" cx="101.91" cy="131.48" r="89.83"/><circle class="cls-5" cx="101.91" cy="131.48" r="89.83"/><circle class="cls-5" cx="101.91" cy="131.48" r="89.83"/><circle class="cls-5" cx="101.91" cy="131.48" r="89.83"/><circle class="cls-5" cx="101.91" cy="131.48" r="89.83"/><circle class="cls-5" cx="101.91" cy="131.48" r="89.83"/><circle class="cls-5" cx="101.91" cy="131.48" r="89.83"/><circle class="cls-5" cx="101.91" cy="131.48" r="89.83"/><circle class="cls-5" cx="101.91" cy="131.48" r="89.83"/><circle class="cls-5" cx="101.91" cy="131.48" r="89.83"/><circle class="cls-5" cx="101.91" cy="131.48" r="89.83"/><circle class="cls-5" cx="101.91" cy="131.48" r="89.83"/><circle class="cls-5" cx="101.91" cy="131.48" r="89.83"/><circle class="cls-5" cx="101.91" cy="131.48" r="89.83"/><circle class="cls-5" cx="101.91" cy="131.48" r="89.83"/><circle class="cls-5" cx="101.91" cy="131.48" r="89.83"/><circle class="cls-5" cx="101.91" cy="131.48" r="89.83"/><circle class="cls-5" cx="101.91" cy="131.48" r="89.83"/><circle class="cls-5" cx="101.91" cy="131.48" r="89.83"/><circle class="cls-5" cx="101.91" cy="131.48" r="89.83"/><circle class="cls-5" cx="102" cy="131.52" r="89.83"/><circle class="cls-5" cx="102" cy="131.52" r="89.83"/><circle class="cls-5" cx="102" cy="131.52" r="89.83"/><circle class="cls-5" cx="102" cy="131.52" r="89.83"/><circle class="cls-5" cx="102" cy="131.52" r="89.83"/><circle class="cls-5" cx="102" cy="131.52" r="89.83"/><circle class="cls-5" cx="102" cy="131.52" r="89.83"/><circle class="cls-5" cx="102" cy="131.52" r="89.83"/><circle class="cls-5" cx="102" cy="131.52" r="89.83"/><circle class="cls-5" cx="102" cy="131.52" r="89.83"/><circle class="cls-5" cx="102" cy="131.52" r="89.83"/><circle class="cls-5" cx="102" cy="131.52" r="89.83"/><circle class="cls-5" cx="102" cy="131.52" r="89.83"/><circle class="cls-5" cx="102" cy="131.52" r="89.83"/><circle class="cls-5" cx="102" cy="131.52" r="89.83"/><circle class="cls-5" cx="102" cy="131.52" r="89.83"/><circle class="cls-5" cx="102" cy="131.52" r="89.83"/><circle class="cls-5" cx="102" cy="131.52" r="89.83"/><circle class="cls-5" cx="102" cy="131.52" r="89.83"/><circle class="cls-5" cx="102" cy="131.52" r="89.83"/><circle class="cls-5" cx="102" cy="131.52" r="89.83"/><circle class="cls-5" cx="102" cy="131.52" r="89.83"/><circle class="cls-5" cx="102" cy="131.52" r="89.83"/><circle class="cls-5" cx="102" cy="131.52" r="89.83"/><circle class="cls-5" cx="102" cy="131.52" r="89.83"/><circle class="cls-5" cx="102" cy="131.52" r="89.83"/><circle class="cls-5" cx="102.09" cy="131.54" r="89.83"/><circle class="cls-5" cx="102.09" cy="131.54" r="89.83"/><circle class="cls-5" cx="102.09" cy="131.54" r="89.83"/><circle class="cls-5" cx="102.09" cy="131.54" r="89.83"/><circle class="cls-5" cx="102.09" cy="131.54" r="89.83"/><circle class="cls-5" cx="102.09" cy="131.54" r="89.83"/><circle class="cls-5" cx="102.09" cy="131.54" r="89.83"/><circle class="cls-5" cx="102.09" cy="131.54" r="89.83"/><circle class="cls-5" cx="102.09" cy="131.54" r="89.83"/><circle class="cls-5" cx="102.09" cy="131.54" r="89.83"/><circle class="cls-5" cx="102.09" cy="131.54" r="89.83"/><circle class="cls-5" cx="102.09" cy="131.54" r="89.83"/><circle class="cls-5" cx="102.09" cy="131.54" r="89.83"/><circle class="cls-5" cx="102.09" cy="131.54" r="89.83"/><circle class="cls-5" cx="102.09" cy="131.54" r="89.83"/><circle class="cls-5" cx="102.09" cy="131.54" r="89.83"/><circle class="cls-5" cx="102.09" cy="131.54" r="89.83"/><circle class="cls-5" cx="102.09" cy="131.54" r="89.83"/><circle class="cls-5" cx="102.09" cy="131.54" r="89.83"/><circle class="cls-5" cx="102.09" cy="131.54" r="89.83"/><circle class="cls-5" cx="102.09" cy="131.54" r="89.83"/><circle class="cls-5" cx="102.09" cy="131.54" r="89.83"/><circle class="cls-5" cx="102.09" cy="131.54" r="89.83"/><circle class="cls-5" cx="102.09" cy="131.54" r="89.83"/><circle class="cls-5" cx="102.09" cy="131.54" r="89.83"/><circle class="cls-5" cx="102.09" cy="131.54" r="89.83"/><circle class="cls-5" cx="102.18" cy="131.53" r="89.83"/><circle class="cls-5" cx="102.18" cy="131.53" r="89.83"/><circle class="cls-5" cx="102.18" cy="131.53" r="89.83"/><circle class="cls-5" cx="102.18" cy="131.53" r="89.83"/><circle class="cls-5" cx="102.18" cy="131.53" r="89.83"/><circle class="cls-5" cx="102.18" cy="131.53" r="89.83"/><circle class="cls-5" cx="102.18" cy="131.53" r="89.83"/><circle class="cls-5" cx="102.18" cy="131.53" r="89.83"/><circle class="cls-5" cx="102.18" cy="131.53" r="89.83"/><circle class="cls-5" cx="102.18" cy="131.53" r="89.83"/><circle class="cls-5" cx="102.18" cy="131.53" r="89.83"/><circle class="cls-5" cx="102.18" cy="131.53" r="89.83"/><circle class="cls-5" cx="102.18" cy="131.53" r="89.83"/><circle class="cls-5" cx="102.18" cy="131.53" r="89.83"/><circle class="cls-5" cx="102.18" cy="131.53" r="89.83"/><circle class="cls-5" cx="102.18" cy="131.53" r="89.83"/><circle class="cls-5" cx="102.18" cy="131.53" r="89.83"/><circle class="cls-5" cx="102.18" cy="131.53" r="89.83"/><circle class="cls-5" cx="102.18" cy="131.53" r="89.83"/><circle class="cls-5" cx="102.18" cy="131.53" r="89.83"/><circle class="cls-5" cx="102.18" cy="131.53" r="89.83"/><circle class="cls-5" cx="102.18" cy="131.53" r="89.83"/><circle class="cls-5" cx="102.18" cy="131.53" r="89.83"/><circle class="cls-5" cx="102.18" cy="131.53" r="89.83"/><circle class="cls-5" cx="102.18" cy="131.53" r="89.83"/><circle class="cls-5" cx="102.18" cy="131.53" r="89.83"/><circle class="cls-5" cx="102.27" cy="131.5" r="89.83"/><circle class="cls-5" cx="102.27" cy="131.5" r="89.83"/><circle class="cls-5" cx="102.27" cy="131.5" r="89.83"/><circle class="cls-5" cx="102.27" cy="131.5" r="89.83"/><circle class="cls-5" cx="102.27" cy="131.5" r="89.83"/><circle class="cls-5" cx="102.27" cy="131.5" r="89.83"/><circle class="cls-5" cx="102.27" cy="131.5" r="89.83"/><circle class="cls-5" cx="102.27" cy="131.5" r="89.83"/><circle class="cls-5" cx="102.27" cy="131.5" r="89.83"/><circle class="cls-5" cx="102.27" cy="131.5" r="89.83"/><circle class="cls-5" cx="102.27" cy="131.5" r="89.83"/><circle class="cls-5" cx="102.27" cy="131.5" r="89.83"/><circle class="cls-5" cx="102.27" cy="131.5" r="89.83"/><circle class="cls-5" cx="102.27" cy="131.5" r="89.83"/><circle class="cls-5" cx="102.27" cy="131.5" r="89.83"/><circle class="cls-5" cx="102.27" cy="131.5" r="89.83"/><circle class="cls-5" cx="102.27" cy="131.5" r="89.83"/><circle class="cls-5" cx="102.27" cy="131.5" r="89.83"/><circle class="cls-5" cx="102.27" cy="131.5" r="89.83"/><circle class="cls-5" cx="102.27" cy="131.5" r="89.83"/><circle class="cls-5" cx="102.27" cy="131.5" r="89.83"/><circle class="cls-5" cx="102.27" cy="131.5" r="89.83"/><circle class="cls-5" cx="102.27" cy="131.5" r="89.83"/><circle class="cls-5" cx="102.27" cy="131.5" r="89.83"/><circle class="cls-5" cx="102.27" cy="131.5" r="89.83"/><circle class="cls-5" cx="102.27" cy="131.5" r="89.83"/><circle class="cls-5" cx="102.35" cy="131.44" r="89.83"/><circle class="cls-5" cx="102.35" cy="131.44" r="89.83"/><circle class="cls-5" cx="102.35" cy="131.44" r="89.83"/><circle class="cls-5" cx="102.35" cy="131.44" r="89.83"/><circle class="cls-5" cx="102.35" cy="131.44" r="89.83"/><circle class="cls-5" cx="102.35" cy="131.44" r="89.83"/><circle class="cls-5" cx="102.35" cy="131.44" r="89.83"/><circle class="cls-5" cx="102.35" cy="131.44" r="89.83"/><circle class="cls-5" cx="102.35" cy="131.44" r="89.83"/><circle class="cls-5" cx="102.35" cy="131.44" r="89.83"/><circle class="cls-5" cx="102.35" cy="131.44" r="89.83"/><circle class="cls-5" cx="102.35" cy="131.44" r="89.83"/><circle class="cls-5" cx="102.35" cy="131.44" r="89.83"/><circle class="cls-5" cx="102.35" cy="131.44" r="89.83"/><circle class="cls-5" cx="102.35" cy="131.44" r="89.83"/><circle class="cls-5" cx="102.35" cy="131.44" r="89.83"/><circle class="cls-5" cx="102.35" cy="131.44" r="89.83"/><circle class="cls-5" cx="102.35" cy="131.44" r="89.83"/><circle class="cls-5" cx="102.35" cy="131.44" r="89.83"/><circle class="cls-5" cx="102.35" cy="131.44" r="89.83"/><circle class="cls-5" cx="102.35" cy="131.44" r="89.83"/><circle class="cls-5" cx="102.35" cy="131.44" r="89.83"/><circle class="cls-5" cx="102.35" cy="131.44" r="89.83"/><circle class="cls-5" cx="102.35" cy="131.44" r="89.83"/><circle class="cls-5" cx="102.35" cy="131.44" r="89.83"/><circle class="cls-5" cx="102.35" cy="131.44" r="89.83"/><circle class="cls-5" cx="102.4" cy="131.37" r="89.83"/><circle class="cls-5" cx="102.4" cy="131.37" r="89.83"/><circle class="cls-5" cx="102.4" cy="131.37" r="89.83"/><circle class="cls-5" cx="102.4" cy="131.37" r="89.83"/><circle class="cls-5" cx="102.4" cy="131.37" r="89.83"/><circle class="cls-5" cx="102.4" cy="131.37" r="89.83"/><circle class="cls-5" cx="102.4" cy="131.37" r="89.83"/><circle class="cls-5" cx="102.4" cy="131.37" r="89.83"/><circle class="cls-5" cx="102.4" cy="131.37" r="89.83"/><circle class="cls-5" cx="102.4" cy="131.37" r="89.83"/><circle class="cls-5" cx="102.4" cy="131.37" r="89.83"/><circle class="cls-5" cx="102.4" cy="131.37" r="89.83"/><circle class="cls-5" cx="102.4" cy="131.37" r="89.83"/><circle class="cls-5" cx="102.4" cy="131.37" r="89.83"/><circle class="cls-5" cx="102.4" cy="131.37" r="89.83"/><circle class="cls-5" cx="102.4" cy="131.37" r="89.83"/><circle class="cls-5" cx="102.4" cy="131.37" r="89.83"/><circle class="cls-5" cx="102.4" cy="131.37" r="89.83"/><circle class="cls-5" cx="102.4" cy="131.37" r="89.83"/><circle class="cls-5" cx="102.4" cy="131.37" r="89.83"/><circle class="cls-5" cx="102.4" cy="131.37" r="89.83"/><circle class="cls-5" cx="102.4" cy="131.37" r="89.83"/><circle class="cls-5" cx="102.4" cy="131.37" r="89.83"/><circle class="cls-5" cx="102.4" cy="131.37" r="89.83"/><circle class="cls-5" cx="102.4" cy="131.37" r="89.83"/><circle class="cls-5" cx="102.4" cy="131.37" r="89.83"/><circle class="cls-5" cx="102.44" cy="131.28" r="89.83"/><circle class="cls-5" cx="102.44" cy="131.28" r="89.83"/><circle class="cls-5" cx="102.44" cy="131.28" r="89.83"/><circle class="cls-5" cx="102.44" cy="131.28" r="89.83"/><circle class="cls-5" cx="102.44" cy="131.28" r="89.83"/><circle class="cls-5" cx="102.44" cy="131.28" r="89.83"/><circle class="cls-5" cx="102.44" cy="131.28" r="89.83"/><circle class="cls-5" cx="102.44" cy="131.28" r="89.83"/><circle class="cls-5" cx="102.44" cy="131.28" r="89.83"/><circle class="cls-5" cx="102.44" cy="131.28" r="89.83"/><circle class="cls-5" cx="102.44" cy="131.28" r="89.83"/><circle class="cls-5" cx="102.44" cy="131.28" r="89.83"/><circle class="cls-5" cx="102.44" cy="131.28" r="89.83"/><circle class="cls-5" cx="102.44" cy="131.28" r="89.83"/><circle class="cls-5" cx="102.44" cy="131.28" r="89.83"/><circle class="cls-5" cx="102.44" cy="131.28" r="89.83"/><circle class="cls-5" cx="102.44" cy="131.28" r="89.83"/><circle class="cls-5" cx="102.44" cy="131.28" r="89.83"/><circle class="cls-5" cx="102.44" cy="131.28" r="89.83"/><circle class="cls-5" cx="102.44" cy="131.28" r="89.83"/><circle class="cls-5" cx="102.44" cy="131.28" r="89.83"/><circle class="cls-5" cx="102.44" cy="131.28" r="89.83"/><circle class="cls-5" cx="102.44" cy="131.28" r="89.83"/><circle class="cls-5" cx="102.44" cy="131.28" r="89.83"/><circle class="cls-5" cx="102.44" cy="131.28" r="89.83"/><circle class="cls-5" cx="102.44" cy="131.28" r="89.83"/><circle class="cls-5" cx="102.45" cy="131.19" r="89.83"/><circle class="cls-5" cx="102.45" cy="131.19" r="89.83"/><circle class="cls-5" cx="102.45" cy="131.19" r="89.83"/><circle class="cls-5" cx="102.45" cy="131.19" r="89.83"/><circle class="cls-5" cx="102.45" cy="131.19" r="89.83"/><circle class="cls-5" cx="102.45" cy="131.19" r="89.83"/><circle class="cls-5" cx="102.45" cy="131.19" r="89.83"/><circle class="cls-5" cx="102.45" cy="131.19" r="89.83"/><circle class="cls-5" cx="102.45" cy="131.19" r="89.83"/><circle class="cls-5" cx="102.45" cy="131.19" r="89.83"/><circle class="cls-5" cx="102.45" cy="131.19" r="89.83"/><circle class="cls-5" cx="102.45" cy="131.19" r="89.83"/><circle class="cls-5" cx="102.45" cy="131.19" r="89.83"/><circle class="cls-5" cx="102.45" cy="131.19" r="89.83"/><circle class="cls-5" cx="102.45" cy="131.19" r="89.83"/><circle class="cls-5" cx="102.45" cy="131.19" r="89.83"/><circle class="cls-5" cx="102.45" cy="131.19" r="89.83"/><circle class="cls-5" cx="102.45" cy="131.19" r="89.83"/><circle class="cls-5" cx="102.45" cy="131.19" r="89.83"/><circle class="cls-5" cx="102.45" cy="131.19" r="89.83"/><circle class="cls-5" cx="102.45" cy="131.19" r="89.83"/><circle class="cls-5" cx="102.45" cy="131.19" r="89.83"/><circle class="cls-5" cx="102.45" cy="131.19" r="89.83"/><circle class="cls-5" cx="102.45" cy="131.19" r="89.83"/><circle class="cls-5" cx="102.45" cy="131.19" r="89.83"/><circle class="cls-5" cx="102.45" cy="131.19" r="89.83"/><circle class="cls-5" cx="102.44" cy="131.1" r="89.83"/><circle class="cls-5" cx="102.44" cy="131.1" r="89.83"/><circle class="cls-5" cx="102.44" cy="131.1" r="89.83"/><circle class="cls-5" cx="102.44" cy="131.1" r="89.83"/><circle class="cls-5" cx="102.44" cy="131.1" r="89.83"/><circle class="cls-5" cx="102.44" cy="131.1" r="89.83"/><circle class="cls-5" cx="102.44" cy="131.1" r="89.83"/><circle class="cls-5" cx="102.44" cy="131.1" r="89.83"/><circle class="cls-5" cx="102.44" cy="131.1" r="89.83"/><circle class="cls-5" cx="102.44" cy="131.1" r="89.83"/><circle class="cls-5" cx="102.44" cy="131.1" r="89.83"/><circle class="cls-5" cx="102.44" cy="131.1" r="89.83"/><circle class="cls-5" cx="102.44" cy="131.1" r="89.83"/><circle class="cls-5" cx="102.44" cy="131.1" r="89.83"/><circle class="cls-5" cx="102.44" cy="131.1" r="89.83"/><circle class="cls-5" cx="102.44" cy="131.1" r="89.83"/><circle class="cls-5" cx="102.44" cy="131.1" r="89.83"/><circle class="cls-5" cx="102.44" cy="131.1" r="89.83"/><circle class="cls-5" cx="102.44" cy="131.1" r="89.83"/><circle class="cls-5" cx="102.44" cy="131.1" r="89.83"/><circle class="cls-5" cx="102.44" cy="131.1" r="89.83"/><circle class="cls-5" cx="102.44" cy="131.1" r="89.83"/><circle class="cls-5" cx="102.44" cy="131.1" r="89.83"/><circle class="cls-5" cx="102.44" cy="131.1" r="89.83"/><circle class="cls-5" cx="102.44" cy="131.1" r="89.83"/><circle class="cls-5" cx="102.44" cy="131.1" r="89.83"/><circle class="cls-5" cx="102.4" cy="131.01" r="89.83"/><circle class="cls-5" cx="102.4" cy="131.01" r="89.83"/><circle class="cls-5" cx="102.4" cy="131.01" r="89.83"/><circle class="cls-5" cx="102.4" cy="131.01" r="89.83"/><circle class="cls-5" cx="102.4" cy="131.01" r="89.83"/><circle class="cls-5" cx="102.4" cy="131.01" r="89.83"/><circle class="cls-5" cx="102.4" cy="131.01" r="89.83"/><circle class="cls-5" cx="102.4" cy="131.01" r="89.83"/><circle class="cls-5" cx="102.4" cy="131.01" r="89.83"/><circle class="cls-5" cx="102.4" cy="131.01" r="89.83"/><circle class="cls-5" cx="102.4" cy="131.01" r="89.83"/><circle class="cls-5" cx="102.4" cy="131.01" r="89.83"/><circle class="cls-5" cx="102.4" cy="131.01" r="89.83"/><circle class="cls-5" cx="102.4" cy="131.01" r="89.83"/><circle class="cls-5" cx="102.4" cy="131.01" r="89.83"/><circle class="cls-5" cx="102.4" cy="131.01" r="89.83"/><circle class="cls-5" cx="102.4" cy="131.01" r="89.83"/><circle class="cls-5" cx="102.4" cy="131.01" r="89.83"/><circle class="cls-5" cx="102.4" cy="131.01" r="89.83"/><circle class="cls-5" cx="102.4" cy="131.01" r="89.83"/><circle class="cls-5" cx="102.4" cy="131.01" r="89.83"/><circle class="cls-5" cx="102.4" cy="131.01" r="89.83"/><circle class="cls-5" cx="102.4" cy="131.01" r="89.83"/><circle class="cls-5" cx="102.4" cy="131.01" r="89.83"/><circle class="cls-5" cx="102.4" cy="131.01" r="89.83"/><circle class="cls-5" cx="102.4" cy="131.01" r="89.83"/><circle class="cls-5" cx="102.34" cy="130.94" r="89.83"/><circle class="cls-5" cx="102.34" cy="130.94" r="89.83"/><circle class="cls-5" cx="102.34" cy="130.94" r="89.83"/><circle class="cls-5" cx="102.34" cy="130.94" r="89.83"/><circle class="cls-5" cx="102.34" cy="130.94" r="89.83"/><circle class="cls-5" cx="102.34" cy="130.94" r="89.83"/><circle class="cls-5" cx="102.34" cy="130.94" r="89.83"/><circle class="cls-5" cx="102.34" cy="130.94" r="89.83"/><circle class="cls-5" cx="102.34" cy="130.94" r="89.83"/><circle class="cls-5" cx="102.34" cy="130.94" r="89.83"/><circle class="cls-5" cx="102.34" cy="130.94" r="89.83"/><circle class="cls-5" cx="102.34" cy="130.94" r="89.83"/><circle class="cls-5" cx="102.34" cy="130.94" r="89.83"/><circle class="cls-5" cx="102.34" cy="130.94" r="89.83"/><circle class="cls-5" cx="102.34" cy="130.94" r="89.83"/><circle class="cls-5" cx="102.34" cy="130.94" r="89.83"/><circle class="cls-5" cx="102.34" cy="130.94" r="89.83"/><circle class="cls-5" cx="102.34" cy="130.94" r="89.83"/><circle class="cls-5" cx="102.34" cy="130.94" r="89.83"/><circle class="cls-5" cx="102.34" cy="130.94" r="89.83"/><circle class="cls-5" cx="102.34" cy="130.94" r="89.83"/><circle class="cls-5" cx="102.34" cy="130.94" r="89.83"/><circle class="cls-5" cx="102.34" cy="130.94" r="89.83"/><circle class="cls-5" cx="102.34" cy="130.94" r="89.83"/><circle class="cls-5" cx="102.34" cy="130.94" r="89.83"/><circle class="cls-5" cx="102.34" cy="130.94" r="89.83"/><circle class="cls-5" cx="102.26" cy="130.89" r="89.83"/><circle class="cls-5" cx="102.26" cy="130.89" r="89.83"/><circle class="cls-5" cx="102.26" cy="130.89" r="89.83"/><circle class="cls-5" cx="102.26" cy="130.89" r="89.83"/><circle class="cls-5" cx="102.26" cy="130.89" r="89.83"/><circle class="cls-5" cx="102.26" cy="130.89" r="89.83"/><circle class="cls-5" cx="102.26" cy="130.89" r="89.83"/><circle class="cls-5" cx="102.26" cy="130.89" r="89.83"/><circle class="cls-5" cx="102.26" cy="130.89" r="89.83"/><circle class="cls-5" cx="102.26" cy="130.89" r="89.83"/><circle class="cls-5" cx="102.26" cy="130.89" r="89.83"/><circle class="cls-5" cx="102.26" cy="130.89" r="89.83"/><circle class="cls-5" cx="102.26" cy="130.89" r="89.83"/><circle class="cls-5" cx="102.26" cy="130.89" r="89.83"/><circle class="cls-5" cx="102.26" cy="130.89" r="89.83"/><circle class="cls-5" cx="102.26" cy="130.89" r="89.83"/><circle class="cls-5" cx="102.26" cy="130.89" r="89.83"/><circle class="cls-5" cx="102.26" cy="130.89" r="89.83"/><circle class="cls-5" cx="102.26" cy="130.89" r="89.83"/><circle class="cls-5" cx="102.26" cy="130.89" r="89.83"/><circle class="cls-5" cx="102.26" cy="130.89" r="89.83"/><circle class="cls-5" cx="102.26" cy="130.89" r="89.83"/><circle class="cls-5" cx="102.26" cy="130.89" r="89.83"/><circle class="cls-5" cx="102.26" cy="130.89" r="89.83"/><circle class="cls-5" cx="102.26" cy="130.89" r="89.83"/><circle class="cls-5" cx="102.26" cy="130.89" r="89.83"/><circle class="cls-5" cx="102.17" cy="130.86" r="89.83"/><circle class="cls-5" cx="102.17" cy="130.86" r="89.83"/><circle class="cls-5" cx="102.17" cy="130.86" r="89.83"/><circle class="cls-5" cx="102.17" cy="130.86" r="89.83"/><circle class="cls-5" cx="102.17" cy="130.86" r="89.83"/><circle class="cls-5" cx="102.17" cy="130.86" r="89.83"/><circle class="cls-5" cx="102.17" cy="130.86" r="89.83"/><circle class="cls-5" cx="102.17" cy="130.86" r="89.83"/><circle class="cls-5" cx="102.17" cy="130.86" r="89.83"/><circle class="cls-5" cx="102.17" cy="130.86" r="89.83"/><circle class="cls-5" cx="102.17" cy="130.86" r="89.83"/><circle class="cls-5" cx="102.17" cy="130.86" r="89.83"/><circle class="cls-5" cx="102.17" cy="130.86" r="89.83"/><circle class="cls-5" cx="102.17" cy="130.86" r="89.83"/><circle class="cls-5" cx="102.17" cy="130.86" r="89.83"/><circle class="cls-5" cx="102.17" cy="130.86" r="89.83"/><circle class="cls-5" cx="102.17" cy="130.86" r="89.83"/><circle class="cls-5" cx="102.17" cy="130.86" r="89.83"/><circle class="cls-5" cx="102.17" cy="130.86" r="89.83"/><circle class="cls-5" cx="102.17" cy="130.86" r="89.83"/><circle class="cls-5" cx="102.17" cy="130.86" r="89.83"/><circle class="cls-5" cx="102.17" cy="130.86" r="89.83"/><circle class="cls-5" cx="102.17" cy="130.86" r="89.83"/><circle class="cls-5" cx="102.17" cy="130.86" r="89.83"/><circle class="cls-5" cx="102.17" cy="130.86" r="89.83"/><circle class="cls-5" cx="102.17" cy="130.86" r="89.83"/><circle class="cls-5" cx="102.08" cy="130.85" r="89.83"/><circle class="cls-5" cx="102.08" cy="130.85" r="89.83"/><circle class="cls-5" cx="102.08" cy="130.85" r="89.83"/><circle class="cls-5" cx="102.08" cy="130.85" r="89.83"/><circle class="cls-5" cx="102.08" cy="130.85" r="89.83"/><circle class="cls-5" cx="102.08" cy="130.85" r="89.83"/><circle class="cls-5" cx="102.08" cy="130.85" r="89.83"/><circle class="cls-5" cx="102.08" cy="130.85" r="89.83"/><circle class="cls-5" cx="102.08" cy="130.85" r="89.83"/><circle class="cls-5" cx="102.08" cy="130.85" r="89.83"/><circle class="cls-5" cx="102.08" cy="130.85" r="89.83"/><circle class="cls-5" cx="102.08" cy="130.85" r="89.83"/><circle class="cls-5" cx="102.08" cy="130.85" r="89.83"/><circle class="cls-5" cx="102.08" cy="130.85" r="89.83"/><circle class="cls-5" cx="102.08" cy="130.85" r="89.83"/><circle class="cls-5" cx="102.08" cy="130.85" r="89.83"/><circle class="cls-5" cx="102.08" cy="130.85" r="89.83"/><circle class="cls-5" cx="102.08" cy="130.85" r="89.83"/><circle class="cls-5" cx="102.08" cy="130.85" r="89.83"/><circle class="cls-5" cx="102.08" cy="130.85" r="89.83"/><circle class="cls-5" cx="102.08" cy="130.85" r="89.83"/><circle class="cls-5" cx="102.08" cy="130.85" r="89.83"/><circle class="cls-5" cx="102.08" cy="130.85" r="89.83"/><circle class="cls-5" cx="102.08" cy="130.85" r="89.83"/><circle class="cls-5" cx="102.08" cy="130.85" r="89.83"/><circle class="cls-5" cx="102.08" cy="130.85" r="89.83"/><circle class="cls-5" cx="101.99" cy="130.87" r="89.83"/><circle class="cls-5" cx="101.99" cy="130.87" r="89.83"/><circle class="cls-5" cx="101.99" cy="130.87" r="89.83"/><circle class="cls-5" cx="101.99" cy="130.87" r="89.83"/><circle class="cls-5" cx="101.99" cy="130.87" r="89.83"/><circle class="cls-5" cx="101.99" cy="130.87" r="89.83"/><circle class="cls-5" cx="101.99" cy="130.87" r="89.83"/><circle class="cls-5" cx="101.99" cy="130.87" r="89.83"/><circle class="cls-5" cx="101.99" cy="130.87" r="89.83"/><circle class="cls-5" cx="101.99" cy="130.87" r="89.83"/><circle class="cls-5" cx="101.99" cy="130.87" r="89.83"/><circle class="cls-5" cx="101.99" cy="130.87" r="89.83"/><circle class="cls-5" cx="101.99" cy="130.87" r="89.83"/><circle class="cls-5" cx="101.99" cy="130.87" r="89.83"/><circle class="cls-5" cx="101.99" cy="130.87" r="89.83"/><circle class="cls-5" cx="101.99" cy="130.87" r="89.83"/><circle class="cls-5" cx="101.99" cy="130.87" r="89.83"/><circle class="cls-5" cx="101.99" cy="130.87" r="89.83"/><circle class="cls-5" cx="101.99" cy="130.87" r="89.83"/><circle class="cls-5" cx="101.99" cy="130.87" r="89.83"/><circle class="cls-5" cx="101.99" cy="130.87" r="89.83"/><circle class="cls-5" cx="101.99" cy="130.87" r="89.83"/><circle class="cls-5" cx="101.99" cy="130.87" r="89.83"/><circle class="cls-5" cx="101.99" cy="130.87" r="89.83"/><circle class="cls-5" cx="101.99" cy="130.87" r="89.83"/><circle class="cls-5" cx="101.99" cy="130.87" r="89.83"/><circle class="cls-5" cx="101.9" cy="130.92" r="89.83"/><circle class="cls-5" cx="101.9" cy="130.92" r="89.83"/><circle class="cls-5" cx="101.9" cy="130.92" r="89.83"/><circle class="cls-5" cx="101.9" cy="130.92" r="89.83"/><circle class="cls-5" cx="101.9" cy="130.92" r="89.83"/><circle class="cls-5" cx="101.9" cy="130.92" r="89.83"/><circle class="cls-5" cx="101.9" cy="130.92" r="89.83"/><circle class="cls-5" cx="101.9" cy="130.92" r="89.83"/><circle class="cls-5" cx="101.9" cy="130.92" r="89.83"/><circle class="cls-5" cx="101.9" cy="130.92" r="89.83"/><circle class="cls-5" cx="101.9" cy="130.92" r="89.83"/><circle class="cls-5" cx="101.9" cy="130.92" r="89.83"/><circle class="cls-5" cx="101.9" cy="130.92" r="89.83"/><circle class="cls-5" cx="101.9" cy="130.92" r="89.83"/><circle class="cls-5" cx="101.9" cy="130.92" r="89.83"/><circle class="cls-5" cx="101.9" cy="130.92" r="89.83"/><circle class="cls-5" cx="101.9" cy="130.92" r="89.83"/><circle class="cls-5" cx="101.9" cy="130.92" r="89.83"/><circle class="cls-5" cx="101.9" cy="130.92" r="89.83"/><circle class="cls-5" cx="101.9" cy="130.92" r="89.83"/><circle class="cls-5" cx="101.9" cy="130.92" r="89.83"/><circle class="cls-5" cx="101.9" cy="130.92" r="89.83"/><circle class="cls-5" cx="101.9" cy="130.92" r="89.83"/><circle class="cls-5" cx="101.9" cy="130.92" r="89.83"/><circle class="cls-5" cx="101.9" cy="130.92" r="89.83"/><circle class="cls-5" cx="101.9" cy="130.92" r="89.83"/><circle class="cls-5" cx="101.84" cy="130.98" r="89.83"/><circle class="cls-5" cx="101.84" cy="130.98" r="89.83"/><circle class="cls-5" cx="101.84" cy="130.98" r="89.83"/><circle class="cls-5" cx="101.84" cy="130.98" r="89.83"/><circle class="cls-5" cx="101.84" cy="130.98" r="89.83"/><circle class="cls-5" cx="101.84" cy="130.98" r="89.83"/><circle class="cls-5" cx="101.84" cy="130.98" r="89.83"/><circle class="cls-5" cx="101.84" cy="130.98" r="89.83"/><circle class="cls-5" cx="101.84" cy="130.98" r="89.83"/><circle class="cls-5" cx="101.84" cy="130.98" r="89.83"/><circle class="cls-5" cx="101.84" cy="130.98" r="89.83"/><circle class="cls-5" cx="101.84" cy="130.98" r="89.83"/><circle class="cls-5" cx="101.84" cy="130.98" r="89.83"/><circle class="cls-5" cx="101.84" cy="130.98" r="89.83"/><circle class="cls-5" cx="101.84" cy="130.98" r="89.83"/><circle class="cls-5" cx="101.84" cy="130.98" r="89.83"/><circle class="cls-5" cx="101.84" cy="130.98" r="89.83"/><circle class="cls-5" cx="101.84" cy="130.98" r="89.83"/><circle class="cls-5" cx="101.84" cy="130.98" r="89.83"/><circle class="cls-5" cx="101.84" cy="130.98" r="89.83"/><circle class="cls-5" cx="101.84" cy="130.98" r="89.83"/><circle class="cls-5" cx="101.84" cy="130.98" r="89.83"/><circle class="cls-5" cx="101.84" cy="130.98" r="89.83"/><circle class="cls-5" cx="101.84" cy="130.98" r="89.83"/><circle class="cls-5" cx="101.84" cy="130.98" r="89.83"/><polygon class="cls-6" points="80.66 43.7 93.03 41.61 88.75 30.39 81.02 31.7 80.66 43.7"/><polygon class="cls-6" points="57.84 52.73 69.2 47.38 62.05 37.74 54.95 41.08 57.84 52.73"/><polygon class="cls-6" points="38.32 67.58 47.8 59.36 38.32 52.01 32.39 57.15 38.32 67.58"/><polygon class="cls-6" points="23.52 87.15 30.44 76.68 19.32 72.16 15 78.7 23.52 87.15"/><polygon class="cls-6" points="14.55 109.99 18.39 98.03 6.46 96.68 4.07 104.15 14.55 109.99"/><polygon class="cls-6" points="12.08 134.4 12.55 121.85 0.7 123.76 0.4 131.6 12.08 134.4"/><polygon class="cls-6" points="16.28 158.57 13.35 146.36 2.45 151.4 4.29 159.03 16.28 158.57"/><polygon class="cls-6" points="26.85 180.71 20.73 169.75 11.6 177.54 15.42 184.39 26.85 180.71"/><polygon class="cls-6" points="42.99 199.18 34.15 190.27 27.46 200.24 32.99 205.8 42.99 199.18"/><polygon class="cls-6" points="63.53 212.61 52.61 206.42 48.85 217.82 55.68 221.69 63.53 212.61"/><polygon class="cls-6" points="86.92 220 74.74 216.98 74.2 228.97 81.81 230.85 86.92 220"/><polygon class="cls-6" points="111.44 220.8 98.9 221.19 101.61 232.88 109.45 232.63 111.44 220.8"/><polygon class="cls-6" points="135.27 214.96 123.3 218.72 129.06 229.24 136.55 226.89 135.27 214.96"/><polygon class="cls-6" points="156.64 202.9 146.12 209.75 154.52 218.33 161.09 214.05 156.64 202.9"/><polygon class="cls-6" points="173.97 185.53 165.68 194.97 176.08 200.96 181.26 195.06 173.97 185.53"/><polygon class="cls-6" points="185.96 164.13 180.53 175.45 192.16 178.41 195.55 171.34 185.96 164.13"/><polygon class="cls-6" points="191.74 140.28 189.56 152.65 201.56 152.37 202.92 144.64 191.74 140.28"/><polygon class="cls-6" points="190.86 115.77 192.11 128.26 203.58 124.75 202.81 116.94 190.86 115.77"/><polygon class="cls-6" points="183.41 92.39 187.98 104.08 198.08 97.61 195.23 90.3 183.41 92.39"/><polygon class="cls-6" points="169.93 71.9 177.48 81.92 185.46 72.96 180.74 66.7 169.93 71.9"/><polygon class="cls-6" points="151.41 55.8 161.39 63.42 166.66 52.63 160.42 47.87 151.41 55.8"/><polygon class="cls-6" points="129.24 45.29 140.9 49.94 143.07 38.13 135.78 35.23 129.24 45.29"/><polygon class="cls-6" points="105.06 41.16 117.54 42.48 116.44 30.53 108.64 29.7 105.06 41.16"/><circle class="cls-7" cx="111.19" cy="282.24" r="48.5"/><circle class="cls-7" cx="111.19" cy="282.24" r="48.5"/><circle class="cls-7" cx="111.19" cy="282.24" r="48.5"/><circle class="cls-7" cx="111.19" cy="282.24" r="48.5"/><circle class="cls-7" cx="111.19" cy="282.24" r="48.5"/><circle class="cls-7" cx="111.19" cy="282.24" r="48.5"/><circle class="cls-7" cx="111.19" cy="282.24" r="48.5"/><circle class="cls-7" cx="111.19" cy="282.24" r="48.5"/><circle class="cls-7" cx="111.19" cy="282.24" r="48.5"/><circle class="cls-7" cx="111.19" cy="282.24" r="48.5"/><circle class="cls-7" cx="111.19" cy="282.24" r="48.5"/><circle class="cls-7" cx="111.19" cy="282.24" r="48.5"/><circle class="cls-7" cx="111.19" cy="282.24" r="48.5"/><circle class="cls-7" cx="111.19" cy="282.24" r="48.5"/><polygon class="cls-8" points="109.58 233.27 122.06 234.49 120.86 222.56 113.06 221.8 109.58 233.27"/><polygon class="cls-8" points="89.83 238.13 101.73 234.16 95.78 223.75 88.34 226.23 89.83 238.13"/><polygon class="cls-8" points="73.77 250.59 83.02 242.13 73.35 235.04 67.57 240.33 73.77 250.59"/><polygon class="cls-8" points="64.16 268.52 69.17 257.02 57.46 254.48 54.33 261.67 64.16 268.52"/><polygon class="cls-8" points="62.68 288.8 62.58 276.26 50.85 278.7 50.91 286.54 62.68 288.8"/><polygon class="cls-8" points="69.57 307.93 64.38 296.51 54.66 303.52 57.9 310.65 69.57 307.93"/><polygon class="cls-8" points="83.65 322.6 74.27 314.28 68.23 324.64 74.09 329.84 83.65 322.6"/><polygon class="cls-8" points="102.48 330.28 90.52 326.5 89.22 338.41 96.69 340.78 102.48 330.28"/><polygon class="cls-8" points="122.8 329.63 110.34 331.04 114 342.46 121.79 341.58 122.8 329.63"/><polygon class="cls-8" points="141.11 320.78 130.3 327.13 138.28 336.08 145.04 332.11 141.11 320.78"/><polygon class="cls-8" points="154.23 305.25 146.94 315.45 157.87 320.37 162.42 313.99 154.23 305.25"/><polygon class="cls-8" points="159.9 285.72 157.39 298 169.37 298.05 170.94 290.38 159.9 285.72"/><polygon class="cls-8" points="157.13 265.57 159.84 277.82 170.81 272.99 169.12 265.33 157.13 265.57"/><polygon class="cls-8" points="146.41 248.29 153.86 258.38 161.92 249.5 157.26 243.2 146.41 248.29"/><polygon class="cls-8" points="129.59 236.87 140.5 243.05 144.25 231.67 137.43 227.8 129.59 236.87"/><circle class="cls-9" cx="258.02" cy="74.31" r="62.86"/><circle class="cls-9" cx="258.02" cy="74.31" r="62.86"/><circle class="cls-9" cx="258.02" cy="74.31" r="62.86"/><circle class="cls-9" cx="258.02" cy="74.31" r="62.86"/><circle class="cls-9" cx="258.02" cy="74.31" r="62.86"/><circle class="cls-9" cx="258.02" cy="74.31" r="62.86"/><circle class="cls-9" cx="258.02" cy="74.31" r="62.86"/><circle class="cls-9" cx="258.02" cy="74.31" r="62.86"/><circle class="cls-9" cx="258.02" cy="74.31" r="62.86"/><circle class="cls-9" cx="258.02" cy="74.31" r="62.86"/><circle class="cls-9" cx="258.02" cy="74.31" r="62.86"/><circle class="cls-9" cx="258.02" cy="74.31" r="62.86"/><circle class="cls-9" cx="258.02" cy="74.31" r="62.86"/><circle class="cls-9" cx="258.02" cy="74.31" r="62.86"/><circle class="cls-9" cx="258.02" cy="74.31" r="62.86"/><circle class="cls-9" cx="258.02" cy="74.31" r="62.86"/><circle class="cls-9" cx="258.02" cy="74.31" r="62.86"/><circle class="cls-9" cx="258.02" cy="74.31" r="62.86"/><circle class="cls-9" cx="258.02" cy="74.31" r="62.86"/><polygon points="261.68 11.24 274.06 13.21 273.59 1.23 265.85 0.01 261.68 11.24"/><polygon points="242.01 13.2 254.4 11.24 250.24 0 242.5 1.22 242.01 13.2"/><polygon points="223.91 21.14 235.09 15.45 227.66 6.04 220.68 9.6 223.91 21.14"/><polygon points="209.15 34.28 218.02 25.42 208.05 18.77 202.51 24.3 209.15 34.28"/><polygon points="199.18 51.34 204.87 40.17 193.33 36.92 189.77 43.91 199.18 51.34"/><polygon points="194.96 70.65 196.92 58.27 184.94 58.74 183.72 66.48 194.96 70.65"/><polygon points="196.91 90.32 194.96 77.93 183.71 82.09 184.94 89.83 196.91 90.32"/><polygon points="204.85 108.42 199.16 97.24 189.75 104.67 193.31 111.65 204.85 108.42"/><polygon points="217.99 123.18 209.13 114.31 202.48 124.28 208.02 129.82 217.99 123.18"/><polygon points="235.05 133.16 223.88 127.46 220.64 139 227.62 142.56 235.05 133.16"/><polygon points="254.36 137.37 241.98 135.41 242.46 147.39 250.2 148.61 254.36 137.37"/><polygon points="274.03 135.42 261.64 137.38 265.8 148.62 273.54 147.4 274.03 135.42"/><polygon points="292.13 127.48 280.96 133.17 288.38 142.58 295.37 139.02 292.13 127.48"/><polygon points="306.89 114.34 298.02 123.2 307.99 129.85 313.54 124.31 306.89 114.34"/><polygon points="316.87 97.28 311.17 108.45 322.71 111.69 326.27 104.71 316.87 97.28"/><polygon points="321.09 77.97 319.12 90.35 331.1 89.87 332.33 82.13 321.09 77.97"/><polygon points="319.13 58.3 321.09 70.69 332.33 66.53 331.11 58.79 319.13 58.3"/><polygon points="311.19 40.2 316.88 51.38 326.29 43.95 322.74 36.96 311.19 40.2"/><polygon points="298.05 25.44 306.91 34.31 313.57 24.34 308.03 18.8 298.05 25.44"/><polygon points="280.99 15.46 292.16 21.16 295.41 9.62 288.43 6.06 280.99 15.46"/><circle class="cls-5" cx="329.61" cy="266.48" r="80.67"/><circle class="cls-5" cx="329.61" cy="266.48" r="80.67"/><circle class="cls-5" cx="329.61" cy="266.48" r="80.67"/><circle class="cls-5" cx="329.61" cy="266.48" r="80.67"/><circle class="cls-5" cx="329.61" cy="266.48" r="80.67"/><circle class="cls-5" cx="329.61" cy="266.48" r="80.67"/><circle class="cls-5" cx="329.61" cy="266.48" r="80.67"/><circle class="cls-5" cx="329.61" cy="266.48" r="80.67"/><circle class="cls-5" cx="329.61" cy="266.48" r="80.67"/><circle class="cls-5" cx="329.61" cy="266.48" r="80.67"/><circle class="cls-5" cx="329.61" cy="266.48" r="80.67"/><circle class="cls-5" cx="329.61" cy="266.48" r="80.67"/><circle class="cls-5" cx="329.61" cy="266.48" r="80.67"/><circle class="cls-5" cx="329.61" cy="266.48" r="80.67"/><circle class="cls-5" cx="329.61" cy="266.48" r="80.67"/><circle class="cls-5" cx="329.61" cy="266.48" r="80.67"/><circle class="cls-5" cx="329.61" cy="266.48" r="80.67"/><circle class="cls-5" cx="329.61" cy="266.48" r="80.67"/><circle class="cls-5" cx="329.61" cy="266.48" r="80.67"/><circle class="cls-5" cx="329.61" cy="266.48" r="80.67"/><circle class="cls-5" cx="329.61" cy="266.48" r="80.67"/><circle class="cls-5" cx="329.61" cy="266.48" r="80.67"/><circle class="cls-5" cx="329.61" cy="266.48" r="80.67"/><circle class="cls-5" cx="329.61" cy="266.48" r="80.67"/><polygon class="cls-6" points="345.92 187.22 357.97 190.69 358.96 178.75 351.43 176.58 345.92 187.22"/><polygon class="cls-6" points="325.7 185.66 338.23 186.02 336.22 174.2 328.39 173.98 325.7 185.66"/><polygon class="cls-6" points="305.72 189.17 317.95 186.41 313.07 175.46 305.42 177.19 305.72 189.17"/><polygon class="cls-6" points="287.25 197.54 298.4 191.82 290.95 182.43 283.98 186.01 287.25 197.54"/><polygon class="cls-6" points="271.43 210.24 280.82 201.93 271.27 194.69 265.4 199.88 271.43 210.24"/><polygon class="cls-6" points="259.28 226.48 266.3 216.09 255.25 211.46 250.86 217.95 259.28 226.48"/><polygon class="cls-6" points="251.54 245.23 255.76 233.42 243.9 231.68 241.26 239.06 251.54 245.23"/><polygon class="cls-6" points="248.71 265.31 249.86 252.83 237.94 254.09 237.22 261.89 248.71 265.31"/><polygon class="cls-6" points="250.96 285.47 248.97 273.09 237.74 277.28 238.98 285.01 250.96 285.47"/><polygon class="cls-6" points="258.15 304.43 253.15 292.94 243.31 299.79 246.44 306.97 258.15 304.43"/><polygon class="cls-6" points="269.84 321.01 262.13 311.12 254.3 320.2 259.12 326.38 269.84 321.01"/><polygon class="cls-6" points="285.28 334.17 275.35 326.5 270.03 337.24 276.23 342.03 285.28 334.17"/><polygon class="cls-6" points="303.5 343.06 291.99 338.11 289.5 349.84 296.7 352.93 303.5 343.06"/><polygon class="cls-6" points="323.37 347.15 310.98 345.22 311.49 357.19 319.24 358.4 323.37 347.15"/><polygon class="cls-6" points="343.63 346.17 331.15 347.38 334.62 358.85 342.42 358.1 343.63 346.17"/><polygon class="cls-6" points="363.01 340.18 351.22 344.45 357.44 354.7 364.81 352.03 363.01 340.18"/><polygon class="cls-6" points="380.29 329.56 369.93 336.63 378.5 345.01 384.98 340.59 380.29 329.56"/><polygon class="cls-6" points="394.38 314.98 386.12 324.4 396.5 330.39 401.67 324.5 394.38 314.98"/><polygon class="cls-6" points="404.41 297.35 398.74 308.53 410.29 311.75 413.83 304.75 404.41 297.35"/><polygon class="cls-6" points="409.74 277.77 407.03 290.02 419.01 290.26 420.71 282.61 409.74 277.77"/><polygon class="cls-6" points="410.03 257.49 410.45 270.02 422.12 267.28 421.86 259.45 410.03 257.49"/><polygon class="cls-6" points="405.27 237.78 408.8 249.81 419.41 244.25 417.21 236.73 405.27 237.78"/><polygon class="cls-6" points="395.75 219.87 402.16 230.64 411.06 222.62 407.06 215.88 395.75 219.87"/><polygon class="cls-6" points="382.08 204.88 390.97 213.73 397.6 203.74 392.04 198.21 382.08 204.88"/><polygon class="cls-6" points="365.12 193.77 375.93 200.12 379.86 188.8 373.11 184.83 365.12 193.77"/><circle class="cls-10" cx="220.34" cy="295.83" r="20.42"/><circle class="cls-10" cx="220.34" cy="295.83" r="20.42"/><circle class="cls-10" cx="220.34" cy="295.83" r="20.42"/><circle class="cls-10" cx="220.34" cy="295.83" r="20.42"/><circle class="cls-10" cx="220.34" cy="295.83" r="20.42"/><circle class="cls-10" cx="220.34" cy="295.83" r="20.42"/><polygon points="225.57 315.79 213.05 315.11 214.76 326.97 222.59 327.4 225.57 315.79"/><polygon points="224.35 275.58 235.34 281.63 238.94 270.2 232.07 266.42 224.35 275.58"/><polygon points="207.03 280.1 218.6 275.27 211.91 265.33 204.68 268.34 207.03 280.1"/><polygon points="199.75 296.45 203.2 284.4 191.25 283.43 189.1 290.96 199.75 296.45"/><polygon points="208 312.34 200.73 302.13 192.52 310.86 197.07 317.24 208 312.34"/><polygon points="239.22 304.21 230.88 313.57 241.23 319.63 246.44 313.78 239.22 304.21"/><polygon points="238.68 286.32 240.8 298.67 251.99 294.36 250.66 286.64 238.68 286.32"/><circle class="cls-11" cx="220.37" cy="295.83" r="20.42"/><circle class="cls-5" cx="101.84" cy="130.98" r="81.57"/><circle class="cls-12" cx="258.02" cy="74.31" r="55.16"/><polygon class="cls-3" points="346.27 110.66 357.61 114.06 358.68 102.79 351.59 100.67 346.27 110.66"/><polygon class="cls-3" points="329.15 113.89 340.53 110.62 335.33 100.57 328.22 102.61 329.15 113.89"/><polygon class="cls-3" points="316.49 125.87 324.29 116.97 314.49 111.31 309.61 116.88 316.49 125.87"/><polygon class="cls-3" points="312.31 142.79 314.07 131.08 302.76 131.63 301.66 138.94 312.31 142.79"/><polygon class="cls-3" points="317.95 159.28 313.09 148.48 303.88 155.05 306.91 161.8 317.95 159.28"/><polygon class="cls-3" points="331.6 170.11 321.68 163.65 317.49 174.16 323.69 178.2 331.6 170.11"/><polygon class="cls-3" points="348.95 171.83 337.11 171.76 339.26 182.87 346.66 182.92 348.95 171.83"/><polygon class="cls-3" points="364.47 163.91 354.47 170.25 362.29 178.43 368.54 174.47 364.47 163.91"/><polygon class="cls-3" points="373.24 148.85 368.26 159.59 379.26 162.25 382.38 155.53 373.24 148.85"/><polygon class="cls-3" points="372.48 131.44 374.1 143.16 384.79 139.45 383.78 132.12 372.48 131.44"/><polygon class="cls-3" points="362.43 117.2 370.13 126.19 377.12 117.29 372.3 111.67 362.43 117.2"/><circle class="cls-12" cx="111.19" cy="282.24" r="9.94"/><circle class="cls-12" cx="101.91" cy="131.37" r="12.61"/><circle class="cls-12" cx="343.26" cy="141.32" r="8.45"/><circle class="cls-12" cx="258.02" cy="74.31" r="9.85"/><circle class="cls-12" cx="101.91" cy="131.17" r="12.61"/><circle class="cls-12" cx="101.72" cy="131.1" r="12.61"/><circle class="cls-13" cx="101.6" cy="131.27" r="12.61"/><path class="cls-14" d="M116.85,42.41A89.84,89.84,0,1,0,190.41,146,89.84,89.84,0,0,0,116.85,42.41ZM90,50.79A81.42,81.42,0,0,1,154.33,69l-30.35,36A21.49,21.49,0,0,1,87.8,99.67l-18.44-43A81.67,81.67,0,0,1,90,50.79Zm15.64,92.63a12.61,12.61,0,1,1,8.09-15.88A12.61,12.61,0,0,1,105.62,143.42Zm-84-25.81A81.4,81.4,0,0,1,58.82,62.05l24.88,40A21.49,21.49,0,0,1,67.41,134.8l-46.6,4.25A82,82,0,0,1,21.59,117.61ZM94.51,165,84.15,210.67a81.63,81.63,0,0,1-61.47-59.94l45.72-11.3A21.48,21.48,0,0,1,94.51,165Zm64.11,24.4a81.37,81.37,0,0,1-62.78,23.07l3.38-47a21.49,21.49,0,0,1,32.43-16.92l40.2,23.95A81.74,81.74,0,0,1,158.62,189.44ZM177.2,162l-43.63-17.74a21.49,21.49,0,0,1-6.07-36.07l35.21-30.83A81.64,81.64,0,0,1,177.2,162Z"/><circle class="cls-12" cx="257.82" cy="74.39" r="9.85"/><circle class="cls-12" cx="257.73" cy="74.58" r="9.85"/><circle class="cls-13" cx="257.81" cy="74.79" r="9.85"/><circle class="cls-12" cx="258.21" cy="74.8" r="9.85"/><circle class="cls-12" cx="258.3" cy="74.6" r="9.85"/><path class="cls-11" d="M286.58,18.31A62.86,62.86,0,1,0,314,102.86,62.87,62.87,0,0,0,286.58,18.31Zm18.35,27.14L275.11,63.73a6.4,6.4,0,0,1-9.22-8l13.85-32.12A55.15,55.15,0,0,1,304.93,45.45ZM265.19,81.36a9.85,9.85,0,1,1,0-13.93A9.86,9.86,0,0,1,265.19,81.36ZM271,20.66l-8.16,34a6.39,6.39,0,0,1-12.15.88L237.76,23.05A55.16,55.16,0,0,1,271,20.66Zm-41.84,6.45,18.29,29.83a6.39,6.39,0,0,1-8,9.21L207.35,52.3A55.07,55.07,0,0,1,229.16,27.11ZM204.37,61.6l34,8.16a6.4,6.4,0,0,1,.87,12.16l-32.5,12.92A55.15,55.15,0,0,1,204.37,61.6Zm6.72,41.54,29.83-18.29a6.39,6.39,0,0,1,9.21,8L236.29,125A55.23,55.23,0,0,1,211.09,103.14ZM245,128l8.17-34a6.39,6.39,0,0,1,12.15-.87l12.93,32.51A55.18,55.18,0,0,1,245,128Zm41.54-6.45L268.28,91.68a6.39,6.39,0,0,1,8-9.21l32.12,13.85A55.09,55.09,0,0,1,286.56,121.51Zm25.11-33.93-34-8.16a6.39,6.39,0,0,1-.87-12.16l32.5-12.92A55.08,55.08,0,0,1,311.67,87.58Z"/><circle class="cls-13" cx="343.27" cy="141.39" r="8.45"/><path class="cls-3" d="M367,121.09a31.29,31.29,0,1,0-3.43,44.12A31.31,31.31,0,0,0,367,121.09Zm-35.92-1,.12-.07a24.55,24.55,0,0,1,26.62,1.69l-9.31,7.11A13.62,13.62,0,0,0,333,132.4l-10.37-4.26A24.34,24.34,0,0,1,331.07,120.12Zm-.24,42.56-.12-.07a24.55,24.55,0,0,1-11.85-23.9l10.81,4.51a13.69,13.69,0,0,0,6.59,10.06,13.89,13.89,0,0,0,4.26,1.63L342,166A24.47,24.47,0,0,1,330.83,162.68Zm8.13-14a8.45,8.45,0,1,1,11.58-2.95A8.45,8.45,0,0,1,339,148.73ZM353,164l-1.51-11.62A13.7,13.7,0,0,0,357,141.61a13.45,13.45,0,0,0-.72-4.51l8.88-6.86a24.45,24.45,0,0,1,2.7,11.37v.13A24.54,24.54,0,0,1,353,164Z"/><circle class="cls-13" cx="329.64" cy="266.61" r="12.62"/><path class="cls-14" d="M370.52,197a80.67,80.67,0,1,0,28.63,110.43A80.67,80.67,0,0,0,370.52,197Zm-26.37,4.67-13.08,38.44a11.22,11.22,0,0,1-17.18,5.48l-20-14.44-13.34-9.62A66.65,66.65,0,0,1,344.15,201.62Zm-10.49,76.85a12.62,12.62,0,1,1,8-15.93A12.62,12.62,0,0,1,333.66,278.47Zm-62,20.77a66.64,66.64,0,0,1,.77-66.64l32.51,24.32a11.21,11.21,0,0,1-.09,18l-19.92,14.58Zm8.06,11.18L312.85,287A11.21,11.21,0,0,1,330,292.68l7.71,23.44c2.73,8.31,5.14,15.62,5.14,15.62A66.62,66.62,0,0,1,279.68,310.42ZM356,327.54l-12-38.79a11.2,11.2,0,0,1,10.67-14.52l24.68-.09,16.44-.06A66.62,66.62,0,0,1,356,327.54Zm-.76-67.81a11.21,11.21,0,0,1-10.52-14.64l7.55-23.5,5-15.65a66.61,66.61,0,0,1,38.55,54.35Z"/><path class="cls-12" d="M145.1,302.47l-19.65-16.58a4.32,4.32,0,0,1,.34-6.85L147,264.45"/><circle class="cls-12" cx="111.19" cy="282.24" r="9.94"/><circle class="cls-12" cx="111.19" cy="282.24" r="9.94"/><circle class="cls-15" cx="111.19" cy="282.24" r="9.94"/><circle class="cls-16" cx="220.34" cy="295.83" r="9.94"/><path class="cls-11" d="M135.11,240.06a48.49,48.49,0,1,0,18.27,66.1A48.5,48.5,0,0,0,135.11,240.06Zm-11.9,4.16a39.65,39.65,0,0,1,17.84,11.84L119,269.78a4.32,4.32,0,0,1-6.41-2.43s-2.44-8.26-4.51-15.22l-2.81-9.47A39.76,39.76,0,0,1,123.21,244.22ZM78.74,259.07a39.61,39.61,0,0,1,16.77-13.31L101.75,271a4.32,4.32,0,0,1-4.3,5.35l-15.86-.41-9.88-.26A39.71,39.71,0,0,1,78.74,259.07Zm22.57,34.41-5.29,15-3.3,9.31a39.89,39.89,0,0,1-21.08-31.87l25.91,1.86A4.31,4.31,0,0,1,101.31,293.48Zm6.81-20.69a9.94,9.94,0,1,1-6.38,12.53A9.94,9.94,0,0,1,108.12,272.79Zm15.7,47.28a39.68,39.68,0,0,1-21.39.91l9.77-24.07a4.31,4.31,0,0,1,6.62-1.79l12.6,9.65,7.83,6A39.71,39.71,0,0,1,123.82,320.07Zm21.5-17.52-19.87-16.74a4.31,4.31,0,0,1,.34-6.84l13.07-9,8.14-5.6a39.88,39.88,0,0,1-1.68,38.18Z"/><path d="M101.72,136.36a5.18,5.18,0,1,1,5.17-5.18A5.18,5.18,0,0,1,101.72,136.36Z"/><path d="M101.72,126.4a4.78,4.78,0,1,1-4.79,4.78,4.78,4.78,0,0,1,4.79-4.78m0-.79a5.57,5.57,0,1,0,5.56,5.57,5.58,5.58,0,0,0-5.56-5.57Z"/><path d="M258.1,78.46a3.7,3.7,0,1,1,3.7-3.7A3.7,3.7,0,0,1,258.1,78.46Z"/><path d="M258.1,71.45a3.31,3.31,0,1,1-3.31,3.31,3.31,3.31,0,0,1,3.31-3.31m0-.79a4.1,4.1,0,1,0,4.09,4.1,4.1,4.1,0,0,0-4.09-4.1Z"/><path d="M343.2,145a3.7,3.7,0,1,1,3.7-3.7A3.71,3.71,0,0,1,343.2,145Z"/><path d="M343.2,138a3.31,3.31,0,1,1-3.31,3.31A3.31,3.31,0,0,1,343.2,138m0-.78a4.09,4.09,0,1,0,4.09,4.09,4.1,4.1,0,0,0-4.09-4.09Z"/><path d="M330,270.07a3.7,3.7,0,1,1,3.7-3.7A3.7,3.7,0,0,1,330,270.07Z"/><path d="M330,263.06a3.31,3.31,0,1,1-3.31,3.31,3.31,3.31,0,0,1,3.31-3.31m0-.78a4.1,4.1,0,1,0,4.09,4.09,4.09,4.09,0,0,0-4.09-4.09Z"/><path d="M220.51,299.49a3.7,3.7,0,1,1,3.7-3.7A3.7,3.7,0,0,1,220.51,299.49Z"/><path d="M220.51,292.48a3.31,3.31,0,1,1-3.31,3.31,3.31,3.31,0,0,1,3.31-3.31m0-.79a4.1,4.1,0,1,0,4.09,4.1,4.1,4.1,0,0,0-4.09-4.1Z"/><path d="M111.3,285.9a3.7,3.7,0,1,1,3.7-3.7A3.7,3.7,0,0,1,111.3,285.9Z"/><path d="M111.3,278.89A3.31,3.31,0,1,1,108,282.2a3.31,3.31,0,0,1,3.31-3.31m0-.79a4.1,4.1,0,1,0,4.09,4.1,4.1,4.1,0,0,0-4.09-4.1Z"/></g></g></svg>