<svg xmlns="http://www.w3.org/2000/svg" viewBox="0 0 900 600"><defs><style>.cls-1,.cls-7{fill:#0fc;}.cls-2{fill:none;}.cls-3,.cls-6{fill:#00b38f;}.cls-4{fill:#ccc;}.cls-5{opacity:0.37;}.cls-6,.cls-7{opacity:0.29;}.cls-8{fill:red;}.cls-9{fill:#ff4500;}.cls-10{fill:#ff0;}.cls-11{fill:#b3b3b3;}.cls-12{fill:#fcee21;}</style></defs><g id="Layer_2" data-name="Layer 2"><g id="Layer_1-2" data-name="Layer 1"><line class="cls-1" x1="366.62" y1="257.88" x2="476.75" y2="218.01"/><polyline class="cls-2" points="373.05 363.02 450.44 371.23 526.48 352.46"/><polygon class="cls-3" points="372.43 236.9 379.94 240.33 381.75 232.65 377.06 230.5 372.43 236.9"/><polygon class="cls-3" points="360.29 237.5 368.46 236.32 365.83 228.88 360.73 229.61 360.29 237.5"/><polygon class="cls-3" points="350.4 244.56 356.64 239.16 350.41 234.32 346.51 237.69 350.4 244.56"/><polygon class="cls-3" points="345.9 255.85 348.23 247.93 340.37 247.23 338.92 252.18 345.9 255.85"/><polygon class="cls-3" points="348.22 267.78 345.9 259.86 338.91 263.52 340.36 268.47 348.22 267.78"/><polygon class="cls-3" points="356.62 276.56 350.39 271.15 346.49 278.01 350.38 281.39 356.62 276.56"/><polygon class="cls-3" points="368.44 279.41 360.27 278.23 360.69 286.11 365.8 286.85 368.44 279.41"/><polygon class="cls-3" points="379.92 275.41 372.4 278.84 377.02 285.24 381.72 283.1 379.92 275.41"/><polygon class="cls-3" points="387.41 265.85 382.94 272.79 390.29 275.68 393.08 271.34 387.41 265.85"/><polygon class="cls-3" points="388.55 253.75 388.54 262 396.28 260.46 396.29 255.3 388.55 253.75"/><polygon class="cls-3" points="382.96 242.96 387.42 249.9 393.1 244.42 390.31 240.08 382.96 242.96"/><polygon class="cls-3" points="372.43 236.9 379.94 240.33 381.75 232.65 377.06 230.5 372.43 236.9"/><polygon class="cls-3" points="360.29 237.5 368.46 236.32 365.83 228.88 360.73 229.61 360.29 237.5"/><polygon class="cls-3" points="350.4 244.56 356.64 239.16 350.41 234.32 346.51 237.69 350.4 244.56"/><polygon class="cls-3" points="345.9 255.85 348.23 247.93 340.37 247.23 338.92 252.18 345.9 255.85"/><polygon class="cls-3" points="348.22 267.78 345.9 259.86 338.91 263.52 340.36 268.47 348.22 267.78"/><polygon class="cls-3" points="356.62 276.56 350.39 271.15 346.49 278.01 350.38 281.39 356.62 276.56"/><polygon class="cls-3" points="368.44 279.41 360.27 278.23 360.69 286.11 365.8 286.85 368.44 279.41"/><polygon class="cls-3" points="379.92 275.41 372.4 278.84 377.02 285.24 381.72 283.1 379.92 275.41"/><polygon class="cls-3" points="387.41 265.85 382.94 272.79 390.29 275.68 393.08 271.34 387.41 265.85"/><polygon class="cls-3" points="388.55 253.75 388.54 262 396.28 260.46 396.29 255.3 388.55 253.75"/><polygon class="cls-3" points="382.96 242.96 387.42 249.9 393.1 244.42 390.31 240.08 382.96 242.96"/><circle class="cls-3" cx="367.38" cy="257.86" r="5.89"/><circle class="cls-3" cx="367.38" cy="257.86" r="9.55"/><line class="cls-3" x1="371.99" y1="274.36" x2="372.08" y2="266.18"/><line class="cls-3" x1="376.77" y1="256.1" x2="383.54" y2="252.22"/><circle class="cls-3" cx="367.38" cy="257.91" r="5.89"/><circle class="cls-3" cx="367.42" cy="257.89" r="5.89"/><path class="cls-3" d="M376.45,238a21.82,21.82,0,1,0,10.77,28.92A21.83,21.83,0,0,0,376.45,238Zm-19.66,33.33-.07-.05a17.15,17.15,0,0,1-5.91-17.64l7.05,4.14a9.54,9.54,0,0,0,3.58,7.58,9.32,9.32,0,0,0,2.79,1.53l0,7.82A17,17,0,0,1,356.79,271.35ZM363.88,249a9.61,9.61,0,0,0-2.73,1.65l-6.76-3.93A17.08,17.08,0,0,1,361,242l.08,0a17.12,17.12,0,0,1,18.23,3.7l-7.11,4A9.53,9.53,0,0,0,363.88,249ZM372,274.36l.07-8.17a9.54,9.54,0,0,0,4.77-6.9,9.4,9.4,0,0,0-.07-3.18l6.79-3.89a17.1,17.1,0,0,1,.78,8.11l0,.09A17.11,17.11,0,0,1,372,274.36Z"/><circle class="cls-3" cx="367.38" cy="257.86" r="9.55"/><circle class="cls-3" cx="367.42" cy="257.89" r="5.89"/><polygon class="cls-3" points="478.16 196.74 486.09 199.01 486.74 191.15 481.78 189.72 478.16 196.74"/><polygon class="cls-3" points="466.25 199.14 474.15 196.76 470.44 189.79 465.5 191.28 466.25 199.14"/><polygon class="cls-3" points="457.52 207.6 462.89 201.32 456 197.47 452.65 201.39 457.52 207.6"/><polygon class="cls-3" points="454.75 219.43 455.88 211.25 448 211.73 447.3 216.84 454.75 219.43"/><polygon class="cls-3" points="458.83 230.88 455.35 223.39 448.98 228.06 451.15 232.74 458.83 230.88"/><polygon class="cls-3" points="468.44 238.31 461.47 233.89 458.63 241.26 462.99 244.02 468.44 238.31"/><polygon class="cls-3" points="480.55 239.37 472.29 239.42 473.89 247.15 479.05 247.12 480.55 239.37"/><polygon class="cls-3" points="491.3 233.71 484.39 238.21 489.91 243.85 494.23 241.04 491.3 233.71"/><polygon class="cls-3" points="497.29 223.13 493.91 230.66 501.6 232.42 503.72 227.72 497.29 223.13"/><polygon class="cls-3" points="496.61 211 497.84 219.16 505.26 216.48 504.49 211.38 496.61 211"/><polygon class="cls-3" points="489.48 201.16 494.92 207.36 499.72 201.1 496.32 197.22 489.48 201.16"/><polygon class="cls-3" points="478.16 196.74 486.09 199.01 486.74 191.15 481.78 189.72 478.16 196.74"/><polygon class="cls-3" points="466.25 199.14 474.15 196.76 470.44 189.79 465.5 191.28 466.25 199.14"/><polygon class="cls-3" points="457.52 207.6 462.89 201.32 456 197.47 452.65 201.39 457.52 207.6"/><polygon class="cls-3" points="454.75 219.43 455.88 211.25 448 211.73 447.3 216.84 454.75 219.43"/><polygon class="cls-3" points="458.83 230.88 455.35 223.39 448.98 228.06 451.15 232.74 458.83 230.88"/><polygon class="cls-3" points="468.44 238.31 461.47 233.89 458.63 241.26 462.99 244.02 468.44 238.31"/><polygon class="cls-3" points="480.55 239.37 472.29 239.42 473.89 247.15 479.05 247.12 480.55 239.37"/><polygon class="cls-3" points="491.3 233.71 484.39 238.21 489.91 243.85 494.23 241.04 491.3 233.71"/><polygon class="cls-3" points="497.29 223.13 493.91 230.66 501.6 232.42 503.72 227.72 497.29 223.13"/><polygon class="cls-3" points="496.61 211 497.84 219.16 505.26 216.48 504.49 211.38 496.61 211"/><polygon class="cls-3" points="489.48 201.16 494.92 207.36 499.72 201.1 496.32 197.22 489.48 201.16"/><circle class="cls-3" cx="476.29" cy="218.22" r="5.89"/><circle class="cls-3" cx="476.29" cy="218.22" r="9.55"/><line class="cls-3" x1="483.31" y1="233.84" x2="482.18" y2="225.74"/><line class="cls-3" x1="485.31" y1="215.08" x2="491.43" y2="210.23"/><circle class="cls-3" cx="476.29" cy="218.27" r="5.89"/><circle class="cls-3" cx="476.33" cy="218.24" r="5.89"/><path class="cls-3" d="M482.31,197.25a21.82,21.82,0,1,0,14.95,27A21.83,21.83,0,0,0,482.31,197.25Zm-14.48,35.89-.07,0a17.12,17.12,0,0,1-8.48-16.56l7.58,3.05a9.49,9.49,0,0,0,7.67,8.06l1.14,7.74A17.14,17.14,0,0,1,467.83,233.14ZM471.5,210a9.5,9.5,0,0,0-2.44,2l-7.27-2.88a17.1,17.1,0,0,1,5.85-5.67l.08,0a17.12,17.12,0,0,1,18.58.94l-6.43,5A9.57,9.57,0,0,0,471.5,210Zm11.83,23.87-1.15-8.09a9.48,9.48,0,0,0,3.15-10.66l6.13-4.86a17.09,17.09,0,0,1,2,7.9v.09A17.12,17.12,0,0,1,483.33,233.84Z"/><circle class="cls-3" cx="476.29" cy="218.22" r="9.55"/><circle class="cls-3" cx="476.33" cy="218.24" r="5.89"/><polygon class="cls-4" points="375.71 341.35 383.64 343.63 384.29 335.76 379.33 334.34 375.71 341.35"/><polygon class="cls-4" points="363.8 343.75 371.7 341.38 367.99 334.41 363.05 335.9 363.8 343.75"/><polygon class="cls-4" points="355.07 352.21 360.44 345.94 353.55 342.08 350.2 346.01 355.07 352.21"/><polygon class="cls-4" points="352.31 364.05 353.43 355.87 345.55 356.35 344.85 361.46 352.31 364.05"/><polygon class="cls-4" points="356.38 375.5 352.9 368.01 346.53 372.67 348.7 377.35 356.38 375.5"/><polygon class="cls-4" points="365.99 382.93 359.02 378.51 356.18 385.88 360.54 388.64 365.99 382.93"/><polygon class="cls-4" points="378.1 383.98 369.84 384.03 371.44 391.76 376.6 391.73 378.1 383.98"/><polygon class="cls-4" points="388.85 378.32 381.94 382.83 387.46 388.47 391.78 385.65 388.85 378.32"/><polygon class="cls-4" points="394.84 367.75 391.46 375.28 399.15 377.04 401.27 372.33 394.84 367.75"/><polygon class="cls-4" points="394.16 355.62 395.39 363.78 402.81 361.1 402.05 356 394.16 355.62"/><polygon class="cls-4" points="387.03 345.77 392.47 351.98 397.27 345.71 393.87 341.83 387.03 345.77"/><polygon class="cls-4" points="375.71 341.35 383.64 343.63 384.29 335.76 379.33 334.34 375.71 341.35"/><polygon class="cls-4" points="363.8 343.75 371.7 341.38 367.99 334.41 363.05 335.9 363.8 343.75"/><polygon class="cls-4" points="355.07 352.21 360.44 345.94 353.55 342.08 350.2 346.01 355.07 352.21"/><polygon class="cls-4" points="352.31 364.05 353.43 355.87 345.55 356.35 344.85 361.46 352.31 364.05"/><polygon class="cls-4" points="356.38 375.5 352.9 368.01 346.53 372.67 348.7 377.35 356.38 375.5"/><polygon class="cls-4" points="365.99 382.93 359.02 378.51 356.18 385.88 360.54 388.64 365.99 382.93"/><polygon class="cls-4" points="378.1 383.98 369.84 384.03 371.44 391.76 376.6 391.73 378.1 383.98"/><polygon class="cls-4" points="388.85 378.32 381.94 382.83 387.46 388.47 391.78 385.65 388.85 378.32"/><polygon class="cls-4" points="394.84 367.75 391.46 375.28 399.15 377.04 401.27 372.33 394.84 367.75"/><polygon class="cls-4" points="394.16 355.62 395.39 363.78 402.81 361.1 402.05 356 394.16 355.62"/><polygon class="cls-4" points="387.03 345.77 392.47 351.98 397.27 345.71 393.87 341.83 387.03 345.77"/><circle class="cls-4" cx="373.84" cy="362.84" r="5.89"/><circle class="cls-4" cx="373.84" cy="362.84" r="9.55"/><line class="cls-4" x1="380.86" y1="378.46" x2="379.73" y2="370.36"/><line class="cls-4" x1="382.86" y1="359.7" x2="388.98" y2="354.84"/><circle class="cls-4" cx="373.84" cy="362.89" r="5.89"/><circle class="cls-4" cx="373.88" cy="362.86" r="5.89"/><path class="cls-4" d="M379.86,341.87a21.82,21.82,0,1,0,14.95,27A21.81,21.81,0,0,0,379.86,341.87Zm-14.47,35.89-.08-.05a17.13,17.13,0,0,1-8.48-16.56l7.59,3.05a9.51,9.51,0,0,0,4.67,6.95,9.78,9.78,0,0,0,3,1.11l1.14,7.73A17.08,17.08,0,0,1,365.39,377.76Zm3.67-23.17a9.38,9.38,0,0,0-2.45,2l-7.27-2.88a17,17,0,0,1,5.85-5.67l.08-.05a17.14,17.14,0,0,1,18.58,1l-6.43,5A9.51,9.51,0,0,0,369.06,354.59Zm11.82,23.87-1.15-8.09a9.49,9.49,0,0,0,3.15-10.67l6.13-4.86a17.16,17.16,0,0,1,2,7.91v.09A17.12,17.12,0,0,1,380.88,378.46Z"/><circle class="cls-4" cx="373.97" cy="362.84" r="9.55"/><circle class="cls-4" cx="374.01" cy="362.86" r="5.89"/><polygon class="cls-3" points="450.94 350.85 458.96 352.81 459.3 344.93 454.28 343.7 450.94 350.85"/><polygon class="cls-3" points="439.13 353.73 446.94 351.04 442.96 344.22 438.08 345.9 439.13 353.73"/><polygon class="cls-3" points="430.75 362.52 435.87 356.04 428.83 352.46 425.63 356.51 430.75 362.52"/><polygon class="cls-3" points="428.46 374.46 429.26 366.24 421.4 367.03 420.9 372.17 428.46 374.46"/><polygon class="cls-3" points="432.98 385.74 429.21 378.39 423.03 383.31 425.39 387.89 432.98 385.74"/><polygon class="cls-3" points="442.88 392.78 435.74 388.64 433.2 396.12 437.66 398.7 442.88 392.78"/><polygon class="cls-3" points="455.02 393.36 446.77 393.73 448.67 401.39 453.83 401.16 455.02 393.36"/><polygon class="cls-3" points="465.54 387.27 458.81 392.05 464.55 397.47 468.76 394.48 465.54 387.27"/><polygon class="cls-3" points="471.11 376.47 468.02 384.13 475.78 385.58 477.71 380.8 471.11 376.47"/><polygon class="cls-3" points="469.94 364.37 471.49 372.48 478.81 369.51 477.84 364.44 469.94 364.37"/><polygon class="cls-3" points="462.43 354.82 468.12 360.81 472.66 354.36 469.11 350.62 462.43 354.82"/><polygon class="cls-3" points="450.94 350.85 458.96 352.81 459.3 344.93 454.28 343.7 450.94 350.85"/><polygon class="cls-3" points="439.13 353.73 446.94 351.04 442.96 344.22 438.08 345.9 439.13 353.73"/><polygon class="cls-3" points="430.75 362.52 435.87 356.04 428.83 352.46 425.63 356.51 430.75 362.52"/><polygon class="cls-3" points="428.46 374.46 429.26 366.24 421.4 367.03 420.9 372.17 428.46 374.46"/><polygon class="cls-3" points="432.98 385.74 429.21 378.39 423.03 383.31 425.39 387.89 432.98 385.74"/><polygon class="cls-3" points="442.88 392.78 435.74 388.64 433.2 396.12 437.66 398.7 442.88 392.78"/><polygon class="cls-3" points="455.02 393.36 446.77 393.73 448.67 401.39 453.83 401.16 455.02 393.36"/><polygon class="cls-3" points="465.54 387.27 458.81 392.05 464.55 397.47 468.76 394.48 465.54 387.27"/><polygon class="cls-3" points="471.11 376.47 468.02 384.13 475.78 385.58 477.71 380.8 471.11 376.47"/><polygon class="cls-3" points="469.94 364.37 471.49 372.48 478.81 369.51 477.84 364.44 469.94 364.37"/><polygon class="cls-3" points="462.43 354.82 468.12 360.81 472.66 354.36 469.11 350.62 462.43 354.82"/><circle class="cls-3" cx="449.93" cy="372.4" r="5.89"/><circle class="cls-3" cx="449.93" cy="372.4" r="9.55"/><line class="cls-3" x1="457.56" y1="387.73" x2="456.11" y2="379.68"/><line class="cls-3" x1="458.82" y1="368.9" x2="464.74" y2="363.81"/><circle class="cls-3" cx="449.93" cy="372.44" r="5.89"/><circle class="cls-3" cx="449.97" cy="372.41" r="5.89"/><path class="cls-3" d="M455.11,351.2a21.82,21.82,0,1,0,16,26.38A21.82,21.82,0,0,0,455.11,351.2Zm-13,36.44-.08-.05a17.1,17.1,0,0,1-9.12-16.21l7.69,2.75a9.53,9.53,0,0,0,8,7.75l1.45,7.68A17.07,17.07,0,0,1,442.07,387.64Zm2.75-23.3a9.55,9.55,0,0,0-2.37,2.14l-7.38-2.59a17,17,0,0,1,5.63-5.9l.08-.05a17.12,17.12,0,0,1,18.6.21l-6.23,5.29A9.54,9.54,0,0,0,444.82,364.34Zm12.76,23.39-1.47-8A9.54,9.54,0,0,0,459.5,372a9.76,9.76,0,0,0-.66-3.12l5.93-5.09a17.1,17.1,0,0,1,2.29,7.82v.09A17.12,17.12,0,0,1,457.58,387.73Z"/><circle class="cls-3" cx="450.06" cy="372.39" r="9.55"/><circle class="cls-3" cx="450.1" cy="372.41" r="5.89"/><polygon class="cls-4" points="528.11 330.39 536.04 332.67 536.69 324.81 531.73 323.38 528.11 330.39"/><polygon class="cls-4" points="516.19 332.8 524.1 330.42 520.39 323.45 515.45 324.94 516.19 332.8"/><polygon class="cls-4" points="507.47 341.25 512.84 334.98 505.95 331.13 502.59 335.05 507.47 341.25"/><polygon class="cls-4" points="504.7 353.09 505.83 344.91 497.95 345.39 497.25 350.5 504.7 353.09"/><polygon class="cls-4" points="508.77 364.54 505.3 357.05 498.93 361.71 501.1 366.39 508.77 364.54"/><polygon class="cls-4" points="518.39 371.97 511.42 367.55 508.58 374.92 512.94 377.68 518.39 371.97"/><polygon class="cls-4" points="530.5 373.02 522.24 373.08 523.84 380.81 529 380.77 530.5 373.02"/><polygon class="cls-4" points="541.25 367.37 534.33 371.87 539.86 377.51 544.18 374.69 541.25 367.37"/><polygon class="cls-4" points="547.24 356.79 543.86 364.32 551.55 366.08 553.66 361.37 547.24 356.79"/><polygon class="cls-4" points="546.56 344.66 547.78 352.82 555.21 350.14 554.44 345.04 546.56 344.66"/><polygon class="cls-4" points="539.43 334.82 544.87 341.02 549.67 334.75 546.26 330.88 539.43 334.82"/><polygon class="cls-4" points="528.11 330.39 536.04 332.67 536.69 324.81 531.73 323.38 528.11 330.39"/><polygon class="cls-4" points="516.19 332.8 524.1 330.42 520.39 323.45 515.45 324.94 516.19 332.8"/><polygon class="cls-4" points="507.47 341.25 512.84 334.98 505.95 331.13 502.59 335.05 507.47 341.25"/><polygon class="cls-4" points="504.7 353.09 505.83 344.91 497.95 345.39 497.25 350.5 504.7 353.09"/><polygon class="cls-4" points="508.77 364.54 505.3 357.05 498.93 361.71 501.1 366.39 508.77 364.54"/><polygon class="cls-4" points="518.39 371.97 511.42 367.55 508.58 374.92 512.94 377.68 518.39 371.97"/><polygon class="cls-4" points="530.5 373.02 522.24 373.08 523.84 380.81 529 380.77 530.5 373.02"/><polygon class="cls-4" points="541.25 367.37 534.33 371.87 539.86 377.51 544.18 374.69 541.25 367.37"/><polygon class="cls-4" points="547.24 356.79 543.86 364.32 551.55 366.08 553.66 361.37 547.24 356.79"/><polygon class="cls-4" points="546.56 344.66 547.78 352.82 555.21 350.14 554.44 345.04 546.56 344.66"/><polygon class="cls-4" points="539.43 334.82 544.87 341.02 549.67 334.75 546.26 330.88 539.43 334.82"/><circle class="cls-4" cx="526.24" cy="351.88" r="5.89"/><circle class="cls-4" cx="526.24" cy="351.88" r="9.55"/><line class="cls-4" x1="533.25" y1="367.5" x2="532.13" y2="359.4"/><line class="cls-4" x1="535.26" y1="348.74" x2="541.38" y2="343.89"/><circle class="cls-4" cx="526.24" cy="351.93" r="5.89"/><circle class="cls-4" cx="526.28" cy="351.9" r="5.89"/><path class="cls-4" d="M532.25,330.91a21.82,21.82,0,1,0,15,27A21.82,21.82,0,0,0,532.25,330.91ZM517.78,366.8l-.08-.05a17.12,17.12,0,0,1-8.47-16.56l7.58,3.05a9.49,9.49,0,0,0,7.67,8.06l1.14,7.73A17,17,0,0,1,517.78,366.8Zm3.67-23.17a9.55,9.55,0,0,0-2.45,2l-7.27-2.88a17,17,0,0,1,5.86-5.67l.08,0a17.12,17.12,0,0,1,18.58.94l-6.43,5A9.53,9.53,0,0,0,521.45,343.63Zm11.83,23.87-1.15-8.09a9.49,9.49,0,0,0,3.15-10.67l6.12-4.85a17.1,17.1,0,0,1,2,7.9v.09A17.12,17.12,0,0,1,533.28,367.5Z"/><circle class="cls-4" cx="526.37" cy="351.88" r="9.55"/><circle class="cls-4" cx="526.41" cy="351.9" r="5.89"/><g class="cls-5"><circle class="cls-6" cx="408.69" cy="252.35" r="116.85"/><circle class="cls-7" cx="491.31" cy="334.98" r="116.85"/></g><circle class="cls-2" cx="367.34" cy="257.51" r="62.64"/><circle class="cls-2" cx="367.34" cy="257.51" r="62.64"/><circle class="cls-2" cx="367.34" cy="257.51" r="62.64"/><circle class="cls-2" cx="367.34" cy="257.51" r="62.64"/><circle class="cls-2" cx="367.34" cy="257.51" r="62.64"/><circle class="cls-2" cx="367.34" cy="257.51" r="62.64"/><circle class="cls-2" cx="367.34" cy="257.51" r="62.64"/><circle class="cls-2" cx="367.34" cy="257.51" r="62.64"/><circle class="cls-2" cx="367.34" cy="257.51" r="62.64"/><circle class="cls-2" cx="367.34" cy="257.51" r="62.64"/><circle class="cls-2" cx="367.34" cy="257.51" r="62.64"/><circle class="cls-2" cx="367.34" cy="257.51" r="62.64"/><circle class="cls-2" cx="367.34" cy="257.51" r="62.64"/><circle class="cls-2" cx="367.34" cy="257.51" r="62.64"/><circle class="cls-2" cx="367.34" cy="257.51" r="62.64"/><circle class="cls-2" cx="367.34" cy="257.51" r="62.64"/><circle class="cls-2" cx="367.34" cy="257.51" r="62.64"/><circle class="cls-2" cx="367.34" cy="257.51" r="62.64"/><circle class="cls-2" cx="367.34" cy="257.51" r="62.64"/><circle class="cls-2" cx="367.34" cy="257.51" r="62.64"/><circle class="cls-2" cx="367.34" cy="257.51" r="62.64"/><circle class="cls-2" cx="367.34" cy="257.51" r="62.64"/><circle class="cls-2" cx="367.34" cy="257.51" r="62.64"/><circle class="cls-2" cx="367.34" cy="257.51" r="62.64"/><circle class="cls-2" cx="367.34" cy="257.51" r="62.64"/><circle class="cls-2" cx="367.34" cy="257.51" r="62.64"/><circle class="cls-2" cx="367.32" cy="257.57" r="62.64"/><circle class="cls-2" cx="367.32" cy="257.57" r="62.64"/><circle class="cls-2" cx="367.32" cy="257.57" r="62.64"/><circle class="cls-2" cx="367.32" cy="257.57" r="62.64"/><circle class="cls-2" cx="367.32" cy="257.57" r="62.64"/><circle class="cls-2" cx="367.32" cy="257.57" r="62.64"/><circle class="cls-2" cx="367.32" cy="257.57" r="62.64"/><circle class="cls-2" cx="367.32" cy="257.57" r="62.64"/><circle class="cls-2" cx="367.32" cy="257.57" r="62.64"/><circle class="cls-2" cx="367.32" cy="257.57" r="62.64"/><circle class="cls-2" cx="367.32" cy="257.57" r="62.64"/><circle class="cls-2" cx="367.32" cy="257.57" r="62.64"/><circle class="cls-2" cx="367.32" cy="257.57" r="62.64"/><circle class="cls-2" cx="367.32" cy="257.57" r="62.64"/><circle class="cls-2" cx="367.32" cy="257.57" r="62.64"/><circle class="cls-2" cx="367.32" cy="257.57" r="62.64"/><circle class="cls-2" cx="367.32" cy="257.57" r="62.64"/><circle class="cls-2" cx="367.32" cy="257.57" r="62.64"/><circle class="cls-2" cx="367.32" cy="257.57" r="62.64"/><circle class="cls-2" cx="367.32" cy="257.57" r="62.64"/><circle class="cls-2" cx="367.32" cy="257.57" r="62.64"/><circle class="cls-2" cx="367.32" cy="257.57" r="62.64"/><circle class="cls-2" cx="367.32" cy="257.57" r="62.64"/><circle class="cls-2" cx="367.32" cy="257.57" r="62.64"/><circle class="cls-2" cx="367.32" cy="257.57" r="62.64"/><circle class="cls-2" cx="367.32" cy="257.57" r="62.64"/><circle class="cls-2" cx="367.32" cy="257.63" r="62.64"/><circle class="cls-2" cx="367.32" cy="257.63" r="62.64"/><circle class="cls-2" cx="367.32" cy="257.63" r="62.64"/><circle class="cls-2" cx="367.32" cy="257.63" r="62.64"/><circle class="cls-2" cx="367.32" cy="257.63" r="62.64"/><circle class="cls-2" cx="367.32" cy="257.63" r="62.64"/><circle class="cls-2" cx="367.32" cy="257.63" r="62.64"/><circle class="cls-2" cx="367.32" cy="257.63" r="62.64"/><circle class="cls-2" cx="367.32" cy="257.63" r="62.64"/><circle class="cls-2" cx="367.32" cy="257.63" r="62.64"/><circle class="cls-2" cx="367.32" cy="257.63" r="62.64"/><circle class="cls-2" cx="367.32" cy="257.63" r="62.64"/><circle class="cls-2" cx="367.32" cy="257.63" r="62.64"/><circle class="cls-2" cx="367.32" cy="257.63" r="62.64"/><circle class="cls-2" cx="367.32" cy="257.63" r="62.64"/><circle class="cls-2" cx="367.32" cy="257.63" r="62.64"/><circle class="cls-2" cx="367.32" cy="257.63" r="62.64"/><circle class="cls-2" cx="367.32" cy="257.63" r="62.64"/><circle class="cls-2" cx="367.32" cy="257.63" r="62.64"/><circle class="cls-2" cx="367.32" cy="257.63" r="62.64"/><circle class="cls-2" cx="367.32" cy="257.63" r="62.64"/><circle class="cls-2" cx="367.32" cy="257.63" r="62.64"/><circle class="cls-2" cx="367.32" cy="257.63" r="62.64"/><circle class="cls-2" cx="367.32" cy="257.63" r="62.64"/><circle class="cls-2" cx="367.32" cy="257.63" r="62.64"/><circle class="cls-2" cx="367.32" cy="257.63" r="62.64"/><circle class="cls-2" cx="367.34" cy="257.7" r="62.64"/><circle class="cls-2" cx="367.34" cy="257.7" r="62.64"/><circle class="cls-2" cx="367.34" cy="257.7" r="62.64"/><circle class="cls-2" cx="367.34" cy="257.7" r="62.64"/><circle class="cls-2" cx="367.34" cy="257.7" r="62.64"/><circle class="cls-2" cx="367.34" cy="257.7" r="62.64"/><circle class="cls-2" cx="367.34" cy="257.7" r="62.64"/><circle class="cls-2" cx="367.34" cy="257.7" r="62.64"/><circle class="cls-2" cx="367.34" cy="257.7" r="62.64"/><circle class="cls-2" cx="367.34" cy="257.7" r="62.64"/><circle class="cls-2" cx="367.34" cy="257.7" r="62.64"/><circle class="cls-2" cx="367.34" cy="257.7" r="62.64"/><circle class="cls-2" cx="367.34" cy="257.7" r="62.64"/><circle class="cls-2" cx="367.34" cy="257.7" r="62.64"/><circle class="cls-2" cx="367.34" cy="257.7" r="62.64"/><circle class="cls-2" cx="367.34" cy="257.7" r="62.64"/><circle class="cls-2" cx="367.34" cy="257.7" r="62.64"/><circle class="cls-2" cx="367.34" cy="257.7" r="62.64"/><circle class="cls-2" cx="367.34" cy="257.7" r="62.64"/><circle class="cls-2" cx="367.34" cy="257.7" r="62.64"/><circle class="cls-2" cx="367.34" cy="257.7" r="62.64"/><circle class="cls-2" cx="367.34" cy="257.7" r="62.64"/><circle class="cls-2" cx="367.34" cy="257.7" r="62.64"/><circle class="cls-2" cx="367.34" cy="257.7" r="62.64"/><circle class="cls-2" cx="367.34" cy="257.7" r="62.64"/><circle class="cls-2" cx="367.34" cy="257.7" r="62.64"/><circle class="cls-2" cx="367.38" cy="257.75" r="62.64"/><circle class="cls-2" cx="367.38" cy="257.75" r="62.64"/><circle class="cls-2" cx="367.38" cy="257.75" r="62.64"/><circle class="cls-2" cx="367.38" cy="257.75" r="62.64"/><circle class="cls-2" cx="367.38" cy="257.75" r="62.64"/><circle class="cls-2" cx="367.38" cy="257.75" r="62.64"/><circle class="cls-2" cx="367.38" cy="257.75" r="62.64"/><circle class="cls-2" cx="367.38" cy="257.75" r="62.64"/><circle class="cls-2" cx="367.38" cy="257.75" r="62.64"/><circle class="cls-2" cx="367.38" cy="257.75" r="62.64"/><circle class="cls-2" cx="367.38" cy="257.75" r="62.64"/><circle class="cls-2" cx="367.38" cy="257.75" r="62.64"/><circle class="cls-2" cx="367.38" cy="257.75" r="62.64"/><circle class="cls-2" cx="367.38" cy="257.75" r="62.64"/><circle class="cls-2" cx="367.38" cy="257.75" r="62.64"/><circle class="cls-2" cx="367.38" cy="257.75" r="62.64"/><circle class="cls-2" cx="367.38" cy="257.75" r="62.64"/><circle class="cls-2" cx="367.38" cy="257.75" r="62.64"/><circle class="cls-2" cx="367.38" cy="257.75" r="62.64"/><circle class="cls-2" cx="367.38" cy="257.75" r="62.64"/><circle class="cls-2" cx="367.38" cy="257.75" r="62.64"/><circle class="cls-2" cx="367.38" cy="257.75" r="62.64"/><circle class="cls-2" cx="367.38" cy="257.75" r="62.64"/><circle class="cls-2" cx="367.38" cy="257.75" r="62.64"/><circle class="cls-2" cx="367.38" cy="257.75" r="62.64"/><circle class="cls-2" cx="367.38" cy="257.75" r="62.64"/><circle class="cls-2" cx="367.43" cy="257.8" r="62.64"/><circle class="cls-2" cx="367.43" cy="257.8" r="62.64"/><circle class="cls-2" cx="367.43" cy="257.8" r="62.64"/><circle class="cls-2" cx="367.43" cy="257.8" r="62.64"/><circle class="cls-2" cx="367.43" cy="257.8" r="62.64"/><circle class="cls-2" cx="367.43" cy="257.8" r="62.64"/><circle class="cls-2" cx="367.43" cy="257.8" r="62.64"/><circle class="cls-2" cx="367.43" cy="257.8" r="62.64"/><circle class="cls-2" cx="367.43" cy="257.8" r="62.64"/><circle class="cls-2" cx="367.43" cy="257.8" r="62.64"/><circle class="cls-2" cx="367.43" cy="257.8" r="62.64"/><circle class="cls-2" cx="367.43" cy="257.8" r="62.64"/><circle class="cls-2" cx="367.43" cy="257.8" r="62.64"/><circle class="cls-2" cx="367.43" cy="257.8" r="62.64"/><circle class="cls-2" cx="367.43" cy="257.8" r="62.64"/><circle class="cls-2" cx="367.43" cy="257.8" r="62.64"/><circle class="cls-2" cx="367.43" cy="257.8" r="62.64"/><circle class="cls-2" cx="367.43" cy="257.8" r="62.64"/><circle class="cls-2" cx="367.43" cy="257.8" r="62.64"/><circle class="cls-2" cx="367.43" cy="257.8" r="62.64"/><circle class="cls-2" cx="367.43" cy="257.8" r="62.64"/><circle class="cls-2" cx="367.43" cy="257.8" r="62.64"/><circle class="cls-2" cx="367.43" cy="257.8" r="62.64"/><circle class="cls-2" cx="367.43" cy="257.8" r="62.64"/><circle class="cls-2" cx="367.43" cy="257.8" r="62.64"/><circle class="cls-2" cx="367.43" cy="257.8" r="62.64"/><circle class="cls-2" cx="367.48" cy="257.82" r="62.64"/><circle class="cls-2" cx="367.48" cy="257.82" r="62.64"/><circle class="cls-2" cx="367.48" cy="257.82" r="62.64"/><circle class="cls-2" cx="367.48" cy="257.82" r="62.64"/><circle class="cls-2" cx="367.48" cy="257.82" r="62.64"/><circle class="cls-2" cx="367.48" cy="257.82" r="62.64"/><circle class="cls-2" cx="367.48" cy="257.82" r="62.64"/><circle class="cls-2" cx="367.48" cy="257.82" r="62.64"/><circle class="cls-2" cx="367.48" cy="257.82" r="62.64"/><circle class="cls-2" cx="367.48" cy="257.82" r="62.64"/><circle class="cls-2" cx="367.48" cy="257.82" r="62.64"/><circle class="cls-2" cx="367.48" cy="257.82" r="62.64"/><circle class="cls-2" cx="367.48" cy="257.82" r="62.64"/><circle class="cls-2" cx="367.48" cy="257.82" r="62.64"/><circle class="cls-2" cx="367.48" cy="257.82" r="62.64"/><circle class="cls-2" cx="367.48" cy="257.82" r="62.64"/><circle class="cls-2" cx="367.48" cy="257.82" r="62.64"/><circle class="cls-2" cx="367.48" cy="257.82" r="62.64"/><circle class="cls-2" cx="367.48" cy="257.82" r="62.64"/><circle class="cls-2" cx="367.48" cy="257.82" r="62.64"/><circle class="cls-2" cx="367.48" cy="257.82" r="62.64"/><circle class="cls-2" cx="367.48" cy="257.82" r="62.64"/><circle class="cls-2" cx="367.48" cy="257.82" r="62.64"/><circle class="cls-2" cx="367.48" cy="257.82" r="62.64"/><circle class="cls-2" cx="367.48" cy="257.82" r="62.64"/><circle class="cls-2" cx="367.48" cy="257.82" r="62.64"/><circle class="cls-2" cx="367.55" cy="257.84" r="62.64"/><circle class="cls-2" cx="367.55" cy="257.84" r="62.64"/><circle class="cls-2" cx="367.55" cy="257.84" r="62.64"/><circle class="cls-2" cx="367.55" cy="257.84" r="62.64"/><circle class="cls-2" cx="367.55" cy="257.84" r="62.64"/><circle class="cls-2" cx="367.55" cy="257.84" r="62.64"/><circle class="cls-2" cx="367.55" cy="257.84" r="62.64"/><circle class="cls-2" cx="367.55" cy="257.84" r="62.64"/><circle class="cls-2" cx="367.55" cy="257.84" r="62.64"/><circle class="cls-2" cx="367.55" cy="257.84" r="62.64"/><circle class="cls-2" cx="367.55" cy="257.84" r="62.64"/><circle class="cls-2" cx="367.55" cy="257.84" r="62.64"/><circle class="cls-2" cx="367.55" cy="257.84" r="62.64"/><circle class="cls-2" cx="367.55" cy="257.84" r="62.64"/><circle class="cls-2" cx="367.55" cy="257.84" r="62.64"/><circle class="cls-2" cx="367.55" cy="257.84" r="62.64"/><circle class="cls-2" cx="367.55" cy="257.84" r="62.64"/><circle class="cls-2" cx="367.55" cy="257.84" r="62.64"/><circle class="cls-2" cx="367.55" cy="257.84" r="62.64"/><circle class="cls-2" cx="367.55" cy="257.84" r="62.64"/><circle class="cls-2" cx="367.55" cy="257.84" r="62.64"/><circle class="cls-2" cx="367.55" cy="257.84" r="62.64"/><circle class="cls-2" cx="367.55" cy="257.84" r="62.64"/><circle class="cls-2" cx="367.55" cy="257.84" r="62.64"/><circle class="cls-2" cx="367.55" cy="257.84" r="62.64"/><circle class="cls-2" cx="367.55" cy="257.84" r="62.64"/><circle class="cls-2" cx="367.61" cy="257.83" r="62.64"/><circle class="cls-2" cx="367.61" cy="257.83" r="62.64"/><circle class="cls-2" cx="367.61" cy="257.83" r="62.64"/><circle class="cls-2" cx="367.61" cy="257.83" r="62.64"/><circle class="cls-2" cx="367.61" cy="257.83" r="62.64"/><circle class="cls-2" cx="367.61" cy="257.83" r="62.64"/><circle class="cls-2" cx="367.61" cy="257.83" r="62.64"/><circle class="cls-2" cx="367.61" cy="257.83" r="62.64"/><circle class="cls-2" cx="367.61" cy="257.83" r="62.64"/><circle class="cls-2" cx="367.61" cy="257.83" r="62.64"/><circle class="cls-2" cx="367.61" cy="257.83" r="62.64"/><circle class="cls-2" cx="367.61" cy="257.83" r="62.64"/><circle class="cls-2" cx="367.61" cy="257.83" r="62.64"/><circle class="cls-2" cx="367.61" cy="257.83" r="62.64"/><circle class="cls-2" cx="367.61" cy="257.83" r="62.64"/><circle class="cls-2" cx="367.61" cy="257.83" r="62.64"/><circle class="cls-2" cx="367.61" cy="257.83" r="62.64"/><circle class="cls-2" cx="367.61" cy="257.83" r="62.64"/><circle class="cls-2" cx="367.61" cy="257.83" r="62.64"/><circle class="cls-2" cx="367.61" cy="257.83" r="62.64"/><circle class="cls-2" cx="367.61" cy="257.83" r="62.64"/><circle class="cls-2" cx="367.61" cy="257.83" r="62.64"/><circle class="cls-2" cx="367.61" cy="257.83" r="62.64"/><circle class="cls-2" cx="367.61" cy="257.83" r="62.64"/><circle class="cls-2" cx="367.61" cy="257.83" r="62.64"/><circle class="cls-2" cx="367.61" cy="257.83" r="62.64"/><circle class="cls-2" cx="367.68" cy="257.81" r="62.64"/><circle class="cls-2" cx="367.68" cy="257.81" r="62.64"/><circle class="cls-2" cx="367.68" cy="257.81" r="62.64"/><circle class="cls-2" cx="367.68" cy="257.81" r="62.64"/><circle class="cls-2" cx="367.68" cy="257.81" r="62.64"/><circle class="cls-2" cx="367.68" cy="257.81" r="62.64"/><circle class="cls-2" cx="367.68" cy="257.81" r="62.64"/><circle class="cls-2" cx="367.68" cy="257.81" r="62.64"/><circle class="cls-2" cx="367.68" cy="257.81" r="62.64"/><circle class="cls-2" cx="367.68" cy="257.81" r="62.64"/><circle class="cls-2" cx="367.68" cy="257.81" r="62.64"/><circle class="cls-2" cx="367.68" cy="257.81" r="62.64"/><circle class="cls-2" cx="367.68" cy="257.81" r="62.64"/><circle class="cls-2" cx="367.68" cy="257.81" r="62.64"/><circle class="cls-2" cx="367.68" cy="257.81" r="62.64"/><circle class="cls-2" cx="367.68" cy="257.81" r="62.64"/><circle class="cls-2" cx="367.68" cy="257.81" r="62.64"/><circle class="cls-2" cx="367.68" cy="257.81" r="62.64"/><circle class="cls-2" cx="367.68" cy="257.81" r="62.64"/><circle class="cls-2" cx="367.68" cy="257.81" r="62.64"/><circle class="cls-2" cx="367.68" cy="257.81" r="62.64"/><circle class="cls-2" cx="367.68" cy="257.81" r="62.64"/><circle class="cls-2" cx="367.68" cy="257.81" r="62.64"/><circle class="cls-2" cx="367.68" cy="257.81" r="62.64"/><circle class="cls-2" cx="367.68" cy="257.81" r="62.64"/><circle class="cls-2" cx="367.68" cy="257.81" r="62.64"/><circle class="cls-2" cx="367.73" cy="257.77" r="62.64"/><circle class="cls-2" cx="367.73" cy="257.77" r="62.64"/><circle class="cls-2" cx="367.73" cy="257.77" r="62.64"/><circle class="cls-2" cx="367.73" cy="257.77" r="62.64"/><circle class="cls-2" cx="367.73" cy="257.77" r="62.64"/><circle class="cls-2" cx="367.73" cy="257.77" r="62.64"/><circle class="cls-2" cx="367.73" cy="257.77" r="62.64"/><circle class="cls-2" cx="367.73" cy="257.77" r="62.64"/><circle class="cls-2" cx="367.73" cy="257.77" r="62.64"/><circle class="cls-2" cx="367.73" cy="257.77" r="62.64"/><circle class="cls-2" cx="367.73" cy="257.77" r="62.64"/><circle class="cls-2" cx="367.73" cy="257.77" r="62.64"/><circle class="cls-2" cx="367.73" cy="257.77" r="62.64"/><circle class="cls-2" cx="367.73" cy="257.77" r="62.64"/><circle class="cls-2" cx="367.73" cy="257.77" r="62.64"/><circle class="cls-2" cx="367.73" cy="257.77" r="62.64"/><circle class="cls-2" cx="367.73" cy="257.77" r="62.64"/><circle class="cls-2" cx="367.73" cy="257.77" r="62.64"/><circle class="cls-2" cx="367.73" cy="257.77" r="62.64"/><circle class="cls-2" cx="367.73" cy="257.77" r="62.64"/><circle class="cls-2" cx="367.73" cy="257.77" r="62.64"/><circle class="cls-2" cx="367.73" cy="257.77" r="62.64"/><circle class="cls-2" cx="367.73" cy="257.77" r="62.64"/><circle class="cls-2" cx="367.73" cy="257.77" r="62.64"/><circle class="cls-2" cx="367.73" cy="257.77" r="62.64"/><circle class="cls-2" cx="367.73" cy="257.77" r="62.64"/><circle class="cls-2" cx="367.77" cy="257.72" r="62.64"/><circle class="cls-2" cx="367.77" cy="257.72" r="62.64"/><circle class="cls-2" cx="367.77" cy="257.72" r="62.64"/><circle class="cls-2" cx="367.77" cy="257.72" r="62.64"/><circle class="cls-2" cx="367.77" cy="257.72" r="62.64"/><circle class="cls-2" cx="367.77" cy="257.72" r="62.64"/><circle class="cls-2" cx="367.77" cy="257.72" r="62.64"/><circle class="cls-2" cx="367.77" cy="257.72" r="62.64"/><circle class="cls-2" cx="367.77" cy="257.72" r="62.64"/><circle class="cls-2" cx="367.77" cy="257.72" r="62.64"/><circle class="cls-2" cx="367.77" cy="257.72" r="62.64"/><circle class="cls-2" cx="367.77" cy="257.72" r="62.64"/><circle class="cls-2" cx="367.77" cy="257.72" r="62.64"/><circle class="cls-2" cx="367.77" cy="257.72" r="62.64"/><circle class="cls-2" cx="367.77" cy="257.72" r="62.64"/><circle class="cls-2" cx="367.77" cy="257.72" r="62.64"/><circle class="cls-2" cx="367.77" cy="257.72" r="62.64"/><circle class="cls-2" cx="367.77" cy="257.72" r="62.64"/><circle class="cls-2" cx="367.77" cy="257.72" r="62.64"/><circle class="cls-2" cx="367.77" cy="257.72" r="62.64"/><circle class="cls-2" cx="367.77" cy="257.72" r="62.64"/><circle class="cls-2" cx="367.77" cy="257.72" r="62.64"/><circle class="cls-2" cx="367.77" cy="257.72" r="62.64"/><circle class="cls-2" cx="367.77" cy="257.72" r="62.64"/><circle class="cls-2" cx="367.77" cy="257.72" r="62.64"/><circle class="cls-2" cx="367.77" cy="257.72" r="62.64"/><circle class="cls-2" cx="367.79" cy="257.66" r="62.64"/><circle class="cls-2" cx="367.79" cy="257.66" r="62.64"/><circle class="cls-2" cx="367.79" cy="257.66" r="62.64"/><circle class="cls-2" cx="367.79" cy="257.66" r="62.64"/><circle class="cls-2" cx="367.79" cy="257.66" r="62.64"/><circle class="cls-2" cx="367.79" cy="257.66" r="62.64"/><circle class="cls-2" cx="367.79" cy="257.66" r="62.64"/><circle class="cls-2" cx="367.79" cy="257.66" r="62.64"/><circle class="cls-2" cx="367.79" cy="257.66" r="62.64"/><circle class="cls-2" cx="367.79" cy="257.66" r="62.64"/><circle class="cls-2" cx="367.79" cy="257.66" r="62.64"/><circle class="cls-2" cx="367.79" cy="257.66" r="62.64"/><circle class="cls-2" cx="367.79" cy="257.66" r="62.64"/><circle class="cls-2" cx="367.79" cy="257.66" r="62.64"/><circle class="cls-2" cx="367.79" cy="257.66" r="62.64"/><circle class="cls-2" cx="367.79" cy="257.66" r="62.64"/><circle class="cls-2" cx="367.79" cy="257.66" r="62.64"/><circle class="cls-2" cx="367.79" cy="257.66" r="62.64"/><circle class="cls-2" cx="367.79" cy="257.66" r="62.64"/><circle class="cls-2" cx="367.79" cy="257.66" r="62.64"/><circle class="cls-2" cx="367.79" cy="257.66" r="62.64"/><circle class="cls-2" cx="367.79" cy="257.66" r="62.64"/><circle class="cls-2" cx="367.79" cy="257.66" r="62.64"/><circle class="cls-2" cx="367.79" cy="257.66" r="62.64"/><circle class="cls-2" cx="367.79" cy="257.66" r="62.64"/><circle class="cls-2" cx="367.79" cy="257.66" r="62.64"/><circle class="cls-2" cx="367.8" cy="257.59" r="62.64"/><circle class="cls-2" cx="367.8" cy="257.59" r="62.64"/><circle class="cls-2" cx="367.8" cy="257.59" r="62.64"/><circle class="cls-2" cx="367.8" cy="257.59" r="62.64"/><circle class="cls-2" cx="367.8" cy="257.59" r="62.64"/><circle class="cls-2" cx="367.8" cy="257.59" r="62.64"/><circle class="cls-2" cx="367.8" cy="257.59" r="62.64"/><circle class="cls-2" cx="367.8" cy="257.59" r="62.64"/><circle class="cls-2" cx="367.8" cy="257.59" r="62.64"/><circle class="cls-2" cx="367.8" cy="257.59" r="62.64"/><circle class="cls-2" cx="367.8" cy="257.59" r="62.64"/><circle class="cls-2" cx="367.8" cy="257.59" r="62.64"/><circle class="cls-2" cx="367.8" cy="257.59" r="62.64"/><circle class="cls-2" cx="367.8" cy="257.59" r="62.64"/><circle class="cls-2" cx="367.8" cy="257.59" r="62.64"/><circle class="cls-2" cx="367.8" cy="257.59" r="62.64"/><circle class="cls-2" cx="367.8" cy="257.59" r="62.64"/><circle class="cls-2" cx="367.8" cy="257.59" r="62.64"/><circle class="cls-2" cx="367.8" cy="257.59" r="62.64"/><circle class="cls-2" cx="367.8" cy="257.59" r="62.64"/><circle class="cls-2" cx="367.8" cy="257.59" r="62.64"/><circle class="cls-2" cx="367.8" cy="257.59" r="62.64"/><circle class="cls-2" cx="367.8" cy="257.59" r="62.64"/><circle class="cls-2" cx="367.8" cy="257.59" r="62.64"/><circle class="cls-2" cx="367.8" cy="257.59" r="62.64"/><circle class="cls-2" cx="367.8" cy="257.59" r="62.64"/><circle class="cls-2" cx="367.79" cy="257.53" r="62.64"/><circle class="cls-2" cx="367.79" cy="257.53" r="62.64"/><circle class="cls-2" cx="367.79" cy="257.53" r="62.64"/><circle class="cls-2" cx="367.79" cy="257.53" r="62.64"/><circle class="cls-2" cx="367.79" cy="257.53" r="62.64"/><circle class="cls-2" cx="367.79" cy="257.53" r="62.64"/><circle class="cls-2" cx="367.79" cy="257.53" r="62.64"/><circle class="cls-2" cx="367.79" cy="257.53" r="62.64"/><circle class="cls-2" cx="367.79" cy="257.53" r="62.64"/><circle class="cls-2" cx="367.79" cy="257.53" r="62.64"/><circle class="cls-2" cx="367.79" cy="257.53" r="62.64"/><circle class="cls-2" cx="367.79" cy="257.53" r="62.64"/><circle class="cls-2" cx="367.79" cy="257.53" r="62.64"/><circle class="cls-2" cx="367.79" cy="257.53" r="62.64"/><circle class="cls-2" cx="367.79" cy="257.53" r="62.64"/><circle class="cls-2" cx="367.79" cy="257.53" r="62.64"/><circle class="cls-2" cx="367.79" cy="257.53" r="62.64"/><circle class="cls-2" cx="367.79" cy="257.53" r="62.64"/><circle class="cls-2" cx="367.79" cy="257.53" r="62.64"/><circle class="cls-2" cx="367.79" cy="257.53" r="62.64"/><circle class="cls-2" cx="367.79" cy="257.53" r="62.64"/><circle class="cls-2" cx="367.79" cy="257.53" r="62.64"/><circle class="cls-2" cx="367.79" cy="257.53" r="62.64"/><circle class="cls-2" cx="367.79" cy="257.53" r="62.64"/><circle class="cls-2" cx="367.79" cy="257.53" r="62.64"/><circle class="cls-2" cx="367.79" cy="257.53" r="62.64"/><circle class="cls-2" cx="367.76" cy="257.47" r="62.64"/><circle class="cls-2" cx="367.76" cy="257.47" r="62.64"/><circle class="cls-2" cx="367.76" cy="257.47" r="62.64"/><circle class="cls-2" cx="367.76" cy="257.47" r="62.64"/><circle class="cls-2" cx="367.76" cy="257.47" r="62.64"/><circle class="cls-2" cx="367.76" cy="257.47" r="62.64"/><circle class="cls-2" cx="367.76" cy="257.47" r="62.64"/><circle class="cls-2" cx="367.76" cy="257.47" r="62.64"/><circle class="cls-2" cx="367.76" cy="257.47" r="62.64"/><circle class="cls-2" cx="367.76" cy="257.47" r="62.64"/><circle class="cls-2" cx="367.76" cy="257.47" r="62.64"/><circle class="cls-2" cx="367.76" cy="257.47" r="62.64"/><circle class="cls-2" cx="367.76" cy="257.47" r="62.64"/><circle class="cls-2" cx="367.76" cy="257.47" r="62.64"/><circle class="cls-2" cx="367.76" cy="257.47" r="62.64"/><circle class="cls-2" cx="367.76" cy="257.47" r="62.64"/><circle class="cls-2" cx="367.76" cy="257.47" r="62.64"/><circle class="cls-2" cx="367.76" cy="257.47" r="62.64"/><circle class="cls-2" cx="367.76" cy="257.47" r="62.64"/><circle class="cls-2" cx="367.76" cy="257.47" r="62.64"/><circle class="cls-2" cx="367.76" cy="257.47" r="62.64"/><circle class="cls-2" cx="367.76" cy="257.47" r="62.64"/><circle class="cls-2" cx="367.76" cy="257.47" r="62.64"/><circle class="cls-2" cx="367.76" cy="257.47" r="62.64"/><circle class="cls-2" cx="367.76" cy="257.47" r="62.64"/><circle class="cls-2" cx="367.76" cy="257.47" r="62.64"/><circle class="cls-2" cx="367.72" cy="257.42" r="62.64"/><circle class="cls-2" cx="367.72" cy="257.42" r="62.64"/><circle class="cls-2" cx="367.72" cy="257.42" r="62.64"/><circle class="cls-2" cx="367.72" cy="257.42" r="62.64"/><circle class="cls-2" cx="367.72" cy="257.42" r="62.64"/><circle class="cls-2" cx="367.72" cy="257.42" r="62.64"/><circle class="cls-2" cx="367.72" cy="257.42" r="62.64"/><circle class="cls-2" cx="367.72" cy="257.42" r="62.64"/><circle class="cls-2" cx="367.72" cy="257.42" r="62.64"/><circle class="cls-2" cx="367.72" cy="257.42" r="62.64"/><circle class="cls-2" cx="367.72" cy="257.42" r="62.64"/><circle class="cls-2" cx="367.72" cy="257.42" r="62.64"/><circle class="cls-2" cx="367.72" cy="257.42" r="62.64"/><circle class="cls-2" cx="367.72" cy="257.42" r="62.64"/><circle class="cls-2" cx="367.72" cy="257.42" r="62.64"/><circle class="cls-2" cx="367.72" cy="257.42" r="62.64"/><circle class="cls-2" cx="367.72" cy="257.42" r="62.64"/><circle class="cls-2" cx="367.72" cy="257.42" r="62.64"/><circle class="cls-2" cx="367.72" cy="257.42" r="62.64"/><circle class="cls-2" cx="367.72" cy="257.42" r="62.64"/><circle class="cls-2" cx="367.72" cy="257.42" r="62.64"/><circle class="cls-2" cx="367.72" cy="257.42" r="62.64"/><circle class="cls-2" cx="367.72" cy="257.42" r="62.64"/><circle class="cls-2" cx="367.72" cy="257.42" r="62.64"/><circle class="cls-2" cx="367.72" cy="257.42" r="62.64"/><circle class="cls-2" cx="367.72" cy="257.42" r="62.64"/><circle class="cls-2" cx="367.67" cy="257.38" r="62.64"/><circle class="cls-2" cx="367.67" cy="257.38" r="62.64"/><circle class="cls-2" cx="367.67" cy="257.38" r="62.64"/><circle class="cls-2" cx="367.67" cy="257.38" r="62.64"/><circle class="cls-2" cx="367.67" cy="257.38" r="62.64"/><circle class="cls-2" cx="367.67" cy="257.38" r="62.64"/><circle class="cls-2" cx="367.67" cy="257.38" r="62.64"/><circle class="cls-2" cx="367.67" cy="257.38" r="62.64"/><circle class="cls-2" cx="367.67" cy="257.38" r="62.64"/><circle class="cls-2" cx="367.67" cy="257.38" r="62.64"/><circle class="cls-2" cx="367.67" cy="257.38" r="62.64"/><circle class="cls-2" cx="367.67" cy="257.38" r="62.64"/><circle class="cls-2" cx="367.67" cy="257.38" r="62.64"/><circle class="cls-2" cx="367.67" cy="257.38" r="62.64"/><circle class="cls-2" cx="367.67" cy="257.38" r="62.64"/><circle class="cls-2" cx="367.67" cy="257.38" r="62.64"/><circle class="cls-2" cx="367.67" cy="257.38" r="62.64"/><circle class="cls-2" cx="367.67" cy="257.38" r="62.64"/><circle class="cls-2" cx="367.67" cy="257.38" r="62.64"/><circle class="cls-2" cx="367.67" cy="257.38" r="62.64"/><circle class="cls-2" cx="367.67" cy="257.38" r="62.64"/><circle class="cls-2" cx="367.67" cy="257.38" r="62.64"/><circle class="cls-2" cx="367.67" cy="257.38" r="62.64"/><circle class="cls-2" cx="367.67" cy="257.38" r="62.64"/><circle class="cls-2" cx="367.67" cy="257.38" r="62.64"/><circle class="cls-2" cx="367.67" cy="257.38" r="62.64"/><circle class="cls-2" cx="367.61" cy="257.36" r="62.64"/><circle class="cls-2" cx="367.61" cy="257.36" r="62.64"/><circle class="cls-2" cx="367.61" cy="257.36" r="62.64"/><circle class="cls-2" cx="367.61" cy="257.36" r="62.64"/><circle class="cls-2" cx="367.61" cy="257.36" r="62.64"/><circle class="cls-2" cx="367.61" cy="257.36" r="62.64"/><circle class="cls-2" cx="367.61" cy="257.36" r="62.64"/><circle class="cls-2" cx="367.61" cy="257.36" r="62.64"/><circle class="cls-2" cx="367.61" cy="257.36" r="62.64"/><circle class="cls-2" cx="367.61" cy="257.36" r="62.64"/><circle class="cls-2" cx="367.61" cy="257.36" r="62.64"/><circle class="cls-2" cx="367.61" cy="257.36" r="62.64"/><circle class="cls-2" cx="367.61" cy="257.36" r="62.64"/><circle class="cls-2" cx="367.61" cy="257.36" r="62.64"/><circle class="cls-2" cx="367.61" cy="257.36" r="62.64"/><circle class="cls-2" cx="367.61" cy="257.36" r="62.64"/><circle class="cls-2" cx="367.61" cy="257.36" r="62.64"/><circle class="cls-2" cx="367.61" cy="257.36" r="62.64"/><circle class="cls-2" cx="367.61" cy="257.36" r="62.64"/><circle class="cls-2" cx="367.61" cy="257.36" r="62.64"/><circle class="cls-2" cx="367.61" cy="257.36" r="62.64"/><circle class="cls-2" cx="367.61" cy="257.36" r="62.64"/><circle class="cls-2" cx="367.61" cy="257.36" r="62.64"/><circle class="cls-2" cx="367.61" cy="257.36" r="62.64"/><circle class="cls-2" cx="367.61" cy="257.36" r="62.64"/><circle class="cls-2" cx="367.61" cy="257.36" r="62.64"/><circle class="cls-2" cx="367.54" cy="257.36" r="62.64"/><circle class="cls-2" cx="367.54" cy="257.36" r="62.64"/><circle class="cls-2" cx="367.54" cy="257.36" r="62.64"/><circle class="cls-2" cx="367.54" cy="257.36" r="62.64"/><circle class="cls-2" cx="367.54" cy="257.36" r="62.64"/><circle class="cls-2" cx="367.54" cy="257.36" r="62.64"/><circle class="cls-2" cx="367.54" cy="257.36" r="62.64"/><circle class="cls-2" cx="367.54" cy="257.36" r="62.64"/><circle class="cls-2" cx="367.54" cy="257.36" r="62.64"/><circle class="cls-2" cx="367.54" cy="257.36" r="62.64"/><circle class="cls-2" cx="367.54" cy="257.36" r="62.64"/><circle class="cls-2" cx="367.54" cy="257.36" r="62.64"/><circle class="cls-2" cx="367.54" cy="257.36" r="62.64"/><circle class="cls-2" cx="367.54" cy="257.36" r="62.64"/><circle class="cls-2" cx="367.54" cy="257.36" r="62.64"/><circle class="cls-2" cx="367.54" cy="257.36" r="62.64"/><circle class="cls-2" cx="367.54" cy="257.36" r="62.64"/><circle class="cls-2" cx="367.54" cy="257.36" r="62.64"/><circle class="cls-2" cx="367.54" cy="257.36" r="62.64"/><circle class="cls-2" cx="367.54" cy="257.36" r="62.64"/><circle class="cls-2" cx="367.54" cy="257.36" r="62.64"/><circle class="cls-2" cx="367.54" cy="257.36" r="62.64"/><circle class="cls-2" cx="367.54" cy="257.36" r="62.64"/><circle class="cls-2" cx="367.54" cy="257.36" r="62.64"/><circle class="cls-2" cx="367.54" cy="257.36" r="62.64"/><circle class="cls-2" cx="367.54" cy="257.36" r="62.64"/><circle class="cls-2" cx="367.48" cy="257.37" r="62.64"/><circle class="cls-2" cx="367.48" cy="257.37" r="62.64"/><circle class="cls-2" cx="367.48" cy="257.37" r="62.64"/><circle class="cls-2" cx="367.48" cy="257.37" r="62.64"/><circle class="cls-2" cx="367.48" cy="257.37" r="62.64"/><circle class="cls-2" cx="367.48" cy="257.37" r="62.64"/><circle class="cls-2" cx="367.48" cy="257.37" r="62.64"/><circle class="cls-2" cx="367.48" cy="257.37" r="62.64"/><circle class="cls-2" cx="367.48" cy="257.37" r="62.64"/><circle class="cls-2" cx="367.48" cy="257.37" r="62.64"/><circle class="cls-2" cx="367.48" cy="257.37" r="62.64"/><circle class="cls-2" cx="367.48" cy="257.37" r="62.64"/><circle class="cls-2" cx="367.48" cy="257.37" r="62.64"/><circle class="cls-2" cx="367.48" cy="257.37" r="62.64"/><circle class="cls-2" cx="367.48" cy="257.37" r="62.64"/><circle class="cls-2" cx="367.48" cy="257.37" r="62.64"/><circle class="cls-2" cx="367.48" cy="257.37" r="62.64"/><circle class="cls-2" cx="367.48" cy="257.37" r="62.64"/><circle class="cls-2" cx="367.48" cy="257.37" r="62.64"/><circle class="cls-2" cx="367.48" cy="257.37" r="62.64"/><circle class="cls-2" cx="367.48" cy="257.37" r="62.64"/><circle class="cls-2" cx="367.48" cy="257.37" r="62.64"/><circle class="cls-2" cx="367.48" cy="257.37" r="62.64"/><circle class="cls-2" cx="367.48" cy="257.37" r="62.64"/><circle class="cls-2" cx="367.48" cy="257.37" r="62.64"/><circle class="cls-2" cx="367.48" cy="257.37" r="62.64"/><circle class="cls-2" cx="367.42" cy="257.4" r="62.64"/><circle class="cls-2" cx="367.42" cy="257.4" r="62.64"/><circle class="cls-2" cx="367.42" cy="257.4" r="62.64"/><circle class="cls-2" cx="367.42" cy="257.4" r="62.64"/><circle class="cls-2" cx="367.42" cy="257.4" r="62.64"/><circle class="cls-2" cx="367.42" cy="257.4" r="62.64"/><circle class="cls-2" cx="367.42" cy="257.4" r="62.64"/><circle class="cls-2" cx="367.42" cy="257.4" r="62.64"/><circle class="cls-2" cx="367.42" cy="257.4" r="62.64"/><circle class="cls-2" cx="367.42" cy="257.4" r="62.64"/><circle class="cls-2" cx="367.42" cy="257.4" r="62.64"/><circle class="cls-2" cx="367.42" cy="257.4" r="62.64"/><circle class="cls-2" cx="367.42" cy="257.4" r="62.64"/><circle class="cls-2" cx="367.42" cy="257.4" r="62.64"/><circle class="cls-2" cx="367.42" cy="257.4" r="62.64"/><circle class="cls-2" cx="367.42" cy="257.4" r="62.64"/><circle class="cls-2" cx="367.42" cy="257.4" r="62.64"/><circle class="cls-2" cx="367.42" cy="257.4" r="62.64"/><circle class="cls-2" cx="367.42" cy="257.4" r="62.64"/><circle class="cls-2" cx="367.42" cy="257.4" r="62.64"/><circle class="cls-2" cx="367.42" cy="257.4" r="62.64"/><circle class="cls-2" cx="367.42" cy="257.4" r="62.64"/><circle class="cls-2" cx="367.42" cy="257.4" r="62.64"/><circle class="cls-2" cx="367.42" cy="257.4" r="62.64"/><circle class="cls-2" cx="367.42" cy="257.4" r="62.64"/><circle class="cls-2" cx="367.42" cy="257.4" r="62.64"/><circle class="cls-2" cx="367.37" cy="257.45" r="62.64"/><circle class="cls-2" cx="367.37" cy="257.45" r="62.64"/><circle class="cls-2" cx="367.37" cy="257.45" r="62.64"/><circle class="cls-2" cx="367.37" cy="257.45" r="62.64"/><circle class="cls-2" cx="367.37" cy="257.45" r="62.64"/><circle class="cls-2" cx="367.37" cy="257.45" r="62.64"/><circle class="cls-2" cx="367.37" cy="257.45" r="62.64"/><circle class="cls-2" cx="367.37" cy="257.45" r="62.64"/><circle class="cls-2" cx="367.37" cy="257.45" r="62.64"/><circle class="cls-2" cx="367.37" cy="257.45" r="62.64"/><circle class="cls-2" cx="367.37" cy="257.45" r="62.64"/><circle class="cls-2" cx="367.37" cy="257.45" r="62.64"/><circle class="cls-2" cx="367.37" cy="257.45" r="62.64"/><circle class="cls-2" cx="367.37" cy="257.45" r="62.64"/><circle class="cls-2" cx="367.37" cy="257.45" r="62.64"/><circle class="cls-2" cx="367.37" cy="257.45" r="62.64"/><circle class="cls-2" cx="367.37" cy="257.45" r="62.64"/><circle class="cls-2" cx="367.37" cy="257.45" r="62.64"/><circle class="cls-2" cx="367.37" cy="257.45" r="62.64"/><circle class="cls-2" cx="367.37" cy="257.45" r="62.64"/><circle class="cls-2" cx="367.37" cy="257.45" r="62.64"/><circle class="cls-2" cx="367.37" cy="257.45" r="62.64"/><circle class="cls-2" cx="367.37" cy="257.45" r="62.64"/><circle class="cls-2" cx="367.37" cy="257.45" r="62.64"/><circle class="cls-2" cx="367.37" cy="257.45" r="62.64"/><polygon points="352.6 196.59 361.23 195.13 358.25 187.31 352.85 188.22 352.6 196.59"/><polygon points="336.7 202.88 344.62 199.15 339.63 192.43 334.68 194.76 336.7 202.88"/><polygon points="323.08 213.24 329.7 207.51 323.08 202.38 318.95 205.96 323.08 213.24"/><polygon points="312.76 226.89 317.59 219.58 309.84 216.43 306.82 220.99 312.76 226.89"/><polygon points="306.51 242.81 309.19 234.47 300.87 233.53 299.2 238.74 306.51 242.81"/><polygon points="304.78 259.83 305.11 251.08 296.85 252.41 296.64 257.88 304.78 259.83"/><polygon points="307.71 276.68 305.67 268.17 298.07 271.68 299.35 277 307.71 276.68"/><polygon points="315.08 292.12 310.82 284.48 304.45 289.91 307.12 294.69 315.08 292.12"/><polygon points="326.34 305 320.17 298.79 315.51 305.74 319.37 309.62 326.34 305"/><polygon points="340.66 314.36 333.05 310.05 330.43 318 335.19 320.69 340.66 314.36"/><polygon points="356.97 319.51 348.48 317.41 348.1 325.77 353.41 327.09 356.97 319.51"/><polygon points="374.07 320.07 365.32 320.35 367.22 328.5 372.69 328.33 374.07 320.07"/><polygon points="390.69 316 382.33 318.62 386.36 325.96 391.58 324.32 390.69 316"/><polygon points="405.59 307.6 398.25 312.37 404.11 318.35 408.69 315.37 405.59 307.6"/><polygon points="417.67 295.48 411.89 302.06 419.14 306.24 422.75 302.13 417.67 295.48"/><polygon points="426.03 280.56 422.25 288.45 430.35 290.52 432.72 285.59 426.03 280.56"/><polygon points="430.06 263.93 428.54 272.56 436.91 272.36 437.86 266.97 430.06 263.93"/><polygon points="429.45 246.84 430.32 255.55 438.32 253.1 437.78 247.66 429.45 246.84"/><polygon points="424.25 230.54 427.44 238.69 434.48 234.18 432.49 229.08 424.25 230.54"/><polygon points="414.85 216.25 420.12 223.24 425.68 216.99 422.39 212.62 414.85 216.25"/><polygon points="401.94 205.02 408.9 210.34 412.57 202.82 408.22 199.5 401.94 205.02"/><polygon points="386.48 197.7 394.61 200.94 396.12 192.7 391.04 190.68 386.48 197.7"/><polygon points="369.62 194.81 378.32 195.74 377.56 187.4 372.12 186.83 369.62 194.81"/><circle class="cls-2" cx="373.9" cy="362.92" r="33.82"/><circle class="cls-2" cx="373.9" cy="362.92" r="33.82"/><circle class="cls-2" cx="373.9" cy="362.92" r="33.82"/><circle class="cls-2" cx="373.9" cy="362.92" r="33.82"/><circle class="cls-2" cx="373.9" cy="362.92" r="33.82"/><circle class="cls-2" cx="373.9" cy="362.92" r="33.82"/><circle class="cls-2" cx="373.9" cy="362.92" r="33.82"/><circle class="cls-2" cx="373.9" cy="362.92" r="33.82"/><circle class="cls-2" cx="373.9" cy="362.92" r="33.82"/><circle class="cls-2" cx="373.9" cy="362.92" r="33.82"/><circle class="cls-2" cx="373.9" cy="362.92" r="33.82"/><circle class="cls-2" cx="373.9" cy="362.92" r="33.82"/><circle class="cls-2" cx="373.9" cy="362.92" r="33.82"/><circle class="cls-2" cx="373.9" cy="362.92" r="33.82"/><polygon points="372.77 328.77 381.47 329.62 380.63 321.3 375.19 320.77 372.77 328.77"/><polygon points="359 332.16 367.3 329.39 363.15 322.13 357.96 323.86 359 332.16"/><polygon points="347.8 340.85 354.25 334.95 347.51 330.01 343.48 333.7 347.8 340.85"/><polygon points="341.1 353.35 344.6 345.33 336.43 343.56 334.25 348.57 341.1 353.35"/><polygon points="340.07 367.49 340 358.75 331.82 360.45 331.86 365.91 340.07 367.49"/><polygon points="344.88 380.83 341.26 372.87 334.47 377.75 336.74 382.73 344.88 380.83"/><polygon points="354.69 391.06 348.15 385.26 343.94 392.48 348.03 396.11 354.69 391.06"/><polygon points="367.82 396.41 359.48 393.78 358.58 402.09 363.79 403.73 367.82 396.41"/><polygon points="381.99 395.96 373.3 396.95 375.85 404.91 381.28 404.29 381.99 395.96"/><polygon points="394.75 389.79 387.22 394.22 392.79 400.46 397.5 397.69 394.75 389.79"/><polygon points="403.9 378.96 398.82 386.07 406.44 389.5 409.62 385.06 403.9 378.96"/><polygon points="407.86 365.34 406.11 373.91 414.46 373.94 415.56 368.59 407.86 365.34"/><polygon points="405.93 351.3 407.81 359.83 415.46 356.46 414.29 351.13 405.93 351.3"/><polygon points="398.45 339.25 403.65 346.28 409.27 340.09 406.02 335.7 398.45 339.25"/><polygon points="386.73 331.28 394.33 335.59 396.95 327.65 392.19 324.96 386.73 331.28"/><circle class="cls-2" cx="476.28" cy="217.93" r="43.83"/><circle class="cls-2" cx="476.28" cy="217.93" r="43.83"/><circle class="cls-2" cx="476.28" cy="217.93" r="43.83"/><circle class="cls-2" cx="476.28" cy="217.93" r="43.83"/><circle class="cls-2" cx="476.28" cy="217.93" r="43.83"/><circle class="cls-2" cx="476.28" cy="217.93" r="43.83"/><circle class="cls-2" cx="476.28" cy="217.93" r="43.83"/><circle class="cls-2" cx="476.28" cy="217.93" r="43.83"/><circle class="cls-2" cx="476.28" cy="217.93" r="43.83"/><circle class="cls-2" cx="476.28" cy="217.93" r="43.83"/><circle class="cls-2" cx="476.28" cy="217.93" r="43.83"/><circle class="cls-2" cx="476.28" cy="217.93" r="43.83"/><circle class="cls-2" cx="476.28" cy="217.93" r="43.83"/><circle class="cls-2" cx="476.28" cy="217.93" r="43.83"/><circle class="cls-2" cx="476.28" cy="217.93" r="43.83"/><circle class="cls-2" cx="476.28" cy="217.93" r="43.83"/><circle class="cls-2" cx="476.28" cy="217.93" r="43.83"/><circle class="cls-2" cx="476.28" cy="217.93" r="43.83"/><circle class="cls-2" cx="476.28" cy="217.93" r="43.83"/><polygon points="478.83 173.96 487.46 175.33 487.13 166.98 481.73 166.12 478.83 173.96"/><polygon points="465.12 175.32 473.75 173.96 470.85 166.12 465.46 166.97 465.12 175.32"/><polygon points="452.5 180.85 460.29 176.89 455.11 170.33 450.24 172.81 452.5 180.85"/><polygon points="442.2 190.02 448.39 183.84 441.43 179.2 437.57 183.06 442.2 190.02"/><polygon points="435.25 201.91 439.22 194.13 431.17 191.86 428.69 196.73 435.25 201.91"/><polygon points="432.3 215.38 433.67 206.74 425.32 207.08 424.47 212.47 432.3 215.38"/><polygon points="433.67 229.09 432.3 220.46 424.46 223.35 425.32 228.75 433.67 229.09"/><polygon points="439.2 241.71 435.24 233.92 428.68 239.1 431.15 243.97 439.2 241.71"/><polygon points="448.37 252.01 442.19 245.82 437.55 252.78 441.41 256.64 448.37 252.01"/><polygon points="460.26 258.96 452.47 254.99 450.21 263.04 455.08 265.52 460.26 258.96"/><polygon points="473.73 261.9 465.09 260.53 465.43 268.89 470.82 269.74 473.73 261.9"/><polygon points="487.44 260.54 478.8 261.91 481.7 269.75 487.1 268.89 487.44 260.54"/><polygon points="500.06 255.01 492.27 258.97 497.45 265.53 502.32 263.05 500.06 255.01"/><polygon points="510.35 245.84 504.17 252.02 511.12 256.66 514.99 252.8 510.35 245.84"/><polygon points="517.31 233.95 513.34 241.74 521.38 244 523.87 239.13 517.31 233.95"/><polygon points="520.25 220.48 518.88 229.12 527.23 228.78 528.09 223.39 520.25 220.48"/><polygon points="518.89 206.77 520.25 215.41 528.09 212.51 527.24 207.11 518.89 206.77"/><polygon points="513.35 194.15 517.32 201.94 523.88 196.76 521.4 191.89 513.35 194.15"/><polygon points="504.19 183.86 510.37 190.04 515.01 183.09 511.15 179.22 504.19 183.86"/><polygon points="492.29 176.9 500.08 180.87 502.35 172.82 497.48 170.34 492.29 176.9"/><circle class="cls-2" cx="526.2" cy="351.93" r="56.25"/><circle class="cls-2" cx="526.2" cy="351.93" r="56.25"/><circle class="cls-2" cx="526.2" cy="351.93" r="56.25"/><circle class="cls-2" cx="526.2" cy="351.93" r="56.25"/><circle class="cls-2" cx="526.2" cy="351.93" r="56.25"/><circle class="cls-2" cx="526.2" cy="351.93" r="56.25"/><circle class="cls-2" cx="526.2" cy="351.93" r="56.25"/><circle class="cls-2" cx="526.2" cy="351.93" r="56.25"/><circle class="cls-2" cx="526.2" cy="351.93" r="56.25"/><circle class="cls-2" cx="526.2" cy="351.93" r="56.25"/><circle class="cls-2" cx="526.2" cy="351.93" r="56.25"/><circle class="cls-2" cx="526.2" cy="351.93" r="56.25"/><circle class="cls-2" cx="526.2" cy="351.93" r="56.25"/><circle class="cls-2" cx="526.2" cy="351.93" r="56.25"/><circle class="cls-2" cx="526.2" cy="351.93" r="56.25"/><circle class="cls-2" cx="526.2" cy="351.93" r="56.25"/><circle class="cls-2" cx="526.2" cy="351.93" r="56.25"/><circle class="cls-2" cx="526.2" cy="351.93" r="56.25"/><circle class="cls-2" cx="526.2" cy="351.93" r="56.25"/><circle class="cls-2" cx="526.2" cy="351.93" r="56.25"/><circle class="cls-2" cx="526.2" cy="351.93" r="56.25"/><circle class="cls-2" cx="526.2" cy="351.93" r="56.25"/><circle class="cls-2" cx="526.2" cy="351.93" r="56.25"/><circle class="cls-2" cx="526.2" cy="351.93" r="56.25"/><polygon points="537.57 296.66 545.97 299.08 546.66 290.75 541.41 289.24 537.57 296.66"/><polygon points="523.47 295.57 532.21 295.83 530.81 287.58 525.35 287.43 523.47 295.57"/><polygon points="509.54 298.02 518.07 296.09 514.66 288.46 509.33 289.67 509.54 298.02"/><polygon points="496.66 303.86 504.44 299.87 499.24 293.32 494.38 295.82 496.66 303.86"/><polygon points="485.63 312.71 492.17 306.92 485.51 301.87 481.42 305.49 485.63 312.71"/><polygon points="477.15 324.04 482.05 316.79 474.34 313.56 471.28 318.09 477.15 324.04"/><polygon points="471.76 337.11 474.7 328.88 466.43 327.66 464.59 332.81 471.76 337.11"/><polygon points="469.78 351.11 470.58 342.41 462.27 343.29 461.77 348.73 469.78 351.11"/><polygon points="471.35 365.17 469.96 356.54 462.13 359.46 463 364.85 471.35 365.17"/><polygon points="476.37 378.39 472.88 370.38 466.02 375.15 468.2 380.16 476.37 378.39"/><polygon points="484.52 389.95 479.14 383.06 473.69 389.39 477.04 393.7 484.52 389.95"/><polygon points="495.28 399.12 488.36 393.78 484.65 401.27 488.98 404.61 495.28 399.12"/><polygon points="507.99 405.33 499.96 401.88 498.23 410.05 503.25 412.21 507.99 405.33"/><polygon points="521.84 408.18 513.21 406.83 513.56 415.18 518.96 416.02 521.84 408.18"/><polygon points="535.97 407.5 527.27 408.34 529.69 416.34 535.13 415.81 535.97 407.5"/><polygon points="549.48 403.32 541.26 406.3 545.6 413.44 550.74 411.58 549.48 403.32"/><polygon points="561.53 395.91 554.31 400.84 560.29 406.69 564.8 403.61 561.53 395.91"/><polygon points="571.36 385.74 565.6 392.31 572.84 396.49 576.44 392.38 571.36 385.74"/><polygon points="578.35 373.45 574.4 381.25 582.45 383.49 584.92 378.62 578.35 373.45"/><polygon points="582.07 359.8 580.18 368.34 588.54 368.51 589.72 363.17 582.07 359.8"/><polygon points="582.27 345.66 582.57 354.4 590.7 352.49 590.52 347.02 582.27 345.66"/><polygon points="578.95 331.91 581.41 340.3 588.81 336.43 587.28 331.18 578.95 331.91"/><polygon points="572.32 319.42 576.78 326.94 582.99 321.34 580.2 316.64 572.32 319.42"/><polygon points="562.78 308.98 568.98 315.14 573.6 308.18 569.73 304.32 562.78 308.98"/><polygon points="550.95 301.23 558.49 305.66 561.23 297.76 556.52 294.99 550.95 301.23"/><circle class="cls-8" cx="450" cy="372.39" r="14.24"/><circle class="cls-8" cx="450" cy="372.39" r="14.24"/><circle class="cls-8" cx="450" cy="372.39" r="14.24"/><circle class="cls-8" cx="450" cy="372.39" r="14.24"/><circle class="cls-8" cx="450" cy="372.39" r="14.24"/><circle class="cls-8" cx="450" cy="372.39" r="14.24"/><polygon points="453.65 386.31 444.92 385.84 446.11 394.11 451.57 394.4 453.65 386.31"/><polygon points="452.8 358.28 460.46 362.49 462.97 354.52 458.19 351.88 452.8 358.28"/><polygon points="440.72 361.42 448.79 358.06 444.13 351.12 439.08 353.23 440.72 361.42"/><polygon points="435.65 372.83 438.05 364.42 429.72 363.74 428.22 369 435.65 372.83"/><polygon points="441.4 383.9 436.33 376.78 430.61 382.87 433.78 387.32 441.4 383.9"/><polygon points="463.17 378.24 457.36 384.77 464.57 388.99 468.2 384.91 463.17 378.24"/><polygon points="462.79 365.76 464.27 374.38 472.07 371.37 471.14 365.99 462.79 365.76"/><circle class="cls-9" cx="450.02" cy="372.39" r="14.24"/><circle class="cls-2" cx="367.37" cy="257.45" r="56.88"/><circle class="cls-2" cx="476.28" cy="217.93" r="38.46"/><polygon class="cls-3" points="537.81 243.28 545.72 245.65 546.46 237.79 541.52 236.31 537.81 243.28"/><polygon class="cls-3" points="525.87 245.53 533.81 243.25 530.18 236.24 525.23 237.66 525.87 245.53"/><polygon class="cls-3" points="517.04 253.88 522.49 247.67 515.65 243.73 512.25 247.61 517.04 253.88"/><polygon class="cls-3" points="514.13 265.68 515.36 257.51 507.47 257.9 506.71 263 514.13 265.68"/><polygon class="cls-3" points="518.06 277.18 514.68 269.65 508.25 274.23 510.37 278.94 518.06 277.18"/><polygon class="cls-3" points="527.59 284.73 520.67 280.22 517.74 287.55 522.06 290.37 527.59 284.73"/><polygon class="cls-3" points="539.68 285.93 531.42 285.88 532.92 293.63 538.08 293.66 539.68 285.93"/><polygon class="cls-3" points="550.5 280.4 543.53 284.83 548.98 290.53 553.34 287.77 550.5 280.4"/><polygon class="cls-3" points="556.62 269.9 553.14 277.39 560.82 279.25 562.99 274.57 556.62 269.9"/><polygon class="cls-3" points="556.09 257.76 557.21 265.94 564.67 263.35 563.97 258.24 556.09 257.76"/><polygon class="cls-3" points="549.08 247.84 554.45 254.11 559.32 247.9 555.97 243.98 549.08 247.84"/><circle class="cls-2" cx="373.9" cy="362.92" r="6.93"/><circle class="cls-2" cx="367.43" cy="257.72" r="8.79"/><circle class="cls-2" cx="535.71" cy="264.66" r="5.89"/><circle class="cls-2" cx="476.28" cy="217.93" r="6.87"/><circle class="cls-2" cx="367.43" cy="257.58" r="8.79"/><circle class="cls-2" cx="367.29" cy="257.53" r="8.79"/><circle class="cls-10" cx="367.21" cy="257.65" r="8.79"/><path class="cls-11" d="M377.84,195.69a62.64,62.64,0,1,0,51.29,72.22A62.64,62.64,0,0,0,377.84,195.69Zm-18.73,5.84A56.76,56.76,0,0,1,404,214.25l-21.16,25.11a15,15,0,0,1-25.23-3.74l-12.86-30A57.08,57.08,0,0,1,359.11,201.53ZM370,266.12A8.79,8.79,0,1,1,375.65,255,8.8,8.8,0,0,1,370,266.12Zm-58.59-18a56.78,56.78,0,0,1,26-38.75l17.35,27.89a15,15,0,0,1-11.37,22.84l-32.49,3A57,57,0,0,1,311.42,248.13Zm50.84,33.07L355,313a57.41,57.41,0,0,1-14-5.14,56.75,56.75,0,0,1-28.83-36.67l31.89-7.87A15,15,0,0,1,362.26,281.2Zm44.7,17a56.69,56.69,0,0,1-43.77,16.08l2.36-32.75a15,15,0,0,1,22.61-11.8l28,16.7A56.85,56.85,0,0,1,407,298.21Zm13-19.12L389.5,266.72a15,15,0,0,1-4.23-25.15l24.55-21.5a57,57,0,0,1,10.1,59Z"/><circle class="cls-2" cx="476.14" cy="217.98" r="6.87"/><circle class="cls-2" cx="476.08" cy="218.12" r="6.87"/><circle class="cls-10" cx="476.13" cy="218.26" r="6.87"/><circle class="cls-2" cx="476.41" cy="218.27" r="6.87"/><circle class="cls-2" cx="476.47" cy="218.13" r="6.87"/><path class="cls-9" d="M496.19,178.88a43.83,43.83,0,1,0,19.13,59A43.84,43.84,0,0,0,496.19,178.88ZM509,197.81l-20.8,12.75a4.46,4.46,0,0,1-6.42-5.57l9.65-22.4A38.51,38.51,0,0,1,509,197.81Zm-27.72,25a6.87,6.87,0,1,1,0-9.72A6.87,6.87,0,0,1,481.27,222.85Zm4.06-42.33-5.69,23.73a4.46,4.46,0,0,1-8.48.6l-9-22.66A38.48,38.48,0,0,1,485.33,180.52ZM456.15,185l12.75,20.8a4.45,4.45,0,0,1-5.56,6.42l-22.4-9.65A38.39,38.39,0,0,1,456.15,185Zm-17.28,24,23.72,5.69a4.46,4.46,0,0,1,.61,8.48l-22.66,9A38.4,38.4,0,0,1,438.87,209.07Zm4.69,29,20.79-12.75a4.46,4.46,0,0,1,6.43,5.57l-9.66,22.4A38.44,38.44,0,0,1,443.56,238Zm23.65,17.31,5.7-23.73a4.45,4.45,0,0,1,8.47-.6l9,22.66A38.48,38.48,0,0,1,467.21,255.34Zm29-4.5-12.75-20.79a4.46,4.46,0,0,1,5.56-6.43l22.4,9.66A38.41,38.41,0,0,1,496.18,250.84Zm17.51-23.65L490,221.49a4.45,4.45,0,0,1-.61-8.47L512,204A38.48,38.48,0,0,1,513.69,227.19Z"/><circle class="cls-10" cx="535.72" cy="264.7" r="5.89"/><path class="cls-3" d="M552.26,250.55a21.82,21.82,0,1,0-2.39,30.77A21.82,21.82,0,0,0,552.26,250.55Zm-25-.68.07,0A17.12,17.12,0,0,1,545.86,251l-6.49,5a9.54,9.54,0,0,0-10.85,2.47l-7.23-3A17,17,0,0,1,527.22,249.87ZM527,279.55l-.08-.05a17.1,17.1,0,0,1-8.26-16.66l7.54,3.14a9.52,9.52,0,0,0,4.59,7,9.41,9.41,0,0,0,3,1.14l1.05,7.75A17.08,17.08,0,0,1,527,279.55Zm5.67-9.73a5.89,5.89,0,1,1,8.08-2.05A5.88,5.88,0,0,1,532.71,269.82Zm9.82,10.62-1-8.1a9.54,9.54,0,0,0,3.78-7.48,9.67,9.67,0,0,0-.5-3.15l6.19-4.78a17,17,0,0,1,1.88,7.93V265A17.12,17.12,0,0,1,542.53,280.44Z"/><circle class="cls-10" cx="526.22" cy="352.02" r="8.8"/><path class="cls-11" d="M554.72,303.44a56.25,56.25,0,1,0,20,77A56.27,56.27,0,0,0,554.72,303.44Zm-18.39,3.26-9.12,26.8a7.81,7.81,0,0,1-12,3.83l-14-10.07-9.3-6.71A46.46,46.46,0,0,1,536.33,306.7ZM529,360.29a8.8,8.8,0,1,1,5.61-11.11A8.79,8.79,0,0,1,529,360.29Zm-43.26,14.48a46.44,46.44,0,0,1,.54-46.46L509,345.26a7.82,7.82,0,0,1-.07,12.57L495,368Zm5.62,7.8,23.13-16.32a7.82,7.82,0,0,1,11.94,3.94l5.37,16.35c1.91,5.79,3.58,10.9,3.58,10.9A46.47,46.47,0,0,1,491.38,382.57Zm53.18,11.93-8.38-27a7.82,7.82,0,0,1,7.45-10.13l17.21-.06,11.46,0A46.44,46.44,0,0,1,544.56,394.5ZM544,347.22A7.81,7.81,0,0,1,536.7,337L542,320.63l3.5-10.92a46.44,46.44,0,0,1,26.88,37.9Z"/><path class="cls-2" d="M397.54,377l-13.7-11.56a3,3,0,0,1,.23-4.77l14.8-10.18"/><circle class="cls-2" cx="373.9" cy="362.92" r="6.93"/><circle class="cls-2" cx="373.9" cy="362.92" r="6.93"/><circle class="cls-10" cx="373.9" cy="362.92" r="6.93"/><circle class="cls-12" cx="450" cy="372.39" r="6.93"/><path class="cls-9" d="M390.57,333.5a33.82,33.82,0,1,0,12.74,46.1A33.81,33.81,0,0,0,390.57,333.5Zm-8.3,2.9a27.61,27.61,0,0,1,12.44,8.26l-15.37,9.57a3,3,0,0,1-4.47-1.7l-3.15-10.61-2-6.6A27.81,27.81,0,0,1,382.27,336.4Zm-31,10.36A27.63,27.63,0,0,1,363,337.48l4.35,17.58a3,3,0,0,1-3,3.73l-11.07-.29-6.88-.18A27.51,27.51,0,0,1,351.27,346.76Zm15.73,24-3.69,10.44L361,387.68a27.79,27.79,0,0,1-14.7-22.22l18.07,1.29A3,3,0,0,1,367,370.75Zm4.75-14.42a6.93,6.93,0,1,1-4.45,8.73A6.93,6.93,0,0,1,371.75,356.33Zm10.95,33a27.72,27.72,0,0,1-14.91.63l6.81-16.78a3,3,0,0,1,4.61-1.26l8.79,6.74,5.46,4.19A27.75,27.75,0,0,1,382.7,389.3Zm15-12.22-13.86-11.67a3,3,0,0,1,.23-4.78l9.12-6.27,5.68-3.9a27.86,27.86,0,0,1-1.17,26.62Z"/><circle cx="367.29" cy="257.59" r="3.34"/><circle cx="476.33" cy="218.24" r="2.31"/><circle cx="535.67" cy="264.66" r="2.31"/><circle cx="526.48" cy="351.85" r="2.31"/><circle cx="450.12" cy="372.36" r="2.31"/><circle cx="373.97" cy="362.89" r="2.31"/><rect class="cls-2" width="600" height="600"/><rect class="cls-2" x="300" width="600" height="600"/></g></g></svg>