<svg xmlns="http://www.w3.org/2000/svg" viewBox="0 0 601.16 605.14"><defs><style>.cls-1{fill:#29abe2;stroke-width:0.23px;}.cls-1,.cls-15,.cls-17,.cls-18,.cls-19,.cls-2,.cls-3,.cls-4,.cls-5,.cls-6,.cls-7,.cls-8{stroke:#000;}.cls-1,.cls-13,.cls-14,.cls-15,.cls-17,.cls-18,.cls-19,.cls-2,.cls-3,.cls-4,.cls-5,.cls-6,.cls-7,.cls-8{stroke-miterlimit:10;}.cls-13,.cls-17,.cls-18,.cls-19,.cls-2,.cls-20,.cls-3,.cls-5{fill:none;}.cls-15,.cls-2{stroke-width:2.35px;}.cls-14,.cls-3,.cls-4{stroke-width:0.19px;}.cls-4,.cls-6,.cls-7{fill:#666;}.cls-5{stroke-width:0.25px;}.cls-6{stroke-width:0.57px;}.cls-7{stroke-width:0.17px;}.cls-8{fill:#fff;stroke-width:0.69px;}.cls-9{opacity:0.43;}.cls-10{fill:#ce1c1f;}.cls-11{fill:#2b5086;}.cls-12{fill:#eee7d3;}.cls-13{stroke:#fbb03b;stroke-width:3.07px;}.cls-14{fill:#ffffb3;stroke:#b3b3b3;}.cls-16{fill:#603813;}.cls-17{stroke-width:0.77px;}.cls-18{stroke-width:0.64px;}.cls-19{stroke-width:0.48px;}</style></defs><g id="Layer_2" data-name="Layer 2"><g id="Layer_1-2" data-name="Layer 1"><polygon class="cls-1" points="364.01 441.11 364.14 441.48 364.01 441.11 364.01 441.11"/><path class="cls-1" d="M308,443.42l-.07,6.65c3.7-.11,7.3-.27,10.74-.47l-.16-6.68C315.06,443.14,311.53,443.31,308,443.42Z"/><path class="cls-1" d="M301.75,443.58c-1.84,0-3.64-.07-5.37-.13l.07,6.64q2.67.09,5.37.12t5.37-.12l.07-6.64c-1.77.06-3.56.1-5.37.13"/><path class="cls-1" d="M319.23,442.87l.17,6.68c3-.19,6-.42,8.89-.68l-.4-6.69C325.12,442.44,322.21,442.68,319.23,442.87Z"/><path class="cls-1" d="M328.68,442.1l.38,6.7c3.47-.33,6.86-.73,10.09-1.16L338.06,441C335,441.41,331.88,441.79,328.68,442.1Z"/><path class="cls-1" d="M285.06,442.92l-.16,6.68c3.43.2,7,.36,10.74.47l-.07-6.65C292,443.31,288.44,443.14,285.06,442.92Z"/><path class="cls-1" d="M338.84,440.88l1.09,6.65c3.54-.51,7-1.08,10.28-1.73l-2.09-6.44C345.16,439.92,342.05,440.43,338.84,440.88Z"/><path class="cls-1" d="M246.28,437.36l-3.11,6.14c3,.77,6.1,1.53,9.36,2.16l2.08-6.44C251.74,438.65,248.94,438,246.28,437.36Z"/><path class="cls-1" d="M275.23,448.87c2.89.26,5.88.49,8.88.68l.17-6.68c-3-.19-5.9-.43-8.67-.69Z"/><path class="cls-1" d="M348.89,439.2l2.09,6.45c3.26-.65,6.4-1.38,9.35-2.17l-3.07-6.13C354.58,438,351.78,438.65,348.89,439.2Z"/><path class="cls-1" d="M255.39,439.36l-2.09,6.44c3.29.65,6.73,1.22,10.28,1.73l1.09-6.65C261.46,440.43,258.34,439.92,255.39,439.36Z"/><path class="cls-1" d="M264.35,447.64c3.23.43,6.63.83,10.09,1.16l.4-6.7c-3.2-.32-6.36-.69-9.4-1.11Z"/><path class="cls-1" d="M319.27,147.23c-2.59-.16-5.26-.28-8-.36l-.06,5.63c2.57.08,5,.18,7.34.32Z"/><path class="cls-1" d="M333.44,154.15l2.13-5.37c-2.4-.32-4.86-.6-7.35-.85l-1.31,5.55C329.24,153.66,331.39,153.9,333.44,154.15Z"/><path class="cls-1" d="M327.43,147.83c-2.36-.21-4.83-.4-7.38-.56l-.71,5.6c2.3.14,4.54.31,6.77.51Z"/><path class="cls-1" d="M310.5,146.84c-2.57-.07-5.2-.12-8-.14v5.66c2.71,0,5.37.08,7.95.16Z"/><path class="cls-1" d="M301.7,152.36v-5.62c-2.81,0-5.44.07-8,.14l.06,5.64C296.31,152.4,299,152.36,301.7,152.36Z"/><path class="cls-1" d="M359.9,160.21l5.56-3.93a90.46,90.46,0,0,0-10.38-3.63L351,157.43A90.3,90.3,0,0,1,359.9,160.21Z"/><path class="cls-1" d="M374.38,168l7.14-1.72a47.24,47.24,0,0,0-6.32-4.87l-6.75,2.73A47.46,47.46,0,0,1,374.38,168Z"/><path class="cls-1" d="M380.14,173.49l6.91-.92a39.29,39.29,0,0,0-4.87-5.67l-7.05,1.7A36.17,36.17,0,0,1,380.14,173.49Z"/><path class="cls-1" d="M341.9,155.43l3-5.19c-2.68-.52-5.53-1-8.49-1.39l-2.13,5.37C336.84,154.6,339.43,155,341.9,155.43Z"/><path class="cls-1" d="M367.57,163.63l6.81-2.76a63.47,63.47,0,0,0-8.09-4.23l-5.53,3.91A64,64,0,0,1,367.57,163.63Z"/><path class="cls-1" d="M382,175.93a29.71,29.71,0,0,1,2.37,4.23l6.65-.36a36.49,36.49,0,0,0-3.44-6.51l-6.85.91C381.19,174.81,381.64,175.38,382,175.93Z"/><path class="cls-1" d="M350.17,157.22l4.05-4.8c-2.71-.76-5.59-1.42-8.57-2l-2.95,5.18C345.28,156.07,347.8,156.61,350.17,157.22Z"/><path class="cls-1" d="M234.52,263.57a21.84,21.84,0,0,0,.66-6.13h-6.49a16.93,16.93,0,0,1-.69,6.13Z"/><path class="cls-1" d="M219.49,180.93l-6.62-.36a39.77,39.77,0,0,0-2,7.1l6.58-.3A33.64,33.64,0,0,1,219.49,180.93Z"/><path class="cls-1" d="M222.19,175.93a20.06,20.06,0,0,1,1.28-1.73l-6.83-.91a36.45,36.45,0,0,0-3.43,6.51l6.64.36A31.13,31.13,0,0,1,222.19,175.93Z"/><path class="cls-1" d="M229,168.6l-7-1.66a38.6,38.6,0,0,0-4.86,5.67l6.91.92A35.63,35.63,0,0,1,229,168.6Z"/><path class="cls-1" d="M216.64,195.54l-6.5.52a63.32,63.32,0,0,0,.46,7.54l6.51-.77A57.2,57.2,0,0,1,216.64,195.54Z"/><path class="cls-1" d="M217.33,188.16l-6.56.3a48.67,48.67,0,0,0-.6,6.82l6.51-.52A40.66,40.66,0,0,1,217.33,188.16Z"/><path class="cls-1" d="M217.23,203.63l-6.52.77c.31,2.3.73,4.68,1.25,7l6.56-.95Q217.68,206.93,217.23,203.63Z"/><path class="cls-1" d="M235.73,164.12,229,161.39a47.15,47.15,0,0,0-6.31,4.87l7.14,1.72A47.34,47.34,0,0,1,235.73,164.12Z"/><path class="cls-1" d="M261.47,155.59l-3-5.18c-3,.59-5.85,1.27-8.57,2l4.05,4.8C256.39,156.61,258.9,156.07,261.47,155.59Z"/><path class="cls-1" d="M277.27,153.44,276,147.9c-2.5.25-5,.53-7.36.85l2.12,5.37C272.8,153.9,275,153.66,277.27,153.44Z"/><path class="cls-1" d="M284.84,152.87l-.71-5.6c-2.55.16-5,.35-7.37.56l1.31,5.55C280.34,153.18,282.58,153,284.84,152.87Z"/><path class="cls-1" d="M269.94,154.25l-2.12-5.37c-3,.41-5.81.87-8.49,1.39l2.95,5.19C264.77,155,267.34,154.6,269.94,154.25Z"/><path class="cls-1" d="M293,152.5l0-5.63c-2.73.08-5.41.2-8,.36l.72,5.59C288,152.68,290.39,152.58,293,152.5Z"/><path class="cls-1" d="M253.15,157.43l-4-4.78a91.29,91.29,0,0,0-10.39,3.63l5.56,3.93Q248.65,158.6,253.15,157.43Z"/><path class="cls-1" d="M243.4,160.55l-5.52-3.91a62.56,62.56,0,0,0-8.07,4.23l6.81,2.76A62.62,62.62,0,0,1,243.4,160.55Z"/><path class="cls-1" d="M372.66,271.24h7a37.39,37.39,0,0,1-3.21-6.91h-6.56A37.29,37.29,0,0,0,372.66,271.24Z"/><path class="cls-1" d="M407.85,332.34l6.56-.17c-.7-2.12-1.45-4.23-2.24-6.27l-6.64.16C406.35,328.1,407.13,330.22,407.85,332.34Z"/><path class="cls-1" d="M405.21,325.29l6.65-.17c-.89-2.3-1.88-4.6-2.92-6.91l-6.77.18C403.25,320.69,404.28,323,405.21,325.29Z"/><path class="cls-1" d="M410.31,340.55l6.5-.17c-.62-2.44-1.34-4.94-2.14-7.42l-6.57.16C408.92,335.57,409.65,338.07,410.31,340.55Z"/><path class="cls-1" d="M401.8,317.63l6.78-.18c-1-2.24-2.13-4.45-3.25-6.56l-6.9.17C399.62,313.27,400.77,315.47,401.8,317.63Z"/><path class="cls-1" d="M393.32,302.37l7.1-.19c-1.31-2.14-2.67-4.29-4.16-6.54l-7.23.2C390.55,298.07,392,300.22,393.32,302.37Z"/><path class="cls-1" d="M412,348.22l6.44-.17c-.42-2.25-.92-4.57-1.53-6.91l-6.51.17C411.08,343.59,411.57,345.91,412,348.22Z"/><path class="cls-1" d="M398,310.29l6.9-.18c-1.26-2.36-2.62-4.77-4-7.15l-7.08.18C395.27,305.51,396.69,307.92,398,310.29Z"/><path class="cls-1" d="M386.71,187.37l6.57.3a39.74,39.74,0,0,0-2-7.1l-6.62.36A33.64,33.64,0,0,1,386.71,187.37Z"/><path class="cls-1" d="M413.58,359.85c.12,1.39.2,2.82.27,4.26l6.46-.17c-.07-1.5-.15-2.8-.24-4.05s-.22-2.4-.35-3.65l-6.47.17C413.4,357.7,413.51,358.79,413.58,359.85Z"/><path class="cls-1" d="M413.16,355.63l6.46-.17c-.26-2.21-.59-4.44-1-6.63l-6.48.17C412.56,351.21,412.9,353.42,413.16,355.63Z"/><path class="cls-1" d="M388.5,295.1l7.25-.18c-1.37-2.07-2.82-4.16-4.4-6.37l-7.37.19C385.33,290.56,386.88,292.71,388.5,295.1Z"/><polygon class="cls-1" points="389.23 423.1 389.19 423.05 389.19 423.05 389.23 423.1"/><path class="cls-1" d="M369,257.44a21.13,21.13,0,0,0,.66,6.13h6.51a16.93,16.93,0,0,1-.68-6.13Z"/><path class="cls-1" d="M385.67,210.45l6.55,1c.53-2.34.94-4.7,1.25-7l-6.52-.77A64.25,64.25,0,0,1,385.67,210.45Z"/><path class="cls-1" d="M383.37,218.51l6.55,1.24c.85-2.66,1.54-5.21,2.12-7.59l-6.57-.95C384.91,213.56,384.2,216,383.37,218.51Z"/><path class="cls-1" d="M378.15,231.79l6.79,1.07c.76-1.82,1.53-3.65,2.26-5.47l-6.63-1.26C379.83,228,379,229.87,378.15,231.79Z"/><path class="cls-1" d="M380.87,225.4l6.62,1.25c.81-2.09,1.54-4.15,2.2-6.14l-6.56-1.25C382.44,221.27,381.68,223.32,380.87,225.4Z"/><path class="cls-1" d="M387.52,194.76l6.49.52a47.2,47.2,0,0,0-.59-6.82l-6.56-.3A43,43,0,0,1,387.52,194.76Z"/><path class="cls-1" d="M387.06,202.86l6.51.77a61.57,61.57,0,0,0,.46-7.55l-6.51-.51A54,54,0,0,1,387.06,202.86Z"/><path class="cls-1" d="M372.32,244.72l6.95.55c.77-1.69,1.59-3.5,2.65-5.78l-6.94-.82C373.85,241.13,373,243,372.32,244.72Z"/><path class="cls-1" d="M376.17,236.09l-.85,1.84,6.95.81,1.22-2.65c.4-.84.77-1.66,1.12-2.49l-6.81-1.07Z"/><path class="cls-1" d="M218.7,211.21l-6.56.95c.56,2.38,1.27,4.93,2.13,7.59l6.54-1.24C220,216,219.28,213.56,218.7,211.21Z"/><path class="cls-1" d="M377.62,279.65l7.29-.1c-.2-.28-.4-.57-.57-.83-1.74-2.61-3.13-4.8-4.25-6.7h-7C374.25,274.25,375.74,276.75,377.62,279.65Z"/><path class="cls-1" d="M369,256.65h6.53a25.3,25.3,0,0,1,1.07-4.71h-6.81A26,26,0,0,0,369,256.65Z"/><path class="cls-1" d="M378.85,281.52c1.06,1.58,2.4,3.43,4,5.57l.61.84,7.38-.19q-1.4-2-2.62-3.62c-1-1.41-1.93-2.66-2.73-3.79l-7.31.1Z"/><path class="cls-1" d="M370,251.16h6.85c.5-1.45,1.15-3.07,2.05-5.13l-6.9-.55A53.85,53.85,0,0,0,370,251.16Z"/><path class="cls-1" d="M229.48,431.7l-3,5.91c2.46,1.08,5.07,2.1,7.78,3.07l3.07-6C234.56,433.71,231.92,432.72,229.48,431.7Z"/><path class="cls-1" d="M238.05,434.87l-3.06,6c2.51.86,5.11,1.65,7.72,2.35l3.07-6.14C243.14,436.43,240.53,435.67,238.05,434.87Z"/><path class="cls-1" d="M366.88,434.62l3.07,6c2.71-.93,5.32-1.95,7.78-3.07l-3-5.85C372.26,432.72,369.63,433.7,366.88,434.62Z"/><path class="cls-1" d="M413.53,378.63l6.54.23c.18-2.12.31-4.36.35-6.64l-6.51.17C413.87,374.47,413.73,376.57,413.53,378.63Z"/><path class="cls-1" d="M412.47,386.21l6.45,1.12c.47-2.48.83-5.07,1.08-7.67l-6.54-.24C413.22,381.74,412.89,384,412.47,386.21Z"/><path class="cls-1" d="M410.52,394l6.31,1.91a75.25,75.25,0,0,0,1.95-7.83L412.33,387A66.25,66.25,0,0,1,410.52,394Z"/><path class="cls-1" d="M407.77,401.18l6,2.94a68.34,68.34,0,0,0,2.86-7.44l-6.31-1.92A61,61,0,0,1,407.77,401.18Z"/><path class="cls-1" d="M413.87,364.89c.08,2.2.1,4.41.05,6.72l6.5-.17c0-2.22,0-4.47-.09-6.72Z"/><path class="cls-1" d="M402.65,410.06l5.75,3.42a61.38,61.38,0,0,0,5-8.64l-6-2.94A56.05,56.05,0,0,1,402.65,410.06Z"/><path class="cls-1" d="M382.8,427.7l3.26,5.73a78.86,78.86,0,0,0,7.23-4.6l-4.14-5.18A68.92,68.92,0,0,1,382.8,427.7Z"/><path class="cls-1" d="M358.35,437.12l3.07,6.14c2.61-.71,5.21-1.5,7.72-2.36l-3.07-6C363.66,435.67,361,436.43,358.35,437.12Z"/><path class="cls-1" d="M222.07,428.08l-3.27,5.74c2.22,1.22,4.56,2.38,7,3.46l3-5.92C226.42,430.34,224.18,429.24,222.07,428.08Z"/><path class="cls-1" d="M375.43,431.36l3,5.92c2.4-1.07,4.74-2.24,7-3.46l-3.27-5.74C380,429.24,377.8,430.34,375.43,431.36Z"/><path class="cls-1" d="M221.06,219.26l-6.55,1.24c.65,2,1.38,4.06,2.19,6.14l6.62-1.25C222.5,223.32,221.75,221.27,221.06,219.26Z"/><path class="cls-1" d="M397.48,416.35l-.53.55,4.81,4.61a62.55,62.55,0,0,0,6.19-7.4l-5.75-3.43A55.63,55.63,0,0,1,397.48,416.35Z"/><path class="cls-1" d="M389.78,423.16l4.14,5.18a65.92,65.92,0,0,0,7.29-6.26l-4.82-4.61A58.67,58.67,0,0,1,389.78,423.16Z"/><path class="cls-1" d="M215.16,295.87l-7.24-.19c-1.48,2.24-2.85,4.39-4.15,6.53l7.1.19C212.22,300.23,213.63,298.08,215.16,295.87Z"/><path class="cls-1" d="M231.12,272h-7c-1.13,1.91-2.48,4.05-4.26,6.7-.17.26-.36.55-.56.83l7.28.1C228.45,276.75,229.94,274.25,231.12,272Z"/><path class="cls-1" d="M221.43,287c1.54-2.11,2.87-3.94,3.9-5.49l.72-1.09-7.32-.1c-.77,1.13-1.71,2.38-2.72,3.79-.82,1.11-1.7,2.3-2.63,3.62l7.39.19Z"/><path class="cls-1" d="M220.21,288.7l-7.37-.19c-1.58,2.22-3,4.3-4.41,6.37l7.26.18C217.31,292.71,218.85,290.56,220.21,288.7Z"/><path class="cls-1" d="M210.39,303.14l-7.08-.18c-1.43,2.38-2.79,4.79-4.05,7.15l6.91.18C207.5,307.92,208.92,305.51,210.39,303.14Z"/><path class="cls-1" d="M202,318.41l-6.77-.18c-1,2.3-2,4.6-2.93,6.91l6.65.17C199.91,323,200.93,320.69,202,318.41Z"/><path class="cls-1" d="M205.76,311.06l-6.9-.17c-1.12,2.12-2.21,4.33-3.25,6.56l6.77.18C203.42,315.47,204.56,313.27,205.76,311.06Z"/><path class="cls-1" d="M228,236.09l-1.64-3.56-6.8,1.07c.36.83.72,1.65,1.11,2.49l1.23,2.65,7-.81Z"/><path class="cls-1" d="M234.29,264.36h-6.54a38,38,0,0,1-3.22,6.9h7A37.16,37.16,0,0,0,234.29,264.36Z"/><path class="cls-1" d="M229.21,238.67l-7,.82c1.06,2.3,1.9,4.09,2.65,5.78l7-.55C231.17,243,230.33,241.13,229.21,238.67Z"/><path class="cls-1" d="M223.62,226.13,217,227.39c.71,1.83,1.47,3.66,2.3,5.47l6.79-1.07C225.17,229.87,224.36,228,223.62,226.13Z"/><path class="cls-1" d="M232.18,245.48l-6.91.55c.9,2.07,1.53,3.68,2,5.13h6.86A57,57,0,0,0,232.18,245.48Z"/><path class="cls-1" d="M235.15,256.65a27.87,27.87,0,0,0-.77-4.71h-6.84a25.32,25.32,0,0,1,1.08,4.71Z"/><path class="cls-1" d="M193.91,394.76l-6.32,1.92a68.4,68.4,0,0,0,2.87,7.44l6-2.94A58.88,58.88,0,0,1,193.91,394.76Z"/><path class="cls-1" d="M215,423.63l-4.13,5.18a76.72,76.72,0,0,0,7.22,4.61l3.27-5.74A68.31,68.31,0,0,1,215,423.63Z"/><path class="cls-1" d="M196.75,401.88l-6,3a62.17,62.17,0,0,0,5,8.66l5.74-3.43A56.3,56.3,0,0,1,196.75,401.88Z"/><path class="cls-1" d="M190.73,379.41l-6.54.24c.25,2.62.61,5.21,1.07,7.67l6.45-1.13C191.32,384,191,381.74,190.73,379.41Z"/><path class="cls-1" d="M191.86,387l-6.46,1.13a77.91,77.91,0,0,0,2,7.83l6.31-1.91A71.43,71.43,0,0,1,191.86,387Z"/><path class="cls-1" d="M198.66,326.06,192,325.9c-.77,2-1.53,4.16-2.24,6.27l6.57.17C197.06,330.22,197.84,328.1,198.66,326.06Z"/><path class="cls-1" d="M207.79,417.46l-4.81,4.6a65,65,0,0,0,7.29,6.27l4.13-5.18A60.79,60.79,0,0,1,207.79,417.46Z"/><path class="cls-1" d="M206.67,416.35a54.15,54.15,0,0,1-4.71-5.66l-5.75,3.43a60.75,60.75,0,0,0,6.18,7.4l4.82-4.6Z"/><path class="cls-1" d="M190.27,372.39l-6.51-.17q.08,3.46.35,6.64l6.54-.23C190.46,376.58,190.33,374.48,190.27,372.39Z"/><path class="cls-1" d="M192,349l-6.48-.17c-.38,2.19-.71,4.42-1,6.63l6.46.17C191.32,353.42,191.62,351.21,192,349Z"/><path class="cls-1" d="M196.09,333.12l-6.57-.16c-.81,2.48-1.54,5-2.14,7.42l6.5.17C194.53,338.07,195.26,335.57,196.09,333.12Z"/><path class="cls-1" d="M193.68,341.32l-6.5-.18c-.58,2.34-1.08,4.66-1.49,6.91l6.47.16C192.59,345.91,193.11,343.6,193.68,341.32Z"/><path class="cls-1" d="M190.6,359.85c.08-1.06.19-2.17.33-3.44l-6.46-.17c-.14,1.28-.26,2.49-.35,3.65s-.17,2.54-.24,4.05l6.46.17C190.41,362.69,190.49,361.27,190.6,359.85Z"/><path class="cls-1" d="M190.31,364.89l-6.46-.17c-.1,2.26-.14,4.52-.1,6.72l6.5.17C190.2,369.31,190.21,367.1,190.31,364.89Z"/><path class="cls-2" d="M302.1,450.68c-61.16-.48-123.63-12.84-117.75-90.75,3.13-41.44,27.38-70.41,34.43-81.34,12.2-19,10.17-21.13.77-42.21-36.84-82.81,34.41-90,82.11-90h.77c47.71,0,118.94,7.16,82.11,90-9.39,21.12-11.42,23.26.76,42.21,7,11,31.3,39.9,34.42,81.34,6,77.91-56.5,90.27-117.62,90.75"/><circle class="cls-2" cx="302.1" cy="233.98" r="27.38"/><path class="cls-3" d="M392.67,213.17c.57-2.42,1-4.77,1.37-7"/><polygon class="cls-4" points="331.79 328.01 334.65 330.91 383.43 282.07 381.26 278.57 331.79 328.01"/><polygon class="cls-4" points="360.03 357.01 362.89 359.9 405.54 317.13 403.38 313.63 360.03 357.01"/><polygon class="cls-4" points="248.42 443.25 253.86 444.52 368.58 367.13 367 363.24 248.42 443.25"/><polygon class="cls-4" points="248.27 354.51 245.4 357.4 200.77 312.71 202.94 309.21 248.27 354.51"/><polygon class="cls-4" points="273.79 326.52 270.92 329.42 222.14 280.58 224.3 277.08 273.79 326.52"/><polygon class="cls-4" points="351 252.14 347.82 255.08 325.17 200.32 329.48 200.22 351 252.14"/><polygon class="cls-4" points="253.38 253.01 256.93 255.08 279.57 200.32 275.27 200.22 253.38 253.01"/><path class="cls-5" d="M273.79,446.59l10.27.45q18,.76,36.07,0l10.27-.45v-9.16a5,5,0,0,0-5.06-4.86h-46.5a5,5,0,0,0-5,4.86h0Z"/><path class="cls-6" d="M392.54,200.32H211.65a52.72,52.72,0,0,1,.93-14.51h179A52.72,52.72,0,0,1,392.54,200.32Z"/><polygon class="cls-7" points="252.78 353.07 350.4 352.65 327.5 329.42 274.71 329.42 252.78 353.07"/><path class="cls-4" d="M390.6,209.66c-.34,2.25-.77,4.6-1.37,7L196.36,409.44c-.7-1.17-1.38-2.38-2-3.63Z"/><path class="cls-4" d="M213.34,209.66c.34,2.25.77,4.6,1.37,7L407.58,409.44c.71-1.17,1.39-2.38,2-3.63Z"/><polygon class="cls-4" points="210.95 426.66 214.47 429.16 351.81 353.68 348.78 350.68 210.95 426.66"/><path class="cls-8" d="M280.93,170.55h42.32a4.07,4.07,0,0,0,4.07-4.07V149.6h0a412.39,412.39,0,0,0-50.46,0h0v16.88a4.07,4.07,0,0,0,4.07,4.07Z"/><g class="cls-9"><path class="cls-10" d="M219.56,236.33c9.39,21.13,11.42,23.27-.77,42.25-7,11-31.29,39.9-34.42,81.34-4.68,61.93,33.84,82.44,80.57,88.49V148.59C225.9,154.23,191.63,173.5,219.56,236.33Z"/><path class="cls-11" d="M419.83,360c-3.12-41.44-27.38-70.41-34.42-81.35-12.2-19-10.17-21.12-.77-42.25,28.14-63.29-6.86-82.38-46.22-87.87v300.1C385.51,442.64,424.53,422.26,419.83,360Z"/><path class="cls-12" d="M302.92,146.34h-.76a261,261,0,0,0-36.84,2.22V448.4a307.35,307.35,0,0,0,73.5.11v-300A258.93,258.93,0,0,0,302.92,146.34Z"/><circle class="cls-13" cx="302.1" cy="233.97" r="30.04"/><path class="cls-14" d="M302.1,451.84h0c-34.74-.27-77.64-3.89-101.41-29.73-13.61-14.79-19.5-35.74-17.5-62.28,2.74-36.22,21.1-62.47,31-76.58,1.46-2.08,2.72-3.87,3.65-5.32,11.25-17.52,10.2-19.87,2-38.14l-1.34-3c-12.28-27.63-13.54-49.35-3.7-64.47C230.6,148,272,145.18,301.7,145.18h.77c12.83,0,31.86.46,48.89,4.45,18.24,4.27,31,11.9,38,22.68,9.83,15.14,8.59,36.84-3.7,64.47l-1.34,3c-8.17,18.27-9.21,20.62,2,38.13.94,1.45,2.19,3.25,3.65,5.33,9.87,14.1,28.23,40.35,31,76.58,2,26.53-3.88,47.48-17.49,62.28-23.79,25.84-66.68,29.46-101.41,29.73Zm-.4-304.32c-29.16,0-69.76,2.7-84.94,26.09-9.38,14.43-8.07,35.37,3.84,62.25l1.33,3c8.26,18.45,9.75,21.78-2.2,40.35-.95,1.49-2.23,3.31-3.69,5.38-9.74,13.92-27.86,39.83-30.54,75.42-2,25.85,3.72,46.21,16.88,60.51,23.41,25.45,68.11,28.72,99.68,29,65.93-.52,88.47-16.78,99.69-29,13.15-14.3,18.83-34.66,16.88-60.51-2.68-35.59-20.81-61.5-30.55-75.42-1.46-2.1-2.73-3.92-3.69-5.38-11.94-18.57-10.45-21.9-2.2-40.35l1.33-3c12-26.86,13.26-47.82,3.88-62.25-15.19-23.37-55.75-26.09-84.94-26.09h-.76Z"/><circle class="cls-15" cx="302.1" cy="233.97" r="27.38"/><path class="cls-16" d="M348.4,203.63c.91-.28,1.82-.57,2.77-.9A19.46,19.46,0,0,0,348.4,203.63Z"/><path class="cls-16" d="M336.79,298.83a42.08,42.08,0,0,1,29.57,12.06,8.15,8.15,0,0,0,8.22,2.12c2.87-.95,5.67-3.71,5.71-10.82,0-5.88-3.83-9.34-11.05-24.76-12.66-27,5-35.34,6.58-55.37a19.92,19.92,0,0,0-24.65-19.33h0a19.46,19.46,0,0,0-2.77.9c-11.76,3.68-19.13,3.9-23,3.55a1,1,0,0,0-.77,1.66A35,35,0,0,1,300.43,269s.25,26.19,36.36,29.8"/><path class="cls-17" d="M306.09,334.24a76.62,76.62,0,0,1-8,0c-6.8-.37-20.57-1.2-28.51-2.3-9.14-1.27-13,6.13-15,14.49,0,0,12.47,1.18,18.83,6.34,4.45,3.61,15.35,2.5,22.34,1.3a37.84,37.84,0,0,1,12.74,0c7,1.19,17.88,2.3,22.33-1.31,6.35-5.16,18.83-6.34,18.83-6.34-2-8.33-5.87-15.76-15-14.49C326.68,333,312.88,333.86,306.09,334.24Z"/><line class="cls-17" x1="282.46" y1="341.1" x2="323.05" y2="340.68"/><circle class="cls-18" cx="263.13" cy="339.32" r="2.49"/><circle class="cls-18" cx="339.55" cy="339.32" r="2.49"/><circle class="cls-18" cx="278.46" cy="341.52" r="2.83"/><circle class="cls-19" cx="277.34" cy="349.2" r="2.13"/><circle class="cls-19" cx="284.59" cy="348.06" r="2.13"/><circle class="cls-19" cx="291.57" cy="348.06" r="2.13"/><circle class="cls-19" cx="299.03" cy="348.06" r="2.13"/><circle class="cls-19" cx="306.32" cy="348.06" r="2.13"/><circle class="cls-19" cx="313.54" cy="348.06" r="2.13"/><circle class="cls-19" cx="319.88" cy="348.06" r="2.13"/><circle class="cls-19" cx="328.05" cy="349.2" r="2.13"/><circle class="cls-18" cx="327.34" cy="341.52" r="2.83"/><line class="cls-19" x1="278.95" y1="340.5" x2="277.97" y2="342.32"/><line class="cls-19" x1="277.55" y1="340.91" x2="279.37" y2="341.9"/><line class="cls-19" x1="276.79" y1="348.38" x2="278.06" y2="350.02"/><line class="cls-19" x1="276.61" y1="349.84" x2="278.24" y2="348.57"/><line class="cls-19" x1="328.25" y1="348.18" x2="327.85" y2="350.22"/><line class="cls-19" x1="327.03" y1="349" x2="329.07" y2="349.4"/><line class="cls-19" x1="326.77" y1="340.55" x2="327.93" y2="342.27"/><line class="cls-19" x1="326.48" y1="341.99" x2="328.2" y2="340.83"/></g><rect class="cls-20" width="600" height="600"/><rect class="cls-20" x="1.16" y="0.35" width="600" height="148.59"/><rect class="cls-20" x="1.16" y="456.54" width="600" height="148.59"/></g></g></svg>