<svg xmlns="http://www.w3.org/2000/svg" viewBox="0 0 602.18 602.5"><defs><style>.cls-1,.cls-2,.cls-4{fill:none;}.cls-2,.cls-3,.cls-4,.cls-5{stroke:#4fac41;stroke-miterlimit:10;stroke-width:1.06px;}.cls-3{fill:#fff;}.cls-4{stroke-linecap:round;}.cls-5{fill:#8cc63f;}</style></defs><g id="Layer_2" data-name="Layer 2"><g id="Layer_1-2" data-name="Layer 1"><rect class="cls-1" width="600" height="600"/><circle class="cls-2" cx="298.63" cy="238.51" r="35.51"/><path class="cls-2" d="M298.63,204.69a33.82,33.82,0,0,1,33.81,33.82"/><circle class="cls-2" cx="298.63" cy="238.51" r="30.03"/><circle class="cls-2" cx="298.63" cy="238.51" r="31.54"/><circle class="cls-2" cx="298.63" cy="238.51" r="33.81"/><path class="cls-3" d="M315.42,208.17H281.84q.48-27.72,1-55.45h31.62Q314.93,180.44,315.42,208.17Z"/><circle class="cls-2" cx="298.78" cy="157.43" r="2.08"/><circle class="cls-2" cx="298.78" cy="174.98" r="2.08"/><path class="cls-2" d="M298.21,332.41h46V317.16H333A23.42,23.42,0,0,1,321.21,314c-1.8-1-3.74-1.92-5.15-1.92h-35.7c-1.4,0-3.35.89-5.14,1.92a23.46,23.46,0,0,1-11.79,3.16H252.18v15.25Z"/><line class="cls-4" x1="277.64" y1="321.9" x2="318.65" y2="319.7"/><circle class="cls-2" cx="320.08" cy="328.64" r="1.92"/><circle class="cls-2" cx="276.83" cy="328.48" r="1.92"/><line class="cls-2" x1="282" y1="327.36" x2="284.56" y2="152.73"/><line class="cls-2" x1="288.62" y1="326.59" x2="290.24" y2="152.73"/><line class="cls-2" x1="295.09" y1="326.75" x2="295.84" y2="152.73"/><line class="cls-2" x1="308.18" y1="326.9" x2="307.09" y2="152.73"/><line class="cls-2" x1="301.55" y1="327.52" x2="301.51" y2="152.73"/><path class="cls-2" d="M300.73,153.27c-87.92,0-92.17,39.7-80.83,92.17,9.82,45.4-40.08,71.52-38.29,129.05,1.42,45.38,17.06,78.57,119.12,79.41h-1.46c102.06-.84,117.7-34,119.12-79.41,1.79-57.53-48.11-83.65-38.29-129,11.34-52.47,3.31-92.17-80.83-92.17h1.46"/><path class="cls-5" d="M320.67,210.73a35.45,35.45,0,0,1,2.13,53.73,41.41,41.41,0,0,0-13.08,30.35h0a14.38,14.38,0,0,0,14.38,14.38h30.21c5.53,0,10-8.64,10-14.17,0,0,5.3-79.15-43.65-84.29Z"/><line class="cls-2" x1="282.65" y1="162.12" x2="314.6" y2="162.12"/><line class="cls-2" x1="282.5" y1="170.82" x2="314.76" y2="170.82"/><line class="cls-2" x1="282.35" y1="179.14" x2="314.9" y2="179.14"/><line class="cls-2" x1="282.22" y1="186.92" x2="315.04" y2="186.92"/><line class="cls-2" x1="281.84" y1="201.31" x2="315.29" y2="201.31"/><line class="cls-2" x1="282.08" y1="194.46" x2="315.17" y2="194.46"/><line class="cls-2" x1="314.8" y1="327.21" x2="312.62" y2="152.73"/><circle class="cls-3" cx="282.03" cy="328.25" r="2.43"/><circle class="cls-3" cx="288.34" cy="328.25" r="2.43"/><circle class="cls-3" cx="295" cy="328.26" r="2.43"/><circle class="cls-3" cx="301.62" cy="328.27" r="2.43"/><circle class="cls-3" cx="308.23" cy="328.22" r="2.43"/><circle class="cls-3" cx="314.72" cy="328.25" r="2.43"/><rect class="cls-1" x="2.18" width="600" height="148.59"/><rect class="cls-1" x="2.18" y="453.9" width="600" height="148.59"/></g></g></svg>