<svg xmlns="http://www.w3.org/2000/svg" viewBox="0 0 600.1 600"><defs><style>.cls-1,.cls-10,.cls-11,.cls-12,.cls-13,.cls-15,.cls-18,.cls-19,.cls-20,.cls-21,.cls-22,.cls-23,.cls-7,.cls-8,.cls-9{fill:none;}.cls-16,.cls-2{fill:#00b38f;}.cls-14,.cls-17,.cls-3,.cls-4,.cls-5,.cls-6{fill:#fff;}.cls-10,.cls-11,.cls-12,.cls-13,.cls-14,.cls-16,.cls-17,.cls-18,.cls-19,.cls-20,.cls-21,.cls-22,.cls-23,.cls-4,.cls-5,.cls-6,.cls-7,.cls-8,.cls-9{stroke:#000;}.cls-10,.cls-11,.cls-12,.cls-13,.cls-14,.cls-15,.cls-16,.cls-17,.cls-18,.cls-19,.cls-20,.cls-21,.cls-22,.cls-23,.cls-4,.cls-5,.cls-6,.cls-7,.cls-8,.cls-9{stroke-miterlimit:10;}.cls-13,.cls-4{stroke-width:0.3px;}.cls-5{stroke-width:0.29px;}.cls-6{stroke-width:0.3px;}.cls-7{stroke-width:1.45px;}.cls-8{stroke-width:1.21px;}.cls-9{stroke-width:1.7px;}.cls-10{stroke-width:0.73px;}.cls-11{stroke-width:0.97px;}.cls-12{stroke-width:1.94px;}.cls-14{stroke-width:0.22px;}.cls-15{stroke:#e51729;}.cls-16{stroke-width:3px;}.cls-17{stroke-width:1.04px;}.cls-18{stroke-width:2.08px;}.cls-19{stroke-width:1.82px;}.cls-20{stroke-width:1.56px;}.cls-21{stroke-width:1.04px;}.cls-22{stroke-width:1.3px;}.cls-23{stroke-width:0.78px;}</style></defs><g id="Layer_2" data-name="Layer 2"><g id="Layer_1-2" data-name="Layer 1"><rect class="cls-1" x="0.1" width="600" height="600"/><path class="cls-2" d="M308.19,240a7.39,7.39,0,0,0-7.79-7.38c-78,4.46-155.14,8.81-233.07,15.05-18.48,1.48-38.69,10.82-57.2,11.89v81.18c18.51,1.06,38.72,10.4,57.2,11.88,77.93,6.24,155.05,10.59,233.07,15.05a7.38,7.38,0,0,0,7.79-7.37c0-20.44.16-40.29.3-60.15C308.35,280.3,308.22,260.44,308.19,240ZM265,351.68,53,340.57a13.11,13.11,0,1,1,1.38-26.19l212,11.1ZM54.39,285.94A13.12,13.12,0,1,1,53,259.74l212-11.11,1.37,26.2Z"/><path class="cls-3" d="M53,259.74a13.12,13.12,0,1,0,1.38,26.2l212-11.11L265,248.63Z"/><path class="cls-3" d="M40.6,326.79A13.12,13.12,0,0,0,53,340.57l212,11.11,1.37-26.2L54.39,314.38A13.11,13.11,0,0,0,40.6,326.79Z"/><rect class="cls-4" x="106.76" y="316.8" width="2.59" height="5.57" rx="1.29" transform="translate(434.69 235.21) rotate(94.2)"/><rect class="cls-5" x="88.41" y="333.77" width="36.58" height="8.67" transform="translate(451.71 256.44) rotate(94.2)"/><rect class="cls-4" x="165" y="320.58" width="2.59" height="5.57" rx="1.29" transform="translate(499.84 178.57) rotate(93.75)"/><rect class="cls-4" x="145.94" y="337.91" width="38.22" height="8.67" transform="translate(517.36 199.92) rotate(93.75)"/><rect class="cls-4" x="227.4" y="323.82" width="2.59" height="5.57" rx="1.29" transform="translate(569.55 119.75) rotate(93.75)"/><rect class="cls-4" x="208.34" y="341.14" width="38.22" height="8.67" transform="translate(587.07 141.1) rotate(93.75)"/><rect class="cls-4" x="107.76" y="277.86" width="2.59" height="5.57" rx="1.29" transform="translate(-162.85 409.95) rotate(-94.2)"/><rect class="cls-6" x="88.84" y="257.14" width="37.62" height="8.67" transform="translate(-145.25 387.98) rotate(-94.2)"/><rect class="cls-4" x="228.34" y="271.1" width="2.59" height="5.57" rx="1.29" transform="translate(-28.65 520.94) rotate(-93.75)"/><rect class="cls-4" x="209.28" y="250.67" width="38.22" height="8.67" transform="matrix(-0.07, -1, 1, -0.07, -11.13, 499.59)"/><rect class="cls-4" x="166" y="274.08" width="2.59" height="5.57" rx="1.29" transform="translate(-98.04 461.9) rotate(-93.75)"/><rect class="cls-4" x="146.95" y="253.65" width="38.22" height="8.67" transform="translate(-80.52 440.56) rotate(-93.75)"/><line class="cls-7" x1="224.72" y1="264.71" x2="220.75" y2="265"/><line class="cls-7" x1="233.46" y1="256.16" x2="223.63" y2="256.86"/><line class="cls-7" x1="233.56" y1="258.25" x2="223.73" y2="258.94"/><line class="cls-7" x1="233.66" y1="260.24" x2="223.83" y2="260.93"/><line class="cls-7" x1="233.76" y1="262.22" x2="223.93" y2="262.92"/><line class="cls-8" x1="232.51" y1="344.1" x2="222.26" y2="343.24"/><line class="cls-8" x1="232.69" y1="341.94" x2="222.45" y2="341.08"/><line class="cls-8" x1="232.84" y1="339.78" x2="222.6" y2="338.92"/><line class="cls-8" x1="233.07" y1="337.84" x2="222.82" y2="336.98"/><line class="cls-8" x1="223.79" y1="335.42" x2="221.48" y2="335.16"/><line class="cls-9" x1="171.06" y1="260.6" x2="161.08" y2="261.38"/><line class="cls-9" x1="171.29" y1="263.17" x2="161.3" y2="263.95"/><line class="cls-9" x1="171.51" y1="267.68" x2="161.52" y2="268.46"/><line class="cls-9" x1="171.4" y1="265.29" x2="161.41" y2="266.07"/><line class="cls-9" x1="162.57" y1="270.62" x2="159.44" y2="270.87"/><line class="cls-10" x1="111.69" y1="336.56" x2="101.59" y2="335.75"/><line class="cls-10" x1="111.91" y1="334.54" x2="101.81" y2="333.73"/><line class="cls-10" x1="112.11" y1="332.88" x2="102.01" y2="332.07"/><line class="cls-10" x1="112.31" y1="331.4" x2="102.21" y2="330.58"/><line class="cls-10" x1="103.1" y1="328.93" x2="101.14" y2="328.7"/><line class="cls-11" x1="170.13" y1="340.41" x2="159.47" y2="339.55"/><line class="cls-11" x1="170.36" y1="338.18" x2="159.7" y2="337.32"/><line class="cls-11" x1="170.73" y1="334.04" x2="160.07" y2="333.18"/><line class="cls-11" x1="170.99" y1="331.99" x2="160.33" y2="331.13"/><line class="cls-11" x1="161.64" y1="329.27" x2="159.7" y2="329.08"/><line class="cls-11" x1="170.58" y1="336.01" x2="159.92" y2="335.16"/><line class="cls-12" x1="112.83" y1="263.91" x2="102.1" y2="264.71"/><line class="cls-12" x1="113.13" y1="267.54" x2="102.4" y2="268.33"/><line class="cls-12" x1="113.38" y1="270.17" x2="102.65" y2="270.97"/><line class="cls-12" x1="104.14" y1="273.1" x2="101.61" y2="273.3"/><circle class="cls-13" cx="227.46" cy="346.02" r="1.26"/><circle class="cls-13" cx="165.06" cy="342.25" r="1.26"/><circle class="cls-13" cx="106.67" cy="338.45" r="1.26"/><circle class="cls-13" cx="228.46" cy="254.21" r="1.26"/><circle class="cls-13" cx="166.06" cy="257.99" r="1.26"/><circle class="cls-13" cx="107.68" cy="261.78" r="1.26"/><rect class="cls-4" x="166.08" y="214.21" width="2.35" height="46.74" transform="matrix(-0.07, -1, 1, -0.07, -58.88, 420.01)"/><rect class="cls-4" x="159.52" y="224.3" width="7.26" height="15.69" transform="translate(-57.84 410.12) rotate(-93.75)"/><line class="cls-13" x1="156.35" y1="235.54" x2="158.15" y2="229.88"/><line class="cls-13" x1="158.06" y1="235.43" x2="159.86" y2="229.77"/><line class="cls-13" x1="159.77" y1="235.32" x2="161.57" y2="229.66"/><line class="cls-13" x1="161.48" y1="235.2" x2="163.29" y2="229.54"/><line class="cls-13" x1="163.2" y1="235.09" x2="165" y2="229.43"/><line class="cls-13" x1="164.91" y1="234.98" x2="166.71" y2="229.32"/><line class="cls-13" x1="166.62" y1="234.87" x2="168.42" y2="229.21"/><line class="cls-13" x1="168.33" y1="234.76" x2="170.13" y2="229.1"/><rect class="cls-4" x="179.83" y="225.4" width="7.3" height="10.88" transform="matrix(-0.07, -1, 1, -0.07, -34.86, 429.02)"/><rect class="cls-14" x="177.42" y="227.97" width="7.3" height="6.05" transform="matrix(-0.07, -1, 1, -0.07, -37.59, 426.78)"/><rect class="cls-4" x="107.54" y="218" width="2.35" height="46.74" transform="translate(-124.05 367.45) rotate(-94.2)"/><rect class="cls-4" x="100.93" y="228.11" width="7.26" height="15.69" transform="translate(-123.12 357.51) rotate(-94.2)"/><line class="cls-13" x1="97.79" y1="239.41" x2="99.55" y2="233.74"/><line class="cls-13" x1="99.5" y1="239.28" x2="101.26" y2="233.61"/><line class="cls-13" x1="101.21" y1="239.16" x2="102.97" y2="233.49"/><line class="cls-13" x1="102.92" y1="239.03" x2="104.68" y2="233.36"/><line class="cls-13" x1="104.63" y1="238.91" x2="106.39" y2="233.23"/><line class="cls-13" x1="106.34" y1="238.78" x2="108.1" y2="233.11"/><line class="cls-13" x1="108.06" y1="238.66" x2="109.81" y2="232.98"/><line class="cls-13" x1="109.77" y1="238.53" x2="111.52" y2="232.86"/><rect class="cls-4" x="121.23" y="229.05" width="7.3" height="10.88" transform="translate(-99.84 376.2) rotate(-94.2)"/><rect class="cls-14" x="118.83" y="231.64" width="7.3" height="6.05" transform="translate(-102.6 373.99) rotate(-94.2)"/><rect class="cls-4" x="113.41" y="233.03" width="6.38" height="11.46" transform="translate(-112.99 372.52) rotate(-94.2)"/><circle class="cls-4" cx="116.4" cy="235.62" r="5.76"/><circle class="cls-4" cx="116.4" cy="235.62" r="4.56"/><circle class="cls-15" cx="116.4" cy="235.62" r="3.11"/><rect class="cls-4" x="171.97" y="229.31" width="6.38" height="11.46" transform="translate(-47.92 425.19) rotate(-93.75)"/><circle class="cls-4" cx="174.99" cy="231.89" r="5.76"/><circle class="cls-4" cx="174.99" cy="231.89" r="4.56"/><circle class="cls-15" cx="174.99" cy="231.89" r="3.11"/><rect class="cls-4" x="227.84" y="210.41" width="2.35" height="46.74" transform="matrix(-0.07, -1, 1, -0.07, 10.7, 477.58)"/><rect class="cls-4" x="221.27" y="220.5" width="7.26" height="15.69" transform="matrix(-0.07, -1, 1, -0.07, 11.75, 467.69)"/><line class="cls-13" x1="218.1" y1="231.74" x2="219.91" y2="226.08"/><line class="cls-13" x1="219.82" y1="231.63" x2="221.62" y2="225.97"/><line class="cls-13" x1="221.53" y1="231.52" x2="223.33" y2="225.85"/><line class="cls-13" x1="223.24" y1="231.4" x2="225.04" y2="225.74"/><line class="cls-13" x1="224.95" y1="231.29" x2="226.75" y2="225.63"/><line class="cls-13" x1="226.66" y1="231.18" x2="228.47" y2="225.52"/><line class="cls-13" x1="228.37" y1="231.07" x2="230.18" y2="225.41"/><line class="cls-13" x1="230.09" y1="230.95" x2="231.89" y2="225.29"/><rect class="cls-4" x="241.59" y="221.59" width="7.3" height="10.88" transform="matrix(-0.07, -1, 1, -0.07, 34.72, 486.59)"/><rect class="cls-14" x="239.18" y="224.17" width="7.3" height="6.05" transform="matrix(-0.07, -1, 1, -0.07, 32, 484.35)"/><rect class="cls-4" x="233.73" y="225.51" width="6.38" height="11.46" transform="translate(21.66 482.77) rotate(-93.75)"/><circle class="cls-4" cx="236.74" cy="228.09" r="5.76"/><circle class="cls-4" cx="236.74" cy="228.09" r="4.56"/><circle class="cls-15" cx="236.74" cy="228.09" r="3.11"/><rect class="cls-4" x="164.75" y="339.05" width="2.35" height="46.74" transform="matrix(-0.07, 1, -1, -0.07, 538.41, 220.55)"/><rect class="cls-4" x="158.18" y="360.01" width="7.26" height="15.69" transform="translate(539.46 230.44) rotate(93.75)"/><line class="cls-13" x1="155.01" y1="364.46" x2="156.82" y2="370.12"/><line class="cls-13" x1="156.73" y1="364.57" x2="158.53" y2="370.23"/><line class="cls-13" x1="158.44" y1="364.68" x2="160.24" y2="370.34"/><line class="cls-13" x1="160.15" y1="364.8" x2="161.95" y2="370.46"/><line class="cls-13" x1="161.86" y1="364.91" x2="163.66" y2="370.57"/><line class="cls-13" x1="163.57" y1="365.02" x2="165.38" y2="370.68"/><line class="cls-13" x1="165.29" y1="365.13" x2="167.09" y2="370.79"/><line class="cls-13" x1="167" y1="365.24" x2="168.8" y2="370.9"/><rect class="cls-4" x="178.5" y="363.73" width="7.3" height="10.88" transform="matrix(-0.07, 1, -1, -0.07, 562.43, 211.54)"/><rect class="cls-14" x="176.09" y="365.98" width="7.3" height="6.05" transform="matrix(-0.07, 1, -1, -0.07, 559.71, 213.78)"/><rect class="cls-4" x="106.2" y="335.27" width="2.35" height="46.74" transform="translate(472.91 277.79) rotate(94.2)"/><rect class="cls-4" x="99.6" y="356.19" width="7.26" height="15.69" transform="translate(473.84 287.73) rotate(94.2)"/><line class="cls-13" x1="96.46" y1="360.59" x2="98.21" y2="366.26"/><line class="cls-13" x1="98.17" y1="360.72" x2="99.93" y2="366.39"/><line class="cls-13" x1="99.88" y1="360.84" x2="101.64" y2="366.51"/><line class="cls-13" x1="101.59" y1="360.97" x2="103.35" y2="366.64"/><line class="cls-13" x1="103.3" y1="361.09" x2="105.06" y2="366.77"/><line class="cls-13" x1="105.01" y1="361.22" x2="106.77" y2="366.89"/><line class="cls-13" x1="106.72" y1="361.34" x2="108.48" y2="367.02"/><line class="cls-13" x1="108.43" y1="361.47" x2="110.19" y2="367.14"/><rect class="cls-4" x="119.9" y="360.07" width="7.3" height="10.88" transform="translate(497.12 269.03) rotate(94.2)"/><rect class="cls-14" x="117.49" y="362.31" width="7.3" height="6.05" transform="translate(494.36 271.25) rotate(94.2)"/><rect class="cls-4" x="112.08" y="355.51" width="6.38" height="11.46" transform="translate(483.97 272.72) rotate(94.2)"/><circle class="cls-4" cx="115.06" cy="364.38" r="5.76"/><circle class="cls-4" cx="115.06" cy="364.38" r="4.56"/><circle class="cls-15" cx="115.06" cy="364.38" r="3.11"/><rect class="cls-4" x="170.64" y="359.23" width="6.38" height="11.46" transform="translate(549.37 215.36) rotate(93.75)"/><circle class="cls-4" cx="173.65" cy="368.11" r="5.76"/><circle class="cls-4" cx="173.65" cy="368.11" r="4.56"/><circle class="cls-15" cx="173.65" cy="368.11" r="3.11"/><rect class="cls-4" x="226.5" y="342.86" width="2.35" height="46.74" transform="matrix(-0.07, 1, -1, -0.07, 608, 162.98)"/><rect class="cls-4" x="219.94" y="363.81" width="7.26" height="15.69" transform="translate(609.05 172.87) rotate(93.75)"/><line class="cls-13" x1="216.77" y1="368.26" x2="218.57" y2="373.92"/><line class="cls-13" x1="218.48" y1="368.37" x2="220.28" y2="374.03"/><line class="cls-13" x1="220.19" y1="368.48" x2="222" y2="374.15"/><line class="cls-13" x1="221.91" y1="368.6" x2="223.71" y2="374.26"/><line class="cls-13" x1="223.62" y1="368.71" x2="225.42" y2="374.37"/><line class="cls-13" x1="225.33" y1="368.82" x2="227.13" y2="374.48"/><line class="cls-13" x1="227.04" y1="368.93" x2="228.84" y2="374.59"/><line class="cls-13" x1="228.75" y1="369.05" x2="230.56" y2="374.71"/><rect class="cls-4" x="240.25" y="367.53" width="7.3" height="10.88" transform="matrix(-0.07, 1, -1, -0.07, 632.02, 153.97)"/><rect class="cls-14" x="237.84" y="369.78" width="7.3" height="6.05" transform="matrix(-0.07, 1, -1, -0.07, 629.29, 156.2)"/><rect class="cls-4" x="232.39" y="363.03" width="6.38" height="11.46" transform="translate(618.96 157.79) rotate(93.75)"/><circle class="cls-4" cx="235.41" cy="371.91" r="5.76"/><circle class="cls-4" cx="235.41" cy="371.91" r="4.56"/><circle class="cls-15" cx="235.41" cy="371.91" r="3.11"/><path class="cls-16" d="M308.19,240a7.39,7.39,0,0,0-7.79-7.38c-78,4.46-155.14,8.81-233.07,15.05-18.48,1.48-38.69,10.82-57.2,11.89v81.18c18.51,1.06,38.72,10.4,57.2,11.88,77.93,6.24,155.05,10.59,233.07,15.05a7.38,7.38,0,0,0,7.79-7.37c0-20.44.16-40.29.3-60.15C308.35,280.3,308.22,260.44,308.19,240ZM265,351.68,53,340.57a13.11,13.11,0,1,1,1.38-26.19l212,11.1ZM54.39,285.94A13.12,13.12,0,1,1,53,259.74l212-11.11,1.37,26.2Z"/><polyline class="cls-9" points="10.49 278.87 10.49 278.87 165.4 258.1"/><polyline class="cls-12" points="10.13 266.06 10.13 266.06 106.97 261.88"/><polyline class="cls-8" points="9.99 310.37 9.99 310.37 226.99 346"/><polyline class="cls-11" points="9.99 324.37 20.95 324.57 164.06 342.13"/><polyline class="cls-10" points="9.99 337.37 20.88 336.96 105.8 338.44"/><polyline class="cls-7" points="9.99 293.37 9.99 293.37 228.4 254.27"/><path class="cls-17" d="M-37.52,296.25H47.71a2.56,2.56,0,0,1,2.56,2.56v6.59a0,0,0,0,1,0,0H-40.08a0,0,0,0,1,0,0v-6.59a2.56,2.56,0,0,1,2.56-2.56Z" transform="translate(305.92 295.73) rotate(90)"/><line class="cls-18" x1="0.27" y1="266.24" x2="9.42" y2="266.24"/><line class="cls-19" x1="0.74" y1="278.78" x2="9.9" y2="278.78"/><line class="cls-20" x1="0.1" y1="293.37" x2="9.25" y2="293.37"/><line class="cls-21" x1="0.52" y1="324.37" x2="9.67" y2="324.37"/><line class="cls-22" x1="0.52" y1="310.37" x2="9.67" y2="310.37"/><line class="cls-23" x1="0.83" y1="337.2" x2="9.99" y2="337.2"/></g></g></svg>