<svg xmlns="http://www.w3.org/2000/svg" xmlns:xlink="http://www.w3.org/1999/xlink" viewBox="0 0 266.29 362.32"><defs><style>.cls-1{fill:url(#linear-gradient);}.cls-2,.cls-36{fill:#ccc;}.cls-10,.cls-12,.cls-15,.cls-16,.cls-17,.cls-18,.cls-2,.cls-23,.cls-24,.cls-27,.cls-28,.cls-3,.cls-30,.cls-31,.cls-36,.cls-37,.cls-39,.cls-40,.cls-46,.cls-47,.cls-48,.cls-5,.cls-6,.cls-7,.cls-8,.cls-9{stroke:#22b573;}.cls-10,.cls-11,.cls-12,.cls-14,.cls-15,.cls-16,.cls-17,.cls-18,.cls-19,.cls-2,.cls-20,.cls-21,.cls-22,.cls-23,.cls-24,.cls-25,.cls-26,.cls-27,.cls-28,.cls-29,.cls-3,.cls-30,.cls-31,.cls-32,.cls-34,.cls-36,.cls-37,.cls-39,.cls-40,.cls-41,.cls-42,.cls-43,.cls-44,.cls-45,.cls-46,.cls-47,.cls-48,.cls-5,.cls-6,.cls-7,.cls-8,.cls-9{stroke-miterlimit:10;}.cls-2,.cls-24,.cls-25,.cls-27,.cls-28{stroke-width:1.03px;}.cls-16,.cls-20,.cls-26,.cls-27,.cls-3,.cls-45,.cls-46{fill:#999;}.cls-3{stroke-width:0.63px;}.cls-4{fill:#179fe5;}.cls-18,.cls-5{fill:#3f7b99;}.cls-12,.cls-15,.cls-16,.cls-36,.cls-47,.cls-5,.cls-6,.cls-7{stroke-width:0.25px;}.cls-13,.cls-17,.cls-21,.cls-6{fill:#1f3d4c;}.cls-37,.cls-38,.cls-48,.cls-7{fill:#22b573;}.cls-24,.cls-8{fill:#666;}.cls-33,.cls-9{fill:#fff;}.cls-10,.cls-11,.cls-12,.cls-14,.cls-19,.cls-22,.cls-23,.cls-25,.cls-28,.cls-34,.cls-39,.cls-41{fill:none;}.cls-11{stroke:#1f3d4c;stroke-width:4px;}.cls-14,.cls-41{stroke:#e51729;}.cls-14{stroke-width:1.5px;}.cls-17{stroke-width:0.23px;}.cls-19{stroke:#179fe5;}.cls-20,.cls-21,.cls-22{stroke:#39b54a;}.cls-20{stroke-width:1.24px;}.cls-21,.cls-22{stroke-width:1.08px;}.cls-23{stroke-linecap:round;}.cls-25{stroke:#4d4d4d;}.cls-26,.cls-32,.cls-42,.cls-43,.cls-44,.cls-45{stroke:#000;}.cls-26{stroke-width:0.75px;}.cls-29{fill:#254859;stroke:#254859;}.cls-30{fill:#e6e6e6;}.cls-30,.cls-32,.cls-44{stroke-width:0.5px;}.cls-31{fill:#59aed9;}.cls-32,.cls-47{fill:#4d4d4d;}.cls-33{font-size:5px;font-family:Helvetica-Bold, Helvetica;font-weight:700;}.cls-34{stroke:red;stroke-width:2px;}.cls-35{fill:red;}.cls-37{stroke-width:0.23px;}.cls-38{font-size:3.87px;font-family:MyriadPro-Regular, Myriad Pro;}.cls-39,.cls-40{stroke-width:0.3px;}.cls-42,.cls-43{stroke-width:0.33px;}.cls-43{fill:#333;}.cls-44{fill:gray;}</style><linearGradient id="linear-gradient" x1="97.45" y1="305" x2="97.24" y2="77.8" gradientUnits="userSpaceOnUse"><stop offset="0" stop-color="#fff"/><stop offset="0.16" stop-color="#fcfcfc"/><stop offset="0.28" stop-color="#f2f2f2"/><stop offset="0.39" stop-color="#e1e1e1"/><stop offset="0.49" stop-color="#cacaca"/><stop offset="0.59" stop-color="#ababab"/><stop offset="0.69" stop-color="#868686"/><stop offset="0.78" stop-color="#5a5a5a"/><stop offset="0.87" stop-color="#282828"/><stop offset="0.93"/></linearGradient></defs><g id="Layer_2" data-name="Layer 2"><g id="Base"><rect x="151.39" y="171.29" width="9.45" height="1.81"/><path class="cls-1" d="M137.62,296.54a256.56,256.56,0,0,1-80.35,0L75.45,181.72a140.42,140.42,0,0,0,44,0Q128.54,239.13,137.62,296.54Z"/><rect class="cls-2" x="218.87" y="85.43" width="4.24" height="2.7"/><rect class="cls-3" x="40.27" y="35.79" width="18.3" height="14.29" transform="matrix(0.61, -0.79, 0.79, 0.61, -14.75, 55.88)"/><rect class="cls-3" x="69.61" y="58.14" width="18.3" height="14.29" transform="translate(-21.02 87.82) rotate(-52.38)"/><path class="cls-4" d="M235.1,279.48h-26V94.11h0a5.88,5.88,0,0,1,5.77-6h14.49a5.88,5.88,0,0,1,5.76,6h0Z"/><polygon class="cls-5" points="120.12 172.8 74.24 172.8 65.11 156.4 65.11 135.07 129.78 135.07 129.78 156.4 120.12 172.8"/><rect class="cls-6" x="185.22" y="144.45" width="56.47" height="82.97"/><rect class="cls-7" x="247.79" y="179.28" width="9.4" height="15.07"/><rect class="cls-8" x="140.2" y="290.93" width="7" height="8.64"/><rect class="cls-9" x="141.7" y="284.07" width="4" height="3"/><line class="cls-10" x1="148.2" y1="281.54" x2="148.2" y2="283.54"/><line class="cls-10" x1="147.86" y1="281.54" x2="147.86" y2="283.54"/><line class="cls-10" x1="147.53" y1="281.54" x2="147.53" y2="283.54"/><line class="cls-10" x1="147.2" y1="281.54" x2="147.2" y2="283.54"/><line class="cls-10" x1="146.86" y1="281.54" x2="146.86" y2="283.54"/><line class="cls-10" x1="146.53" y1="281.54" x2="146.53" y2="283.54"/><line class="cls-10" x1="146.2" y1="281.54" x2="146.2" y2="283.54"/><line class="cls-10" x1="145.86" y1="281.54" x2="145.86" y2="283.54"/><line class="cls-10" x1="145.53" y1="281.54" x2="145.53" y2="283.54"/><line class="cls-10" x1="145.2" y1="281.54" x2="145.2" y2="283.54"/><line class="cls-10" x1="144.86" y1="281.54" x2="144.86" y2="283.54"/><line class="cls-10" x1="144.53" y1="281.54" x2="144.53" y2="283.54"/><line class="cls-10" x1="144.2" y1="281.54" x2="144.2" y2="283.54"/><line class="cls-10" x1="143.86" y1="281.54" x2="143.86" y2="283.54"/><line class="cls-10" x1="143.53" y1="281.54" x2="143.53" y2="283.54"/><line class="cls-10" x1="143.2" y1="281.54" x2="143.2" y2="283.54"/><line class="cls-10" x1="142.86" y1="281.54" x2="142.86" y2="283.54"/><line class="cls-10" x1="142.53" y1="281.54" x2="142.53" y2="283.54"/><line class="cls-10" x1="142.2" y1="281.54" x2="142.2" y2="283.54"/><line class="cls-10" x1="141.86" y1="281.54" x2="141.86" y2="283.54"/><line class="cls-10" x1="141.53" y1="281.54" x2="141.53" y2="283.54"/><line class="cls-10" x1="141.2" y1="281.54" x2="141.2" y2="283.54"/><line class="cls-10" x1="140.86" y1="281.54" x2="140.86" y2="283.54"/><line class="cls-10" x1="140.53" y1="281.54" x2="140.53" y2="283.54"/><line class="cls-10" x1="140.2" y1="281.54" x2="140.2" y2="283.54"/><line class="cls-10" x1="139.86" y1="281.54" x2="139.86" y2="283.54"/><line class="cls-10" x1="139.53" y1="281.54" x2="139.53" y2="283.54"/><line class="cls-10" x1="139.2" y1="281.54" x2="139.2" y2="283.54"/><path class="cls-10" d="M77.71,294.88l1.8,2a2.36,2.36,0,0,0,2,.76l58-8.08h9.15"/><line class="cls-11" x1="241.69" y1="186.75" x2="247.79" y2="186.75"/><line class="cls-12" x1="247.13" y1="184.1" x2="247.13" y2="189.52"/><line class="cls-12" x1="247.79" y1="184.1" x2="247.79" y2="189.52"/><line class="cls-12" x1="246.48" y1="184.1" x2="246.48" y2="189.52"/><line class="cls-12" x1="245.83" y1="184.1" x2="245.83" y2="189.52"/><line class="cls-12" x1="245.17" y1="184.1" x2="245.17" y2="189.52"/><line class="cls-12" x1="244.52" y1="184.1" x2="244.52" y2="189.52"/><line class="cls-12" x1="243.87" y1="184.1" x2="243.87" y2="189.52"/><line class="cls-12" x1="243.22" y1="184.1" x2="243.22" y2="189.52"/><line class="cls-12" x1="242.62" y1="184.1" x2="242.62" y2="189.52"/><rect class="cls-13" x="257.2" y="167.04" width="8.39" height="39.42"/><line class="cls-14" x1="256.49" y1="167.56" x2="266.29" y2="167.56"/><line class="cls-14" x1="256.49" y1="170.3" x2="266.29" y2="170.3"/><line class="cls-14" x1="256.49" y1="173.04" x2="266.29" y2="173.04"/><line class="cls-14" x1="256.49" y1="175.78" x2="266.29" y2="175.78"/><line class="cls-14" x1="256.49" y1="178.52" x2="266.29" y2="178.52"/><line class="cls-14" x1="256.49" y1="181.27" x2="266.29" y2="181.27"/><line class="cls-14" x1="256.49" y1="184.01" x2="266.29" y2="184.01"/><line class="cls-14" x1="256.49" y1="186.75" x2="266.29" y2="186.75"/><line class="cls-14" x1="256.49" y1="189.49" x2="266.29" y2="189.49"/><line class="cls-14" x1="256.49" y1="192.23" x2="266.29" y2="192.23"/><line class="cls-14" x1="256.49" y1="194.98" x2="266.29" y2="194.98"/><line class="cls-14" x1="256.49" y1="197.72" x2="266.29" y2="197.72"/><line class="cls-14" x1="256.49" y1="200.46" x2="266.29" y2="200.46"/><line class="cls-14" x1="256.49" y1="203.2" x2="266.29" y2="203.2"/><line class="cls-14" x1="256.49" y1="205.94" x2="266.29" y2="205.94"/><rect class="cls-12" x="75.45" y="177.38" width="43.98" height="3.69"/><rect class="cls-15" x="75.45" y="177.38" width="43.98" height="3.69"/><rect class="cls-16" x="76.29" y="173.1" width="42.31" height="3.69"/><rect class="cls-17" x="53.98" y="102.78" width="86.99" height="32.29"/><path class="cls-6" d="M143.7,102.78H54a1.27,1.27,0,0,1-1-2L87,56.79a3.58,3.58,0,0,1,4.28-1.1L140.2,77.14a5.85,5.85,0,0,1,3.5,5.35Z"/><polygon class="cls-6" points="52.76 95.13 86.7 51.19 57.33 29.22 23.39 73.16 52.76 95.13"/><circle class="cls-10" cx="73.2" cy="62.17" r="1.45"/><rect class="cls-18" x="21.05" y="20.65" width="31.11" height="24.28" transform="translate(-11.71 41.77) rotate(-52.38)"/><rect class="cls-13" x="16.98" y="28.07" width="38.36" height="9.29" transform="translate(-11.82 41.39) rotate(-52.38)"/><line class="cls-19" x1="20.38" y1="42.91" x2="30.32" y2="50.57"/><line class="cls-19" x1="21.82" y1="41.04" x2="31.76" y2="48.7"/><line class="cls-19" x1="23.17" y1="39.3" x2="33.1" y2="46.96"/><line class="cls-19" x1="24.51" y1="37.56" x2="34.44" y2="45.22"/><line class="cls-19" x1="25.85" y1="35.82" x2="35.79" y2="43.47"/><line class="cls-19" x1="27.19" y1="34.08" x2="37.13" y2="41.73"/><line class="cls-19" x1="28.54" y1="32.33" x2="38.47" y2="39.99"/><line class="cls-19" x1="29.88" y1="30.59" x2="39.81" y2="38.25"/><line class="cls-19" x1="31.22" y1="28.85" x2="41.16" y2="36.51"/><line class="cls-19" x1="32.56" y1="27.11" x2="42.5" y2="34.76"/><line class="cls-19" x1="33.9" y1="25.37" x2="43.84" y2="33.02"/><line class="cls-19" x1="35.25" y1="23.62" x2="45.18" y2="31.28"/><line class="cls-19" x1="36.59" y1="21.88" x2="46.52" y2="29.54"/><line class="cls-19" x1="37.93" y1="20.14" x2="47.87" y2="27.8"/><line class="cls-19" x1="39.27" y1="18.4" x2="49.21" y2="26.06"/><line class="cls-19" x1="40.62" y1="16.66" x2="50.55" y2="24.31"/><line class="cls-19" x1="41.96" y1="14.92" x2="51.89" y2="22.57"/><path class="cls-20" d="M34.94,15.06,18.83,36,.78,22.05h0a65.78,65.78,0,0,1,16-20.85l.06-.05Z"/><path class="cls-21" d="M33.62,8.49,12,36.49l-.69-.25a18.54,18.54,0,0,1-9.48-7.59h0Q6.61,21.27,12,14.31T23.37.73l.08-.08h0a25.66,25.66,0,0,1,9.7,7.27Z"/><circle class="cls-22" cx="27.86" cy="19.83" r="0.69"/><line class="cls-23" x1="67.31" y1="298.61" x2="127.58" y2="298.61"/><path class="cls-3" d="M168.06,170.73h0a128.82,128.82,0,0,1-23.89,0h0v-3.91h23.89Z"/><rect class="cls-24" x="140.97" y="123.71" width="31.28" height="43.11"/><polygon class="cls-24" points="172.25 123.71 140.97 123.71 150.58 112.52 163.94 112.52 172.25 123.71"/><line class="cls-12" x1="150.47" y1="117.6" x2="162.83" y2="117.6"/><path class="cls-25" d="M220.84,63.87s.33-13.57-11.4-11.29S186.2,63.87,186.2,63.87s-2.11,1.2,8.29,1.16a.14.14,0,0,1,0,.28L186.42,68s-2.48,1.29,8.4,1.22c.07,0,.1.1,0,.12l-8.32,2.35S184,73.07,194.86,73c.07,0,.1.11,0,.13l-8.36,2.69s-2.06,1.26,7.86,1.26a.16.16,0,0,1,.05.31l-8,1.9s-3.26,1.37,7.51,1.31a.07.07,0,0,1,0,.13L185.77,83s-3.27,1.37,7.53,1.3a.06.06,0,0,1,0,.12l-8.43,1.78s0,.07,0,.07c1.5,0,7.27.58,9,4.67a.13.13,0,0,1-.16.17l-7.37-2.8a.12.12,0,0,0-.14.19c1.41,1.6,6.29,4.85,6.54,6.08a.2.2,0,0,1-.31.2l-5.94-4.23s4.82,3.52,4.44,7l-4.13-5s4.23,3.84,2.65,7.26L187.09,95s2,4.48-.49,7.26l-.21-5.86a7.36,7.36,0,0,1-4.26,4c-3.4.81-8.84-3-7.41-7.88"/><rect class="cls-26" x="219.29" y="63.38" width="3.12" height="0.71" rx="0.36"/><rect class="cls-27" x="218.87" y="64.21" width="4.24" height="9.98"/><line class="cls-28" x1="217.26" y1="72.28" x2="224.53" y2="72.28"/><line class="cls-28" x1="217.5" y1="70.02" x2="224.34" y2="70.02"/><line class="cls-28" x1="217.83" y1="67.78" x2="224.05" y2="67.81"/><line class="cls-28" x1="218.22" y1="65.57" x2="223.72" y2="65.54"/><path class="cls-25" d="M157,109.48s-.82-4.57,17.7-6.51c22-2.31,8.86-23.25,1.63-14.12-5.85,7.38,5.76,14.08,8.53,6.51a4.8,4.8,0,0,0-.4-4.39,4.6,4.6,0,0,0-4.11-1.9"/><circle class="cls-25" cx="180.34" cy="92.54" r="3.48"/><line class="cls-12" x1="144.63" y1="126.32" x2="144.63" y2="164.22"/><line class="cls-12" x1="148.42" y1="126.32" x2="148.42" y2="164.22"/><line class="cls-12" x1="168.59" y1="164.22" x2="168.59" y2="126.32"/><line class="cls-12" x1="164.19" y1="164.22" x2="164.19" y2="126.32"/><line class="cls-12" x1="160.29" y1="164.22" x2="160.29" y2="126.32"/><line class="cls-12" x1="156.61" y1="164.22" x2="156.61" y2="126.32"/><line class="cls-12" x1="152.93" y1="126.32" x2="152.93" y2="164.22"/><path class="cls-29" d="M208.83,279.48h26.53a4.49,4.49,0,0,1,4.49,4.49v15.57a0,0,0,0,1,0,0H204.34a0,0,0,0,1,0,0V284A4.49,4.49,0,0,1,208.83,279.48Z"/><path class="cls-30" d="M253.15,362.07H27.94a4.57,4.57,0,0,1-4.3-6.05l14-41.61a21,21,0,0,1,19.85-14.34H253.15a4.57,4.57,0,0,1,4.55,4.58v52.84A4.57,4.57,0,0,1,253.15,362.07Z"/><path class="cls-6" d="M185.22,221.45h-8.41l-.87-51.3a8,8,0,0,0-6.71-7.81L120.12,154V138.37h65.1Z"/><path class="cls-6" d="M132.11,155.47a317.18,317.18,0,0,0-69.33,0l-1.89-17.12a333.41,333.41,0,0,1,73.11,0Z"/><circle class="cls-31" cx="156.93" cy="148.68" r="4.72"/><circle class="cls-31" cx="97.44" cy="145.27" r="1.3"/><circle class="cls-5" cx="201.48" cy="175.14" r="22.91"/><path class="cls-5" d="M221,176.58c.35-.58.8-1.15,1.15-1.74a20.6,20.6,0,0,0-.29-3.06c-.44-.51-1-1-1.42-1.5a18.9,18.9,0,0,0-.75-2.35c0-.67.21-1.38.27-2a20.5,20.5,0,0,0-1.55-2.6c-.61-.27-1.3-.47-1.91-.73a19.26,19.26,0,0,0-1.72-1.78c-.24-.63-.42-1.34-.66-2a20.33,20.33,0,0,0-2.51-1.68c-.67,0-1.39.15-2.06.18a19,19,0,0,0-2.35-.9c-.48-.46-.94-1-1.42-1.49a21.21,21.21,0,0,0-3-.38c-.58.31-1.17.73-1.76,1a18.88,18.88,0,0,0-2.51.23c-.64-.21-1.3-.52-1.94-.73a20,20,0,0,0-2.87.92c-.4.54-.76,1.19-1.15,1.73a18,18,0,0,0-2.16,1.28c-.66.09-1.4.09-2.06.19a19.48,19.48,0,0,0-2.16,2.1c-.13.66-.17,1.39-.3,2.06a20.09,20.09,0,0,0-1.36,2c-.56.37-1.21.69-1.76,1.05a19.66,19.66,0,0,0-1.08,2.83c.17.63.45,1.3.62,1.94a20.16,20.16,0,0,0-.32,2.49c-.34.57-.8,1.15-1.15,1.73a20.6,20.6,0,0,0,.29,3.07c.44.51,1,1,1.42,1.49a18.53,18.53,0,0,0,.75,2.36c-.05.66-.21,1.37-.27,2a21.35,21.35,0,0,0,1.55,2.61c.61.26,1.3.46,1.91.72a19.26,19.26,0,0,0,1.72,1.78c.24.64.42,1.35.66,2a19.26,19.26,0,0,0,2.51,1.68c.67,0,1.39-.15,2.06-.17a20.73,20.73,0,0,0,2.35.9c.48.46.94,1,1.42,1.48a21.21,21.21,0,0,0,3,.39c.58-.32,1.17-.74,1.76-1.05a20.54,20.54,0,0,0,2.51-.22c.64.2,1.3.51,1.94.72a20,20,0,0,0,2.87-.92c.41-.54.76-1.18,1.15-1.72a21.16,21.16,0,0,0,2.16-1.28c.67-.09,1.4-.1,2.06-.19a20.42,20.42,0,0,0,2.16-2.1c.13-.67.17-1.4.3-2.06a17.76,17.76,0,0,0,1.36-2.05c.56-.36,1.21-.68,1.77-1a21.26,21.26,0,0,0,1.07-2.82c-.17-.64-.44-1.3-.62-1.95A18.48,18.48,0,0,0,221,176.58Z"/><circle class="cls-32" cx="201.48" cy="175.14" r="17.43"/><text class="cls-33" transform="translate(192.85 179.46) rotate(-108.79)">T</text><text class="cls-33" transform="translate(191.88 176.77) rotate(-91.03)">E</text><text class="cls-33" transform="matrix(0.31, -0.95, 0.95, 0.31, 191.77, 173.67)">N</text><text class="cls-33" transform="translate(192.8 170.45) rotate(-52.74)">S</text><text class="cls-33" transform="matrix(0.77, -0.64, 0.64, 0.77, 194.78, 168)">I</text><text class="cls-33" transform="translate(195.59 167.09) rotate(-25.3)">O</text><text class="cls-33" transform="translate(198.89 165.51) rotate(-4.54)">N</text><text class="cls-33" transform="translate(202.31 165.35) rotate(9.36)"> </text><text class="cls-33" transform="translate(203.54 165.55) rotate(16.21)"> </text><path class="cls-34" d="M203.61,163.34a12,12,0,0,1,7.27,4.37"/><polygon class="cls-35" points="209.14 168.41 212.48 169.73 211.96 166.18 209.14 168.41"/><circle class="cls-6" cx="123.2" cy="335.57" r="9"/><circle class="cls-10" cx="162.2" cy="335.57" r="6"/><circle class="cls-36" cx="162.2" cy="335.57" r="12"/><path class="cls-6" d="M172.1,335.57c0,1.22-2,2-2.42,3.1s.35,3.07-.48,3.9-2.8,0-3.9.49-1.88,2.41-3.1,2.41-2-2-3.1-2.41-3.08.34-3.9-.49,0-2.8-.49-3.9-2.41-1.88-2.41-3.1,2-2,2.41-3.1-.34-3.07.49-3.9,2.8,0,3.9-.49,1.88-2.41,3.1-2.41,2,2,3.1,2.41,3.07-.34,3.9.49,0,2.8.48,3.9S172.1,334.35,172.1,335.57Z"/><line class="cls-10" x1="156.2" y1="335.57" x2="152.2" y2="335.57"/><line class="cls-10" x1="126.9" y1="332.21" x2="129.86" y2="329.52"/><path class="cls-37" d="M134.09,324.56l2.74-2.4c-4.44-5.26-14.08-6.61-19.65-3.33a14,14,0,0,0-4.88,4.78,15,15,0,0,1,2.79-2.17C120.34,318.36,128.38,317.2,134.09,324.56Z"/><text class="cls-38" transform="translate(172.25 326.29)">OFF</text><line class="cls-39" x1="147.17" y1="333.92" x2="147.17" y2="337.53"/><line class="cls-39" x1="144.2" y1="336.83" x2="147.58" y2="336.83"/><line class="cls-39" x1="144.2" y1="335.73" x2="147.58" y2="335.73"/><line class="cls-39" x1="144.2" y1="334.63" x2="147.58" y2="334.63"/><line class="cls-39" x1="144.62" y1="333.92" x2="144.62" y2="337.53"/><line class="cls-40" x1="152.14" y1="325.36" x2="150.42" y2="327.18"/><line class="cls-40" x1="148.62" y1="324.65" x2="151.07" y2="326.98"/><line class="cls-40" x1="149.58" y1="323.64" x2="152.04" y2="325.97"/><line class="cls-40" x1="150.29" y1="323.61" x2="148.57" y2="325.42"/><path class="cls-40" d="M161.89,318.84c0,.15.1,3,.1,3"/><path class="cls-41" d="M239.85,334.29a2.81,2.81,0,0,0,0,5.62"/><path class="cls-41" d="M244.29,334.29a2.81,2.81,0,1,0,0,5.62"/><line class="cls-41" x1="241.48" y1="337.1" x2="244.29" y2="337.1"/><rect class="cls-27" x="217.26" y="74.19" width="7.28" height="12.16"/><circle class="cls-6" cx="115.72" cy="105.14" r="13.85"/><circle class="cls-42" cx="201.48" cy="174.94" r="6.13"/><circle class="cls-43" cx="201.48" cy="174.94" r="1.85"/><circle class="cls-43" cx="156.93" cy="148.68" r="1.85"/><circle class="cls-44" cx="115.72" cy="105.14" r="10.54"/><rect class="cls-45" x="154.98" y="108.69" width="4.15" height="0.95" rx="0.48"/><rect class="cls-46" x="151.67" y="109.65" width="11.16" height="2.88"/><path class="cls-9" d="M142.8,285.57h1.8a2.6,2.6,0,0,1,2.6,2.6v0a0,0,0,0,1,0,0h-7a0,0,0,0,1,0,0v0A2.6,2.6,0,0,1,142.8,285.57Z"/><path class="cls-47" d="M127.52,106c.21-.35.48-.7.69-1.05a12.47,12.47,0,0,0-.17-1.85c-.27-.31-.6-.6-.86-.9a9.93,9.93,0,0,0-.46-1.43c0-.4.13-.83.17-1.23A13.16,13.16,0,0,0,126,98c-.36-.15-.78-.27-1.15-.43a11.76,11.76,0,0,0-1-1.08c-.15-.38-.25-.81-.4-1.2a12.15,12.15,0,0,0-1.52-1c-.4,0-.84.09-1.25.1a13.41,13.41,0,0,0-1.42-.54c-.29-.28-.56-.62-.86-.9a13.16,13.16,0,0,0-1.81-.23c-.35.19-.71.44-1.06.63a10.87,10.87,0,0,0-1.52.14c-.39-.13-.79-.31-1.17-.44a12.61,12.61,0,0,0-1.74.56c-.24.32-.45.71-.69,1a12,12,0,0,0-1.3.77c-.41.06-.85.06-1.25.12a13.1,13.1,0,0,0-1.31,1.27c-.07.4-.1.84-.18,1.24a11.07,11.07,0,0,0-.82,1.24c-.34.22-.73.41-1.07.63a12.55,12.55,0,0,0-.65,1.71c.1.39.27.79.38,1.18a12.3,12.3,0,0,0-.2,1.5c-.21.35-.48.69-.69,1a12.47,12.47,0,0,0,.17,1.85c.27.31.6.6.86.9a9.93,9.93,0,0,0,.46,1.43c0,.4-.13.83-.17,1.23a13,13,0,0,0,.94,1.57c.37.16.79.28,1.15.44a13.26,13.26,0,0,0,1,1.08c.15.38.25.81.4,1.2a12.93,12.93,0,0,0,1.52,1c.4,0,.84-.09,1.25-.11a11.59,11.59,0,0,0,1.42.55c.29.28.56.62.86.9a13.36,13.36,0,0,0,1.81.23c.35-.19.71-.44,1.06-.63a10.87,10.87,0,0,0,1.52-.14c.39.12.79.31,1.17.44a12.61,12.61,0,0,0,1.74-.56c.24-.32.45-.71.69-1a13.21,13.21,0,0,0,1.31-.77c.4-.06.84-.06,1.24-.12a13.1,13.1,0,0,0,1.31-1.27c.08-.4.1-.84.18-1.24A11.07,11.07,0,0,0,126,111c.34-.22.73-.41,1.07-.64a11.94,11.94,0,0,0,.65-1.7c-.1-.39-.27-.79-.38-1.18A12.3,12.3,0,0,0,127.52,106Z"/><path class="cls-48" d="M143.38,281.09H144a.91.91,0,0,1,.91.91v0a0,0,0,0,1,0,0h-2.44a0,0,0,0,1,0,0v0A.91.91,0,0,1,143.38,281.09Z"/><circle class="cls-42" cx="115.72" cy="105.14" r="6.13"/><circle class="cls-43" cx="115.72" cy="105.14" r="1.85"/></g></g></svg>