<svg xmlns="http://www.w3.org/2000/svg" viewBox="0 0 601.06 601.01"><defs><style>.cls-1,.cls-10,.cls-15,.cls-17,.cls-18,.cls-20,.cls-21,.cls-22,.cls-23,.cls-24,.cls-25,.cls-26,.cls-3,.cls-37,.cls-4,.cls-40,.cls-41,.cls-42,.cls-5,.cls-7,.cls-8{fill:none;}.cls-2{fill:#00b38f;}.cls-11,.cls-12,.cls-16,.cls-18,.cls-19,.cls-20,.cls-21,.cls-22,.cls-23,.cls-24,.cls-25,.cls-26,.cls-27,.cls-28,.cls-29,.cls-3,.cls-30,.cls-33,.cls-34,.cls-35,.cls-4,.cls-5,.cls-9{stroke:#000;}.cls-10,.cls-11,.cls-12,.cls-15,.cls-16,.cls-17,.cls-18,.cls-19,.cls-20,.cls-21,.cls-22,.cls-23,.cls-24,.cls-25,.cls-26,.cls-27,.cls-28,.cls-29,.cls-3,.cls-30,.cls-33,.cls-34,.cls-35,.cls-36,.cls-37,.cls-38,.cls-39,.cls-4,.cls-40,.cls-41,.cls-42,.cls-5,.cls-9{stroke-miterlimit:10;}.cls-3{stroke-width:0.39px;}.cls-4{stroke-width:0.4px;}.cls-5{stroke-width:0.45px;}.cls-12,.cls-16,.cls-19,.cls-29,.cls-30,.cls-35,.cls-36,.cls-38,.cls-39,.cls-6,.cls-9{fill:#fff;}.cls-7{stroke:#c7b299;stroke-width:2.33px;}.cls-8{stroke:#231f20;stroke-width:1.16px;}.cls-9{stroke-width:0.32px;}.cls-10{stroke:#00b38f;}.cls-10,.cls-15,.cls-17{stroke-width:0.74px;}.cls-11{stroke-width:0.04px;}.cls-12{stroke-width:0.13px;}.cls-13{fill:#e51729;}.cls-14{fill:#1f3d4c;}.cls-15,.cls-42{stroke:#179fe5;}.cls-16,.cls-20{stroke-width:0.59px;}.cls-17,.cls-41{stroke:#e51729;}.cls-18{stroke-width:0.29px;}.cls-19{stroke-width:0.29px;}.cls-21{stroke-width:0.52px;}.cls-22{stroke-width:0.44px;}.cls-23{stroke-width:0.3px;}.cls-24{stroke-width:0.37px;}.cls-25{stroke-width:0.22px;}.cls-26,.cls-27{stroke-width:0.08px;}.cls-28{stroke-width:0.07px;}.cls-29{stroke-width:0.06px;}.cls-30{stroke-width:0.07px;}.cls-31{font-size:3.55px;letter-spacing:0.13em;}.cls-31,.cls-32{font-family:MyriadPro-Bold, Myriad Pro;font-weight:700;}.cls-32{font-size:2.66px;letter-spacing:0.13em;}.cls-33{stroke-width:0.12px;}.cls-34{stroke-width:0.58px;}.cls-35{stroke-width:0.18px;}.cls-36{stroke:#29abe2;stroke-width:0.42px;}.cls-37{stroke:#999;stroke-width:0.11px;stroke-dasharray:0.39 0.39 0.39 0.39;}.cls-38{stroke:#1f43f0;stroke-width:0.34px;}.cls-39,.cls-40{stroke:#1ff0bd;}.cls-39{stroke-width:0.17px;}.cls-40,.cls-41,.cls-42{stroke-width:0.35px;}</style></defs><g id="Layer_2" data-name="Layer 2"><g id="Layer_1-2" data-name="Layer 1"><rect class="cls-1" y="1.01" width="600" height="600"/><circle class="cls-2" cx="127.4" cy="252.73" r="2.41"/><circle class="cls-2" cx="127.4" cy="234.7" r="2.41"/><circle class="cls-2" cx="146.91" cy="234.7" r="2.41"/><circle class="cls-2" cx="146.91" cy="252.73" r="2.41"/><circle class="cls-2" cx="146.91" cy="269.87" r="2.41"/><circle class="cls-2" cx="127.4" cy="269.87" r="2.41"/><path class="cls-3" d="M505.77,373.86c-1.32-62.21-50.26-81.57-37.4-109.84C488.68,219.39,504,170.79,400,169.09l1.22,0c-104-2.47-90.61,46.71-72.11,92.12,11.72,28.76-37.95,46.14-41.77,108.25-1.44,23.46-1.59,79.55,107.45,81.74C504.24,453.41,506.27,397.36,505.77,373.86Z"/><circle class="cls-4" cx="399.05" cy="269.46" r="28.55"/><circle class="cls-5" cx="399.05" cy="269.46" r="32.03"/><path class="cls-3" d="M505.29,373.54C504,311.33,455,292,467.89,263.7c20.31-44.63,35.64-93.23-68.36-94.93l1.22,0c-104-2.47-90.61,46.71-72.11,92.12,11.72,28.76-37.95,46.14-41.77,108.25-1.44,23.46-1.59,79.55,107.45,81.74C503.76,453.09,505.79,397,505.29,373.54Z"/><path class="cls-6" d="M505.29,373.54C504,311.33,455,292,467.89,263.7c20.31-44.63,35.64-93.23-68.36-94.93l1.22,0c-104-2.47-90.61,46.71-72.11,92.12,11.72,28.76-37.95,46.14-41.77,108.25-1.44,23.46-1.59,79.55,107.45,81.74C503.76,453.09,505.79,397,505.29,373.54Z"/><path class="cls-7" d="M505.29,373.54C504,311.33,455,292,467.89,263.7c20.31-44.63,35.64-93.23-68.36-94.93l1.22,0c-104-2.47-90.61,46.71-72.11,92.12,11.72,28.76-37.95,46.14-41.77,108.25-1.44,23.46-1.59,79.55,107.45,81.74C503.76,453.09,505.79,397,505.29,373.54Z"/><path class="cls-8" d="M505.29,373.54C504,311.33,455,292,467.89,263.7c20.31-44.63,35.64-93.23-68.36-94.93l1.22,0c-104-2.47-90.61,46.71-72.11,92.12,11.72,28.76-37.95,46.14-41.77,108.25-1.44,23.46-1.59,79.55,107.45,81.74C503.76,453.09,505.79,397,505.29,373.54Z"/><path class="cls-9" d="M410,452.41a275.34,275.34,0,0,1-30.17-.61c-2.56-20.56-5.22-41.34-7.78-61.9A5.33,5.33,0,0,1,377,384a181.26,181.26,0,0,1,38.82.78,5.34,5.34,0,0,1,4.64,6.13C417,411.31,413.43,432,410,452.41Z"/><path class="cls-10" d="M380.1,402.1c1.43,11.21,2.87,22.37,4.29,33.58a1.66,1.66,0,0,0,2.93.84,25,25,0,0,0-4.61-36A1.66,1.66,0,0,0,380.1,402.1Z"/><path class="cls-10" d="M411.26,402.73c-1.87,11.14-3.76,22.23-5.63,33.37a1.65,1.65,0,0,1-3,.72,25,25,0,0,1,6.05-35.75A1.65,1.65,0,0,1,411.26,402.73Z"/><path class="cls-10" d="M395.52,400.47c-3.33-3.68-5.85-1-6.9.65a1.33,1.33,0,0,0,.12,1.62,26.37,26.37,0,0,1,6.44,12.37.54.54,0,0,0,1.06,0A26.42,26.42,0,0,1,403.17,403a1.33,1.33,0,0,0,.19-1.62c-1-1.63-3.4-4.47-6.88-.91A.66.66,0,0,1,395.52,400.47Z"/><path class="cls-10" d="M394.45,443.94c-3.48,3.55-5.89.71-6.88-.92a1.33,1.33,0,0,1,.19-1.61,26.38,26.38,0,0,0,6.93-12.11.54.54,0,0,1,1.06,0,26.4,26.4,0,0,0,6.44,12.38,1.32,1.32,0,0,1,.12,1.63c-1.05,1.59-3.57,4.33-6.91.63A.65.65,0,0,0,394.45,443.94Z"/><path class="cls-11" d="M379,390.16l-1,1.57a.59.59,0,0,0,.49.89l1.84,0a.59.59,0,0,0,.52-.87l-.88-1.61A.59.59,0,0,0,379,390.16Z"/><path class="cls-11" d="M385.38,390l-.95,1.56a.6.6,0,0,0,.49.9l1.84,0a.58.58,0,0,0,.52-.87l-.88-1.6A.59.59,0,0,0,385.38,390Z"/><path class="cls-11" d="M392.46,390.17l-.95,1.57a.59.59,0,0,0,.49.89l1.84,0a.59.59,0,0,0,.52-.88l-.88-1.6A.59.59,0,0,0,392.46,390.17Z"/><path class="cls-11" d="M399.2,390.3l-.95,1.57a.59.59,0,0,0,.5.89l1.83,0a.59.59,0,0,0,.53-.87l-.89-1.61A.59.59,0,0,0,399.2,390.3Z"/><path class="cls-11" d="M405.61,390.43l-.95,1.57a.59.59,0,0,0,.49.89l1.84,0a.59.59,0,0,0,.52-.87l-.88-1.61A.59.59,0,0,0,405.61,390.43Z"/><path class="cls-11" d="M412.51,390.84l-.94,1.57a.59.59,0,0,0,.49.89l1.83,0a.6.6,0,0,0,.53-.88l-.89-1.6A.59.59,0,0,0,412.51,390.84Z"/><path class="cls-10" d="M430.43,254a2.07,2.07,0,0,0-1.94,2.89,31.65,31.65,0,0,1,2.58,13.24,32,32,0,0,1-25.75,30.77,2.47,2.47,0,0,0-1.95,2.36l-.76,38.07a12.53,12.53,0,0,0,12.28,12.78l17.81.36a22,22,0,0,0,22.39-21.51l.92-45.51a38,38,0,0,0-5.49-20.66c-4.42-7.16-11-12.61-20.09-12.79Z"/><circle class="cls-4" cx="399.05" cy="269.46" r="28.55"/><circle class="cls-5" cx="399.05" cy="269.46" r="32.03"/><circle class="cls-12" cx="129.62" cy="318.38" r="0.7"/><circle class="cls-12" cx="125.48" cy="327.79" r="1.15"/><circle class="cls-12" cx="125.51" cy="314.39" r="1.15"/><path class="cls-12" d="M125.05,329.89a9.77,9.77,0,0,0-3.29-2.87,1,1,0,0,1-.48-1c.54-4.23.63-9.42.1-10.85a.26.26,0,0,1,.2-.35,7.29,7.29,0,0,0,3.64-2.18.41.41,0,0,1,.58,0,7.22,7.22,0,0,0,3.64,2.19.26.26,0,0,1,.19.36c-.54,1.42-.46,6.61.07,10.84a1,1,0,0,1-.49,1,9.76,9.76,0,0,0-3.3,2.86A.51.51,0,0,1,125.05,329.89Z"/><path class="cls-13" d="M122.32,322.52c0,.17.69.27.72.43s-.57.5-.51.66.74,0,.82.14-.36.68-.26.8.7-.24.83-.14-.11.76,0,.84.57-.47.73-.42.15.75.32.78.37-.64.54-.64.4.65.56.62.13-.73.29-.79.6.48.74.39-.12-.73,0-.84.73.25.83.12-.36-.65-.28-.79.76,0,.82-.18-.57-.47-.54-.64.71-.28.71-.45-.69-.26-.73-.42.58-.51.52-.66-.74,0-.83-.15.37-.67.26-.79-.7.24-.83.14.12-.76,0-.84-.57.47-.72.42-.15-.75-.32-.78-.37.64-.54.64-.4-.65-.56-.62-.14.73-.29.79-.6-.48-.74-.39.12.73,0,.83-.73-.24-.84-.11.37.64.29.79-.77,0-.82.17.56.48.54.65S122.31,322.36,122.32,322.52Z"/><line class="cls-12" x1="124.96" y1="321.29" x2="124.98" y2="321.32"/><line class="cls-12" x1="124.55" y1="321.64" x2="124.53" y2="321.61"/><path class="cls-12" d="M124.49,323.22a1.26,1.26,0,0,1,.06-1.58l1.47,2A1.27,1.27,0,0,1,124.49,323.22Z"/><path class="cls-12" d="M126.52,321.71a1.28,1.28,0,0,1-.07,1.59l-1.47-2A1.28,1.28,0,0,1,126.52,321.71Z"/><line class="cls-12" x1="124.98" y1="321.32" x2="126.45" y2="323.3"/><line class="cls-12" x1="126.02" y1="323.62" x2="124.55" y2="321.64"/><circle class="cls-14" cx="125.48" cy="327.79" r="1.15"/><path class="cls-12" d="M124.68,327.45l.5.08a.14.14,0,0,0,.16-.11l.09-.5.39.07-.08.49a.14.14,0,0,0,.11.16l.5.09-.07.4-.49-.09a.15.15,0,0,0-.17.12l-.08.5-.4-.07.09-.5a.15.15,0,0,0-.12-.17l-.49-.08Z"/><circle class="cls-14" cx="125.51" cy="314.39" r="1.15"/><path class="cls-12" d="M124.65,314.53l.47-.2a.14.14,0,0,0,.07-.18l-.19-.46.37-.16.19.47a.14.14,0,0,0,.18.07l.47-.19.16.37-.47.19a.15.15,0,0,0-.08.19l.2.46-.37.16-.2-.47a.14.14,0,0,0-.18-.08l-.47.2Z"/><path class="cls-12" d="M109.45,317h0a14.6,14.6,0,0,1,.35-1.85,2.62,2.62,0,0,1,2.55-2h0a2.63,2.63,0,0,1,2.54,2c.08.31.14.61.2.91a1.16,1.16,0,0,0,1.13.94h.07v2.8h0a1.17,1.17,0,0,0-1.14,1c-.06.34-.13.68-.21,1a2.85,2.85,0,0,1-2.1,2.11,2.21,2.21,0,0,1-.51.06h0a2.67,2.67,0,0,1-2.55-2.05,15.62,15.62,0,0,1-.37-2.13h0a.33.33,0,0,1-.33-.33v-2.1A.38.38,0,0,1,109.45,317Z"/><rect class="cls-12" x="116.31" y="317.51" width="4.66" height="1.68" transform="translate(236.72 636.92) rotate(-179.9)"/><path class="cls-12" d="M121.38,316.93a1,1,0,0,1,1.83.46v.13h4.59v-.14a1,1,0,0,1,.9-1,.94.94,0,0,1,1,.61.88.88,0,0,0,.18.25.64.64,0,0,1,.19.45V319a.63.63,0,0,1-.18.44.76.76,0,0,0-.18.26,1,1,0,0,1-1,.6,1,1,0,0,1-.9-1v-.14H123.2v.13a1,1,0,0,1-.9,1,1,1,0,0,1-.92-.53,1.27,1.27,0,0,0-.22-.33A.6.6,0,0,1,121,319V317.7a.65.65,0,0,1,.18-.45A.87.87,0,0,0,121.38,316.93Z"/><path class="cls-12" d="M125.2,319.49a.26.26,0,0,0,.49-.1l-.41-2.07a.25.25,0,0,0-.48.1Z"/><ellipse class="cls-12" cx="126.43" cy="318.41" rx="0.28" ry="2.33" transform="translate(-59.18 30.45) rotate(-11.15)"/><ellipse class="cls-12" cx="124.03" cy="318.39" rx="0.28" ry="2.33" transform="translate(-59.22 29.99) rotate(-11.15)"/><circle class="cls-12" cx="129.65" cy="363.46" r="0.7"/><circle class="cls-12" cx="125.26" cy="372.77" r="1.15"/><path class="cls-12" d="M124.78,374.85a10,10,0,0,0-3.22-3,1,1,0,0,1-.46-1c.66-4.21.88-9.4.38-10.84a.27.27,0,0,1,.21-.35,7.3,7.3,0,0,0,3.7-2.08.41.41,0,0,1,.58,0,7.34,7.34,0,0,0,3.58,2.29.26.26,0,0,1,.19.36c-.58,1.4-.64,6.6-.22,10.84a1,1,0,0,1-.51,1,9.76,9.76,0,0,0-3.37,2.77A.51.51,0,0,1,124.78,374.85Z"/><path class="cls-13" d="M122.23,367.42c0,.17.69.28.72.44s-.59.5-.54.65.75,0,.83.17-.39.67-.28.79.7-.23.83-.12-.13.75,0,.84.58-.46.74-.4.13.75.29.78.39-.62.56-.62.38.66.55.63.15-.72.3-.78.59.5.74.42-.11-.74,0-.84.72.26.83.13-.35-.65-.27-.79.77,0,.83-.16-.55-.49-.52-.65.72-.26.72-.43-.69-.28-.72-.44.59-.5.54-.65-.75,0-.83-.17.39-.66.28-.79-.7.23-.83.12.14-.75,0-.84-.58.46-.74.4-.13-.75-.29-.78-.39.62-.56.62-.38-.66-.54-.63-.16.72-.31.78-.59-.5-.74-.41.11.73,0,.83-.72-.26-.83-.13.35.65.27.79-.77,0-.83.16.55.49.52.66S122.23,367.26,122.23,367.42Z"/><line class="cls-12" x1="124.91" y1="366.26" x2="124.93" y2="366.28"/><line class="cls-12" x1="124.49" y1="366.59" x2="124.47" y2="366.57"/><path class="cls-12" d="M124.39,368.17a1.26,1.26,0,0,1,.1-1.58l1.42,2A1.24,1.24,0,0,1,124.39,368.17Z"/><path class="cls-12" d="M126.45,366.72a1.26,1.26,0,0,1-.1,1.58l-1.42-2A1.28,1.28,0,0,1,126.45,366.72Z"/><line class="cls-12" x1="124.93" y1="366.28" x2="126.35" y2="368.3"/><line class="cls-12" x1="125.91" y1="368.61" x2="124.49" y2="366.59"/><circle class="cls-14" cx="125.26" cy="372.77" r="1.15"/><path class="cls-12" d="M124.47,372.41l.5.09a.13.13,0,0,0,.16-.11l.1-.49.39.07-.09.5a.13.13,0,0,0,.11.16l.49.1-.07.4-.5-.1a.14.14,0,0,0-.17.11l-.09.5-.4-.08.1-.5a.14.14,0,0,0-.11-.17l-.5-.09Z"/><circle class="cls-14" cx="125.63" cy="359.37" r="1.15"/><path class="cls-12" d="M124.77,359.49l.47-.18a.14.14,0,0,0,.08-.18l-.18-.47.37-.15.18.47a.14.14,0,0,0,.18.08l.48-.18.14.37-.47.19a.14.14,0,0,0-.08.18l.19.47-.38.15-.18-.48a.14.14,0,0,0-.18-.08l-.47.19Z"/><path class="cls-12" d="M109.51,361.57h0a14.88,14.88,0,0,1,.4-1.84,2.62,2.62,0,0,1,2.6-1.9h0a2.61,2.61,0,0,1,2.49,2c.07.31.13.62.18.91a1.15,1.15,0,0,0,1.11,1h.06l-.08,2.8h0a1.14,1.14,0,0,0-1.16.93c-.07.33-.15.68-.24,1a2.85,2.85,0,0,1-2.16,2.05,2.1,2.1,0,0,1-.51.05h0a2.67,2.67,0,0,1-2.49-2.11,15.63,15.63,0,0,1-.32-2.14h0a.34.34,0,0,1-.32-.34l.06-2.1A.36.36,0,0,1,109.51,361.57Z"/><rect class="cls-12" x="116.34" y="362.32" width="4.66" height="1.68" transform="translate(227.3 729.45) rotate(-178.42)"/><path class="cls-12" d="M121.45,361.8a.94.94,0,0,1,.94-.5,1,1,0,0,1,.87,1v.14l4.59.12v-.13a1,1,0,0,1,.93-1,1,1,0,0,1,.94.64.85.85,0,0,0,.17.25.63.63,0,0,1,.17.46l0,1.32a.65.65,0,0,1-.2.44.69.69,0,0,0-.18.24,1,1,0,0,1-1,.59,1,1,0,0,1-.87-1v-.13l-4.58-.13v.14a1,1,0,0,1-.92,1,.94.94,0,0,1-.91-.56,1.42,1.42,0,0,0-.21-.33.63.63,0,0,1-.18-.45l0-1.32a.61.61,0,0,1,.2-.45A1.54,1.54,0,0,0,121.45,361.8Z"/><path class="cls-12" d="M125.2,364.46a.25.25,0,0,0,.48-.08l-.35-2.08a.25.25,0,0,0-.49.08Z"/><ellipse class="cls-12" cx="126.45" cy="363.41" rx="0.28" ry="2.33" transform="translate(-59.26 26.41) rotate(-9.67)"/><ellipse class="cls-12" cx="124.05" cy="363.34" rx="0.28" ry="2.33" transform="translate(-59.28 26.01) rotate(-9.67)"/><circle class="cls-12" cx="129.63" cy="340.4" r="0.7"/><circle class="cls-12" cx="125.59" cy="349.85" r="1.15"/><path class="cls-12" d="M125.18,352a10,10,0,0,0-3.33-2.84,1,1,0,0,1-.49-1c.5-4.24.54-9.43,0-10.85a.28.28,0,0,1,.2-.36,7.2,7.2,0,0,0,3.62-2.21.4.4,0,0,1,.58,0,7.27,7.27,0,0,0,3.66,2.15.27.27,0,0,1,.2.35c-.53,1.43-.4,6.62.17,10.84a1,1,0,0,1-.47,1A9.85,9.85,0,0,0,126,352,.5.5,0,0,1,125.18,352Z"/><circle class="cls-14" cx="125.47" cy="336.46" r="1.15"/><circle class="cls-14" cx="125.59" cy="349.85" r="1.15"/><path class="cls-12" d="M124.78,349.52l.5.08a.14.14,0,0,0,.16-.12l.08-.49.4.06-.08.5a.13.13,0,0,0,.11.15l.5.09-.06.39-.5-.08a.14.14,0,0,0-.16.12l-.08.5-.39-.06.08-.51a.15.15,0,0,0-.12-.16l-.5-.07Z"/><path class="cls-12" d="M124.61,336.61l.47-.21a.14.14,0,0,0,.07-.18l-.2-.46.37-.16.2.46a.15.15,0,0,0,.18.08l.47-.2.16.37-.47.2a.14.14,0,0,0-.07.18l.2.47-.37.15-.2-.47a.14.14,0,0,0-.18-.07l-.47.21Z"/><path class="cls-12" d="M109.44,339.23h0a16.42,16.42,0,0,1,.33-1.85,2.62,2.62,0,0,1,2.53-2h0a2.62,2.62,0,0,1,2.56,1.95q.12.46.21.9a1.15,1.15,0,0,0,1.15.93h.06l0,2.8h0a1.17,1.17,0,0,0-1.13,1c0,.33-.12.68-.2,1a2.85,2.85,0,0,1-2.08,2.13,1.8,1.8,0,0,1-.51.07h0a2.67,2.67,0,0,1-2.57-2,17.5,17.5,0,0,1-.39-2.13h0a.32.32,0,0,1-.33-.32l0-2.11A.37.37,0,0,1,109.44,339.23Z"/><rect class="cls-12" x="116.32" y="339.65" width="4.66" height="1.68" transform="translate(240.23 679.95) rotate(179.51)"/><path class="cls-12" d="M121.38,339a1,1,0,0,1,.92-.55,1,1,0,0,1,.9,1v.13l4.59,0v-.13a1,1,0,0,1,.9-1,1,1,0,0,1,1,.6.62.62,0,0,0,.17.25.65.65,0,0,1,.2.45v1.32a.64.64,0,0,1-.19.45.74.74,0,0,0-.17.25,1,1,0,0,1-.95.62,1,1,0,0,1-.91-1v-.13l-4.59,0v.13a1,1,0,0,1-.89,1,1,1,0,0,1-.93-.52,1.27,1.27,0,0,0-.22-.33.6.6,0,0,1-.19-.45l0-1.32a.64.64,0,0,1,.19-.45A1.4,1.4,0,0,0,121.38,339Z"/><path class="cls-12" d="M125.22,341.55a.25.25,0,0,0,.48-.1l-.43-2.06a.25.25,0,0,0-.48.1Z"/><ellipse class="cls-12" cx="126.44" cy="340.46" rx="0.28" ry="2.33" transform="translate(-66.65 32.86) rotate(-11.74)"/><ellipse class="cls-12" cx="124.04" cy="340.47" rx="0.28" ry="2.33" transform="translate(-66.7 32.37) rotate(-11.74)"/><path class="cls-13" d="M122.37,344.62c0,.17.69.26.72.42s-.56.51-.5.66.74,0,.82.14-.35.68-.25.8.7-.25.83-.15-.11.76,0,.84.56-.48.72-.42.16.74.33.77.36-.64.53-.65.41.65.57.62.13-.73.28-.79.61.47.75.38-.13-.73,0-.84.73.24.83.11-.37-.64-.29-.79.76,0,.82-.18-.57-.47-.55-.64.71-.28.71-.45-.7-.26-.73-.42.57-.51.51-.66-.75,0-.83-.14.36-.68.25-.8-.7.25-.83.15.11-.76,0-.84-.56.48-.72.43-.16-.75-.32-.78-.37.64-.54.65-.41-.65-.57-.62-.13.73-.28.79-.6-.47-.74-.38.13.73,0,.84-.73-.24-.83-.11,1.21.89.29.79c-.16,0-.76,0-.81.18s.57.47.54.64S122.36,344.46,122.37,344.62Z"/><line class="cls-12" x1="125" y1="343.36" x2="125.02" y2="343.39"/><line class="cls-12" x1="124.59" y1="343.71" x2="124.57" y2="343.69"/><path class="cls-12" d="M124.54,345.3a1.28,1.28,0,0,1,0-1.59l1.49,2A1.28,1.28,0,0,1,124.54,345.3Z"/><path class="cls-12" d="M126.56,343.77a1.26,1.26,0,0,1,0,1.58l-1.49-2A1.26,1.26,0,0,1,126.56,343.77Z"/><line class="cls-12" x1="125.02" y1="343.39" x2="126.51" y2="345.35"/><line class="cls-12" x1="126.08" y1="345.68" x2="124.59" y2="343.71"/><circle class="cls-12" cx="145.22" cy="318.38" r="0.7"/><circle class="cls-12" cx="149.36" cy="327.79" r="1.15"/><circle class="cls-12" cx="149.34" cy="314.39" r="1.15"/><path class="cls-12" d="M149.8,329.89a9.77,9.77,0,0,1,3.29-2.87,1,1,0,0,0,.48-1c-.54-4.23-.63-9.42-.1-10.85a.26.26,0,0,0-.2-.35,7.29,7.29,0,0,1-3.64-2.18.41.41,0,0,0-.58,0,7.22,7.22,0,0,1-3.64,2.19.28.28,0,0,0-.2.36c.54,1.42.47,6.61-.06,10.84a1,1,0,0,0,.48,1,9.69,9.69,0,0,1,3.31,2.86A.51.51,0,0,0,149.8,329.89Z"/><path class="cls-13" d="M152.53,322.52c0,.17-.69.27-.72.43s.57.5.51.66-.74,0-.82.14.36.68.25.8-.69-.24-.82-.14.11.76,0,.84-.57-.47-.73-.42-.15.75-.32.78-.37-.64-.54-.64-.4.65-.56.62-.14-.73-.29-.79-.6.48-.74.39.12-.73,0-.84-.73.25-.83.12.36-.65.28-.79-.77,0-.82-.18.56-.47.54-.64-.71-.28-.71-.45.69-.26.72-.42-.57-.51-.51-.66.74,0,.82-.15-.36-.67-.25-.79.7.24.82.14-.11-.76,0-.84.57.47.73.42.15-.75.32-.78.37.64.54.64.4-.65.56-.62.14.73.29.79.6-.48.74-.39-.12.73,0,.83.73-.24.83-.11-.36.64-.28.79.77,0,.82.17-.56.48-.54.65S152.54,322.36,152.53,322.52Z"/><line class="cls-12" x1="149.88" y1="321.29" x2="149.87" y2="321.32"/><line class="cls-12" x1="150.3" y1="321.64" x2="150.31" y2="321.61"/><path class="cls-12" d="M150.36,323.22a1.26,1.26,0,0,0-.06-1.58l-1.47,2A1.27,1.27,0,0,0,150.36,323.22Z"/><path class="cls-12" d="M148.33,321.71a1.26,1.26,0,0,0,.07,1.59l1.47-2A1.28,1.28,0,0,0,148.33,321.71Z"/><line class="cls-12" x1="149.87" y1="321.32" x2="148.4" y2="323.3"/><line class="cls-12" x1="148.83" y1="323.62" x2="150.3" y2="321.64"/><circle class="cls-14" cx="149.36" cy="327.79" r="1.15"/><path class="cls-12" d="M150.17,327.45l-.51.08a.15.15,0,0,1-.16-.11l-.08-.5L149,327l.08.49a.14.14,0,0,1-.11.16l-.5.09.06.4.5-.09a.14.14,0,0,1,.16.12l.09.5.39-.07-.08-.5a.16.16,0,0,1,.11-.17l.5-.08Z"/><circle class="cls-14" cx="149.34" cy="314.39" r="1.15"/><path class="cls-12" d="M150.2,314.53l-.47-.2a.14.14,0,0,1-.07-.18l.19-.46-.37-.16-.19.47a.14.14,0,0,1-.18.07l-.47-.19-.16.37.47.19a.16.16,0,0,1,.08.19l-.2.46.37.16.2-.47a.14.14,0,0,1,.18-.08l.46.2Z"/><path class="cls-12" d="M165.4,317h0a14.6,14.6,0,0,0-.35-1.85,2.62,2.62,0,0,0-2.55-2h0a2.63,2.63,0,0,0-2.54,2c-.08.31-.14.61-.2.91a1.17,1.17,0,0,1-1.14.94h-.06v2.8h0a1.17,1.17,0,0,1,1.14,1c.06.34.13.68.21,1a2.85,2.85,0,0,0,2.1,2.11,2.21,2.21,0,0,0,.51.06h0a2.67,2.67,0,0,0,2.55-2.05,15.62,15.62,0,0,0,.37-2.13h0a.33.33,0,0,0,.33-.33v-2.1A.36.36,0,0,0,165.4,317Z"/><rect class="cls-12" x="153.87" y="317.51" width="4.66" height="1.68" transform="translate(-0.57 0.28) rotate(-0.1)"/><path class="cls-12" d="M153.46,316.93a1,1,0,0,0-.92-.54,1,1,0,0,0-.9,1v.13h-4.59v-.14a1,1,0,0,0-.9-1,1,1,0,0,0-1,.61.7.7,0,0,1-.17.25.6.6,0,0,0-.19.45V319a.64.64,0,0,0,.19.44.76.76,0,0,1,.18.26,1,1,0,0,0,1.85-.39v-.14h4.6v.13a1,1,0,0,0,1.82.46,1.06,1.06,0,0,1,.22-.33.64.64,0,0,0,.19-.45V317.7a.62.62,0,0,0-.19-.45A1.21,1.21,0,0,1,153.46,316.93Z"/><path class="cls-12" d="M149.65,319.49a.26.26,0,0,1-.49-.1l.41-2.07a.25.25,0,0,1,.48.1Z"/><ellipse class="cls-12" cx="148.42" cy="318.41" rx="2.33" ry="0.28" transform="translate(-192.68 402.47) rotate(-78.85)"/><ellipse class="cls-12" cx="150.82" cy="318.39" rx="2.33" ry="0.28" transform="translate(-190.73 404.8) rotate(-78.85)"/><circle class="cls-12" cx="145.2" cy="363.46" r="0.7"/><circle class="cls-12" cx="149.58" cy="372.77" r="1.15"/><path class="cls-12" d="M150.07,374.85a10,10,0,0,1,3.22-3,1,1,0,0,0,.45-1c-.65-4.21-.87-9.4-.38-10.84a.26.26,0,0,0-.2-.35,7.3,7.3,0,0,1-3.7-2.08.41.41,0,0,0-.58,0,7.38,7.38,0,0,1-3.58,2.29.26.26,0,0,0-.19.36c.58,1.4.64,6.6.22,10.84a1,1,0,0,0,.51,1,9.76,9.76,0,0,1,3.37,2.77A.51.51,0,0,0,150.07,374.85Z"/><path class="cls-13" d="M152.62,367.42c0,.17-.69.28-.72.44s.59.5.53.65-.74,0-.82.17.38.67.28.79-.71-.23-.83-.12.13.75,0,.84-.58-.46-.74-.4-.13.75-.29.78-.39-.62-.56-.62-.39.66-.55.63-.15-.72-.31-.78-.59.5-.73.42.11-.74,0-.84-.72.26-.83.13.35-.65.27-.79-.77,0-.83-.16.55-.49.52-.65-.72-.26-.72-.43.69-.28.71-.44-.58-.5-.53-.65.74,0,.82-.17-.38-.66-.27-.79.7.23.83.12-.14-.75,0-.84.58.46.73.4.14-.75.3-.78.39.62.56.62.38-.66.54-.63.16.72.31.78.59-.5.73-.41-.1.73,0,.83.72-.26.82-.13-.34.65-.26.79.77,0,.82.16-.55.49-.52.66S152.61,367.26,152.62,367.42Z"/><line class="cls-12" x1="149.94" y1="366.26" x2="149.92" y2="366.28"/><line class="cls-12" x1="150.36" y1="366.59" x2="150.37" y2="366.57"/><path class="cls-12" d="M150.46,368.17a1.26,1.26,0,0,0-.1-1.58l-1.42,2A1.25,1.25,0,0,0,150.46,368.17Z"/><path class="cls-12" d="M148.4,366.72a1.26,1.26,0,0,0,.1,1.58l1.42-2A1.27,1.27,0,0,0,148.4,366.72Z"/><line class="cls-12" x1="149.92" y1="366.28" x2="148.5" y2="368.3"/><line class="cls-12" x1="148.94" y1="368.61" x2="150.36" y2="366.59"/><circle class="cls-14" cx="149.58" cy="372.77" r="1.15"/><path class="cls-12" d="M150.38,372.41l-.5.09a.14.14,0,0,1-.17-.11l-.09-.49-.39.07.09.5a.13.13,0,0,1-.11.16l-.5.1.08.4.5-.1a.13.13,0,0,1,.16.11l.1.5.39-.08-.09-.5a.14.14,0,0,1,.11-.17l.49-.09Z"/><circle class="cls-14" cx="149.22" cy="359.37" r="1.15"/><path class="cls-12" d="M150.08,359.49l-.47-.18a.13.13,0,0,1-.08-.18l.18-.47-.37-.15-.19.47a.13.13,0,0,1-.18.08l-.47-.18-.15.37.48.19a.15.15,0,0,1,.08.18l-.19.47.38.15.18-.48a.14.14,0,0,1,.18-.08l.47.19Z"/><path class="cls-12" d="M165.34,361.57h0a17,17,0,0,0-.4-1.84,2.62,2.62,0,0,0-2.6-1.9h0a2.61,2.61,0,0,0-2.49,2c-.07.31-.13.62-.18.91a1.15,1.15,0,0,1-1.11,1h-.06l.08,2.8h0a1.14,1.14,0,0,1,1.16.93c.07.33.15.68.24,1a2.85,2.85,0,0,0,2.16,2.05,2.06,2.06,0,0,0,.51.05h0a2.67,2.67,0,0,0,2.49-2.11,15.63,15.63,0,0,0,.32-2.14h0a.34.34,0,0,0,.32-.34l-.06-2.1A.37.37,0,0,0,165.34,361.57Z"/><rect class="cls-12" x="153.85" y="362.32" width="4.66" height="1.68" transform="translate(-9.94 4.44) rotate(-1.58)"/><path class="cls-12" d="M153.4,361.8a.94.94,0,0,0-.94-.5,1,1,0,0,0-.87,1v.14l-4.59.12v-.13a1,1,0,0,0-.92-1,1,1,0,0,0-.94.64.85.85,0,0,1-.17.25.68.68,0,0,0-.18.46l0,1.32a.61.61,0,0,0,.2.44.69.69,0,0,1,.18.24,1,1,0,0,0,1,.59,1,1,0,0,0,.88-1v-.13l4.59-.13v.14a1,1,0,0,0,.92,1,.94.94,0,0,0,.91-.56,1.42,1.42,0,0,1,.21-.33.63.63,0,0,0,.18-.45l0-1.32a.61.61,0,0,0-.2-.45A1,1,0,0,1,153.4,361.8Z"/><path class="cls-12" d="M149.65,364.46a.25.25,0,0,1-.48-.08l.35-2.08a.25.25,0,0,1,.49.08Z"/><ellipse class="cls-12" cx="148.4" cy="363.41" rx="2.33" ry="0.28" transform="translate(-234.78 448.64) rotate(-80.33)"/><ellipse class="cls-12" cx="150.79" cy="363.34" rx="2.33" ry="0.28" transform="translate(-232.71 450.94) rotate(-80.33)"/><circle class="cls-12" cx="145.22" cy="340.4" r="0.7"/><circle class="cls-12" cx="149.26" cy="349.85" r="1.15"/><path class="cls-12" d="M149.67,352a9.86,9.86,0,0,1,3.33-2.84,1,1,0,0,0,.49-1c-.51-4.24-.54-9.43,0-10.85a.28.28,0,0,0-.2-.36,7.2,7.2,0,0,1-3.62-2.21.4.4,0,0,0-.58,0,7.27,7.27,0,0,1-3.66,2.15.26.26,0,0,0-.2.35c.53,1.43.4,6.62-.17,10.84a1,1,0,0,0,.47,1,9.82,9.82,0,0,1,3.27,2.89A.51.51,0,0,0,149.67,352Z"/><circle class="cls-14" cx="149.38" cy="336.46" r="1.15"/><circle class="cls-14" cx="149.26" cy="349.85" r="1.15"/><path class="cls-12" d="M150.07,349.52l-.51.08a.15.15,0,0,1-.16-.12l-.07-.49-.4.06.08.5a.13.13,0,0,1-.12.15l-.5.09.07.39.5-.08a.15.15,0,0,1,.16.12l.08.5.39-.06-.08-.51a.15.15,0,0,1,.12-.16l.5-.07Z"/><path class="cls-12" d="M150.23,336.61l-.46-.21a.14.14,0,0,1-.07-.18l.2-.46-.37-.16-.2.46a.15.15,0,0,1-.18.08l-.47-.2-.16.37.47.2a.14.14,0,0,1,.07.18l-.2.47.37.15.2-.47a.14.14,0,0,1,.18-.07l.47.21Z"/><path class="cls-12" d="M165.41,339.23h0a16.42,16.42,0,0,0-.33-1.85,2.63,2.63,0,0,0-2.53-2h0a2.64,2.64,0,0,0-2.57,1.95c-.07.31-.14.61-.2.9a1.15,1.15,0,0,1-1.15.93h-.06l0,2.8h0a1.17,1.17,0,0,1,1.14,1c.05.33.12.68.2,1a2.85,2.85,0,0,0,2.08,2.13,1.74,1.74,0,0,0,.5.07h0a2.65,2.65,0,0,0,2.56-2,15.84,15.84,0,0,0,.4-2.13h0a.32.32,0,0,0,.33-.32l0-2.11A.38.38,0,0,0,165.41,339.23Z"/><rect class="cls-12" x="153.87" y="339.65" width="4.66" height="1.68" transform="translate(2.94 -1.33) rotate(0.49)"/><path class="cls-12" d="M153.47,339a1,1,0,0,0-.92-.55,1,1,0,0,0-.9,1v.13l-4.59,0v-.13a1,1,0,0,0-.9-1,1,1,0,0,0-1,.6.64.64,0,0,1-.18.25.64.64,0,0,0-.19.45v1.32a.64.64,0,0,0,.19.45.74.74,0,0,1,.17.25,1,1,0,0,0,.95.62,1,1,0,0,0,.91-1v-.13l4.59,0v.13a1,1,0,0,0,.89,1,1,1,0,0,0,.93-.52,1.27,1.27,0,0,1,.22-.33.6.6,0,0,0,.19-.45v-1.32a.59.59,0,0,0-.18-.45A1.4,1.4,0,0,1,153.47,339Z"/><path class="cls-12" d="M149.63,341.55a.25.25,0,0,1-.48-.1l.42-2.06a.26.26,0,0,1,.49.1Z"/><ellipse class="cls-12" cx="148.41" cy="340.46" rx="2.33" ry="0.28" transform="translate(-215.13 416.48) rotate(-78.26)"/><ellipse class="cls-12" cx="150.81" cy="340.47" rx="2.33" ry="0.28" transform="translate(-213.23 418.83) rotate(-78.26)"/><path class="cls-13" d="M152.48,344.62c0,.17-.69.26-.73.42s.57.51.51.66-.74,0-.83.14.36.68.25.8-.69-.25-.82-.15.1.76,0,.84-.57-.48-.72-.42-.16.74-.33.77-.36-.64-.53-.65-.41.65-.57.62-.13-.73-.28-.79-.61.47-.75.38.13-.73,0-.84-.73.24-.83.11.37-.64.29-.79-.77,0-.82-.18.57-.47.55-.64-.71-.28-.71-.45.7-.26.73-.42-.57-.51-.51-.66.74,0,.83-.14-.36-.68-.25-.8.7.25.83.15-.11-.76,0-.84.57.48.73.43.16-.75.32-.78.37.64.54.65.41-.65.56-.62.13.73.29.79.6-.47.74-.38-.13.73,0,.84.73-.24.84-.11-1.21.89-.3.79c.17,0,.77,0,.82.18s-.57.47-.54.64S152.49,344.46,152.48,344.62Z"/><line class="cls-12" x1="149.85" y1="343.36" x2="149.83" y2="343.39"/><line class="cls-12" x1="150.26" y1="343.71" x2="150.27" y2="343.69"/><path class="cls-12" d="M150.3,345.3a1.26,1.26,0,0,0,0-1.59l-1.49,2A1.26,1.26,0,0,0,150.3,345.3Z"/><path class="cls-12" d="M148.29,343.77a1.26,1.26,0,0,0,.05,1.58l1.49-2A1.26,1.26,0,0,0,148.29,343.77Z"/><line class="cls-12" x1="149.83" y1="343.39" x2="148.34" y2="345.35"/><line class="cls-12" x1="148.77" y1="345.68" x2="150.26" y2="343.71"/><path class="cls-15" d="M236.06,230.19h12.41l.11-1.08a47.35,47.35,0,0,1,3.52-13.75,6.46,6.46,0,0,0,.51-2.53V153.19a1.19,1.19,0,0,0-1-1.18L239,149.69a18.46,18.46,0,0,0-5.81,0L220.53,152a1.19,1.19,0,0,0-1,1.18v59.74a6,6,0,0,0,.47,2.33,47.43,47.43,0,0,1,3.56,13.85l.11,1.08Z"/><path class="cls-16" d="M251,450.43H221.13q1.37-110.15,2.72-220.3h24.43Q249.65,340.28,251,450.43Z"/><rect class="cls-17" x="230.12" y="304.34" width="13.16" height="2.44"/><rect class="cls-17" x="230.12" y="310.81" width="13.16" height="2.44"/><rect class="cls-17" x="226.07" y="307.57" width="20.99" height="2.44"/><rect class="cls-17" x="230.27" y="332.71" width="13.16" height="2.44"/><rect class="cls-17" x="230.27" y="339.18" width="13.16" height="2.44"/><rect class="cls-17" x="226.21" y="335.95" width="20.99" height="2.44"/><rect class="cls-17" x="230.27" y="357.08" width="13.16" height="2.44"/><rect class="cls-17" x="230.27" y="363.55" width="13.16" height="2.44"/><rect class="cls-17" x="226.21" y="360.31" width="20.99" height="2.44"/><line class="cls-18" x1="223.61" y1="249.58" x2="248.52" y2="249.58"/><line class="cls-18" x1="223.38" y1="267.81" x2="248.75" y2="267.81"/><line class="cls-18" x1="223.17" y1="284.89" x2="248.96" y2="284.89"/><line class="cls-18" x1="222.97" y1="301" x2="249.16" y2="301"/><line class="cls-18" x1="222.79" y1="316.02" x2="249.34" y2="316.02"/><line class="cls-18" x1="222.61" y1="330.21" x2="249.52" y2="330.21"/><line class="cls-18" x1="222.45" y1="343.24" x2="249.68" y2="343.24"/><line class="cls-18" x1="222.3" y1="355.75" x2="249.83" y2="355.75"/><line class="cls-18" x1="222.16" y1="367.24" x2="249.97" y2="367.24"/><line class="cls-18" x1="222.02" y1="378.03" x2="250.11" y2="378.03"/><line class="cls-18" x1="221.9" y1="388.17" x2="250.23" y2="388.17"/><line class="cls-18" x1="221.78" y1="397.8" x2="250.35" y2="397.8"/><line class="cls-18" x1="221.67" y1="406.66" x2="250.46" y2="406.66"/><line class="cls-18" x1="221.56" y1="415.26" x2="250.57" y2="415.26"/><line class="cls-18" x1="221.47" y1="423.09" x2="250.66" y2="423.09"/><line class="cls-18" x1="221.38" y1="430.54" x2="250.75" y2="430.54"/><line class="cls-18" x1="221.29" y1="437.66" x2="250.84" y2="437.66"/><line class="cls-18" x1="221.13" y1="444.27" x2="250.92" y2="444.27"/><path class="cls-19" d="M125.05,189.33h24.21a.73.73,0,0,1,.73.73v1.87a0,0,0,0,1,0,0H124.33a0,0,0,0,1,0,0v-1.87A.73.73,0,0,1,125.05,189.33Z"/><line class="cls-20" x1="126.63" y1="192.04" x2="126.63" y2="189.44"/><line class="cls-21" x1="130.7" y1="191.93" x2="130.7" y2="189.33"/><line class="cls-22" x1="135.21" y1="191.93" x2="135.21" y2="189.33"/><line class="cls-23" x1="143.85" y1="191.95" x2="143.85" y2="189.35"/><line class="cls-24" x1="139.68" y1="191.93" x2="139.68" y2="189.33"/><line class="cls-25" x1="147.63" y1="191.93" x2="147.63" y2="189.33"/><polygon class="cls-26" points="235.54 175.6 236.64 173.31 237.79 175.58 240.32 175.91 238.52 177.71 238.98 180.21 236.71 179.05 234.47 180.26 234.87 177.75 233.03 176 235.54 175.6"/><circle class="cls-27" cx="226.75" cy="168.27" r="1.48"/><circle class="cls-27" cx="246.26" cy="168.27" r="1.48"/><circle class="cls-27" cx="246.26" cy="186.3" r="1.48"/><circle class="cls-27" cx="226.75" cy="186.3" r="1.48"/><circle class="cls-27" cx="226.75" cy="203.46" r="1.48"/><circle class="cls-27" cx="246.26" cy="203.44" r="1.48"/><path class="cls-28" d="M232.16,156.27c-.14.08,1.91.49,2-1,.22-3.45-5.16-2.79-4.75-.17,1.77,11.23-4.56,6.52-3.17,4.47.75-1.1,2.46-1.15,2.51.08s-1.35.36-1.4.41c-.34.33.58,1.37,1.52.74,1.92-1.28-1.36-4.61-3.3-1.85-2.77,3.92,6.5,8,5.32-2.07C230.22,151.15,235.27,154.61,232.16,156.27Z"/><path class="cls-28" d="M232.46,162s-.77,1-.8.51a16.26,16.26,0,0,1,1.61-3.17l.89-.07.29-.38-1,0,.8-1.18-.61-.07-.9,1.13h-1.25l-.16.48h.93s-2.5,3.33-1.28,3.85a1.48,1.48,0,0,0,1.86-.77Z"/><path class="cls-28" d="M237,158.92c-.57-1.68-5.07,1.06-3.51,3.83.53.94,2.45,0,2.56-.91l0,0s-1.76.91-1.86,0C234.13,161.07,237.66,160.72,237,158.92Z"/><ellipse class="cls-29" cx="235.4" cy="159.7" rx="1.09" ry="0.38" transform="translate(-48.31 139.1) rotate(-30)"/><path class="cls-28" d="M238.56,156.5s1,.36,2.12-1l.58.19s-4.91,7.12-3.95,6.87.71-.39.71-.39,1-.19.25.64-3.34.52-.9-2.92,2-2.76,2-2.76l-1.06,0Z"/><path class="cls-28" d="M240.9,156.5s1,.36,2.12-1l.58.19s-4.91,7.12-3.95,6.87.71-.39.71-.39,1.06-.19.26.64-3.34.52-.9-2.92,2-2.76,2-2.76l-1.06,0Z"/><path class="cls-28" d="M243.53,163.17c1,.16,2.57-1.22,2.16-1.64s-.87.63-1.51.87.78-1.64,1.26-2.55-.78-.42-.78-.42a1.12,1.12,0,0,0-.47-1c-.66-.38-1.82.42-2.52,1.64s-.69,2.72.07,2.77a2.17,2.17,0,0,0,1.5-.47S242.84,163.06,243.53,163.17Z"/><ellipse class="cls-30" cx="243.13" cy="160.65" rx="1.68" ry="0.56" transform="translate(-28.28 266.75) rotate(-54.81)"/><text class="cls-31" transform="translate(230.77 210.74)">STEEL</text><text class="cls-32" transform="translate(232.71 217.32)">NECK</text><path d="M228.24,213.64a3.38,3.38,0,0,1,.55-.23,1,1,0,0,1,.66-.06.44.44,0,0,1,.28.3.49.49,0,0,1-.2.52h0a.43.43,0,0,1,.34.25c.12.17.24.38.29.44l-.41.12a2.28,2.28,0,0,1-.25-.36c-.11-.19-.21-.23-.37-.17l-.13,0,.23.66-.39.14Zm.67.58.16-.06c.21-.06.3-.2.25-.35s-.19-.2-.38-.13a1.4,1.4,0,0,0-.19.07C228.8,213.91,228.86,214.06,228.91,214.22Z"/><path d="M231.33,213.78l-.68.17c0,.13.07.27.11.41.24-.07.49-.13.74-.18,0,.11.05.21.07.32-.38.09-.76.18-1.13.29l-.48-1.72c.39-.11.78-.21,1.18-.3,0,.1.05.21.07.32l-.74.18.1.36.68-.17Z"/><path d="M232,212.59l.33,1.76-.4.08c-.13-.58-.25-1.17-.37-1.75Z"/><path d="M232.72,214.27l-.3-1.76.51-.08c.17.19.33.39.49.59a4.42,4.42,0,0,1,.39.57h0a7.16,7.16,0,0,1-.12-.74c0-.17,0-.34-.07-.52l.41,0c.06.59.13,1.18.19,1.78l-.43.05c-.16-.22-.32-.43-.49-.64s-.29-.38-.41-.57h0c0,.23.09.48.13.77l.09.53Z"/><path d="M234.48,212.24c.4,0,.8-.06,1.2-.07,0,.11,0,.22,0,.33l-.75,0,0,.41.68,0c0,.11,0,.22,0,.33l-.67,0c0,.24,0,.47,0,.71l-.41,0Z"/><path d="M237.82,213.06a.88.88,0,0,1-.94.91.86.86,0,0,1-.87-.9.88.88,0,0,1,.93-.95A.85.85,0,0,1,237.82,213.06Zm-1.36,0c0,.35.17.6.45.6s.45-.25.46-.6-.14-.6-.45-.61S236.45,212.7,236.46,213.05Z"/><path d="M238.22,212.23a2.87,2.87,0,0,1,.59,0,1.05,1.05,0,0,1,.62.21.44.44,0,0,1,.13.39.47.47,0,0,1-.38.4h0a.46.46,0,0,1,.21.36,4.05,4.05,0,0,0,.09.52l-.42-.05a2.16,2.16,0,0,1-.09-.43c0-.23-.1-.3-.27-.31h-.13l-.06.7-.4,0C238.14,213.4,238.18,212.81,238.22,212.23Zm.38.79.16,0c.22,0,.35-.07.37-.22s-.09-.26-.29-.28h-.2C238.62,212.7,238.61,212.86,238.6,213Z"/><path d="M241.08,214.32a1.06,1.06,0,0,1-.47,0,.89.89,0,0,1-.83-1,.94.94,0,0,1,1.19-.78,1.19,1.19,0,0,1,.46.17l-.15.3a.88.88,0,0,0-.35-.13.55.55,0,0,0-.7.48.56.56,0,0,0,.5.68,1,1,0,0,0,.35,0Z"/><path d="M242.65,214l-.68-.17-.09.42.74.18-.09.32c-.37-.1-.75-.19-1.13-.27.12-.58.24-1.17.37-1.75.39.08.79.18,1.18.28,0,.11,0,.21-.08.32l-.74-.18c0,.12-.06.24-.08.36l.68.17C242.7,213.75,242.68,213.85,242.65,214Z"/><path d="M243.34,213.1a3.11,3.11,0,0,1,.59.14,1.32,1.32,0,0,1,.72.43.78.78,0,0,1,.08.75.92.92,0,0,1-.54.58,1.43,1.43,0,0,1-.88-.05,2.52,2.52,0,0,1-.44-.16C243,214.23,243.18,213.67,243.34,213.1Zm0,1.53.14.05a.58.58,0,0,0,.8-.4.53.53,0,0,0-.4-.73l-.2-.05C243.58,213.88,243.46,214.25,243.35,214.63Z"/><circle class="cls-33" cx="226.75" cy="186.3" r="2.41"/><circle class="cls-33" cx="226.75" cy="168.27" r="2.41"/><circle class="cls-33" cx="246.26" cy="168.27" r="2.41"/><circle class="cls-33" cx="246.26" cy="186.3" r="2.41"/><circle class="cls-33" cx="246.26" cy="203.44" r="2.41"/><circle class="cls-33" cx="226.75" cy="203.44" r="2.41"/><circle class="cls-27" cx="127.4" cy="234.7" r="1.48"/><circle class="cls-27" cx="146.91" cy="234.7" r="1.48"/><circle class="cls-27" cx="146.91" cy="252.73" r="1.48"/><circle class="cls-27" cx="127.4" cy="252.73" r="1.48"/><circle class="cls-27" cx="127.4" cy="269.89" r="1.48"/><circle class="cls-27" cx="146.91" cy="269.87" r="1.48"/><polygon class="cls-34" points="248.6 227.42 223.48 227.38 223.88 230.04 248.29 230.09 248.6 227.42"/><path class="cls-9" d="M415.18,213.18H382.92v-45c10.3-.77,32.26.52,32.26.52Z"/><line class="cls-13" x1="384.58" y1="176.1" x2="391.66" y2="169.77"/><line class="cls-13" x1="396.44" y1="211.63" x2="413.55" y2="196.34"/><line class="cls-13" x1="403.37" y1="211.32" x2="412.68" y2="203"/><line class="cls-13" x1="408.63" y1="212.5" x2="413.55" y2="208.11"/><line class="cls-13" x1="384.25" y1="183.23" x2="400.01" y2="169.09"/><line class="cls-13" x1="384.25" y1="189.8" x2="406.58" y2="169.77"/><line class="cls-13" x1="384.25" y1="196.38" x2="413.9" y2="169.77"/><line class="cls-13" x1="384.25" y1="202.95" x2="413.9" y2="176.34"/><line class="cls-13" x1="384.58" y1="209.23" x2="413.55" y2="183.23"/><line class="cls-13" x1="388.12" y1="212.62" x2="413.9" y2="189.49"/><path class="cls-35" d="M403.29,176.1H395L393.6,168h0c3.48,0,7.59.06,11,.26h0Z"/><rect class="cls-36" x="94.19" y="404.32" width="94.32" height="16.9"/><line class="cls-37" x1="188.51" y1="405.36" x2="94.19" y2="405.36"/><line class="cls-37" x1="188.51" y1="406.41" x2="94.19" y2="406.41"/><line class="cls-37" x1="188.51" y1="407.47" x2="94.19" y2="407.47"/><line class="cls-37" x1="188.51" y1="408.53" x2="94.19" y2="408.53"/><line class="cls-37" x1="188.51" y1="409.58" x2="94.19" y2="409.58"/><line class="cls-37" x1="188.51" y1="410.64" x2="94.19" y2="410.64"/><line class="cls-37" x1="188.51" y1="411.69" x2="94.19" y2="411.69"/><line class="cls-37" x1="188.51" y1="412.75" x2="94.19" y2="412.75"/><line class="cls-37" x1="188.51" y1="413.81" x2="94.19" y2="413.81"/><line class="cls-37" x1="188.51" y1="414.86" x2="94.19" y2="414.86"/><line class="cls-37" x1="188.51" y1="415.92" x2="94.19" y2="415.92"/><line class="cls-37" x1="188.51" y1="416.98" x2="94.19" y2="416.98"/><line class="cls-37" x1="188.51" y1="418.03" x2="94.19" y2="418.03"/><line class="cls-37" x1="188.51" y1="419.09" x2="94.19" y2="419.09"/><line class="cls-37" x1="188.51" y1="420.14" x2="94.19" y2="420.14"/><circle class="cls-38" cx="124.23" cy="416.01" r="2.83"/><circle class="cls-39" cx="124.23" cy="416.01" r="1.42"/><circle class="cls-38" cx="131.25" cy="416.01" r="2.83"/><circle class="cls-39" cx="131.25" cy="416.01" r="1.42"/><circle class="cls-38" cx="138.28" cy="416.01" r="2.83"/><circle class="cls-39" cx="138.28" cy="416.01" r="1.42"/><circle class="cls-38" cx="145.21" cy="416.01" r="2.83"/><circle class="cls-39" cx="145.21" cy="416.01" r="1.42"/><circle class="cls-38" cx="152.16" cy="416.01" r="2.83"/><circle class="cls-39" cx="152.16" cy="416.01" r="1.42"/><circle class="cls-38" cx="159.26" cy="416.01" r="2.83"/><circle class="cls-39" cx="159.26" cy="416.01" r="1.42"/><path class="cls-40" d="M106.29,413.17,94.52,421a.21.21,0,0,1-.29,0,.23.23,0,0,1,0-.14V404.7a.21.21,0,0,1,.32-.17l11.76,7.82a.51.51,0,0,1,.13.7A.63.63,0,0,1,106.29,413.17Z"/><path class="cls-40" d="M111.47,404.31a9.59,9.59,0,0,0,.15,16.91H116a8.7,8.7,0,0,0,.8-3.65v-11a3.43,3.43,0,0,0-.8-2.21h-4.56Z"/><path class="cls-40" d="M176.42,413.17,188.19,421a.21.21,0,0,0,.29,0,.23.23,0,0,0,0-.14V404.7a.21.21,0,0,0-.32-.17l-11.76,7.82a.49.49,0,0,0-.15.68A.57.57,0,0,0,176.42,413.17Z"/><path class="cls-40" d="M171.23,404.3a9.58,9.58,0,0,1,3.81,13,9.46,9.46,0,0,1-4,3.89h-4.41l-.56-1.19a2.82,2.82,0,0,1-.25-1.14v-13.3a.82.82,0,0,1,.2-.54l.6-.72Z"/><rect class="cls-41" x="113.36" y="408.01" width="54.84" height="1.37" transform="translate(-10.79 3.88) rotate(-1.52)"/><rect class="cls-42" x="94.19" y="404.32" width="94.32" height="16.9"/><rect class="cls-1" x="0.65" y="448.13" width="600" height="148.59"/><rect class="cls-1" x="1.06" width="600" height="148.59"/></g></g></svg>