<svg xmlns="http://www.w3.org/2000/svg" viewBox="0 0 600.08 600.7"><defs><style>.cls-1,.cls-11,.cls-12,.cls-8{fill:none;}.cls-1{stroke:#b3b3b3;stroke-dasharray:0.78 0.78 0.78 0.78;}.cls-1,.cls-10,.cls-11,.cls-12,.cls-3{stroke-miterlimit:10;}.cls-1,.cls-10,.cls-11,.cls-12{stroke-width:0.9px;}.cls-2,.cls-4,.cls-5,.cls-6,.cls-7{isolation:isolate;font-family:Helvetica;}.cls-2{font-size:12.85px;}.cls-3{fill:#e51729;stroke:#e51729;stroke-width:2px;}.cls-4{font-size:25.18px;}.cls-5{font-size:11.64px;}.cls-6{font-size:13.32px;}.cls-7{font-size:15.96px;}.cls-9{fill:#1f3d4c;}.cls-10{fill:#fff;stroke:#22b573;}.cls-11{stroke:#29abe2;}.cls-12{stroke:#000;}</style></defs><g id="Layer_2" data-name="Layer 2"><g id="Layer_1-2" data-name="Layer 1"><line class="cls-1" x1="60.47" y1="313.87" x2="539.35" y2="313.87"/><line class="cls-1" x1="60.47" y1="315.6" x2="539.35" y2="315.6"/><line class="cls-1" x1="60.47" y1="317.33" x2="539.35" y2="317.33"/><line class="cls-1" x1="60.47" y1="319.06" x2="539.35" y2="319.06"/><line class="cls-1" x1="60.47" y1="320.79" x2="539.35" y2="320.79"/><line class="cls-1" x1="60.47" y1="322.51" x2="539.35" y2="322.51"/><line class="cls-1" x1="60.47" y1="324.24" x2="539.35" y2="324.24"/><line class="cls-1" x1="60.47" y1="325.97" x2="539.35" y2="325.97"/><line class="cls-1" x1="60.47" y1="327.7" x2="539.35" y2="327.7"/><line class="cls-1" x1="60.47" y1="329.43" x2="539.35" y2="329.43"/><line class="cls-1" x1="60.47" y1="331.15" x2="539.35" y2="331.15"/><line class="cls-1" x1="60.47" y1="332.88" x2="539.35" y2="332.88"/><line class="cls-1" x1="60.47" y1="334.61" x2="539.35" y2="334.61"/><line class="cls-1" x1="60.47" y1="336.34" x2="539.35" y2="336.34"/><line class="cls-1" x1="60.47" y1="338.06" x2="539.35" y2="338.06"/><line class="cls-1" x1="60.47" y1="339.79" x2="539.35" y2="339.79"/><line class="cls-1" x1="60.47" y1="341.52" x2="539.35" y2="341.52"/><line class="cls-1" x1="60.47" y1="343.25" x2="539.35" y2="343.25"/><line class="cls-1" x1="60.47" y1="344.98" x2="539.35" y2="344.98"/><line class="cls-1" x1="60.47" y1="346.7" x2="539.35" y2="346.7"/><line class="cls-1" x1="60.47" y1="348.43" x2="539.35" y2="348.43"/><line class="cls-1" x1="60.47" y1="350.16" x2="539.35" y2="350.16"/><line class="cls-1" x1="60.47" y1="351.89" x2="539.35" y2="351.89"/><line class="cls-1" x1="60.47" y1="353.61" x2="539.35" y2="353.61"/><line class="cls-1" x1="60.47" y1="355.34" x2="539.35" y2="355.34"/><line class="cls-1" x1="60.47" y1="357.07" x2="539.35" y2="357.07"/><line class="cls-1" x1="60.47" y1="358.8" x2="539.35" y2="358.8"/><line class="cls-1" x1="60.47" y1="360.53" x2="539.35" y2="360.53"/><line class="cls-1" x1="60.47" y1="362.25" x2="539.35" y2="362.25"/><line class="cls-1" x1="60.47" y1="363.98" x2="539.35" y2="363.98"/><line class="cls-1" x1="60.47" y1="365.71" x2="539.35" y2="365.71"/><line class="cls-1" x1="60.47" y1="367.44" x2="539.35" y2="367.44"/><line class="cls-1" x1="60.47" y1="369.16" x2="539.35" y2="369.16"/><line class="cls-1" x1="60.47" y1="370.89" x2="539.35" y2="370.89"/><line class="cls-1" x1="60.47" y1="372.62" x2="539.35" y2="372.62"/><line class="cls-1" x1="60.47" y1="374.35" x2="539.35" y2="374.35"/><line class="cls-1" x1="60.47" y1="376.08" x2="539.35" y2="376.08"/><line class="cls-1" x1="60.47" y1="377.8" x2="539.35" y2="377.8"/><line class="cls-1" x1="60.47" y1="379.53" x2="539.35" y2="379.53"/><line class="cls-1" x1="60.47" y1="381.26" x2="539.35" y2="381.26"/><line class="cls-1" x1="60.47" y1="382.99" x2="539.35" y2="382.99"/><line class="cls-1" x1="366.22" y1="384.72" x2="539.35" y2="384.72"/><line class="cls-1" x1="384.99" y1="386.44" x2="539.35" y2="386.44"/><line class="cls-1" x1="397.88" y1="388.17" x2="539.35" y2="388.17"/><line class="cls-1" x1="408.12" y1="389.9" x2="539.35" y2="389.9"/><line class="cls-1" x1="416.81" y1="391.63" x2="539.35" y2="391.63"/><line class="cls-1" x1="424.47" y1="393.35" x2="539.35" y2="393.35"/><line class="cls-1" x1="431.35" y1="395.08" x2="539.35" y2="395.08"/><line class="cls-1" x1="437.64" y1="396.81" x2="539.35" y2="396.81"/><line class="cls-1" x1="443.44" y1="398.54" x2="539.35" y2="398.54"/><line class="cls-1" x1="448.98" y1="400.27" x2="539.35" y2="400.27"/><line class="cls-1" x1="453.91" y1="401.99" x2="539.35" y2="401.99"/><line class="cls-1" x1="458.68" y1="403.72" x2="539.35" y2="403.72"/><line class="cls-1" x1="463.2" y1="405.45" x2="539.35" y2="405.45"/><line class="cls-1" x1="467.48" y1="407.18" x2="539.35" y2="407.18"/><line class="cls-1" x1="471.56" y1="408.9" x2="539.35" y2="408.9"/><line class="cls-1" x1="475.63" y1="410.63" x2="539.35" y2="410.63"/><line class="cls-1" x1="479.2" y1="412.36" x2="539.35" y2="412.36"/><line class="cls-1" x1="482.78" y1="414.09" x2="539.35" y2="414.09"/><line class="cls-1" x1="486.22" y1="415.82" x2="539.35" y2="415.82"/><line class="cls-1" x1="489.53" y1="417.54" x2="539.35" y2="417.54"/><line class="cls-1" x1="492.72" y1="419.27" x2="539.35" y2="419.27"/><line class="cls-1" x1="495.83" y1="420.97" x2="539.35" y2="421"/><line class="cls-1" x1="498.75" y1="422.62" x2="539.35" y2="422.73"/><line class="cls-1" x1="501.94" y1="424.53" x2="539.35" y2="424.45"/><line class="cls-1" x1="504.35" y1="426.06" x2="539.35" y2="426.18"/><line class="cls-1" x1="507.15" y1="428.09" x2="539.35" y2="427.91"/><line class="cls-1" x1="509.75" y1="429.64" x2="539.35" y2="429.64"/><line class="cls-1" x1="512.29" y1="431.37" x2="539.35" y2="431.37"/><line class="cls-1" x1="514.68" y1="433.09" x2="539.35" y2="433.09"/><line class="cls-1" x1="517.48" y1="435.06" x2="539.35" y2="434.82"/><line class="cls-1" x1="519.34" y1="436.55" x2="539.35" y2="436.55"/><line class="cls-1" x1="521.51" y1="438.28" x2="539.35" y2="438.28"/><line class="cls-1" x1="523.67" y1="440" x2="539.35" y2="440"/><line class="cls-1" x1="525.82" y1="441.73" x2="539.35" y2="441.73"/><line class="cls-1" x1="527.99" y1="443.46" x2="539.35" y2="443.46"/><line class="cls-1" x1="530.15" y1="445.19" x2="539.35" y2="445.19"/><line class="cls-1" x1="532.31" y1="446.92" x2="539.35" y2="446.92"/><line class="cls-1" x1="534.47" y1="448.64" x2="539.35" y2="448.64"/><line class="cls-1" x1="536.63" y1="450.37" x2="539.35" y2="450.37"/><line class="cls-1" x1="539.35" y1="452.1" x2="539.35" y2="452.1"/><text class="cls-2" transform="translate(114.78 235.74)">32</text><path class="cls-3" d="M312.46,289.29h-1.07c-2.1.78-4.84,2.75-4.83,5.1H317.5C317.45,292.05,314.56,290,312.46,289.29Z"/><text class="cls-4" transform="translate(161.6 242.1)">1</text><text class="cls-5" transform="translate(98.39 209.81)">1</text><text class="cls-4" transform="translate(279.65 242.1)">2</text><text class="cls-6" transform="translate(66.47 235.74)">INCH</text><text class="cls-7" transform="translate(66.47 204.94)">cm</text><text class="cls-5" transform="translate(145.54 209.81)">2</text><text class="cls-7" transform="translate(113.63 204.94)">cm</text><text class="cls-5" transform="translate(192.7 209.81)">3</text><text class="cls-7" transform="translate(160.79 204.94)">cm</text><text class="cls-5" transform="translate(239.85 209.81)">4</text><text class="cls-7" transform="translate(207.93 204.94)">cm</text><text class="cls-5" transform="translate(287.01 209.81)">5</text><text class="cls-7" transform="translate(255.09 204.94)">cm</text><text class="cls-5" transform="translate(334.16 209.81)">6</text><text class="cls-7" transform="translate(302.25 204.94)">cm</text><text class="cls-5" transform="translate(381.32 209.81)">7</text><text class="cls-7" transform="translate(349.4 204.94)">cm</text><text class="cls-5" transform="translate(428.48 209.81)">8</text><text class="cls-7" transform="translate(396.56 204.94)">cm</text><text class="cls-5" transform="translate(475.63 209.81)">9</text><text class="cls-7" transform="translate(443.71 204.94)">cm</text><text class="cls-5" transform="translate(516.52 209.81)">10</text><text class="cls-7" transform="translate(490.87 204.94)">cm</text><text class="cls-2" transform="translate(355.37 235.74)">32</text><text class="cls-4" transform="translate(402.19 242.1)">3</text><text class="cls-4" transform="translate(520.25 242.1)">4</text><text class="cls-6" transform="translate(307.07 235.74)">INCH</text><polygon class="cls-8" points="180.82 212.53 180.82 254.21 180.82 265.11 181.05 265.11 181.05 254.21 181.05 212.53 180.82 212.53"/><path class="cls-3" d="M227.21,289.29h-1.06c-2.11.78-4.85,2.75-4.83,5.1h10.94C232.22,292.05,229.33,290,227.21,289.29Z"/><path class="cls-3" d="M473,294.41c0-2.34-2.88-4.37-5-5.12H467c-2.1.78-4.84,2.75-4.82,5.1h5.47Z"/><path class="cls-3" d="M142,294.41c0-2.34-2.88-4.37-5-5.12H136c-2.1.78-4.85,2.75-4.82,5.1h5.47Z"/><path class="cls-3" d="M398,294.41c0-2.34-2.88-4.37-5-5.12h-1.06c-2.1.78-4.85,2.75-4.83,5.1h5.47Z"/><path class="cls-9" d="M226.79,294.42H136.62m175.38,0H226.83m165.76,0H312m155.57,0h-75v7.67m-255.94-7.67h-76v17.91H539.52V294.42H467.57M94.68,307.85a4.48,4.48,0,1,1,4.48-4.48,4.48,4.48,0,0,1-4.48,4.48Zm176.46,0a4.48,4.48,0,1,1,4.48-4.48,4.48,4.48,0,0,1-4.48,4.48Zm233.8,0a4.48,4.48,0,1,1,4.47-4.48h0a4.47,4.47,0,0,1-4.47,4.48Z"/><path class="cls-10" d="M94.68,298.9a4.48,4.48,0,1,0,4.48,4.47,4.48,4.48,0,0,0-4.48-4.47Z"/><path class="cls-10" d="M271.14,298.9a4.48,4.48,0,1,0,4.48,4.47A4.48,4.48,0,0,0,271.14,298.9Z"/><path class="cls-10" d="M504.94,298.9a4.48,4.48,0,1,0,4.47,4.47h0A4.47,4.47,0,0,0,504.94,298.9Z"/><line class="cls-11" x1="539.53" y1="371.09" x2="539.53" y2="364.38"/><line class="cls-11" x1="539.53" y1="377.8" x2="539.53" y2="371.09"/><line class="cls-11" x1="539.53" y1="384.52" x2="539.53" y2="377.8"/><path class="cls-11" d="M539.53,317.4v-5.07H60.64V384H341.82q10,0,20,.53"/><line class="cls-11" x1="539.53" y1="324.11" x2="539.53" y2="317.4"/><line class="cls-11" x1="539.53" y1="330.82" x2="539.53" y2="324.11"/><line class="cls-11" x1="539.53" y1="337.53" x2="539.53" y2="330.82"/><line class="cls-11" x1="539.53" y1="344.24" x2="539.53" y2="337.53"/><line class="cls-11" x1="539.53" y1="350.95" x2="539.53" y2="344.24"/><line class="cls-11" x1="539.53" y1="357.67" x2="539.53" y2="350.95"/><line class="cls-11" x1="539.53" y1="364.38" x2="539.53" y2="357.67"/><line class="cls-11" x1="539.53" y1="391.23" x2="539.53" y2="384.52"/><line class="cls-11" x1="539.53" y1="397.94" x2="539.53" y2="391.23"/><line class="cls-11" x1="539.53" y1="404.65" x2="539.53" y2="397.94"/><line class="cls-11" x1="539.53" y1="411.36" x2="539.53" y2="404.65"/><line class="cls-11" x1="539.53" y1="418.08" x2="539.53" y2="411.36"/><line class="cls-11" x1="539.53" y1="424.79" x2="539.53" y2="418.08"/><line class="cls-11" x1="539.53" y1="431.5" x2="539.53" y2="424.79"/><line class="cls-11" x1="539.53" y1="438.21" x2="539.53" y2="431.5"/><line class="cls-11" x1="539.53" y1="444.93" x2="539.53" y2="438.21"/><path class="cls-11" d="M361.81,384.52c55.38,2.86,111.25,17.93,155.67,50.54l22,17.63v-1.05h0v-6.71"/><rect class="cls-12" x="109.33" y="275.6" width="3.69" height="12.67"/><polygon class="cls-12" points="165.65 269.47 150.85 269.47 150.85 271.24 158.2 271.24 165.65 271.24 165.65 271.06 165.65 271.24 173.02 271.24 173.02 270.7 173.02 271.24 180.65 271.24 180.65 275.6 176.93 275.6 176.93 288.26 180.82 288.26 180.82 269.47 180.65 269.47 165.65 269.47"/><rect class="cls-12" x="113.02" y="275.6" width="3.91" height="12.67"/><polygon class="cls-12" points="120.64 275.6 116.92 275.6 116.92 288.26 120.73 288.26 120.73 275.6 120.64 275.6"/><rect class="cls-12" x="94.26" y="275.6" width="3.93" height="12.67"/><rect class="cls-12" x="98.19" y="275.6" width="3.73" height="12.67"/><rect class="cls-12" x="101.91" y="275.6" width="3.73" height="12.67"/><rect class="cls-12" x="105.64" y="275.6" width="3.69" height="12.67"/><rect class="cls-12" x="169.33" y="275.6" width="3.69" height="12.67"/><rect class="cls-12" x="165.65" y="275.6" width="3.69" height="12.67"/><rect class="cls-12" x="90.64" y="275.6" width="3.63" height="12.67"/><rect class="cls-12" x="173.02" y="275.6" width="3.91" height="12.67"/><rect class="cls-12" x="161.93" y="275.6" width="3.73" height="12.67"/><rect class="cls-12" x="150.85" y="275.6" width="3.42" height="12.67"/><rect class="cls-12" x="154.27" y="275.6" width="3.93" height="12.67"/><rect class="cls-12" x="158.2" y="275.6" width="3.73" height="12.67"/><rect class="cls-12" x="120.73" y="275.6" width="0.12" height="12.67"/><polygon class="cls-12" points="105.64 271.24 105.64 271.06 105.64 271.24 113.02 271.24 120.64 271.24 120.73 271.24 120.73 269.47 120.64 269.47 105.64 269.47 90.64 269.47 90.64 271.24 98.19 271.24 105.64 271.24"/><polygon class="cls-12" points="120.64 265.11 120.73 265.11 120.73 254.21 90.64 254.21 90.64 265.11 105.64 265.11 120.64 265.11"/><polygon class="cls-12" points="150.85 254.21 150.85 265.11 165.65 265.11 180.65 265.11 180.82 265.11 180.82 254.21 150.85 254.21"/><rect class="cls-12" x="120.73" y="269.47" width="0.12" height="1.77"/><rect class="cls-12" x="120.73" y="254.21" width="0.12" height="10.9"/><polygon class="cls-12" points="120.73 254.21 120.73 241.14 120.73 254.21 120.85 254.21 150.85 254.21 180.82 254.21 180.82 212.53 154.95 212.53 120.73 212.53 107.79 212.53 60.64 212.53 60.64 254.21 90.64 254.21 120.73 254.21"/><polygon class="cls-12" points="90.64 265.11 90.64 254.21 60.64 254.21 60.64 265.11 75.64 265.11 90.64 265.11"/><rect class="cls-12" x="64.26" y="275.6" width="3.93" height="12.67"/><rect class="cls-12" x="75.64" y="275.6" width="3.69" height="12.67"/><rect class="cls-12" x="79.32" y="275.6" width="3.69" height="12.67"/><rect class="cls-12" x="83.01" y="275.6" width="3.91" height="12.67"/><rect class="cls-12" x="71.92" y="275.6" width="3.73" height="12.67"/><rect class="cls-12" x="86.92" y="275.6" width="3.72" height="12.67"/><rect class="cls-12" x="68.19" y="275.6" width="3.73" height="12.67"/><rect class="cls-12" x="60.64" y="275.6" width="3.63" height="12.67"/><polygon class="cls-12" points="75.64 271.24 75.64 271.06 75.64 271.24 83.01 271.24 90.64 271.24 90.64 269.47 75.64 269.47 60.64 269.47 60.64 271.24 68.19 271.24 75.64 271.24"/><rect class="cls-12" x="139.34" y="275.6" width="3.69" height="12.67"/><rect class="cls-12" x="135.65" y="275.6" width="3.69" height="12.67"/><rect class="cls-12" x="131.92" y="275.6" width="3.73" height="12.67"/><polygon class="cls-12" points="150.65 275.6 146.92 275.6 146.92 288.26 150.85 288.26 150.85 275.6 150.65 275.6"/><rect class="cls-12" x="128.19" y="275.6" width="3.73" height="12.67"/><rect class="cls-12" x="143.02" y="275.6" width="3.91" height="12.67"/><rect class="cls-12" x="120.85" y="275.6" width="3.42" height="12.67"/><polygon class="cls-12" points="135.65 265.11 150.65 265.11 150.85 265.11 150.85 254.21 120.85 254.21 120.85 265.11 135.65 265.11"/><polygon class="cls-12" points="135.65 269.47 120.85 269.47 120.85 271.24 128.19 271.24 135.65 271.24 135.65 271.06 135.65 271.24 143.02 271.24 150.65 271.24 150.85 271.24 150.85 269.47 150.65 269.47 135.65 269.47"/><rect class="cls-12" x="124.27" y="275.6" width="3.93" height="12.67"/><rect class="cls-12" x="278.21" y="275.6" width="3.73" height="12.67"/><rect class="cls-12" x="274.28" y="275.6" width="3.93" height="12.67"/><rect class="cls-12" x="271.27" y="275.6" width="3.02" height="12.67"/><polygon class="cls-12" points="241.26 271.24 241.26 269.47 241.26 265.11 241.26 254.21 241.14 254.21 241.14 271.06 241.16 271.06 241.16 275.42 241.14 275.42 241.14 288.26 241.26 288.26 241.26 275.6 241.26 271.24"/><rect class="cls-12" x="285.66" y="275.6" width="3.69" height="12.67"/><rect class="cls-12" x="281.94" y="275.6" width="3.73" height="12.67"/><rect class="cls-12" x="289.35" y="275.6" width="3.69" height="12.67"/><rect class="cls-12" x="296.94" y="275.6" width="4.3" height="12.67"/><polygon class="cls-12" points="211.16 275.42 211.16 271.06 225.66 271.06 233.03 271.06 233.03 270.7 233.03 271.06 241.14 271.06 241.14 254.21 211.06 254.21 211.06 265.11 225.66 265.11 240.9 265.11 240.9 269.47 225.66 269.47 211.06 269.47 211.06 271.24 211.06 275.6 211.06 288.26 214.28 288.26 214.28 275.42 211.16 275.42"/><polygon class="cls-12" points="271.27 265.11 285.66 265.11 301.23 265.11 301.23 254.21 271.27 254.21 271.27 265.11"/><polygon class="cls-12" points="271.27 269.47 271.27 271.24 278.21 271.24 285.66 271.24 285.66 271.06 285.66 271.24 293.04 271.24 301.23 271.24 301.23 269.47 285.66 269.47 271.27 269.47"/><polygon class="cls-12" points="218.2 275.42 214.28 275.42 214.28 288.26 218.2 288.26 218.2 275.6 218.2 275.42"/><polygon class="cls-12" points="225.66 275.42 225.66 288.26 229.34 288.26 229.34 275.55 229.34 288.26 233.03 288.26 233.03 275.55 233.03 288.26 236.93 288.26 236.93 275.55 236.93 288.26 241.14 288.26 241.14 275.42 225.66 275.42"/><rect class="cls-12" x="221.93" y="275.42" width="3.73" height="12.85"/><polygon class="cls-12" points="218.2 275.42 218.2 275.6 218.2 288.26 221.93 288.26 221.93 275.42 218.2 275.42"/><rect class="cls-12" x="293.04" y="275.6" width="3.91" height="12.67"/><path class="cls-12" d="M249.26,212.53H181.05v41.68H301.23V212.53Z"/><rect class="cls-12" x="188.2" y="275.6" width="3.73" height="12.67"/><rect class="cls-12" x="199.34" y="275.6" width="3.69" height="12.67"/><rect class="cls-12" x="206.93" y="275.6" width="4.13" height="12.67"/><rect class="cls-12" x="195.65" y="275.6" width="3.69" height="12.67"/><rect class="cls-12" x="203.03" y="275.6" width="3.91" height="12.67"/><rect class="cls-12" x="191.92" y="275.6" width="3.73" height="12.67"/><rect class="cls-12" x="184.27" y="275.6" width="3.93" height="12.67"/><polygon class="cls-12" points="195.65 271.24 195.65 271.06 195.65 271.24 203.03 271.24 211.06 271.24 211.06 269.47 210.9 269.47 210.9 265.11 211.06 265.11 211.06 254.21 181.05 254.21 181.05 265.11 195.65 265.11 210.65 265.11 210.65 269.47 195.65 269.47 181.05 269.47 181.05 271.24 188.2 271.24 195.65 271.24"/><rect class="cls-12" x="181.05" y="275.6" width="3.22" height="12.67"/><rect class="cls-12" x="266.94" y="275.6" width="4.33" height="12.67"/><polygon class="cls-12" points="271.27 265.11 271.27 254.21 241.26 254.21 241.26 265.11 255.66 265.11 271.27 265.11"/><rect class="cls-12" x="241.26" y="275.6" width="3.02" height="12.67"/><polygon class="cls-12" points="255.66 271.24 255.66 271.06 255.66 271.24 263.03 271.24 271.27 271.24 271.27 269.47 255.66 269.47 241.26 269.47 241.26 271.24 248.82 271.24 255.66 271.24"/><rect class="cls-12" x="263.03" y="275.6" width="3.91" height="12.67"/><rect class="cls-12" x="259.34" y="275.6" width="3.69" height="12.67"/><polygon class="cls-12" points="248.82 275.6 248.21 275.6 248.21 288.26 251.94 288.26 251.94 275.6 248.82 275.6"/><rect class="cls-12" x="251.94" y="275.6" width="3.73" height="12.67"/><rect class="cls-12" x="255.66" y="275.6" width="3.69" height="12.67"/><rect class="cls-12" x="244.28" y="275.6" width="3.93" height="12.67"/><polygon class="cls-12" points="107.79 175.2 82.74 175.2 82.74 188.28 82.74 175.2 60.64 175.2 60.64 212.53 107.79 212.53 107.79 175.2"/><rect class="cls-12" x="60.64" y="148.7" width="47.16" height="18.78"/><polygon class="cls-12" points="107.79 175.2 107.79 167.49 60.64 167.49 60.64 175.2 82.74 175.2 107.79 175.2"/><rect class="cls-12" x="75.64" y="265.11" width="15" height="4.36"/><rect class="cls-12" x="60.64" y="265.11" width="15" height="4.36"/><polygon class="cls-12" points="83.01 271.24 83.01 275.55 83.01 275.6 86.92 275.6 86.92 275.55 86.92 275.6 90.64 275.6 90.64 271.24 83.01 271.24"/><polygon class="cls-12" points="83.01 271.24 75.64 271.24 75.64 275.42 75.64 275.6 79.32 275.6 79.32 275.55 79.32 275.6 83.01 275.6 83.01 275.55 83.01 271.24"/><polygon class="cls-12" points="64.26 275.42 64.26 275.6 68.19 275.6 68.19 275.42 68.19 271.24 60.64 271.24 60.64 275.6 64.26 275.6 64.26 275.42"/><polygon class="cls-12" points="75.64 271.24 68.19 271.24 68.19 275.42 68.19 275.6 71.92 275.6 71.92 275.42 71.92 275.6 75.64 275.6 75.64 275.42 75.64 271.24"/><rect class="cls-12" x="105.64" y="265.11" width="15" height="4.36"/><rect class="cls-12" x="90.64" y="265.11" width="15" height="4.36"/><polygon class="cls-12" points="105.64 271.24 98.19 271.24 98.19 275.42 98.19 275.6 101.91 275.6 101.91 275.42 101.91 275.6 105.64 275.6 105.64 275.42 105.64 271.24"/><polygon class="cls-12" points="113.02 271.24 113.02 275.55 113.02 275.6 116.92 275.6 116.92 275.55 116.92 275.6 120.64 275.6 120.64 271.24 113.02 271.24"/><polygon class="cls-12" points="98.19 271.24 90.64 271.24 90.64 275.6 94.26 275.6 94.26 275.42 94.26 275.6 98.19 275.6 98.19 275.42 98.19 271.24"/><polygon class="cls-12" points="113.02 271.24 105.64 271.24 105.64 275.42 105.64 275.6 109.33 275.6 109.33 275.55 109.33 275.6 113.02 275.6 113.02 275.55 113.02 271.24"/><rect class="cls-12" x="120.64" y="265.11" width="0.09" height="4.36"/><rect class="cls-12" x="120.73" y="265.11" width="0.12" height="4.36"/><rect class="cls-12" x="120.85" y="265.11" width="14.8" height="4.36"/><rect class="cls-12" x="135.65" y="265.11" width="15" height="4.36"/><rect class="cls-12" x="120.64" y="271.24" width="0.09" height="4.36"/><rect class="cls-12" x="120.73" y="271.24" width="0.12" height="4.36"/><polygon class="cls-12" points="143.02 271.24 135.65 271.24 135.65 275.42 135.65 275.6 139.34 275.6 139.34 275.55 139.34 275.6 143.02 275.6 143.02 275.55 143.02 271.24"/><polygon class="cls-12" points="128.19 271.24 120.85 271.24 120.85 275.6 124.27 275.6 124.27 275.42 124.27 275.6 128.19 275.6 128.19 275.42 128.19 271.24"/><polygon class="cls-12" points="135.65 271.24 128.19 271.24 128.19 275.42 128.19 275.6 131.92 275.6 131.92 275.42 131.92 275.6 135.65 275.6 135.65 275.42 135.65 271.24"/><polygon class="cls-12" points="143.02 271.24 143.02 275.55 143.02 275.6 146.92 275.6 146.92 275.55 146.92 275.6 150.65 275.6 150.65 271.24 143.02 271.24"/><rect class="cls-12" x="150.85" y="265.11" width="14.8" height="4.36"/><rect class="cls-12" x="165.65" y="265.11" width="15" height="4.36"/><rect class="cls-12" x="150.65" y="265.11" width="0.2" height="4.36"/><polygon class="cls-12" points="165.65 275.6 169.33 275.6 169.33 275.55 169.33 275.6 173.02 275.6 173.02 275.55 173.02 275.6 176.93 275.6 176.93 275.55 176.93 275.6 180.65 275.6 180.65 271.24 173.02 271.24 173.02 275.05 173.02 271.24 165.65 271.24 165.65 275.42 165.65 275.6"/><polygon class="cls-12" points="158.2 275.6 161.93 275.6 161.93 275.42 161.93 275.6 165.65 275.6 165.65 275.42 165.65 271.24 158.2 271.24 158.2 275.42 158.2 275.6"/><polygon class="cls-12" points="154.27 275.6 154.27 275.42 154.27 275.6 158.2 275.6 158.2 275.42 158.2 271.24 150.85 271.24 150.85 275.6 154.27 275.6"/><rect class="cls-12" x="150.65" y="271.24" width="0.2" height="4.36"/><rect class="cls-12" x="180.82" y="265.11" width="0.23" height="4.36"/><rect class="cls-12" x="180.65" y="265.11" width="0.16" height="4.36"/><rect class="cls-12" x="181.05" y="265.11" width="14.6" height="4.36"/><rect class="cls-12" x="195.65" y="265.11" width="15" height="4.36"/><polygon class="cls-12" points="203.03 271.24 195.65 271.24 195.65 275.42 195.65 275.6 199.34 275.6 199.34 275.55 199.34 275.6 203.03 275.6 203.03 275.55 203.03 271.24"/><polygon class="cls-12" points="195.65 271.24 188.2 271.24 188.2 275.42 188.2 275.6 191.92 275.6 191.92 275.42 191.92 275.6 195.65 275.6 195.65 275.42 195.65 271.24"/><polygon class="cls-12" points="184.27 275.42 184.27 275.6 188.2 275.6 188.2 275.42 188.2 271.24 181.05 271.24 181.05 275.6 184.27 275.6 184.27 275.42"/><polygon class="cls-12" points="203.03 275.55 203.03 275.6 206.93 275.6 206.93 275.55 206.93 275.6 211.06 275.6 211.06 271.24 203.03 271.24 203.03 275.55"/><rect class="cls-12" x="225.66" y="265.11" width="15.25" height="4.36"/><rect class="cls-12" x="211.06" y="265.11" width="14.6" height="4.36"/><rect class="cls-12" x="210.9" y="265.11" width="0.16" height="4.36"/><polygon class="cls-12" points="211.16 271.06 211.16 275.42 214.28 275.42 218.2 275.42 218.2 271.24 218.2 275.42 221.93 275.42 225.66 275.42 225.66 271.06 211.16 271.06"/><rect class="cls-12" x="241.14" y="271.06" width="0.02" height="4.36"/><polygon class="cls-12" points="233.03 275.05 233.03 271.06 225.66 271.06 225.66 275.42 241.14 275.42 241.14 271.06 233.03 271.06 233.03 275.05"/><rect class="cls-12" x="241.26" y="265.11" width="14.39" height="4.36"/><rect class="cls-12" x="255.66" y="265.11" width="15.6" height="4.36"/><polygon class="cls-12" points="255.66 271.24 248.82 271.24 248.82 275.6 251.94 275.6 251.94 275.42 251.94 275.6 255.66 275.6 255.66 275.42 255.66 271.24"/><polygon class="cls-12" points="263.03 271.24 255.66 271.24 255.66 275.42 255.66 275.6 259.35 275.6 259.35 275.55 259.35 275.6 263.03 275.6 263.03 275.55 263.03 271.24"/><polygon class="cls-12" points="263.03 271.24 263.03 275.55 263.03 275.6 266.94 275.6 266.94 275.55 266.94 275.6 271.27 275.6 271.27 271.24 263.03 271.24"/><polygon class="cls-12" points="241.26 271.24 241.26 275.6 244.28 275.6 244.28 275.42 244.28 275.6 248.21 275.6 248.21 275.42 248.21 275.6 248.82 275.6 248.82 271.24 241.26 271.24"/><rect class="cls-12" x="285.66" y="265.11" width="15.57" height="4.36"/><rect class="cls-12" x="271.27" y="265.11" width="14.39" height="4.36"/><polygon class="cls-12" points="293.04 271.24 293.04 275.55 293.04 275.6 296.94 275.6 296.94 275.55 296.94 275.6 301.23 275.6 301.23 271.24 293.04 271.24"/><polygon class="cls-12" points="293.04 271.24 285.66 271.24 285.66 275.42 285.66 275.6 289.35 275.6 289.35 275.55 289.35 275.6 293.04 275.6 293.04 275.55 293.04 271.24"/><polygon class="cls-12" points="278.21 271.24 271.27 271.24 271.27 275.6 274.28 275.6 274.28 275.42 274.28 275.6 278.21 275.6 278.21 275.42 278.21 271.24"/><polygon class="cls-12" points="285.66 271.24 278.21 271.24 278.21 275.42 278.21 275.6 281.94 275.6 281.94 275.42 281.94 275.6 285.66 275.6 285.66 275.42 285.66 271.24"/><polygon class="cls-12" points="129.9 175.2 129.9 188.28 129.9 175.2 107.79 175.2 107.79 212.53 120.73 212.53 154.95 212.53 154.95 175.2 129.9 175.2"/><rect class="cls-12" x="107.79" y="148.7" width="47.16" height="18.78"/><polygon class="cls-12" points="154.95 175.2 154.95 167.49 107.79 167.49 107.79 175.2 129.9 175.2 154.95 175.2"/><polygon class="cls-12" points="202.1 212.53 202.1 175.2 177.05 175.2 177.05 188.28 177.05 175.2 154.95 175.2 154.95 212.53 180.82 212.53 181.05 212.53 202.1 212.53"/><rect class="cls-12" x="154.95" y="148.7" width="47.16" height="18.78"/><polygon class="cls-12" points="177.05 175.2 202.1 175.2 202.1 167.49 154.95 167.49 154.95 175.2 177.05 175.2"/><polygon class="cls-12" points="224.21 175.2 224.21 188.28 224.21 175.2 202.1 175.2 202.1 212.53 241.14 212.53 249.26 212.53 249.26 175.2 224.21 175.2"/><rect class="cls-12" x="202.11" y="148.7" width="47.16" height="18.78"/><polygon class="cls-12" points="224.21 175.2 249.26 175.2 249.26 167.49 202.1 167.49 202.1 175.2 224.21 175.2"/><polygon class="cls-12" points="271.36 188.28 271.36 175.2 249.26 175.2 249.26 212.53 296.41 212.53 296.41 175.2 271.36 175.2 271.36 188.28"/><rect class="cls-12" x="249.26" y="148.7" width="47.16" height="18.78"/><polygon class="cls-12" points="271.36 175.2 296.41 175.2 296.41 167.49 249.26 167.49 249.26 175.2 271.36 175.2"/><polygon class="cls-12" points="318.52 175.2 318.52 188.28 318.52 175.2 296.41 175.2 296.41 212.53 301.23 212.53 343.57 212.53 343.57 175.2 318.52 175.2"/><rect class="cls-12" x="296.41" y="148.7" width="47.16" height="18.78"/><polygon class="cls-12" points="318.52 175.2 343.57 175.2 343.57 167.49 296.41 167.49 296.41 175.2 318.52 175.2"/><polygon class="cls-12" points="365.68 188.28 365.68 175.2 343.57 175.2 343.57 212.53 361.32 212.53 390.73 212.53 390.73 175.2 365.68 175.2 365.68 188.28"/><rect class="cls-12" x="343.57" y="148.7" width="47.16" height="18.78"/><polygon class="cls-12" points="343.57 167.49 343.57 175.2 365.68 175.2 390.73 175.2 390.73 167.49 343.57 167.49"/><polygon class="cls-12" points="437.88 175.2 412.83 175.2 412.83 188.28 412.83 175.2 390.73 175.2 390.73 212.53 421.41 212.53 421.65 212.53 437.88 212.53 437.88 175.2"/><rect class="cls-12" x="390.73" y="148.7" width="47.16" height="18.78"/><polygon class="cls-12" points="390.73 167.49 390.73 175.2 412.83 175.2 437.88 175.2 437.88 167.49 390.73 167.49"/><polygon class="cls-12" points="459.98 175.2 459.98 188.28 459.98 175.2 437.88 175.2 437.88 212.53 481.74 212.53 485.03 212.53 485.03 175.2 459.98 175.2"/><rect class="cls-12" x="437.88" y="148.7" width="47.16" height="18.78"/><polygon class="cls-12" points="485.03 175.2 485.03 167.49 437.88 167.49 437.88 175.2 459.98 175.2 485.03 175.2"/><polygon class="cls-12" points="507.14 175.2 507.14 188.28 507.14 175.2 485.03 175.2 485.03 212.53 532.19 212.53 532.19 175.2 507.14 175.2"/><rect class="cls-12" x="485.03" y="148.7" width="47.16" height="18.78"/><polygon class="cls-12" points="507.14 175.2 532.19 175.2 532.19 167.49 485.03 167.49 485.03 175.2 507.14 175.2"/><rect class="cls-12" x="532.19" y="175.2" width="7.33" height="37.33"/><rect class="cls-12" x="532.19" y="148.7" width="7.33" height="18.78"/><rect class="cls-12" x="532.19" y="167.48" width="7.33" height="7.72"/><polygon class="cls-12" points="361.45 271.24 361.45 269.47 361.32 269.47 361.32 288.26 361.45 288.26 361.45 275.6 361.45 271.24"/><rect class="cls-12" x="342.51" y="275.6" width="3.73" height="12.67"/><polygon class="cls-12" points="361.25 269.47 346.24 269.47 331.24 269.47 331.24 271.24 338.79 271.24 346.24 271.24 346.24 271.06 346.24 271.24 353.61 271.24 361.25 271.24 361.25 275.6 357.52 275.6 357.52 288.26 361.32 288.26 361.32 269.47 361.25 269.47"/><rect class="cls-12" x="338.79" y="275.6" width="3.73" height="12.67"/><rect class="cls-12" x="402.52" y="275.6" width="3.73" height="12.67"/><rect class="cls-12" x="346.24" y="275.6" width="3.69" height="12.67"/><rect class="cls-12" x="334.86" y="275.6" width="3.93" height="12.67"/><polygon class="cls-12" points="346.24 265.11 361.25 265.11 361.32 265.11 361.32 254.21 331.24 254.21 331.24 265.11 346.24 265.11"/><rect class="cls-12" x="361.32" y="254.21" width="0.12" height="10.9"/><rect class="cls-12" x="353.61" y="275.6" width="3.91" height="12.67"/><rect class="cls-12" x="331.24" y="275.6" width="3.63" height="12.67"/><rect class="cls-12" x="349.93" y="275.6" width="3.69" height="12.67"/><rect class="cls-12" x="406.25" y="275.6" width="3.69" height="12.67"/><polygon class="cls-12" points="391.45 265.11 406.25 265.11 421.25 265.11 421.25 269.47 406.25 269.47 391.45 269.47 391.45 271.24 398.79 271.24 406.25 271.24 406.25 271.06 406.25 271.24 413.62 271.24 421.41 271.24 421.41 254.21 391.45 254.21 391.45 265.11"/><rect class="cls-12" x="391.45" y="275.6" width="3.42" height="12.67"/><rect class="cls-12" x="417.52" y="275.6" width="3.89" height="12.67"/><rect class="cls-12" x="409.93" y="275.6" width="3.69" height="12.67"/><rect class="cls-12" x="394.87" y="275.6" width="3.93" height="12.67"/><rect class="cls-12" x="398.8" y="275.6" width="3.73" height="12.67"/><rect class="cls-12" x="413.62" y="275.6" width="3.91" height="12.67"/><polygon class="cls-12" points="361.32 212.53 343.57 212.53 301.23 212.53 301.23 254.21 331.24 254.21 361.32 254.21 361.32 241.14 361.32 254.21 361.45 254.21 391.45 254.21 421.41 254.21 421.41 212.53 390.73 212.53 361.32 212.53"/><rect class="cls-12" x="327.51" y="275.6" width="3.72" height="12.67"/><polygon class="cls-12" points="301.27 269.47 301.23 269.47 301.23 271.24 301.27 271.24 308.78 271.24 316.24 271.24 316.24 271.06 316.24 271.24 323.61 271.24 331.24 271.24 331.24 269.47 316.24 269.47 301.27 269.47"/><rect class="cls-12" x="323.61" y="275.6" width="3.91" height="12.67"/><polygon class="cls-12" points="301.27 265.11 316.24 265.11 331.24 265.11 331.24 254.21 301.23 254.21 301.23 265.11 301.27 265.11"/><rect class="cls-12" x="312.51" y="275.6" width="3.73" height="12.67"/><rect class="cls-12" x="304.86" y="275.6" width="3.93" height="12.67"/><polygon class="cls-12" points="301.27 275.6 301.23 275.6 301.23 288.26 304.86 288.26 304.86 275.6 301.27 275.6"/><rect class="cls-12" x="316.24" y="275.6" width="3.69" height="12.67"/><rect class="cls-12" x="319.92" y="275.6" width="3.69" height="12.67"/><rect class="cls-12" x="308.78" y="275.6" width="3.73" height="12.67"/><rect class="cls-12" x="372.52" y="275.6" width="3.73" height="12.67"/><rect class="cls-12" x="383.62" y="275.6" width="3.91" height="12.67"/><rect class="cls-12" x="387.52" y="275.6" width="3.92" height="12.67"/><rect class="cls-12" x="379.93" y="275.6" width="3.69" height="12.67"/><polygon class="cls-12" points="376.25 269.47 361.45 269.47 361.45 271.24 368.79 271.24 376.25 271.24 376.25 271.06 376.25 271.24 383.62 271.24 391.45 271.24 391.45 269.47 391.24 269.47 376.25 269.47"/><rect class="cls-12" x="376.24" y="275.6" width="3.69" height="12.67"/><polygon class="cls-12" points="376.25 265.11 391.24 265.11 391.45 265.11 391.45 254.21 361.45 254.21 361.45 265.11 376.25 265.11"/><rect class="cls-12" x="368.79" y="275.6" width="3.73" height="12.67"/><rect class="cls-12" x="364.86" y="275.6" width="3.93" height="12.67"/><rect class="cls-12" x="361.44" y="275.6" width="3.42" height="12.67"/><rect class="cls-12" x="533.63" y="275.6" width="3.91" height="12.67"/><rect class="cls-12" x="529.95" y="275.6" width="3.69" height="12.67"/><rect class="cls-12" x="526.26" y="275.6" width="3.69" height="12.67"/><rect class="cls-12" x="469.94" y="275.6" width="3.69" height="12.67"/><rect class="cls-12" x="537.54" y="275.6" width="1.98" height="12.67"/><rect class="cls-12" x="473.63" y="275.6" width="3.91" height="12.67"/><rect class="cls-12" x="466.26" y="275.6" width="3.69" height="12.67"/><rect class="cls-12" x="477.53" y="275.6" width="4.21" height="12.67"/><polygon class="cls-12" points="511.87 269.47 511.87 271.24 518.81 271.24 526.26 271.24 526.26 271.06 526.26 271.24 533.63 271.24 539.52 271.24 539.52 269.47 526.26 269.47 511.87 269.47"/><rect class="cls-12" x="462.53" y="275.6" width="3.73" height="12.67"/><rect class="cls-12" x="454.87" y="275.6" width="3.93" height="12.67"/><polygon class="cls-12" points="526.26 265.11 539.52 265.11 539.52 254.21 511.87 254.21 511.87 265.11 526.26 265.11"/><polygon class="cls-12" points="451.75 275.6 451.75 271.24 458.8 271.24 466.25 271.24 466.25 271.06 466.25 271.24 473.63 271.24 481.74 271.24 481.74 269.47 466.25 269.47 451.75 269.47 451.75 265.11 466.25 265.11 481.74 265.11 481.74 254.21 451.65 254.21 451.65 265.11 451.65 269.47 451.65 271.24 451.65 275.6 451.65 288.26 454.87 288.26 454.87 275.6 451.75 275.6"/><rect class="cls-12" x="458.8" y="275.6" width="3.73" height="12.67"/><polygon class="cls-12" points="481.86 271.24 481.86 269.47 481.86 265.11 481.86 254.21 481.74 254.21 481.74 265.11 481.76 265.11 481.76 269.47 481.74 269.47 481.74 271.24 481.76 271.24 481.76 275.6 481.74 275.6 481.74 288.26 481.86 288.26 481.86 275.6 481.86 271.24"/><rect class="cls-12" x="522.53" y="275.6" width="3.73" height="12.67"/><rect class="cls-12" x="514.88" y="275.6" width="3.93" height="12.67"/><rect class="cls-12" x="518.81" y="275.6" width="3.73" height="12.67"/><rect class="cls-12" x="511.87" y="275.6" width="3.02" height="12.67"/><path class="cls-12" d="M481.74,254.21h57.78V212.53H421.65v41.68Z"/><rect class="cls-12" x="424.87" y="275.6" width="3.93" height="12.67"/><rect class="cls-12" x="432.52" y="275.6" width="3.73" height="12.67"/><rect class="cls-12" x="421.65" y="275.6" width="3.22" height="12.67"/><rect class="cls-12" x="443.62" y="275.6" width="3.91" height="12.67"/><rect class="cls-12" x="447.53" y="275.6" width="4.13" height="12.67"/><polygon class="cls-12" points="436.25 271.24 436.25 271.06 436.25 271.24 443.62 271.24 451.65 271.24 451.65 269.47 436.25 269.47 421.65 269.47 421.65 271.24 428.8 271.24 436.25 271.24"/><rect class="cls-12" x="436.25" y="275.6" width="3.69" height="12.67"/><rect class="cls-12" x="439.94" y="275.6" width="3.69" height="12.67"/><rect class="cls-12" x="428.8" y="275.6" width="3.73" height="12.67"/><polygon class="cls-12" points="451.65 265.11 451.65 254.21 421.65 254.21 421.65 265.11 436.25 265.11 451.65 265.11"/><rect class="cls-12" x="499.94" y="275.6" width="3.69" height="12.67"/><rect class="cls-12" x="496.26" y="275.6" width="3.69" height="12.67"/><rect class="cls-12" x="503.63" y="275.6" width="3.91" height="12.67"/><polygon class="cls-12" points="511.87 265.11 511.87 254.21 481.86 254.21 481.86 265.11 496.25 265.11 511.87 265.11"/><rect class="cls-12" x="507.54" y="275.6" width="4.33" height="12.67"/><rect class="cls-12" x="481.86" y="275.6" width="3.02" height="12.67"/><polygon class="cls-12" points="496.25 271.24 496.25 271.06 496.25 271.24 503.63 271.24 511.87 271.24 511.87 269.47 496.25 269.47 481.86 269.47 481.86 271.24 488.81 271.24 496.25 271.24"/><rect class="cls-12" x="484.88" y="275.6" width="3.93" height="12.67"/><rect class="cls-12" x="492.53" y="275.6" width="3.73" height="12.67"/><rect class="cls-12" x="488.81" y="275.6" width="3.73" height="12.67"/><rect class="cls-12" x="301.27" y="265.11" width="14.96" height="4.36"/><rect class="cls-12" x="316.24" y="265.11" width="15" height="4.36"/><rect class="cls-12" x="301.23" y="265.11" width="0.04" height="4.36"/><polygon class="cls-12" points="316.24 271.24 308.78 271.24 308.78 275.42 308.78 275.6 312.51 275.6 312.51 275.42 312.51 275.6 316.24 275.6 316.24 275.42 316.24 271.24"/><polygon class="cls-12" points="323.61 275.55 323.61 275.6 327.51 275.6 327.51 275.55 327.51 275.6 331.24 275.6 331.24 271.24 323.61 271.24 323.61 275.55"/><polygon class="cls-12" points="308.78 271.24 301.27 271.24 301.27 275.6 304.86 275.6 304.86 275.42 304.86 275.6 308.78 275.6 308.78 275.42 308.78 271.24"/><polygon class="cls-12" points="323.61 271.24 316.24 271.24 316.24 275.42 316.24 275.6 319.93 275.6 319.93 275.55 319.93 275.6 323.61 275.6 323.61 275.55 323.61 271.24"/><rect class="cls-12" x="301.23" y="271.24" width="0.04" height="4.36"/><rect class="cls-12" x="331.24" y="265.11" width="15" height="4.36"/><rect class="cls-12" x="346.24" y="265.11" width="15" height="4.36"/><polygon class="cls-12" points="338.79 275.6 342.51 275.6 342.51 275.42 342.51 275.6 346.24 275.6 346.24 275.42 346.24 271.24 338.79 271.24 338.79 275.42 338.79 275.6"/><polygon class="cls-12" points="353.61 275.6 357.52 275.6 357.52 275.55 357.52 275.6 361.25 275.6 361.25 271.24 353.61 271.24 353.61 275.55 353.61 275.6"/><polygon class="cls-12" points="334.86 275.6 334.86 275.42 334.86 275.6 338.79 275.6 338.79 275.42 338.79 271.24 331.24 271.24 331.24 275.6 334.86 275.6"/><polygon class="cls-12" points="346.24 275.6 349.93 275.6 349.93 275.55 349.93 275.6 353.61 275.6 353.61 275.55 353.61 271.24 346.24 271.24 346.24 275.42 346.24 275.6"/><rect class="cls-12" x="361.32" y="265.11" width="0.12" height="4.36"/><rect class="cls-12" x="361.24" y="265.11" width="0.09" height="4.36"/><rect class="cls-12" x="361.44" y="265.11" width="14.8" height="4.36"/><rect class="cls-12" x="376.24" y="265.11" width="15" height="4.36"/><polygon class="cls-12" points="383.62 275.55 383.62 275.6 387.52 275.6 387.52 275.55 387.52 275.6 391.45 275.6 391.45 271.24 383.62 271.24 383.62 275.55"/><polygon class="cls-12" points="383.62 271.24 376.25 271.24 376.25 275.42 376.25 275.6 379.93 275.6 379.93 275.55 379.93 275.6 383.62 275.6 383.62 275.55 383.62 271.24"/><polygon class="cls-12" points="376.25 271.24 368.79 271.24 368.79 275.42 368.79 275.6 372.52 275.6 372.52 275.42 372.52 275.6 376.25 275.6 376.25 275.42 376.25 271.24"/><polygon class="cls-12" points="368.79 271.24 361.45 271.24 361.45 275.6 364.86 275.6 364.86 275.42 364.86 275.6 368.79 275.6 368.79 275.42 368.79 271.24"/><rect class="cls-12" x="391.45" y="265.11" width="14.8" height="4.36"/><rect class="cls-12" x="406.25" y="265.11" width="15" height="4.36"/><rect class="cls-12" x="391.24" y="265.11" width="0.2" height="4.36"/><rect class="cls-12" x="421.41" y="271.24" width="0.04" height="4.36"/><polygon class="cls-12" points="406.25 275.6 409.93 275.6 409.93 275.55 409.93 275.6 413.62 275.6 413.62 275.55 413.62 271.24 406.25 271.24 406.25 275.42 406.25 275.6"/><polygon class="cls-12" points="398.79 275.6 402.52 275.6 402.52 275.42 402.52 275.6 406.25 275.6 406.25 275.42 406.25 271.24 398.79 271.24 398.79 275.42 398.79 275.6"/><polygon class="cls-12" points="394.87 275.6 394.87 275.42 394.87 275.6 398.79 275.6 398.79 275.42 398.79 271.24 391.45 271.24 391.45 275.6 394.87 275.6"/><polygon class="cls-12" points="413.62 275.55 413.62 275.6 417.53 275.6 417.53 275.55 417.53 275.6 421.41 275.6 421.41 271.24 413.62 271.24 413.62 275.55"/><rect class="cls-12" x="436.25" y="265.11" width="15.41" height="4.36"/><rect class="cls-12" x="421.65" y="265.11" width="14.6" height="4.36"/><polygon class="cls-12" points="443.62 275.55 443.62 275.6 447.53 275.6 447.53 275.55 447.53 275.6 451.65 275.6 451.65 271.24 443.62 271.24 443.62 275.55"/><polygon class="cls-12" points="436.25 271.24 428.8 271.24 428.8 275.42 428.8 275.6 432.52 275.6 432.52 275.42 432.52 275.6 436.25 275.6 436.25 275.42 436.25 271.24"/><polygon class="cls-12" points="443.62 271.24 436.25 271.24 436.25 275.42 436.25 275.6 439.94 275.6 439.94 275.55 439.94 275.6 443.62 275.6 443.62 275.55 443.62 271.24"/><polygon class="cls-12" points="424.87 275.42 424.87 275.6 428.8 275.6 428.8 275.42 428.8 271.24 421.65 271.24 421.65 275.6 424.87 275.6 424.87 275.42"/><rect class="cls-12" x="451.75" y="265.11" width="14.49" height="4.36"/><rect class="cls-12" x="466.26" y="265.11" width="15.49" height="4.36"/><rect class="cls-12" x="481.74" y="265.11" width="0.02" height="4.36"/><polygon class="cls-12" points="473.63 271.24 466.25 271.24 466.25 275.42 466.25 275.6 469.94 275.6 469.94 275.55 469.94 275.6 473.63 275.6 473.63 275.55 473.63 271.24"/><polygon class="cls-12" points="458.8 271.24 451.75 271.24 451.75 275.6 454.87 275.6 454.87 275.42 454.87 275.6 458.8 275.6 458.8 275.42 458.8 271.24"/><rect class="cls-12" x="481.74" y="271.24" width="0.02" height="4.36"/><polygon class="cls-12" points="466.25 271.24 458.8 271.24 458.8 275.42 458.8 275.6 462.53 275.6 462.53 275.42 462.53 275.6 466.25 275.6 466.25 275.42 466.25 271.24"/><polygon class="cls-12" points="473.63 275.55 473.63 275.6 477.53 275.6 477.53 275.55 477.53 275.6 481.74 275.6 481.74 271.24 473.63 271.24 473.63 275.55"/><rect class="cls-12" x="496.26" y="265.11" width="15.6" height="4.36"/><rect class="cls-12" x="481.86" y="265.11" width="14.39" height="4.36"/><polygon class="cls-12" points="488.81 271.24 481.86 271.24 481.86 275.6 484.88 275.6 484.88 275.42 484.88 275.6 488.81 275.6 488.81 275.42 488.81 271.24"/><polygon class="cls-12" points="496.25 271.24 488.81 271.24 488.81 275.42 488.81 275.6 492.53 275.6 492.53 275.42 492.53 275.6 496.25 275.6 496.25 275.42 496.25 271.24"/><polygon class="cls-12" points="503.63 271.24 503.63 275.55 503.63 275.6 507.54 275.6 507.54 275.55 507.54 275.6 511.87 275.6 511.87 271.24 503.63 271.24"/><polygon class="cls-12" points="503.63 271.24 496.25 271.24 496.25 275.42 496.25 275.6 499.94 275.6 499.94 275.55 499.94 275.6 503.63 275.6 503.63 275.55 503.63 271.24"/><rect class="cls-12" x="511.87" y="265.11" width="14.39" height="4.36"/><rect class="cls-12" x="526.26" y="265.11" width="13.26" height="4.36"/><polygon class="cls-12" points="533.63 271.24 526.26 271.24 526.26 275.42 526.26 275.6 529.95 275.6 529.95 275.55 529.95 275.6 533.63 275.6 533.63 275.55 533.63 271.24"/><polygon class="cls-12" points="533.63 271.24 533.63 275.55 533.63 275.6 537.54 275.6 537.54 275.55 537.54 275.6 539.52 275.6 539.52 271.24 533.63 271.24"/><polygon class="cls-12" points="518.81 271.24 511.87 271.24 511.87 275.6 514.88 275.6 514.88 275.42 514.88 275.6 518.81 275.6 518.81 275.42 518.81 271.24"/><polygon class="cls-12" points="526.26 271.24 518.81 271.24 518.81 275.42 518.81 275.6 522.53 275.6 522.53 275.42 522.53 275.6 526.26 275.6 526.26 275.42 526.26 271.24"/><line class="cls-3" x1="312" y1="302.05" x2="312" y2="293.71"/><line class="cls-3" x1="392.55" y1="302.05" x2="392.55" y2="293.77"/><line class="cls-3" x1="226.77" y1="302.05" x2="226.77" y2="292.82"/><line class="cls-3" x1="136.62" y1="302.05" x2="136.62" y2="292.82"/><line class="cls-3" x1="467.57" y1="302.05" x2="467.57" y2="293.72"/><rect class="cls-8" y="0.7" width="600" height="600"/><rect class="cls-8" x="0.08" y="451.41" width="600" height="148.59"/><rect class="cls-8" x="0.08" width="600" height="148.59"/></g></g></svg>