<svg xmlns="http://www.w3.org/2000/svg" viewBox="0 0 600 600"><defs><style>.cls-1,.cls-14,.cls-2,.cls-22,.cls-23,.cls-24,.cls-39{fill:#fff;}.cls-1,.cls-10,.cls-11,.cls-12,.cls-13,.cls-14,.cls-15,.cls-16,.cls-17,.cls-18,.cls-19,.cls-2,.cls-20,.cls-21,.cls-23,.cls-24,.cls-25,.cls-26,.cls-27,.cls-3,.cls-37,.cls-4,.cls-42,.cls-44,.cls-45,.cls-5,.cls-9{stroke:#000;}.cls-1,.cls-10,.cls-11,.cls-12,.cls-13,.cls-14,.cls-15,.cls-17,.cls-18,.cls-19,.cls-21,.cls-23,.cls-24,.cls-25,.cls-26,.cls-27,.cls-3,.cls-36,.cls-37,.cls-38,.cls-39,.cls-4,.cls-40,.cls-41,.cls-42,.cls-44,.cls-45,.cls-5,.cls-6,.cls-9{stroke-miterlimit:10;}.cls-1,.cls-19,.cls-38,.cls-5{stroke-width:0.37px;}.cls-2{stroke-linejoin:round;stroke-width:0.64px;}.cls-10,.cls-12,.cls-13,.cls-15,.cls-16,.cls-17,.cls-18,.cls-19,.cls-20,.cls-21,.cls-25,.cls-26,.cls-27,.cls-3,.cls-36,.cls-37,.cls-38,.cls-4,.cls-40,.cls-41,.cls-42,.cls-45,.cls-5,.cls-6,.cls-8,.cls-9{fill:none;}.cls-3{stroke-width:0.32px;}.cls-4{stroke-width:0.07px;}.cls-36,.cls-37,.cls-42,.cls-5{stroke-dasharray:1.41 1.41 1.41 1.41;}.cls-6{stroke:red;}.cls-11,.cls-12,.cls-23,.cls-6{stroke-width:0.26px;}.cls-7{fill:red;}.cls-9{stroke-width:0.73px;}.cls-10,.cls-14{stroke-width:0.42px;}.cls-13{stroke-width:0.5px;}.cls-15,.cls-41{stroke-width:1.46px;}.cls-16{stroke-miterlimit:10;stroke-width:0.57px;}.cls-17{stroke-width:0.12px;}.cls-18{stroke-width:0.31px;}.cls-20{stroke-miterlimit:10;stroke-width:0.37px;}.cls-21{stroke-width:0.08px;}.cls-24,.cls-25,.cls-42{stroke-width:0.29px;}.cls-26{stroke-width:0.48px;}.cls-27,.cls-39,.cls-40{stroke-width:0.44px;}.cls-28,.cls-29,.cls-31,.cls-32,.cls-33,.cls-34{isolation:isolate;}.cls-28,.cls-31,.cls-32,.cls-33,.cls-34{font-size:5.76px;font-family:Helvetica;}.cls-28{letter-spacing:-0.05em;}.cls-30{letter-spacing:-0.09em;}.cls-31{letter-spacing:-0.18em;}.cls-32{letter-spacing:-0.05em;}.cls-33{letter-spacing:-0.15em;}.cls-34{letter-spacing:-0.13em;}.cls-35{letter-spacing:-0.1em;}.cls-36{stroke:#999;}.cls-36,.cls-44,.cls-45{stroke-width:0.21px;}.cls-37{stroke-width:0.37px;}.cls-38{stroke:#179fe5;}.cls-39,.cls-40{stroke:#00b38f;}.cls-41{stroke:#e51729;}.cls-43{opacity:0.4;}.cls-44{fill:#b3b3b3;}</style></defs><g id="Layer_2" data-name="Layer 2"><g id="Layer_1-2" data-name="Layer 1"><path class="cls-1" d="M203.73,334.4H92.25V333H203.73c5.83,0,11.73-.18,17.57-.51l273.24-16,.09,1.45-273.28,16C215.52,334.23,209.59,334.4,203.73,334.4Z"/><path class="cls-1" d="M203.73,332.92H92.25v-1.46H203.73c5.83,0,11.73-.17,17.57-.51l273.24-16,.09,1.45-273.28,16C215.52,332.75,209.59,332.92,203.73,332.92Z"/><path class="cls-1" d="M493.85,252.65c-216.34-6.06-394.33-2.89-401.78-2.75v-1.46c7.47-.13,185.49-3.3,401.86,2.76Z"/><path class="cls-1" d="M493.85,254.06c-216.34-6.07-394.33-2.9-401.78-2.75v-1.46c7.47-.14,185.49-3.32,401.86,2.75Z"/><path class="cls-1" d="M203.73,334.4H92.25V333H203.73c5.83,0,11.73-.18,17.57-.51l273.24-16,.09,1.45-273.28,16C215.52,334.23,209.59,334.4,203.73,334.4Z"/><path class="cls-1" d="M203.73,332.92H92.25v-1.46H203.73c5.83,0,11.73-.17,17.57-.51l273.24-16,.09,1.45-273.28,16C215.52,332.75,209.59,332.92,203.73,332.92Z"/><path class="cls-1" d="M493.85,252.65c-216.34-6.06-394.33-2.89-401.78-2.75v-1.46c7.47-.13,185.49-3.3,401.86,2.76Z"/><path class="cls-1" d="M493.85,254.06c-216.34-6.07-394.33-2.9-401.78-2.75v-1.46c7.47-.14,185.49-3.32,401.86,2.75Z"/><path class="cls-2" d="M264.15,237h.32a1.3,1.3,0,0,1,1.3,1.3h0v2.37h-2.92V238.3a1.3,1.3,0,0,1,1.3-1.3Z"/><rect class="cls-3" x="238.41" y="247.79" width="33.47" height="2.22"/><rect class="cls-4" x="238.41" y="247.79" width="33.47" height="2.22"/><rect class="cls-4" x="238.41" y="247.79" width="16.74" height="2.22"/><rect class="cls-4" x="238.41" y="247.79" width="8.37" height="2.22"/><rect class="cls-4" x="238.41" y="247.79" width="4.19" height="2.22"/><rect class="cls-4" x="255.14" y="247.79" width="4.19" height="2.22"/><rect class="cls-4" x="259.33" y="247.79" width="4.19" height="2.22"/><rect class="cls-4" x="263.51" y="247.79" width="4.19" height="2.22"/><rect class="cls-4" x="267.7" y="247.79" width="4.19" height="2.22"/><rect class="cls-4" x="246.78" y="247.79" width="4.19" height="2.22"/><rect class="cls-4" x="238.41" y="247.79" width="2.22" height="2.22"/><rect class="cls-4" x="242.59" y="247.79" width="2.22" height="2.22"/><rect class="cls-4" x="246.78" y="247.79" width="2.22" height="2.22"/><rect class="cls-4" x="250.96" y="247.79" width="2.22" height="2.22"/><rect class="cls-4" x="255.14" y="247.79" width="2.22" height="2.22"/><rect class="cls-4" x="259.33" y="247.79" width="2.22" height="2.22"/><rect class="cls-4" x="263.51" y="247.79" width="2.22" height="2.22"/><rect class="cls-4" x="267.7" y="247.79" width="2.22" height="2.22"/><line class="cls-5" x1="392.79" y1="305.49" x2="366.56" y2="314.02"/><path class="cls-6" d="M134.09,267.4c-.65,4.48-4,5-4,10.39,0,6,4.14,6,4.14,11.94s-4.14,6-4.14,11.93,4.14,6,4.14,11.94-4.14,6-4.14,11.94"/><path class="cls-7" d="M134.19,265.85a7.78,7.78,0,0,1-1.39,2.09l1.25-.34,1.18.54A7.66,7.66,0,0,1,134.19,265.85Z"/><path class="cls-6" d="M195.71,267.4c-.65,4.48-4,5-4,10.39,0,6,4.14,6,4.14,11.94s-4.14,6-4.14,11.93,4.14,6,4.14,11.94-4.14,6-4.14,11.94"/><path class="cls-7" d="M195.81,265.85a7.55,7.55,0,0,1-1.39,2.09l1.25-.34,1.18.54A7.66,7.66,0,0,1,195.81,265.85Z"/><path class="cls-6" d="M263.27,266.25c-.64,4.47-4,5-4,10.39,0,6,4.15,6,4.15,11.93s-4.15,6-4.15,11.94,4.15,6,4.15,11.94-4.15,6-4.15,11.93"/><path class="cls-7" d="M263.38,264.68a8,8,0,0,1-1.4,2.1l1.25-.35,1.18.54A7.39,7.39,0,0,1,263.38,264.68Z"/><path class="cls-6" d="M325.09,262.65c-.65,4.48-4,5-4,10.39,0,6,4.14,6,4.14,11.94s-4.14,6-4.14,11.94,4.14,6,4.14,11.93-4.14,6-4.14,11.94"/><path class="cls-7" d="M325.19,261.11a8.37,8.37,0,0,1-1.39,2.09l1.25-.34,1.18.53A7.72,7.72,0,0,1,325.19,261.11Z"/><path class="cls-6" d="M388.06,262.65c-.7,3.94-4,4.45-4,9.31,0,5.42,4.15,5.42,4.15,10.86S384,288.24,384,293.67s4.15,5.43,4.15,10.85S384,310,384,315.38"/><path class="cls-7" d="M388.19,261.11a7.94,7.94,0,0,1-1.42,2.07l1.25-.33,1.18.56A7.61,7.61,0,0,1,388.19,261.11Z"/><path class="cls-6" d="M451.56,262.24c-.69,3.94-4,4.45-4,9.3,0,5.43,4.14,5.43,4.14,10.86s-4.14,5.43-4.14,10.86,4.14,5.42,4.14,10.85-4.14,5.42-4.14,10.86"/><path class="cls-7" d="M451.69,260.69a7.94,7.94,0,0,1-1.42,2.07l1.26-.32,1.17.55A7.75,7.75,0,0,1,451.69,260.69Z"/><line class="cls-8" x1="74.1" y1="247.68" x2="74.1" y2="336.07"/><line class="cls-9" x1="74.1" y1="252.06" x2="74.1" y2="331.69"/><path d="M74.1,247.68a21.85,21.85,0,0,1-3.47,6.22l3.46-1.26,3.47,1.26A22.35,22.35,0,0,1,74.1,247.68Z"/><path d="M74.1,336.07a21.85,21.85,0,0,0-3.47-6.22l3.47,1.29,3.46-1.26A22.18,22.18,0,0,0,74.1,336.07Z"/><path class="cls-10" d="M550.61,251.08l-131.2-2.9v-1.89a2.3,2.3,0,0,1,2.47-2.1h0L550.66,247Z"/><path class="cls-11" d="M429.94,243.29a.81.81,0,0,0-.83.77h1.62A.82.82,0,0,0,429.94,243.29Z"/><line class="cls-12" x1="429.89" y1="245.42" x2="429.92" y2="244.07"/><path class="cls-11" d="M439.49,243.47a.82.82,0,0,0-.84.76l1.62.05A.8.8,0,0,0,439.49,243.47Z"/><line class="cls-12" x1="439.46" y1="244.28" x2="439.43" y2="245.62"/><path class="cls-11" d="M449.33,243.69a.81.81,0,0,0-.82.77l1.62,0A.81.81,0,0,0,449.33,243.69Z"/><line class="cls-12" x1="449.29" y1="245.85" x2="449.32" y2="244.49"/><path class="cls-11" d="M459.81,243.92a.82.82,0,0,0-.84.76h1.62A.8.8,0,0,0,459.81,243.92Z"/><line class="cls-12" x1="459.75" y1="246.07" x2="459.78" y2="244.73"/><path class="cls-11" d="M470.74,244.14a.82.82,0,0,0-.83.77h1.62A.81.81,0,0,0,470.74,244.14Z"/><line class="cls-12" x1="470.69" y1="246.3" x2="470.72" y2="244.95"/><path class="cls-13" d="M257,260.86l-.48-.56a6.37,6.37,0,0,0-3.28-2.1h0v-21h3.82Z"/><path class="cls-13" d="M253.35,234.48h3.9a1.62,1.62,0,0,1,1.62,1.62h0a1.63,1.63,0,0,1-1.62,1.62h-3.9a1.63,1.63,0,0,1-1.62-1.62h0A1.62,1.62,0,0,1,253.35,234.48Z"/><path class="cls-14" d="M495.46,315.17l15.92.12s-5.1-44.18,30-46.6l.12-17.89-46.48-.92-75.67-1.7,75.43,1.94Z"/><path class="cls-15" d="M494.32,250.76l.67,67.67a.29.29,0,0,1-.27.29l-273.25,16q-8.78.51-17.57.51H92.38a.29.29,0,0,1-.28-.28L91.91,248a.27.27,0,0,1,.26-.29h0c7.84-.14,185.49-3.3,401.83,2.76a.27.27,0,0,1,.3.24A.08.08,0,0,1,494.32,250.76Z"/><path class="cls-15" d="M470.89,319.73l24.65-1.43-.67-68.22q-12.09-.35-24-.64Z"/><path class="cls-16" d="M429.47,249.13l14.91.18h0l0,2a4.87,4.87,0,0,1-4.93,4.82h0l-5.15-.06a4.88,4.88,0,0,1-4.82-4.93h0l0-2Z"/><rect class="cls-16" x="435.77" y="242.91" width="2.29" height="14.9" transform="translate(181.53 684.36) rotate(-89.34)"/><line class="cls-17" x1="430.63" y1="249.12" x2="430.6" y2="251.41"/><line class="cls-17" x1="437.51" y1="249.2" x2="437.49" y2="251.49"/><line class="cls-17" x1="436.36" y1="249.18" x2="436.34" y2="251.48"/><line class="cls-17" x1="431.78" y1="249.14" x2="431.76" y2="251.43"/><line class="cls-17" x1="432.93" y1="249.15" x2="432.9" y2="251.44"/><line class="cls-17" x1="438.65" y1="249.21" x2="438.63" y2="251.51"/><line class="cls-17" x1="439.8" y1="249.23" x2="439.78" y2="251.52"/><line class="cls-17" x1="440.95" y1="249.24" x2="440.92" y2="251.53"/><line class="cls-17" x1="442.1" y1="249.25" x2="442.07" y2="251.54"/><line class="cls-17" x1="443.24" y1="249.27" x2="443.21" y2="251.56"/><line class="cls-17" x1="434.07" y1="249.16" x2="434.05" y2="251.45"/><line class="cls-17" x1="435.22" y1="249.18" x2="435.19" y2="251.47"/><rect class="cls-15" x="92.45" y="247.37" width="17.46" height="87.32"/><path class="cls-18" d="M109.92,247.37c-6.79,1.94-12.62-1.94-17.46,0"/><path class="cls-18" d="M92.46,250.27c4.84-1.93,10.69,1.95,17.46,0"/><path class="cls-18" d="M109.92,250.28c-6.79,1.94-12.62-1.94-17.46,0"/><path class="cls-18" d="M92.46,253.18c4.84-1.93,10.69,1.95,17.46,0"/><path class="cls-18" d="M109.92,253.22c-6.79,1.94-12.62-1.94-17.46,0"/><path class="cls-18" d="M92.46,256.09c4.84-1.93,10.69,2,17.46,0"/><path class="cls-18" d="M92.46,259c4.84-1.93,10.69,1.95,17.46,0"/><path class="cls-18" d="M109.92,256.1c-6.79,1.94-12.62-1.94-17.46,0"/><path class="cls-18" d="M109.92,259c-6.79,1.94-12.62-1.94-17.46,0"/><path class="cls-18" d="M92.46,261.91c4.84-1.93,10.69,1.95,17.46,0"/><path class="cls-18" d="M92.46,264.83c4.84-1.94,10.69,1.94,17.46,0"/><path class="cls-18" d="M109.92,261.92c-6.79,1.94-12.62-1.94-17.46,0"/><path class="cls-18" d="M109.92,264.83c-6.79,1.94-12.62-1.94-17.46,0"/><path class="cls-18" d="M92.46,267.74c4.84-1.94,10.69,1.94,17.46,0"/><path class="cls-18" d="M92.46,273.56c4.84-1.93,10.69,1.94,17.46,0"/><path class="cls-18" d="M109.92,270.66c-6.79,1.93-12.62-1.94-17.46,0"/><path class="cls-18" d="M109.92,273.57c-6.79,1.93-12.62-1.94-17.46,0"/><path class="cls-18" d="M92.46,276.47c4.84-1.93,10.69,1.95,17.46,0"/><path class="cls-18" d="M92.46,279.38c4.84-1.93,10.69,1.95,17.46,0"/><path class="cls-18" d="M109.92,276.48c-6.79,1.94-12.62-1.94-17.46,0"/><path class="cls-18" d="M109.92,279.39c-6.79,1.94-12.62-1.94-17.46,0"/><path class="cls-18" d="M92.46,282.29c4.84-1.93,10.69,1.95,17.46,0"/><path class="cls-18" d="M109.92,282.3c-6.79,1.94-12.62-1.94-17.46,0"/><path class="cls-18" d="M92.46,285.2c4.84-1.93,10.69,1.95,17.46,0"/><path class="cls-18" d="M92.46,288.11c4.84-1.93,10.69,1.95,17.46,0"/><path class="cls-18" d="M109.92,285.21c-6.79,1.94-12.62-1.94-17.46,0"/><path class="cls-18" d="M92.46,291c4.84-1.93,10.69,2,17.46,0"/><path class="cls-18" d="M109.92,288.12c-6.79,1.94-12.62-1.94-17.46,0"/><path class="cls-18" d="M92.46,293.93c4.84-1.93,10.69,1.95,17.46,0"/><path class="cls-18" d="M109.92,291c-6.79,1.94-12.62-1.94-17.46,0"/><path class="cls-18" d="M92.46,296.84c4.84-1.92,10.69,2,17.46,0"/><path class="cls-18" d="M109.92,293.94c-6.79,1.94-12.62-1.94-17.46,0"/><path class="cls-18" d="M92.46,299.75c4.84-1.92,10.69,1.95,17.46,0"/><path class="cls-18" d="M109.92,296.85c-6.79,1.94-12.62-1.93-17.46,0"/><path class="cls-18" d="M92.46,302.67c4.84-1.93,10.69,1.94,17.46,0"/><path class="cls-18" d="M109.92,299.76c-6.79,1.94-12.62-1.93-17.46,0"/><path class="cls-18" d="M92.46,305.58c4.84-1.93,10.69,1.94,17.46,0"/><path class="cls-18" d="M109.92,302.67c-6.79,1.94-12.62-1.93-17.46,0"/><path class="cls-18" d="M92.46,308.49c4.84-1.93,10.69,1.94,17.46,0"/><path class="cls-18" d="M109.92,305.59c-6.79,1.93-12.62-1.94-17.46,0"/><path class="cls-18" d="M92.46,311.4c4.84-1.93,10.69,1.94,17.46,0"/><path class="cls-18" d="M109.92,308.5c-6.79,1.93-12.62-1.94-17.46,0"/><path class="cls-18" d="M92.46,314.33c4.84-1.93,10.69,1.94,17.46,0"/><path class="cls-18" d="M109.92,311.41c-6.79,1.93-12.62-1.94-17.46,0"/><path class="cls-18" d="M92.46,317.22c4.84-1.93,10.69,1.95,17.46,0"/><path class="cls-18" d="M109.92,314.33c-6.79,1.93-12.62-1.94-17.46,0"/><path class="cls-18" d="M92.46,320.13c4.84-1.93,10.69,1.95,17.46,0"/><path class="cls-18" d="M109.92,317.23c-6.79,1.94-12.62-1.94-17.46,0"/><path class="cls-18" d="M92.46,323c4.84-1.93,10.69,1.95,17.46,0"/><path class="cls-18" d="M109.92,320.14c-6.79,1.94-12.62-1.94-17.46,0"/><path class="cls-18" d="M92.46,326c4.84-1.93,10.69,1.95,17.46,0"/><path class="cls-18" d="M109.92,323.05c-6.79,1.94-12.62-1.94-17.46,0"/><path class="cls-18" d="M92.46,328.84c4.84-1.93,10.69,2,17.46,0"/><path class="cls-18" d="M109.92,326c-6.79,1.94-12.62-1.94-17.46,0"/><path class="cls-18" d="M92.46,331.77c4.84-1.93,10.69,2,17.46,0"/><path class="cls-18" d="M109.92,328.84c-6.79,2-12.62-1.94-17.46,0"/><path class="cls-18" d="M92.46,334.68c4.84-1.92,10.69,1.95,17.46,0"/><path class="cls-18" d="M109.92,331.78c-6.79,1.94-12.62-1.94-17.46,0"/><path class="cls-19" d="M470.89,253.18c6.46-2.58,14.22,2.6,23.27,0"/><path class="cls-19" d="M470.89,256.09c6.46-2.58,14.22,2.6,23.27,0"/><path class="cls-19" d="M471.26,258.92c6.46-2.57,14.23,2.59,23.28,0"/><path class="cls-19" d="M471.18,261.91c6.46-2.57,14.22,2.6,23.28,0"/><path class="cls-19" d="M471.34,264.83c6.46-2.58,14.22,2.59,23.28,0"/><path class="cls-19" d="M471.34,267.74c6.46-2.58,14.22,2.59,23.28,0"/><path class="cls-19" d="M471.18,270.65c6.46-2.58,14.22,2.59,23.28,0"/><path class="cls-19" d="M471.34,273.56c6.46-2.58,14.22,2.59,23.28,0"/><path class="cls-19" d="M471.34,276.47c6.46-2.58,14.22,2.59,23.28,0"/><path class="cls-19" d="M471.5,279.45c6.45-2.57,14.22,2.6,23.27,0"/><path class="cls-19" d="M471.42,282.29c6.46-2.58,14.22,2.59,23.28,0"/><path class="cls-19" d="M471.5,285.2c6.45-2.58,14.22,2.59,23.27,0"/><path class="cls-19" d="M471.26,288.11c6.46-2.57,14.23,2.59,23.28,0"/><path class="cls-19" d="M471.58,291c6.46-2.57,14.22,2.6,23.28,0"/><path class="cls-19" d="M471.34,294c6.46-2.58,14.22,2.59,23.28,0"/><path class="cls-19" d="M471.26,296.84c6.46-2.57,14.23,2.6,23.28,0"/><path class="cls-19" d="M471.42,299.75c6.46-2.57,14.22,2.6,23.28,0"/><path class="cls-19" d="M471.5,302.67c6.45-2.58,14.22,2.59,23.27,0"/><path class="cls-19" d="M471.42,305.58c6.46-2.58,14.22,2.59,23.28,0"/><path class="cls-19" d="M471.34,308.49c6.46-2.58,14.22,2.59,23.28,0"/><path class="cls-19" d="M471.34,311.4c6.46-2.58,14.22,2.59,23.28,0"/><path class="cls-19" d="M471.65,314.33c6.46-2.58,14.23,2.59,23.28,0"/><path class="cls-19" d="M471.81,317.22c6.46-2.58,14.23,2.59,23.28,0"/><polygon class="cls-19" points="429.35 251.02 408.91 255.06 388.61 250.38 388.63 248.92 429.37 249.56 429.35 251.02"/><rect class="cls-20" x="408.27" y="229.57" width="1.46" height="40.75" transform="matrix(0.02, -1, 1, 0.02, 152.66, 654.97)"/><line class="cls-21" x1="388.61" y1="250.38" x2="388.63" y2="248.92"/><line class="cls-21" x1="390.08" y1="248.94" x2="390.06" y2="250.4"/><line class="cls-21" x1="391.54" y1="248.96" x2="391.52" y2="250.42"/><line class="cls-21" x1="390.06" y1="250.4" x2="390.08" y2="248.94"/><line class="cls-21" x1="391.52" y1="250.42" x2="391.54" y2="248.96"/><line class="cls-21" x1="392.99" y1="248.99" x2="392.97" y2="250.44"/><line class="cls-21" x1="392.97" y1="250.44" x2="392.99" y2="248.99"/><line class="cls-21" x1="394.45" y1="249.01" x2="394.43" y2="250.47"/><line class="cls-21" x1="395.9" y1="249.03" x2="395.88" y2="250.49"/><line class="cls-21" x1="394.43" y1="250.47" x2="394.45" y2="249.01"/><line class="cls-21" x1="395.88" y1="250.49" x2="395.9" y2="249.03"/><line class="cls-21" x1="397.36" y1="249.05" x2="397.34" y2="250.51"/><line class="cls-21" x1="398.81" y1="249.08" x2="398.79" y2="250.54"/><line class="cls-21" x1="397.34" y1="250.51" x2="397.36" y2="249.05"/><line class="cls-21" x1="398.79" y1="250.54" x2="398.81" y2="249.08"/><line class="cls-21" x1="400.27" y1="249.1" x2="400.25" y2="250.56"/><line class="cls-21" x1="400.25" y1="250.56" x2="400.27" y2="249.1"/><line class="cls-21" x1="401.72" y1="249.12" x2="401.7" y2="250.58"/><line class="cls-21" x1="401.7" y1="250.58" x2="401.72" y2="249.12"/><line class="cls-21" x1="403.18" y1="249.15" x2="403.16" y2="250.6"/><line class="cls-21" x1="403.16" y1="250.6" x2="403.18" y2="249.15"/><line class="cls-21" x1="404.63" y1="249.17" x2="404.61" y2="250.63"/><line class="cls-21" x1="404.61" y1="250.63" x2="404.63" y2="249.17"/><line class="cls-21" x1="406.09" y1="249.19" x2="406.07" y2="250.65"/><line class="cls-21" x1="406.07" y1="250.65" x2="406.09" y2="249.19"/><line class="cls-21" x1="407.54" y1="249.21" x2="407.52" y2="250.67"/><line class="cls-21" x1="407.52" y1="250.67" x2="407.54" y2="249.21"/><line class="cls-21" x1="409" y1="249.24" x2="408.98" y2="250.7"/><line class="cls-21" x1="408.98" y1="250.7" x2="409" y2="249.24"/><line class="cls-21" x1="410.45" y1="249.26" x2="410.43" y2="250.72"/><line class="cls-21" x1="410.43" y1="250.72" x2="410.45" y2="249.26"/><line class="cls-21" x1="411.91" y1="249.28" x2="411.89" y2="250.74"/><line class="cls-21" x1="411.89" y1="250.74" x2="411.91" y2="249.28"/><line class="cls-21" x1="413.36" y1="249.31" x2="413.34" y2="250.76"/><line class="cls-21" x1="413.34" y1="250.76" x2="413.36" y2="249.31"/><line class="cls-21" x1="414.82" y1="249.33" x2="414.8" y2="250.79"/><line class="cls-21" x1="414.8" y1="250.79" x2="414.82" y2="249.33"/><line class="cls-21" x1="416.27" y1="249.35" x2="416.25" y2="250.81"/><line class="cls-21" x1="416.25" y1="250.81" x2="416.27" y2="249.35"/><line class="cls-21" x1="417.73" y1="249.37" x2="417.71" y2="250.83"/><line class="cls-21" x1="417.71" y1="250.83" x2="417.73" y2="249.37"/><line class="cls-21" x1="419.18" y1="249.4" x2="419.16" y2="250.86"/><line class="cls-21" x1="419.16" y1="250.86" x2="419.18" y2="249.4"/><line class="cls-21" x1="420.64" y1="249.42" x2="420.62" y2="250.88"/><line class="cls-21" x1="420.62" y1="250.88" x2="420.64" y2="249.42"/><line class="cls-21" x1="422.1" y1="249.44" x2="422.08" y2="250.9"/><line class="cls-21" x1="422.08" y1="250.9" x2="422.1" y2="249.44"/><line class="cls-21" x1="423.55" y1="249.47" x2="423.53" y2="250.93"/><line class="cls-4" x1="423.53" y1="250.86" x2="423.55" y2="249.47"/><line class="cls-21" x1="425.01" y1="249.49" x2="424.99" y2="250.95"/><line class="cls-21" x1="424.99" y1="250.95" x2="425.01" y2="249.49"/><line class="cls-21" x1="426.46" y1="249.51" x2="426.44" y2="250.97"/><line class="cls-21" x1="426.44" y1="250.97" x2="426.46" y2="249.51"/><line class="cls-21" x1="427.92" y1="249.54" x2="427.9" y2="250.99"/><line class="cls-21" x1="427.9" y1="250.99" x2="427.92" y2="249.54"/><path class="cls-22" d="M107.42,293.71l-16.6.76v-7l16.6.77Z"/><path class="cls-12" d="M107.42,293.71l-16.6.76v-7l16.6.77Z"/><path class="cls-23" d="M84.67,285.38a2.22,2.22,0,0,0-1.73,1.09v8.95a2.22,2.22,0,0,0,1.73,1.09,2.38,2.38,0,0,0,1.87-1.32V286.7A2.39,2.39,0,0,0,84.67,285.38Z"/><path class="cls-24" d="M91.26,294.07c-.23,1-.56,1.62-.93,1.62-.19,0-.36-.16-.52-.44v-8.61c.16-.28.33-.44.52-.44.37,0,.7.63.93,1.63a15.61,15.61,0,0,1,0,6.24"/><path class="cls-22" d="M89.84,286.64v-.1a4.12,4.12,0,0,1-3.3,0v.16"/><path class="cls-25" d="M89.84,286.64v-.1a4.12,4.12,0,0,1-3.3,0v.16"/><path class="cls-22" d="M86.54,295.19v.15a4.2,4.2,0,0,1,3.3,0v-.1"/><path class="cls-25" d="M86.54,295.19v.15a4.2,4.2,0,0,1,3.3,0v-.1"/><path class="cls-26" d="M395.18,250.28v-1.46s-225.85-4.37-285.26-1.45v1.45s26.19.77,40.38,10.19h.76a142,142,0,0,1,47.14-8.19c14.52,0,37,2.29,50,6.74,5.85-.07,10.12.05,16,0Z"/><line class="cls-8" x1="92.45" y1="351.09" x2="495.7" y2="351.09"/><line class="cls-9" x1="96.84" y1="351.09" x2="491.31" y2="351.09"/><path d="M92.45,351.09a22,22,0,0,1,6.23,3.46l-1.26-3.46,1.26-3.46A22.26,22.26,0,0,1,92.45,351.09Z"/><path class="cls-27" d="M246.22,239.23h20.91a2.54,2.54,0,0,1,2.54,2.54h0v4.53H241v-1.8A5.27,5.27,0,0,1,246.22,239.23Z"/><text class="cls-28" transform="translate(226.14 276.01) rotate(90)">BRIDGE</text><text class="cls-28" transform="translate(76.69 280.39) rotate(90)">END PIN</text><g class="cls-29"><text class="cls-28" transform="translate(252.03 268.26) rotate(90)">BRIDGE P<tspan class="cls-30" x="25.22" y="0">L</tspan></text><text class="cls-31" transform="translate(252.03 296.18) rotate(90)">A</text><text class="cls-32" transform="translate(252.03 299.29) rotate(90)">TE</text></g><g class="cls-29"><text class="cls-33" transform="translate(117.74 274.45) rotate(90)">T</text><text class="cls-28" transform="translate(117.74 277.23) rotate(90)">AI</text><text class="cls-34" transform="translate(117.74 282.05) rotate(90)">L</text><text class="cls-32" transform="translate(117.74 284.73) rotate(90)"><tspan xml:space="preserve"> BLOCK</tspan></text></g><text class="cls-28" transform="translate(204.96 276.48) rotate(90)">X-BRACE</text><text class="cls-32" transform="translate(412.9 266.6) rotate(90)">FINGER BRACE</text><g class="cls-29"><text class="cls-32" transform="translate(458.97 270.66) rotate(90)">HE<tspan class="cls-35" x="7.42" y="0">A</tspan></text><text class="cls-34" transform="translate(458.97 281.56) rotate(90)">L</text><text class="cls-32" transform="translate(458.97 284.24) rotate(90)"><tspan xml:space="preserve"> BLOCK</tspan></text></g><line class="cls-5" x1="426.29" y1="312.76" x2="400.05" y2="304.23"/><text class="cls-28" transform="translate(297.62 274.41) rotate(90)">KERFING</text><line class="cls-36" x1="303.39" y1="299.31" x2="309.79" y2="309.76"/><line class="cls-5" x1="261.11" y1="260.86" x2="267.52" y2="271.3"/><text class="cls-28" transform="translate(267.35 272.87) rotate(90)">BRIDGE PIN</text><text class="cls-28" transform="translate(277.79 270.07) rotate(90)">SADDLE</text><polyline class="cls-37" points="279.6 268.26 279.6 230.71 266.56 236.51"/><line class="cls-5" x1="206.93" y1="253.64" x2="206.93" y2="276.01"/><text class="cls-32" transform="translate(435.19 261.69) rotate(90)">TRANSVERSE BAR</text><path class="cls-9" d="M255.14,258.92V244.66a4.49,4.49,0,0,1,2.09-3.82l5.53-3.87a4.56,4.56,0,0,1,2.29-.55l286.27,8.49"/><circle class="cls-15" cx="255.14" cy="259.85" r="0.93"/><path class="cls-38" d="M265.09,235.42c9,.26,8.89,2.34,17.83,2.6s9-1.81,17.95-1.53,8.89,2.34,17.83,2.6,9-1.81,18-1.53,8.88,2.34,17.83,2.6,9-1.81,17.95-1.53,8.88,2.33,17.82,2.6,9-1.8,18-1.53S417.1,242,426,242.31s9-1.8,18-1.53,8.88,2.34,17.83,2.61,9-1.81,18-1.53,8.88,2.34,17.83,2.6,9-1.8,18-1.52,8.89,2.33,17.84,2.6,9-1.81,18-1.53"/><polygon class="cls-39" points="303.38 329.39 297.33 329.39 299.35 317.27 301.37 317.27 303.38 329.39"/><line class="cls-40" x1="299.34" y1="327.38" x2="301.37" y2="327.38"/><line class="cls-40" x1="299.34" y1="325.35" x2="301.37" y2="325.35"/><line class="cls-40" x1="299.34" y1="323.34" x2="301.37" y2="323.34"/><line class="cls-40" x1="299.34" y1="321.31" x2="301.37" y2="321.31"/><line class="cls-40" x1="299.34" y1="319.3" x2="301.37" y2="319.3"/><polygon class="cls-39" points="237.95 332.89 231.88 332.89 233.91 320.76 235.92 320.76 237.95 332.89"/><line class="cls-40" x1="233.91" y1="330.87" x2="235.92" y2="330.87"/><line class="cls-40" x1="233.91" y1="328.84" x2="235.92" y2="328.84"/><line class="cls-40" x1="233.91" y1="326.83" x2="235.92" y2="326.83"/><line class="cls-40" x1="233.91" y1="324.8" x2="235.92" y2="324.8"/><line class="cls-40" x1="233.91" y1="322.79" x2="235.92" y2="322.79"/><polygon class="cls-39" points="175.17 334.2 169.11 334.2 171.13 322.08 173.15 322.08 175.17 334.2"/><line class="cls-40" x1="171.13" y1="332.18" x2="173.15" y2="332.18"/><line class="cls-40" x1="171.13" y1="330.16" x2="173.15" y2="330.16"/><line class="cls-40" x1="171.13" y1="328.14" x2="173.15" y2="328.14"/><line class="cls-40" x1="171.13" y1="326.12" x2="173.15" y2="326.12"/><line class="cls-40" x1="171.13" y1="324.1" x2="173.15" y2="324.1"/><polygon class="cls-39" points="367.78 325.48 361.71 325.48 363.74 313.36 365.75 313.36 367.78 325.48"/><line class="cls-40" x1="363.74" y1="323.46" x2="365.75" y2="323.46"/><line class="cls-40" x1="363.74" y1="321.44" x2="365.75" y2="321.44"/><line class="cls-40" x1="363.74" y1="319.42" x2="365.75" y2="319.42"/><line class="cls-40" x1="363.74" y1="317.4" x2="365.75" y2="317.4"/><line class="cls-40" x1="363.74" y1="315.38" x2="365.75" y2="315.38"/><polygon class="cls-39" points="432.61 321.7 426.54 321.7 428.56 309.58 430.58 309.58 432.61 321.7"/><line class="cls-27" x1="428.56" y1="319.68" x2="430.58" y2="319.68"/><line class="cls-40" x1="428.56" y1="317.66" x2="430.58" y2="317.66"/><line class="cls-40" x1="428.56" y1="315.64" x2="430.58" y2="315.64"/><line class="cls-40" x1="428.56" y1="313.62" x2="430.58" y2="313.62"/><line class="cls-40" x1="428.56" y1="311.6" x2="430.58" y2="311.6"/><path class="cls-41" d="M110.54,246c6.06-.08,12.94,3.14,20.62,3,6.28-.09,13.08-3.5,20.53-3.59,6.4-.08,13.29,3.17,20.63,3.1,6.47,0,13.3-3.41,20.55-3.45,6.53,0,13.4,3.26,20.59,3.25,6.57,0,13.43-3.32,20.58-3.3,6.6,0,13.45,3.35,20.56,3.39,6.63,0,13.51-3.23,20.62-3.18,6.66.06,13.48,3.44,20.54,3.52,6.67.08,13.57-3.15,20.63-3.05,6.69.1,13.49,3.51,20.53,3.62,6.69.12,13.61-3.05,20.62-3,6.71.13,13.5,3.58,20.5,3.73,6.73.13,13.65-3.06,20.63-2.87,6.72.16,13.5,3.64,20.49,3.82"/><text class="cls-32" transform="translate(65.83 282.3) rotate(90)">(4 1/16&quot; )</text><text class="cls-32" transform="translate(272.17 364.73)">(19 1/8&quot;)</text><text class="cls-28" transform="translate(394.27 267.75) rotate(90)">BACK BRACES</text><polyline class="cls-42" points="227.78 274.55 227.78 230.83 244.22 237.38"/><g class="cls-43"><polygon class="cls-44" points="294.73 312.87 294.73 327.07 298.76 326.83 298.76 312.63 294.73 312.87"/><polygon class="cls-44" points="293.31 312.95 293.31 327.16 294.73 327.07 294.73 312.87 293.31 312.95"/><polygon class="cls-44" points="304.22 312.31 304.22 326.51 305.64 326.42 305.64 312.22 304.22 312.31"/><polygon class="cls-44" points="300.19 312.55 300.19 326.74 304.22 326.51 304.22 312.31 300.19 312.55"/><polygon class="cls-44" points="289.29 313.19 289.29 327.39 293.31 327.16 293.31 312.95 289.29 313.19"/><polygon class="cls-44" points="271.98 314.22 271.98 328.42 276.96 328.13 276.96 313.92 271.98 314.22"/><polygon class="cls-44" points="276.96 313.92 276.96 328.13 278.38 328.04 278.38 313.83 276.96 313.92"/><polygon class="cls-44" points="278.38 313.83 278.38 328.04 282.41 327.8 282.41 313.6 278.38 313.83"/><polygon class="cls-44" points="287.86 313.27 287.86 327.48 289.29 327.39 289.29 313.19 287.86 313.27"/><polygon class="cls-44" points="305.64 312.22 305.64 326.42 309.67 326.19 309.67 311.98 305.64 312.22"/><polygon class="cls-44" points="283.83 313.51 283.83 327.71 287.86 327.48 287.86 313.27 283.83 313.51"/><polygon class="cls-44" points="282.41 313.6 282.41 327.8 283.83 327.71 283.83 313.51 282.41 313.6"/><polygon class="cls-44" points="298.76 312.63 298.76 326.83 300.19 326.74 300.19 312.55 298.76 312.63"/><polygon class="cls-44" points="326.03 311.01 326.03 325.22 327.45 325.13 327.45 310.93 326.03 311.01"/><polygon class="cls-44" points="331.48 310.69 331.48 324.9 332.91 324.81 332.91 310.6 331.48 310.69"/><polygon class="cls-44" points="327.45 310.93 327.45 325.13 331.48 324.9 331.48 310.69 327.45 310.93"/><polygon class="cls-44" points="332.91 310.6 332.91 324.81 336.93 324.57 336.93 310.37 332.91 310.6"/><polygon class="cls-44" points="342.27 310.05 338.35 310.28 338.35 324.48 342.27 324.25 342.27 310.05"/><polygon class="cls-44" points="336.93 310.37 336.93 324.57 338.35 324.48 338.35 310.28 336.93 310.37"/><polygon class="cls-44" points="322 311.25 322 325.45 326.03 325.22 326.03 311.01 322 311.25"/><polygon class="cls-44" points="315.13 311.66 315.13 325.87 316.55 325.78 316.55 311.57 315.13 311.66"/><polygon class="cls-44" points="311.09 311.89 311.09 326.1 315.13 325.87 315.13 311.66 311.09 311.89"/><polygon class="cls-44" points="309.67 311.98 309.67 326.19 311.09 326.1 311.09 311.89 309.67 311.98"/><polygon class="cls-44" points="320.57 311.34 320.57 325.54 322 325.45 322 311.25 320.57 311.34"/><polygon class="cls-44" points="316.55 311.57 316.55 325.78 320.57 325.54 320.57 311.34 316.55 311.57"/></g><polygon class="cls-45" points="294.73 312.87 294.73 327.07 298.76 326.83 298.76 312.63 294.73 312.87"/><polygon class="cls-45" points="293.31 312.95 293.31 327.16 294.73 327.07 294.73 312.87 293.31 312.95"/><polygon class="cls-45" points="304.22 312.31 304.22 326.51 305.64 326.42 305.64 312.22 304.22 312.31"/><polygon class="cls-45" points="300.19 312.55 300.19 326.74 304.22 326.51 304.22 312.31 300.19 312.55"/><polygon class="cls-45" points="289.29 313.19 289.29 327.39 293.31 327.16 293.31 312.95 289.29 313.19"/><polygon class="cls-45" points="271.98 314.22 271.98 328.42 276.96 328.13 276.96 313.92 271.98 314.22"/><polygon class="cls-45" points="276.96 313.92 276.96 328.13 278.38 328.04 278.38 313.83 276.96 313.92"/><polygon class="cls-45" points="278.38 313.83 278.38 328.04 282.41 327.8 282.41 313.6 278.38 313.83"/><polygon class="cls-45" points="287.86 313.27 287.86 327.48 289.29 327.39 289.29 313.19 287.86 313.27"/><polygon class="cls-45" points="305.64 312.22 305.64 326.42 309.67 326.19 309.67 311.98 305.64 312.22"/><polygon class="cls-45" points="283.83 313.51 283.83 327.71 287.86 327.48 287.86 313.27 283.83 313.51"/><polygon class="cls-45" points="282.41 313.6 282.41 327.8 283.83 327.71 283.83 313.51 282.41 313.6"/><polygon class="cls-45" points="298.76 312.63 298.76 326.83 300.19 326.74 300.19 312.55 298.76 312.63"/><polygon class="cls-45" points="326.03 311.01 326.03 325.22 327.45 325.13 327.45 310.93 326.03 311.01"/><polygon class="cls-45" points="331.48 310.69 331.48 324.9 332.91 324.81 332.91 310.6 331.48 310.69"/><polygon class="cls-45" points="327.45 310.93 327.45 325.13 331.48 324.9 331.48 310.69 327.45 310.93"/><polygon class="cls-45" points="332.91 310.6 332.91 324.81 336.93 324.57 336.93 310.37 332.91 310.6"/><polygon class="cls-45" points="342.27 310.05 338.35 310.28 338.35 324.48 342.27 324.25 342.27 310.05"/><polygon class="cls-45" points="336.93 310.37 336.93 324.57 338.35 324.48 338.35 310.28 336.93 310.37"/><polygon class="cls-45" points="322 311.25 322 325.45 326.03 325.22 326.03 311.01 322 311.25"/><polygon class="cls-45" points="315.13 311.66 315.13 325.87 316.55 325.78 316.55 311.57 315.13 311.66"/><polygon class="cls-45" points="311.09 311.89 311.09 326.1 315.13 325.87 315.13 311.66 311.09 311.89"/><polygon class="cls-45" points="309.67 311.98 309.67 326.19 311.09 326.1 311.09 311.89 309.67 311.98"/><polygon class="cls-45" points="320.57 311.34 320.57 325.54 322 325.45 322 311.25 320.57 311.34"/><polygon class="cls-45" points="316.55 311.57 316.55 325.78 320.57 325.54 320.57 311.34 316.55 311.57"/><rect class="cls-8" width="600" height="600"/><rect class="cls-8" y="449.45" width="600" height="148.59"/></g></g></svg>