<svg xmlns="http://www.w3.org/2000/svg" viewBox="0 0 600.25 600"><defs><style>.cls-1,.cls-10,.cls-11,.cls-12,.cls-13,.cls-14,.cls-17,.cls-18,.cls-19,.cls-20,.cls-21,.cls-22,.cls-7,.cls-8,.cls-9{fill:none;}.cls-2{fill:#1f3d4c;}.cls-16,.cls-3,.cls-6{fill:#fff;}.cls-10,.cls-11,.cls-12,.cls-13,.cls-14,.cls-16,.cls-17,.cls-18,.cls-19,.cls-20,.cls-21,.cls-22,.cls-3,.cls-4,.cls-8,.cls-9{stroke:#000;}.cls-10,.cls-11,.cls-12,.cls-13,.cls-14,.cls-15,.cls-16,.cls-17,.cls-18,.cls-19,.cls-20,.cls-21,.cls-22,.cls-3,.cls-4,.cls-7,.cls-8,.cls-9{stroke-miterlimit:10;}.cls-3,.cls-7,.cls-8{stroke-width:1.22px;}.cls-4{fill:#29abe2;stroke-width:3px;}.cls-5{fill:#bc402f;}.cls-7{stroke:red;}.cls-9{stroke-width:2.58px;}.cls-10{stroke-width:2.26px;}.cls-11{stroke-width:1.94px;}.cls-12{stroke-width:1.29px;}.cls-13{stroke-width:1.61px;}.cls-14{stroke-width:0.97px;}.cls-15{fill:#e51729;stroke:#e51729;}.cls-16{stroke-width:1.04px;}.cls-17{stroke-width:2.08px;}.cls-18{stroke-width:1.82px;}.cls-19{stroke-width:1.56px;}.cls-20{stroke-width:1.04px;}.cls-21{stroke-width:1.3px;}.cls-22{stroke-width:0.78px;}</style></defs><g id="Layer_2" data-name="Layer 2"><g id="Layer_1-2" data-name="Layer 1"><rect class="cls-1" width="600" height="600"/><rect class="cls-2" x="410.07" y="225.79" width="16.41" height="6.93" transform="translate(647.52 -189.01) rotate(90)"/><ellipse class="cls-3" cx="417.96" cy="208.94" rx="17.2" ry="12.35"/><rect class="cls-2" x="341.8" y="224.6" width="16.41" height="6.93" transform="translate(578.06 -121.93) rotate(90)"/><ellipse class="cls-3" cx="349.7" cy="207.75" rx="17.2" ry="12.35"/><rect class="cls-2" x="476.75" y="227.38" width="16.41" height="6.93" transform="translate(715.79 -254.11) rotate(90)"/><ellipse class="cls-3" cx="484.65" cy="210.52" rx="17.2" ry="12.35"/><rect class="cls-2" x="410.07" y="367.28" width="16.41" height="6.93" transform="translate(47.52 789.01) rotate(-90)"/><ellipse class="cls-3" cx="417.96" cy="391.06" rx="17.2" ry="12.35"/><rect class="cls-2" x="341.8" y="368.47" width="16.41" height="6.93" transform="translate(-21.94 721.93) rotate(-90)"/><ellipse class="cls-3" cx="349.7" cy="392.25" rx="17.2" ry="12.35"/><rect class="cls-2" x="476.75" y="365.69" width="16.41" height="6.93" transform="translate(115.79 854.11) rotate(-90)"/><ellipse class="cls-3" cx="485.65" cy="389.48" rx="17.2" ry="12.35"/><path class="cls-4" d="M589.64,300.51V257.8s-37-3.17-55.57-23.81c0,0-159,10.58-248.73-7.41,0,0,7.38,18.71-14.89,55.66a11.1,11.1,0,0,0,0,11.67,28.62,28.62,0,0,0,5.93,6.6,28.84,28.84,0,0,0-5.93,6.61,11.1,11.1,0,0,0,0,11.67c22.27,36.95,14.89,55.66,14.89,55.66,89.76-18,248.73-7.41,248.73-7.41,18.52-20.64,55.57-23.81,55.57-23.81Z"/><circle class="cls-5" cx="416.98" cy="343.49" r="11.51"/><circle class="cls-5" cx="416.98" cy="256.96" r="11.51"/><circle class="cls-5" cx="347.12" cy="256.96" r="11.51"/><circle class="cls-5" cx="347.12" cy="343.49" r="11.51"/><circle class="cls-5" cx="481.28" cy="343.49" r="11.51"/><circle class="cls-5" cx="481.28" cy="256.96" r="11.51"/><path class="cls-6" d="M467.5,300.51c-.05-6,7.59-7,7.59-7,1.26-5.64,8.29-9.8,13.11-12a18.51,18.51,0,0,1,8.69-1.62A317.28,317.28,0,0,0,577.33,273c4.77,6.75,0,20.25,0,20.25a6.89,6.89,0,0,1,4.95,2.87,7.3,7.3,0,0,1-4.95,11.62s4.77,13.49,0,20.24a317.82,317.82,0,0,0-80.44-6.79,18.39,18.39,0,0,1-8.69-1.62c-4.82-2.23-11.85-6.38-13.11-12,0,0-7.64-1-7.59-7"/><path class="cls-7" d="M467.5,300.51c-.05-6,7.59-7,7.59-7,1.26-5.64,8.29-9.8,13.11-12a18.51,18.51,0,0,1,8.69-1.62A317.28,317.28,0,0,0,577.33,273c4.77,6.75,0,20.25,0,20.25a6.89,6.89,0,0,1,4.95,2.87,7.3,7.3,0,0,1-4.95,11.62s4.77,13.49,0,20.24a317.82,317.82,0,0,0-80.44-6.79,18.39,18.39,0,0,1-8.69-1.62c-4.82-2.23-11.85-6.38-13.11-12,0,0-7.64-1-7.59-7"/><path class="cls-8" d="M467.5,300.51c-.05-6,7.59-7,7.59-7,1.26-5.64,8.29-9.8,13.11-12a18.51,18.51,0,0,1,8.69-1.62A317.28,317.28,0,0,0,577.33,273c4.77,6.75,0,20.25,0,20.25a6.89,6.89,0,0,1,4.95,2.87,7.3,7.3,0,0,1-4.95,11.62s4.77,13.49,0,20.24a317.82,317.82,0,0,0-80.44-6.79,18.39,18.39,0,0,1-8.69-1.62c-4.82-2.23-11.85-6.38-13.11-12,0,0-7.64-1-7.59-7"/><circle class="cls-8" cx="475.09" cy="300.23" r="4.07"/><circle class="cls-8" cx="577.09" cy="300.23" r="4.07"/><polyline class="cls-9" points="589.64 338.06 584.64 337.99 483 338.46"/><line class="cls-10" x1="589.59" y1="322.39" x2="416.85" y2="338.46"/><line class="cls-11" x1="589.59" y1="306.8" x2="348.05" y2="338.2"/><line class="cls-12" x1="589.6" y1="275.8" x2="416.85" y2="262.78"/><line class="cls-13" x1="589.79" y1="290.62" x2="346.73" y2="263.05"/><line class="cls-14" x1="589.69" y1="261.29" x2="484.32" y2="262.25"/><line class="cls-9" x1="476.06" y1="344.41" x2="479.26" y2="360.02"/><line class="cls-10" x1="401.75" y1="360.02" x2="421.09" y2="347.19"/><line class="cls-14" x1="475.09" y1="257.13" x2="475.5" y2="241.71"/><line class="cls-12" x1="433.79" y1="253.22" x2="417.95" y2="251.03"/><line class="cls-13" x1="359.51" y1="245.2" x2="346.79" y2="250.94"/><line class="cls-11" x1="352.68" y1="358.37" x2="342.56" y2="346.86"/><circle class="cls-3" cx="416.98" cy="343.49" r="6.19"/><circle class="cls-3" cx="416.98" cy="256.96" r="6.19"/><circle class="cls-3" cx="347.12" cy="256.96" r="6.19"/><circle class="cls-3" cx="347.12" cy="343.49" r="6.19"/><circle class="cls-3" cx="481.28" cy="343.49" r="6.19"/><circle class="cls-3" cx="481.28" cy="256.96" r="6.19"/><line class="cls-15" x1="475.12" y1="298.15" x2="475.12" y2="302.3"/><line class="cls-15" x1="575.43" y1="298.98" x2="578.75" y2="301.48"/><path class="cls-16" d="M552.54,295.65h85.23a2.56,2.56,0,0,1,2.56,2.56v6.59a0,0,0,0,1,0,0H550a0,0,0,0,1,0,0v-6.59A2.56,2.56,0,0,1,552.54,295.65Z" transform="translate(294.93 895.38) rotate(-90)"/><line class="cls-17" x1="599.98" y1="337.99" x2="590.83" y2="337.99"/><line class="cls-18" x1="599.5" y1="322.5" x2="590.35" y2="322.5"/><line class="cls-19" x1="600.15" y1="306.8" x2="590.99" y2="306.8"/><line class="cls-20" x1="599.59" y1="275.8" x2="590.43" y2="275.8"/><line class="cls-21" x1="599.73" y1="290.62" x2="590.58" y2="290.62"/><line class="cls-22" x1="599.41" y1="261.29" x2="590.26" y2="261.29"/></g></g></svg>