<svg xmlns="http://www.w3.org/2000/svg" xmlns:xlink="http://www.w3.org/1999/xlink" viewBox="0 0 900 600"><defs><style>.cls-1{fill:url(#linear-gradient);}.cls-2{opacity:0.55;}.cls-3{fill:#e51729;}.cls-4{fill:#00b38f;}.cls-5{fill:#bc402f;}.cls-6{fill:#179fe5;}.cls-11,.cls-21,.cls-25,.cls-7{fill:#1f3d4c;}.cls-40,.cls-8{fill:#ccc;}.cls-10,.cls-11,.cls-12,.cls-13,.cls-14,.cls-15,.cls-17,.cls-19,.cls-20,.cls-21,.cls-22,.cls-27,.cls-28,.cls-31,.cls-32,.cls-34,.cls-35,.cls-40,.cls-41,.cls-43,.cls-44,.cls-50,.cls-51,.cls-52,.cls-8,.cls-9{stroke:#22b573;}.cls-10,.cls-11,.cls-12,.cls-13,.cls-14,.cls-15,.cls-16,.cls-17,.cls-18,.cls-19,.cls-20,.cls-21,.cls-22,.cls-23,.cls-24,.cls-25,.cls-26,.cls-27,.cls-28,.cls-29,.cls-30,.cls-31,.cls-32,.cls-33,.cls-34,.cls-35,.cls-36,.cls-38,.cls-40,.cls-41,.cls-43,.cls-44,.cls-45,.cls-46,.cls-47,.cls-48,.cls-49,.cls-50,.cls-51,.cls-52,.cls-8,.cls-9{stroke-miterlimit:10;}.cls-28,.cls-29,.cls-31,.cls-32,.cls-8{stroke-width:0.74px;}.cls-20,.cls-24,.cls-30,.cls-31,.cls-49,.cls-50,.cls-9{fill:#999;}.cls-9{stroke-width:0.46px;}.cls-10,.cls-22{fill:#3f7b99;}.cls-10,.cls-11,.cls-12,.cls-17,.cls-19,.cls-20,.cls-40,.cls-51{stroke-width:0.18px;}.cls-12,.cls-41,.cls-42,.cls-52{fill:#22b573;}.cls-13,.cls-28{fill:#666;}.cls-13,.cls-14,.cls-15,.cls-22,.cls-23,.cls-27,.cls-33,.cls-35,.cls-45,.cls-49,.cls-50,.cls-52{stroke-width:0.72px;}.cls-14,.cls-37{fill:#fff;}.cls-15,.cls-16,.cls-17,.cls-18,.cls-23,.cls-26,.cls-27,.cls-29,.cls-32,.cls-38,.cls-43,.cls-45,.cls-53{fill:none;}.cls-16{stroke:#1f3d4c;stroke-width:2.88px;}.cls-18,.cls-45{stroke:#e51729;}.cls-18{stroke-width:1.08px;}.cls-21{stroke-width:0.17px;}.cls-23{stroke:#179fe5;}.cls-24,.cls-25,.cls-26{stroke:#39b54a;}.cls-24{stroke-width:0.9px;}.cls-25,.cls-26{stroke-width:0.78px;}.cls-27{stroke-linecap:round;}.cls-29{stroke:#4d4d4d;}.cls-30,.cls-36,.cls-46,.cls-47,.cls-48,.cls-49{stroke:#000;}.cls-30{stroke-width:0.54px;}.cls-33{fill:#254859;stroke:#254859;}.cls-34{fill:#e6e6e6;}.cls-34,.cls-36,.cls-48{stroke-width:0.36px;}.cls-35{fill:#59aed9;}.cls-36,.cls-51{fill:#4d4d4d;}.cls-37{font-size:3.6px;font-family:Helvetica-Bold, Helvetica;font-weight:700;}.cls-38{stroke:red;stroke-width:1.44px;}.cls-39{fill:red;}.cls-41{stroke-width:0.17px;}.cls-42{font-size:2.79px;font-family:MyriadPro-Regular, Myriad Pro;}.cls-43,.cls-44{stroke-width:0.21px;}.cls-46,.cls-47{stroke-width:0.24px;}.cls-47{fill:#333;}.cls-48{fill:gray;}</style><linearGradient id="linear-gradient" x1="419.61" y1="396.8" x2="419.46" y2="233.03" gradientUnits="userSpaceOnUse"><stop offset="0" stop-color="#fff"/><stop offset="0.16" stop-color="#fcfcfc"/><stop offset="0.28" stop-color="#f2f2f2"/><stop offset="0.39" stop-color="#e1e1e1"/><stop offset="0.49" stop-color="#cacaca"/><stop offset="0.59" stop-color="#ababab"/><stop offset="0.69" stop-color="#868686"/><stop offset="0.78" stop-color="#5a5a5a"/><stop offset="0.87" stop-color="#282828"/><stop offset="0.93"/></linearGradient></defs><g id="Layer_2" data-name="Layer 2"><g id="Layer_1-2" data-name="Layer 1"><rect x="458.49" y="300.42" width="6.81" height="1.3"/><path class="cls-1" d="M448.56,390.71a185.06,185.06,0,0,1-57.92,0l13.11-82.77a101.52,101.52,0,0,0,31.7,0Z"/><g class="cls-2"><circle class="cls-3" cx="206.13" cy="176.98" r="6.26"/><circle class="cls-4" cx="237.13" cy="283.26" r="8.13"/><circle class="cls-3" cx="261.56" cy="405.5" r="1.71"/><circle class="cls-5" cx="265.44" cy="247.96" r="1.71"/><circle class="cls-6" cx="558.56" cy="159.12" r="7.5"/><circle class="cls-7" cx="595.57" cy="175.98" r="0.97"/><circle class="cls-4" cx="462.51" cy="162.65" r="5.24"/><circle class="cls-7" cx="596.54" cy="368.04" r="14.77"/><circle class="cls-3" cx="718.1" cy="268" r="7.39"/><circle class="cls-7" cx="666.44" cy="226.39" r="1.6"/><circle class="cls-4" cx="596.54" cy="241.1" r="5.85"/><circle class="cls-3" cx="620.85" cy="275.87" r="5.85"/><circle class="cls-4" cx="648.59" cy="191.77" r="1.35"/><circle class="cls-5" cx="678.65" cy="342.45" r="10.6"/><circle class="cls-7" cx="287.63" cy="298.78" r="4.51"/><circle class="cls-5" cx="352.83" cy="342.76" r="4.51"/><circle class="cls-7" cx="263.27" cy="157.4" r="1.71"/><circle class="cls-5" cx="183.59" cy="223.76" r="9.08"/><circle class="cls-3" cx="192.66" cy="353.05" r="7.2"/></g><rect class="cls-8" x="507.14" y="238.53" width="3.05" height="1.95"/><rect class="cls-9" x="378.39" y="202.74" width="13.2" height="10.3" transform="translate(-14.68 385.94) rotate(-52.38)"/><rect class="cls-9" x="399.54" y="218.85" width="13.2" height="10.3" transform="translate(-19.2 408.97) rotate(-52.38)"/><path class="cls-6" d="M518.83,378.41H500.08V244.79h0a4.23,4.23,0,0,1,4.15-4.31h10.45a4.23,4.23,0,0,1,4.15,4.31h0Z"/><polygon class="cls-10" points="435.95 301.51 402.87 301.51 396.29 289.69 396.29 274.31 442.91 274.31 442.91 289.69 435.95 301.51"/><rect class="cls-11" x="482.88" y="281.08" width="40.71" height="59.81"/><rect class="cls-12" x="527.98" y="306.18" width="6.78" height="10.86"/><rect class="cls-13" x="450.42" y="386.66" width="5.05" height="6.23"/><rect class="cls-14" x="451.5" y="381.72" width="2.88" height="2.16"/><line class="cls-15" x1="456.19" y1="379.9" x2="456.19" y2="381.34"/><line class="cls-15" x1="455.95" y1="379.9" x2="455.95" y2="381.34"/><line class="cls-15" x1="455.71" y1="379.9" x2="455.71" y2="381.34"/><line class="cls-15" x1="455.47" y1="379.9" x2="455.47" y2="381.34"/><line class="cls-15" x1="455.23" y1="379.9" x2="455.23" y2="381.34"/><line class="cls-15" x1="454.99" y1="379.9" x2="454.99" y2="381.34"/><line class="cls-15" x1="454.75" y1="379.9" x2="454.75" y2="381.34"/><line class="cls-15" x1="454.51" y1="379.9" x2="454.51" y2="381.34"/><line class="cls-15" x1="454.27" y1="379.9" x2="454.27" y2="381.34"/><line class="cls-15" x1="454.03" y1="379.9" x2="454.03" y2="381.34"/><line class="cls-15" x1="453.78" y1="379.9" x2="453.78" y2="381.34"/><line class="cls-15" x1="453.54" y1="379.9" x2="453.54" y2="381.34"/><line class="cls-15" x1="453.3" y1="379.9" x2="453.3" y2="381.34"/><line class="cls-15" x1="453.06" y1="379.9" x2="453.06" y2="381.34"/><line class="cls-15" x1="452.82" y1="379.9" x2="452.82" y2="381.34"/><line class="cls-15" x1="452.58" y1="379.9" x2="452.58" y2="381.34"/><line class="cls-15" x1="452.34" y1="379.9" x2="452.34" y2="381.34"/><line class="cls-15" x1="452.1" y1="379.9" x2="452.1" y2="381.34"/><line class="cls-15" x1="451.86" y1="379.9" x2="451.86" y2="381.34"/><line class="cls-15" x1="451.62" y1="379.9" x2="451.62" y2="381.34"/><line class="cls-15" x1="451.38" y1="379.9" x2="451.38" y2="381.34"/><line class="cls-15" x1="451.14" y1="379.9" x2="451.14" y2="381.34"/><line class="cls-15" x1="450.9" y1="379.9" x2="450.9" y2="381.34"/><line class="cls-15" x1="450.66" y1="379.9" x2="450.66" y2="381.34"/><line class="cls-15" x1="450.42" y1="379.9" x2="450.42" y2="381.34"/><line class="cls-15" x1="450.18" y1="379.9" x2="450.18" y2="381.34"/><line class="cls-15" x1="449.94" y1="379.9" x2="449.94" y2="381.34"/><line class="cls-15" x1="449.7" y1="379.9" x2="449.7" y2="381.34"/><path class="cls-15" d="M405.38,389.51l1.29,1.42a1.72,1.72,0,0,0,1.45.54l41.82-5.82h6.59"/><line class="cls-16" x1="523.59" y1="311.57" x2="527.98" y2="311.57"/><line class="cls-17" x1="527.5" y1="309.66" x2="527.5" y2="313.56"/><line class="cls-17" x1="527.98" y1="309.66" x2="527.98" y2="313.56"/><line class="cls-17" x1="527.03" y1="309.66" x2="527.03" y2="313.56"/><line class="cls-17" x1="526.56" y1="309.66" x2="526.56" y2="313.56"/><line class="cls-17" x1="526.1" y1="309.66" x2="526.1" y2="313.56"/><line class="cls-17" x1="525.63" y1="309.66" x2="525.63" y2="313.56"/><line class="cls-17" x1="525.16" y1="309.66" x2="525.16" y2="313.56"/><line class="cls-17" x1="524.69" y1="309.66" x2="524.69" y2="313.56"/><line class="cls-17" x1="524.25" y1="309.66" x2="524.25" y2="313.56"/><rect class="cls-7" x="534.76" y="297.36" width="6.05" height="28.42"/><line class="cls-18" x1="534.25" y1="297.73" x2="541.32" y2="297.73"/><line class="cls-18" x1="534.25" y1="299.71" x2="541.32" y2="299.71"/><line class="cls-18" x1="534.25" y1="301.68" x2="541.32" y2="301.68"/><line class="cls-18" x1="534.25" y1="303.66" x2="541.32" y2="303.66"/><line class="cls-18" x1="534.25" y1="305.64" x2="541.32" y2="305.64"/><line class="cls-18" x1="534.25" y1="307.61" x2="541.32" y2="307.61"/><line class="cls-18" x1="534.25" y1="309.59" x2="541.32" y2="309.59"/><line class="cls-18" x1="534.25" y1="311.57" x2="541.32" y2="311.57"/><line class="cls-18" x1="534.25" y1="313.54" x2="541.32" y2="313.54"/><line class="cls-18" x1="534.25" y1="315.52" x2="541.32" y2="315.52"/><line class="cls-18" x1="534.25" y1="317.5" x2="541.32" y2="317.5"/><line class="cls-18" x1="534.25" y1="319.47" x2="541.32" y2="319.47"/><line class="cls-18" x1="534.25" y1="321.45" x2="541.32" y2="321.45"/><line class="cls-18" x1="534.25" y1="323.43" x2="541.32" y2="323.43"/><line class="cls-18" x1="534.25" y1="325.4" x2="541.32" y2="325.4"/><rect class="cls-17" x="403.75" y="304.81" width="31.7" height="2.66"/><rect class="cls-19" x="403.75" y="304.81" width="31.7" height="2.66"/><rect class="cls-20" x="404.35" y="301.72" width="30.5" height="2.66"/><rect class="cls-21" x="388.27" y="251.03" width="62.7" height="23.28"/><path class="cls-11" d="M452.94,251H388.31a.92.92,0,0,1-.73-1.47l24.47-31.68a2.6,2.6,0,0,1,3.09-.79l35.28,15.46a4.22,4.22,0,0,1,2.52,3.86Z"/><polygon class="cls-11" points="387.39 245.52 411.86 213.84 390.69 198.01 366.22 229.68 387.39 245.52"/><circle class="cls-15" cx="402.13" cy="221.76" r="1.04"/><rect class="cls-22" x="364.53" y="191.83" width="22.43" height="17.51" transform="translate(-12.49 375.77) rotate(-52.38)"/><rect class="cls-7" x="361.6" y="197.18" width="27.65" height="6.69" transform="translate(-12.57 375.5) rotate(-52.38)"/><line class="cls-23" x1="364.05" y1="207.88" x2="371.21" y2="213.4"/><line class="cls-23" x1="365.09" y1="206.53" x2="372.25" y2="212.05"/><line class="cls-23" x1="366.06" y1="205.28" x2="373.22" y2="210.8"/><line class="cls-23" x1="367.03" y1="204.02" x2="374.19" y2="209.54"/><line class="cls-23" x1="367.99" y1="202.77" x2="375.16" y2="208.28"/><line class="cls-23" x1="368.96" y1="201.51" x2="376.12" y2="207.03"/><line class="cls-23" x1="369.93" y1="200.25" x2="377.09" y2="205.77"/><line class="cls-23" x1="370.9" y1="199" x2="378.06" y2="204.52"/><line class="cls-23" x1="371.86" y1="197.74" x2="379.03" y2="203.26"/><line class="cls-23" x1="372.83" y1="196.49" x2="379.99" y2="202.01"/><line class="cls-23" x1="373.8" y1="195.23" x2="380.96" y2="200.75"/><line class="cls-23" x1="374.77" y1="193.98" x2="381.93" y2="199.5"/><line class="cls-23" x1="375.74" y1="192.72" x2="382.9" y2="198.24"/><line class="cls-23" x1="376.7" y1="191.46" x2="383.86" y2="196.98"/><line class="cls-23" x1="377.67" y1="190.21" x2="384.83" y2="195.73"/><line class="cls-23" x1="378.64" y1="188.95" x2="385.8" y2="194.47"/><line class="cls-23" x1="379.61" y1="187.7" x2="386.77" y2="193.22"/><path class="cls-24" d="M374.55,187.8l-11.61,15.07-13-10h0a47.58,47.58,0,0,1,11.57-15l0,0Z"/><path class="cls-25" d="M373.59,183.07,358,203.25l-.5-.18a13.41,13.41,0,0,1-6.83-5.47h0q3.41-5.32,7.27-10.33t8.23-9.8l.05-.06h0a18.56,18.56,0,0,1,7,5.24Z"/><circle class="cls-26" cx="369.44" cy="191.24" r="0.5"/><line class="cls-27" x1="397.88" y1="392.2" x2="441.33" y2="392.2"/><path class="cls-9" d="M470.51,300h0a93.45,93.45,0,0,1-17.22,0h0V297.2h17.22Z"/><rect class="cls-28" x="450.98" y="266.12" width="22.55" height="31.08"/><polygon class="cls-28" points="473.53 266.12 450.98 266.12 457.91 258.06 467.54 258.06 473.53 266.12"/><line class="cls-17" x1="457.83" y1="261.72" x2="466.73" y2="261.72"/><path class="cls-29" d="M508.56,223s.23-9.79-8.22-8.14S483.58,223,483.58,223s-1.52.86,6,.84a.1.1,0,0,1,0,.2L483.74,226s-1.79.94,6.06.89c.05,0,.07.07,0,.08l-6,1.7s-1.86,1,6,.94c.06,0,.08.07,0,.09l-6,1.94s-1.48.91,5.67.91a.11.11,0,0,1,0,.22l-5.78,1.38s-2.35,1,5.41.94c.06,0,.08.08,0,.09l-5.9,1.63s-2.35,1,5.43.94c.05,0,.07.07,0,.08l-6.08,1.28s0,.05,0,.05c1.08,0,5.24.42,6.51,3.37a.1.1,0,0,1-.12.13l-5.31-2a.09.09,0,0,0-.1.14c1,1.14,4.54,3.49,4.71,4.38a.14.14,0,0,1-.22.14l-4.28-3s3.47,2.54,3.2,5l-3-3.6s3.05,2.76,1.91,5.23l-1.74-3.47s1.49,3.23-.35,5.23l-.15-4.22a5.29,5.29,0,0,1-3.07,2.9c-2.45.59-6.37-2.13-5.34-5.67"/><rect class="cls-30" x="507.43" y="222.63" width="2.25" height="0.52" rx="0.26"/><rect class="cls-31" x="507.14" y="223.23" width="3.05" height="7.19"/><line class="cls-32" x1="505.97" y1="229.05" x2="511.22" y2="229.05"/><line class="cls-32" x1="506.15" y1="227.42" x2="511.08" y2="227.42"/><line class="cls-32" x1="506.38" y1="225.81" x2="510.86" y2="225.83"/><line class="cls-32" x1="506.67" y1="224.21" x2="510.63" y2="224.19"/><path class="cls-29" d="M462.53,255.87s-.59-3.3,12.76-4.7c15.85-1.66,6.38-16.75,1.17-10.18-4.21,5.32,4.15,10.15,6.15,4.7a3.45,3.45,0,0,0-.29-3.17,3.32,3.32,0,0,0-3-1.37"/><circle class="cls-29" cx="479.36" cy="243.66" r="2.51"/><line class="cls-17" x1="453.62" y1="268" x2="453.62" y2="295.32"/><line class="cls-17" x1="456.35" y1="268" x2="456.35" y2="295.32"/><line class="cls-17" x1="470.89" y1="295.32" x2="470.89" y2="268"/><line class="cls-17" x1="467.72" y1="295.32" x2="467.72" y2="268"/><line class="cls-17" x1="464.91" y1="295.32" x2="464.91" y2="268"/><line class="cls-17" x1="462.25" y1="295.32" x2="462.25" y2="268"/><line class="cls-17" x1="459.6" y1="268" x2="459.6" y2="295.32"/><path class="cls-33" d="M499.89,378.41H519a3.24,3.24,0,0,1,3.24,3.24v11.23a0,0,0,0,1,0,0h-25.6a0,0,0,0,1,0,0V381.65A3.24,3.24,0,0,1,499.89,378.41Z"/><path class="cls-34" d="M531.85,438H369.5a3.3,3.3,0,0,1-3.1-4.37l10.09-30a15.12,15.12,0,0,1,14.31-10.34H531.85a3.29,3.29,0,0,1,3.27,3.31v38.08A3.29,3.29,0,0,1,531.85,438Z"/><path class="cls-11" d="M482.88,336.58h-6.07l-.62-37a5.81,5.81,0,0,0-4.84-5.63L436,288V276.69h46.93Z"/><path class="cls-11" d="M444.59,289a228.6,228.6,0,0,0-50,0q-.67-6.16-1.36-12.34a238.51,238.51,0,0,1,52.7,0Q445.28,282.85,444.59,289Z"/><circle class="cls-35" cx="462.49" cy="284.12" r="3.41"/><circle class="cls-35" cx="419.6" cy="281.66" r="0.94"/><circle class="cls-10" cx="494.59" cy="303.2" r="16.52"/><path class="cls-10" d="M508.66,304.23c.25-.41.58-.83.83-1.25a14.64,14.64,0,0,0-.21-2.21c-.31-.36-.71-.71-1-1.07a16,16,0,0,0-.54-1.7c0-.48.15-1,.19-1.47a16.86,16.86,0,0,0-1.11-1.88c-.44-.19-.94-.33-1.38-.52a13.61,13.61,0,0,0-1.24-1.28c-.17-.46-.3-1-.47-1.43a14.74,14.74,0,0,0-1.82-1.21c-.48,0-1,.11-1.48.13a13.87,13.87,0,0,0-1.7-.65c-.34-.34-.67-.74-1-1.07a14,14,0,0,0-2.16-.28c-.42.22-.85.53-1.27.75a15.22,15.22,0,0,0-1.81.16c-.46-.14-.94-.37-1.4-.52a16.09,16.09,0,0,0-2.07.66c-.29.39-.54.86-.83,1.25a15.05,15.05,0,0,0-1.55.92c-.48.07-1,.07-1.49.14a14.82,14.82,0,0,0-1.56,1.51c-.09.48-.12,1-.21,1.49a13,13,0,0,0-1,1.47c-.4.26-.87.49-1.27.76a14.19,14.19,0,0,0-.78,2c.12.46.32.94.45,1.4a13.42,13.42,0,0,0-.23,1.8c-.25.41-.58.83-.83,1.25a16.06,16.06,0,0,0,.2,2.21c.32.36.71.71,1,1.07a15.32,15.32,0,0,0,.54,1.7c0,.48-.15,1-.19,1.47a16.86,16.86,0,0,0,1.11,1.88c.44.19.94.33,1.38.52a12.49,12.49,0,0,0,1.24,1.28c.17.46.3,1,.47,1.43a14.74,14.74,0,0,0,1.82,1.21c.48,0,1-.11,1.48-.12a13.83,13.83,0,0,0,1.7.64c.34.34.67.74,1,1.07a14,14,0,0,0,2.16.28c.42-.22.85-.53,1.27-.75a13.38,13.38,0,0,0,1.81-.16c.46.14.94.37,1.39.52a15.75,15.75,0,0,0,2.08-.66c.29-.39.54-.86.83-1.25a14.36,14.36,0,0,0,1.55-.92c.48-.07,1-.07,1.49-.14a14.82,14.82,0,0,0,1.56-1.51c.09-.48.12-1,.21-1.48a14,14,0,0,0,1-1.48c.4-.26.87-.49,1.27-.76a14.19,14.19,0,0,0,.78-2c-.12-.46-.32-.94-.45-1.4A13.42,13.42,0,0,0,508.66,304.23Z"/><circle class="cls-36" cx="494.59" cy="303.2" r="12.56"/><text class="cls-37" transform="translate(488.4 306.3) rotate(-108.82)">T</text><text class="cls-37" transform="translate(487.7 304.4) rotate(-91.09)">E</text><text class="cls-37" transform="translate(487.61 302.17) rotate(-72.09)">N</text><text class="cls-37" transform="matrix(0.6, -0.8, 0.8, 0.6, 488.34, 299.86)">S</text><text class="cls-37" transform="translate(489.78 298.07) rotate(-39.94)">I</text><text class="cls-37" transform="translate(490.36 297.42) rotate(-25.55)">O</text><text class="cls-37" transform="translate(492.71 296.27) rotate(-4.78)">N</text><text class="cls-37" transform="matrix(0.99, 0.15, -0.15, 0.99, 495.15, 296.14)"> </text><text class="cls-37" transform="translate(496.06 296.31) rotate(13.35)"> </text><path class="cls-38" d="M496.13,294.69a8.61,8.61,0,0,1,5.24,3.15"/><polygon class="cls-39" points="500.12 298.35 502.53 299.3 502.15 296.74 500.12 298.35"/><circle class="cls-11" cx="438.17" cy="418.84" r="6.49"/><circle class="cls-15" cx="466.28" cy="418.84" r="4.33"/><circle class="cls-40" cx="466.28" cy="418.84" r="8.65"/><path class="cls-11" d="M473.42,418.84c0,.88-1.43,1.47-1.74,2.24s.24,2.21-.35,2.81-2,0-2.82.35-1.35,1.74-2.23,1.74-1.47-1.42-2.23-1.74-2.22.25-2.82-.35,0-2-.35-2.81-1.74-1.36-1.74-2.24,1.43-1.47,1.74-2.23-.24-2.21.35-2.81,2,0,2.82-.35,1.35-1.74,2.23-1.74,1.47,1.42,2.23,1.74,2.22-.25,2.82.35,0,2,.35,2.81S473.42,418,473.42,418.84Z"/><line class="cls-15" x1="461.95" y1="418.84" x2="459.07" y2="418.84"/><line class="cls-15" x1="440.83" y1="416.42" x2="442.97" y2="414.48"/><path class="cls-41" d="M446,410.91l2-1.74c-3.19-3.79-10.14-4.76-14.16-2.39a10,10,0,0,0-3.51,3.45,9.77,9.77,0,0,1,2-1.57C436.11,406.44,441.9,405.6,446,410.91Z"/><text class="cls-42" transform="translate(473.53 412.16)">OFF</text><line class="cls-43" x1="455.44" y1="417.66" x2="455.44" y2="420.26"/><line class="cls-43" x1="453.31" y1="419.75" x2="455.75" y2="419.75"/><line class="cls-43" x1="453.31" y1="418.96" x2="455.75" y2="418.96"/><line class="cls-43" x1="453.31" y1="418.17" x2="455.75" y2="418.17"/><line class="cls-43" x1="453.61" y1="417.66" x2="453.61" y2="420.26"/><line class="cls-44" x1="459.03" y1="411.49" x2="457.79" y2="412.8"/><line class="cls-44" x1="456.49" y1="410.97" x2="458.26" y2="412.65"/><line class="cls-44" x1="457.19" y1="410.24" x2="458.96" y2="411.92"/><line class="cls-44" x1="457.7" y1="410.22" x2="456.46" y2="411.53"/><path class="cls-44" d="M466.06,406.78c0,.11.07,2.16.07,2.16"/><path class="cls-45" d="M522.26,417.92a2,2,0,1,0,0,4.05"/><path class="cls-45" d="M525.45,417.92a2,2,0,0,0,0,4.05"/><line class="cls-45" x1="523.43" y1="419.95" x2="525.45" y2="419.95"/><rect class="cls-31" x="505.97" y="230.43" width="5.24" height="8.77"/><circle class="cls-11" cx="432.78" cy="252.74" r="9.98"/><circle class="cls-46" cx="494.59" cy="303.05" r="4.42"/><circle class="cls-47" cx="494.59" cy="303.05" r="1.33"/><circle class="cls-47" cx="462.49" cy="284.12" r="1.33"/><circle class="cls-48" cx="432.78" cy="252.74" r="7.6"/><rect class="cls-49" x="461.08" y="255.3" width="2.99" height="0.69" rx="0.34"/><rect class="cls-50" x="458.69" y="255.99" width="8.04" height="2.07"/><path class="cls-14" d="M452.29,382.8h1.3a1.87,1.87,0,0,1,1.87,1.87v0a0,0,0,0,1,0,0h-5a0,0,0,0,1,0,0v0A1.87,1.87,0,0,1,452.29,382.8Z"/><path class="cls-51" d="M441.28,253.36c.15-.25.35-.5.5-.75a9.81,9.81,0,0,0-.12-1.34c-.19-.22-.43-.43-.62-.65a9.49,9.49,0,0,0-.33-1c0-.29.09-.59.12-.88a8.17,8.17,0,0,0-.68-1.14c-.26-.11-.56-.2-.83-.31a7.87,7.87,0,0,0-.75-.78c-.1-.27-.18-.59-.28-.86a8.74,8.74,0,0,0-1.1-.73c-.29,0-.61.06-.9.07a8.94,8.94,0,0,0-1-.39c-.21-.2-.41-.45-.62-.65a8.09,8.09,0,0,0-1.31-.16c-.25.13-.51.31-.77.45a7.89,7.89,0,0,0-1.09.1c-.28-.09-.57-.23-.84-.32a10.86,10.86,0,0,0-1.26.4c-.17.24-.32.52-.5.76a8.87,8.87,0,0,0-.94.55c-.29,0-.61.05-.9.09a11.51,11.51,0,0,0-.94.91c-.05.29-.07.61-.13.9a9.15,9.15,0,0,0-.59.89c-.24.16-.53.3-.77.46a9.49,9.49,0,0,0-.47,1.23c.08.28.2.57.27.85a9.37,9.37,0,0,0-.14,1.08c-.15.25-.35.5-.5.76a9.66,9.66,0,0,0,.13,1.33c.19.22.43.43.62.65a7.27,7.27,0,0,0,.33,1c0,.29-.1.6-.12.89a9.88,9.88,0,0,0,.67,1.13c.27.12.57.2.83.32s.49.53.75.77c.11.28.19.59.29.87a11.5,11.5,0,0,0,1.09.73c.3,0,.61-.07.9-.08a8,8,0,0,0,1,.39c.21.2.41.45.62.65a9.24,9.24,0,0,0,1.3.17c.26-.14.51-.32.77-.46a7.75,7.75,0,0,0,1.09-.1c.28.09.57.23.85.32a8.67,8.67,0,0,0,1.25-.4c.18-.24.33-.52.5-.75a8,8,0,0,0,.94-.56c.29,0,.61,0,.9-.08a8.17,8.17,0,0,0,.94-.92c.06-.29.08-.61.13-.89a8.8,8.8,0,0,0,.6-.9c.24-.16.52-.29.76-.45a7.72,7.72,0,0,0,.47-1.24c-.07-.27-.19-.56-.27-.84A7.92,7.92,0,0,0,441.28,253.36Z"/><path class="cls-52" d="M452.72,379.57h.45a.65.65,0,0,1,.65.65v0a0,0,0,0,1,0,0h-1.76a0,0,0,0,1,0,0v0a.65.65,0,0,1,.65-.65Z"/><circle class="cls-46" cx="432.78" cy="252.74" r="4.42"/><circle class="cls-47" cx="432.78" cy="252.74" r="1.33"/><rect class="cls-53" width="600" height="600"/><rect class="cls-53" x="300" width="600" height="600"/></g></g></svg>