<svg xmlns="http://www.w3.org/2000/svg" viewBox="0 0 233.91 580.21"><defs><style>.cls-1,.cls-10,.cls-11,.cls-12,.cls-13,.cls-15,.cls-16,.cls-18,.cls-19,.cls-20,.cls-32,.cls-4,.cls-5,.cls-6,.cls-7,.cls-9{stroke:#000;}.cls-1,.cls-10,.cls-11,.cls-12,.cls-13,.cls-14,.cls-15,.cls-16,.cls-18,.cls-19,.cls-20,.cls-21,.cls-22,.cls-23,.cls-24,.cls-25,.cls-26,.cls-27,.cls-28,.cls-29,.cls-3,.cls-30,.cls-32,.cls-4,.cls-5,.cls-6,.cls-7,.cls-8,.cls-9{stroke-miterlimit:10;}.cls-1{stroke-width:0.19px;}.cls-10,.cls-12,.cls-2,.cls-31,.cls-7{fill:#fff;}.cls-11,.cls-13,.cls-14,.cls-15,.cls-17,.cls-21,.cls-23,.cls-25,.cls-26,.cls-27,.cls-28,.cls-29,.cls-3,.cls-30,.cls-32,.cls-4{fill:none;}.cls-14,.cls-3{stroke:#ffffde;}.cls-15,.cls-3{stroke-width:0.96px;}.cls-12,.cls-4,.cls-5{stroke-width:0.53px;}.cls-5{fill:#754c24;}.cls-16,.cls-6{stroke-width:0.34px;}.cls-7{stroke-width:0.01px;}.cls-8{fill:#ffffdc;stroke-width:0.32px;}.cls-21,.cls-23,.cls-8{stroke:#b3b3b3;}.cls-9{fill:#ccc;}.cls-10,.cls-18,.cls-28,.cls-9{stroke-width:0.35px;}.cls-11{stroke-width:0.22px;}.cls-13,.cls-14{stroke-width:0.55px;stroke-dasharray:1.27 1.27;}.cls-15{stroke-dasharray:1.28 1.28;}.cls-16{fill:#8c6239;}.cls-18{fill:#ffffde;}.cls-19{fill:#f3f3f3;stroke-width:0.19px;}.cls-20{fill:#f2f2f2;stroke-width:0.13px;}.cls-21{stroke-linecap:round;stroke-width:0.34px;}.cls-22{fill:#666;}.cls-22,.cls-24,.cls-25,.cls-26,.cls-27,.cls-28,.cls-29,.cls-30{stroke:#666;}.cls-22,.cls-23{stroke-width:0.26px;}.cls-24{fill:red;}.cls-24,.cls-30{stroke-width:0.57px;}.cls-25{stroke-width:0.5px;}.cls-26{stroke-width:0.21px;}.cls-27{stroke-width:0.28px;}.cls-29{stroke-width:0.42px;}.cls-31{font-size:6.42px;font-family:Menlo-Bold, Menlo;font-weight:700;}.cls-32{stroke-width:0.45px;}</style></defs><g id="Layer_2" data-name="Layer 2"><g id="Layer_1-2" data-name="Layer 1"><path d="M91.93,578.29a185.7,185.7,0,0,0,46.52,0c78.62-9.89,95.6-49.84,95-86-1.4-79.13-62.8-77.88-48.71-108.61,15.35-33.49,40.22-91.06-67.74-89.59-108-1.47-83.1,56.1-67.75,89.59C63.3,414.39,1.9,413.14.5,492.27-.14,528.3,15.35,568.61,91.93,578.29Z"/><rect class="cls-1" x="137.9" y="60.68" width="4.57" height="1.46"/><circle class="cls-2" cx="117.17" cy="374.52" r="26.21"/><rect class="cls-1" x="91.68" y="42.84" width="4.57" height="1.46"/><rect class="cls-1" x="92.03" y="60.75" width="4.57" height="1.46"/><rect class="cls-1" x="138.8" y="42.7" width="4.57" height="1.46"/><rect class="cls-1" x="140.2" y="24.99" width="4.57" height="1.46"/><rect class="cls-1" x="90.63" y="25.13" width="4.57" height="1.46"/><path class="cls-3" d="M91.93,578.29a185.7,185.7,0,0,0,46.52,0c78.62-9.89,95.6-49.84,95-86-1.4-79.13-62.8-77.88-48.71-108.61,15.35-33.49,40.22-91.06-67.74-89.59-108-1.47-83.1,56.1-67.75,89.59C63.3,414.39,1.9,413.14.5,492.27-.14,528.3,15.35,568.61,91.93,578.29Z"/><path class="cls-4" d="M92,577.73a185.69,185.69,0,0,0,46.34,0c78.31-9.85,95.22-49.65,94.58-85.63-1.39-78.83-62.55-77.58-48.51-108.19,15.28-33.36,40.05-90.7-67.48-89.24-107.54-1.46-82.77,55.88-67.48,89.24C63.51,414.48,2.35,413.23,1,492.06.32,527.94,15.75,568.1,92,577.73Z"/><circle class="cls-4" cx="117.17" cy="374.52" r="26.21"/><rect class="cls-5" x="72.9" y="456.92" width="87.56" height="16.17"/><path class="cls-6" d="M117.17,91h13.16l.37-1.75c1-7.4,4.94-13.81,7.31-17.11a8.37,8.37,0,0,0,1.82-5.68c-1.62-14.53-.09-35.44,2.94-51.26l0-.25a3.48,3.48,0,0,0-1.67-3.44l-16-8.22c-.6-.35-4.07-2.12-4.71-2.37a8.86,8.86,0,0,0-6.41,0c-.64.25-3.73,1.82-4.33,2.18L93.2,11.48a3.48,3.48,0,0,0-1.67,3.44l0,.25c3,15.82,4.56,36.73,2.94,51.26a8.37,8.37,0,0,0,1.82,5.68c2.37,3.3,6.29,9.71,7.31,17.11L104,91Z"/><polygon class="cls-2" points="115.7 70.84 114.31 70.84 114.31 0.24 115.7 0 115.7 70.84"/><polygon class="cls-2" points="110.54 74.28 109.15 74.28 109.17 2.95 110.54 2.23 110.54 74.28"/><polygon class="cls-2" points="113.33 73.38 111.94 73.38 111.87 1.52 113.26 0.87 113.33 73.38"/><path d="M122.66,8.34l-.14.52c-5.3-.59-17.46.56-19.31,6.83S117.78,21,117.78,21l1.14-.4s13.71-2.15,13.17-8.47"/><path class="cls-2" d="M117.17,7.53s18.4-1.31,18.5,4.23-9.25,9.1-15.58,9.68l0-.79s13.71-2.15,13.18-8.47c-.47-5.54-16-4-16-4Z"/><path class="cls-7" d="M123.79,8.4c-.14,0-20.64-1.71-22.34,7.32s17.49,5.89,17.49,5.89l0-.56s-16.42,1-14.57-5.3,14-7.42,19.31-6.83Z"/><path class="cls-2" d="M109.92,11.12l.83-.07s-1,6.06-3.76,7-2.79-1.25-1.47-2.37,6.63-1.53,7.46-2-.41.7-.41.7-6.28.9-7.19,2.44S109.15,18.79,109.92,11.12Z"/><polygon class="cls-2" points="112.01 10.7 110.06 16.91 110.75 16.77 112.77 10.77 112.01 10.7"/><rect class="cls-2" x="115.36" y="69.28" width="24.82" height="1.57"/><rect class="cls-2" x="113.19" y="71.81" width="25.87" height="1.57"/><rect class="cls-2" x="109.15" y="74.28" width="27.93" height="1.57"/><ellipse class="cls-8" cx="88.24" cy="26.04" rx="3.07" ry="4.25"/><ellipse class="cls-8" cx="146.35" cy="26.04" rx="3.07" ry="4.25"/><ellipse class="cls-8" cx="145.45" cy="43.57" rx="3.07" ry="4.25"/><ellipse class="cls-8" cx="88.94" cy="43.57" rx="3.07" ry="4.25"/><ellipse class="cls-8" cx="89.86" cy="61.79" rx="3.07" ry="4.25"/><ellipse class="cls-8" cx="144.27" cy="61.86" rx="3.07" ry="4.25"/><path class="cls-2" d="M114.65,13.61l-.1.17s-1.65-.42-2.08,1.74c-.33,1.84,1.71.94,2.82-1.86C115.29,13.66,114.85,13.45,114.65,13.61Zm-1.21,2.14c-1.34.84,0-1.62.67-1.69C114.33,14,114.44,15.14,113.44,15.75Z"/><path class="cls-2" d="M122.54,14a2.84,2.84,0,0,1-.79.67c-.25.16-.38.32-.43.06-.13-.57,1.37-1.32.45-1.92a.88.88,0,0,0-1,.55s-.2-1.08-1.46,0c0,0-.08-.58-.81-.24-.5.09-1.24,2.14-1.69,2.17s1-1.43.42-1.84a1.66,1.66,0,0,0-.66-.13c-.37,0-.38-.12-.38-.12a14,14,0,0,1-1.36,2.56c-.27.27-.09-.68.49-2.1,0,0-.44-.21-.64-.05l-.1.17s-.75,2.28-.11,2.32h0c1,.08,2.19-3.07,2.09-3.24s-.91.26-.7.54,1.09-.05.9.38c0,0-1.09,1.8-.16,1.87s1.8-2.46,2-2.36.21.23-.64,2.09l.57-.06s1.06-2.19,1.5-2.24-.77,2.21-.76,2.22l.59-.1s1.21-2.18,1.48-2.12-1,1.65-.38,2c0,0,.68.62,2.69-2.07h-.34Z"/><path class="cls-2" d="M129.45,12.85a2.89,2.89,0,0,0-.94,1.26,14.5,14.5,0,0,0,1.09-1.31l-.74,0a.1.1,0,0,0-.07,0c-.06.1-.23.37-.4.7.27-.36.47-.65.47-.65Z"/><path class="cls-2" d="M127.19,14.73c-.42,0,.84-1.93.16-2a1,1,0,0,0-1,.45h-.12s0-.81-.69-.55l-.7.65s.06-1-1.05-.59a2,2,0,0,0-1.14,1c-.27.54-.46,1.25.27,1.42,1,.23,1.87-1.37,2.68-2.14.06-.06.16,0,.13.07-.32.65-.64,1.31-.94,2h.56a.14.14,0,0,0,.08-.05c.17-.3,1.16-1.88,1.42-1.81s-1.36,1.7,0,2c.27.07.63-.14,1-.48a4.08,4.08,0,0,1,.45-1.16C128,14.05,127.44,14.73,127.19,14.73Zm-4.09,0c-.48-.06.42-1.95,1.28-1.75C124.86,13.05,123.59,14.76,123.1,14.69Z"/><path class="cls-2" d="M128.51,14.11a2.89,2.89,0,0,1,.94-1.26h-.59s-.2.29-.47.65a4.08,4.08,0,0,0-.45,1.16A6,6,0,0,0,128.51,14.11Z"/><path class="cls-2" d="M130.83,13.25v0l-.73.06a6.13,6.13,0,0,1-.87,1.22l-.39.61A8.9,8.9,0,0,0,130.83,13.25Z"/><path class="cls-2" d="M128.85,15.12c-.39.61-.77,1.22-1.14,1.84h.62a.17.17,0,0,0,.13-.07q1.13-1.84,2.37-3.63A8.9,8.9,0,0,1,128.85,15.12Z"/><path class="cls-2" d="M130.11,13.29l.73-.06v0l.28-.35-.78,0c-.37.54-.73,1.09-1.09,1.64A6.13,6.13,0,0,0,130.11,13.29Z"/><path class="cls-2" d="M128.6,14.6a.6.6,0,0,1-.09-.49,6,6,0,0,1-.57.56c-.07.36,0,.63.34.64a1.28,1.28,0,0,0,.57-.19l.39-.61C129,14.73,128.77,14.83,128.6,14.6Z"/><path class="cls-2" d="M124.43,17.31h0v0h0Z"/><circle class="cls-9" cx="85.59" cy="464.38" r="1.88"/><circle class="cls-9" cx="147.19" cy="464.56" r="1.88"/><circle class="cls-10" cx="99.7" cy="468.77" r="2.09"/><circle class="cls-10" cx="106.85" cy="468.77" r="2.09"/><circle class="cls-10" cx="119.68" cy="468.77" r="2.09"/><line class="cls-11" x1="84.71" y1="463.61" x2="86.36" y2="465.31"/><line class="cls-11" x1="148.26" y1="464.06" x2="146.12" y2="465.06"/><path class="cls-12" d="M163.2,361s-4.49-11.35,2.84-24.8a3.1,3.1,0,0,0-.37-3.61c-1.27-1.34-4.08-2.77-10.27-3.06a40.76,40.76,0,0,0-4.42.1c-2.57.16-9.39-.45-16.44-9.73a.19.19,0,0,0-.34.11l.08,32.07c8.89,5.62,11.64,14.57,11.64,22.44a30.16,30.16,0,0,1-11.72,23.67l.27,33.17a1.82,1.82,0,0,0,1.2,1.7c3.53,1.26,13.79,5.53,15.4,13.13,2,9.2,27.62,25.65,38.34,1.81C201.26,421.65,176.86,385.82,163.2,361Z"/><circle class="cls-13" cx="117.17" cy="374.52" r="26.78"/><circle class="cls-13" cx="117.17" cy="374.52" r="26.78"/><circle class="cls-14" cx="117.17" cy="374.52" r="26.78" transform="translate(-273.39 412.8) rotate(-78.23)"/><path class="cls-15" d="M91.93,578.29a185.7,185.7,0,0,0,46.52,0c78.62-9.89,95.6-49.84,95-86-1.4-79.13-62.8-77.88-48.71-108.61,15.35-33.49,40.22-91.06-67.74-89.59-108-1.47-83.1,56.1-67.75,89.59C63.3,414.39,1.9,413.14.5,492.27-.14,528.3,15.35,568.61,91.93,578.29Z"/><path class="cls-16" d="M133.27,349.67c-1.15-85.48-3.18-171-4.33-256.45H105.4c-1.16,85.48-3.18,171-4.34,256.45Z"/><path class="cls-17" d="M91.93,578.29a185.7,185.7,0,0,0,46.52,0c78.62-9.89,95.6-49.84,95-86-1.4-79.13-62.8-77.88-48.71-108.61,15.35-33.49,40.22-91.06-67.74-89.59-108-1.47-83.1,56.1-67.75,89.59C63.3,414.39,1.9,413.14.5,492.27-.14,528.3,15.35,568.61,91.93,578.29Z"/><path class="cls-4" d="M139.39,456.92a2.69,2.69,0,0,0-1.39,2.37c.1,1.16.37,7.38.49,10.38a5.46,5.46,0,0,0,1,2.94l.34.49"/><path class="cls-4" d="M93.81,456.92a2.7,2.7,0,0,1,1.4,2.37c-.11,1.16-.37,7.38-.49,10.38a5.55,5.55,0,0,1-1,2.94l-.34.49"/><rect class="cls-18" x="93.74" y="460.23" width="45.7" height="0.84" transform="translate(-10.28 2.72) rotate(-1.28)"/><polygon class="cls-19" points="130.04 93.51 104.8 93.51 104.2 90.97 130.55 90.97 130.04 93.51"/><rect class="cls-20" x="110.16" y="231.2" width="14.12" height="6.27"/><rect class="cls-20" x="110.06" y="268.21" width="14.85" height="4.18"/><rect class="cls-20" x="110.26" y="203.17" width="14.12" height="7.74"/><rect class="cls-20" x="110.06" y="171.39" width="14.43" height="9.93"/><rect class="cls-20" x="110.26" y="135.94" width="14.43" height="11.82"/><rect class="cls-20" x="110.06" y="298.75" width="14.85" height="2.93"/><rect class="cls-20" x="109.85" y="316.21" width="14.85" height="1.67"/><circle class="cls-10" cx="113.13" cy="468.77" r="2.09"/><circle class="cls-10" cx="126.27" cy="468.77" r="2.09"/><circle class="cls-10" cx="132.93" cy="468.77" r="2.09"/><line class="cls-21" x1="105.11" y1="113.46" x2="129.22" y2="113.46"/><line class="cls-21" x1="104.81" y1="132.8" x2="129.53" y2="132.8"/><line class="cls-21" x1="104.5" y1="151.1" x2="129.83" y2="151.1"/><line class="cls-21" x1="104.21" y1="168.04" x2="130.12" y2="168.04"/><line class="cls-21" x1="103.92" y1="184.14" x2="130.46" y2="184.14"/><line class="cls-21" x1="103.64" y1="199.51" x2="130.7" y2="199.51"/><line class="cls-21" x1="103.37" y1="213.94" x2="130.96" y2="213.94"/><line class="cls-21" x1="103.11" y1="227.64" x2="131.22" y2="227.64"/><line class="cls-21" x1="102.88" y1="240.5" x2="131.46" y2="240.5"/><line class="cls-21" x1="102.65" y1="252.84" x2="131.68" y2="252.84"/><line class="cls-21" x1="102.44" y1="264.45" x2="131.93" y2="264.45"/><line class="cls-21" x1="102.06" y1="285.78" x2="132.27" y2="285.78"/><line class="cls-21" x1="102.24" y1="275.43" x2="132.09" y2="275.43"/><line class="cls-21" x1="101.89" y1="295.51" x2="132.44" y2="295.51"/><line class="cls-21" x1="101.74" y1="304.5" x2="132.59" y2="304.5"/><line class="cls-21" x1="101.6" y1="313.39" x2="132.59" y2="313.39"/><line class="cls-21" x1="101.48" y1="321.23" x2="132.86" y2="321.23"/><line class="cls-21" x1="101.36" y1="329.18" x2="132.98" y2="329.18"/><line class="cls-21" x1="101.25" y1="336.5" x2="132.99" y2="336.5"/><line class="cls-21" x1="101.15" y1="343.08" x2="133.13" y2="343.08"/><circle class="cls-22" cx="102.88" cy="61.48" r="1.03"/><circle class="cls-23" cx="102.88" cy="61.48" r="2.1"/><circle class="cls-23" cx="102.88" cy="61.48" r="3.18"/><circle class="cls-22" cx="131.93" cy="61.41" r="1.03"/><circle class="cls-23" cx="131.93" cy="61.41" r="2.1"/><circle class="cls-23" cx="131.93" cy="61.41" r="3.18"/><circle class="cls-22" cx="132.96" cy="43.43" r="1.03"/><circle class="cls-23" cx="132.96" cy="43.43" r="2.1"/><circle class="cls-23" cx="132.96" cy="43.43" r="3.18"/><circle class="cls-22" cx="101.84" cy="43.43" r="1.03"/><circle class="cls-23" cx="101.84" cy="43.43" r="2.1"/><circle class="cls-23" cx="101.84" cy="43.43" r="3.18"/><circle class="cls-22" cx="100.77" cy="25.86" r="1.03"/><circle class="cls-23" cx="100.77" cy="25.86" r="2.1"/><circle class="cls-23" cx="100.77" cy="25.86" r="3.18"/><circle class="cls-22" cx="134.03" cy="25.72" r="1.03"/><circle class="cls-23" cx="134.03" cy="25.72" r="2.1"/><circle class="cls-23" cx="134.03" cy="25.72" r="3.18"/><line class="cls-24" x1="104.6" y1="60.51" x2="102.2" y2="61"/><line class="cls-25" x1="102.31" y1="43.02" x2="105.12" y2="47.26"/><line class="cls-26" x1="131.82" y1="60.65" x2="134.43" y2="60.72"/><line class="cls-27" x1="133.88" y1="43.53" x2="134.18" y2="41.36"/><line class="cls-28" x1="135.53" y1="27.04" x2="134.92" y2="25.7"/><line class="cls-29" x1="100.09" y1="25.27" x2="102.61" y2="23.05"/><polyline class="cls-30" points="99.7 466.68 107.72 90.96 102.03 61.48"/><polyline class="cls-25" points="107.11 466.69 111.95 90.94 101.06 43.43"/><polyline class="cls-29" points="113.37 467.84 116.03 90.94 99.98 25.86"/><polyline class="cls-27" points="126.27 467.83 124.32 90.96 131.93 43.43"/><polyline class="cls-28" points="119.68 466.68 120.33 90.93 133.13 25.74"/><polyline class="cls-26" points="133 467.83 127.93 90.93 130.89 61.41"/><rect x="106.5" y="27.04" width="15.38" height="7.01"/><text class="cls-31" transform="translate(106.85 32.87) scale(1.3 1)">BAX</text><circle class="cls-4" cx="177.19" cy="408.4" r="1.81"/><line class="cls-32" x1="177.18" y1="407.43" x2="177.2" y2="409.43"/><line class="cls-32" x1="178.19" y1="408.44" x2="176.19" y2="408.42"/><circle class="cls-4" cx="136.83" cy="336.5" r="1.81"/><line class="cls-32" x1="136.82" y1="335.52" x2="136.84" y2="337.52"/><line class="cls-32" x1="137.83" y1="336.53" x2="135.84" y2="336.51"/></g></g></svg>