<svg xmlns="http://www.w3.org/2000/svg" viewBox="0 0 605.55 602.03"><defs><style>.cls-1,.cls-12,.cls-13,.cls-14,.cls-15,.cls-16,.cls-17,.cls-18,.cls-19,.cls-2,.cls-3,.cls-4,.cls-7{fill:none;}.cls-12,.cls-13,.cls-14,.cls-15,.cls-16,.cls-17,.cls-2,.cls-3,.cls-4,.cls-6,.cls-7,.cls-8{stroke:#000;}.cls-11,.cls-12,.cls-13,.cls-14,.cls-15,.cls-16,.cls-17,.cls-18,.cls-19,.cls-2,.cls-3,.cls-4,.cls-6,.cls-7,.cls-8{stroke-miterlimit:10;}.cls-2,.cls-3,.cls-4,.cls-8{stroke-width:0.18px;}.cls-3{stroke-dasharray:0.7 0.7 0.7 0.7;}.cls-4{stroke-dasharray:0.7 0.7 0.7 0.7 0.7 0.7;}.cls-11,.cls-5,.cls-6,.cls-8{fill:#fff;}.cls-6,.cls-7{stroke-width:0.36px;}.cls-9{fill:#1f3d4c;}.cls-10{fill:#e51729;}.cls-11{stroke:#fff;stroke-width:1.45px;}.cls-12{stroke-width:2.21px;}.cls-13{stroke-width:0.11px;}.cls-14{stroke-width:1.11px;}.cls-15{stroke-width:0.83px;}.cls-16{stroke-width:0.55px;}.cls-17{stroke-width:0.28px;}.cls-18{stroke:#e51729;}.cls-18,.cls-19{stroke-width:0.72px;}.cls-19{stroke:#179fe5;}</style></defs><g id="Layer_2" data-name="Layer 2"><g id="Layer_1-2" data-name="Layer 1"><rect class="cls-1" x="1.49" width="600" height="600"/><rect class="cls-1" y="0.37" width="600" height="148.59"/><rect class="cls-1" x="5.55" y="453.44" width="600" height="148.59"/><line class="cls-2" x1="408.22" y1="302.56" x2="408.22" y2="302.2"/><line class="cls-3" x1="408.22" y1="301.52" x2="408.22" y2="299.08"/><line class="cls-4" x1="408.22" y1="298.73" x2="408.22" y2="203.23"/><line class="cls-2" x1="408.22" y1="202.88" x2="408.22" y2="202.53"/><line class="cls-2" x1="408.22" y1="302.56" x2="408.22" y2="302.2"/><line class="cls-3" x1="408.22" y1="301.52" x2="408.22" y2="299.08"/><line class="cls-4" x1="408.22" y1="298.73" x2="408.22" y2="203.23"/><line class="cls-2" x1="408.22" y1="202.88" x2="408.22" y2="202.53"/><line class="cls-2" x1="409.67" y1="302.56" x2="409.67" y2="302.2"/><line class="cls-3" x1="409.67" y1="301.52" x2="409.67" y2="299.08"/><line class="cls-4" x1="409.67" y1="298.73" x2="409.67" y2="203.23"/><line class="cls-2" x1="409.67" y1="202.88" x2="409.67" y2="202.53"/><line class="cls-2" x1="411.12" y1="302.56" x2="411.12" y2="302.2"/><line class="cls-3" x1="411.12" y1="301.52" x2="411.12" y2="299.08"/><line class="cls-4" x1="411.12" y1="298.73" x2="411.12" y2="203.23"/><line class="cls-2" x1="411.12" y1="202.88" x2="411.12" y2="202.53"/><line class="cls-2" x1="431.42" y1="302.56" x2="431.42" y2="302.2"/><line class="cls-3" x1="431.42" y1="301.52" x2="431.42" y2="299.08"/><line class="cls-4" x1="431.42" y1="298.73" x2="431.42" y2="203.23"/><line class="cls-2" x1="431.42" y1="202.88" x2="431.42" y2="202.53"/><rect class="cls-5" x="389.99" y="201.61" width="134.47" height="102.38"/><path d="M524.26,201.8v102H390.18v-102H524.26m.39-.38H389.79V304.19H524.65V201.42Z"/><polygon class="cls-6" points="389.73 201.42 393.49 202.67 393.72 302.66 389.73 304.19 389.73 201.42"/><line class="cls-7" x1="393.72" y1="302.66" x2="524.65" y2="302.6"/><line class="cls-7" x1="393.48" y1="202.67" x2="524.65" y2="202.68"/><rect class="cls-5" x="407.92" y="202.76" width="3.51" height="99.81"/><path d="M411.33,202.85v99.63H408V202.85h3.33m.18-.18h-3.69v100h3.69v-100Z"/><path class="cls-8" d="M409.67,299.38s-1.84.16-1.84,3.28h3.69C411.52,299.54,409.67,299.38,409.67,299.38Z"/><polyline class="cls-8" points="409.4 302.66 409.4 303.24 409.67 303.24"/><polyline class="cls-8" points="409.67 303.24 409.95 303.24 409.95 302.66"/><path class="cls-8" d="M409.69,206s1.84-.16,1.84-3.28h-3.69C407.84,205.79,409.69,206,409.69,206Z"/><polyline class="cls-8" points="409.96 202.67 409.96 202.09 409.68 202.09"/><polyline class="cls-8" points="409.68 202.09 409.41 202.09 409.41 202.67"/><rect class="cls-5" x="430.69" y="202.76" width="3.51" height="99.81"/><path d="M434.11,202.85v99.63h-3.33V202.85h3.33m.18-.18h-3.68v100h3.68v-100Z"/><path class="cls-8" d="M432.45,299.38s-1.84.16-1.84,3.28h3.69C434.3,299.54,432.45,299.38,432.45,299.38Z"/><polyline class="cls-8" points="432.19 302.66 432.19 303.24 432.45 303.24"/><polyline class="cls-8" points="432.45 303.24 432.72 303.24 432.72 302.66"/><path class="cls-8" d="M432.46,206s1.85-.16,1.85-3.28h-3.7C430.61,205.79,432.46,206,432.46,206Z"/><polyline class="cls-8" points="432.73 202.67 432.73 202.09 432.46 202.09"/><polyline class="cls-8" points="432.46 202.09 432.19 202.09 432.19 202.67"/><rect class="cls-5" x="456" y="202.76" width="3.51" height="99.81"/><path d="M459.42,202.85v99.63h-3.33V202.85h3.33m.18-.18H456v100h3.68v-100Z"/><path class="cls-8" d="M457.73,299.38s-1.84.16-1.84,3.28h3.69C459.6,299.54,457.73,299.38,457.73,299.38Z"/><polyline class="cls-8" points="457.48 302.66 457.48 303.24 457.75 303.24"/><polyline class="cls-8" points="457.75 303.24 458.03 303.24 458.03 302.66"/><path class="cls-8" d="M457.73,206s1.85-.16,1.85-3.28H456C456,205.79,457.73,206,457.73,206Z"/><polyline class="cls-8" points="458.04 202.67 458.04 202.09 457.76 202.09"/><polyline class="cls-8" points="457.76 202.09 457.49 202.09 457.49 202.67"/><rect class="cls-5" x="481.61" y="202.61" width="3.51" height="99.81"/><path d="M485,202.69v99.64h-3.32V202.69H485m.18-.17h-3.69v100h3.69Z"/><path class="cls-8" d="M483.37,299.22s-1.85.17-1.85,3.29h3.69C485.21,299.39,483.37,299.22,483.37,299.22Z"/><polyline class="cls-8" points="483.1 302.51 483.1 303.09 483.37 303.09"/><polyline class="cls-8" points="483.37 303.09 483.63 303.09 483.63 302.51"/><path class="cls-8" d="M483.38,205.8s1.84-.16,1.84-3.28h-3.69C481.53,205.64,483.38,205.8,483.38,205.8Z"/><polyline class="cls-8" points="483.64 202.52 483.64 201.94 483.38 201.94"/><polyline class="cls-8" points="483.38 201.94 483.11 201.94 483.11 202.52"/><rect class="cls-5" x="507.23" y="202.61" width="3.51" height="99.81"/><path d="M510.65,202.69v99.64h-3.33V202.69h3.33m.17-.17h-3.68v100h3.68Z"/><path class="cls-8" d="M509,299.22s-1.85.17-1.85,3.29h3.68C510.82,299.39,509,299.22,509,299.22Z"/><polyline class="cls-8" points="508.71 302.51 508.71 303.09 508.99 303.09"/><polyline class="cls-8" points="508.99 303.09 509.25 303.09 509.25 302.51"/><path class="cls-8" d="M509,205.8s1.84-.16,1.84-3.28h-3.68C507.15,205.64,509,205.8,509,205.8Z"/><polyline class="cls-8" points="509.26 202.52 509.26 201.94 508.99 201.94"/><polyline class="cls-8" points="508.99 201.94 508.72 201.94 508.72 202.52"/><line class="cls-2" x1="393.41" y1="302.72" x2="393.41" y2="302.36"/><line class="cls-3" x1="393.41" y1="301.67" x2="393.41" y2="299.24"/><line class="cls-4" x1="393.41" y1="298.89" x2="393.41" y2="203.39"/><line class="cls-2" x1="393.41" y1="203.04" x2="393.41" y2="202.69"/><line class="cls-2" x1="394.86" y1="302.72" x2="394.86" y2="302.36"/><line class="cls-3" x1="394.86" y1="301.67" x2="394.86" y2="299.24"/><line class="cls-4" x1="394.86" y1="298.89" x2="394.86" y2="203.39"/><line class="cls-2" x1="394.86" y1="203.04" x2="394.86" y2="202.69"/><line class="cls-2" x1="396.31" y1="302.72" x2="396.31" y2="302.36"/><line class="cls-3" x1="396.31" y1="301.67" x2="396.31" y2="299.24"/><line class="cls-4" x1="396.31" y1="298.89" x2="396.31" y2="203.39"/><line class="cls-2" x1="396.31" y1="203.04" x2="396.31" y2="202.69"/><line class="cls-2" x1="397.76" y1="302.72" x2="397.76" y2="302.36"/><line class="cls-3" x1="397.76" y1="301.67" x2="397.76" y2="299.24"/><line class="cls-4" x1="397.76" y1="298.89" x2="397.76" y2="203.39"/><line class="cls-2" x1="397.76" y1="203.04" x2="397.76" y2="202.69"/><line class="cls-2" x1="399.21" y1="302.72" x2="399.21" y2="302.36"/><line class="cls-3" x1="399.21" y1="301.67" x2="399.21" y2="299.24"/><line class="cls-4" x1="399.21" y1="298.89" x2="399.21" y2="203.39"/><line class="cls-2" x1="399.21" y1="203.04" x2="399.21" y2="202.69"/><line class="cls-2" x1="400.66" y1="302.72" x2="400.66" y2="302.36"/><line class="cls-3" x1="400.66" y1="301.67" x2="400.66" y2="299.24"/><line class="cls-4" x1="400.66" y1="298.89" x2="400.66" y2="203.39"/><line class="cls-2" x1="400.66" y1="203.04" x2="400.66" y2="202.69"/><line class="cls-2" x1="402.11" y1="302.72" x2="402.11" y2="302.36"/><line class="cls-3" x1="402.11" y1="301.67" x2="402.11" y2="299.24"/><line class="cls-4" x1="402.11" y1="298.89" x2="402.11" y2="203.39"/><line class="cls-2" x1="402.11" y1="203.04" x2="402.11" y2="202.69"/><line class="cls-2" x1="403.56" y1="302.72" x2="403.56" y2="302.36"/><line class="cls-3" x1="403.56" y1="301.67" x2="403.56" y2="299.24"/><line class="cls-4" x1="403.56" y1="298.89" x2="403.56" y2="203.39"/><line class="cls-2" x1="403.56" y1="203.04" x2="403.56" y2="202.69"/><line class="cls-2" x1="405.01" y1="302.72" x2="405.01" y2="302.36"/><line class="cls-3" x1="405.01" y1="301.67" x2="405.01" y2="299.24"/><line class="cls-4" x1="405.01" y1="298.89" x2="405.01" y2="203.39"/><line class="cls-2" x1="405.01" y1="203.04" x2="405.01" y2="202.69"/><line class="cls-2" x1="406.46" y1="302.72" x2="406.46" y2="302.36"/><line class="cls-3" x1="406.46" y1="301.67" x2="406.46" y2="299.24"/><line class="cls-4" x1="406.46" y1="298.89" x2="406.46" y2="203.39"/><line class="cls-2" x1="406.46" y1="203.04" x2="406.46" y2="202.69"/><line class="cls-2" x1="407.91" y1="302.72" x2="407.91" y2="302.36"/><line class="cls-3" x1="407.91" y1="301.67" x2="407.91" y2="299.24"/><line class="cls-4" x1="407.91" y1="298.89" x2="407.91" y2="203.39"/><line class="cls-2" x1="407.91" y1="203.04" x2="407.91" y2="202.69"/><line class="cls-2" x1="407.91" y1="302.72" x2="407.91" y2="302.36"/><line class="cls-3" x1="407.91" y1="301.67" x2="407.91" y2="299.24"/><line class="cls-4" x1="407.91" y1="298.89" x2="407.91" y2="203.39"/><line class="cls-2" x1="407.91" y1="203.04" x2="407.91" y2="202.69"/><line class="cls-2" x1="409.36" y1="302.72" x2="409.36" y2="302.36"/><line class="cls-3" x1="409.36" y1="301.67" x2="409.36" y2="299.24"/><line class="cls-4" x1="409.36" y1="298.89" x2="409.36" y2="203.39"/><line class="cls-2" x1="409.36" y1="203.04" x2="409.36" y2="202.69"/><line class="cls-2" x1="410.81" y1="302.72" x2="410.81" y2="302.36"/><line class="cls-3" x1="410.81" y1="301.67" x2="410.81" y2="299.24"/><line class="cls-4" x1="410.81" y1="298.89" x2="410.81" y2="203.39"/><line class="cls-2" x1="410.81" y1="203.04" x2="410.81" y2="202.69"/><line class="cls-2" x1="412.26" y1="302.72" x2="412.26" y2="302.36"/><line class="cls-3" x1="412.26" y1="301.67" x2="412.26" y2="299.24"/><line class="cls-4" x1="412.26" y1="298.89" x2="412.26" y2="203.39"/><line class="cls-2" x1="412.26" y1="203.04" x2="412.26" y2="202.69"/><line class="cls-2" x1="413.71" y1="302.72" x2="413.71" y2="302.36"/><line class="cls-3" x1="413.71" y1="301.67" x2="413.71" y2="299.24"/><line class="cls-4" x1="413.71" y1="298.89" x2="413.71" y2="203.39"/><line class="cls-2" x1="413.71" y1="203.04" x2="413.71" y2="202.69"/><line class="cls-2" x1="415.16" y1="302.72" x2="415.16" y2="302.36"/><line class="cls-3" x1="415.16" y1="301.67" x2="415.16" y2="299.24"/><line class="cls-4" x1="415.16" y1="298.89" x2="415.16" y2="203.39"/><line class="cls-2" x1="415.16" y1="203.04" x2="415.16" y2="202.69"/><line class="cls-2" x1="416.61" y1="302.72" x2="416.61" y2="302.36"/><line class="cls-3" x1="416.61" y1="301.67" x2="416.61" y2="299.24"/><line class="cls-4" x1="416.61" y1="298.89" x2="416.61" y2="203.39"/><line class="cls-2" x1="416.61" y1="203.04" x2="416.61" y2="202.69"/><line class="cls-2" x1="418.06" y1="302.72" x2="418.06" y2="302.36"/><line class="cls-3" x1="418.06" y1="301.67" x2="418.06" y2="299.24"/><line class="cls-4" x1="418.06" y1="298.89" x2="418.06" y2="203.39"/><line class="cls-2" x1="418.06" y1="203.04" x2="418.06" y2="202.69"/><line class="cls-2" x1="419.51" y1="302.72" x2="419.51" y2="302.36"/><line class="cls-3" x1="419.51" y1="301.67" x2="419.51" y2="299.24"/><line class="cls-4" x1="419.51" y1="298.89" x2="419.51" y2="203.39"/><line class="cls-2" x1="419.51" y1="203.04" x2="419.51" y2="202.69"/><line class="cls-2" x1="420.96" y1="302.72" x2="420.96" y2="302.36"/><line class="cls-3" x1="420.96" y1="301.67" x2="420.96" y2="299.24"/><line class="cls-4" x1="420.96" y1="298.89" x2="420.96" y2="203.39"/><line class="cls-2" x1="420.96" y1="203.04" x2="420.96" y2="202.69"/><line class="cls-2" x1="422.41" y1="302.72" x2="422.41" y2="302.36"/><line class="cls-3" x1="422.41" y1="301.67" x2="422.41" y2="299.24"/><line class="cls-4" x1="422.41" y1="298.89" x2="422.41" y2="203.39"/><line class="cls-2" x1="422.41" y1="203.04" x2="422.41" y2="202.69"/><line class="cls-2" x1="422.41" y1="302.72" x2="422.41" y2="302.36"/><line class="cls-3" x1="422.41" y1="301.67" x2="422.41" y2="299.24"/><line class="cls-4" x1="422.41" y1="298.89" x2="422.41" y2="203.39"/><line class="cls-2" x1="422.41" y1="203.04" x2="422.41" y2="202.69"/><line class="cls-2" x1="423.85" y1="302.72" x2="423.85" y2="302.36"/><line class="cls-3" x1="423.85" y1="301.67" x2="423.85" y2="299.24"/><line class="cls-4" x1="423.85" y1="298.89" x2="423.85" y2="203.39"/><line class="cls-2" x1="423.85" y1="203.04" x2="423.85" y2="202.69"/><line class="cls-2" x1="425.31" y1="302.72" x2="425.31" y2="302.36"/><line class="cls-3" x1="425.31" y1="301.67" x2="425.31" y2="299.24"/><line class="cls-4" x1="425.31" y1="298.89" x2="425.31" y2="203.39"/><line class="cls-2" x1="425.31" y1="203.04" x2="425.31" y2="202.69"/><line class="cls-2" x1="426.75" y1="302.72" x2="426.75" y2="302.36"/><line class="cls-3" x1="426.75" y1="301.67" x2="426.75" y2="299.24"/><line class="cls-4" x1="426.75" y1="298.89" x2="426.75" y2="203.39"/><line class="cls-2" x1="426.75" y1="203.04" x2="426.75" y2="202.69"/><line class="cls-2" x1="428.21" y1="302.72" x2="428.21" y2="302.36"/><line class="cls-3" x1="428.21" y1="301.67" x2="428.21" y2="299.24"/><line class="cls-4" x1="428.21" y1="298.89" x2="428.21" y2="203.39"/><line class="cls-2" x1="428.21" y1="203.04" x2="428.21" y2="202.69"/><line class="cls-2" x1="429.65" y1="302.72" x2="429.65" y2="302.36"/><line class="cls-3" x1="429.65" y1="301.67" x2="429.65" y2="299.24"/><line class="cls-4" x1="429.65" y1="298.89" x2="429.65" y2="203.39"/><line class="cls-2" x1="429.65" y1="203.04" x2="429.65" y2="202.69"/><line class="cls-2" x1="431.11" y1="302.72" x2="431.11" y2="302.36"/><line class="cls-3" x1="431.11" y1="301.67" x2="431.11" y2="299.24"/><line class="cls-4" x1="431.11" y1="298.89" x2="431.11" y2="203.39"/><line class="cls-2" x1="431.11" y1="203.04" x2="431.11" y2="202.69"/><line class="cls-2" x1="431.71" y1="302.72" x2="431.71" y2="302.36"/><line class="cls-3" x1="431.71" y1="301.67" x2="431.71" y2="299.24"/><line class="cls-4" x1="431.71" y1="298.89" x2="431.71" y2="203.39"/><line class="cls-2" x1="431.71" y1="203.04" x2="431.71" y2="202.69"/><line class="cls-2" x1="433.17" y1="302.72" x2="433.17" y2="302.36"/><line class="cls-3" x1="433.17" y1="301.67" x2="433.17" y2="299.24"/><line class="cls-4" x1="433.17" y1="298.89" x2="433.17" y2="203.39"/><line class="cls-2" x1="433.17" y1="203.04" x2="433.17" y2="202.69"/><line class="cls-2" x1="434.61" y1="302.72" x2="434.61" y2="302.36"/><line class="cls-3" x1="434.61" y1="301.67" x2="434.61" y2="299.24"/><line class="cls-4" x1="434.61" y1="298.89" x2="434.61" y2="203.39"/><line class="cls-2" x1="434.61" y1="203.04" x2="434.61" y2="202.69"/><line class="cls-2" x1="436.07" y1="302.72" x2="436.07" y2="302.36"/><line class="cls-3" x1="436.07" y1="301.67" x2="436.07" y2="299.24"/><line class="cls-4" x1="436.07" y1="298.89" x2="436.07" y2="203.39"/><line class="cls-2" x1="436.07" y1="203.04" x2="436.07" y2="202.69"/><line class="cls-2" x1="437.51" y1="302.72" x2="437.51" y2="302.36"/><line class="cls-3" x1="437.51" y1="301.67" x2="437.51" y2="299.24"/><line class="cls-4" x1="437.51" y1="298.89" x2="437.51" y2="203.39"/><line class="cls-2" x1="437.51" y1="203.04" x2="437.51" y2="202.69"/><line class="cls-2" x1="438.97" y1="302.72" x2="438.97" y2="302.36"/><line class="cls-3" x1="438.97" y1="301.67" x2="438.97" y2="299.24"/><line class="cls-4" x1="438.97" y1="298.89" x2="438.97" y2="203.39"/><line class="cls-2" x1="438.97" y1="203.04" x2="438.97" y2="202.69"/><line class="cls-2" x1="440.41" y1="302.72" x2="440.41" y2="302.36"/><line class="cls-3" x1="440.41" y1="301.67" x2="440.41" y2="299.24"/><line class="cls-4" x1="440.41" y1="298.89" x2="440.41" y2="203.39"/><line class="cls-2" x1="440.41" y1="203.04" x2="440.41" y2="202.69"/><line class="cls-2" x1="441.87" y1="302.72" x2="441.87" y2="302.36"/><line class="cls-3" x1="441.87" y1="301.67" x2="441.87" y2="299.24"/><line class="cls-4" x1="441.87" y1="298.89" x2="441.87" y2="203.39"/><line class="cls-2" x1="441.87" y1="203.04" x2="441.87" y2="202.69"/><line class="cls-2" x1="443.31" y1="302.72" x2="443.31" y2="302.36"/><line class="cls-3" x1="443.31" y1="301.67" x2="443.31" y2="299.24"/><line class="cls-4" x1="443.31" y1="298.89" x2="443.31" y2="203.39"/><line class="cls-2" x1="443.31" y1="203.04" x2="443.31" y2="202.69"/><line class="cls-2" x1="444.77" y1="302.72" x2="444.77" y2="302.36"/><line class="cls-3" x1="444.77" y1="301.67" x2="444.77" y2="299.24"/><line class="cls-4" x1="444.77" y1="298.89" x2="444.77" y2="203.39"/><line class="cls-2" x1="444.77" y1="203.04" x2="444.77" y2="202.69"/><line class="cls-2" x1="446.21" y1="302.72" x2="446.21" y2="302.36"/><line class="cls-3" x1="446.21" y1="301.67" x2="446.21" y2="299.24"/><line class="cls-4" x1="446.21" y1="298.89" x2="446.21" y2="203.39"/><line class="cls-2" x1="446.21" y1="203.04" x2="446.21" y2="202.69"/><line class="cls-2" x1="446.21" y1="302.72" x2="446.21" y2="302.36"/><line class="cls-3" x1="446.21" y1="301.67" x2="446.21" y2="299.24"/><line class="cls-4" x1="446.21" y1="298.89" x2="446.21" y2="203.39"/><line class="cls-2" x1="446.21" y1="203.04" x2="446.21" y2="202.69"/><line class="cls-2" x1="447.67" y1="302.72" x2="447.67" y2="302.36"/><line class="cls-3" x1="447.67" y1="301.67" x2="447.67" y2="299.24"/><line class="cls-4" x1="447.67" y1="298.89" x2="447.67" y2="203.39"/><line class="cls-2" x1="447.67" y1="203.04" x2="447.67" y2="202.69"/><line class="cls-2" x1="449.11" y1="302.72" x2="449.11" y2="302.36"/><line class="cls-3" x1="449.11" y1="301.67" x2="449.11" y2="299.24"/><line class="cls-4" x1="449.11" y1="298.89" x2="449.11" y2="203.39"/><line class="cls-2" x1="449.11" y1="203.04" x2="449.11" y2="202.69"/><line class="cls-2" x1="450.57" y1="302.72" x2="450.57" y2="302.36"/><line class="cls-3" x1="450.57" y1="301.67" x2="450.57" y2="299.24"/><line class="cls-4" x1="450.57" y1="298.89" x2="450.57" y2="203.39"/><line class="cls-2" x1="450.57" y1="203.04" x2="450.57" y2="202.69"/><line class="cls-2" x1="452.01" y1="302.72" x2="452.01" y2="302.36"/><line class="cls-3" x1="452.01" y1="301.67" x2="452.01" y2="299.24"/><line class="cls-4" x1="452.01" y1="298.89" x2="452.01" y2="203.39"/><line class="cls-2" x1="452.01" y1="203.04" x2="452.01" y2="202.69"/><line class="cls-2" x1="453.46" y1="302.72" x2="453.46" y2="302.36"/><line class="cls-3" x1="453.46" y1="301.67" x2="453.46" y2="299.24"/><line class="cls-4" x1="453.46" y1="298.89" x2="453.46" y2="203.39"/><line class="cls-2" x1="453.46" y1="203.04" x2="453.46" y2="202.69"/><line class="cls-2" x1="454.91" y1="302.72" x2="454.91" y2="302.36"/><line class="cls-3" x1="454.91" y1="301.67" x2="454.91" y2="299.24"/><line class="cls-4" x1="454.91" y1="298.89" x2="454.91" y2="203.39"/><line class="cls-2" x1="454.91" y1="203.04" x2="454.91" y2="202.69"/><line class="cls-2" x1="456.36" y1="302.72" x2="456.36" y2="302.36"/><line class="cls-3" x1="456.36" y1="301.67" x2="456.36" y2="299.24"/><line class="cls-4" x1="456.36" y1="298.89" x2="456.36" y2="203.39"/><line class="cls-2" x1="456.36" y1="203.04" x2="456.36" y2="202.69"/><line class="cls-2" x1="457.81" y1="302.72" x2="457.81" y2="302.36"/><line class="cls-3" x1="457.81" y1="301.67" x2="457.81" y2="299.24"/><line class="cls-4" x1="457.81" y1="298.89" x2="457.81" y2="203.39"/><line class="cls-2" x1="457.81" y1="203.04" x2="457.81" y2="202.69"/><line class="cls-2" x1="459.26" y1="302.72" x2="459.26" y2="302.36"/><line class="cls-3" x1="459.26" y1="301.67" x2="459.26" y2="299.24"/><line class="cls-4" x1="459.26" y1="298.89" x2="459.26" y2="203.39"/><line class="cls-2" x1="459.26" y1="203.04" x2="459.26" y2="202.69"/><line class="cls-2" x1="460.71" y1="302.72" x2="460.71" y2="302.36"/><line class="cls-3" x1="460.71" y1="301.67" x2="460.71" y2="299.24"/><line class="cls-4" x1="460.71" y1="298.89" x2="460.71" y2="203.39"/><line class="cls-2" x1="460.71" y1="203.04" x2="460.71" y2="202.69"/><line class="cls-2" x1="460.71" y1="302.72" x2="460.71" y2="302.36"/><line class="cls-3" x1="460.71" y1="301.67" x2="460.71" y2="299.24"/><line class="cls-4" x1="460.71" y1="298.89" x2="460.71" y2="203.39"/><line class="cls-2" x1="460.71" y1="203.04" x2="460.71" y2="202.69"/><line class="cls-2" x1="462.16" y1="302.72" x2="462.16" y2="302.36"/><line class="cls-3" x1="462.16" y1="301.67" x2="462.16" y2="299.24"/><line class="cls-4" x1="462.16" y1="298.89" x2="462.16" y2="203.39"/><line class="cls-2" x1="462.16" y1="203.04" x2="462.16" y2="202.69"/><line class="cls-2" x1="463.61" y1="302.72" x2="463.61" y2="302.36"/><line class="cls-3" x1="463.61" y1="301.67" x2="463.61" y2="299.24"/><line class="cls-4" x1="463.61" y1="298.89" x2="463.61" y2="203.39"/><line class="cls-2" x1="463.61" y1="203.04" x2="463.61" y2="202.69"/><line class="cls-2" x1="465.06" y1="302.72" x2="465.06" y2="302.36"/><line class="cls-3" x1="465.06" y1="301.67" x2="465.06" y2="299.24"/><line class="cls-4" x1="465.06" y1="298.89" x2="465.06" y2="203.39"/><line class="cls-2" x1="465.06" y1="203.04" x2="465.06" y2="202.69"/><line class="cls-2" x1="466.51" y1="302.72" x2="466.51" y2="302.36"/><line class="cls-3" x1="466.51" y1="301.67" x2="466.51" y2="299.24"/><line class="cls-4" x1="466.51" y1="298.89" x2="466.51" y2="203.39"/><line class="cls-2" x1="466.51" y1="203.04" x2="466.51" y2="202.69"/><line class="cls-2" x1="467.96" y1="302.72" x2="467.96" y2="302.36"/><line class="cls-3" x1="467.96" y1="301.67" x2="467.96" y2="299.24"/><line class="cls-4" x1="467.96" y1="298.89" x2="467.96" y2="203.39"/><line class="cls-2" x1="467.96" y1="203.04" x2="467.96" y2="202.69"/><line class="cls-2" x1="469.41" y1="302.72" x2="469.41" y2="302.36"/><line class="cls-3" x1="469.41" y1="301.67" x2="469.41" y2="299.24"/><line class="cls-4" x1="469.41" y1="298.89" x2="469.41" y2="203.39"/><line class="cls-2" x1="469.41" y1="203.04" x2="469.41" y2="202.69"/><line class="cls-2" x1="470.74" y1="302.72" x2="470.74" y2="302.36"/><line class="cls-3" x1="470.74" y1="301.67" x2="470.74" y2="299.24"/><line class="cls-4" x1="470.74" y1="298.89" x2="470.74" y2="203.39"/><line class="cls-2" x1="470.74" y1="203.04" x2="470.74" y2="202.69"/><line class="cls-2" x1="472.19" y1="302.72" x2="472.19" y2="302.36"/><line class="cls-3" x1="472.19" y1="301.67" x2="472.19" y2="299.24"/><line class="cls-4" x1="472.19" y1="298.89" x2="472.19" y2="203.39"/><line class="cls-2" x1="472.19" y1="203.04" x2="472.19" y2="202.69"/><line class="cls-2" x1="473.64" y1="302.72" x2="473.64" y2="302.36"/><line class="cls-3" x1="473.64" y1="301.67" x2="473.64" y2="299.24"/><line class="cls-4" x1="473.64" y1="298.89" x2="473.64" y2="203.39"/><line class="cls-2" x1="473.64" y1="203.04" x2="473.64" y2="202.69"/><line class="cls-2" x1="475.09" y1="302.72" x2="475.09" y2="302.36"/><line class="cls-3" x1="475.09" y1="301.67" x2="475.09" y2="299.24"/><line class="cls-4" x1="475.09" y1="298.89" x2="475.09" y2="203.39"/><line class="cls-2" x1="475.09" y1="203.04" x2="475.09" y2="202.69"/><line class="cls-2" x1="476.54" y1="302.72" x2="476.54" y2="302.36"/><line class="cls-3" x1="476.54" y1="301.67" x2="476.54" y2="299.24"/><line class="cls-4" x1="476.54" y1="298.89" x2="476.54" y2="203.39"/><line class="cls-2" x1="476.54" y1="203.04" x2="476.54" y2="202.69"/><line class="cls-2" x1="477.99" y1="302.72" x2="477.99" y2="302.36"/><line class="cls-3" x1="477.99" y1="301.67" x2="477.99" y2="299.24"/><line class="cls-4" x1="477.99" y1="298.89" x2="477.99" y2="203.39"/><line class="cls-2" x1="477.99" y1="203.04" x2="477.99" y2="202.69"/><line class="cls-2" x1="479.44" y1="302.72" x2="479.44" y2="302.36"/><line class="cls-3" x1="479.44" y1="301.67" x2="479.44" y2="299.24"/><line class="cls-4" x1="479.44" y1="298.89" x2="479.44" y2="203.39"/><line class="cls-2" x1="479.44" y1="203.04" x2="479.44" y2="202.69"/><line class="cls-2" x1="480.89" y1="302.72" x2="480.89" y2="302.36"/><line class="cls-3" x1="480.89" y1="301.67" x2="480.89" y2="299.24"/><line class="cls-4" x1="480.89" y1="298.89" x2="480.89" y2="203.39"/><line class="cls-2" x1="480.89" y1="203.04" x2="480.89" y2="202.69"/><line class="cls-2" x1="482.34" y1="302.72" x2="482.34" y2="302.36"/><line class="cls-3" x1="482.34" y1="301.67" x2="482.34" y2="299.24"/><line class="cls-4" x1="482.34" y1="298.89" x2="482.34" y2="203.39"/><line class="cls-2" x1="482.34" y1="203.04" x2="482.34" y2="202.69"/><line class="cls-2" x1="483.79" y1="302.72" x2="483.79" y2="302.36"/><line class="cls-3" x1="483.79" y1="301.67" x2="483.79" y2="299.24"/><line class="cls-4" x1="483.79" y1="298.89" x2="483.79" y2="203.39"/><line class="cls-2" x1="483.79" y1="203.04" x2="483.79" y2="202.69"/><line class="cls-2" x1="485.24" y1="302.72" x2="485.24" y2="302.36"/><line class="cls-3" x1="485.24" y1="301.67" x2="485.24" y2="299.24"/><line class="cls-4" x1="485.24" y1="298.89" x2="485.24" y2="203.39"/><line class="cls-2" x1="485.24" y1="203.04" x2="485.24" y2="202.69"/><line class="cls-2" x1="485.24" y1="302.72" x2="485.24" y2="302.36"/><line class="cls-3" x1="485.24" y1="301.67" x2="485.24" y2="299.24"/><line class="cls-4" x1="485.24" y1="298.89" x2="485.24" y2="203.39"/><line class="cls-2" x1="485.24" y1="203.04" x2="485.24" y2="202.69"/><line class="cls-2" x1="486.69" y1="302.72" x2="486.69" y2="302.36"/><line class="cls-3" x1="486.69" y1="301.67" x2="486.69" y2="299.24"/><line class="cls-4" x1="486.69" y1="298.89" x2="486.69" y2="203.39"/><line class="cls-2" x1="486.69" y1="203.04" x2="486.69" y2="202.69"/><line class="cls-2" x1="488.13" y1="302.72" x2="488.13" y2="302.36"/><line class="cls-3" x1="488.13" y1="301.67" x2="488.13" y2="299.24"/><line class="cls-4" x1="488.13" y1="298.89" x2="488.13" y2="203.39"/><line class="cls-2" x1="488.13" y1="203.04" x2="488.13" y2="202.69"/><line class="cls-2" x1="489.59" y1="302.72" x2="489.59" y2="302.36"/><line class="cls-3" x1="489.59" y1="301.67" x2="489.59" y2="299.24"/><line class="cls-4" x1="489.59" y1="298.89" x2="489.59" y2="203.39"/><line class="cls-2" x1="489.59" y1="203.04" x2="489.59" y2="202.69"/><line class="cls-2" x1="491.03" y1="302.72" x2="491.03" y2="302.36"/><line class="cls-3" x1="491.03" y1="301.67" x2="491.03" y2="299.24"/><line class="cls-4" x1="491.03" y1="298.89" x2="491.03" y2="203.39"/><line class="cls-2" x1="491.03" y1="203.04" x2="491.03" y2="202.69"/><line class="cls-2" x1="492.49" y1="302.72" x2="492.49" y2="302.36"/><line class="cls-3" x1="492.49" y1="301.67" x2="492.49" y2="299.24"/><line class="cls-4" x1="492.49" y1="298.89" x2="492.49" y2="203.39"/><line class="cls-2" x1="492.49" y1="203.04" x2="492.49" y2="202.69"/><line class="cls-2" x1="493.93" y1="302.72" x2="493.93" y2="302.36"/><line class="cls-3" x1="493.93" y1="301.67" x2="493.93" y2="299.24"/><line class="cls-4" x1="493.93" y1="298.89" x2="493.93" y2="203.39"/><line class="cls-2" x1="493.93" y1="203.04" x2="493.93" y2="202.69"/><line class="cls-2" x1="495.39" y1="302.72" x2="495.39" y2="302.36"/><line class="cls-3" x1="495.39" y1="301.67" x2="495.39" y2="299.24"/><line class="cls-4" x1="495.39" y1="298.89" x2="495.39" y2="203.39"/><line class="cls-2" x1="495.39" y1="203.04" x2="495.39" y2="202.69"/><line class="cls-2" x1="496.83" y1="302.72" x2="496.83" y2="302.36"/><line class="cls-3" x1="496.83" y1="301.67" x2="496.83" y2="299.24"/><line class="cls-4" x1="496.83" y1="298.89" x2="496.83" y2="203.39"/><line class="cls-2" x1="496.83" y1="203.04" x2="496.83" y2="202.69"/><line class="cls-2" x1="498.29" y1="302.72" x2="498.29" y2="302.36"/><line class="cls-3" x1="498.29" y1="301.67" x2="498.29" y2="299.24"/><line class="cls-4" x1="498.29" y1="298.89" x2="498.29" y2="203.39"/><line class="cls-2" x1="498.29" y1="203.04" x2="498.29" y2="202.69"/><line class="cls-2" x1="499.73" y1="302.72" x2="499.73" y2="302.36"/><line class="cls-3" x1="499.73" y1="301.67" x2="499.73" y2="299.24"/><line class="cls-4" x1="499.73" y1="298.89" x2="499.73" y2="203.39"/><line class="cls-2" x1="499.73" y1="203.04" x2="499.73" y2="202.69"/><line class="cls-2" x1="499.73" y1="302.72" x2="499.73" y2="302.36"/><line class="cls-3" x1="499.73" y1="301.67" x2="499.73" y2="299.24"/><line class="cls-4" x1="499.73" y1="298.89" x2="499.73" y2="203.39"/><line class="cls-2" x1="499.73" y1="203.04" x2="499.73" y2="202.69"/><line class="cls-2" x1="501.19" y1="302.72" x2="501.19" y2="302.36"/><line class="cls-3" x1="501.19" y1="301.67" x2="501.19" y2="299.24"/><line class="cls-4" x1="501.19" y1="298.89" x2="501.19" y2="203.39"/><line class="cls-2" x1="501.19" y1="203.04" x2="501.19" y2="202.69"/><line class="cls-2" x1="502.63" y1="302.72" x2="502.63" y2="302.36"/><line class="cls-3" x1="502.63" y1="301.67" x2="502.63" y2="299.24"/><line class="cls-4" x1="502.63" y1="298.89" x2="502.63" y2="203.39"/><line class="cls-2" x1="502.63" y1="203.04" x2="502.63" y2="202.69"/><line class="cls-2" x1="504.09" y1="302.72" x2="504.09" y2="302.36"/><line class="cls-3" x1="504.09" y1="301.67" x2="504.09" y2="299.24"/><line class="cls-4" x1="504.09" y1="298.89" x2="504.09" y2="203.39"/><line class="cls-2" x1="504.09" y1="203.04" x2="504.09" y2="202.69"/><line class="cls-2" x1="505.53" y1="302.72" x2="505.53" y2="302.36"/><line class="cls-3" x1="505.53" y1="301.67" x2="505.53" y2="299.24"/><line class="cls-4" x1="505.53" y1="298.89" x2="505.53" y2="203.39"/><line class="cls-2" x1="505.53" y1="203.04" x2="505.53" y2="202.69"/><line class="cls-2" x1="506.99" y1="302.72" x2="506.99" y2="302.36"/><line class="cls-3" x1="506.99" y1="301.67" x2="506.99" y2="299.24"/><line class="cls-4" x1="506.99" y1="298.89" x2="506.99" y2="203.39"/><line class="cls-2" x1="506.99" y1="203.04" x2="506.99" y2="202.69"/><line class="cls-2" x1="508.43" y1="302.72" x2="508.43" y2="302.36"/><line class="cls-3" x1="508.43" y1="301.67" x2="508.43" y2="299.24"/><line class="cls-4" x1="508.43" y1="298.89" x2="508.43" y2="203.39"/><line class="cls-2" x1="508.43" y1="203.04" x2="508.43" y2="202.69"/><line class="cls-2" x1="508.46" y1="303.19" x2="508.46" y2="302.83"/><line class="cls-3" x1="508.46" y1="302.14" x2="508.46" y2="299.71"/><line class="cls-4" x1="508.46" y1="299.36" x2="508.46" y2="203.85"/><line class="cls-2" x1="508.46" y1="203.51" x2="508.46" y2="203.16"/><line class="cls-2" x1="509.9" y1="303.19" x2="509.9" y2="302.83"/><line class="cls-3" x1="509.9" y1="302.14" x2="509.9" y2="299.71"/><line class="cls-4" x1="509.9" y1="299.36" x2="509.9" y2="203.85"/><line class="cls-2" x1="509.9" y1="203.51" x2="509.9" y2="203.16"/><line class="cls-2" x1="511.36" y1="303.19" x2="511.36" y2="302.83"/><line class="cls-3" x1="511.36" y1="302.14" x2="511.36" y2="299.71"/><line class="cls-4" x1="511.36" y1="299.36" x2="511.36" y2="203.85"/><line class="cls-2" x1="511.36" y1="203.51" x2="511.36" y2="203.16"/><line class="cls-2" x1="512.8" y1="303.19" x2="512.8" y2="302.83"/><line class="cls-3" x1="512.8" y1="302.14" x2="512.8" y2="299.71"/><line class="cls-4" x1="512.8" y1="299.36" x2="512.8" y2="203.85"/><line class="cls-2" x1="512.8" y1="203.51" x2="512.8" y2="203.16"/><line class="cls-2" x1="514.26" y1="303.19" x2="514.26" y2="302.83"/><line class="cls-3" x1="514.26" y1="302.14" x2="514.26" y2="299.71"/><line class="cls-4" x1="514.26" y1="299.36" x2="514.26" y2="203.85"/><line class="cls-2" x1="514.26" y1="203.51" x2="514.26" y2="203.16"/><line class="cls-2" x1="515.7" y1="303.19" x2="515.7" y2="302.83"/><line class="cls-3" x1="515.7" y1="302.14" x2="515.7" y2="299.71"/><line class="cls-4" x1="515.7" y1="299.36" x2="515.7" y2="203.85"/><line class="cls-2" x1="515.7" y1="203.51" x2="515.7" y2="203.16"/><line class="cls-2" x1="517.16" y1="303.19" x2="517.16" y2="302.83"/><line class="cls-3" x1="517.16" y1="302.14" x2="517.16" y2="299.71"/><line class="cls-4" x1="517.16" y1="299.36" x2="517.16" y2="203.85"/><line class="cls-2" x1="517.16" y1="203.51" x2="517.16" y2="203.16"/><line class="cls-2" x1="518.6" y1="303.19" x2="518.6" y2="302.83"/><line class="cls-3" x1="518.6" y1="302.14" x2="518.6" y2="299.71"/><line class="cls-4" x1="518.6" y1="299.36" x2="518.6" y2="203.85"/><line class="cls-2" x1="518.6" y1="203.51" x2="518.6" y2="203.16"/><line class="cls-2" x1="520.06" y1="303.19" x2="520.06" y2="302.83"/><line class="cls-3" x1="520.06" y1="302.14" x2="520.06" y2="299.71"/><line class="cls-4" x1="520.06" y1="299.36" x2="520.06" y2="203.85"/><line class="cls-2" x1="520.06" y1="203.51" x2="520.06" y2="203.16"/><line class="cls-2" x1="521.5" y1="303.19" x2="521.5" y2="302.83"/><line class="cls-3" x1="521.5" y1="302.14" x2="521.5" y2="299.71"/><line class="cls-4" x1="521.5" y1="299.36" x2="521.5" y2="203.85"/><line class="cls-2" x1="521.5" y1="203.51" x2="521.5" y2="203.16"/><line class="cls-2" x1="522.96" y1="303.19" x2="522.96" y2="302.83"/><line class="cls-3" x1="522.96" y1="302.14" x2="522.96" y2="299.71"/><line class="cls-4" x1="522.96" y1="299.36" x2="522.96" y2="203.85"/><line class="cls-2" x1="522.96" y1="203.51" x2="522.96" y2="203.16"/><line class="cls-2" x1="522.96" y1="303.19" x2="522.96" y2="302.83"/><line class="cls-3" x1="522.96" y1="302.14" x2="522.96" y2="299.71"/><line class="cls-4" x1="522.96" y1="299.36" x2="522.96" y2="203.85"/><line class="cls-2" x1="522.96" y1="203.51" x2="522.96" y2="203.16"/><line class="cls-2" x1="524.4" y1="303.19" x2="524.4" y2="302.83"/><line class="cls-3" x1="524.4" y1="302.14" x2="524.4" y2="299.71"/><line class="cls-4" x1="524.4" y1="299.36" x2="524.4" y2="203.85"/><line class="cls-2" x1="524.4" y1="203.51" x2="524.4" y2="203.16"/><rect class="cls-5" x="407.92" y="202.76" width="3.51" height="99.81"/><path d="M411.33,202.85v99.63H408V202.85h3.33m.18-.18h-3.69v100h3.69v-100Z"/><path class="cls-8" d="M409.67,299.38s-1.84.16-1.84,3.28h3.69C411.52,299.54,409.67,299.38,409.67,299.38Z"/><polyline class="cls-8" points="409.4 302.66 409.4 303.24 409.67 303.24"/><polyline class="cls-8" points="409.67 303.24 409.95 303.24 409.95 302.66"/><path class="cls-8" d="M409.69,206s1.84-.16,1.84-3.28h-3.69C407.84,205.79,409.69,206,409.69,206Z"/><polyline class="cls-8" points="409.96 202.67 409.96 202.09 409.68 202.09"/><polyline class="cls-8" points="409.68 202.09 409.41 202.09 409.41 202.67"/><rect class="cls-5" x="430.69" y="202.76" width="3.51" height="99.81"/><path d="M434.11,202.85v99.63h-3.33V202.85h3.33m.18-.18h-3.68v100h3.68v-100Z"/><path class="cls-8" d="M432.45,299.38s-1.84.16-1.84,3.28h3.69C434.3,299.54,432.45,299.38,432.45,299.38Z"/><polyline class="cls-8" points="432.19 302.66 432.19 303.24 432.45 303.24"/><polyline class="cls-8" points="432.45 303.24 432.72 303.24 432.72 302.66"/><path class="cls-8" d="M432.46,206s1.85-.16,1.85-3.28h-3.7C430.61,205.79,432.46,206,432.46,206Z"/><polyline class="cls-8" points="432.73 202.67 432.73 202.09 432.46 202.09"/><polyline class="cls-8" points="432.46 202.09 432.19 202.09 432.19 202.67"/><rect class="cls-5" x="456" y="202.76" width="3.51" height="99.81"/><path d="M459.42,202.85v99.63h-3.33V202.85h3.33m.18-.18H456v100h3.68v-100Z"/><path class="cls-8" d="M457.73,299.38s-1.84.16-1.84,3.28h3.69C459.6,299.54,457.73,299.38,457.73,299.38Z"/><polyline class="cls-8" points="457.48 302.66 457.48 303.24 457.75 303.24"/><polyline class="cls-8" points="457.75 303.24 458.03 303.24 458.03 302.66"/><path class="cls-8" d="M457.73,206s1.85-.16,1.85-3.28H456C456,205.79,457.73,206,457.73,206Z"/><polyline class="cls-8" points="458.04 202.67 458.04 202.09 457.76 202.09"/><polyline class="cls-8" points="457.76 202.09 457.49 202.09 457.49 202.67"/><rect class="cls-5" x="481.61" y="202.61" width="3.51" height="99.81"/><path d="M485,202.69v99.64h-3.32V202.69H485m.18-.17h-3.69v100h3.69Z"/><path class="cls-8" d="M483.37,299.22s-1.85.17-1.85,3.29h3.69C485.21,299.39,483.37,299.22,483.37,299.22Z"/><polyline class="cls-8" points="483.1 302.51 483.1 303.09 483.37 303.09"/><polyline class="cls-8" points="483.37 303.09 483.63 303.09 483.63 302.51"/><path class="cls-8" d="M483.38,205.8s1.84-.16,1.84-3.28h-3.69C481.53,205.64,483.38,205.8,483.38,205.8Z"/><polyline class="cls-8" points="483.64 202.52 483.64 201.94 483.38 201.94"/><polyline class="cls-8" points="483.38 201.94 483.11 201.94 483.11 202.52"/><rect class="cls-5" x="507.23" y="202.61" width="3.51" height="99.81"/><path d="M510.65,202.69v99.64h-3.33V202.69h3.33m.17-.17h-3.68v100h3.68Z"/><path class="cls-8" d="M509,299.22s-1.85.17-1.85,3.29h3.68C510.82,299.39,509,299.22,509,299.22Z"/><polyline class="cls-8" points="508.71 302.51 508.71 303.09 508.99 303.09"/><polyline class="cls-8" points="508.99 303.09 509.25 303.09 509.25 302.51"/><path class="cls-8" d="M509,205.8s1.84-.16,1.84-3.28h-3.68C507.15,205.64,509,205.8,509,205.8Z"/><polyline class="cls-8" points="509.26 202.52 509.26 201.94 508.99 201.94"/><polyline class="cls-8" points="508.99 201.94 508.72 201.94 508.72 202.52"/><path class="cls-9" d="M303.58,354.54a102.93,102.93,0,0,1-95.34-64.19H141c-30.87,0-58.34,24.68-58.34,55.55v38.56c0,37.89,33.16,69,71,69,0,0,228.33,5.16,228.33-135.24h0A102.63,102.63,0,0,1,303.58,354.54Z"/><circle class="cls-10" cx="303.66" cy="251.47" r="99.4"/><path d="M303.66,152.48a99,99,0,1,1-70,29,99,99,0,0,1,70-29m0-.89a99.84,99.84,0,1,0,99.83,99.86,99.83,99.83,0,0,0-99.83-99.86h0Z"/><circle class="cls-5" cx="303.66" cy="251.47" r="97.72"/><path d="M303.66,154.17a97.25,97.25,0,1,1-68.8,28.5,97.27,97.27,0,0,1,68.8-28.5m0-.85a98.16,98.16,0,1,0,98.15,98.16h0a98.15,98.15,0,0,0-98.15-98.16Z"/><circle class="cls-5" cx="303.66" cy="251.47" r="95.93"/><path d="M303.66,156a95.51,95.51,0,1,1-67.54,28,95.52,95.52,0,0,1,67.54-28m0-.83A96.37,96.37,0,1,0,400,251.49h0a96.37,96.37,0,0,0-96.37-96.37Z"/><circle cx="303.66" cy="251.47" r="94.05"/><path d="M303.66,157.82A93.65,93.65,0,1,1,210,251.51a93.64,93.64,0,0,1,93.65-93.69m0-.81a94.46,94.46,0,1,0,94.42,94.51v-.09A94.45,94.45,0,0,0,303.68,157h0Z"/><circle class="cls-5" cx="303.66" cy="251.47" r="83.78"/><path class="cls-5" d="M303.66,168.05a83.42,83.42,0,1,1-83.42,83.42h0a83.51,83.51,0,0,1,83.42-83.42m0-.73a84.15,84.15,0,1,0,84.13,84.16h0A84.15,84.15,0,0,0,303.66,167.32Z"/><path d="M303.66,151.15a100.31,100.31,0,1,1-70.94,29.38,100.3,100.3,0,0,1,70.94-29.38m0-.89A101.19,101.19,0,1,0,404.84,251.45h0A101.19,101.19,0,0,0,303.66,150.26Z"/><path d="M303.66,149.49a101.95,101.95,0,1,1-72.12,29.86,101.95,101.95,0,0,1,72.12-29.86m0-.9A102.88,102.88,0,1,0,406.52,251.48h0A102.88,102.88,0,0,0,303.66,148.59Z"/><polygon class="cls-11" points="304.55 161.79 303.09 160.6 303.48 161.79 303.19 163.14 304.55 161.79"/><polygon class="cls-11" points="300.15 161.85 298.63 160.75 299.08 161.91 298.87 163.27 300.15 161.85"/><polygon class="cls-11" points="295.76 162.14 294.19 161.11 294.7 162.25 294.55 163.62 295.76 162.14"/><polygon class="cls-11" points="291.4 162.64 289.77 161.68 290.33 162.8 290.25 164.17 291.4 162.64"/><polygon class="cls-11" points="287.06 163.35 285.39 162.48 286.01 163.56 285.99 164.94 287.06 163.35"/><polygon class="cls-11" points="282.76 164.27 281.05 163.49 281.71 164.54 281.77 165.92 282.76 164.27"/><polygon class="cls-11" points="278.51 165.41 276.76 164.71 277.49 165.72 277.6 167.1 278.51 165.41"/><polygon class="cls-11" points="274.32 166.75 272.54 166.14 273.31 167.11 273.51 168.48 274.32 166.75"/><polygon class="cls-11" points="270.2 168.3 268.4 167.77 269.21 168.71 269.47 170.06 270.2 168.3"/><polygon class="cls-11" points="266.17 170.04 264.34 169.61 265.2 170.5 265.53 171.85 266.17 170.04"/><polygon class="cls-11" points="262.23 171.98 260.38 171.63 261.28 172.49 261.67 173.82 262.23 171.98"/><polygon class="cls-11" points="258.38 174.11 256.52 173.86 257.46 174.67 257.92 175.98 258.38 174.11"/><polygon class="cls-11" points="254.64 176.43 252.77 176.27 253.75 177.03 254.27 178.32 254.64 176.43"/><polygon class="cls-11" points="251.03 178.93 249.15 178.86 250.16 179.57 250.74 180.83 251.03 178.93"/><polygon class="cls-11" points="247.54 181.61 245.66 181.63 246.71 182.29 247.35 183.52 247.54 181.61"/><polygon class="cls-11" points="244.19 184.45 242.3 184.56 243.39 185.17 244.09 186.37 244.19 184.45"/><polygon class="cls-11" points="240.97 187.45 239.1 187.66 240.21 188.21 240.97 189.37 240.97 187.45"/><polygon class="cls-11" points="237.91 190.61 236.05 190.91 237.19 191.41 238 192.52 237.91 190.61"/><polygon class="cls-11" points="235 193.91 233.16 194.3 234.32 194.74 235.2 195.82 235 193.91"/><polygon class="cls-11" points="232.27 197.36 230.45 197.83 231.63 198.22 232.55 199.25 232.27 197.36"/><polygon class="cls-11" points="229.7 200.93 227.91 201.49 229.11 201.82 230.08 202.81 229.7 200.93"/><polygon class="cls-11" points="227.32 204.62 225.55 205.27 226.77 205.54 227.78 206.48 227.32 204.62"/><polygon class="cls-11" points="225.12 208.43 223.38 209.16 224.62 209.38 225.68 210.26 225.12 208.43"/><polygon class="cls-11" points="223.11 212.34 221.41 213.16 222.65 213.3 223.75 214.14 223.11 212.34"/><polygon class="cls-11" points="221.29 216.34 219.64 217.25 220.88 217.34 222.02 218.11 221.29 216.34"/><polygon class="cls-11" points="219.67 220.43 218.07 221.41 219.31 221.44 220.49 222.16 219.67 220.43"/><polygon class="cls-11" points="218.25 224.59 216.7 225.65 217.94 225.62 219.16 226.28 218.25 224.59"/><polygon class="cls-11" points="217.04 228.82 215.54 229.95 216.78 229.86 218.03 230.46 217.04 228.82"/><polygon class="cls-11" points="216.04 233.1 214.6 234.31 215.83 234.15 217.1 234.69 216.04 233.1"/><polygon class="cls-11" points="215.25 237.42 213.87 238.71 215.1 238.49 216.39 238.97 215.25 237.42"/><polygon class="cls-11" points="214.68 241.79 213.36 243.13 214.57 242.85 215.89 243.27 214.68 241.79"/><polygon class="cls-11" points="214.31 246.17 213.06 247.58 214.26 247.24 215.6 247.59 214.31 246.17"/><polygon class="cls-11" points="214.16 250.56 212.98 252.03 214.16 251.64 215.51 251.91 214.16 250.56"/><polygon class="cls-11" points="214.23 254.96 213.12 256.48 214.28 256.03 215.65 256.24 214.23 254.96"/><polygon class="cls-11" points="214.52 259.35 213.49 260.92 214.62 260.41 216 260.56 214.52 259.35"/><polygon class="cls-11" points="215.02 263.71 214.06 265.33 215.18 264.77 216.55 264.85 215.02 263.71"/><polygon class="cls-11" points="215.73 268.06 214.85 269.72 215.94 269.11 217.32 269.12 215.73 268.06"/><polygon class="cls-11" points="216.65 272.35 215.86 274.06 216.92 273.39 218.3 273.34 216.65 272.35"/><polygon class="cls-11" points="217.79 276.6 217.09 278.34 218.09 277.63 219.48 277.5 217.79 276.6"/><polygon class="cls-11" points="219.13 280.79 218.51 282.56 219.49 281.8 220.86 281.61 219.13 280.79"/><polygon class="cls-11" points="220.67 284.9 220.15 286.71 221.08 285.89 222.44 285.63 220.67 284.9"/><polygon class="cls-11" points="222.42 288.94 221.98 290.76 222.88 289.91 224.22 289.59 222.42 288.94"/><polygon class="cls-11" points="224.36 292.88 224.01 294.74 224.87 293.82 226.2 293.44 224.36 292.88"/><polygon class="cls-11" points="226.49 296.73 226.23 298.59 227.04 297.65 228.36 297.2 226.49 296.73"/><polygon class="cls-11" points="228.81 300.46 228.65 302.34 229.41 301.36 230.69 300.84 228.81 300.46"/><polygon class="cls-11" points="231.31 304.08 231.24 305.96 231.95 304.94 233.21 304.36 231.31 304.08"/><polygon class="cls-11" points="233.99 307.58 234 309.45 234.66 308.41 235.9 307.76 233.99 307.58"/><polygon class="cls-11" points="236.82 310.93 236.94 312.81 237.55 311.73 238.74 311.02 236.82 310.93"/><polygon class="cls-11" points="239.83 314.14 240.04 316.01 240.59 314.9 241.75 314.14 239.83 314.14"/><polygon class="cls-11" points="242.99 317.2 243.28 319.06 243.78 317.92 244.9 317.11 242.99 317.2"/><polygon class="cls-11" points="246.29 320.1 246.68 321.94 247.12 320.78 248.2 319.92 246.29 320.1"/><polygon class="cls-11" points="249.74 322.83 250.21 324.65 250.59 323.48 251.63 322.56 249.74 322.83"/><polygon class="cls-11" points="253.3 325.4 253.87 327.2 254.2 325.99 255.19 325.03 253.3 325.4"/><polygon class="cls-11" points="257 327.79 257.65 329.55 257.92 328.34 258.86 327.32 257 327.79"/><polygon class="cls-11" points="260.81 329.99 261.54 331.72 261.75 330.5 262.64 329.44 260.81 329.99"/><polygon class="cls-11" points="264.72 332 265.54 333.69 265.68 332.46 266.52 331.36 264.72 332"/><polygon class="cls-11" points="268.71 333.82 269.63 335.47 269.7 334.23 270.49 333.09 268.71 333.82"/><polygon class="cls-11" points="272.8 335.44 273.79 337.04 273.82 335.8 274.54 334.62 272.8 335.44"/><polygon class="cls-11" points="276.97 336.85 278.03 338.41 277.99 337.17 278.65 335.95 276.97 336.85"/><polygon class="cls-11" points="281.2 338.07 282.33 339.56 282.23 338.32 282.84 337.08 281.2 338.07"/><polygon class="cls-11" points="285.47 339.06 286.69 340.51 286.52 339.28 287.07 338 285.47 339.06"/><polygon class="cls-11" points="289.8 339.86 291.08 341.24 290.86 340.02 291.34 338.72 289.8 339.86"/><polygon class="cls-11" points="294.16 340.44 295.5 341.75 295.23 340.54 295.64 339.22 294.16 340.44"/><polygon class="cls-11" points="298.54 340.8 299.95 342.05 299.62 340.85 299.96 339.51 298.54 340.8"/><polygon class="cls-11" points="302.93 340.95 304.41 342.13 304.01 340.95 304.29 339.59 302.93 340.95"/><polygon class="cls-11" points="307.33 340.88 308.86 341.98 308.4 340.82 308.62 339.46 307.33 340.88"/><polygon class="cls-11" points="311.72 340.59 313.29 341.63 312.79 340.49 312.94 339.11 311.72 340.59"/><polygon class="cls-11" points="316.09 340.1 317.71 341.05 317.15 339.94 317.23 338.56 316.09 340.1"/><polygon class="cls-11" points="320.43 339.39 322.1 340.25 321.48 339.17 321.49 337.79 320.43 339.39"/><polygon class="cls-11" points="324.73 338.46 326.44 339.24 325.77 338.2 325.71 336.82 324.73 338.46"/><polygon class="cls-11" points="328.97 337.32 330.72 338.03 330 337.01 329.88 335.63 328.97 337.32"/><polygon class="cls-11" points="333.17 335.98 334.94 336.59 334.17 335.62 333.98 334.25 333.17 335.98"/><polygon class="cls-11" points="337.28 334.43 339.08 334.96 338.27 334.02 338.01 332.67 337.28 334.43"/><polygon class="cls-11" points="341.31 332.69 343.14 333.13 342.29 332.23 341.96 330.88 341.31 332.69"/><polygon class="cls-11" points="345.26 330.75 347.11 331.1 346.2 330.24 345.82 328.91 345.26 330.75"/><polygon class="cls-11" points="349.1 328.62 350.97 328.88 350.02 328.06 349.57 326.76 349.1 328.62"/><polygon class="cls-11" points="352.84 326.3 354.71 326.47 353.73 325.7 353.22 324.42 352.84 326.3"/><polygon class="cls-11" points="356.45 323.8 358.34 323.87 357.32 323.16 356.74 321.91 356.45 323.8"/><polygon class="cls-11" points="359.95 321.12 361.83 321.1 360.78 320.44 360.14 319.22 359.95 321.12"/><polygon class="cls-11" points="363.31 318.28 365.18 318.17 364.1 317.56 363.4 316.37 363.31 318.28"/><polygon class="cls-11" points="366.52 315.28 368.38 315.07 367.28 314.52 366.52 313.37 366.52 315.28"/><polygon class="cls-11" points="369.57 312.12 371.44 311.82 370.3 311.32 369.48 310.21 369.57 312.12"/><polygon class="cls-11" points="372.48 308.82 374.32 308.43 373.16 307.99 372.29 306.92 372.48 308.82"/><polygon class="cls-11" points="375.21 305.37 377.03 304.9 375.85 304.51 374.94 303.48 375.21 305.37"/><polygon class="cls-11" points="377.78 301.8 379.57 301.24 378.37 300.91 377.41 299.93 377.78 301.8"/><polygon class="cls-11" points="380.16 298.11 381.93 297.46 380.72 297.19 379.7 296.25 380.16 298.11"/><polygon class="cls-11" points="382.37 294.31 384.1 293.57 382.87 293.36 381.81 292.47 382.37 294.31"/><polygon class="cls-11" points="384.38 290.4 386.07 289.58 384.84 289.43 383.73 288.59 384.38 290.4"/><polygon class="cls-11" points="386.19 286.39 387.85 285.49 386.61 285.4 385.46 284.62 386.19 286.39"/><polygon class="cls-11" points="387.81 282.31 389.42 281.32 388.18 281.3 387 280.57 387.81 282.31"/><polygon class="cls-11" points="389.23 278.14 390.78 277.08 389.54 277.11 388.33 276.45 389.23 278.14"/><polygon class="cls-11" points="390.44 273.92 391.94 272.78 390.7 272.87 389.46 272.27 390.44 273.92"/><polygon class="cls-11" points="391.44 269.63 392.89 268.42 391.66 268.58 390.38 268.04 391.44 269.63"/><polygon class="cls-11" points="392.24 265.31 393.62 264.03 392.39 264.25 391.09 263.76 392.24 265.31"/><polygon class="cls-11" points="392.82 260.95 394.13 259.61 392.91 259.88 391.59 259.46 392.82 260.95"/><polygon class="cls-11" points="393.17 256.56 394.42 255.16 393.23 255.49 391.89 255.14 393.17 256.56"/><polygon class="cls-11" points="393.32 252.17 394.5 250.71 393.32 251.1 391.97 250.82 393.32 252.17"/><polygon class="cls-11" points="393.25 247.77 394.36 246.26 393.2 246.7 391.83 246.49 393.25 247.77"/><polygon class="cls-11" points="392.97 243.39 394 241.81 392.86 242.32 391.49 242.17 392.97 243.39"/><polygon class="cls-11" points="392.47 239.02 393.42 237.4 392.32 237.96 390.93 237.88 392.47 239.02"/><polygon class="cls-11" points="391.76 234.68 392.63 233.01 391.55 233.63 390.17 233.61 391.76 234.68"/><polygon class="cls-11" points="390.83 230.38 391.62 228.67 390.58 229.34 389.19 229.4 390.83 230.38"/><polygon class="cls-11" points="389.7 226.13 390.4 224.39 389.39 225.11 388.01 225.23 389.7 226.13"/><polygon class="cls-11" points="388.36 221.95 388.97 220.17 388 220.93 386.62 221.13 388.36 221.95"/><polygon class="cls-11" points="386.81 217.83 387.34 216.03 386.4 216.84 385.04 217.1 386.81 217.83"/><polygon class="cls-11" points="385.06 213.79 385.51 211.97 384.61 212.82 383.26 213.15 385.06 213.79"/><polygon class="cls-11" points="383.13 209.85 383.47 208 382.62 208.91 381.29 209.29 383.13 209.85"/><polygon class="cls-11" points="380.99 206 381.25 204.14 380.44 205.09 379.14 205.54 380.99 206"/><polygon class="cls-11" points="378.67 202.27 378.83 200.39 378.07 201.37 376.79 201.89 378.67 202.27"/><polygon class="cls-11" points="376.18 198.65 376.25 196.77 375.53 197.79 374.28 198.37 376.18 198.65"/><polygon class="cls-11" points="373.5 195.16 373.48 193.28 372.82 194.33 371.59 194.98 373.5 195.16"/><polygon class="cls-11" points="370.66 191.81 370.54 189.93 369.94 191.01 368.74 191.71 370.66 191.81"/><polygon class="cls-11" points="367.65 188.6 367.45 186.72 366.89 187.84 365.74 188.6 367.65 188.6"/><polygon class="cls-11" points="364.5 185.53 364.2 183.67 363.7 184.81 362.58 185.62 364.5 185.53"/><polygon class="cls-11" points="361.19 182.63 360.81 180.79 360.36 181.95 359.28 182.82 361.19 182.63"/><polygon class="cls-11" points="357.75 179.9 357.28 178.08 356.89 179.25 355.86 180.17 357.75 179.9"/><polygon class="cls-11" points="354.18 177.33 353.62 175.53 353.29 176.74 352.31 177.7 354.18 177.33"/><polygon class="cls-11" points="350.49 174.94 349.83 173.18 349.57 174.39 348.63 175.41 350.49 174.94"/><polygon class="cls-11" points="346.68 172.74 345.94 171.01 345.74 172.24 344.85 173.3 346.68 172.74"/><polygon class="cls-11" points="342.78 170.73 341.95 169.04 341.8 170.28 340.96 171.37 342.78 170.73"/><polygon class="cls-11" points="338.77 168.91 337.87 167.26 337.78 168.5 336.99 169.64 338.77 168.91"/><polygon class="cls-11" points="334.68 167.3 333.7 165.69 333.67 166.93 332.94 168.11 334.68 167.3"/><polygon class="cls-11" points="330.52 165.88 329.45 164.32 329.49 165.56 328.83 166.78 330.52 165.88"/><polygon class="cls-11" points="326.29 164.66 325.15 163.16 325.25 164.41 324.64 165.66 326.29 164.66"/><polygon class="cls-11" points="322.01 163.66 320.8 162.22 320.96 163.46 320.42 164.73 322.01 163.66"/><polygon class="cls-11" points="317.68 162.87 316.41 161.5 316.62 162.72 316.14 164.01 317.68 162.87"/><polygon class="cls-11" points="313.32 162.3 311.98 160.98 312.26 162.19 311.84 163.51 313.32 162.3"/><polygon class="cls-11" points="308.94 161.93 307.54 160.69 307.87 161.88 307.52 163.22 308.94 161.93"/><polygon class="cls-11" points="304.55 161.79 303.09 160.6 303.48 161.79 303.19 163.14 304.55 161.79"/><circle class="cls-5" cx="301.24" cy="251.74" r="82.38" transform="translate(-89.77 286.74) rotate(-45)"/><path d="M303.57,168.8a82.4,82.4,0,1,1-82.41,82.4h0a82.48,82.48,0,0,1,82.41-82.39m0-.73a83.12,83.12,0,1,0,83.12,83.12h0a83.12,83.12,0,0,0-83.12-83.08Z"/><line class="cls-12" x1="81.23" y1="207.98" x2="523.76" y2="207.98"/><line class="cls-13" x1="81.5" y1="297.88" x2="524.03" y2="297.88"/><line class="cls-14" x1="81.32" y1="225.97" x2="523.85" y2="225.97"/><line class="cls-15" x1="81.23" y1="244.19" x2="523.76" y2="244.19"/><line class="cls-16" x1="81.61" y1="262.73" x2="524.14" y2="262.73"/><line class="cls-17" x1="81.23" y1="281.21" x2="523.76" y2="281.21"/><path class="cls-18" d="M524.4,207.37a109.32,109.32,0,0,1-20,1.59c-20.35,0-20.35-3.27-40.69-3.27S443.31,209,423,209s-20.36-3.27-40.71-3.27S361.91,209,341.55,209s-20.35-3.27-40.7-3.27S280.49,209,260.14,209s-20.35-3.27-40.7-3.27S199.09,209,178.73,209s-20.35-3.27-40.7-3.27S117.67,209,97.33,209a114,114,0,0,1-15.57-.89"/><path class="cls-18" d="M82.5,282c3.69,0,3.69-1.63,7.4-1.63S93.59,282,97.28,282s3.71-1.62,7.4-1.62,3.71,1.63,7.4,1.63,3.7-1.63,7.41-1.63,3.69,1.63,7.39,1.63,3.71-1.63,7.4-1.62,3.7,1.63,7.4,1.63,3.7-1.63,7.39-1.63,3.71,1.63,7.4,1.63,3.7-1.63,7.41-1.62,3.69,1.63,7.39,1.63,3.71-1.63,7.4-1.63,3.7,1.63,7.4,1.63,3.7-1.63,7.4-1.63,3.7,1.64,7.4,1.64,3.7-1.63,7.4-1.63,3.7,1.63,7.4,1.63,3.7-1.63,7.39-1.63,3.71,1.63,7.41,1.64,3.69-1.64,7.4-1.64,3.7,1.64,7.39,1.64,3.71-1.64,7.41-1.64,3.69,1.64,7.4,1.64,3.7-1.63,7.4-1.63,3.7,1.64,7.4,1.64,3.7-1.64,7.4-1.64,3.7,1.64,7.4,1.64,3.7-1.63,7.4-1.63,3.7,1.63,7.4,1.63,3.7-1.63,7.4-1.63,3.7,1.63,7.4,1.63,3.71-1.63,7.4-1.62,3.7,1.63,7.41,1.63,3.69-1.63,7.39-1.63,3.71,1.63,7.41,1.63,3.69-1.63,7.4-1.63,3.7,1.64,7.39,1.64,3.71-1.63,7.41-1.63,3.7,1.63,7.4,1.63,3.7-1.63,7.4-1.63,3.71,1.63,7.41,1.64,3.69-1.63,7.4-1.63,3.7,1.63,7.4,1.63,3.7-1.63,7.4-1.63,3.7,1.63,7.41,1.64,3.7-1.63,7.39-1.63,3.71,1.63,7.41,1.63,3.69-1.63,7.4-1.63,3.7,1.63,7.39,1.63,3.71-1.62,7.41-1.62,3.69,1.63,7.4,1.63,3.7-1.63,7.4-1.63,3.7,1.63,7.4,1.63,3.7-1.63,7.41-1.62,3.7,1.63,7.39,1.63,3.71-1.63,7.41-1.63,3.7,1.63,7.41,1.63,3.7-1.63,7.4-1.63c2.78,0,3.47.89,5.2,1.38"/><path class="cls-18" d="M81.65,226.5c11,0,11-1.62,21.92-1.61s11,1.64,21.91,1.65,11-1.63,21.92-1.63,10.95,1.64,21.91,1.65,11-1.62,21.92-1.61,11,1.64,21.91,1.64,11-1.62,21.92-1.61S246,226.62,257,226.63s11-1.63,21.92-1.62,11,1.63,21.91,1.64,11-1.62,21.92-1.61,11,1.64,21.92,1.65,11-1.63,21.91-1.63,11,1.65,21.93,1.66,11-1.63,21.91-1.62,11,1.63,21.92,1.64,11-1.62,21.91-1.61,11,1.64,21.93,1.65,11-1.64,21.91-1.63,11,1.65,21.93,1.65c1.78,0,3.33,0,4.65-.11"/><path class="cls-18" d="M81.76,243.34h1.17c5.58,0,5.58,1.63,11.17,1.63s5.59-1.63,11.17-1.63,5.59,1.63,11.17,1.63,5.59-1.63,11.17-1.63S133.2,245,138.79,245s5.58-1.63,11.17-1.63,5.58,1.63,11.17,1.63,5.59-1.63,11.17-1.63,5.59,1.63,11.17,1.63,5.59-1.63,11.17-1.63,5.59,1.63,11.18,1.63,5.58-1.63,11.17-1.63,5.58,1.63,11.17,1.63,5.59-1.63,11.18-1.63,5.59,1.63,11.17,1.63,5.59-1.63,11.17-1.63,5.59,1.63,11.17,1.63,5.59-1.63,11.18-1.63,5.59,1.63,11.18,1.63,5.58-1.63,11.17-1.63S312,245,317.55,245s5.59-1.63,11.17-1.63S334.31,245,339.9,245s5.59-1.63,11.17-1.63,5.59,1.63,11.18,1.63,5.58-1.63,11.18-1.63S379,245,384.6,245s5.58-1.63,11.17-1.63S401.36,245,407,245s5.59-1.63,11.17-1.63,5.59,1.63,11.17,1.63,5.59-1.63,11.18-1.63,5.59,1.63,11.18,1.63,5.58-1.63,11.17-1.63S468.4,245,474,245s5.59-1.63,11.18-1.63,5.59,1.63,11.17,1.63,5.59-1.63,11.18-1.63,5.59,1.63,11.17,1.63a17.27,17.27,0,0,0,5.71-.85"/><path class="cls-18" d="M80.89,262.51a30.67,30.67,0,0,0,8,1c7.3,0,7.3-1.64,14.61-1.64s7.3,1.64,14.61,1.64,7.31-1.64,14.61-1.64,7.3,1.64,14.61,1.64,7.3-1.64,14.61-1.64,7.31,1.64,14.61,1.64,7.3-1.64,14.61-1.64,7.31,1.64,14.61,1.64,7.31-1.64,14.61-1.64,7.3,1.64,14.61,1.64,7.31-1.64,14.62-1.64,7.3,1.64,14.6,1.64,7.31-1.64,14.62-1.64,7.3,1.64,14.61,1.64,7.31-1.64,14.61-1.64,7.3,1.64,14.61,1.64,7.31-1.64,14.62-1.64,7.3,1.64,14.6,1.64,7.31-1.64,14.62-1.64,7.31,1.64,14.61,1.64,7.3-1.64,14.61-1.64,7.31,1.64,14.62,1.64,7.31-1.64,14.6-1.64,7.31,1.64,14.62,1.64,7.31-1.64,14.62-1.64,7.3,1.64,14.6,1.64,7.31-1.64,14.62-1.64,7.31,1.64,14.61,1.64,7.3-1.64,14.61-1.64c6.2,0,7.14,1.17,11.73,1.53"/><path class="cls-18" d="M81.49,298.56c2-.31,2.33-1.56,4.89-1.56,2.94,0,2.94,1.63,5.87,1.63S95.19,297,98.12,297s2.94,1.63,5.87,1.63,2.94-1.63,5.88-1.63,2.93,1.63,5.87,1.63,2.93-1.63,5.87-1.63,2.94,1.63,5.88,1.63,2.94-1.63,5.87-1.63,2.94,1.63,5.87,1.63,2.94-1.62,5.87-1.62,2.94,1.63,5.87,1.63,2.94-1.63,5.88-1.63,2.93,1.63,5.87,1.63,2.93-1.63,5.87-1.63,2.94,1.63,5.88,1.63,2.93-1.63,5.87-1.63,2.94,1.63,5.87,1.63,2.94-1.63,5.87-1.63,2.94,1.63,5.87,1.63,3-1.63,5.88-1.63,2.94,1.63,5.88,1.63,2.93-1.63,5.87-1.62,2.93,1.63,5.88,1.63,2.93-1.63,5.87-1.63,2.93,1.63,5.87,1.63,2.94-1.63,5.87-1.63,2.94,1.63,5.87,1.63,2.95-1.63,5.88-1.63,2.94,1.63,5.87,1.63,2.94-1.63,5.88-1.63,2.94,1.63,5.88,1.63,2.93-1.63,5.87-1.63,2.93,1.63,5.87,1.63,2.94-1.63,5.88-1.62,2.94,1.63,5.87,1.63,2.94-1.63,5.87-1.63,2.95,1.63,5.88,1.63,2.94-1.63,5.87-1.63,2.94,1.63,5.88,1.63,2.94-1.63,5.88-1.63,2.93,1.63,5.87,1.63,2.94-1.63,5.88-1.63,2.93,1.63,5.87,1.63,2.93-1.63,5.88-1.63,2.93,1.63,5.87,1.63,2.94-1.63,5.88-1.63,2.94,1.64,5.87,1.64,2.94-1.63,5.87-1.63,2.95,1.63,5.88,1.63,2.94-1.63,5.87-1.63,2.95,1.63,5.89,1.63,2.93-1.63,5.87-1.63,2.94,1.63,5.88,1.63,2.93-1.63,5.87-1.63,2.94,1.63,5.88,1.63,2.93-1.63,5.88-1.63,2.93,1.63,5.87,1.63,2.94-1.63,5.88-1.63,2.94,1.64,5.87,1.64,2.94-1.63,5.88-1.63,2.94,1.63,5.87,1.63,2.94-1.63,5.88-1.63,2.93,1.63,5.88,1.63,2.93-1.63,5.87-1.63,2.93,1.63,5.87,1.63,2.94-1.63,5.88-1.63,2.93,1.63,5.87,1.63,2.94-1.63,5.88-1.63,2.94,1.63,5.87,1.63,2.95-1.63,5.88-1.63,2.94,1.64,5.88,1.64,2.94-1.63,5.87-1.63,2.95,1.63,5.88,1.63,2.94-1.63,5.88-1.63a5.79,5.79,0,0,1,3.31,1"/><path class="cls-19" d="M524.4,207.1a108.32,108.32,0,0,0-19.21-1.44c-20.34,0-20.34,3.26-40.69,3.26s-20.36-3.26-40.7-3.26-20.36,3.26-40.71,3.26-20.35-3.26-40.7-3.26-20.35,3.26-40.7,3.26-20.36-3.26-40.71-3.26-20.36,3.26-40.71,3.26-20.34-3.26-40.7-3.26-20.35,3.26-40.7,3.26-20.36-3.26-40.71-3.26a111,111,0,0,0-16.4,1"/><path class="cls-19" d="M81.62,280.36c3.71,0,3.71,1.63,7.4,1.64s3.71-1.63,7.4-1.63,3.7,1.63,7.4,1.63,3.7-1.63,7.39-1.63,3.71,1.63,7.4,1.63,3.7-1.62,7.4-1.62,3.7,1.63,7.4,1.63,3.7-1.63,7.4-1.63,3.7,1.63,7.4,1.63,3.69-1.63,7.4-1.62S159.3,282,163,282s3.71-1.63,7.4-1.63,3.7,1.63,7.4,1.63,3.7-1.63,7.4-1.62,3.7,1.63,7.4,1.63,3.69-1.63,7.4-1.63,3.69,1.63,7.4,1.63,3.7-1.63,7.39-1.63,3.71,1.64,7.4,1.64,3.7-1.63,7.41-1.63S233.29,282,237,282s3.71-1.63,7.4-1.63,3.7,1.63,7.4,1.64,3.7-1.64,7.4-1.64,3.71,1.64,7.4,1.64,3.7-1.64,7.4-1.64,3.7,1.64,7.4,1.64,3.7-1.63,7.4-1.63,3.7,1.64,7.4,1.64,3.7-1.64,7.4-1.64,3.7,1.64,7.4,1.64,3.7-1.63,7.41-1.63,3.69,1.63,7.4,1.63,3.7-1.63,7.39-1.63,3.71,1.63,7.41,1.63,3.69-1.63,7.4-1.62,3.7,1.63,7.4,1.63,3.7-1.63,7.4-1.63,3.7,1.63,7.4,1.63,3.7-1.63,7.4-1.63,3.71,1.64,7.4,1.64,3.7-1.63,7.41-1.63,3.7,1.63,7.39,1.63,3.71-1.63,7.41-1.63,3.7,1.63,7.4,1.64,3.7-1.63,7.4-1.63,3.71,1.63,7.4,1.63,3.7-1.63,7.41-1.63,3.7,1.63,7.39,1.64,3.71-1.63,7.41-1.63,3.7,1.63,7.41,1.63,3.69-1.63,7.39-1.63,3.7,1.63,7.4,1.63,3.7-1.62,7.41-1.62,3.69,1.63,7.39,1.63,3.71-1.63,7.4-1.63,3.7,1.63,7.41,1.63,3.7-1.63,7.4-1.62,3.7,1.63,7.4,1.63c3.24,0,3.65-1.25,6.17-1.56"/><path class="cls-19" d="M81.06,224.86c11,0,11,1.64,21.91,1.64s11-1.62,21.92-1.61,11,1.64,21.92,1.65,11-1.63,21.91-1.63,11,1.64,21.92,1.65,11-1.62,21.91-1.61,11,1.64,21.92,1.64,11-1.62,21.91-1.61,11,1.64,21.92,1.65,11-1.63,21.92-1.62,11,1.63,21.92,1.64S333.09,225,344.05,225s11,1.64,21.93,1.65,10.95-1.63,21.91-1.63,11,1.65,21.92,1.66,10.95-1.63,21.91-1.62,11,1.63,21.92,1.64,11-1.62,21.92-1.61,11,1.64,21.91,1.65,11-1.64,21.93-1.63c2,0,3.57.07,5,.15"/><path class="cls-19" d="M81.76,244.93h1c5.59,0,5.59-1.64,11.18-1.64s5.58,1.64,11.17,1.64,5.58-1.64,11.17-1.64,5.58,1.64,11.17,1.64,5.59-1.64,11.17-1.64,5.59,1.64,11.17,1.64,5.59-1.64,11.18-1.64,5.58,1.64,11.17,1.64,5.58-1.64,11.17-1.64,5.58,1.64,11.17,1.64,5.59-1.64,11.17-1.64,5.59,1.64,11.17,1.64,5.59-1.64,11.18-1.64,5.58,1.64,11.17,1.64,5.58-1.64,11.17-1.64,5.58,1.64,11.17,1.64,5.59-1.64,11.17-1.64,5.59,1.64,11.17,1.64,5.59-1.64,11.18-1.64,5.59,1.64,11.18,1.64,5.58-1.64,11.17-1.64,5.58,1.64,11.17,1.64,5.58-1.64,11.17-1.64,5.59,1.64,11.18,1.64,5.59-1.64,11.17-1.64,5.59,1.64,11.17,1.64,5.59-1.64,11.19-1.64,5.58,1.64,11.17,1.64,5.58-1.64,11.17-1.64,5.58,1.64,11.17,1.64,5.6-1.64,11.18-1.64,5.59,1.64,11.17,1.64,5.59-1.64,11.18-1.64,5.59,1.64,11.17,1.64,5.59-1.64,11.18-1.64,5.58,1.64,11.17,1.64,5.58-1.64,11.17-1.64,5.59,1.64,11.18,1.64,5.59-1.64,11.17-1.64a17.55,17.55,0,0,1,5.75.9"/><path class="cls-19" d="M81.76,262.49a28.87,28.87,0,0,1,6.49-.64c7.3,0,7.3,1.64,14.6,1.64s7.31-1.64,14.61-1.64,7.31,1.64,14.62,1.64,7.29-1.64,14.6-1.64,7.31,1.64,14.61,1.64,7.31-1.64,14.62-1.64,7.29,1.64,14.6,1.64,7.31-1.64,14.62-1.64,7.3,1.64,14.61,1.64,7.3-1.64,14.6-1.64,7.31,1.64,14.62,1.64,7.3-1.64,14.61-1.64,7.3,1.64,14.61,1.64,7.3-1.64,14.61-1.64,7.31,1.64,14.61,1.64,7.3-1.64,14.61-1.64,7.31,1.64,14.62,1.64,7.3-1.64,14.6-1.64,7.31,1.64,14.62,1.64,7.31-1.64,14.62-1.64,7.3,1.64,14.6,1.64,7.31-1.64,14.62-1.64,7.31,1.64,14.61,1.64,7.3-1.64,14.61-1.64,7.31,1.64,14.61,1.64,7.31-1.64,14.62-1.64,7.3,1.64,14.61,1.64,7.3-1.64,14.61-1.64,7.31,1.64,14.61,1.64c6.5,0,7.22-1.3,12.44-1.58"/><path class="cls-19" d="M81.75,297.06c2,.3,2.36,1.57,4.94,1.57,2.94,0,2.94-1.64,5.87-1.64s2.94,1.64,5.88,1.64,2.93-1.63,5.87-1.63,2.93,1.63,5.87,1.63,2.93-1.63,5.87-1.63,2.94,1.63,5.87,1.63,2.94-1.63,5.87-1.63,2.94,1.63,5.87,1.63,2.94-1.63,5.88-1.63,2.93,1.63,5.87,1.63,2.93-1.63,5.87-1.63,2.94,1.63,5.88,1.63S160.09,297,163,297s2.94,1.63,5.87,1.63,2.94-1.62,5.87-1.62,2.94,1.63,5.87,1.63,2.94-1.63,5.88-1.63,2.93,1.63,5.87,1.63,2.93-1.63,5.87-1.63,2.94,1.63,5.88,1.63S207.07,297,210,297s2.94,1.63,5.87,1.63,2.94-1.63,5.87-1.63,2.94,1.63,5.87,1.63,2.94-1.63,5.88-1.63,2.94,1.63,5.88,1.63,2.93-1.63,5.87-1.62,2.93,1.63,5.88,1.63S254.06,297,257,297s2.93,1.63,5.87,1.63,2.94-1.63,5.87-1.63,2.94,1.63,5.87,1.63,2.95-1.63,5.88-1.63,2.94,1.63,5.87,1.63,2.94-1.63,5.88-1.63,2.93,1.63,5.88,1.63S301.05,297,304,297s2.93,1.63,5.87,1.63,2.94-1.63,5.88-1.62,2.93,1.63,5.87,1.63,2.94-1.63,5.87-1.63,2.94,1.63,5.88,1.63,2.94-1.63,5.87-1.63,2.94,1.63,5.88,1.63S348.05,297,351,297s2.94,1.63,5.88,1.63,2.94-1.63,5.88-1.63,2.93,1.63,5.87,1.63,2.93-1.63,5.88-1.63,2.93,1.63,5.87,1.63,2.94-1.63,5.88-1.63,2.94,1.64,5.87,1.64S395.05,297,398,297s2.95,1.63,5.88,1.63,2.94-1.63,5.87-1.63,2.95,1.63,5.88,1.63,2.94-1.63,5.88-1.63,2.94,1.63,5.88,1.63,2.93-1.63,5.87-1.63,2.94,1.63,5.88,1.63S442.05,297,445,297s2.94,1.63,5.88,1.63,2.94-1.63,5.88-1.63,2.94,1.64,5.87,1.64,2.94-1.63,5.88-1.63,2.94,1.63,5.87,1.63,2.94-1.63,5.87-1.63,2.94,1.63,5.88,1.63,2.94-1.63,5.88-1.63,2.93,1.63,5.87,1.63,2.93-1.63,5.88-1.63,2.93,1.63,5.87,1.63,2.93-1.63,5.88-1.63,2.94,1.63,5.87,1.63a5.3,5.3,0,0,0,3-.81"/></g></g></svg>