<svg xmlns="http://www.w3.org/2000/svg" viewBox="0 0 600.08 600"><defs><style>.cls-1,.cls-11,.cls-5,.cls-8{fill:none;}.cls-2{fill:#e51729;}.cls-10,.cls-3,.cls-4,.cls-6,.cls-9{fill:#fff;}.cls-4{stroke:#fff;stroke-width:0.5px;}.cls-10,.cls-11,.cls-4,.cls-5,.cls-6,.cls-7,.cls-8,.cls-9{stroke-miterlimit:10;}.cls-11,.cls-5,.cls-7,.cls-8,.cls-9{stroke:#000;}.cls-5{stroke-width:0.67px;}.cls-6{stroke:#00b38f;}.cls-10,.cls-6{stroke-width:0.71px;}.cls-7{fill:#29abe2;}.cls-7,.cls-8,.cls-9{stroke-width:0.34px;}.cls-10{stroke:#e51729;}.cls-11{stroke-width:0.37px;}.cls-12{fill:#00b38f;}</style></defs><g id="Layer_2" data-name="Layer 2"><g id="Layer_1-2" data-name="Layer 1"><rect class="cls-1" x="0.08" width="600" height="600"/><circle class="cls-2" cx="309.69" cy="239.2" r="33.85"/><path d="M309.69,205.5a33.68,33.68,0,1,1-23.84,9.87,33.69,33.69,0,0,1,23.84-9.87m0-.3a34,34,0,1,0,34,34,34,34,0,0,0-34-34Z"/><circle class="cls-3" cx="309.69" cy="239.2" r="33.27"/><path d="M309.69,206.07a33.1,33.1,0,1,1-23.43,9.7,33.11,33.11,0,0,1,23.43-9.7m0-.29a33.43,33.43,0,1,0,33.42,33.42h0a33.42,33.42,0,0,0-33.42-33.42Z"/><circle class="cls-3" cx="309.69" cy="239.2" r="32.67"/><path d="M309.69,206.67a32.54,32.54,0,1,1-23,9.53,32.53,32.53,0,0,1,23-9.53m0-.28a32.82,32.82,0,1,0,32.81,32.82h0a32.81,32.81,0,0,0-32.81-32.82Z"/><circle cx="309.69" cy="239.2" r="32.02"/><path d="M309.69,207.31a31.89,31.89,0,1,1-31.89,31.91,31.89,31.89,0,0,1,31.89-31.91m0-.28a32.17,32.17,0,1,0,32.15,32.18v0A32.16,32.16,0,0,0,309.69,207h0Z"/><circle class="cls-3" cx="309.69" cy="239.2" r="28.53"/><path class="cls-3" d="M309.69,210.79a28.41,28.41,0,1,1-28.41,28.41h0a28.45,28.45,0,0,1,28.41-28.41m0-.24a28.65,28.65,0,1,0,28.65,28.65h0A28.65,28.65,0,0,0,309.69,210.55Z"/><path d="M309.69,205a34.16,34.16,0,1,1-24.16,10,34.15,34.15,0,0,1,24.16-10m0-.3a34.46,34.46,0,1,0,34.45,34.46h0A34.45,34.45,0,0,0,309.69,204.74Z"/><path d="M309.69,204.48a34.71,34.71,0,1,1-24.56,10.16,34.71,34.71,0,0,1,24.56-10.16m0-.31a35,35,0,1,0,35,35h0A35,35,0,0,0,309.69,204.17Z"/><polygon class="cls-4" points="309.99 208.66 309.49 208.26 309.63 208.66 309.53 209.12 309.99 208.66"/><polygon class="cls-4" points="308.49 208.69 307.97 208.31 308.13 208.71 308.06 209.17 308.49 208.69"/><polygon class="cls-4" points="307 208.78 306.46 208.43 306.64 208.82 306.58 209.29 307 208.78"/><polygon class="cls-4" points="305.51 208.95 304.96 208.63 305.15 209.01 305.12 209.48 305.51 208.95"/><polygon class="cls-4" points="304.04 209.2 303.47 208.9 303.68 209.27 303.67 209.74 304.04 209.2"/><polygon class="cls-4" points="302.57 209.51 301.99 209.24 302.22 209.6 302.23 210.07 302.57 209.51"/><polygon class="cls-4" points="301.13 209.9 300.53 209.66 300.78 210 300.81 210.47 301.13 209.9"/><polygon class="cls-4" points="299.7 210.35 299.09 210.15 299.35 210.48 299.42 210.94 299.7 210.35"/><polygon class="cls-4" points="298.3 210.88 297.68 210.7 297.96 211.02 298.05 211.48 298.3 210.88"/><polygon class="cls-4" points="296.92 211.48 296.3 211.33 296.59 211.63 296.7 212.09 296.92 211.48"/><polygon class="cls-4" points="295.58 212.13 294.95 212.02 295.26 212.31 295.39 212.76 295.58 212.13"/><polygon class="cls-4" points="294.27 212.86 293.63 212.78 293.96 213.05 294.11 213.5 294.27 212.86"/><polygon class="cls-4" points="293 213.65 292.36 213.6 292.69 213.85 292.87 214.29 293 213.65"/><polygon class="cls-4" points="291.77 214.5 291.13 214.48 291.47 214.72 291.67 215.15 291.77 214.5"/><polygon class="cls-4" points="290.58 215.41 289.94 215.42 290.3 215.64 290.51 216.06 290.58 215.41"/><polygon class="cls-4" points="289.44 216.38 288.8 216.42 289.17 216.63 289.4 217.03 289.44 216.38"/><polygon class="cls-4" points="288.34 217.4 287.7 217.47 288.08 217.66 288.34 218.06 288.34 217.4"/><polygon class="cls-4" points="287.3 218.48 286.67 218.58 287.05 218.75 287.33 219.13 287.3 218.48"/><polygon class="cls-4" points="286.31 219.6 285.68 219.73 286.08 219.89 286.38 220.25 286.31 219.6"/><polygon class="cls-4" points="285.38 220.78 284.76 220.94 285.16 221.07 285.47 221.42 285.38 220.78"/><polygon class="cls-4" points="284.5 221.99 283.89 222.18 284.3 222.29 284.63 222.63 284.5 221.99"/><polygon class="cls-4" points="283.69 223.25 283.09 223.47 283.5 223.56 283.85 223.88 283.69 223.25"/><polygon class="cls-4" points="282.94 224.55 282.35 224.8 282.77 224.87 283.13 225.17 282.94 224.55"/><polygon class="cls-4" points="282.26 225.88 281.68 226.16 282.11 226.21 282.48 226.49 282.26 225.88"/><polygon class="cls-4" points="281.64 227.24 281.08 227.55 281.5 227.58 281.89 227.84 281.64 227.24"/><polygon class="cls-4" points="281.09 228.63 280.54 228.97 280.96 228.98 281.37 229.22 281.09 228.63"/><polygon class="cls-4" points="280.61 230.05 280.08 230.41 280.5 230.4 280.91 230.62 280.61 230.05"/><polygon class="cls-4" points="280.19 231.49 279.68 231.88 280.11 231.84 280.53 232.05 280.19 231.49"/><polygon class="cls-4" points="279.85 232.95 279.36 233.36 279.78 233.3 280.21 233.49 279.85 232.95"/><polygon class="cls-4" points="279.58 234.42 279.11 234.86 279.53 234.78 279.97 234.94 279.58 234.42"/><polygon class="cls-4" points="279.39 235.9 278.94 236.36 279.35 236.27 279.8 236.41 279.39 235.9"/><polygon class="cls-4" points="279.26 237.4 278.84 237.88 279.25 237.76 279.7 237.88 279.26 237.4"/><polygon class="cls-4" points="279.21 238.89 278.81 239.39 279.21 239.26 279.67 239.35 279.21 238.89"/><polygon class="cls-4" points="279.24 240.39 278.86 240.91 279.25 240.75 279.72 240.83 279.24 240.39"/><polygon class="cls-4" points="279.33 241.88 278.98 242.42 279.37 242.25 279.84 242.3 279.33 241.88"/><polygon class="cls-4" points="279.5 243.37 279.18 243.92 279.56 243.73 280.03 243.76 279.5 243.37"/><polygon class="cls-4" points="279.75 244.85 279.45 245.42 279.82 245.21 280.29 245.21 279.75 244.85"/><polygon class="cls-4" points="280.06 246.31 279.79 246.89 280.15 246.67 280.62 246.65 280.06 246.31"/><polygon class="cls-4" points="280.45 247.76 280.21 248.35 280.55 248.11 281.02 248.07 280.45 247.76"/><polygon class="cls-4" points="280.9 249.19 280.69 249.79 281.03 249.53 281.49 249.47 280.9 249.19"/><polygon class="cls-4" points="281.43 250.59 281.25 251.2 281.57 250.92 282.03 250.84 281.43 250.59"/><polygon class="cls-4" points="282.03 251.96 281.88 252.58 282.18 252.29 282.64 252.18 282.03 251.96"/><polygon class="cls-4" points="282.69 253.3 282.57 253.93 282.86 253.63 283.31 253.49 282.69 253.3"/><polygon class="cls-4" points="283.41 254.61 283.32 255.25 283.6 254.93 284.05 254.77 283.41 254.61"/><polygon class="cls-4" points="284.2 255.88 284.15 256.52 284.4 256.19 284.84 256.01 284.2 255.88"/><polygon class="cls-4" points="285.05 257.12 285.03 257.76 285.27 257.41 285.7 257.21 285.05 257.12"/><polygon class="cls-4" points="285.96 258.31 285.97 258.94 286.19 258.59 286.61 258.37 285.96 258.31"/><polygon class="cls-4" points="286.93 259.45 286.97 260.09 287.18 259.72 287.58 259.48 286.93 259.45"/><polygon class="cls-4" points="287.95 260.54 288.02 261.18 288.21 260.8 288.61 260.54 287.95 260.54"/><polygon class="cls-4" points="289.03 261.58 289.13 262.22 289.3 261.83 289.68 261.55 289.03 261.58"/><polygon class="cls-4" points="290.15 262.57 290.28 263.2 290.44 262.8 290.8 262.51 290.15 262.57"/><polygon class="cls-4" points="291.33 263.5 291.49 264.12 291.62 263.72 291.97 263.41 291.33 263.5"/><polygon class="cls-4" points="292.54 264.38 292.73 264.99 292.85 264.58 293.18 264.25 292.54 264.38"/><polygon class="cls-4" points="293.8 265.19 294.02 265.79 294.11 265.38 294.43 265.03 293.8 265.19"/><polygon class="cls-4" points="295.1 265.94 295.35 266.53 295.42 266.11 295.72 265.75 295.1 265.94"/><polygon class="cls-4" points="296.43 266.62 296.71 267.2 296.76 266.78 297.04 266.4 296.43 266.62"/><polygon class="cls-4" points="297.79 267.24 298.1 267.81 298.13 267.38 298.39 266.99 297.79 267.24"/><polygon class="cls-4" points="299.18 267.8 299.52 268.34 299.53 267.92 299.77 267.52 299.18 267.8"/><polygon class="cls-4" points="300.6 268.28 300.96 268.81 300.95 268.38 301.17 267.97 300.6 268.28"/><polygon class="cls-4" points="302.04 268.69 302.43 269.2 302.39 268.78 302.6 268.36 302.04 268.69"/><polygon class="cls-4" points="303.5 269.03 303.91 269.52 303.85 269.1 304.04 268.67 303.5 269.03"/><polygon class="cls-4" points="304.97 269.3 305.4 269.77 305.33 269.35 305.49 268.91 304.97 269.3"/><polygon class="cls-4" points="306.45 269.5 306.91 269.94 306.82 269.53 306.96 269.08 306.45 269.5"/><polygon class="cls-4" points="307.95 269.62 308.43 270.04 308.31 269.64 308.43 269.18 307.95 269.62"/><polygon class="cls-4" points="309.44 269.67 309.94 270.07 309.81 269.67 309.9 269.21 309.44 269.67"/><polygon class="cls-4" points="310.94 269.65 311.46 270.02 311.3 269.63 311.38 269.16 310.94 269.65"/><polygon class="cls-4" points="312.43 269.55 312.97 269.9 312.8 269.51 312.85 269.05 312.43 269.55"/><polygon class="cls-4" points="313.92 269.38 314.47 269.7 314.28 269.33 314.31 268.86 313.92 269.38"/><polygon class="cls-4" points="315.4 269.14 315.97 269.43 315.75 269.07 315.76 268.6 315.4 269.14"/><polygon class="cls-4" points="316.86 268.82 317.44 269.09 317.22 268.74 317.2 268.26 316.86 268.82"/><polygon class="cls-4" points="318.31 268.44 318.9 268.68 318.66 268.33 318.62 267.86 318.31 268.44"/><polygon class="cls-4" points="319.74 267.98 320.34 268.19 320.08 267.86 320.01 267.39 319.74 267.98"/><polygon class="cls-4" points="321.14 267.45 321.75 267.63 321.47 267.31 321.38 266.85 321.14 267.45"/><polygon class="cls-4" points="322.51 266.86 323.13 267.01 322.84 266.7 322.73 266.24 322.51 266.86"/><polygon class="cls-4" points="323.85 266.2 324.49 266.32 324.18 266.02 324.04 265.57 323.85 266.2"/><polygon class="cls-4" points="325.16 265.47 325.8 265.56 325.48 265.28 325.32 264.84 325.16 265.47"/><polygon class="cls-4" points="326.44 264.68 327.07 264.74 326.74 264.48 326.56 264.04 326.44 264.68"/><polygon class="cls-4" points="327.67 263.83 328.31 263.86 327.96 263.61 327.76 263.19 327.67 263.83"/><polygon class="cls-4" points="328.86 262.92 329.5 262.91 329.14 262.69 328.92 262.27 328.86 262.92"/><polygon class="cls-4" points="330 261.95 330.64 261.91 330.27 261.71 330.03 261.3 330 261.95"/><polygon class="cls-4" points="331.09 260.93 331.73 260.86 331.35 260.67 331.09 260.28 331.09 260.93"/><polygon class="cls-4" points="332.13 259.85 332.77 259.75 332.38 259.58 332.1 259.2 332.13 259.85"/><polygon class="cls-4" points="333.12 258.73 333.75 258.6 333.35 258.45 333.06 258.08 333.12 258.73"/><polygon class="cls-4" points="334.05 257.56 334.67 257.39 334.27 257.26 333.96 256.91 334.05 257.56"/><polygon class="cls-4" points="334.93 256.34 335.54 256.15 335.13 256.04 334.8 255.7 334.93 256.34"/><polygon class="cls-4" points="335.74 255.08 336.34 254.86 335.93 254.77 335.58 254.45 335.74 255.08"/><polygon class="cls-4" points="336.49 253.79 337.08 253.54 336.66 253.47 336.3 253.16 336.49 253.79"/><polygon class="cls-4" points="337.17 252.46 337.75 252.18 337.33 252.13 336.95 251.84 337.17 252.46"/><polygon class="cls-4" points="337.79 251.09 338.36 250.79 337.93 250.76 337.54 250.49 337.79 251.09"/><polygon class="cls-4" points="338.34 249.7 338.89 249.37 338.47 249.36 338.07 249.11 338.34 249.7"/><polygon class="cls-4" points="338.83 248.28 339.36 247.92 338.93 247.93 338.52 247.71 338.83 248.28"/><polygon class="cls-4" points="339.24 246.85 339.75 246.46 339.33 246.49 338.9 246.28 339.24 246.85"/><polygon class="cls-4" points="339.58 245.39 340.07 244.97 339.65 245.03 339.22 244.84 339.58 245.39"/><polygon class="cls-4" points="339.85 243.91 340.32 243.48 339.9 243.55 339.46 243.39 339.85 243.91"/><polygon class="cls-4" points="340.05 242.43 340.49 241.97 340.08 242.07 339.63 241.92 340.05 242.43"/><polygon class="cls-4" points="340.17 240.94 340.59 240.46 340.19 240.57 339.73 240.45 340.17 240.94"/><polygon class="cls-4" points="340.22 239.44 340.62 238.94 340.22 239.08 339.76 238.98 340.22 239.44"/><polygon class="cls-4" points="340.2 237.94 340.57 237.43 340.18 237.58 339.71 237.51 340.2 237.94"/><polygon class="cls-4" points="340.1 236.45 340.45 235.91 340.06 236.09 339.6 236.03 340.1 236.45"/><polygon class="cls-4" points="339.93 234.96 340.25 234.41 339.88 234.6 339.41 234.57 339.93 234.96"/><polygon class="cls-4" points="339.69 233.49 339.98 232.92 339.62 233.13 339.14 233.12 339.69 233.49"/><polygon class="cls-4" points="339.37 232.02 339.64 231.44 339.29 231.67 338.81 231.69 339.37 232.02"/><polygon class="cls-4" points="338.99 230.57 339.22 229.98 338.88 230.23 338.41 230.27 338.99 230.57"/><polygon class="cls-4" points="338.53 229.15 338.74 228.54 338.41 228.8 337.94 228.87 338.53 229.15"/><polygon class="cls-4" points="338 227.75 338.18 227.13 337.86 227.41 337.4 227.5 338 227.75"/><polygon class="cls-4" points="337.41 226.37 337.56 225.75 337.25 226.04 336.79 226.15 337.41 226.37"/><polygon class="cls-4" points="336.75 225.03 336.87 224.4 336.57 224.71 336.12 224.84 336.75 225.03"/><polygon class="cls-4" points="336.02 223.72 336.11 223.09 335.83 223.41 335.39 223.56 336.02 223.72"/><polygon class="cls-4" points="335.23 222.45 335.29 221.81 335.03 222.14 334.59 222.32 335.23 222.45"/><polygon class="cls-4" points="334.38 221.22 334.4 220.58 334.16 220.92 333.74 221.12 334.38 221.22"/><polygon class="cls-4" points="333.47 220.03 333.46 219.39 333.24 219.75 332.82 219.97 333.47 220.03"/><polygon class="cls-4" points="332.5 218.89 332.46 218.25 332.26 218.62 331.85 218.85 332.5 218.89"/><polygon class="cls-4" points="331.48 217.79 331.41 217.15 331.22 217.53 330.83 217.79 331.48 217.79"/><polygon class="cls-4" points="330.4 216.75 330.3 216.12 330.13 216.5 329.75 216.78 330.4 216.75"/><polygon class="cls-4" points="329.28 215.76 329.15 215.13 329 215.53 328.63 215.83 329.28 215.76"/><polygon class="cls-4" points="328.11 214.83 327.94 214.21 327.81 214.61 327.46 214.92 328.11 214.83"/><polygon class="cls-4" points="326.89 213.96 326.7 213.34 326.59 213.75 326.25 214.08 326.89 213.96"/><polygon class="cls-4" points="325.63 213.14 325.41 212.54 325.32 212.96 325 213.3 325.63 213.14"/><polygon class="cls-4" points="324.34 212.39 324.09 211.8 324.02 212.22 323.71 212.59 324.34 212.39"/><polygon class="cls-4" points="323.01 211.71 322.73 211.13 322.68 211.56 322.39 211.93 323.01 211.71"/><polygon class="cls-4" points="321.64 211.09 321.34 210.53 321.31 210.95 321.04 211.34 321.64 211.09"/><polygon class="cls-4" points="320.25 210.54 319.92 209.99 319.91 210.41 319.66 210.82 320.25 210.54"/><polygon class="cls-4" points="318.83 210.06 318.47 209.53 318.48 209.95 318.26 210.36 318.83 210.06"/><polygon class="cls-4" points="317.39 209.64 317.01 209.13 317.04 209.56 316.83 209.98 317.39 209.64"/><polygon class="cls-4" points="315.94 209.3 315.52 208.81 315.58 209.23 315.39 209.66 315.94 209.3"/><polygon class="cls-4" points="314.46 209.03 314.03 208.56 314.1 208.98 313.94 209.42 314.46 209.03"/><polygon class="cls-4" points="312.98 208.84 312.52 208.39 312.62 208.8 312.47 209.25 312.98 208.84"/><polygon class="cls-4" points="311.49 208.71 311.01 208.29 311.12 208.69 311 209.15 311.49 208.71"/><polygon class="cls-4" points="309.99 208.66 309.49 208.26 309.63 208.66 309.53 209.12 309.99 208.66"/><circle class="cls-3" cx="308.86" cy="239.29" r="28.05"/><path d="M309.66,211.05a28.06,28.06,0,1,1-28.06,28.06h0a28.09,28.09,0,0,1,28.06-28.06m0-.25A28.31,28.31,0,1,0,338,239.11h0a28.3,28.3,0,0,0-28.3-28.29Z"/><path class="cls-5" d="M310.64,157.15c108.32-.7,91.3,55.11,75,90.62-14.92,32.52,42.15,25.71,43.64,109.47.74,41.79-35.85,91.69-118.72,92.83-82.87-1.14-119.46-51-118.72-92.83,1.48-83.76,58.58-76.93,43.64-109.47-16.28-35.51-33.29-91.36,75-90.62Z"/><path class="cls-6" d="M324.84,100.31c.71,37.61,1.36,71.93,1.88,109.53-8.44-7.71-7.63,2.3-16.12-1.09h-.06c-8.5,3.39-7.69-6.62-16.13,1.09.53-38.08,1.09-71.45,1.82-109.53Z"/><path class="cls-7" d="M340.18,215.9a38.18,38.18,0,0,1-15,59.36v16.51a16.9,16.9,0,0,0,16.9,16.9h11a20.89,20.89,0,0,0,20.93-20.84v0S377.17,224.84,340.18,215.9Z"/><line class="cls-8" x1="294.05" y1="323.95" x2="297.48" y2="100.31"/><line class="cls-8" x1="300.05" y1="323.77" x2="302.39" y2="100.31"/><line class="cls-8" x1="306.03" y1="323.58" x2="307.37" y2="100.31"/><line class="cls-8" x1="318.11" y1="323.83" x2="317.62" y2="100.31"/><line class="cls-8" x1="312.2" y1="323.83" x2="312.73" y2="100.31"/><line class="cls-8" x1="324.04" y1="323.83" x2="322.27" y2="100.31"/><path class="cls-8" d="M308.23,312.49h-41.4v14.3s14.55.71,22.68,5.92h18.72"/><path class="cls-8" d="M308.23,312.49h41.4v14.3s-14.55.71-22.68,5.92H308.23"/><path class="cls-8" d="M284.94,330.45s7.81-10.1,1.41-18"/><path class="cls-8" d="M331.62,330.45s-7.81-10.1-1.41-18"/><circle class="cls-9" cx="294.05" cy="323.83" r="2.37"/><circle class="cls-9" cx="300.05" cy="323.95" r="2.37"/><circle class="cls-9" cx="306.11" cy="323.95" r="2.37"/><circle class="cls-9" cx="312.2" cy="323.83" r="2.37"/><circle class="cls-9" cx="318.12" cy="323.83" r="2.37"/><circle class="cls-9" cx="324.04" cy="323.83" r="2.37"/><path class="cls-10" d="M291.67,316.48a.57.57,0,0,1,0-1.14l34.74-.92h0a.57.57,0,0,1,.57.55.57.57,0,0,1-.55.58l-34.74.93Z"/><circle class="cls-2" cx="304.67" cy="132.75" r="1.82"/><circle class="cls-2" cx="315.15" cy="132.67" r="1.82"/><line class="cls-11" x1="295.99" y1="116.1" x2="325.14" y2="116.1"/><line class="cls-8" x1="295.77" y1="127.57" x2="325.36" y2="127.57"/><line class="cls-8" x1="295.58" y1="137.92" x2="325.55" y2="137.92"/><line class="cls-8" x1="295.4" y1="148.09" x2="325.73" y2="148.09"/><line class="cls-8" x1="295.21" y1="159" x2="325.92" y2="159"/><line class="cls-8" x1="294.82" y1="182.67" x2="326.32" y2="182.67"/><line class="cls-8" x1="294.95" y1="174.54" x2="326.18" y2="174.54"/><line class="cls-8" x1="295.08" y1="166.58" x2="326.05" y2="166.58"/><line class="cls-8" x1="294.7" y1="190.26" x2="326.44" y2="190.26"/><line class="cls-8" x1="294.6" y1="197.1" x2="326.53" y2="197.1"/><line class="cls-8" x1="294.5" y1="203.75" x2="326.63" y2="203.75"/><circle class="cls-12" cx="294.05" cy="323.83" r="1.06"/><circle class="cls-12" cx="300.05" cy="323.95" r="1.06"/><circle class="cls-12" cx="306.11" cy="323.95" r="1.06"/><circle class="cls-12" cx="312.2" cy="323.83" r="1.06"/><circle class="cls-12" cx="318.12" cy="323.77" r="1.06"/><circle class="cls-12" cx="324.04" cy="323.83" r="1.06"/><rect class="cls-1" y="450.07" width="600" height="148.59"/><rect class="cls-1" y="0.34" width="600" height="148.59"/></g></g></svg>