<svg xmlns="http://www.w3.org/2000/svg" xmlns:xlink="http://www.w3.org/1999/xlink" viewBox="0 0 172.86 473.37"><defs><style>.cls-1{isolation:isolate;}.cls-10,.cls-11,.cls-12,.cls-15,.cls-19,.cls-2,.cls-37,.cls-38,.cls-39,.cls-4,.cls-40,.cls-41,.cls-42{fill:none;}.cls-11,.cls-12,.cls-13,.cls-14,.cls-16,.cls-17,.cls-18,.cls-19,.cls-2,.cls-20,.cls-21,.cls-22,.cls-23,.cls-24,.cls-25,.cls-26,.cls-30,.cls-35,.cls-6,.cls-8{stroke:#000;}.cls-11,.cls-12,.cls-13,.cls-14,.cls-15,.cls-16,.cls-17,.cls-18,.cls-19,.cls-2,.cls-20,.cls-21,.cls-22,.cls-23,.cls-24,.cls-25,.cls-26,.cls-29,.cls-30,.cls-31,.cls-32,.cls-33,.cls-34,.cls-35,.cls-36,.cls-37,.cls-38,.cls-39,.cls-40,.cls-41,.cls-42,.cls-6,.cls-8{stroke-miterlimit:10;}.cls-2,.cls-26,.cls-29,.cls-41,.cls-6{stroke-width:0.3px;}.cls-3{fill:#d55a15;}.cls-4{stroke:#231f20;stroke-width:0.91px;}.cls-5{mix-blend-mode:multiply;}.cls-6{fill:url(#linear-gradient);}.cls-7{fill:url(#radial-gradient);}.cls-8{fill:#1a1a1a;stroke-width:0.31px;}.cls-14,.cls-21,.cls-23,.cls-27,.cls-28,.cls-35,.cls-9{fill:#fff;}.cls-10{stroke:#fff;stroke-width:1.81px;}.cls-11{stroke-width:0.31px;}.cls-12{stroke-width:0.26px;}.cls-13,.cls-16{fill:#754c24;}.cls-13,.cls-31,.cls-38{stroke-width:0.6px;}.cls-14,.cls-30{stroke-width:0.08px;}.cls-15{stroke:#b3b3b3;stroke-linecap:round;stroke-width:0.3px;}.cls-16,.cls-19,.cls-22,.cls-35{stroke-width:0.3px;}.cls-17{fill:#ccc;stroke-width:0.25px;}.cls-18{stroke-width:0.03px;}.cls-20{stroke-width:0.01px;}.cls-21{stroke-width:0.48px;}.cls-23,.cls-25{stroke-width:0.08px;}.cls-24{fill:#666;stroke-width:0.13px;}.cls-25{fill:#999;}.cls-27{font-size:3.62px;letter-spacing:0.12em;}.cls-27,.cls-28{font-family:MyriadPro-Bold, Myriad Pro;font-weight:700;}.cls-28{font-size:2.72px;letter-spacing:0.13em;}.cls-29,.cls-31,.cls-32,.cls-33,.cls-34,.cls-36{fill:#b3b3b3;}.cls-29,.cls-31,.cls-32,.cls-33,.cls-34,.cls-36,.cls-37,.cls-38,.cls-39,.cls-40,.cls-41,.cls-42{stroke:#999;}.cls-30{fill:#fcfbe6;}.cls-32,.cls-39{stroke-width:0.53px;}.cls-33,.cls-40{stroke-width:0.45px;}.cls-34,.cls-37{stroke-width:0.23px;}.cls-36,.cls-42{stroke-width:0.38px;}</style><linearGradient id="linear-gradient" x1="0.45" y1="362.7" x2="171.52" y2="362.7" gradientUnits="userSpaceOnUse"><stop offset="0.38" stop-color="#fff"/><stop offset="0.39" stop-color="#e5e5e5"/><stop offset="0.45" stop-color="#959595"/><stop offset="0.5" stop-color="#555"/><stop offset="0.54" stop-color="#272727"/><stop offset="0.57" stop-color="#0b0b0b"/><stop offset="0.59"/></linearGradient><radialGradient id="radial-gradient" cx="86.82" cy="364.43" fx="160.7314356032674" r="118.36" gradientTransform="translate(456.11 290.27) rotate(91.97) scale(1 1.01)" gradientUnits="userSpaceOnUse"><stop offset="0.1" stop-color="#fff"/><stop offset="0.17" stop-color="#fff"/><stop offset="0.19" stop-color="#fff"/><stop offset="0.23" stop-color="#fafafa"/><stop offset="0.28" stop-color="#ededed"/><stop offset="0.34" stop-color="#d6d6d6"/><stop offset="0.4" stop-color="#b7b7b7"/><stop offset="0.45" stop-color="#8e8e8e"/><stop offset="0.51" stop-color="#5d5d5d"/><stop offset="0.57" stop-color="#232323"/><stop offset="0.6"/></radialGradient></defs><g class="cls-1"><g id="Layer_2" data-name="Layer 2"><g id="Layer_1-2" data-name="Layer 1"><path class="cls-2" d="M170.51,410.56c-2-48.37-40.36-62.67-30.79-84.85,15.09-35,26.27-73.07-54.66-72.77h1c-80.93-.3-69.76,37.74-54.66,72.77,9.57,22.18-28.8,36.48-30.8,84.85-.75,18.27,0,61.9,84.85,61.9C170.56,472.46,171.27,428.83,170.51,410.56Z"/><path class="cls-3" d="M170.51,410.56c-2-48.37-40.36-62.67-30.79-84.85,15.09-35,26.27-73.07-54.66-72.77h1c-80.93-.3-69.76,37.74-54.66,72.77,9.57,22.18-28.8,36.48-30.8,84.85-.75,18.27,0,61.9,84.85,61.9C170.56,472.46,171.27,428.83,170.51,410.56Z"/><path class="cls-4" d="M170.51,410.56c-2-48.37-40.36-62.67-30.79-84.85,15.09-35,26.27-73.07-54.66-72.77h1c-80.93-.3-69.76,37.74-54.66,72.77,9.57,22.18-28.8,36.48-30.8,84.85-.75,18.27,0,61.9,84.85,61.9C170.56,472.46,171.27,428.83,170.51,410.56Z"/><g class="cls-5"><path class="cls-6" d="M170.51,410.56c-2-48.37-40.36-62.67-30.79-84.85,15.09-35,26.27-73.07-54.66-72.77h1c-80.93-.3-69.76,37.74-54.66,72.77,9.57,22.18-28.8,36.48-30.8,84.85-.75,18.27,0,61.9,84.85,61.9C170.56,472.46,171.27,428.83,170.51,410.56Z"/><path class="cls-7" d="M170.51,410.56c-2-48.37-40.36-62.67-30.79-84.85,15.09-35,26.27-73.07-54.66-72.77h1c-80.93-.3-69.76,37.74-54.66,72.77,9.57,22.18-28.8,36.48-30.8,84.85-.75,18.27,0,61.9,84.85,61.9C170.56,472.46,171.27,428.83,170.51,410.56Z"/><path class="cls-4" d="M170.51,410.56c-2-48.37-40.36-62.67-30.79-84.85,15.09-35,26.27-73.07-54.66-72.77h1c-80.93-.3-69.76,37.74-54.66,72.77,9.57,22.18-28.8,36.48-30.8,84.85-.75,18.27,0,61.9,84.85,61.9C170.56,472.46,171.27,428.83,170.51,410.56Z"/></g><path class="cls-2" d="M171.85,410.56c-2-48.37-40.36-62.67-30.8-84.85,15.1-35,26.27-73.07-54.66-72.77h1c-80.92-.3-69.75,37.74-54.65,72.77,9.56,22.18-28.81,36.48-30.8,84.85-.76,18.27,0,61.9,84.85,61.9C171.9,472.46,172.6,428.83,171.85,410.56Z"/><circle class="cls-8" cx="87.22" cy="331.02" r="22.21"/><path class="cls-9" d="M87.22,307.92A23.11,23.11,0,1,1,64.11,331a23.12,23.12,0,0,1,23.11-23.1m0-1.81A24.92,24.92,0,1,0,112.13,331a24.92,24.92,0,0,0-24.91-24.91Z"/><path class="cls-2" d="M171.85,410.56c-2-48.37-40.36-62.67-30.8-84.85,15.1-35,26.27-73.07-54.66-72.77h1c-80.92-.3-69.75,37.74-54.65,72.77,9.56,22.18-28.81,36.48-30.8,84.85-.76,18.27,0,61.9,84.85,61.9C171.9,472.46,172.6,428.83,171.85,410.56Z"/><path class="cls-10" d="M171.85,410.56c-2-48.37-40.36-62.67-30.8-84.85,15.1-35,26.27-73.07-54.66-72.77h1c-80.92-.3-69.75,37.74-54.65,72.77,9.56,22.18-28.81,36.48-30.8,84.85-.76,18.27,0,61.9,84.85,61.9C171.9,472.46,172.6,428.83,171.85,410.56Z"/><path class="cls-4" d="M171.85,410.56c-2-48.37-40.36-62.67-30.8-84.85,15.1-35,26.27-73.07-54.66-72.77h1c-80.92-.3-69.75,37.74-54.65,72.77,9.56,22.18-28.81,36.48-30.8,84.85-.76,18.27,0,61.9,84.85,61.9C171.9,472.46,172.6,428.83,171.85,410.56Z"/><circle class="cls-11" cx="116.51" cy="323.79" r="1.06"/><line class="cls-12" x1="116.51" y1="323.22" x2="116.52" y2="324.38"/><line class="cls-12" x1="117.1" y1="323.81" x2="115.93" y2="323.79"/><path class="cls-13" d="M102.15,307.66H71.64Q73,195.11,74.41,82.57h25Q100.78,195.12,102.15,307.66Z"/><rect class="cls-14" x="80.83" y="158.39" width="13.44" height="2.49"/><rect class="cls-14" x="80.83" y="165.01" width="13.44" height="2.49"/><rect class="cls-14" x="76.68" y="161.7" width="21.44" height="2.49"/><rect class="cls-14" x="80.97" y="187.38" width="13.44" height="2.49"/><rect class="cls-14" x="80.97" y="193.99" width="13.44" height="2.49"/><rect class="cls-14" x="76.83" y="190.69" width="21.44" height="2.49"/><rect class="cls-14" x="80.97" y="212.28" width="13.44" height="2.49"/><rect class="cls-14" x="80.97" y="218.89" width="13.44" height="2.49"/><rect class="cls-14" x="76.83" y="215.58" width="21.44" height="2.49"/><line class="cls-15" x1="74.17" y1="102.45" x2="99.63" y2="102.45"/><line class="cls-15" x1="73.94" y1="121.08" x2="99.86" y2="121.08"/><line class="cls-15" x1="73.72" y1="138.52" x2="100.07" y2="138.52"/><line class="cls-15" x1="73.52" y1="154.98" x2="100.27" y2="154.98"/><line class="cls-15" x1="73.33" y1="170.33" x2="100.46" y2="170.33"/><line class="cls-15" x1="73.15" y1="184.82" x2="100.64" y2="184.82"/><line class="cls-15" x1="72.99" y1="198.14" x2="100.8" y2="198.14"/><line class="cls-15" x1="72.83" y1="210.93" x2="100.96" y2="210.93"/><line class="cls-15" x1="72.69" y1="222.67" x2="101.11" y2="222.67"/><line class="cls-15" x1="72.55" y1="233.68" x2="101.24" y2="233.68"/><line class="cls-15" x1="72.42" y1="244.05" x2="101.37" y2="244.05"/><line class="cls-15" x1="72.3" y1="253.88" x2="101.49" y2="253.88"/><line class="cls-15" x1="72.19" y1="262.93" x2="101.6" y2="262.93"/><line class="cls-15" x1="72.08" y1="271.72" x2="101.71" y2="271.72"/><line class="cls-15" x1="71.98" y1="279.72" x2="101.81" y2="279.72"/><line class="cls-15" x1="71.89" y1="287.33" x2="101.9" y2="287.33"/><line class="cls-15" x1="71.8" y1="294.61" x2="101.99" y2="294.61"/><line class="cls-15" x1="71.64" y1="301.36" x2="102.08" y2="301.36"/><rect class="cls-16" x="57.81" y="406.43" width="57.84" height="5.71"/><path class="cls-17" d="M102,419.9a141.25,141.25,0,0,0-30.21,0,4.15,4.15,0,0,0-3.7,4.69c2.31,16,4.7,31.66,7,47.62,3.89,0,7.69.13,11.55.13s8-.13,11.93-.13c2.32-16,4.81-31.66,7.12-47.62A4.15,4.15,0,0,0,102,419.9Zm-20.8,13.69c.8-1.26,2.72-3.43,5.36-.62a.51.51,0,0,0,.75,0c2.65-2.82,4.57-.65,5.37.61a1,1,0,0,1-.13,1.26,20.59,20.59,0,0,0-5.2,9.53.42.42,0,0,1-.82,0,20.59,20.59,0,0,0-5.2-9.52A1,1,0,0,1,81.15,433.59ZM78.4,460.53c-1.28-8.69-2.57-17.35-3.85-26a1.28,1.28,0,0,1,2-1.25,19.41,19.41,0,0,1,4.14,27.9A1.29,1.29,0,0,1,78.4,460.53Zm14.06,5.67c-.79,1.26-2.71,3.43-5.36.61a.51.51,0,0,0-.75,0c-2.64,2.81-4.57.64-5.36-.61a1,1,0,0,1,.13-1.26,20.68,20.68,0,0,0,5.2-9.53.42.42,0,0,1,.82,0,20.59,20.59,0,0,0,5.2,9.53A1,1,0,0,1,92.46,466.2Zm6.33-31.71c-1.28,8.69-2.57,17.35-3.86,26a1.29,1.29,0,0,1-2.29.61,19.43,19.43,0,0,1,4.14-27.9A1.29,1.29,0,0,1,98.79,434.49Z"/><path class="cls-18" d="M73.48,425.22l-.71,1.23a.46.46,0,0,0,.39.69h1.43a.46.46,0,0,0,.39-.69l-.71-1.23A.45.45,0,0,0,73.48,425.22Z"/><path class="cls-18" d="M78.46,425l-.71,1.23a.46.46,0,0,0,.4.69h1.42a.46.46,0,0,0,.4-.69L79.26,425A.46.46,0,0,0,78.46,425Z"/><path class="cls-18" d="M84,425l-.71,1.23a.46.46,0,0,0,.39.69h1.43a.46.46,0,0,0,.4-.69L84.76,425A.45.45,0,0,0,84,425Z"/><path class="cls-18" d="M89.22,425l-.72,1.23a.46.46,0,0,0,.4.69h1.43a.46.46,0,0,0,.39-.69L90,425A.45.45,0,0,0,89.22,425Z"/><path class="cls-18" d="M94.2,425l-.71,1.23a.46.46,0,0,0,.4.69h1.42a.46.46,0,0,0,.4-.69L95,425A.46.46,0,0,0,94.2,425Z"/><path class="cls-18" d="M99.58,425.22l-.71,1.23a.46.46,0,0,0,.39.69h1.43a.46.46,0,0,0,.4-.69l-.72-1.23A.45.45,0,0,0,99.58,425.22Z"/><rect class="cls-19" x="70.22" y="406.43" width="33.35" height="5.71"/><line class="cls-19" x1="70.22" y1="409.28" x2="103.56" y2="409.28"/><polygon class="cls-20" points="73.97 408.66 73.26 409.9 74.69 409.9 73.97 408.66"/><polygon class="cls-20" points="73.97 409.9 73.26 408.66 74.69 408.66 73.97 409.9"/><polygon class="cls-20" points="78.97 408.66 78.25 409.89 79.68 409.89 78.97 408.66"/><polygon class="cls-20" points="78.97 409.89 78.25 408.66 79.68 408.66 78.97 409.89"/><polygon class="cls-20" points="84.39 408.67 83.68 409.91 85.11 409.91 84.39 408.67"/><polygon class="cls-20" points="84.39 409.91 83.68 408.67 85.11 408.67 84.39 409.91"/><polygon class="cls-20" points="89.62 408.67 88.91 409.91 90.34 409.91 89.62 408.67"/><polygon class="cls-20" points="89.62 409.91 88.91 408.67 90.34 408.67 89.62 409.91"/><polygon class="cls-20" points="94.56 408.67 93.84 409.91 95.27 409.91 94.56 408.67"/><polygon class="cls-20" points="94.56 409.91 93.84 408.67 95.27 408.67 94.56 409.91"/><polygon class="cls-20" points="99.87 408.64 99.16 409.88 100.58 409.88 99.87 408.64"/><polygon class="cls-20" points="99.87 409.88 99.16 408.64 100.58 408.64 99.87 409.88"/><path class="cls-21" d="M111.38,318.48a1.61,1.61,0,0,0-1.46,2.28,24.93,24.93,0,0,1-17.34,34.6,1.9,1.9,0,0,0-1.48,1.86v29.62a9.75,9.75,0,0,0,9.76,9.75h13.85a17.09,17.09,0,0,0,17.09-17.08V344.1a29.41,29.41,0,0,0-4.6-16c-3.54-5.5-8.77-9.64-15.82-9.64Z"/><circle class="cls-11" cx="116.74" cy="323.99" r="1.06"/><line class="cls-12" x1="116.74" y1="323.42" x2="116.75" y2="324.59"/><line class="cls-12" x1="117.33" y1="324.01" x2="116.16" y2="324"/><circle class="cls-11" cx="95.5" cy="358.69" r="1.06"/><line class="cls-12" x1="95.5" y1="358.12" x2="95.51" y2="359.29"/><line class="cls-12" x1="96.08" y1="358.71" x2="94.92" y2="358.7"/><circle class="cls-11" cx="95.5" cy="386.16" r="1.06"/><line class="cls-12" x1="95.49" y1="385.59" x2="95.5" y2="386.76"/><line class="cls-12" x1="96.08" y1="386.18" x2="94.91" y2="386.17"/><circle class="cls-11" cx="124.13" cy="387.22" r="1.06"/><line class="cls-12" x1="124.12" y1="386.65" x2="124.14" y2="387.82"/><line class="cls-12" x1="124.71" y1="387.24" x2="123.55" y2="387.23"/><path class="cls-22" d="M86.89,82.63H99.58l.11-1.09a48.11,48.11,0,0,1,3.59-14.06,6.5,6.5,0,0,0,.52-2.58V4a1.2,1.2,0,0,0-1-1.2L89.86.39a18.5,18.5,0,0,0-5.94,0L71,2.77A1.21,1.21,0,0,0,70,4V65a5.94,5.94,0,0,0,.49,2.39A48.35,48.35,0,0,1,74.1,81.54l.11,1.09Z"/><polygon class="cls-23" points="86.05 27.83 87.17 25.48 88.35 27.8 90.93 28.14 89.09 29.98 89.56 32.54 87.24 31.35 84.96 32.59 85.37 30.02 83.48 28.23 86.05 27.83"/><circle class="cls-24" cx="77.38" cy="37.79" r="2.46"/><circle class="cls-24" cx="77.38" cy="19.37" r="2.46"/><circle class="cls-24" cx="97.31" cy="19.37" r="2.46"/><circle class="cls-24" cx="97.31" cy="37.79" r="2.46"/><circle class="cls-25" cx="77.38" cy="19.37" r="1.51"/><circle class="cls-25" cx="97.31" cy="19.37" r="1.51"/><circle class="cls-25" cx="97.31" cy="37.79" r="1.51"/><circle class="cls-24" cx="97.31" cy="55.31" r="2.46"/><circle class="cls-24" cx="77.38" cy="55.31" r="2.46"/><circle class="cls-25" cx="77.38" cy="37.79" r="1.51"/><circle class="cls-25" cx="77.38" cy="55.32" r="1.51"/><circle class="cls-25" cx="97.31" cy="55.31" r="1.51"/><rect class="cls-26" x="103.05" y="42.02" width="2.11" height="1.21"/><rect class="cls-26" x="102.44" y="23.3" width="2.11" height="1.21"/><rect class="cls-26" x="102.75" y="58.63" width="2.11" height="1.21"/><rect class="cls-26" x="68.32" y="42.02" width="2.11" height="1.21" transform="translate(138.76 85.25) rotate(-180)"/><rect class="cls-26" x="68.93" y="23.3" width="2.11" height="1.21" transform="translate(139.97 47.81) rotate(-180)"/><rect class="cls-26" x="68.62" y="58.63" width="2.11" height="1.21" transform="translate(139.36 118.47) rotate(-180)"/><path class="cls-9" d="M82.91,7.12c-.14.07,2,.5,2-1.06.23-3.52-5.27-2.85-4.85-.17,1.81,11.48-4.66,6.66-3.24,4.56.76-1.11,2.51-1.17,2.56.09S78.05,10.9,78,11c-.34.35.59,1.41,1.55.77,2-1.31-1.38-4.72-3.37-1.9-2.82,4,6.65,8.15,5.44-2.12C80.92,1.89,86.09,5.42,82.91,7.12Z"/><path class="cls-9" d="M83.22,13s-.79,1-.82.52S84,10.26,84,10.26l.92-.07.29-.39-1,0,.82-1.21-.63-.06-.91,1.14H82.27l-.17.5h1s-2.55,3.41-1.31,3.93a1.51,1.51,0,0,0,1.9-.79Z"/><path class="cls-9" d="M87.9,9.83c-.59-1.73-5.19,1.07-3.59,3.91.54,1,2.5,0,2.61-.93a0,0,0,0,0,0,0s-1.79.94-1.89,0C84.92,12,88.53,11.66,87.9,9.83ZM86,10.29c.53-.31,1-.41,1.16-.23s-.24.59-.78.9-1,.4-1.15.22S85.5,10.6,86,10.29Z"/><path class="cls-9" d="M89.45,7.35s1,.36,2.16-1l.59.2s-5,7.28-4,7,.72-.39.72-.39,1.08-.2.26.65-3.41.53-.92-3,2-2.82,2-2.82l-1.08,0Z"/><path class="cls-9" d="M91.84,7.35s1,.36,2.17-1l.59.2s-5,7.28-4,7,.72-.39.72-.39,1.09-.2.27.65-3.41.53-.92-3,2-2.82,2-2.82l-1.08,0Z"/><path class="cls-9" d="M96.73,12.49c-.43-.43-.89.64-1.55.89s.81-1.67,1.3-2.61-.8-.43-.8-.43a1.12,1.12,0,0,0-.48-1c-.68-.39-1.86.43-2.58,1.68s-.7,2.78.07,2.83a2.26,2.26,0,0,0,1.54-.48s-.41.66.3.77C95.53,14.33,97.15,12.91,96.73,12.49Zm-2.15-.58c-.55.78-1.2,1.26-1.46,1.08s0-1,.53-1.73,1.2-1.26,1.45-1.08S95.13,11.14,94.58,11.91Z"/><text class="cls-27" transform="translate(81.49 62.77)">STEEL</text><text class="cls-28" transform="translate(83.47 69.49)">NECK</text><path class="cls-9" d="M78.9,65.73a4.91,4.91,0,0,1,.57-.24,1.09,1.09,0,0,1,.67-.06.42.42,0,0,1,.28.31.49.49,0,0,1-.2.54h0a.47.47,0,0,1,.34.25c.12.18.24.4.3.46l-.42.12a2.61,2.61,0,0,1-.25-.37c-.12-.2-.22-.23-.39-.18l-.13,0c.08.22.16.45.23.68l-.39.14C79.31,66.86,79.11,66.29,78.9,65.73Zm.69.59.16,0c.21-.07.31-.21.26-.36s-.2-.21-.4-.14l-.19.07Z"/><path class="cls-9" d="M82.06,65.88l-.69.16.11.42.75-.18c0,.11,0,.22.08.33l-1.16.29c-.16-.58-.33-1.17-.49-1.76.4-.11.8-.21,1.21-.3,0,.11,0,.22.07.33q-.37.08-.75.18l.09.37.7-.17Z"/><path class="cls-9" d="M82.72,64.66c.12.6.23,1.2.35,1.79l-.42.09c-.13-.6-.25-1.2-.38-1.79Z"/><path class="cls-9" d="M83.48,66.38c-.1-.6-.2-1.2-.31-1.81l.53-.08c.17.2.34.4.5.61a3.92,3.92,0,0,1,.39.58h0a5.46,5.46,0,0,1-.13-.76l-.06-.53.41,0c.06.6.13,1.21.19,1.82l-.44,0c-.16-.22-.32-.44-.49-.65s-.3-.39-.43-.59h0c0,.24.1.5.14.79l.09.55Z"/><path class="cls-9" d="M85.28,64.3c.4,0,.81-.06,1.22-.07,0,.11,0,.22,0,.33l-.76,0,0,.41.7,0v.34l-.68,0c0,.24,0,.49,0,.73l-.42,0C85.38,65.52,85.33,64.91,85.28,64.3Z"/><path class="cls-9" d="M88.7,65.13a.91.91,0,0,1-1,.94.95.95,0,0,1,.05-1.89A.86.86,0,0,1,88.7,65.13Zm-1.4,0c0,.36.18.61.46.61s.46-.26.47-.61-.15-.62-.46-.62S87.3,64.77,87.3,65.13Z"/><path class="cls-9" d="M89.1,64.28a4.3,4.3,0,0,1,.61,0,1.09,1.09,0,0,1,.63.21.44.44,0,0,1,.13.4.5.5,0,0,1-.39.41h0a.44.44,0,0,1,.21.37c0,.21.07.45.09.53l-.42,0a1.83,1.83,0,0,1-.09-.44c0-.23-.1-.3-.28-.32h-.13l-.06.72-.41,0C89,65.49,89.06,64.88,89.1,64.28Zm.38.82.18,0c.21,0,.35-.07.37-.23s-.1-.27-.3-.29h-.2Z"/><path class="cls-9" d="M92,66.43a1.29,1.29,0,0,1-.48,0,.92.92,0,0,1-.85-1.06,1,1,0,0,1,1.22-.79,1.25,1.25,0,0,1,.47.17l-.15.3a1.05,1.05,0,0,0-.36-.13.6.6,0,1,0-.21,1.18.89.89,0,0,0,.36,0Z"/><path class="cls-9" d="M93.63,66.06l-.7-.17-.09.42.75.19-.08.33c-.39-.11-.78-.2-1.17-.28.13-.6.26-1.2.38-1.79.41.08.81.18,1.22.29l-.09.32-.76-.18-.08.37.7.17Z"/><path class="cls-9" d="M94.33,65.18a3.47,3.47,0,0,1,.61.14,1.34,1.34,0,0,1,.73.44.77.77,0,0,1,.08.76.92.92,0,0,1-.55.6,1.5,1.5,0,0,1-.9-.05,3.44,3.44,0,0,1-.45-.16Zm0,1.56.14.05a.59.59,0,0,0,.82-.41.53.53,0,0,0-.41-.74l-.2,0C94.57,66,94.46,66.36,94.34,66.74Z"/><line class="cls-29" x1="98.31" y1="40.45" x2="98.63" y2="38.14"/><ellipse class="cls-30" cx="108.18" cy="42.47" rx="3.32" ry="5.28"/><ellipse class="cls-30" cx="107.58" cy="23.75" rx="3.32" ry="5.28"/><ellipse class="cls-30" cx="107.88" cy="59.08" rx="3.32" ry="5.28"/><ellipse class="cls-30" cx="65.3" cy="42.47" rx="3.32" ry="5.28"/><ellipse class="cls-30" cx="65.91" cy="23.75" rx="3.32" ry="5.28"/><ellipse class="cls-30" cx="65.61" cy="59.08" rx="3.32" ry="5.28"/><line class="cls-31" x1="81.09" y1="55.23" x2="78.53" y2="55.76"/><line class="cls-32" x1="73.35" y1="33.88" x2="76.35" y2="38.41"/><line class="cls-33" x1="77.58" y1="18.14" x2="80.92" y2="18.24"/><line class="cls-34" x1="97.27" y1="53.89" x2="100.06" y2="53.96"/><path class="cls-35" d="M74.44,80H99.17a.74.74,0,0,1,.74.74v1.91a0,0,0,0,1,0,0H73.69a0,0,0,0,1,0,0V80.76A.74.74,0,0,1,74.44,80Z"/><line class="cls-36" x1="95.99" y1="19.04" x2="94.39" y2="17.14"/><polyline class="cls-37" points="97.5 82.68 97.5 80.02 95.93 55.27"/><polyline class="cls-38" points="75.56 82.61 75.56 79.96 78.14 56.22"/><polyline class="cls-39" points="80.63 82.68 80.63 80.02 78.66 37.87"/><polyline class="cls-40" points="84.81 82.68 84.81 80.02 78.61 19.52"/><polyline class="cls-41" points="93.64 82.7 93.64 80.05 96 37.82"/><polyline class="cls-42" points="89.39 82.68 89.39 80.02 96.04 19.4"/><line class="cls-38" x1="75.96" y1="82.68" x2="73.87" y2="425.25"/><line class="cls-39" x1="80.63" y1="82.68" x2="78.86" y2="425.25"/><line class="cls-40" x1="84.81" y1="82.68" x2="84.37" y2="425.38"/><line class="cls-42" x1="89.38" y1="82.68" x2="89.61" y2="425.38"/><line class="cls-41" x1="93.44" y1="82.68" x2="94.6" y2="425.51"/><line class="cls-37" x1="97.5" y1="82.68" x2="99.98" y2="424.99"/></g></g></g></svg>