<svg xmlns="http://www.w3.org/2000/svg" viewBox="0 0 600 600"><defs><style>.cls-1,.cls-11,.cls-12,.cls-13,.cls-14,.cls-15,.cls-16,.cls-17,.cls-18,.cls-6,.cls-8{fill:none;}.cls-2{fill:#205077;}.cls-3{fill:#fffb6e;}.cls-10,.cls-4,.cls-7,.cls-9{fill:#fff;}.cls-5{fill:#e51729;}.cls-10,.cls-6,.cls-7,.cls-8,.cls-9{stroke:#000;}.cls-10,.cls-11,.cls-12,.cls-13,.cls-14,.cls-15,.cls-16,.cls-17,.cls-18,.cls-6,.cls-7,.cls-8,.cls-9{stroke-miterlimit:10;}.cls-6{stroke-width:4.63px;}.cls-7{stroke-width:1.07px;}.cls-8{stroke-width:3.69px;}.cls-9{stroke-width:1.28px;}.cls-10{stroke-width:0.26px;}.cls-11,.cls-12,.cls-14,.cls-15,.cls-16,.cls-17,.cls-18{stroke:#666;}.cls-11,.cls-12,.cls-14{stroke-linecap:round;}.cls-11,.cls-17{stroke-width:0.62px;}.cls-12,.cls-16{stroke-width:1.23px;}.cls-13{stroke:#4d4d4d;stroke-width:3.08px;}.cls-14,.cls-15{stroke-width:1.85px;}.cls-18{stroke-width:0.46px;}</style></defs><g id="Layer_2" data-name="Layer 2"><g id="Layer_1-2" data-name="Layer 1"><rect class="cls-1" width="600" height="600"/><path class="cls-2" d="M401,152.68C386.5,177.25,371,212,366.7,273.48H234.2C230,212,214.4,177.24,199.85,152.68"/><path class="cls-3" d="M372.47,279.65H228.42l-.39-5.76c-4.26-61.67-21-98.65-34.39-121.21H206.1c13.63,23,28.83,54,33.83,114.61H361c5-60.66,19.29-91.59,32.92-114.61h12.48C393,175.26,377.12,212.23,372.87,273.9Z"/><path class="cls-4" d="M334.56,152.68c-.16-.29-.26-.44-.42-.73H300.41c-10,0-33.4-.5-33.4-.5-7,12.4-12.2,24.06-13,28.6-1.81,10.89,28.69,83.14,28.69,83.14h20"/><path class="cls-4" d="M298.19,263.19h20s30.5-72.25,28.68-83.14c-.73-4.39-5.59-15.44-12.27-27.38"/><path class="cls-4" d="M335.81,152.68c6.29,11.34,11.3,22.44,12.09,27.21s-3.82,20.25-13.71,46.22c-7.32,19.21-15,37.33-15,37.52l-.28.66H282l-.28-.66c-.08-.19-7.72-18.31-15-37.52-9.89-26-14.51-41.53-13.71-46.23s5.8-15.87,12.11-27.2m2.47,0c-6.73,11.92-11.69,23-12.45,27.56-.41,2.46.82,11.53,13.6,45.09,6.51,17.1,13.28,33.34,14.73,36.79h34c1.44-3.45,8.21-19.69,14.73-36.79,12.78-33.56,14-42.66,13.6-45.09"/><path d="M270.6,189.22a5.9,5.9,0,1,1,5.9-5.89h0A5.9,5.9,0,0,1,270.6,189.22Zm0-11.07a5.16,5.16,0,1,0,5.16,5.16h0a5.16,5.16,0,0,0-5.16-5.14Z"/><rect class="cls-5" x="270.05" y="179.66" width="1.11" height="7.33" transform="translate(-43.08 275.19) rotate(-50.44)"/><path d="M331.73,189.22a6.26,6.26,0,0,1-1.23-.12,6,6,0,1,1,1.23.12Zm0-11.07a5.17,5.17,0,0,0,0,10.34,5.1,5.1,0,0,0,2.82-.84h0a5.16,5.16,0,0,0-1.72-9.38,6,6,0,0,0-1.11-.11Z"/><rect class="cls-5" x="328.07" y="182.78" width="7.33" height="1.11" transform="translate(111.38 491.72) rotate(-83.38)"/><path class="cls-6" d="M371.39,448.55c-.73-38-2.19-124.76-2.92-162.77H231.89c-.73,38-2.08,124.76-2.81,162.77"/><path class="cls-7" d="M223.18,266.6H376.83a5.18,5.18,0,0,1,5.18,5.17h0v14.3H218.89V270.89A4.3,4.3,0,0,1,223.18,266.6Z"/><path class="cls-7" d="M219.7,285.26H381.19V271.77a4.38,4.38,0,0,0-4.36-4.36H223.18a3.48,3.48,0,0,0-3.48,3.48Z"/><line class="cls-8" x1="229.86" y1="389.71" x2="371.39" y2="389.71"/><rect class="cls-9" x="229.5" y="387.64" width="141" height="5.12"/><path class="cls-10" d="M366,390.21s.22,2.68,4.63,2.68v-5.38C366.21,387.51,366,390.21,366,390.21Z"/><path class="cls-10" d="M234,390.18s-.22-2.68-4.63-2.68v5.38C233.79,392.88,234,390.18,234,390.18Z"/><line class="cls-11" x1="328.45" y1="152.81" x2="331.34" y2="153.29"/><line class="cls-11" x1="328.32" y1="153.57" x2="331.21" y2="154.05"/><line class="cls-11" x1="328.2" y1="154.33" x2="331.08" y2="154.81"/><line class="cls-11" x1="328.07" y1="155.09" x2="330.96" y2="155.57"/><line class="cls-11" x1="327.94" y1="155.85" x2="330.83" y2="156.33"/><line class="cls-11" x1="327.82" y1="156.61" x2="330.71" y2="157.09"/><line class="cls-11" x1="327.69" y1="157.37" x2="330.58" y2="157.85"/><line class="cls-11" x1="327.56" y1="158.12" x2="330.45" y2="158.61"/><line class="cls-11" x1="327.43" y1="158.88" x2="330.32" y2="159.37"/><line class="cls-11" x1="327.3" y1="159.64" x2="330.2" y2="160.13"/><line class="cls-11" x1="327.18" y1="160.4" x2="330.07" y2="160.89"/><line class="cls-11" x1="327.05" y1="161.16" x2="329.94" y2="161.64"/><line class="cls-11" x1="326.92" y1="161.92" x2="329.81" y2="162.41"/><line class="cls-11" x1="326.79" y1="162.68" x2="329.69" y2="163.16"/><line class="cls-11" x1="326.67" y1="163.44" x2="329.56" y2="163.93"/><line class="cls-11" x1="326.54" y1="164.2" x2="329.43" y2="164.68"/><line class="cls-11" x1="326.41" y1="164.96" x2="329.3" y2="165.44"/><line class="cls-11" x1="326.29" y1="165.72" x2="329.18" y2="166.2"/><line class="cls-11" x1="326.16" y1="166.48" x2="329.05" y2="166.96"/><line class="cls-11" x1="326.03" y1="167.24" x2="328.92" y2="167.72"/><line class="cls-11" x1="325.91" y1="168" x2="328.8" y2="168.48"/><line class="cls-11" x1="325.78" y1="168.76" x2="328.67" y2="169.24"/><line class="cls-11" x1="325.66" y1="169.52" x2="328.54" y2="170"/><line class="cls-11" x1="325.53" y1="170.27" x2="328.42" y2="170.76"/><line class="cls-11" x1="325.4" y1="171.04" x2="328.29" y2="171.52"/><line class="cls-11" x1="325.27" y1="171.79" x2="328.17" y2="172.28"/><line class="cls-11" x1="325.15" y1="172.56" x2="328.04" y2="173.04"/><line class="cls-11" x1="325.02" y1="173.31" x2="327.91" y2="173.8"/><line class="cls-11" x1="324.89" y1="174.07" x2="327.78" y2="174.55"/><line class="cls-11" x1="324.76" y1="174.83" x2="327.66" y2="175.32"/><line class="cls-11" x1="268.51" y1="153.19" x2="271.41" y2="152.73"/><line class="cls-11" x1="268.64" y1="153.95" x2="271.53" y2="153.49"/><line class="cls-11" x1="268.75" y1="154.7" x2="271.65" y2="154.26"/><line class="cls-11" x1="268.88" y1="155.47" x2="271.77" y2="155.01"/><line class="cls-11" x1="268.99" y1="156.23" x2="271.89" y2="155.78"/><line class="cls-11" x1="269.11" y1="156.99" x2="272.01" y2="156.54"/><line class="cls-11" x1="269.23" y1="157.75" x2="272.12" y2="157.29"/><line class="cls-11" x1="269.35" y1="158.51" x2="272.25" y2="158.06"/><line class="cls-11" x1="269.47" y1="159.27" x2="272.36" y2="158.82"/><line class="cls-11" x1="269.59" y1="160.03" x2="272.48" y2="159.58"/><line class="cls-11" x1="269.71" y1="160.79" x2="272.6" y2="160.34"/><line class="cls-11" x1="269.82" y1="161.55" x2="272.72" y2="161.1"/><line class="cls-11" x1="269.95" y1="162.31" x2="272.84" y2="161.86"/><line class="cls-11" x1="270.06" y1="163.08" x2="272.96" y2="162.62"/><line class="cls-11" x1="270.18" y1="163.83" x2="273.08" y2="163.38"/><line class="cls-11" x1="270.3" y1="164.6" x2="273.2" y2="164.14"/><line class="cls-11" x1="270.42" y1="165.36" x2="273.32" y2="164.9"/><line class="cls-11" x1="270.54" y1="166.12" x2="273.43" y2="165.67"/><line class="cls-11" x1="270.66" y1="166.88" x2="273.56" y2="166.42"/><line class="cls-11" x1="270.78" y1="167.64" x2="273.67" y2="167.19"/><line class="cls-11" x1="270.9" y1="168.4" x2="273.79" y2="167.95"/><line class="cls-11" x1="271.02" y1="169.16" x2="273.91" y2="168.7"/><line class="cls-11" x1="271.13" y1="169.92" x2="274.03" y2="169.47"/><line class="cls-11" x1="271.26" y1="170.68" x2="274.15" y2="170.23"/><line class="cls-11" x1="271.37" y1="171.44" x2="274.27" y2="170.99"/><line class="cls-11" x1="271.49" y1="172.2" x2="274.39" y2="171.75"/><line class="cls-11" x1="271.61" y1="172.96" x2="274.51" y2="172.51"/><line class="cls-11" x1="271.73" y1="173.72" x2="274.63" y2="173.27"/><line class="cls-11" x1="271.85" y1="174.49" x2="274.74" y2="174.03"/><line class="cls-11" x1="271.97" y1="175.24" x2="274.87" y2="174.79"/><line class="cls-12" x1="246.53" y1="153.87" x2="249.43" y2="153.43"/><line class="cls-12" x1="246.74" y1="155.24" x2="249.63" y2="154.79"/><line class="cls-12" x1="246.95" y1="156.6" x2="249.84" y2="156.16"/><line class="cls-12" x1="247.16" y1="157.96" x2="250.05" y2="157.52"/><line class="cls-12" x1="247.37" y1="159.32" x2="250.26" y2="158.88"/><line class="cls-12" x1="247.57" y1="160.68" x2="250.47" y2="160.24"/><line class="cls-12" x1="247.79" y1="162.05" x2="250.68" y2="161.6"/><line class="cls-12" x1="248" y1="163.41" x2="250.9" y2="162.96"/><line class="cls-12" x1="248.21" y1="164.77" x2="251.1" y2="164.33"/><line class="cls-12" x1="248.42" y1="166.13" x2="251.31" y2="165.68"/><line class="cls-12" x1="248.63" y1="167.49" x2="251.52" y2="167.04"/><line class="cls-12" x1="248.84" y1="168.85" x2="251.73" y2="168.41"/><line class="cls-12" x1="249.04" y1="170.22" x2="251.94" y2="169.77"/><line class="cls-12" x1="249.25" y1="171.58" x2="252.15" y2="171.13"/><line class="cls-12" x1="249.47" y1="172.94" x2="252.36" y2="172.49"/><line class="cls-12" x1="249.68" y1="174.3" x2="252.58" y2="173.85"/><rect x="240.61" y="266.6" width="5.62" height="19.47"/><line class="cls-1" x1="265.71" y1="266.6" x2="265.71" y2="286.07"/><rect x="263.46" y="266.6" width="4.5" height="19.47"/><line class="cls-1" x1="357.29" y1="266.6" x2="357.29" y2="286.07"/><rect x="356.73" y="266.6" width="1.13" height="19.47"/><line class="cls-1" x1="334.34" y1="266.6" x2="334.34" y2="286.07"/><rect x="333.5" y="266.6" width="1.69" height="19.47"/><line class="cls-1" x1="311.4" y1="266.6" x2="311.4" y2="286.07"/><rect x="310.27" y="266.6" width="2.25" height="19.47"/><line class="cls-1" x1="287.99" y1="266.6" x2="287.99" y2="286.07"/><rect x="286.3" y="266.6" width="3.38" height="19.47"/><line class="cls-13" x1="243.12" y1="448.54" x2="243.21" y2="266.92"/><line class="cls-14" x1="241.26" y1="269.07" x2="245.02" y2="269.07"/><line class="cls-12" x1="263.94" y1="267.57" x2="266.86" y2="267.57"/><line class="cls-11" x1="286.5" y1="267.41" x2="289.43" y2="267.41"/><line class="cls-11" x1="286.5" y1="268.18" x2="289.43" y2="268.18"/><line class="cls-11" x1="286.5" y1="268.95" x2="289.43" y2="268.95"/><line class="cls-11" x1="286.5" y1="269.72" x2="289.43" y2="269.72"/><line class="cls-11" x1="286.5" y1="270.49" x2="289.43" y2="270.49"/><line class="cls-11" x1="286.5" y1="271.26" x2="289.43" y2="271.26"/><line class="cls-11" x1="286.5" y1="272.03" x2="289.43" y2="272.03"/><line class="cls-11" x1="286.5" y1="272.8" x2="289.43" y2="272.8"/><line class="cls-11" x1="286.5" y1="273.57" x2="289.43" y2="273.57"/><line class="cls-11" x1="286.5" y1="274.34" x2="289.43" y2="274.34"/><line class="cls-11" x1="286.5" y1="275.11" x2="289.43" y2="275.11"/><line class="cls-11" x1="286.5" y1="275.88" x2="289.43" y2="275.88"/><line class="cls-11" x1="286.5" y1="276.65" x2="289.43" y2="276.65"/><line class="cls-11" x1="286.5" y1="277.42" x2="289.43" y2="277.42"/><line class="cls-11" x1="286.5" y1="278.19" x2="289.43" y2="278.19"/><line class="cls-11" x1="286.5" y1="278.96" x2="289.43" y2="278.96"/><line class="cls-11" x1="286.5" y1="279.73" x2="289.43" y2="279.73"/><line class="cls-11" x1="286.5" y1="280.5" x2="289.43" y2="280.5"/><line class="cls-11" x1="286.5" y1="281.27" x2="289.43" y2="281.27"/><line class="cls-11" x1="286.5" y1="282.04" x2="289.43" y2="282.04"/><line class="cls-11" x1="286.5" y1="282.81" x2="289.43" y2="282.81"/><line class="cls-11" x1="286.5" y1="283.58" x2="289.43" y2="283.58"/><line class="cls-11" x1="286.5" y1="284.35" x2="289.43" y2="284.35"/><line class="cls-11" x1="286.5" y1="285.12" x2="289.43" y2="285.12"/><line class="cls-11" x1="286.5" y1="285.89" x2="289.43" y2="285.89"/><line class="cls-11" x1="286.5" y1="286.66" x2="289.43" y2="286.66"/><line class="cls-11" x1="286.5" y1="287.43" x2="289.43" y2="287.43"/><line class="cls-11" x1="286.5" y1="288.2" x2="289.43" y2="288.2"/><line class="cls-11" x1="286.5" y1="288.97" x2="289.43" y2="288.97"/><line class="cls-11" x1="286.5" y1="289.74" x2="289.43" y2="289.74"/><line class="cls-11" x1="286.5" y1="290.51" x2="289.43" y2="290.51"/><line class="cls-11" x1="286.5" y1="291.28" x2="289.43" y2="291.28"/><line class="cls-11" x1="286.5" y1="292.05" x2="289.43" y2="292.05"/><line class="cls-11" x1="286.5" y1="292.82" x2="289.43" y2="292.82"/><line class="cls-11" x1="286.5" y1="293.59" x2="289.43" y2="293.59"/><line class="cls-11" x1="286.5" y1="294.36" x2="289.43" y2="294.36"/><line class="cls-11" x1="286.5" y1="295.13" x2="289.43" y2="295.13"/><line class="cls-11" x1="286.5" y1="295.9" x2="289.43" y2="295.9"/><line class="cls-11" x1="286.5" y1="296.67" x2="289.43" y2="296.67"/><line class="cls-11" x1="286.5" y1="297.44" x2="289.43" y2="297.44"/><line class="cls-11" x1="286.5" y1="298.21" x2="289.43" y2="298.21"/><line class="cls-11" x1="286.5" y1="298.98" x2="289.43" y2="298.98"/><line class="cls-11" x1="286.5" y1="299.75" x2="289.43" y2="299.75"/><line class="cls-11" x1="286.5" y1="300.52" x2="289.43" y2="300.52"/><line class="cls-11" x1="286.5" y1="301.29" x2="289.43" y2="301.29"/><line class="cls-11" x1="286.5" y1="302.06" x2="289.43" y2="302.06"/><line class="cls-11" x1="286.5" y1="302.83" x2="289.43" y2="302.83"/><line class="cls-11" x1="286.5" y1="303.6" x2="289.43" y2="303.6"/><line class="cls-11" x1="286.5" y1="304.37" x2="289.43" y2="304.37"/><line class="cls-11" x1="286.5" y1="305.14" x2="289.43" y2="305.14"/><line class="cls-11" x1="286.5" y1="305.91" x2="289.43" y2="305.91"/><line class="cls-11" x1="286.5" y1="306.68" x2="289.43" y2="306.68"/><line class="cls-11" x1="286.5" y1="307.45" x2="289.43" y2="307.45"/><line class="cls-11" x1="286.5" y1="308.22" x2="289.43" y2="308.22"/><line class="cls-11" x1="286.5" y1="308.99" x2="289.43" y2="308.99"/><line class="cls-11" x1="286.5" y1="309.76" x2="289.43" y2="309.76"/><line class="cls-11" x1="286.5" y1="310.53" x2="289.43" y2="310.53"/><line class="cls-11" x1="286.5" y1="311.3" x2="289.43" y2="311.3"/><line class="cls-11" x1="286.5" y1="312.07" x2="289.43" y2="312.07"/><line class="cls-11" x1="286.5" y1="312.84" x2="289.43" y2="312.84"/><line class="cls-11" x1="286.5" y1="313.61" x2="289.43" y2="313.61"/><line class="cls-11" x1="286.5" y1="314.38" x2="289.43" y2="314.38"/><line class="cls-11" x1="286.5" y1="315.15" x2="289.43" y2="315.15"/><line class="cls-11" x1="286.5" y1="315.92" x2="289.43" y2="315.92"/><line class="cls-11" x1="286.5" y1="316.69" x2="289.43" y2="316.69"/><line class="cls-11" x1="286.5" y1="317.46" x2="289.43" y2="317.46"/><line class="cls-11" x1="286.5" y1="318.23" x2="289.43" y2="318.23"/><line class="cls-11" x1="286.5" y1="319" x2="289.43" y2="319"/><line class="cls-11" x1="286.5" y1="319.77" x2="289.43" y2="319.77"/><line class="cls-11" x1="286.5" y1="320.54" x2="289.43" y2="320.54"/><line class="cls-11" x1="286.5" y1="321.31" x2="289.43" y2="321.31"/><line class="cls-11" x1="286.5" y1="322.08" x2="289.43" y2="322.08"/><line class="cls-11" x1="286.5" y1="322.85" x2="289.43" y2="322.85"/><line class="cls-11" x1="286.5" y1="323.62" x2="289.43" y2="323.62"/><line class="cls-11" x1="286.5" y1="324.39" x2="289.43" y2="324.39"/><line class="cls-11" x1="286.5" y1="325.16" x2="289.43" y2="325.16"/><line class="cls-11" x1="286.5" y1="325.93" x2="289.43" y2="325.93"/><line class="cls-11" x1="286.5" y1="326.7" x2="289.43" y2="326.7"/><line class="cls-11" x1="286.5" y1="327.47" x2="289.43" y2="327.47"/><line class="cls-11" x1="286.5" y1="328.24" x2="289.43" y2="328.24"/><line class="cls-11" x1="286.5" y1="329.01" x2="289.43" y2="329.01"/><line class="cls-11" x1="286.5" y1="329.78" x2="289.43" y2="329.78"/><line class="cls-11" x1="286.5" y1="330.55" x2="289.43" y2="330.55"/><line class="cls-11" x1="286.5" y1="331.32" x2="289.43" y2="331.32"/><line class="cls-11" x1="286.5" y1="332.09" x2="289.43" y2="332.09"/><line class="cls-11" x1="286.5" y1="332.86" x2="289.43" y2="332.86"/><line class="cls-11" x1="286.5" y1="333.63" x2="289.43" y2="333.63"/><line class="cls-11" x1="286.5" y1="334.4" x2="289.43" y2="334.4"/><line class="cls-11" x1="286.5" y1="335.17" x2="289.43" y2="335.17"/><line class="cls-11" x1="286.5" y1="335.94" x2="289.43" y2="335.94"/><line class="cls-11" x1="286.5" y1="336.71" x2="289.43" y2="336.71"/><line class="cls-11" x1="286.5" y1="337.48" x2="289.43" y2="337.48"/><line class="cls-11" x1="286.5" y1="338.25" x2="289.43" y2="338.25"/><line class="cls-11" x1="286.5" y1="339.02" x2="289.43" y2="339.02"/><line class="cls-11" x1="286.5" y1="339.79" x2="289.43" y2="339.79"/><line class="cls-11" x1="286.5" y1="340.56" x2="289.43" y2="340.56"/><line class="cls-11" x1="286.5" y1="341.33" x2="289.43" y2="341.33"/><line class="cls-11" x1="286.5" y1="342.1" x2="289.43" y2="342.1"/><line class="cls-11" x1="286.5" y1="342.87" x2="289.43" y2="342.87"/><line class="cls-11" x1="286.5" y1="343.64" x2="289.43" y2="343.64"/><line class="cls-11" x1="286.5" y1="344.41" x2="289.43" y2="344.41"/><line class="cls-11" x1="286.5" y1="345.18" x2="289.43" y2="345.18"/><line class="cls-11" x1="286.5" y1="345.95" x2="289.43" y2="345.95"/><line class="cls-11" x1="286.5" y1="346.72" x2="289.43" y2="346.72"/><line class="cls-11" x1="286.5" y1="347.49" x2="289.43" y2="347.49"/><line class="cls-11" x1="286.5" y1="348.26" x2="289.43" y2="348.26"/><line class="cls-12" x1="263.94" y1="268.95" x2="266.86" y2="268.95"/><line class="cls-12" x1="263.94" y1="270.33" x2="266.86" y2="270.33"/><line class="cls-12" x1="263.94" y1="271.7" x2="266.86" y2="271.7"/><line class="cls-12" x1="263.94" y1="273.08" x2="266.86" y2="273.08"/><line class="cls-12" x1="263.94" y1="274.46" x2="266.86" y2="274.46"/><line class="cls-12" x1="263.94" y1="275.84" x2="266.86" y2="275.84"/><line class="cls-12" x1="263.94" y1="277.22" x2="266.86" y2="277.22"/><line class="cls-12" x1="263.94" y1="278.59" x2="266.86" y2="278.59"/><line class="cls-12" x1="263.94" y1="279.97" x2="266.86" y2="279.97"/><line class="cls-12" x1="263.94" y1="281.35" x2="266.86" y2="281.35"/><line class="cls-12" x1="263.94" y1="282.73" x2="266.86" y2="282.73"/><line class="cls-12" x1="263.94" y1="284.11" x2="266.86" y2="284.11"/><line class="cls-12" x1="263.94" y1="285.48" x2="266.86" y2="285.48"/><line class="cls-12" x1="263.94" y1="286.86" x2="266.86" y2="286.86"/><line class="cls-12" x1="263.94" y1="288.24" x2="266.86" y2="288.24"/><line class="cls-12" x1="263.94" y1="289.62" x2="266.86" y2="289.62"/><line class="cls-12" x1="263.94" y1="290.99" x2="266.86" y2="290.99"/><line class="cls-12" x1="263.94" y1="292.37" x2="266.86" y2="292.37"/><line class="cls-12" x1="263.94" y1="293.75" x2="266.86" y2="293.75"/><line class="cls-12" x1="263.94" y1="295.13" x2="266.86" y2="295.13"/><line class="cls-12" x1="263.94" y1="296.51" x2="266.86" y2="296.51"/><line class="cls-12" x1="263.94" y1="297.88" x2="266.86" y2="297.88"/><line class="cls-12" x1="263.94" y1="299.26" x2="266.86" y2="299.26"/><line class="cls-12" x1="263.94" y1="300.64" x2="266.86" y2="300.64"/><line class="cls-12" x1="263.94" y1="302.02" x2="266.86" y2="302.02"/><line class="cls-12" x1="263.94" y1="303.4" x2="266.86" y2="303.4"/><line class="cls-12" x1="263.94" y1="304.77" x2="266.86" y2="304.77"/><line class="cls-12" x1="263.94" y1="306.15" x2="266.86" y2="306.15"/><line class="cls-12" x1="263.94" y1="307.53" x2="266.86" y2="307.53"/><line class="cls-12" x1="263.94" y1="308.91" x2="266.86" y2="308.91"/><line class="cls-12" x1="263.94" y1="310.28" x2="266.86" y2="310.28"/><line class="cls-12" x1="263.94" y1="311.66" x2="266.86" y2="311.66"/><line class="cls-12" x1="263.94" y1="313.04" x2="266.86" y2="313.04"/><line class="cls-12" x1="263.94" y1="314.42" x2="266.86" y2="314.42"/><line class="cls-12" x1="263.94" y1="315.8" x2="266.86" y2="315.8"/><line class="cls-12" x1="263.94" y1="317.17" x2="266.86" y2="317.17"/><line class="cls-12" x1="263.94" y1="318.55" x2="266.86" y2="318.55"/><line class="cls-12" x1="263.94" y1="319.92" x2="266.86" y2="319.92"/><line class="cls-12" x1="263.94" y1="321.3" x2="266.86" y2="321.3"/><line class="cls-12" x1="263.94" y1="322.68" x2="266.86" y2="322.68"/><line class="cls-12" x1="263.94" y1="324.06" x2="266.86" y2="324.06"/><line class="cls-12" x1="263.94" y1="325.43" x2="266.86" y2="325.43"/><line class="cls-12" x1="263.94" y1="326.81" x2="266.86" y2="326.81"/><line class="cls-12" x1="263.94" y1="328.19" x2="266.86" y2="328.19"/><line class="cls-12" x1="263.94" y1="329.57" x2="266.86" y2="329.57"/><line class="cls-12" x1="263.94" y1="330.95" x2="266.86" y2="330.95"/><line class="cls-12" x1="263.94" y1="332.32" x2="266.86" y2="332.32"/><line class="cls-12" x1="263.94" y1="333.7" x2="266.86" y2="333.7"/><line class="cls-12" x1="263.94" y1="335.08" x2="266.86" y2="335.08"/><line class="cls-12" x1="263.94" y1="336.46" x2="266.86" y2="336.46"/><line class="cls-12" x1="263.94" y1="337.84" x2="266.86" y2="337.84"/><line class="cls-12" x1="263.94" y1="339.21" x2="266.86" y2="339.21"/><line class="cls-12" x1="263.94" y1="340.59" x2="266.86" y2="340.59"/><line class="cls-12" x1="263.94" y1="341.97" x2="266.86" y2="341.97"/><line class="cls-12" x1="263.94" y1="343.35" x2="266.86" y2="343.35"/><line class="cls-12" x1="263.94" y1="344.72" x2="266.86" y2="344.72"/><line class="cls-12" x1="263.94" y1="346.1" x2="266.86" y2="346.1"/><line class="cls-12" x1="263.94" y1="347.48" x2="266.86" y2="347.48"/><line class="cls-12" x1="263.94" y1="348.86" x2="266.86" y2="348.86"/><line class="cls-12" x1="263.94" y1="350.24" x2="266.86" y2="350.24"/><line class="cls-12" x1="263.94" y1="351.61" x2="266.86" y2="351.61"/><line class="cls-12" x1="263.94" y1="352.99" x2="266.86" y2="352.99"/><line class="cls-12" x1="263.94" y1="354.37" x2="266.86" y2="354.37"/><line class="cls-12" x1="263.94" y1="355.75" x2="266.86" y2="355.75"/><line class="cls-12" x1="263.94" y1="357.13" x2="266.86" y2="357.13"/><line class="cls-12" x1="263.94" y1="358.5" x2="266.86" y2="358.5"/><line class="cls-14" x1="241.26" y1="271.23" x2="245.02" y2="271.23"/><line class="cls-14" x1="241.26" y1="273.38" x2="245.02" y2="273.38"/><line class="cls-14" x1="241.26" y1="275.54" x2="245.02" y2="275.54"/><line class="cls-14" x1="241.26" y1="277.69" x2="245.02" y2="277.69"/><line class="cls-14" x1="241.26" y1="279.84" x2="245.02" y2="279.84"/><line class="cls-14" x1="241.26" y1="282" x2="245.02" y2="282"/><line class="cls-14" x1="241.26" y1="284.15" x2="245.02" y2="284.15"/><line class="cls-14" x1="241.26" y1="286.31" x2="245.02" y2="286.31"/><line class="cls-14" x1="241.26" y1="288.46" x2="245.02" y2="288.46"/><line class="cls-14" x1="241.26" y1="290.62" x2="245.02" y2="290.62"/><polyline class="cls-15" points="288.11 448.54 287.85 266.47 269.95 152.74"/><polyline class="cls-15" points="265.16 448.54 265.4 266.37 247.11 152.67"/><line class="cls-11" x1="286.5" y1="349.03" x2="289.43" y2="349.03"/><line class="cls-11" x1="286.5" y1="349.8" x2="289.43" y2="349.8"/><line class="cls-11" x1="286.5" y1="350.57" x2="289.43" y2="350.57"/><line class="cls-11" x1="286.5" y1="351.34" x2="289.43" y2="351.34"/><line class="cls-11" x1="286.5" y1="352.11" x2="289.43" y2="352.11"/><line class="cls-11" x1="286.5" y1="352.88" x2="289.43" y2="352.88"/><line class="cls-11" x1="286.5" y1="353.65" x2="289.43" y2="353.65"/><line class="cls-11" x1="286.5" y1="354.42" x2="289.43" y2="354.42"/><line class="cls-11" x1="286.5" y1="355.19" x2="289.43" y2="355.19"/><line class="cls-11" x1="286.5" y1="355.96" x2="289.43" y2="355.96"/><line class="cls-11" x1="286.5" y1="356.73" x2="289.43" y2="356.73"/><line class="cls-11" x1="286.5" y1="357.5" x2="289.43" y2="357.5"/><line class="cls-11" x1="286.5" y1="358.27" x2="289.43" y2="358.27"/><line class="cls-11" x1="286.5" y1="359.04" x2="289.43" y2="359.04"/><line class="cls-11" x1="286.5" y1="359.81" x2="289.43" y2="359.81"/><line class="cls-11" x1="286.5" y1="360.58" x2="289.43" y2="360.58"/><line class="cls-11" x1="286.5" y1="361.35" x2="289.43" y2="361.35"/><line class="cls-11" x1="286.5" y1="362.12" x2="289.43" y2="362.12"/><line class="cls-11" x1="286.5" y1="362.89" x2="289.43" y2="362.89"/><line class="cls-11" x1="286.5" y1="363.66" x2="289.43" y2="363.66"/><line class="cls-11" x1="286.5" y1="364.43" x2="289.43" y2="364.43"/><line class="cls-11" x1="286.5" y1="365.2" x2="289.43" y2="365.2"/><line class="cls-11" x1="286.5" y1="365.97" x2="289.43" y2="365.97"/><line class="cls-11" x1="286.5" y1="366.74" x2="289.43" y2="366.74"/><line class="cls-11" x1="286.5" y1="367.51" x2="289.43" y2="367.51"/><line class="cls-11" x1="286.5" y1="368.28" x2="289.43" y2="368.28"/><line class="cls-11" x1="286.5" y1="369.05" x2="289.43" y2="369.05"/><line class="cls-11" x1="286.5" y1="369.82" x2="289.43" y2="369.82"/><line class="cls-11" x1="286.5" y1="370.59" x2="289.43" y2="370.59"/><line class="cls-11" x1="286.5" y1="371.36" x2="289.43" y2="371.36"/><line class="cls-11" x1="286.5" y1="372.13" x2="289.43" y2="372.13"/><line class="cls-11" x1="286.5" y1="372.9" x2="289.43" y2="372.9"/><line class="cls-11" x1="286.5" y1="373.67" x2="289.43" y2="373.67"/><line class="cls-11" x1="286.5" y1="374.44" x2="289.43" y2="374.44"/><line class="cls-11" x1="286.5" y1="375.21" x2="289.43" y2="375.21"/><line class="cls-11" x1="286.5" y1="375.98" x2="289.43" y2="375.98"/><line class="cls-11" x1="286.5" y1="376.75" x2="289.43" y2="376.75"/><line class="cls-11" x1="286.5" y1="377.52" x2="289.43" y2="377.52"/><line class="cls-11" x1="286.5" y1="378.29" x2="289.43" y2="378.29"/><line class="cls-11" x1="286.5" y1="379.06" x2="289.43" y2="379.06"/><line class="cls-11" x1="286.5" y1="379.83" x2="289.43" y2="379.83"/><line class="cls-11" x1="286.5" y1="380.6" x2="289.43" y2="380.6"/><line class="cls-11" x1="286.5" y1="381.37" x2="289.43" y2="381.37"/><line class="cls-11" x1="286.5" y1="382.14" x2="289.43" y2="382.14"/><line class="cls-11" x1="286.5" y1="382.91" x2="289.43" y2="382.91"/><line class="cls-11" x1="286.5" y1="383.68" x2="289.43" y2="383.68"/><line class="cls-11" x1="286.5" y1="384.45" x2="289.43" y2="384.45"/><line class="cls-11" x1="286.5" y1="385.22" x2="289.43" y2="385.22"/><line class="cls-11" x1="286.5" y1="385.99" x2="289.43" y2="385.99"/><line class="cls-11" x1="286.5" y1="386.76" x2="289.43" y2="386.76"/><line class="cls-11" x1="286.5" y1="387.53" x2="289.43" y2="387.53"/><line class="cls-11" x1="286.5" y1="388.3" x2="289.43" y2="388.3"/><line class="cls-11" x1="286.5" y1="389.07" x2="289.43" y2="389.07"/><line class="cls-11" x1="286.5" y1="389.84" x2="289.43" y2="389.84"/><line class="cls-11" x1="286.5" y1="390.61" x2="289.43" y2="390.61"/><line class="cls-11" x1="286.5" y1="391.38" x2="289.43" y2="391.38"/><line class="cls-11" x1="286.5" y1="392.15" x2="289.43" y2="392.15"/><line class="cls-11" x1="286.5" y1="392.92" x2="289.43" y2="392.92"/><line class="cls-11" x1="286.5" y1="393.69" x2="289.43" y2="393.69"/><line class="cls-11" x1="286.5" y1="394.46" x2="289.43" y2="394.46"/><line class="cls-11" x1="286.5" y1="395.23" x2="289.43" y2="395.23"/><line class="cls-11" x1="286.5" y1="396" x2="289.43" y2="396"/><line class="cls-11" x1="286.5" y1="396.77" x2="289.43" y2="396.77"/><line class="cls-11" x1="286.5" y1="397.54" x2="289.43" y2="397.54"/><line class="cls-11" x1="286.5" y1="398.31" x2="289.43" y2="398.31"/><line class="cls-11" x1="286.5" y1="399.08" x2="289.43" y2="399.08"/><line class="cls-11" x1="286.5" y1="399.85" x2="289.43" y2="399.85"/><line class="cls-11" x1="286.5" y1="400.62" x2="289.43" y2="400.62"/><line class="cls-11" x1="286.5" y1="401.39" x2="289.43" y2="401.39"/><line class="cls-11" x1="286.5" y1="402.16" x2="289.43" y2="402.16"/><line class="cls-11" x1="286.5" y1="402.93" x2="289.43" y2="402.93"/><line class="cls-11" x1="286.5" y1="403.7" x2="289.43" y2="403.7"/><line class="cls-11" x1="286.5" y1="404.47" x2="289.43" y2="404.47"/><line class="cls-11" x1="286.5" y1="405.24" x2="289.43" y2="405.24"/><line class="cls-11" x1="286.5" y1="406.01" x2="289.43" y2="406.01"/><line class="cls-11" x1="286.5" y1="406.78" x2="289.43" y2="406.78"/><line class="cls-11" x1="286.5" y1="407.55" x2="289.43" y2="407.55"/><line class="cls-11" x1="286.5" y1="408.32" x2="289.43" y2="408.32"/><line class="cls-11" x1="286.5" y1="409.09" x2="289.43" y2="409.09"/><line class="cls-11" x1="286.5" y1="409.86" x2="289.43" y2="409.86"/><line class="cls-11" x1="286.5" y1="410.63" x2="289.43" y2="410.63"/><line class="cls-11" x1="286.5" y1="411.4" x2="289.43" y2="411.4"/><line class="cls-11" x1="286.5" y1="412.17" x2="289.43" y2="412.17"/><line class="cls-11" x1="286.5" y1="412.94" x2="289.43" y2="412.94"/><line class="cls-11" x1="286.5" y1="413.71" x2="289.43" y2="413.71"/><line class="cls-11" x1="286.5" y1="414.48" x2="289.43" y2="414.48"/><line class="cls-11" x1="286.5" y1="415.25" x2="289.43" y2="415.25"/><line class="cls-11" x1="286.5" y1="416.02" x2="289.43" y2="416.02"/><line class="cls-11" x1="286.5" y1="416.79" x2="289.43" y2="416.79"/><line class="cls-11" x1="286.5" y1="417.56" x2="289.43" y2="417.56"/><line class="cls-11" x1="286.5" y1="418.33" x2="289.43" y2="418.33"/><line class="cls-11" x1="286.5" y1="419.1" x2="289.43" y2="419.1"/><line class="cls-11" x1="286.5" y1="419.87" x2="289.43" y2="419.87"/><line class="cls-11" x1="286.5" y1="420.64" x2="289.43" y2="420.64"/><line class="cls-11" x1="286.5" y1="421.41" x2="289.43" y2="421.41"/><line class="cls-11" x1="286.5" y1="422.18" x2="289.43" y2="422.18"/><line class="cls-11" x1="286.5" y1="422.95" x2="289.43" y2="422.95"/><line class="cls-11" x1="286.5" y1="423.72" x2="289.43" y2="423.72"/><line class="cls-11" x1="286.5" y1="424.49" x2="289.43" y2="424.49"/><line class="cls-11" x1="286.5" y1="425.26" x2="289.43" y2="425.26"/><line class="cls-11" x1="286.5" y1="426.03" x2="289.43" y2="426.03"/><line class="cls-11" x1="286.5" y1="426.8" x2="289.43" y2="426.8"/><line class="cls-11" x1="286.5" y1="427.57" x2="289.43" y2="427.57"/><line class="cls-11" x1="286.5" y1="428.34" x2="289.43" y2="428.34"/><line class="cls-11" x1="286.5" y1="429.11" x2="289.43" y2="429.11"/><line class="cls-11" x1="286.5" y1="429.88" x2="289.43" y2="429.88"/><line class="cls-11" x1="286.5" y1="430.65" x2="289.43" y2="430.65"/><line class="cls-11" x1="286.5" y1="431.42" x2="289.43" y2="431.42"/><line class="cls-11" x1="286.5" y1="432.19" x2="289.43" y2="432.19"/><line class="cls-11" x1="286.5" y1="432.96" x2="289.43" y2="432.96"/><line class="cls-11" x1="286.5" y1="433.73" x2="289.43" y2="433.73"/><line class="cls-11" x1="286.5" y1="434.5" x2="289.43" y2="434.5"/><line class="cls-11" x1="286.5" y1="435.27" x2="289.43" y2="435.27"/><line class="cls-11" x1="286.5" y1="436.04" x2="289.43" y2="436.04"/><line class="cls-11" x1="286.5" y1="436.81" x2="289.43" y2="436.81"/><line class="cls-11" x1="286.5" y1="437.58" x2="289.43" y2="437.58"/><line class="cls-11" x1="286.5" y1="438.35" x2="289.43" y2="438.35"/><line class="cls-11" x1="286.5" y1="439.12" x2="289.43" y2="439.12"/><line class="cls-11" x1="286.5" y1="439.89" x2="289.43" y2="439.89"/><line class="cls-11" x1="286.5" y1="440.66" x2="289.43" y2="440.66"/><line class="cls-11" x1="286.5" y1="441.43" x2="289.43" y2="441.43"/><line class="cls-11" x1="286.5" y1="442.2" x2="289.43" y2="442.2"/><line class="cls-11" x1="286.5" y1="442.97" x2="289.43" y2="442.97"/><line class="cls-11" x1="286.5" y1="443.74" x2="289.43" y2="443.74"/><line class="cls-11" x1="286.5" y1="444.51" x2="289.43" y2="444.51"/><line class="cls-11" x1="286.5" y1="445.28" x2="289.43" y2="445.28"/><line class="cls-11" x1="286.5" y1="446.05" x2="289.43" y2="446.05"/><line class="cls-11" x1="286.5" y1="446.82" x2="289.43" y2="446.82"/><line class="cls-11" x1="286.5" y1="447.59" x2="289.43" y2="447.59"/><line class="cls-11" x1="286.5" y1="448.36" x2="289.43" y2="448.36"/><line class="cls-11" x1="309.44" y1="267.41" x2="312.36" y2="267.41"/><line class="cls-11" x1="309.44" y1="268.18" x2="312.36" y2="268.18"/><line class="cls-11" x1="309.44" y1="268.95" x2="312.36" y2="268.95"/><line class="cls-11" x1="309.44" y1="269.72" x2="312.36" y2="269.72"/><line class="cls-11" x1="309.44" y1="270.49" x2="312.36" y2="270.49"/><line class="cls-11" x1="309.44" y1="271.26" x2="312.36" y2="271.26"/><line class="cls-11" x1="309.44" y1="272.03" x2="312.36" y2="272.03"/><line class="cls-11" x1="309.44" y1="272.8" x2="312.36" y2="272.8"/><line class="cls-11" x1="309.44" y1="273.57" x2="312.36" y2="273.57"/><line class="cls-11" x1="309.44" y1="274.34" x2="312.36" y2="274.34"/><line class="cls-11" x1="309.44" y1="275.11" x2="312.36" y2="275.11"/><line class="cls-11" x1="309.44" y1="275.88" x2="312.36" y2="275.88"/><line class="cls-11" x1="309.44" y1="276.65" x2="312.36" y2="276.65"/><line class="cls-11" x1="309.44" y1="277.42" x2="312.36" y2="277.42"/><line class="cls-11" x1="309.44" y1="278.19" x2="312.36" y2="278.19"/><line class="cls-11" x1="309.44" y1="278.96" x2="312.36" y2="278.96"/><line class="cls-11" x1="309.44" y1="279.73" x2="312.36" y2="279.73"/><line class="cls-11" x1="309.44" y1="280.5" x2="312.36" y2="280.5"/><line class="cls-11" x1="309.44" y1="281.27" x2="312.36" y2="281.27"/><line class="cls-11" x1="309.44" y1="282.04" x2="312.36" y2="282.04"/><line class="cls-11" x1="309.44" y1="282.81" x2="312.36" y2="282.81"/><line class="cls-11" x1="309.44" y1="283.58" x2="312.36" y2="283.58"/><line class="cls-11" x1="309.44" y1="284.35" x2="312.36" y2="284.35"/><line class="cls-11" x1="309.44" y1="285.12" x2="312.36" y2="285.12"/><line class="cls-11" x1="309.44" y1="285.89" x2="312.36" y2="285.89"/><line class="cls-11" x1="309.44" y1="286.66" x2="312.36" y2="286.66"/><line class="cls-11" x1="309.44" y1="287.43" x2="312.36" y2="287.43"/><line class="cls-11" x1="309.44" y1="288.2" x2="312.36" y2="288.2"/><line class="cls-11" x1="309.44" y1="288.97" x2="312.36" y2="288.97"/><line class="cls-11" x1="309.44" y1="289.74" x2="312.36" y2="289.74"/><line class="cls-11" x1="309.44" y1="290.51" x2="312.36" y2="290.51"/><line class="cls-11" x1="309.44" y1="291.28" x2="312.36" y2="291.28"/><line class="cls-11" x1="309.44" y1="292.05" x2="312.36" y2="292.05"/><line class="cls-11" x1="309.44" y1="292.82" x2="312.36" y2="292.82"/><line class="cls-11" x1="309.44" y1="293.59" x2="312.36" y2="293.59"/><line class="cls-11" x1="309.44" y1="294.36" x2="312.36" y2="294.36"/><line class="cls-11" x1="309.44" y1="295.13" x2="312.36" y2="295.13"/><line class="cls-11" x1="309.44" y1="295.9" x2="312.36" y2="295.9"/><line class="cls-11" x1="309.44" y1="296.67" x2="312.36" y2="296.67"/><line class="cls-11" x1="309.44" y1="297.44" x2="312.36" y2="297.44"/><line class="cls-11" x1="309.44" y1="298.21" x2="312.36" y2="298.21"/><line class="cls-11" x1="309.44" y1="298.98" x2="312.36" y2="298.98"/><line class="cls-11" x1="309.44" y1="299.75" x2="312.36" y2="299.75"/><line class="cls-11" x1="309.44" y1="300.52" x2="312.36" y2="300.52"/><line class="cls-11" x1="309.44" y1="301.29" x2="312.36" y2="301.29"/><line class="cls-11" x1="309.44" y1="302.06" x2="312.36" y2="302.06"/><line class="cls-11" x1="309.44" y1="302.83" x2="312.36" y2="302.83"/><line class="cls-11" x1="309.44" y1="303.6" x2="312.36" y2="303.6"/><line class="cls-11" x1="309.44" y1="304.37" x2="312.36" y2="304.37"/><line class="cls-11" x1="309.44" y1="305.14" x2="312.36" y2="305.14"/><line class="cls-11" x1="309.44" y1="305.91" x2="312.36" y2="305.91"/><line class="cls-11" x1="309.44" y1="306.68" x2="312.36" y2="306.68"/><line class="cls-11" x1="309.44" y1="307.45" x2="312.36" y2="307.45"/><line class="cls-11" x1="309.44" y1="308.22" x2="312.36" y2="308.22"/><line class="cls-11" x1="309.44" y1="308.99" x2="312.36" y2="308.99"/><line class="cls-11" x1="309.44" y1="309.76" x2="312.36" y2="309.76"/><line class="cls-11" x1="309.44" y1="310.53" x2="312.36" y2="310.53"/><line class="cls-11" x1="309.44" y1="311.3" x2="312.36" y2="311.3"/><line class="cls-11" x1="309.44" y1="312.07" x2="312.36" y2="312.07"/><line class="cls-11" x1="309.44" y1="312.84" x2="312.36" y2="312.84"/><line class="cls-11" x1="309.44" y1="313.61" x2="312.36" y2="313.61"/><line class="cls-11" x1="309.44" y1="314.38" x2="312.36" y2="314.38"/><line class="cls-11" x1="309.44" y1="315.15" x2="312.36" y2="315.15"/><line class="cls-11" x1="309.44" y1="315.92" x2="312.36" y2="315.92"/><line class="cls-11" x1="309.44" y1="316.69" x2="312.36" y2="316.69"/><line class="cls-11" x1="309.44" y1="317.46" x2="312.36" y2="317.46"/><line class="cls-11" x1="309.44" y1="318.23" x2="312.36" y2="318.23"/><line class="cls-11" x1="309.44" y1="319" x2="312.36" y2="319"/><line class="cls-11" x1="309.44" y1="319.77" x2="312.36" y2="319.77"/><line class="cls-11" x1="309.44" y1="320.54" x2="312.36" y2="320.54"/><line class="cls-11" x1="309.44" y1="321.31" x2="312.36" y2="321.31"/><line class="cls-11" x1="309.44" y1="322.08" x2="312.36" y2="322.08"/><line class="cls-11" x1="309.44" y1="322.85" x2="312.36" y2="322.85"/><line class="cls-11" x1="309.44" y1="323.62" x2="312.36" y2="323.62"/><line class="cls-11" x1="309.44" y1="324.39" x2="312.36" y2="324.39"/><line class="cls-11" x1="309.44" y1="325.16" x2="312.36" y2="325.16"/><line class="cls-11" x1="309.44" y1="325.93" x2="312.36" y2="325.93"/><line class="cls-11" x1="309.44" y1="326.7" x2="312.36" y2="326.7"/><line class="cls-11" x1="309.44" y1="327.47" x2="312.36" y2="327.47"/><line class="cls-11" x1="309.44" y1="328.24" x2="312.36" y2="328.24"/><line class="cls-11" x1="309.44" y1="329.01" x2="312.36" y2="329.01"/><line class="cls-11" x1="309.44" y1="329.78" x2="312.36" y2="329.78"/><line class="cls-11" x1="309.44" y1="330.55" x2="312.36" y2="330.55"/><line class="cls-11" x1="309.44" y1="331.32" x2="312.36" y2="331.32"/><line class="cls-11" x1="309.44" y1="332.09" x2="312.36" y2="332.09"/><line class="cls-11" x1="309.44" y1="332.86" x2="312.36" y2="332.86"/><line class="cls-11" x1="309.44" y1="333.63" x2="312.36" y2="333.63"/><line class="cls-11" x1="309.44" y1="334.4" x2="312.36" y2="334.4"/><line class="cls-11" x1="309.44" y1="335.17" x2="312.36" y2="335.17"/><line class="cls-11" x1="309.44" y1="335.94" x2="312.36" y2="335.94"/><line class="cls-11" x1="309.44" y1="336.71" x2="312.36" y2="336.71"/><line class="cls-11" x1="309.44" y1="337.48" x2="312.36" y2="337.48"/><line class="cls-11" x1="309.44" y1="338.25" x2="312.36" y2="338.25"/><line class="cls-11" x1="309.44" y1="339.02" x2="312.36" y2="339.02"/><line class="cls-11" x1="309.44" y1="339.79" x2="312.36" y2="339.79"/><line class="cls-11" x1="309.44" y1="340.56" x2="312.36" y2="340.56"/><line class="cls-11" x1="309.44" y1="341.33" x2="312.36" y2="341.33"/><line class="cls-11" x1="309.44" y1="342.1" x2="312.36" y2="342.1"/><line class="cls-11" x1="309.44" y1="342.87" x2="312.36" y2="342.87"/><line class="cls-11" x1="309.44" y1="343.64" x2="312.36" y2="343.64"/><line class="cls-11" x1="309.44" y1="344.41" x2="312.36" y2="344.41"/><line class="cls-11" x1="309.44" y1="345.18" x2="312.36" y2="345.18"/><line class="cls-11" x1="309.44" y1="345.95" x2="312.36" y2="345.95"/><line class="cls-11" x1="309.44" y1="346.72" x2="312.36" y2="346.72"/><line class="cls-11" x1="309.44" y1="347.49" x2="312.36" y2="347.49"/><line class="cls-11" x1="309.44" y1="348.26" x2="312.36" y2="348.26"/><line class="cls-11" x1="309.44" y1="349.03" x2="312.36" y2="349.03"/><line class="cls-11" x1="309.44" y1="349.8" x2="312.36" y2="349.8"/><line class="cls-11" x1="309.44" y1="350.57" x2="312.36" y2="350.57"/><line class="cls-11" x1="309.44" y1="351.34" x2="312.36" y2="351.34"/><line class="cls-11" x1="309.44" y1="352.11" x2="312.36" y2="352.11"/><line class="cls-11" x1="309.44" y1="352.88" x2="312.36" y2="352.88"/><line class="cls-11" x1="309.44" y1="353.65" x2="312.36" y2="353.65"/><line class="cls-11" x1="309.44" y1="354.42" x2="312.36" y2="354.42"/><line class="cls-11" x1="309.44" y1="355.19" x2="312.36" y2="355.19"/><line class="cls-11" x1="309.44" y1="355.96" x2="312.36" y2="355.96"/><line class="cls-11" x1="309.44" y1="356.73" x2="312.36" y2="356.73"/><line class="cls-11" x1="309.44" y1="357.5" x2="312.36" y2="357.5"/><line class="cls-11" x1="309.44" y1="358.27" x2="312.36" y2="358.27"/><line class="cls-11" x1="309.44" y1="359.04" x2="312.36" y2="359.04"/><line class="cls-11" x1="309.44" y1="359.81" x2="312.36" y2="359.81"/><line class="cls-11" x1="309.44" y1="360.58" x2="312.36" y2="360.58"/><line class="cls-11" x1="309.44" y1="361.35" x2="312.36" y2="361.35"/><line class="cls-11" x1="309.44" y1="362.12" x2="312.36" y2="362.12"/><line class="cls-11" x1="309.44" y1="362.89" x2="312.36" y2="362.89"/><line class="cls-11" x1="309.44" y1="363.66" x2="312.36" y2="363.66"/><line class="cls-11" x1="309.44" y1="364.43" x2="312.36" y2="364.43"/><line class="cls-11" x1="309.44" y1="365.2" x2="312.36" y2="365.2"/><line class="cls-11" x1="309.44" y1="365.97" x2="312.36" y2="365.97"/><line class="cls-11" x1="309.44" y1="366.74" x2="312.36" y2="366.74"/><line class="cls-11" x1="309.44" y1="367.51" x2="312.36" y2="367.51"/><line class="cls-11" x1="309.44" y1="368.28" x2="312.36" y2="368.28"/><line class="cls-11" x1="309.44" y1="369.05" x2="312.36" y2="369.05"/><line class="cls-11" x1="309.44" y1="369.82" x2="312.36" y2="369.82"/><line class="cls-11" x1="309.44" y1="370.59" x2="312.36" y2="370.59"/><line class="cls-11" x1="309.44" y1="371.36" x2="312.36" y2="371.36"/><line class="cls-11" x1="309.44" y1="372.13" x2="312.36" y2="372.13"/><line class="cls-11" x1="309.44" y1="372.9" x2="312.36" y2="372.9"/><line class="cls-11" x1="309.44" y1="373.67" x2="312.36" y2="373.67"/><line class="cls-11" x1="309.44" y1="374.44" x2="312.36" y2="374.44"/><line class="cls-11" x1="309.44" y1="375.21" x2="312.36" y2="375.21"/><line class="cls-11" x1="309.44" y1="375.98" x2="312.36" y2="375.98"/><line class="cls-11" x1="309.44" y1="376.75" x2="312.36" y2="376.75"/><line class="cls-11" x1="309.44" y1="377.52" x2="312.36" y2="377.52"/><line class="cls-11" x1="309.44" y1="378.29" x2="312.36" y2="378.29"/><line class="cls-11" x1="309.44" y1="379.06" x2="312.36" y2="379.06"/><line class="cls-11" x1="309.44" y1="379.83" x2="312.36" y2="379.83"/><line class="cls-11" x1="309.44" y1="380.6" x2="312.36" y2="380.6"/><line class="cls-11" x1="309.44" y1="381.37" x2="312.36" y2="381.37"/><line class="cls-11" x1="309.44" y1="382.14" x2="312.36" y2="382.14"/><line class="cls-11" x1="309.44" y1="382.91" x2="312.36" y2="382.91"/><line class="cls-11" x1="309.44" y1="383.68" x2="312.36" y2="383.68"/><line class="cls-11" x1="309.44" y1="384.45" x2="312.36" y2="384.45"/><line class="cls-11" x1="309.44" y1="385.22" x2="312.36" y2="385.22"/><line class="cls-11" x1="309.44" y1="385.99" x2="312.36" y2="385.99"/><line class="cls-11" x1="309.44" y1="386.76" x2="312.36" y2="386.76"/><line class="cls-11" x1="309.44" y1="387.53" x2="312.36" y2="387.53"/><line class="cls-11" x1="309.44" y1="388.3" x2="312.36" y2="388.3"/><line class="cls-11" x1="309.44" y1="389.07" x2="312.36" y2="389.07"/><line class="cls-11" x1="309.44" y1="389.84" x2="312.36" y2="389.84"/><line class="cls-11" x1="309.44" y1="390.61" x2="312.36" y2="390.61"/><line class="cls-11" x1="309.44" y1="391.38" x2="312.36" y2="391.38"/><line class="cls-11" x1="309.44" y1="392.15" x2="312.36" y2="392.15"/><line class="cls-11" x1="309.44" y1="392.92" x2="312.36" y2="392.92"/><line class="cls-11" x1="309.44" y1="393.69" x2="312.36" y2="393.69"/><line class="cls-11" x1="309.44" y1="394.46" x2="312.36" y2="394.46"/><line class="cls-11" x1="309.44" y1="395.23" x2="312.36" y2="395.23"/><line class="cls-11" x1="309.44" y1="396" x2="312.36" y2="396"/><line class="cls-11" x1="309.44" y1="396.77" x2="312.36" y2="396.77"/><line class="cls-11" x1="309.44" y1="397.54" x2="312.36" y2="397.54"/><line class="cls-11" x1="309.44" y1="398.31" x2="312.36" y2="398.31"/><line class="cls-11" x1="309.44" y1="399.08" x2="312.36" y2="399.08"/><line class="cls-11" x1="309.44" y1="399.85" x2="312.36" y2="399.85"/><line class="cls-11" x1="309.44" y1="400.62" x2="312.36" y2="400.62"/><line class="cls-11" x1="309.44" y1="401.39" x2="312.36" y2="401.39"/><line class="cls-11" x1="309.44" y1="402.16" x2="312.36" y2="402.16"/><line class="cls-11" x1="309.44" y1="402.93" x2="312.36" y2="402.93"/><line class="cls-11" x1="309.44" y1="403.7" x2="312.36" y2="403.7"/><line class="cls-11" x1="309.44" y1="404.47" x2="312.36" y2="404.47"/><line class="cls-11" x1="309.44" y1="405.24" x2="312.36" y2="405.24"/><line class="cls-11" x1="309.44" y1="406.01" x2="312.36" y2="406.01"/><line class="cls-11" x1="309.44" y1="406.78" x2="312.36" y2="406.78"/><line class="cls-11" x1="309.44" y1="407.55" x2="312.36" y2="407.55"/><line class="cls-11" x1="309.44" y1="408.32" x2="312.36" y2="408.32"/><line class="cls-11" x1="309.44" y1="409.09" x2="312.36" y2="409.09"/><line class="cls-11" x1="309.44" y1="409.86" x2="312.36" y2="409.86"/><line class="cls-11" x1="309.44" y1="410.63" x2="312.36" y2="410.63"/><line class="cls-11" x1="309.44" y1="411.4" x2="312.36" y2="411.4"/><line class="cls-11" x1="309.44" y1="412.17" x2="312.36" y2="412.17"/><line class="cls-11" x1="309.44" y1="412.94" x2="312.36" y2="412.94"/><line class="cls-11" x1="309.44" y1="413.71" x2="312.36" y2="413.71"/><line class="cls-11" x1="309.44" y1="414.48" x2="312.36" y2="414.48"/><line class="cls-11" x1="309.44" y1="415.25" x2="312.36" y2="415.25"/><line class="cls-11" x1="309.44" y1="416.02" x2="312.36" y2="416.02"/><line class="cls-11" x1="309.44" y1="416.79" x2="312.36" y2="416.79"/><line class="cls-11" x1="309.44" y1="417.56" x2="312.36" y2="417.56"/><line class="cls-11" x1="309.44" y1="418.33" x2="312.36" y2="418.33"/><line class="cls-11" x1="309.44" y1="419.1" x2="312.36" y2="419.1"/><line class="cls-11" x1="309.44" y1="419.87" x2="312.36" y2="419.87"/><line class="cls-11" x1="309.44" y1="420.64" x2="312.36" y2="420.64"/><line class="cls-11" x1="309.44" y1="421.41" x2="312.36" y2="421.41"/><line class="cls-11" x1="309.44" y1="422.18" x2="312.36" y2="422.18"/><line class="cls-11" x1="309.44" y1="422.95" x2="312.36" y2="422.95"/><line class="cls-11" x1="309.44" y1="423.72" x2="312.36" y2="423.72"/><line class="cls-11" x1="309.44" y1="424.49" x2="312.36" y2="424.49"/><line class="cls-11" x1="309.44" y1="425.26" x2="312.36" y2="425.26"/><line class="cls-11" x1="309.44" y1="426.03" x2="312.36" y2="426.03"/><line class="cls-11" x1="309.44" y1="426.8" x2="312.36" y2="426.8"/><line class="cls-11" x1="309.44" y1="427.57" x2="312.36" y2="427.57"/><line class="cls-11" x1="309.44" y1="428.34" x2="312.36" y2="428.34"/><line class="cls-11" x1="309.44" y1="429.11" x2="312.36" y2="429.11"/><line class="cls-11" x1="309.44" y1="429.88" x2="312.36" y2="429.88"/><line class="cls-11" x1="309.44" y1="430.65" x2="312.36" y2="430.65"/><line class="cls-11" x1="309.44" y1="431.42" x2="312.36" y2="431.42"/><line class="cls-11" x1="309.44" y1="432.19" x2="312.36" y2="432.19"/><line class="cls-11" x1="309.44" y1="432.96" x2="312.36" y2="432.96"/><line class="cls-11" x1="309.44" y1="433.73" x2="312.36" y2="433.73"/><line class="cls-11" x1="309.44" y1="434.5" x2="312.36" y2="434.5"/><line class="cls-11" x1="309.44" y1="435.27" x2="312.36" y2="435.27"/><line class="cls-11" x1="309.44" y1="436.04" x2="312.36" y2="436.04"/><line class="cls-11" x1="309.44" y1="436.81" x2="312.36" y2="436.81"/><line class="cls-11" x1="309.44" y1="437.58" x2="312.36" y2="437.58"/><line class="cls-11" x1="309.44" y1="438.35" x2="312.36" y2="438.35"/><line class="cls-11" x1="309.44" y1="439.12" x2="312.36" y2="439.12"/><line class="cls-11" x1="309.44" y1="439.89" x2="312.36" y2="439.89"/><line class="cls-11" x1="309.44" y1="440.66" x2="312.36" y2="440.66"/><line class="cls-11" x1="309.44" y1="441.43" x2="312.36" y2="441.43"/><line class="cls-11" x1="309.44" y1="442.2" x2="312.36" y2="442.2"/><line class="cls-11" x1="309.44" y1="442.97" x2="312.36" y2="442.97"/><line class="cls-11" x1="309.44" y1="443.74" x2="312.36" y2="443.74"/><line class="cls-11" x1="309.44" y1="444.51" x2="312.36" y2="444.51"/><line class="cls-11" x1="309.44" y1="445.28" x2="312.36" y2="445.28"/><line class="cls-11" x1="309.44" y1="446.05" x2="312.36" y2="446.05"/><line class="cls-11" x1="309.44" y1="446.82" x2="312.36" y2="446.82"/><line class="cls-11" x1="309.44" y1="447.59" x2="312.36" y2="447.59"/><line class="cls-11" x1="309.44" y1="448.36" x2="312.36" y2="448.36"/><line class="cls-11" x1="324.64" y1="175.59" x2="327.53" y2="176.07"/><line class="cls-11" x1="324.76" y1="174.83" x2="327.66" y2="175.32"/><line class="cls-11" x1="324.89" y1="174.07" x2="327.78" y2="174.55"/><line class="cls-11" x1="325.02" y1="173.31" x2="327.91" y2="173.8"/><line class="cls-11" x1="325.15" y1="172.56" x2="328.04" y2="173.04"/><line class="cls-11" x1="325.27" y1="171.79" x2="328.17" y2="172.28"/><line class="cls-11" x1="325.4" y1="171.04" x2="328.29" y2="171.52"/><line class="cls-11" x1="325.53" y1="170.27" x2="328.42" y2="170.76"/><line class="cls-11" x1="325.66" y1="169.52" x2="328.54" y2="170"/><line class="cls-11" x1="325.78" y1="168.76" x2="328.67" y2="169.24"/><line class="cls-11" x1="325.91" y1="168" x2="328.8" y2="168.48"/><line class="cls-11" x1="326.03" y1="167.24" x2="328.92" y2="167.72"/><line class="cls-11" x1="326.16" y1="166.48" x2="329.05" y2="166.96"/><line class="cls-11" x1="326.29" y1="165.72" x2="329.18" y2="166.2"/><line class="cls-11" x1="326.41" y1="164.96" x2="329.3" y2="165.44"/><line class="cls-11" x1="326.54" y1="164.2" x2="329.43" y2="164.68"/><line class="cls-11" x1="326.67" y1="163.44" x2="329.56" y2="163.93"/><line class="cls-11" x1="326.79" y1="162.68" x2="329.69" y2="163.16"/><line class="cls-11" x1="326.92" y1="161.92" x2="329.81" y2="162.41"/><line class="cls-11" x1="327.05" y1="161.16" x2="329.94" y2="161.64"/><line class="cls-11" x1="327.18" y1="160.4" x2="330.07" y2="160.89"/><line class="cls-11" x1="327.3" y1="159.64" x2="330.2" y2="160.13"/><line class="cls-11" x1="327.43" y1="158.88" x2="330.32" y2="159.37"/><line class="cls-11" x1="327.56" y1="158.12" x2="330.45" y2="158.61"/><line class="cls-11" x1="327.69" y1="157.37" x2="330.58" y2="157.85"/><line class="cls-11" x1="327.82" y1="156.61" x2="330.71" y2="157.09"/><line class="cls-11" x1="327.94" y1="155.85" x2="330.83" y2="156.33"/><line class="cls-11" x1="328.07" y1="155.09" x2="330.96" y2="155.57"/><line class="cls-11" x1="328.2" y1="154.33" x2="331.08" y2="154.81"/><line class="cls-11" x1="328.32" y1="153.57" x2="331.21" y2="154.05"/><line class="cls-11" x1="328.45" y1="152.81" x2="331.34" y2="153.29"/><line class="cls-11" x1="324.51" y1="176.35" x2="327.4" y2="176.84"/><line class="cls-11" x1="324.38" y1="177.11" x2="327.27" y2="177.59"/><line class="cls-11" x1="324.25" y1="177.87" x2="327.14" y2="178.36"/><line class="cls-11" x1="324.13" y1="178.63" x2="327.02" y2="179.11"/><line class="cls-11" x1="324" y1="179.39" x2="326.89" y2="179.88"/><line class="cls-11" x1="323.87" y1="180.15" x2="326.76" y2="180.63"/><line class="cls-11" x1="323.75" y1="180.91" x2="326.64" y2="181.39"/><line class="cls-11" x1="323.62" y1="181.67" x2="326.51" y2="182.15"/><line class="cls-11" x1="323.49" y1="182.43" x2="326.38" y2="182.91"/><line class="cls-11" x1="323.37" y1="183.18" x2="326.26" y2="183.67"/><line class="cls-11" x1="323.24" y1="183.95" x2="326.13" y2="184.43"/><line class="cls-11" x1="323.11" y1="184.7" x2="326" y2="185.19"/><line class="cls-11" x1="322.99" y1="185.47" x2="325.88" y2="185.95"/><line class="cls-11" x1="322.86" y1="186.22" x2="325.75" y2="186.71"/><line class="cls-11" x1="322.73" y1="186.99" x2="325.62" y2="187.47"/><line class="cls-11" x1="322.61" y1="187.74" x2="325.5" y2="188.23"/><line class="cls-11" x1="322.48" y1="188.51" x2="325.37" y2="188.99"/><line class="cls-11" x1="322.35" y1="189.26" x2="325.24" y2="189.75"/><line class="cls-11" x1="322.22" y1="190.02" x2="325.11" y2="190.5"/><line class="cls-11" x1="322.09" y1="190.78" x2="324.99" y2="191.27"/><line class="cls-11" x1="321.97" y1="191.54" x2="324.86" y2="192.02"/><line class="cls-11" x1="321.84" y1="192.3" x2="324.73" y2="192.79"/><line class="cls-11" x1="321.71" y1="193.06" x2="324.6" y2="193.54"/><line class="cls-11" x1="321.59" y1="193.82" x2="324.48" y2="194.3"/><line class="cls-11" x1="321.46" y1="194.58" x2="324.35" y2="195.06"/><line class="cls-11" x1="321.33" y1="195.34" x2="324.22" y2="195.82"/><line class="cls-11" x1="321.21" y1="196.1" x2="324.1" y2="196.58"/><line class="cls-11" x1="321.08" y1="196.86" x2="323.97" y2="197.34"/><line class="cls-11" x1="320.95" y1="197.62" x2="323.84" y2="198.1"/><line class="cls-11" x1="320.83" y1="198.38" x2="323.72" y2="198.86"/><line class="cls-11" x1="320.7" y1="199.13" x2="323.59" y2="199.62"/><line class="cls-11" x1="320.57" y1="199.9" x2="323.46" y2="200.38"/><line class="cls-11" x1="320.45" y1="200.65" x2="323.34" y2="201.14"/><line class="cls-11" x1="320.32" y1="201.42" x2="323.21" y2="201.9"/><line class="cls-11" x1="320.19" y1="202.17" x2="323.08" y2="202.66"/><line class="cls-11" x1="320.06" y1="202.93" x2="322.96" y2="203.42"/><line class="cls-11" x1="319.94" y1="203.69" x2="322.83" y2="204.18"/><line class="cls-11" x1="319.81" y1="204.45" x2="322.7" y2="204.93"/><line class="cls-11" x1="319.68" y1="205.21" x2="322.57" y2="205.69"/><line class="cls-11" x1="319.55" y1="205.97" x2="322.45" y2="206.45"/><line class="cls-11" x1="319.43" y1="206.73" x2="322.32" y2="207.21"/><line class="cls-11" x1="319.3" y1="207.49" x2="322.19" y2="207.97"/><line class="cls-11" x1="319.17" y1="208.25" x2="322.06" y2="208.73"/><line class="cls-11" x1="319.05" y1="209.01" x2="321.94" y2="209.49"/><line class="cls-11" x1="318.92" y1="209.77" x2="321.81" y2="210.25"/><line class="cls-11" x1="318.79" y1="210.53" x2="321.68" y2="211.01"/><line class="cls-11" x1="318.67" y1="211.29" x2="321.56" y2="211.77"/><line class="cls-11" x1="318.54" y1="212.05" x2="321.43" y2="212.53"/><line class="cls-11" x1="318.41" y1="212.8" x2="321.3" y2="213.29"/><line class="cls-11" x1="318.29" y1="213.56" x2="321.18" y2="214.05"/><line class="cls-11" x1="318.16" y1="214.32" x2="321.05" y2="214.81"/><line class="cls-11" x1="318.03" y1="215.08" x2="320.92" y2="215.56"/><line class="cls-11" x1="317.91" y1="215.84" x2="320.8" y2="216.33"/><line class="cls-11" x1="317.78" y1="216.6" x2="320.67" y2="217.08"/><line class="cls-11" x1="317.65" y1="217.36" x2="320.54" y2="217.85"/><line class="cls-11" x1="317.52" y1="218.12" x2="320.42" y2="218.6"/><line class="cls-11" x1="317.4" y1="218.88" x2="320.29" y2="219.37"/><line class="cls-11" x1="317.27" y1="219.64" x2="320.16" y2="220.12"/><line class="cls-11" x1="317.14" y1="220.4" x2="320.03" y2="220.88"/><line class="cls-11" x1="317.01" y1="221.16" x2="319.9" y2="221.64"/><line class="cls-11" x1="316.89" y1="221.92" x2="319.78" y2="222.4"/><line class="cls-11" x1="316.76" y1="222.68" x2="319.65" y2="223.16"/><line class="cls-11" x1="316.63" y1="223.44" x2="319.52" y2="223.92"/><line class="cls-11" x1="316.51" y1="224.19" x2="319.4" y2="224.68"/><line class="cls-11" x1="316.38" y1="224.96" x2="319.27" y2="225.44"/><line class="cls-11" x1="316.25" y1="225.71" x2="319.14" y2="226.2"/><line class="cls-11" x1="316.13" y1="226.48" x2="319.02" y2="226.96"/><line class="cls-11" x1="316" y1="227.23" x2="318.89" y2="227.72"/><line class="cls-11" x1="315.87" y1="228" x2="318.76" y2="228.48"/><line class="cls-11" x1="315.75" y1="228.75" x2="318.64" y2="229.24"/><line class="cls-11" x1="315.62" y1="229.51" x2="318.51" y2="229.99"/><line class="cls-11" x1="315.49" y1="230.27" x2="318.38" y2="230.76"/><line class="cls-11" x1="315.37" y1="231.03" x2="318.26" y2="231.51"/><line class="cls-11" x1="315.24" y1="231.79" x2="318.13" y2="232.28"/><line class="cls-11" x1="315.11" y1="232.55" x2="318" y2="233.03"/><line class="cls-11" x1="314.98" y1="233.31" x2="317.88" y2="233.8"/><line class="cls-11" x1="314.85" y1="234.07" x2="317.75" y2="234.55"/><line class="cls-11" x1="314.73" y1="234.83" x2="317.62" y2="235.32"/><line class="cls-11" x1="314.6" y1="235.59" x2="317.49" y2="236.07"/><line class="cls-11" x1="314.47" y1="236.35" x2="317.36" y2="236.83"/><line class="cls-11" x1="314.35" y1="237.11" x2="317.24" y2="237.59"/><line class="cls-11" x1="314.22" y1="237.87" x2="317.11" y2="238.35"/><line class="cls-11" x1="314.09" y1="238.62" x2="316.98" y2="239.11"/><line class="cls-11" x1="313.97" y1="239.39" x2="316.86" y2="239.87"/><line class="cls-11" x1="313.84" y1="240.14" x2="316.73" y2="240.63"/><line class="cls-11" x1="313.71" y1="240.91" x2="316.6" y2="241.39"/><line class="cls-11" x1="313.59" y1="241.66" x2="316.48" y2="242.15"/><line class="cls-11" x1="313.46" y1="242.43" x2="316.35" y2="242.91"/><line class="cls-11" x1="313.33" y1="243.18" x2="316.22" y2="243.67"/><line class="cls-11" x1="313.21" y1="243.95" x2="316.1" y2="244.42"/><line class="cls-11" x1="313.08" y1="244.7" x2="315.97" y2="245.19"/><line class="cls-11" x1="312.95" y1="245.46" x2="315.84" y2="245.94"/><line class="cls-11" x1="312.83" y1="246.22" x2="315.72" y2="246.71"/><line class="cls-11" x1="312.7" y1="246.98" x2="315.59" y2="247.46"/><line class="cls-11" x1="312.57" y1="247.74" x2="315.46" y2="248.23"/><line class="cls-11" x1="312.44" y1="248.5" x2="315.33" y2="248.98"/><line class="cls-11" x1="312.31" y1="249.26" x2="315.21" y2="249.74"/><line class="cls-11" x1="312.19" y1="250.02" x2="315.08" y2="250.5"/><line class="cls-11" x1="312.06" y1="250.78" x2="314.95" y2="251.26"/><line class="cls-11" x1="311.93" y1="251.54" x2="314.82" y2="252.02"/><line class="cls-11" x1="311.81" y1="252.3" x2="314.7" y2="252.78"/><line class="cls-11" x1="311.68" y1="253.05" x2="314.57" y2="253.54"/><line class="cls-11" x1="311.55" y1="253.82" x2="314.44" y2="254.3"/><line class="cls-11" x1="311.43" y1="254.57" x2="314.32" y2="255.06"/><line class="cls-11" x1="311.3" y1="255.34" x2="314.19" y2="255.82"/><line class="cls-11" x1="311.17" y1="256.09" x2="314.06" y2="256.58"/><line class="cls-11" x1="311.05" y1="256.85" x2="313.94" y2="257.34"/><line class="cls-11" x1="310.92" y1="257.61" x2="313.81" y2="258.1"/><line class="cls-11" x1="310.79" y1="258.37" x2="313.68" y2="258.86"/><line class="cls-11" x1="310.67" y1="259.13" x2="313.56" y2="259.61"/><line class="cls-11" x1="310.54" y1="259.89" x2="313.43" y2="260.37"/><line class="cls-11" x1="310.41" y1="260.65" x2="313.3" y2="261.13"/><line class="cls-11" x1="310.28" y1="261.41" x2="313.18" y2="261.89"/><line class="cls-11" x1="310.16" y1="262.17" x2="313.05" y2="262.65"/><line class="cls-11" x1="310.03" y1="262.93" x2="312.92" y2="263.41"/><line class="cls-11" x1="309.9" y1="263.69" x2="312.79" y2="264.17"/><line class="cls-11" x1="309.77" y1="264.45" x2="312.67" y2="264.93"/><line class="cls-11" x1="309.65" y1="265.21" x2="312.54" y2="265.69"/><line class="cls-11" x1="309.56" y1="266.29" x2="312.47" y2="266.57"/><line class="cls-11" x1="272.09" y1="176.01" x2="274.98" y2="175.55"/><line class="cls-11" x1="271.97" y1="175.24" x2="274.87" y2="174.79"/><line class="cls-11" x1="271.85" y1="174.49" x2="274.74" y2="174.03"/><line class="cls-11" x1="271.73" y1="173.72" x2="274.63" y2="173.27"/><line class="cls-11" x1="271.61" y1="172.96" x2="274.51" y2="172.51"/><line class="cls-11" x1="271.49" y1="172.2" x2="274.39" y2="171.75"/><line class="cls-11" x1="271.37" y1="171.44" x2="274.27" y2="170.99"/><line class="cls-11" x1="271.26" y1="170.68" x2="274.15" y2="170.23"/><line class="cls-11" x1="271.13" y1="169.92" x2="274.03" y2="169.47"/><line class="cls-11" x1="271.02" y1="169.16" x2="273.91" y2="168.7"/><line class="cls-11" x1="270.9" y1="168.4" x2="273.79" y2="167.95"/><line class="cls-11" x1="270.78" y1="167.64" x2="273.67" y2="167.19"/><line class="cls-11" x1="270.66" y1="166.88" x2="273.56" y2="166.42"/><line class="cls-11" x1="270.54" y1="166.12" x2="273.43" y2="165.67"/><line class="cls-11" x1="270.42" y1="165.36" x2="273.32" y2="164.9"/><line class="cls-11" x1="270.3" y1="164.6" x2="273.2" y2="164.14"/><line class="cls-11" x1="270.18" y1="163.83" x2="273.08" y2="163.38"/><line class="cls-11" x1="270.06" y1="163.08" x2="272.96" y2="162.62"/><line class="cls-11" x1="269.95" y1="162.31" x2="272.84" y2="161.86"/><line class="cls-11" x1="269.82" y1="161.55" x2="272.72" y2="161.1"/><line class="cls-11" x1="269.71" y1="160.79" x2="272.6" y2="160.34"/><line class="cls-11" x1="269.59" y1="160.03" x2="272.48" y2="159.58"/><line class="cls-11" x1="269.47" y1="159.27" x2="272.36" y2="158.82"/><line class="cls-11" x1="269.35" y1="158.51" x2="272.25" y2="158.06"/><line class="cls-11" x1="269.23" y1="157.75" x2="272.12" y2="157.29"/><line class="cls-11" x1="269.11" y1="156.99" x2="272.01" y2="156.54"/><line class="cls-11" x1="268.99" y1="156.23" x2="271.89" y2="155.78"/><line class="cls-11" x1="268.88" y1="155.47" x2="271.77" y2="155.01"/><line class="cls-11" x1="268.75" y1="154.7" x2="271.65" y2="154.26"/><line class="cls-11" x1="268.64" y1="153.95" x2="271.53" y2="153.49"/><line class="cls-11" x1="268.51" y1="153.19" x2="271.41" y2="152.73"/><line class="cls-11" x1="272.21" y1="176.77" x2="275.1" y2="176.31"/><line class="cls-11" x1="272.33" y1="177.53" x2="275.22" y2="177.08"/><line class="cls-11" x1="272.44" y1="178.29" x2="275.34" y2="177.83"/><line class="cls-11" x1="272.57" y1="179.05" x2="275.46" y2="178.6"/><line class="cls-11" x1="272.68" y1="179.81" x2="275.58" y2="179.36"/><line class="cls-11" x1="272.8" y1="180.57" x2="275.7" y2="180.12"/><line class="cls-11" x1="272.92" y1="181.33" x2="275.81" y2="180.88"/><line class="cls-11" x1="273.04" y1="182.09" x2="275.94" y2="181.64"/><line class="cls-11" x1="273.16" y1="182.85" x2="276.05" y2="182.4"/><line class="cls-11" x1="273.28" y1="183.62" x2="276.18" y2="183.16"/><line class="cls-11" x1="273.4" y1="184.37" x2="276.29" y2="183.92"/><line class="cls-11" x1="273.52" y1="185.13" x2="276.41" y2="184.68"/><line class="cls-11" x1="273.64" y1="185.9" x2="276.53" y2="185.44"/><line class="cls-11" x1="273.75" y1="186.66" x2="276.65" y2="186.2"/><line class="cls-11" x1="273.88" y1="187.42" x2="276.77" y2="186.97"/><line class="cls-11" x1="273.99" y1="188.18" x2="276.89" y2="187.72"/><line class="cls-11" x1="274.11" y1="188.94" x2="277.01" y2="188.49"/><line class="cls-11" x1="274.23" y1="189.7" x2="277.12" y2="189.25"/><line class="cls-11" x1="274.35" y1="190.46" x2="277.25" y2="190.01"/><line class="cls-11" x1="274.47" y1="191.22" x2="277.36" y2="190.77"/><line class="cls-11" x1="274.59" y1="191.98" x2="277.48" y2="191.53"/><line class="cls-11" x1="274.71" y1="192.74" x2="277.6" y2="192.29"/><line class="cls-11" x1="274.82" y1="193.51" x2="277.72" y2="193.05"/><line class="cls-11" x1="274.95" y1="194.26" x2="277.84" y2="193.81"/><line class="cls-11" x1="275.06" y1="195.03" x2="277.96" y2="194.57"/><line class="cls-11" x1="275.19" y1="195.79" x2="278.08" y2="195.33"/><line class="cls-11" x1="275.3" y1="196.54" x2="278.2" y2="196.1"/><line class="cls-11" x1="275.42" y1="197.31" x2="278.32" y2="196.85"/><line class="cls-11" x1="275.54" y1="198.07" x2="278.43" y2="197.62"/><line class="cls-11" x1="275.66" y1="198.83" x2="278.56" y2="198.38"/><line class="cls-11" x1="275.78" y1="199.59" x2="278.67" y2="199.13"/><line class="cls-11" x1="275.9" y1="200.35" x2="278.79" y2="199.9"/><line class="cls-11" x1="276.02" y1="201.11" x2="278.91" y2="200.66"/><line class="cls-11" x1="276.13" y1="201.87" x2="279.03" y2="201.42"/><line class="cls-11" x1="276.26" y1="202.63" x2="279.15" y2="202.18"/><line class="cls-11" x1="276.37" y1="203.39" x2="279.27" y2="202.94"/><line class="cls-11" x1="276.49" y1="204.15" x2="279.39" y2="203.7"/><line class="cls-11" x1="276.61" y1="204.92" x2="279.51" y2="204.46"/><line class="cls-11" x1="276.73" y1="205.67" x2="279.63" y2="205.22"/><line class="cls-11" x1="276.85" y1="206.44" x2="279.74" y2="205.98"/><line class="cls-11" x1="276.97" y1="207.2" x2="279.87" y2="206.74"/><line class="cls-11" x1="277.09" y1="207.96" x2="279.98" y2="207.51"/><line class="cls-11" x1="277.21" y1="208.72" x2="280.1" y2="208.26"/><line class="cls-11" x1="277.33" y1="209.48" x2="280.22" y2="209.03"/><line class="cls-11" x1="277.44" y1="210.24" x2="280.34" y2="209.79"/><line class="cls-11" x1="277.57" y1="211" x2="280.46" y2="210.54"/><line class="cls-11" x1="277.68" y1="211.76" x2="280.58" y2="211.31"/><line class="cls-11" x1="277.8" y1="212.52" x2="280.7" y2="212.07"/><line class="cls-11" x1="277.92" y1="213.28" x2="280.81" y2="212.83"/><line class="cls-11" x1="278.04" y1="214.04" x2="280.94" y2="213.59"/><line class="cls-11" x1="278.16" y1="214.8" x2="281.05" y2="214.35"/><line class="cls-11" x1="278.28" y1="215.56" x2="281.18" y2="215.11"/><line class="cls-11" x1="278.4" y1="216.33" x2="281.29" y2="215.87"/><line class="cls-11" x1="278.52" y1="217.09" x2="281.41" y2="216.63"/><line class="cls-11" x1="278.64" y1="217.85" x2="281.53" y2="217.4"/><line class="cls-11" x1="278.75" y1="218.61" x2="281.65" y2="218.15"/><line class="cls-11" x1="278.88" y1="219.37" x2="281.77" y2="218.92"/><line class="cls-11" x1="278.99" y1="220.13" x2="281.89" y2="219.68"/><line class="cls-11" x1="279.11" y1="220.89" x2="282.01" y2="220.44"/><line class="cls-11" x1="279.23" y1="221.65" x2="282.12" y2="221.2"/><line class="cls-11" x1="279.35" y1="222.41" x2="282.25" y2="221.96"/><line class="cls-11" x1="279.47" y1="223.17" x2="282.36" y2="222.72"/><line class="cls-11" x1="279.59" y1="223.94" x2="282.48" y2="223.48"/><line class="cls-11" x1="279.71" y1="224.69" x2="282.6" y2="224.24"/><line class="cls-11" x1="279.82" y1="225.45" x2="282.72" y2="225"/><line class="cls-11" x1="279.95" y1="226.22" x2="282.84" y2="225.76"/><line class="cls-11" x1="280.06" y1="226.97" x2="282.96" y2="226.53"/><line class="cls-11" x1="280.19" y1="227.74" x2="283.08" y2="227.28"/><line class="cls-11" x1="280.3" y1="228.5" x2="283.2" y2="228.04"/><line class="cls-11" x1="280.42" y1="229.26" x2="283.32" y2="228.81"/><line class="cls-11" x1="280.54" y1="230.02" x2="283.44" y2="229.56"/><line class="cls-11" x1="280.66" y1="230.78" x2="283.56" y2="230.33"/><line class="cls-11" x1="280.78" y1="231.54" x2="283.67" y2="231.09"/><line class="cls-11" x1="280.9" y1="232.3" x2="283.79" y2="231.85"/><line class="cls-11" x1="281.02" y1="233.06" x2="283.91" y2="232.61"/><line class="cls-11" x1="281.13" y1="233.82" x2="284.03" y2="233.37"/><line class="cls-11" x1="281.26" y1="234.58" x2="284.15" y2="234.13"/><line class="cls-11" x1="281.37" y1="235.35" x2="284.27" y2="234.89"/><line class="cls-11" x1="281.49" y1="236.1" x2="284.39" y2="235.65"/><line class="cls-11" x1="281.61" y1="236.87" x2="284.51" y2="236.41"/><line class="cls-11" x1="281.73" y1="237.63" x2="284.63" y2="237.17"/><line class="cls-11" x1="281.85" y1="238.38" x2="284.75" y2="237.94"/><line class="cls-11" x1="281.97" y1="239.15" x2="284.87" y2="238.69"/><line class="cls-11" x1="282.09" y1="239.91" x2="284.99" y2="239.45"/><line class="cls-11" x1="282.21" y1="240.67" x2="285.1" y2="240.22"/><line class="cls-11" x1="282.33" y1="241.43" x2="285.23" y2="240.97"/><line class="cls-11" x1="282.44" y1="242.19" x2="285.34" y2="241.74"/><line class="cls-11" x1="282.57" y1="242.95" x2="285.46" y2="242.5"/><line class="cls-11" x1="282.68" y1="243.71" x2="285.58" y2="243.26"/><line class="cls-11" x1="282.8" y1="244.47" x2="285.7" y2="244.02"/><line class="cls-11" x1="282.92" y1="245.23" x2="285.82" y2="244.78"/><line class="cls-11" x1="283.04" y1="245.99" x2="285.94" y2="245.54"/><line class="cls-11" x1="283.16" y1="246.76" x2="286.06" y2="246.3"/><line class="cls-11" x1="283.28" y1="247.51" x2="286.18" y2="247.06"/><line class="cls-11" x1="283.4" y1="248.28" x2="286.3" y2="247.82"/><line class="cls-11" x1="283.52" y1="249.04" x2="286.41" y2="248.58"/><line class="cls-11" x1="283.64" y1="249.8" x2="286.54" y2="249.35"/><line class="cls-11" x1="283.75" y1="250.56" x2="286.65" y2="250.11"/><line class="cls-11" x1="283.88" y1="251.32" x2="286.77" y2="250.87"/><line class="cls-11" x1="283.99" y1="252.08" x2="286.89" y2="251.63"/><line class="cls-11" x1="284.11" y1="252.84" x2="287.01" y2="252.39"/><line class="cls-11" x1="284.23" y1="253.6" x2="287.13" y2="253.15"/><line class="cls-11" x1="284.35" y1="254.37" x2="287.25" y2="253.91"/><line class="cls-11" x1="284.47" y1="255.12" x2="287.37" y2="254.67"/><line class="cls-11" x1="284.59" y1="255.88" x2="287.49" y2="255.43"/><line class="cls-11" x1="284.71" y1="256.65" x2="287.61" y2="256.19"/><line class="cls-11" x1="284.83" y1="257.4" x2="287.72" y2="256.95"/><line class="cls-11" x1="284.95" y1="258.17" x2="287.85" y2="257.71"/><line class="cls-11" x1="285.07" y1="258.93" x2="287.96" y2="258.47"/><line class="cls-11" x1="285.19" y1="259.69" x2="288.08" y2="259.24"/><line class="cls-11" x1="285.31" y1="260.45" x2="288.2" y2="259.99"/><line class="cls-11" x1="285.42" y1="261.21" x2="288.32" y2="260.76"/><line class="cls-11" x1="285.54" y1="261.97" x2="288.44" y2="261.52"/><line class="cls-11" x1="285.66" y1="262.73" x2="288.56" y2="262.28"/><line class="cls-11" x1="285.78" y1="263.49" x2="288.68" y2="263.04"/><line class="cls-11" x1="285.9" y1="264.25" x2="288.79" y2="263.8"/><line class="cls-11" x1="286.02" y1="265.01" x2="288.92" y2="264.56"/><line class="cls-11" x1="286.14" y1="265.78" x2="289.03" y2="265.32"/><line class="cls-11" x1="286.43" y1="266.62" x2="289.35" y2="266.33"/><line class="cls-12" x1="263.94" y1="359.88" x2="266.86" y2="359.88"/><line class="cls-12" x1="263.94" y1="361.26" x2="266.86" y2="361.26"/><line class="cls-12" x1="263.94" y1="362.64" x2="266.86" y2="362.64"/><line class="cls-12" x1="263.94" y1="364.01" x2="266.86" y2="364.01"/><line class="cls-12" x1="263.94" y1="365.39" x2="266.86" y2="365.39"/><line class="cls-12" x1="263.94" y1="366.77" x2="266.86" y2="366.77"/><line class="cls-12" x1="263.94" y1="368.15" x2="266.86" y2="368.15"/><line class="cls-12" x1="263.94" y1="369.53" x2="266.86" y2="369.53"/><line class="cls-12" x1="263.94" y1="370.9" x2="266.86" y2="370.9"/><line class="cls-12" x1="263.94" y1="372.28" x2="266.86" y2="372.28"/><line class="cls-12" x1="263.94" y1="373.66" x2="266.86" y2="373.66"/><line class="cls-12" x1="263.94" y1="375.04" x2="266.86" y2="375.04"/><line class="cls-12" x1="263.94" y1="376.42" x2="266.86" y2="376.42"/><line class="cls-12" x1="263.94" y1="377.79" x2="266.86" y2="377.79"/><line class="cls-12" x1="263.94" y1="379.17" x2="266.86" y2="379.17"/><line class="cls-12" x1="263.94" y1="380.55" x2="266.86" y2="380.55"/><line class="cls-12" x1="263.94" y1="381.93" x2="266.86" y2="381.93"/><line class="cls-12" x1="263.94" y1="383.3" x2="266.86" y2="383.3"/><line class="cls-12" x1="263.94" y1="384.68" x2="266.86" y2="384.68"/><line class="cls-12" x1="263.94" y1="386.06" x2="266.86" y2="386.06"/><line class="cls-12" x1="263.94" y1="387.44" x2="266.86" y2="387.44"/><line class="cls-12" x1="263.94" y1="388.82" x2="266.86" y2="388.82"/><line class="cls-12" x1="263.94" y1="390.19" x2="266.86" y2="390.19"/><line class="cls-12" x1="263.94" y1="391.57" x2="266.86" y2="391.57"/><line class="cls-12" x1="263.94" y1="392.94" x2="266.86" y2="392.94"/><line class="cls-12" x1="263.94" y1="394.32" x2="266.86" y2="394.32"/><line class="cls-12" x1="263.94" y1="395.7" x2="266.86" y2="395.7"/><line class="cls-12" x1="263.94" y1="397.08" x2="266.86" y2="397.08"/><line class="cls-12" x1="263.94" y1="398.45" x2="266.86" y2="398.45"/><line class="cls-12" x1="263.94" y1="399.83" x2="266.86" y2="399.83"/><line class="cls-12" x1="263.94" y1="401.21" x2="266.86" y2="401.21"/><line class="cls-12" x1="263.94" y1="402.59" x2="266.86" y2="402.59"/><line class="cls-12" x1="263.94" y1="403.97" x2="266.86" y2="403.97"/><line class="cls-12" x1="263.94" y1="405.34" x2="266.86" y2="405.34"/><line class="cls-12" x1="263.94" y1="406.72" x2="266.86" y2="406.72"/><line class="cls-12" x1="263.94" y1="408.1" x2="266.86" y2="408.1"/><line class="cls-12" x1="263.94" y1="409.48" x2="266.86" y2="409.48"/><line class="cls-12" x1="263.94" y1="410.86" x2="266.86" y2="410.86"/><line class="cls-12" x1="263.94" y1="412.23" x2="266.86" y2="412.23"/><line class="cls-12" x1="263.94" y1="413.61" x2="266.86" y2="413.61"/><line class="cls-12" x1="263.94" y1="414.99" x2="266.86" y2="414.99"/><line class="cls-12" x1="263.94" y1="416.37" x2="266.86" y2="416.37"/><line class="cls-12" x1="263.94" y1="417.74" x2="266.86" y2="417.74"/><line class="cls-12" x1="263.94" y1="419.12" x2="266.86" y2="419.12"/><line class="cls-12" x1="263.94" y1="420.5" x2="266.86" y2="420.5"/><line class="cls-12" x1="263.94" y1="421.88" x2="266.86" y2="421.88"/><line class="cls-12" x1="263.94" y1="423.26" x2="266.86" y2="423.26"/><line class="cls-12" x1="263.94" y1="424.63" x2="266.86" y2="424.63"/><line class="cls-12" x1="263.94" y1="426.01" x2="266.86" y2="426.01"/><line class="cls-12" x1="263.94" y1="427.39" x2="266.86" y2="427.39"/><line class="cls-12" x1="263.94" y1="428.77" x2="266.86" y2="428.77"/><line class="cls-12" x1="263.94" y1="430.14" x2="266.86" y2="430.14"/><line class="cls-12" x1="263.94" y1="431.52" x2="266.86" y2="431.52"/><line class="cls-12" x1="263.94" y1="432.9" x2="266.86" y2="432.9"/><line class="cls-12" x1="263.94" y1="434.28" x2="266.86" y2="434.28"/><line class="cls-12" x1="263.94" y1="435.66" x2="266.86" y2="435.66"/><line class="cls-12" x1="263.94" y1="437.03" x2="266.86" y2="437.03"/><line class="cls-12" x1="263.94" y1="438.41" x2="266.86" y2="438.41"/><line class="cls-12" x1="263.94" y1="439.79" x2="266.86" y2="439.79"/><line class="cls-12" x1="263.94" y1="441.17" x2="266.86" y2="441.17"/><line class="cls-12" x1="263.94" y1="442.55" x2="266.86" y2="442.55"/><line class="cls-12" x1="263.94" y1="443.92" x2="266.86" y2="443.92"/><line class="cls-12" x1="263.94" y1="445.3" x2="266.86" y2="445.3"/><line class="cls-12" x1="263.94" y1="446.68" x2="266.86" y2="446.68"/><line class="cls-12" x1="263.94" y1="448.06" x2="266.86" y2="448.06"/><line class="cls-12" x1="249.89" y1="175.66" x2="252.78" y2="175.22"/><line class="cls-12" x1="249.65" y1="174.3" x2="252.55" y2="173.85"/><line class="cls-12" x1="249.47" y1="172.94" x2="252.36" y2="172.49"/><line class="cls-12" x1="249.28" y1="171.58" x2="252.18" y2="171.13"/><line class="cls-12" x1="249.09" y1="170.22" x2="251.98" y2="169.77"/><line class="cls-12" x1="248.9" y1="168.85" x2="251.79" y2="168.41"/><line class="cls-12" x1="248.71" y1="167.49" x2="251.61" y2="167.04"/><line class="cls-12" x1="248.52" y1="166.13" x2="251.42" y2="165.68"/><line class="cls-12" x1="248.33" y1="164.77" x2="251.23" y2="164.33"/><line class="cls-12" x1="248.15" y1="163.41" x2="251.04" y2="162.96"/><line class="cls-12" x1="247.96" y1="162.05" x2="250.85" y2="161.6"/><line class="cls-12" x1="247.76" y1="160.68" x2="250.66" y2="160.24"/><line class="cls-12" x1="247.57" y1="159.32" x2="250.47" y2="158.88"/><line class="cls-12" x1="247.39" y1="157.96" x2="250.29" y2="157.52"/><line class="cls-12" x1="247.2" y1="156.6" x2="250.1" y2="156.16"/><line class="cls-12" x1="247.01" y1="155.24" x2="249.91" y2="154.79"/><line class="cls-12" x1="246.82" y1="153.87" x2="249.71" y2="153.43"/><line class="cls-12" x1="250.1" y1="177.03" x2="252.99" y2="176.58"/><line class="cls-12" x1="250.31" y1="178.39" x2="253.2" y2="177.94"/><line class="cls-12" x1="250.51" y1="179.75" x2="253.41" y2="179.3"/><line class="cls-12" x1="250.72" y1="181.11" x2="253.62" y2="180.66"/><line class="cls-12" x1="250.93" y1="182.47" x2="253.83" y2="182.02"/><line class="cls-12" x1="251.15" y1="183.83" x2="254.04" y2="183.39"/><line class="cls-12" x1="251.36" y1="185.2" x2="254.25" y2="184.75"/><line class="cls-12" x1="251.57" y1="186.56" x2="254.46" y2="186.11"/><line class="cls-12" x1="251.78" y1="187.92" x2="254.67" y2="187.47"/><line class="cls-12" x1="251.98" y1="189.28" x2="254.88" y2="188.83"/><line class="cls-12" x1="252.19" y1="190.64" x2="255.09" y2="190.2"/><line class="cls-12" x1="252.4" y1="192.01" x2="255.3" y2="191.56"/><line class="cls-12" x1="252.61" y1="193.36" x2="255.51" y2="192.92"/><line class="cls-12" x1="252.83" y1="194.72" x2="255.72" y2="194.28"/><line class="cls-12" x1="253.04" y1="196.09" x2="255.93" y2="195.64"/><line class="cls-12" x1="253.25" y1="197.45" x2="256.14" y2="197.01"/><line class="cls-12" x1="253.45" y1="198.81" x2="256.35" y2="198.37"/><line class="cls-12" x1="253.66" y1="200.17" x2="256.56" y2="199.72"/><line class="cls-12" x1="253.87" y1="201.53" x2="256.77" y2="201.09"/><line class="cls-12" x1="254.08" y1="202.9" x2="256.98" y2="202.45"/><line class="cls-12" x1="254.29" y1="204.26" x2="257.19" y2="203.81"/><line class="cls-12" x1="254.51" y1="205.62" x2="257.4" y2="205.17"/><line class="cls-12" x1="254.72" y1="206.98" x2="257.61" y2="206.53"/><line class="cls-12" x1="254.92" y1="208.34" x2="257.82" y2="207.89"/><line class="cls-12" x1="255.13" y1="209.7" x2="258.03" y2="209.26"/><line class="cls-12" x1="255.34" y1="211.07" x2="258.24" y2="210.62"/><line class="cls-12" x1="255.55" y1="212.43" x2="258.45" y2="211.98"/><line class="cls-12" x1="255.76" y1="213.79" x2="258.66" y2="213.34"/><line class="cls-12" x1="255.97" y1="215.15" x2="258.87" y2="214.7"/><line class="cls-12" x1="256.19" y1="216.51" x2="259.08" y2="216.07"/><line class="cls-12" x1="256.39" y1="217.88" x2="259.29" y2="217.43"/><line class="cls-12" x1="256.6" y1="219.24" x2="259.5" y2="218.79"/><line class="cls-12" x1="256.81" y1="220.6" x2="259.71" y2="220.15"/><line class="cls-12" x1="257.02" y1="221.96" x2="259.92" y2="221.51"/><line class="cls-12" x1="257.23" y1="223.32" x2="260.13" y2="222.87"/><line class="cls-12" x1="257.44" y1="224.68" x2="260.34" y2="224.24"/><line class="cls-12" x1="257.65" y1="226.05" x2="260.55" y2="225.6"/><line class="cls-12" x1="257.86" y1="227.4" x2="260.76" y2="226.96"/><line class="cls-12" x1="258.07" y1="228.77" x2="260.97" y2="228.32"/><line class="cls-12" x1="258.28" y1="230.13" x2="261.18" y2="229.68"/><line class="cls-12" x1="258.49" y1="231.49" x2="261.39" y2="231.05"/><line class="cls-12" x1="258.7" y1="232.85" x2="261.6" y2="232.41"/><line class="cls-12" x1="258.91" y1="234.21" x2="261.81" y2="233.77"/><line class="cls-12" x1="259.12" y1="235.57" x2="262.02" y2="235.13"/><line class="cls-12" x1="259.33" y1="236.94" x2="262.23" y2="236.49"/><line class="cls-12" x1="259.54" y1="238.3" x2="262.44" y2="237.86"/><line class="cls-12" x1="259.75" y1="239.66" x2="262.65" y2="239.21"/><line class="cls-12" x1="259.96" y1="241.02" x2="262.86" y2="240.57"/><line class="cls-12" x1="260.17" y1="242.38" x2="263.07" y2="241.94"/><line class="cls-12" x1="260.38" y1="243.75" x2="263.28" y2="243.3"/><line class="cls-12" x1="260.59" y1="245.11" x2="263.49" y2="244.66"/><line class="cls-12" x1="260.8" y1="246.47" x2="263.7" y2="246.02"/><line class="cls-12" x1="261.01" y1="247.83" x2="263.91" y2="247.38"/><line class="cls-12" x1="261.22" y1="249.19" x2="264.11" y2="248.74"/><line class="cls-12" x1="261.43" y1="250.55" x2="264.33" y2="250.11"/><line class="cls-12" x1="261.64" y1="251.92" x2="264.54" y2="251.47"/><line class="cls-12" x1="261.85" y1="253.28" x2="264.75" y2="252.83"/><line class="cls-12" x1="262.06" y1="254.64" x2="264.96" y2="254.19"/><line class="cls-12" x1="262.27" y1="256" x2="265.17" y2="255.55"/><line class="cls-12" x1="262.48" y1="257.36" x2="265.38" y2="256.92"/><line class="cls-12" x1="262.69" y1="258.73" x2="265.58" y2="258.28"/><line class="cls-12" x1="262.9" y1="260.09" x2="265.79" y2="259.64"/><line class="cls-12" x1="263.11" y1="261.44" x2="266" y2="261"/><line class="cls-12" x1="263.32" y1="262.81" x2="266.22" y2="262.36"/><line class="cls-12" x1="263.53" y1="264.17" x2="266.43" y2="263.72"/><line class="cls-12" x1="263.74" y1="265.53" x2="266.64" y2="265.09"/><line class="cls-14" x1="241.26" y1="292.77" x2="245.02" y2="292.77"/><line class="cls-14" x1="241.26" y1="294.93" x2="245.02" y2="294.93"/><line class="cls-14" x1="241.26" y1="297.08" x2="245.02" y2="297.08"/><line class="cls-14" x1="241.26" y1="299.23" x2="245.02" y2="299.23"/><line class="cls-14" x1="241.26" y1="301.39" x2="245.02" y2="301.39"/><line class="cls-14" x1="241.26" y1="303.54" x2="245.02" y2="303.54"/><line class="cls-14" x1="241.26" y1="305.7" x2="245.02" y2="305.7"/><line class="cls-14" x1="241.26" y1="307.85" x2="245.02" y2="307.85"/><line class="cls-14" x1="241.26" y1="310.01" x2="245.02" y2="310.01"/><line class="cls-14" x1="241.26" y1="312.16" x2="245.02" y2="312.16"/><line class="cls-14" x1="241.26" y1="314.31" x2="245.02" y2="314.31"/><line class="cls-14" x1="241.26" y1="316.47" x2="245.02" y2="316.47"/><line class="cls-14" x1="241.26" y1="318.62" x2="245.02" y2="318.62"/><line class="cls-14" x1="241.26" y1="320.78" x2="245.02" y2="320.78"/><line class="cls-14" x1="241.26" y1="322.93" x2="245.02" y2="322.93"/><line class="cls-14" x1="241.26" y1="325.08" x2="245.02" y2="325.08"/><line class="cls-14" x1="241.26" y1="327.24" x2="245.02" y2="327.24"/><line class="cls-14" x1="241.26" y1="329.4" x2="245.02" y2="329.4"/><line class="cls-14" x1="241.26" y1="331.55" x2="245.02" y2="331.55"/><line class="cls-14" x1="241.26" y1="333.7" x2="245.02" y2="333.7"/><line class="cls-14" x1="241.26" y1="335.85" x2="245.02" y2="335.85"/><line class="cls-14" x1="241.26" y1="338.01" x2="245.02" y2="338.01"/><line class="cls-14" x1="241.26" y1="340.17" x2="245.02" y2="340.17"/><line class="cls-14" x1="241.26" y1="342.32" x2="245.02" y2="342.32"/><line class="cls-14" x1="241.26" y1="344.47" x2="245.02" y2="344.47"/><line class="cls-14" x1="241.26" y1="346.63" x2="245.02" y2="346.63"/><line class="cls-14" x1="241.26" y1="348.78" x2="245.02" y2="348.78"/><line class="cls-14" x1="241.26" y1="350.94" x2="245.02" y2="350.94"/><line class="cls-14" x1="241.26" y1="353.09" x2="245.02" y2="353.09"/><line class="cls-14" x1="241.26" y1="355.24" x2="245.02" y2="355.24"/><line class="cls-14" x1="241.26" y1="357.4" x2="245.02" y2="357.4"/><line class="cls-14" x1="241.26" y1="359.55" x2="245.02" y2="359.55"/><line class="cls-14" x1="241.26" y1="361.71" x2="245.02" y2="361.71"/><line class="cls-14" x1="241.26" y1="363.86" x2="245.02" y2="363.86"/><line class="cls-14" x1="241.26" y1="366.01" x2="245.02" y2="366.01"/><line class="cls-14" x1="241.26" y1="368.17" x2="245.02" y2="368.17"/><line class="cls-14" x1="241.26" y1="370.33" x2="245.02" y2="370.33"/><line class="cls-14" x1="241.26" y1="372.48" x2="245.02" y2="372.48"/><line class="cls-14" x1="241.26" y1="374.63" x2="245.02" y2="374.63"/><line class="cls-14" x1="241.26" y1="376.79" x2="245.02" y2="376.79"/><line class="cls-14" x1="241.26" y1="378.94" x2="245.02" y2="378.94"/><line class="cls-14" x1="241.26" y1="381.1" x2="245.02" y2="381.1"/><line class="cls-14" x1="241.26" y1="383.25" x2="245.02" y2="383.25"/><line class="cls-14" x1="241.26" y1="385.4" x2="245.02" y2="385.4"/><line class="cls-14" x1="241.26" y1="387.56" x2="245.02" y2="387.56"/><line class="cls-14" x1="241.26" y1="389.71" x2="245.02" y2="389.71"/><line class="cls-14" x1="241.26" y1="391.87" x2="245.02" y2="391.87"/><line class="cls-14" x1="241.26" y1="394.02" x2="245.02" y2="394.02"/><line class="cls-14" x1="241.26" y1="396.18" x2="245.02" y2="396.18"/><line class="cls-14" x1="241.26" y1="398.33" x2="245.02" y2="398.33"/><line class="cls-14" x1="241.26" y1="400.48" x2="245.02" y2="400.48"/><line class="cls-14" x1="241.25" y1="402.64" x2="245.01" y2="402.64"/><line class="cls-14" x1="241.24" y1="404.8" x2="245" y2="404.8"/><line class="cls-14" x1="241.24" y1="406.95" x2="245" y2="406.95"/><line class="cls-14" x1="241.23" y1="409.1" x2="244.99" y2="409.1"/><line class="cls-14" x1="241.23" y1="411.25" x2="244.98" y2="411.25"/><line class="cls-14" x1="241.22" y1="413.41" x2="244.98" y2="413.41"/><line class="cls-14" x1="241.21" y1="415.57" x2="244.97" y2="415.57"/><line class="cls-14" x1="241.21" y1="417.72" x2="244.97" y2="417.72"/><line class="cls-14" x1="241.21" y1="419.87" x2="244.96" y2="419.87"/><line class="cls-14" x1="241.2" y1="422.03" x2="244.95" y2="422.03"/><line class="cls-14" x1="241.2" y1="424.18" x2="244.95" y2="424.18"/><line class="cls-14" x1="241.19" y1="426.34" x2="244.95" y2="426.34"/><line class="cls-14" x1="241.19" y1="428.49" x2="244.95" y2="428.49"/><line class="cls-14" x1="241.19" y1="430.64" x2="244.95" y2="430.64"/><line class="cls-14" x1="241.19" y1="432.8" x2="244.95" y2="432.8"/><line class="cls-14" x1="241.19" y1="434.96" x2="244.95" y2="434.96"/><line class="cls-14" x1="241.19" y1="437.11" x2="244.95" y2="437.11"/><line class="cls-14" x1="241.19" y1="439.26" x2="244.95" y2="439.26"/><line class="cls-14" x1="241.19" y1="441.41" x2="244.95" y2="441.41"/><line class="cls-14" x1="241.19" y1="443.57" x2="244.95" y2="443.57"/><line class="cls-14" x1="241.19" y1="445.73" x2="244.95" y2="445.73"/><line class="cls-14" x1="241.19" y1="447.88" x2="244.95" y2="447.88"/><polyline class="cls-16" points="310.86 448.54 311.21 265.56 330.15 152.67"/><polyline class="cls-17" points="334.09 448.54 334.32 267.3 349.38 152.67"/><polyline class="cls-18" points="357.2 448.54 357.44 267.03 374.04 152.67"/><line class="cls-1" x1="266.74" y1="151.96" x2="334.08" y2="151.96"/><line class="cls-13" x1="243.21" y1="266.92" x2="228.73" y2="152.77"/><line class="cls-14" x1="229.72" y1="175" x2="233.46" y2="174.65"/><line class="cls-14" x1="229.46" y1="172.87" x2="233.2" y2="172.52"/><line class="cls-14" x1="229.19" y1="170.73" x2="232.93" y2="170.38"/><line class="cls-14" x1="228.92" y1="168.59" x2="232.66" y2="168.24"/><line class="cls-14" x1="228.66" y1="166.45" x2="232.4" y2="166.1"/><line class="cls-14" x1="228.39" y1="164.32" x2="232.13" y2="163.97"/><line class="cls-14" x1="228.12" y1="162.18" x2="231.86" y2="161.83"/><line class="cls-14" x1="227.85" y1="160.04" x2="231.59" y2="159.69"/><line class="cls-14" x1="227.59" y1="157.9" x2="231.33" y2="157.55"/><line class="cls-14" x1="227.32" y1="155.77" x2="231.06" y2="155.42"/><line class="cls-14" x1="227.05" y1="153.63" x2="230.79" y2="153.28"/><line class="cls-14" x1="241.26" y1="266.92" x2="245.02" y2="266.92"/><line class="cls-14" x1="241.04" y1="264.8" x2="244.78" y2="264.46"/><line class="cls-14" x1="240.68" y1="262.64" x2="244.42" y2="262.29"/><line class="cls-14" x1="240.41" y1="260.51" x2="244.15" y2="260.16"/><line class="cls-14" x1="240.14" y1="258.37" x2="243.89" y2="258.02"/><line class="cls-14" x1="239.88" y1="256.23" x2="243.62" y2="255.88"/><line class="cls-14" x1="239.61" y1="254.09" x2="243.35" y2="253.74"/><line class="cls-14" x1="239.34" y1="251.95" x2="243.08" y2="251.61"/><line class="cls-14" x1="239.08" y1="249.82" x2="242.82" y2="249.47"/><line class="cls-14" x1="238.81" y1="247.68" x2="242.55" y2="247.33"/><line class="cls-14" x1="238.54" y1="245.54" x2="242.28" y2="245.19"/><line class="cls-14" x1="238.27" y1="243.4" x2="242.02" y2="243.06"/><line class="cls-14" x1="238.01" y1="241.27" x2="241.75" y2="240.92"/><line class="cls-14" x1="237.74" y1="239.13" x2="241.48" y2="238.78"/><line class="cls-14" x1="237.47" y1="236.99" x2="241.21" y2="236.64"/><line class="cls-14" x1="237.21" y1="234.85" x2="240.95" y2="234.51"/><line class="cls-14" x1="236.94" y1="232.72" x2="240.68" y2="232.37"/><line class="cls-14" x1="236.67" y1="230.58" x2="240.41" y2="230.23"/><line class="cls-14" x1="236.4" y1="228.44" x2="240.14" y2="228.09"/><line class="cls-14" x1="236.14" y1="226.3" x2="239.88" y2="225.96"/><line class="cls-14" x1="235.87" y1="224.17" x2="239.61" y2="223.82"/><line class="cls-14" x1="235.6" y1="222.03" x2="239.34" y2="221.68"/><line class="cls-14" x1="235.33" y1="219.89" x2="239.08" y2="219.54"/><line class="cls-14" x1="235.07" y1="217.75" x2="238.81" y2="217.41"/><line class="cls-14" x1="234.8" y1="215.62" x2="238.54" y2="215.27"/><line class="cls-14" x1="234.53" y1="213.48" x2="238.27" y2="213.13"/><line class="cls-14" x1="234.27" y1="211.34" x2="238.01" y2="210.99"/><line class="cls-14" x1="234" y1="209.2" x2="237.74" y2="208.86"/><line class="cls-14" x1="233.73" y1="207.07" x2="237.47" y2="206.72"/><line class="cls-14" x1="233.46" y1="204.93" x2="237.21" y2="204.58"/><line class="cls-14" x1="233.2" y1="202.79" x2="236.94" y2="202.44"/><line class="cls-14" x1="232.93" y1="200.65" x2="236.67" y2="200.31"/><line class="cls-14" x1="232.66" y1="198.52" x2="236.4" y2="198.17"/><line class="cls-14" x1="232.4" y1="196.38" x2="236.14" y2="196.03"/><line class="cls-14" x1="232.13" y1="194.24" x2="235.87" y2="193.89"/><line class="cls-14" x1="231.86" y1="192.1" x2="235.6" y2="191.76"/><line class="cls-14" x1="231.59" y1="189.97" x2="235.34" y2="189.62"/><line class="cls-14" x1="231.33" y1="187.83" x2="235.07" y2="187.48"/><line class="cls-14" x1="231.06" y1="185.69" x2="234.8" y2="185.34"/><line class="cls-14" x1="230.79" y1="183.55" x2="234.53" y2="183.21"/><line class="cls-14" x1="230.53" y1="181.42" x2="234.27" y2="181.07"/><line class="cls-14" x1="230.26" y1="179.28" x2="234" y2="178.93"/><line class="cls-14" x1="229.99" y1="177.14" x2="233.73" y2="176.79"/><line class="cls-14" x1="229.72" y1="175" x2="233.46" y2="174.65"/><line class="cls-14" x1="229.46" y1="172.87" x2="233.2" y2="172.52"/><line class="cls-14" x1="229.19" y1="170.73" x2="232.93" y2="170.38"/><line class="cls-14" x1="228.92" y1="168.59" x2="232.66" y2="168.24"/><line class="cls-14" x1="228.65" y1="166.45" x2="232.4" y2="166.1"/><line class="cls-14" x1="228.39" y1="164.32" x2="232.13" y2="163.97"/><line class="cls-14" x1="228.12" y1="162.18" x2="231.86" y2="161.83"/><line class="cls-14" x1="227.85" y1="160.04" x2="231.59" y2="159.69"/><line class="cls-14" x1="227.58" y1="157.9" x2="231.33" y2="157.55"/><line class="cls-14" x1="227.32" y1="155.77" x2="231.06" y2="155.42"/><line class="cls-14" x1="227.05" y1="153.63" x2="230.79" y2="153.28"/><rect class="cls-1" y="1.49" width="600" height="148.59"/><rect class="cls-1" y="448.36" width="600" height="148.59"/></g></g></svg>