<svg xmlns="http://www.w3.org/2000/svg" viewBox="0 0 600 601.27"><defs><style>.cls-1,.cls-15,.cls-7,.cls-8,.cls-9{fill:#fff;}.cls-1,.cls-13,.cls-17,.cls-2,.cls-3,.cls-5,.cls-6,.cls-7,.cls-8,.cls-9{stroke:#000;}.cls-1,.cls-10,.cls-11,.cls-12,.cls-13,.cls-14,.cls-15,.cls-17,.cls-2,.cls-3,.cls-4,.cls-5,.cls-6,.cls-7,.cls-8,.cls-9{stroke-miterlimit:10;}.cls-1,.cls-12{stroke-width:0.19px;}.cls-10,.cls-11,.cls-12,.cls-13,.cls-14,.cls-16,.cls-2,.cls-3,.cls-4,.cls-5,.cls-6{fill:none;}.cls-2{stroke-width:1.49px;}.cls-3{stroke-width:0.75px;}.cls-4{stroke:#e51729;}.cls-15,.cls-17,.cls-4{stroke-width:0.22px;}.cls-5{stroke-width:2.31px;}.cls-14,.cls-6{stroke-width:0.25px;}.cls-13,.cls-7{stroke-width:0.56px;}.cls-11,.cls-8{stroke-width:0.17px;}.cls-9{stroke-width:0.68px;}.cls-10{stroke:#00b38f;stroke-width:0.88px;}.cls-11,.cls-12,.cls-14{stroke:#999;stroke-dasharray:0.75 0.75 0.75 0.75;}.cls-15{stroke:#ff4500;}.cls-17{fill:#179fe5;}</style></defs><g id="Layer_2" data-name="Layer 2"><g id="Layer_1-2" data-name="Layer 1"><path class="cls-1" d="M266.93,216.67c-.33,2.22-.75,4.53-1.34,6.91L75.93,413.14c-.69-1.16-1.36-2.35-2-3.57Z"/><polygon class="cls-1" points="269.28 430.06 265.83 432.52 130.77 358.29 133.75 355.33 269.28 430.06"/><path class="cls-2" d="M420.51,453c60.13-.47,121.56-12.62,115.78-89.23-3.08-40.75-26.93-69.24-33.85-80-12-18.66-10-20.77-.76-41.54,36.22-81.43-33.84-88.47-80.74-88.47h-.76c-46.92,0-117,7-80.74,88.47,9.24,20.77,11.23,22.88-.75,41.54-6.92,10.77-30.78,39.24-33.85,80C299,440.36,360.38,452.49,420.51,453"/><path class="cls-3" d="M509.55,196.94H331.4c-.15,1.2-.25,2.46-.31,3.77H509.86C509.79,199.4,509.7,198.14,509.55,196.94Z"/><path class="cls-3" d="M495.83,249.27l-151.3,0c.58,1.34,1.12,2.57,1.6,3.77H494.27C494.73,251.85,495.25,250.6,495.83,249.27Z"/><path class="cls-3" d="M511.66,301.62,329,301.67c-.75,1.2-1.42,2.37-2.19,3.66H513.69C512.93,304,512.41,302.82,511.66,301.62Z"/><path class="cls-3" d="M532.78,353.91H308c-.2,1.24-.38,2.48-.55,3.77H533.33C533.19,356.39,533,355.15,532.78,353.91Z"/><path class="cls-3" d="M312.66,406.32c.5,1.28,1.06,2.54,1.67,3.77H527.05c.59-1.22,1-2.45,1.51-3.74Z"/><line class="cls-4" x1="331.63" y1="196.88" x2="420.51" y2="198.76"/><line class="cls-4" x1="344.7" y1="249.34" x2="420.51" y2="251.12"/><line class="cls-4" x1="329.04" y1="301.67" x2="420.51" y2="303.49"/><polygon class="cls-4" points="307.52 357.68 308.07 353.93 420.51 355.88 307.52 357.68"/><polygon class="cls-4" points="532.72 353.58 533.27 357.32 420.51 355.88 532.72 353.58"/><polygon class="cls-4" points="528.07 406.23 526.93 409.96 420.51 408.24 528.07 406.23"/><polyline class="cls-4" points="345.82 252.81 420.51 251.12 495.65 249.28"/><line class="cls-4" x1="494.05" y1="253.01" x2="420.51" y2="251.12"/><polyline class="cls-4" points="513.7 305.31 420.51 303.49 511.66 301.62"/><line class="cls-4" x1="327.9" y1="305.33" x2="420.51" y2="303.49"/><polyline class="cls-4" points="312.89 406.36 420.51 408.24 314.51 410.05"/><polyline class="cls-4" points="331.32 200.63 420.51 198.76 509.45 196.91"/><line class="cls-4" x1="509.36" y1="200.65" x2="420.51" y2="198.76"/><circle class="cls-5" cx="179.58" cy="240.56" r="26.92"/><polygon class="cls-1" points="150.38 333.04 147.56 335.87 99.59 287.85 101.72 284.41 150.38 333.04"/><polygon class="cls-1" points="122.61 361.55 119.79 364.38 77.85 322.33 79.97 318.89 122.61 361.55"/><polygon class="cls-1" points="232.35 446.34 227.01 447.59 114.2 371.49 115.76 367.67 232.35 446.34"/><polygon class="cls-1" points="232.5 359.09 235.32 361.93 279.21 317.99 277.07 314.55 232.5 359.09"/><polygon class="cls-1" points="207.41 331.57 210.23 334.41 258.2 286.39 256.06 282.95 207.41 331.57"/><polygon class="cls-1" points="131.49 258.42 134.62 261.31 156.88 207.46 152.65 207.37 131.49 258.42"/><polygon class="cls-1" points="227.48 259.28 223.99 261.31 201.72 207.46 205.96 207.37 227.48 259.28"/><path class="cls-6" d="M207.41,449.63l-10.1.44q-17.73.75-35.47,0l-10.1-.44v-9a4.89,4.89,0,0,1,5-4.78h45.72a4.89,4.89,0,0,1,5,4.78Z"/><path class="cls-7" d="M90.64,207.46H268.51a52.11,52.11,0,0,0-.92-14.26h-176A51.33,51.33,0,0,0,90.64,207.46Z"/><polygon class="cls-8" points="228.07 357.67 132.07 357.26 154.59 334.41 206.5 334.41 228.07 357.67"/><path class="cls-1" d="M92.55,216.65c.33,2.21.75,4.52,1.34,6.91L283.54,413.12c.7-1.16,1.36-2.35,2-3.57Z"/><path class="cls-1" d="M266.85,216.65c-.34,2.21-.76,4.52-1.35,6.91L75.85,413.12c-.7-1.16-1.36-2.35-2-3.57Z"/><path class="cls-7" d="M123.43,193.2s7.08,6.36,0,14.17"/><path class="cls-7" d="M236,193.2s-7.08,6.36,0,14.17"/><path class="cls-9" d="M200.4,178.19H158.76a4,4,0,0,1-4-4h0v-16.6h0a402.53,402.53,0,0,1,49.61,0h0v16.6A4,4,0,0,1,200.4,178.19Z"/><circle class="cls-5" cx="179.66" cy="240.58" r="26.92"/><polygon class="cls-1" points="150.46 333.06 147.65 335.9 99.68 287.87 101.81 284.43 150.46 333.06"/><polygon class="cls-1" points="122.69 361.57 119.87 364.41 77.93 322.35 80.07 318.91 122.69 361.57"/><polygon class="cls-1" points="232.44 446.36 227.09 447.62 114.28 371.51 115.84 367.69 232.44 446.36"/><polygon class="cls-1" points="232.59 359.11 235.4 361.95 279.29 318.01 277.16 314.57 232.59 359.11"/><polygon class="cls-1" points="207.5 331.6 210.32 334.44 258.28 286.41 256.15 282.97 207.5 331.6"/><polygon class="cls-1" points="131.57 258.44 134.7 261.33 156.97 207.49 152.74 207.39 131.57 258.44"/><polygon class="cls-1" points="227.56 259.3 224.07 261.33 201.81 207.49 206.04 207.39 227.56 259.3"/><path class="cls-10" d="M207.5,449.65l-10.11.45q-17.71.75-35.46,0l-10.11-.45v-9a4.89,4.89,0,0,1,5-4.77h45.72a4.89,4.89,0,0,1,5,4.77Z"/><path class="cls-10" d="M200.47,178.21H158.85a4,4,0,0,1-4-4h0v-16.6h0a402.53,402.53,0,0,1,49.61,0h0v16.6a4,4,0,0,1-4,4Z"/><polygon class="cls-10" points="228.07 357.67 132.16 357.28 154.59 334.41 204.83 334.44 228.07 357.67"/><line class="cls-11" x1="135.75" y1="355.34" x2="224.42" y2="355.34"/><line class="cls-11" x1="137.31" y1="353.28" x2="223.03" y2="353.28"/><line class="cls-11" x1="139.44" y1="351.22" x2="220.41" y2="351.22"/><line class="cls-11" x1="141.65" y1="349.15" x2="218.93" y2="349.15"/><line class="cls-11" x1="143.94" y1="347.09" x2="217.54" y2="347.09"/><line class="cls-11" x1="145.66" y1="345.03" x2="215.48" y2="345.03"/><line class="cls-11" x1="147.8" y1="342.96" x2="213.41" y2="342.96"/><line class="cls-11" x1="149.76" y1="340.9" x2="211.35" y2="340.9"/><line class="cls-11" x1="151.73" y1="338.84" x2="209.29" y2="338.84"/><line class="cls-11" x1="153.53" y1="336.77" x2="207.23" y2="336.77"/><path class="cls-1" d="M92.63,216.67c.33,2.22.75,4.53,1.34,6.91L283.63,413.14c.69-1.16,1.36-2.35,2-3.57Z"/><line class="cls-12" x1="92.51" y1="194.86" x2="266.81" y2="194.86"/><line class="cls-12" x1="92.48" y1="196.24" x2="266.78" y2="196.24"/><line class="cls-12" x1="92.45" y1="197.62" x2="266.75" y2="197.62"/><line class="cls-12" x1="92.42" y1="199.01" x2="266.72" y2="199.01"/><line class="cls-12" x1="92.39" y1="200.39" x2="266.69" y2="200.39"/><line class="cls-12" x1="92.36" y1="201.77" x2="266.66" y2="201.77"/><line class="cls-12" x1="92.33" y1="203.15" x2="266.63" y2="203.15"/><line class="cls-12" x1="92.3" y1="204.54" x2="266.6" y2="204.54"/><line class="cls-12" x1="92.27" y1="205.92" x2="266.57" y2="205.92"/><path class="cls-13" d="M236,193.22s-7.08,6.36,0,14.17"/><path class="cls-13" d="M123.5,193.22s7.07,6.36,0,14.17"/><path class="cls-13" d="M90.72,207.48H268.6a52.11,52.11,0,0,0-.92-14.26h-176A52.11,52.11,0,0,0,90.72,207.48Z"/><line class="cls-12" x1="156.18" y1="161.11" x2="203.14" y2="161.11"/><line class="cls-12" x1="156.18" y1="163.08" x2="203.14" y2="163.08"/><line class="cls-12" x1="156.18" y1="165.04" x2="203.14" y2="165.04"/><line class="cls-12" x1="156.18" y1="167.01" x2="203.14" y2="167.01"/><line class="cls-12" x1="156.18" y1="168.98" x2="203.14" y2="168.98"/><line class="cls-12" x1="156.18" y1="170.94" x2="203.14" y2="170.94"/><line class="cls-12" x1="156.18" y1="172.91" x2="203.14" y2="172.91"/><line class="cls-12" x1="156.18" y1="174.87" x2="203.14" y2="174.87"/><line class="cls-12" x1="158.37" y1="176.84" x2="200.9" y2="176.84"/><line class="cls-12" x1="156.18" y1="159.14" x2="203.14" y2="159.14"/><line class="cls-14" x1="153.38" y1="449.17" x2="206.07" y2="449.17"/><line class="cls-14" x1="153.38" y1="447.94" x2="206.07" y2="447.94"/><line class="cls-14" x1="153.38" y1="446.71" x2="206.07" y2="446.71"/><line class="cls-14" x1="153.38" y1="445.48" x2="206.07" y2="445.48"/><line class="cls-14" x1="153.38" y1="444.26" x2="206.07" y2="444.26"/><line class="cls-14" x1="153.38" y1="443.03" x2="206.07" y2="443.03"/><line class="cls-14" x1="153.38" y1="441.8" x2="206.07" y2="441.8"/><line class="cls-14" x1="153.38" y1="440.57" x2="206.07" y2="440.57"/><line class="cls-14" x1="153.38" y1="439.34" x2="206.07" y2="439.34"/><line class="cls-14" x1="154" y1="438.09" x2="204.89" y2="438.09"/><line class="cls-14" x1="155.05" y1="436.86" x2="203.97" y2="436.86"/><path class="cls-5" d="M179.58,453.65c60.13-.47,121.55-12.63,115.77-89.24-3.07-40.75-26.93-69.23-33.85-80-12-18.66-10-20.76-.75-41.54C297,161.45,226.9,154.41,180,154.41h-.76c-46.93,0-117,7-80.74,88.47,9.23,20.78,11.23,22.88-.76,41.54-6.92,10.77-30.77,39.24-33.85,80C58,441,119.43,453.18,179.58,453.65"/><circle class="cls-15" cx="162.22" cy="350.18" r="2.09"/><circle class="cls-15" cx="169.09" cy="350.18" r="2.09"/><circle class="cls-15" cx="176.42" cy="350.18" r="2.09"/><circle class="cls-15" cx="183.59" cy="350.18" r="2.09"/><circle class="cls-15" cx="190.69" cy="350.18" r="2.09"/><circle class="cls-15" cx="196.92" cy="350.18" r="2.09"/><polygon class="cls-1" points="269.2 430.04 265.75 432.49 130.68 358.26 133.66 355.31 269.2 430.04"/><rect class="cls-16" width="600" height="600"/><path class="cls-1" d="M266.93,216.67c-.33,2.22-.75,4.53-1.34,6.91L75.93,413.14c-.69-1.16-1.36-2.35-2-3.57Z"/><path class="cls-17" d="M437.35,154.76c-2.54-.15-5.18-.27-7.86-.35l-.05,5.53c2.52.09,4.89.19,7.21.32Z"/><path class="cls-17" d="M451.26,161.57l2.09-5.29c-2.36-.31-4.79-.59-7.24-.83l-1.29,5.45C447.12,161.08,449.24,161.31,451.26,161.57Z"/><path class="cls-17" d="M445.34,155.36c-2.31-.22-4.74-.4-7.25-.55l-.7,5.5c2.26.13,4.47.3,6.66.49Z"/><path class="cls-17" d="M428.69,154.42c-2.52-.08-5.11-.12-7.88-.14v5.53c2.68,0,5.28.07,7.83.15Z"/><path class="cls-17" d="M420,159.77v-5.53c-2.76,0-5.35.07-7.88.14l.06,5.54C414.71,159.85,417.37,159.79,420,159.77Z"/><path class="cls-17" d="M477.28,167.53l5.46-3.87a85.81,85.81,0,0,0-10.22-3.56l-4,4.7A88.27,88.27,0,0,1,477.28,167.53Z"/><path class="cls-17" d="M491.51,175.16l7-1.69a47.31,47.31,0,0,0-6.21-4.79l-6.64,2.69A47,47,0,0,1,491.51,175.16Z"/><path class="cls-17" d="M497.18,180.58l6.79-.91a38.33,38.33,0,0,0-4.78-5.56l-6.93,1.67A34.87,34.87,0,0,1,497.18,180.58Z"/><path class="cls-17" d="M459.57,162.83l2.92-5.1c-2.64-.51-5.44-1-8.36-1.37L452,161.64C454.59,162,457.13,162.39,459.57,162.83Z"/><path class="cls-17" d="M484.82,170.89l6.69-2.71a61.26,61.26,0,0,0-7.94-4.17l-5.43,3.85A63.6,63.6,0,0,1,484.82,170.89Z"/><path class="cls-17" d="M499,183a30.76,30.76,0,0,1,2.33,4.16l6.54-.35a37,37,0,0,0-3.39-6.4l-6.76.89C498.21,181.88,498.63,182.45,499,183Z"/><path class="cls-17" d="M467.73,164.58l4-4.71c-2.67-.76-5.5-1.4-8.43-2l-2.91,5.1C462.9,163.48,465.37,164,467.73,164.58Z"/><path class="cls-17" d="M354,269.17a21.58,21.58,0,0,0,.66-6h-6.39a16.68,16.68,0,0,1-.68,6Z"/><path class="cls-17" d="M339.21,187.89l-6.52-.34a39.24,39.24,0,0,0-1.93,7l6.46-.3A33.07,33.07,0,0,1,339.21,187.89Z"/><path class="cls-17" d="M341.86,183a21,21,0,0,1,1.26-1.7l-6.74-.89a36,36,0,0,0-3.39,6.4l6.54.35A28.73,28.73,0,0,1,341.86,183Z"/><path class="cls-17" d="M348.59,175.78l-6.94-1.67a39,39,0,0,0-4.78,5.56l6.79.91A34.42,34.42,0,0,1,348.59,175.78Z"/><path class="cls-17" d="M336.42,202.27l-6.4.51a59.2,59.2,0,0,0,.46,7.41l6.39-.75A55.44,55.44,0,0,1,336.42,202.27Z"/><path class="cls-17" d="M337.08,195l-6.46.3A46.84,46.84,0,0,0,330,202l6.39-.51A41.49,41.49,0,0,1,337.08,195Z"/><path class="cls-17" d="M337,210.26l-6.41.76c.3,2.26.71,4.6,1.23,6.9l6.45-.93C337.74,214.63,337.28,212.38,337,210.26Z"/><path class="cls-17" d="M355.17,171.37l-6.63-2.69a46.46,46.46,0,0,0-6.21,4.79l7,1.69A48.48,48.48,0,0,1,355.17,171.37Z"/><path class="cls-17" d="M380.48,163l-2.91-5.1c-2.93.59-5.75,1.26-8.42,2l4,4.71C375.47,164,378,163.48,380.48,163Z"/><path class="cls-17" d="M396,160.87l-1.28-5.45c-2.46.24-4.89.52-7.24.83l2.09,5.29C391.62,161.31,393.74,161.08,396,160.87Z"/><path class="cls-17" d="M403.47,160.31l-.7-5.5c-2.51.15-4.94.33-7.25.55l1.29,5.44C399,160.61,401.24,160.46,403.47,160.31Z"/><path class="cls-17" d="M388.81,161.66l-2.09-5.28c-2.91.4-5.72.86-8.35,1.37l2.91,5.11C383.73,162.39,386.26,162,388.81,161.66Z"/><path class="cls-17" d="M411.45,159.94l-.05-5.53c-2.68.08-5.32.2-7.86.35l.7,5.5C406.56,160.13,408.92,160,411.45,159.94Z"/><path class="cls-17" d="M372.3,164.8l-4-4.7a86.28,86.28,0,0,0-10.21,3.56l5.46,3.87A88.92,88.92,0,0,1,372.3,164.8Z"/><path class="cls-17" d="M362.72,167.86,357.29,164a61.85,61.85,0,0,0-7.94,4.17l6.69,2.71A63.6,63.6,0,0,1,362.72,167.86Z"/><path class="cls-17" d="M489.82,276.7h6.87a36.81,36.81,0,0,1-3.17-6.79h-6.44A36.68,36.68,0,0,0,489.82,276.7Z"/><path class="cls-17" d="M524.42,336.79l6.46-.17c-.69-2.09-1.43-4.16-2.21-6.17l-6.54.16C522.94,332.64,523.71,334.7,524.42,336.79Z"/><path class="cls-17" d="M521.87,329.85l6.54-.16c-.89-2.27-1.85-4.53-2.88-6.8l-6.66.18C519.91,325.33,520.91,327.6,521.87,329.85Z"/><path class="cls-17" d="M526.84,344.85l6.39-.16c-.6-2.4-1.31-4.85-2.1-7.3l-6.46.17C525.47,340,526.2,342.41,526.84,344.85Z"/><path class="cls-17" d="M518.48,322.32l6.65-.17c-1-2.21-2.09-4.38-3.19-6.46l-6.79.17C516.34,318,517.45,320.2,518.48,322.32Z"/><path class="cls-17" d="M510.13,307.31l7-.18c-1.28-2.1-2.62-4.22-4.08-6.43l-7.12.19C507.41,303.08,508.8,305.2,510.13,307.31Z"/><path class="cls-17" d="M528.53,352.4l6.36-.16c-.41-2.21-.9-4.49-1.46-6.79l-6.4.17C527.59,347.85,528.1,350.13,528.53,352.4Z"/><path class="cls-17" d="M514.74,315.11l6.79-.18c-1.24-2.33-2.58-4.7-4-7l-7,.18C512.06,310.41,513.44,312.77,514.74,315.11Z"/><path class="cls-17" d="M503.63,194.23l6.47.3a40.11,40.11,0,0,0-1.93-7l-6.52.34A33.76,33.76,0,0,1,503.63,194.23Z"/><path class="cls-17" d="M530.06,363.84c.11,1.36.2,2.77.26,4.18l6.35-.17c-.07-1.47-.14-2.75-.24-4s-.2-2.36-.35-3.59l-6.34.16C529.88,361.73,530,362.82,530.06,363.84Z"/><polygon class="cls-17" points="486.94 443.74 487.06 444.1 486.94 443.74 486.94 443.74"/><path class="cls-17" d="M529.64,359.67l6.35-.15c-.25-2.18-.57-4.37-1-6.52l-6.37.16C529.06,355.34,529.41,357.53,529.64,359.67Z"/><path class="cls-17" d="M505.39,300.13l7.14-.18c-1.36-2-2.78-4.09-4.34-6.27l-7.24.19C502.25,295.71,503.8,297.8,505.39,300.13Z"/><polygon class="cls-17" points="506.11 426.03 506.07 425.98 506.07 425.98 506.11 426.03"/><path class="cls-17" d="M486.22,263.13a21.21,21.21,0,0,0,.66,6h6.4a16.91,16.91,0,0,1-.68-6Z"/><path class="cls-17" d="M502.61,216.92l6.44.94c.52-2.26.93-4.62,1.23-6.9l-6.4-.76C503.58,212.37,503.15,214.62,502.61,216.92Z"/><path class="cls-17" d="M500.35,224.86l6.43,1.25c.83-2.62,1.5-5.13,2.09-7.46l-6.46-.93C501.86,220,501.16,222.39,500.35,224.86Z"/><path class="cls-17" d="M495.21,237.91l6.68,1.06c.76-1.79,1.51-3.6,2.27-5.38l-6.53-1.24C496.87,234.14,496.07,236,495.21,237.91Z"/><path class="cls-17" d="M497.89,231.62l6.51,1.23c.75-2.06,1.51-4.08,2.15-6l-6.45-1.22C499.44,227.56,498.69,229.59,497.89,231.62Z"/><path class="cls-17" d="M504.43,201.5l6.39.51a48.34,48.34,0,0,0-.59-6.7l-6.45-.3A41.49,41.49,0,0,1,504.43,201.5Z"/><path class="cls-17" d="M504,209.46l6.4.76a61.32,61.32,0,0,0,.45-7.42l-6.39-.51A55.45,55.45,0,0,1,504,209.46Z"/><path class="cls-17" d="M489.49,250.63l6.83.54c.76-1.66,1.57-3.45,2.61-5.69l-6.83-.8C491,247.09,490.17,249,489.49,250.63Z"/><path class="cls-17" d="M493.27,242.14l-.83,1.81,6.83.8,1.21-2.61c.39-.83.76-1.63,1.1-2.45l-6.69-1.05Z"/><path class="cls-17" d="M338.43,217.68l-6.45.93c.55,2.34,1.25,4.84,2.09,7.46l6.43-1.21C339.7,222.4,339,220,338.43,217.68Z"/><path class="cls-17" d="M494.7,285l7.16-.1-.56-.82c-1.71-2.57-3.07-4.72-4.17-6.58h-6.91C491.37,279.69,492.84,282.12,494.7,285Z"/><path class="cls-17" d="M486.26,262.33h6.42a23.56,23.56,0,0,1,1.06-4.63H487A26.8,26.8,0,0,0,486.26,262.33Z"/><path class="cls-17" d="M495.91,286.81c1,1.55,2.36,3.37,3.89,5.48l.61.83,7.25-.19q-1.38-1.92-2.58-3.56c-1-1.38-1.9-2.62-2.68-3.73l-7.2.1Z"/><path class="cls-17" d="M487.25,257H494c.49-1.43,1.13-3,2-5l-6.79-.55A55.18,55.18,0,0,0,487.25,257Z"/><path class="cls-17" d="M426.52,446l-.07,6.54c3.63-.11,7.18-.27,10.57-.46l-.16-6.57C433.52,445.7,430.05,445.86,426.52,446Z"/><path class="cls-17" d="M420.42,446.13c-1.8,0-3.56-.07-5.28-.13l.06,6.53c1.75.05,3.51.09,5.29.12s3.53,0,5.28-.12l.07-6.53c-1.75.05-3.51.1-5.32.13"/><path class="cls-17" d="M437.62,445.43l.15,6.56c3-.18,5.9-.4,8.74-.66l-.38-6.58Q442,445.14,437.62,445.43Z"/><path class="cls-17" d="M446.9,444.67l.38,6.58c3.41-.32,6.75-.71,9.92-1.14l-1.07-6.53C453.14,444,450,444.36,446.9,444.67Z"/><path class="cls-17" d="M404,445.48l-.16,6.57c3.38.19,6.92.35,10.56.46l-.07-6.54C410.81,445.86,407.34,445.7,404,445.48Z"/><path class="cls-17" d="M456.9,443.47,458,450c3.48-.49,6.88-1.06,10.1-1.69L466,442C463.11,442.52,460.05,443,456.9,443.47Z"/><path class="cls-17" d="M365.87,440l-3,6c2.91.75,6,1.51,9.19,2.13l2.06-6.34C371.24,441.27,368.49,440.67,365.87,440Z"/><path class="cls-17" d="M394.34,451.33c2.84.26,5.78.48,8.74.66l.16-6.56c-2.94-.19-5.8-.42-8.52-.68Z"/><path class="cls-17" d="M349.06,434.46l-2.94,5.82c2.41,1.06,5,2.06,7.65,3l3-5.9C354,436.46,351.43,435.49,349.06,434.46Z"/><path class="cls-17" d="M466.78,441.82l2.05,6.34c3.2-.64,6.29-1.36,9.2-2.13l-3-6C472.36,440.67,469.61,441.27,466.78,441.82Z"/><path class="cls-17" d="M357.46,437.6l-3,5.91c2.48.85,5,1.62,7.6,2.32l3-6C362.46,439.13,359.89,438.4,357.46,437.6Z"/><path class="cls-17" d="M374.84,442l-2.06,6.34c3.23.63,6.62,1.2,10.11,1.69l1.07-6.53C380.81,443,377.74,442.52,374.84,442Z"/><path class="cls-17" d="M383.65,450.11c3.18.43,6.52.82,9.93,1.14l.37-6.58c-3.14-.31-6.24-.68-9.23-1.09Z"/><path class="cls-17" d="M484.14,437.4l3,5.9c2.67-.92,5.23-1.92,7.65-3l-2.95-5.82C489.42,435.49,486.84,436.46,484.14,437.4Z"/><path class="cls-17" d="M530,382.31l6.43.24c.18-2.09.29-4.29.35-6.53l-6.4.17C530.33,378.22,530.17,380.28,530,382.31Z"/><path class="cls-17" d="M529,389.75l6.34,1.11c.46-2.44.81-5,1.05-7.54l-6.43-.24C529.7,385.33,529.41,387.59,529,389.75Z"/><path class="cls-17" d="M527,397.4l6.21,1.88a73.22,73.22,0,0,0,1.92-7.69l-6.35-1.11A65.62,65.62,0,0,1,527,397.4Z"/><path class="cls-17" d="M524.34,404.48l5.83,2.89a68.24,68.24,0,0,0,2.82-7.32l-6.21-1.88A57.48,57.48,0,0,1,524.34,404.48Z"/><path class="cls-17" d="M530.36,368.79c.08,2.17.09,4.34,0,6.61l6.38-.17c0-2.18,0-4.39-.09-6.61Z"/><path class="cls-17" d="M519.31,413.21l5.65,3.36a59.46,59.46,0,0,0,4.91-8.51L524,405.17A55.79,55.79,0,0,1,519.31,413.21Z"/><path class="cls-17" d="M499.79,430.55l3.21,5.64a76.17,76.17,0,0,0,7.1-4.53l-4.08-5.1A68.6,68.6,0,0,1,499.79,430.55Z"/><path class="cls-17" d="M475.75,439.81l3,6c2.58-.69,5.13-1.47,7.61-2.32l-3-5.9C481,438.4,478.39,439.13,475.75,439.81Z"/><path class="cls-17" d="M341.74,430.92l-3.24,5.65c2.18,1.21,4.47,2.35,6.84,3.4l2.94-5.82C346,433.15,343.82,432.07,341.74,430.92Z"/><path class="cls-17" d="M492.54,434.15l2.95,5.82c2.36-1.05,4.66-2.19,6.84-3.4l-3.21-5.65C497,432.07,494.84,433.15,492.54,434.15Z"/><path class="cls-17" d="M340.76,225.59l-6.44,1.22c.63,2,1.35,4,2.15,6l6.51-1.23C342.16,229.59,341.42,227.56,340.76,225.59Z"/><path class="cls-17" d="M514.23,419.39l-.53.55,4.73,4.53a61.33,61.33,0,0,0,6.09-7.28l-5.66-3.37A53.62,53.62,0,0,1,514.23,419.39Z"/><path class="cls-17" d="M506.65,426.08l4.07,5.09a63.65,63.65,0,0,0,7.17-6.16l-4.73-4.53A59.87,59.87,0,0,1,506.65,426.08Z"/><path class="cls-17" d="M335,300.89l-7.12-.19c-1.47,2.21-2.8,4.32-4.08,6.43l7,.18C332.05,305.21,333.44,303.08,335,300.89Z"/><path class="cls-17" d="M350.64,277.47h-6.91c-1.11,1.88-2.43,4-4.18,6.58-.17.27-.37.55-.56.83l7.17.1C348,282.12,349.48,279.69,350.64,277.47Z"/><path class="cls-17" d="M341.11,292.21c1.51-2.07,2.81-3.87,3.84-5.4l.71-1.07-7.2-.1c-.76,1.11-1.68,2.35-2.69,3.73-.79,1.09-1.66,2.26-2.57,3.56l7.25.19Z"/><path class="cls-17" d="M339.91,293.87l-7.25-.19c-1.55,2.18-3,4.24-4.33,6.27l7.13.18C337.06,297.8,338.58,295.71,339.91,293.87Z"/><path class="cls-17" d="M330.26,308.07l-7-.18c-1.4,2.35-2.74,4.71-4,7l6.8.18C327.41,312.77,328.8,310.41,330.26,308.07Z"/><path class="cls-17" d="M322,323.08l-6.65-.17c-1,2.26-2,4.53-2.88,6.79l6.54.17C320,327.6,321,325.33,322,323.08Z"/><path class="cls-17" d="M325.71,315.86l-6.8-.17c-1.09,2.09-2.16,4.26-3.18,6.46l6.66.17C323.4,320.2,324.52,318,325.71,315.86Z"/><path class="cls-17" d="M347.59,242.14l-1.61-3.5-6.73,1.05c.36.82.72,1.62,1.1,2.45l1.21,2.61,6.79-.8A15.94,15.94,0,0,0,347.59,242.14Z"/><path class="cls-17" d="M353.78,269.94h-6.45a37.07,37.07,0,0,1-3.16,6.79H351A38,38,0,0,0,353.78,269.94Z"/><path class="cls-17" d="M348.76,244.68l-6.83.8c1,2.26,1.86,4,2.6,5.69l6.84-.54C350.69,249,349.87,247.09,348.76,244.68Z"/><path class="cls-17" d="M343.26,232.35l-6.52,1.24c.7,1.79,1.45,3.6,2.22,5.38l6.68-1.06C344.79,236,344,234.14,343.26,232.35Z"/><path class="cls-17" d="M351.67,251.37l-6.79.55c.89,2,1.51,3.61,2,5h6.69A55,55,0,0,0,351.67,251.37Z"/><path class="cls-17" d="M354.6,262.33a26,26,0,0,0-.75-4.63h-6.71a22.84,22.84,0,0,1,1.05,4.63Z"/><path class="cls-17" d="M314.05,398.16l-6.21,1.89a66,66,0,0,0,2.81,7.31l5.86-2.89A59.7,59.7,0,0,1,314.05,398.16Z"/><path class="cls-17" d="M334.82,426.56l-4.07,5.09a77.67,77.67,0,0,0,7.11,4.53l3.21-5.64A68,68,0,0,1,334.82,426.56Z"/><path class="cls-17" d="M316.84,405.17,311,408.06a60.49,60.49,0,0,0,4.92,8.51l5.65-3.36A54.36,54.36,0,0,1,316.84,405.17Z"/><path class="cls-17" d="M310.92,383.07l-6.43.23c.25,2.58.6,5.12,1.05,7.55l6.35-1.11C311.48,387.59,311.16,385.33,310.92,383.07Z"/><path class="cls-17" d="M312,390.51l-6.35,1.11a75.74,75.74,0,0,0,1.91,7.69l6.21-1.87A66.38,66.38,0,0,1,312,390.51Z"/><path class="cls-17" d="M318.72,330.61l-6.54-.16c-.75,2-1.51,4.09-2.2,6.17l6.46.17Q317.51,333.66,318.72,330.61Z"/><path class="cls-17" d="M327.7,420.48,323,425a62.78,62.78,0,0,0,7.17,6.16l4.06-5.09A58.69,58.69,0,0,1,327.7,420.48Z"/><path class="cls-17" d="M326.63,419.39a53.6,53.6,0,0,1-4.64-5.56l-5.66,3.38a60.44,60.44,0,0,0,6.09,7.27l4.74-4.53Z"/><path class="cls-17" d="M310.47,376.17l-6.4-.17c.05,2.27.17,4.44.35,6.53l6.43-.23C310.66,380.28,310.53,378.22,310.47,376.17Z"/><path class="cls-17" d="M312.19,353.17l-6.37-.17c-.38,2.15-.7,4.34-1,6.52l6.35.16C311.47,357.53,311.8,355.34,312.19,353.17Z"/><path class="cls-17" d="M316.18,337.56l-6.46-.17c-.75,2.45-1.51,4.9-2.1,7.3l6.4.16C314.66,342.42,315.38,340,316.18,337.56Z"/><path class="cls-17" d="M313.83,345.62l-6.4-.17c-.57,2.3-1.06,4.58-1.46,6.79l6.36.16C312.76,350.13,313.26,347.86,313.83,345.62Z"/><path class="cls-17" d="M310.8,363.84c.07-1,.18-2.14.32-3.39l-6.35-.16c-.14,1.26-.25,2.44-.34,3.59s-.18,2.5-.25,4l6.36.17C310.58,366.63,310.68,365.22,310.8,363.84Z"/><path class="cls-17" d="M310.5,368.79l-6.35-.17c-.09,2.23-.12,4.45-.09,6.61l6.39.17C310.4,373.14,310.42,371,310.5,368.79Z"/><path class="cls-17" d="M90.51,220.07c-.57-2.38-1-4.69-1.34-6.9"/><path class="cls-17" d="M196.46,155.93c-2.54-.15-5.17-.26-7.85-.36l-.06,5.54c2.53.09,4.9.18,7.21.32Z"/><path class="cls-17" d="M210.4,162.72l2.09-5.28c-2.35-.32-4.77-.59-7.23-.82L204,162.06C206.27,162.25,208.38,162.48,210.4,162.72Z"/><path class="cls-17" d="M204.49,156.53c-2.32-.22-4.75-.4-7.26-.56l-.7,5.51c2.27.13,4.47.3,6.67.49Z"/><path class="cls-17" d="M187.84,155.55c-2.53-.07-5.12-.12-7.88-.14v5.53c2.67,0,5.28.08,7.82.15Z"/><path class="cls-17" d="M179.19,160.94v-5.53c-2.77,0-5.36.07-7.88.14l.06,5.54C173.89,161,176.51,161,179.19,160.94Z"/><path class="cls-17" d="M236.42,168.7l5.46-3.87a88.74,88.74,0,0,0-10.21-3.57l-4,4.71A86.29,86.29,0,0,1,236.42,168.7Z"/><path class="cls-17" d="M250.66,176.3l7-1.69a47.21,47.21,0,0,0-6.22-4.79l-6.63,2.71A47.15,47.15,0,0,1,250.66,176.3Z"/><path class="cls-17" d="M256.32,181.75l6.79-.9a37.89,37.89,0,0,0-4.78-5.57L251.39,177A35.52,35.52,0,0,1,256.32,181.75Z"/><path class="cls-17" d="M218.72,164l2.91-5.1c-2.64-.51-5.44-1-8.35-1.37l-2.09,5.28C213.74,163.17,216.25,163.56,218.72,164Z"/><path class="cls-17" d="M244,172.06l6.7-2.71a62.64,62.64,0,0,0-7.95-4.17L237.28,169A63.6,63.6,0,0,1,244,172.06Z"/><path class="cls-17" d="M258.14,184.15a29.71,29.71,0,0,1,2.33,4.16L267,188a35.31,35.31,0,0,0-3.39-6.4l-6.73.89C257.35,183.05,257.75,183.62,258.14,184.15Z"/><path class="cls-17" d="M226.88,165.74l4-4.72c-2.66-.75-5.49-1.4-8.42-2l-2.91,5.09C222.05,164.62,224.55,165.16,226.88,165.74Z"/><path class="cls-17" d="M113.13,270.34a21.61,21.61,0,0,0,.65-6H107.4a16.91,16.91,0,0,1-.68,6Z"/><path class="cls-17" d="M98.35,189.06l-6.52-.34a39.21,39.21,0,0,0-1.92,7l6.46-.3A32.82,32.82,0,0,1,98.35,189.06Z"/><path class="cls-17" d="M101,184.15a18.9,18.9,0,0,1,1.26-1.7l-6.76-.86a35.9,35.9,0,0,0-3.38,6.4l6.54.35A29.11,29.11,0,0,1,101,184.15Z"/><path class="cls-17" d="M107.74,177l-6.95-1.67A38.27,38.27,0,0,0,96,180.83l6.79.91A34.35,34.35,0,0,1,107.74,177Z"/><path class="cls-17" d="M95.57,203.47l-6.4.51a61.28,61.28,0,0,0,.45,7.41l6.41-.75A52.11,52.11,0,0,1,95.57,203.47Z"/><path class="cls-17" d="M96.22,196.18l-6.45.29a48.62,48.62,0,0,0-.59,6.71l6.39-.51A42.73,42.73,0,0,1,96.22,196.18Z"/><path class="cls-17" d="M96.12,211.39l-6.4.76c.3,2.26.75,4.61,1.23,6.9l6.44-.93C96.85,215.8,96.43,213.55,96.12,211.39Z"/><path class="cls-17" d="M114.32,172.53l-6.64-2.69a47.19,47.19,0,0,0-6.21,4.8l7,1.66A46.41,46.41,0,0,1,114.32,172.53Z"/><path class="cls-17" d="M139.63,164.15l-2.91-5.1c-2.93.58-5.76,1.26-8.43,2l4,4.71C134.63,165.16,137.1,164.62,139.63,164.15Z"/><path class="cls-17" d="M155.18,162l-1.29-5.44c-2.45.24-4.88.51-7.24.82l2.09,5.29C150.77,162.48,152.86,162.25,155.18,162Z"/><path class="cls-17" d="M162.61,161.48l-.7-5.51c-2.5.16-4.93.34-7.25.56L156,162C158.15,161.78,160.41,161.61,162.61,161.48Z"/><path class="cls-17" d="M148,162.84l-2.09-5.28q-4.38.6-8.36,1.37l2.92,5.1C142.87,163.56,145.4,163.17,148,162.84Z"/><path class="cls-17" d="M170.6,161.11l-.06-5.54c-2.68.1-5.32.21-7.86.36l.7,5.5C165.69,161.29,168.07,161.21,170.6,161.11Z"/><path class="cls-17" d="M131.45,166l-4-4.71a87.68,87.68,0,0,0-10.22,3.57l5.46,3.87A88.27,88.27,0,0,1,131.45,166Z"/><path class="cls-17" d="M121.86,169l-5.43-3.85a62.52,62.52,0,0,0-7.94,4.17l6.7,2.71A62.53,62.53,0,0,1,121.86,169Z"/><path class="cls-17" d="M249,277.87h6.87a36.76,36.76,0,0,1-3.16-6.79h-6.45A37.39,37.39,0,0,0,249,277.87Z"/><path class="cls-17" d="M283.56,338l6.46-.17c-.69-2.09-1.43-4.16-2.2-6.17l-6.54.16C282.09,333.81,282.86,335.87,283.56,338Z"/><path class="cls-17" d="M281,331l6.55-.17q-1.33-3.39-2.88-6.79l-6.66.18C279.05,326.47,280.06,328.77,281,331Z"/><path class="cls-17" d="M286,346l6.4-.16c-.61-2.4-1.32-4.85-2.1-7.3l-6.46.17C284.62,341.13,285.34,343.58,286,346Z"/><path class="cls-17" d="M277.62,323.49l6.66-.17c-1-2.21-2.09-4.38-3.19-6.46l-6.79.17C275.48,319.2,276.62,321.37,277.62,323.49Z"/><path class="cls-17" d="M269.28,308.48l7-.18c-1.29-2.1-2.62-4.22-4.09-6.43l-7.11.19C266.56,304.26,268,306.37,269.28,308.48Z"/><path class="cls-17" d="M287.67,353.57l6.37-.16c-.41-2.21-.9-4.49-1.47-6.79l-6.4.17C286.75,349,287.24,351.3,287.67,353.57Z"/><path class="cls-17" d="M273.88,316.28l6.79-.18c-1.24-2.33-2.58-4.69-4-7l-7,.18C271.2,311.58,272.59,313.94,273.88,316.28Z"/><path class="cls-17" d="M262.78,195.4l6.46.3a38.42,38.42,0,0,0-1.93-7l-6.51.34A33.76,33.76,0,0,1,262.78,195.4Z"/><path class="cls-17" d="M289.21,365c.11,1.36.19,2.77.26,4.18l6.35-.17c-.06-1.47-.15-2.74-.24-4s-.21-2.36-.34-3.59l-6.36.16C289,362.9,289.13,364,289.21,365Z"/><polygon class="cls-17" points="246.08 444.91 246.21 445.28 246.08 444.91 246.08 444.91"/><path class="cls-17" d="M288.79,360.86l6.35-.17c-.26-2.18-.58-4.37-1-6.52l-6.37.17C288.2,356.51,288.53,358.7,288.79,360.86Z"/><path class="cls-17" d="M264.55,301.3l7.13-.18c-1.35-2-2.77-4.09-4.33-6.27l-7.25.19C261.42,296.88,263,299,264.55,301.3Z"/><polygon class="cls-17" points="265.25 427.2 265.22 427.15 265.22 427.15 265.25 427.2"/><path class="cls-17" d="M245.36,264.3a22,22,0,0,0,.66,6h6.41a16.91,16.91,0,0,1-.68-6Z"/><path class="cls-17" d="M261.75,218.09l6.45.94c.52-2.3.93-4.62,1.23-6.9l-6.41-.76C262.73,213.54,262.28,215.79,261.75,218.09Z"/><path class="cls-17" d="M259.5,226l6.44,1.21c.83-2.62,1.51-5.12,2.08-7.46l-6.45-.93C261,221.15,260.31,223.56,259.5,226Z"/><path class="cls-17" d="M254.36,239.08l6.68,1.06c.75-1.79,1.51-3.6,2.22-5.38l-6.52-1.24C256,235.31,255.21,237.19,254.36,239.08Z"/><path class="cls-17" d="M257,232.79l6.51,1.23c.79-2.05,1.51-4.08,2.16-6l-6.41-1.23C258.58,228.73,257.84,230.76,257,232.79Z"/><path class="cls-17" d="M263.57,202.67l6.39.51a45.69,45.69,0,0,0-.58-6.71l-6.46-.29A40.32,40.32,0,0,1,263.57,202.67Z"/><path class="cls-17" d="M263.13,210.63l6.4.76A61.44,61.44,0,0,0,270,204l-6.4-.51A53.72,53.72,0,0,1,263.13,210.63Z"/><path class="cls-17" d="M248.63,251.77l6.84.54c.75-1.66,1.56-3.45,2.6-5.69l-6.83-.8C250.13,248.26,249.31,250.14,248.63,251.77Z"/><path class="cls-17" d="M252.41,243.31l-.83,1.81,6.83.8,1.21-2.61c.38-.83.75-1.63,1.1-2.44L254,239.81Z"/><path class="cls-17" d="M97.57,218.85l-6.45.93c.55,2.34,1.25,4.84,2.09,7.46L99.65,226C98.84,223.57,98.14,221.16,97.57,218.85Z"/><path class="cls-17" d="M253.84,286.15l7.17-.1c-.19-.28-.39-.56-.56-.83-1.72-2.55-3.08-4.71-4.18-6.58h-6.91C250.52,280.83,252,283.29,253.84,286.15Z"/><path class="cls-17" d="M245.4,263.53h6.43a24.27,24.27,0,0,1,1-4.63h-6.7A25.89,25.89,0,0,0,245.4,263.53Z"/><path class="cls-17" d="M255.05,288c1,1.55,2.36,3.37,3.9,5.47l.6.83,7.25-.18c-.91-1.28-1.77-2.46-2.57-3.57-1-1.38-1.9-2.61-2.69-3.72l-7.19.09C254.58,287.23,254.81,287.62,255.05,288Z"/><path class="cls-17" d="M246.39,258.13h6.74c.49-1.43,1.12-3,2-5l-6.79-.55A52.89,52.89,0,0,0,246.39,258.13Z"/><path class="cls-17" d="M185.67,447.15l-.07,6.53c3.64-.11,7.17-.27,10.56-.46l-.16-6.57C192.66,446.86,189.19,447,185.67,447.15Z"/><path class="cls-17" d="M179.57,447.3c-1.81,0-3.58-.08-5.28-.13l.06,6.53c1.75.05,3.52.09,5.29.12s3.53,0,5.28-.12l.07-6.53-5.29.13"/><path class="cls-17" d="M196.76,446.6l.16,6.57c3-.19,5.89-.41,8.74-.67l-.38-6.58C202.55,446.18,199.69,446.41,196.76,446.6Z"/><path class="cls-17" d="M206.05,445.84l.38,6.58c3.41-.31,6.74-.7,9.92-1.14l-1.07-6.53C212.3,445.16,209.19,445.53,206.05,445.84Z"/><path class="cls-17" d="M163.16,446.65l-.16,6.57c3.37.19,6.92.35,10.56.46l-.07-6.53C170,447,166.49,446.86,163.16,446.65Z"/><path class="cls-17" d="M216,444.64l1.07,6.54c3.49-.5,6.88-1.07,10.11-1.7l-2.06-6.34C222.29,443.69,219.19,444.19,216,444.64Z"/><path class="cls-17" d="M125,441.17l-3,6c2.91.75,6,1.51,9.2,2.12l2-6.34C130.39,442.44,127.64,441.84,125,441.17Z"/><path class="cls-17" d="M153.49,452.49c2.84.27,5.78.48,8.74.67l.16-6.57c-2.94-.19-5.8-.42-8.52-.68Z"/><path class="cls-17" d="M108.17,435.63l-3,5.83c2.42,1.05,5,2.05,7.66,3l3-5.9C113.16,437.63,110.6,436.64,108.17,435.63Z"/><path class="cls-17" d="M225.92,443l2.06,6.33c3.2-.64,6.29-1.35,9.2-2.12l-3-6C231.52,441.84,228.76,442.44,225.92,443Z"/><path class="cls-17" d="M116.64,438.77l-3,5.91c2.48.85,5,1.62,7.6,2.32l3-6C121.61,440.3,119,439.56,116.64,438.77Z"/><path class="cls-17" d="M134,443.14,132,449.48c3.22.63,6.61,1.2,10.1,1.7l1.07-6.54C140,444.19,136.89,443.69,134,443.14Z"/><path class="cls-17" d="M142.8,451.28c3.17.44,6.51.83,9.92,1.14l.38-6.58c-3.14-.31-6.24-.68-9.23-1.09Z"/><path class="cls-17" d="M243.28,438.53l3,5.9c2.66-.92,5.23-1.92,7.65-3l-3-5.83C248.57,436.64,246,437.63,243.28,438.53Z"/><path class="cls-17" d="M289.15,383.47l6.43.23c.18-2.09.3-4.29.35-6.53l-6.4.17C289.45,379.38,289.35,381.44,289.15,383.47Z"/><path class="cls-17" d="M288.11,390.92l6.35,1.11c.45-2.44.81-5,1.05-7.54l-6.42-.24C288.84,386.53,288.52,388.77,288.11,390.92Z"/><path class="cls-17" d="M286.19,398.6l6.21,1.89a75.27,75.27,0,0,0,1.91-7.7l-6.37-1.11A65.49,65.49,0,0,1,286.19,398.6Z"/><path class="cls-17" d="M283.49,405.65l5.86,2.89a66.13,66.13,0,0,0,2.81-7.32L286,399.34A58.41,58.41,0,0,1,283.49,405.65Z"/><path class="cls-17" d="M289.5,370c.08,2.17.1,4.34.05,6.61l6.39-.17c0-2.18,0-4.4-.09-6.61Z"/><path class="cls-17" d="M278.45,414.38l5.65,3.37a59.63,59.63,0,0,0,4.92-8.52l-5.86-2.89A54.36,54.36,0,0,1,278.45,414.38Z"/><path class="cls-17" d="M258.93,431.72l3.22,5.64a78.9,78.9,0,0,0,7.1-4.53l-4.07-5.09A66.7,66.7,0,0,1,258.93,431.72Z"/><path class="cls-17" d="M234.89,441l3,6c2.57-.69,5.12-1.51,7.6-2.32l-3-5.9C240.11,439.56,237.54,440.3,234.89,441Z"/><path class="cls-17" d="M100.89,432.12l-3.22,5.64c2.18,1.21,4.48,2.35,6.85,3.4l3-5.81C105.16,434.32,103,433.24,100.89,432.12Z"/><path class="cls-17" d="M251.72,435.32l2.94,5.82c2.36-1.05,4.66-2.19,6.84-3.4l-3.24-5.62C256.19,433.24,254,434.32,251.72,435.32Z"/><path class="cls-17" d="M99.9,226.76,93.45,228c.64,2,1.36,4,2.15,6l6.52-1.23C101.31,230.76,100.57,228.73,99.9,226.76Z"/><path class="cls-17" d="M273.37,420.57l-.52.54,4.73,4.52a60.44,60.44,0,0,0,6.09-7.27L278,415A54.9,54.9,0,0,1,273.37,420.57Z"/><path class="cls-17" d="M265.8,427.26l4.07,5.1a65.72,65.72,0,0,0,7.17-6.17l-4.74-4.52A58.6,58.6,0,0,1,265.8,427.26Z"/><path class="cls-17" d="M94.09,302.06,87,301.87c-1.46,2.21-2.8,4.32-4.07,6.43l7,.18C91.2,306.38,92.58,304.26,94.09,302.06Z"/><path class="cls-17" d="M109.78,278.64h-6.9c-1.11,1.88-2.44,4-4.18,6.58l-.56.83,7.16.1C107.16,283.29,108.63,280.83,109.78,278.64Z"/><path class="cls-17" d="M100.26,293.38c1.51-2.07,2.81-3.87,3.83-5.4l.71-1.07-7.2-.1c-.75,1.11-1.68,2.35-2.68,3.73-.8,1.1-1.66,2.26-2.58,3.56l7.26.19Z"/><path class="cls-17" d="M99.05,295l-7.24-.19c-1.56,2.18-3,4.24-4.33,6.27l7.13.18C96.21,299,97.72,296.88,99.05,295Z"/><path class="cls-17" d="M89.4,309.24l-7-.18c-1.41,2.35-2.74,4.71-4,7l6.79.18C86.56,313.94,88,311.58,89.4,309.24Z"/><path class="cls-17" d="M81.17,324.25l-6.65-.17c-1,2.26-2,4.53-2.88,6.79l6.52.13C79.09,328.77,80.1,326.47,81.17,324.25Z"/><path class="cls-17" d="M84.85,317l-6.79-.17c-1.1,2.09-2.17,4.26-3.19,6.46l6.65.17C82.55,321.37,83.67,319.2,84.85,317Z"/><path class="cls-17" d="M106.73,243.31l-1.61-3.5-6.69,1.06c.36.81.71,1.61,1.1,2.44l1.2,2.61,6.86-.8Z"/><path class="cls-17" d="M112.92,271.11h-6.44a37.38,37.38,0,0,1-3.16,6.79h6.86A37.25,37.25,0,0,0,112.92,271.11Z"/><path class="cls-17" d="M107.9,245.85l-6.79.8c1,2.26,1.87,4,2.61,5.69l6.84-.54C109.85,250.14,109,248.26,107.9,245.85Z"/><path class="cls-17" d="M102.41,233.52l-6.52,1.24c.7,1.79,1.45,3.6,2.22,5.38l6.68-1.06C103.93,237.19,103.13,235.31,102.41,233.52Z"/><path class="cls-17" d="M110.82,252.52l-6.79.54c.89,2,1.51,3.62,2,5h6.75A58.65,58.65,0,0,0,110.82,252.52Z"/><path class="cls-17" d="M113.74,263.53a26,26,0,0,0-.75-4.63h-6.72a24.27,24.27,0,0,1,1,4.63Z"/><path class="cls-17" d="M73.19,399.34,67,401.22a68.24,68.24,0,0,0,2.82,7.32l5.86-2.89A57.68,57.68,0,0,1,73.19,399.34Z"/><path class="cls-17" d="M94,427.73l-4.06,5.09a76.17,76.17,0,0,0,7.1,4.53l3.21-5.64A72.57,72.57,0,0,1,94,427.73Z"/><path class="cls-17" d="M76,406.34l-5.85,2.89A60.85,60.85,0,0,0,75,417.78l5.65-3.37A56.1,56.1,0,0,1,76,406.34Z"/><path class="cls-17" d="M70.07,384.24l-6.43.23c.24,2.58.59,5.12,1,7.55L71,390.91C70.61,388.78,70.3,386.53,70.07,384.24Z"/><path class="cls-17" d="M71.18,391.68l-6.35,1.11a75.32,75.32,0,0,0,1.92,7.7L73,398.6A68.15,68.15,0,0,1,71.18,391.68Z"/><path class="cls-17" d="M77.87,331.75l-6.5-.13c-.76,2-1.51,4.09-2.21,6.17l6.46.17C76.29,335.87,77.06,333.81,77.87,331.75Z"/><path class="cls-17" d="M86.84,421.65l-4.73,4.53a63.65,63.65,0,0,0,7.17,6.16l4.07-5.09A59.87,59.87,0,0,1,86.84,421.65Z"/><path class="cls-17" d="M85.77,420.56a52.21,52.21,0,0,1-4.6-5.56l-5.65,3.38a59.44,59.44,0,0,0,6.08,7.27l4.73-4.53Z"/><path class="cls-17" d="M69.61,377.34l-6.39-.17c.05,2.27.16,4.44.34,6.53l6.43-.23C69.8,381.45,69.67,379.39,69.61,377.34Z"/><path class="cls-17" d="M71.37,354.34,65,354.17c-.38,2.15-.71,4.34-1,6.52l6.35.17C70.61,358.7,70.94,356.51,71.37,354.34Z"/><path class="cls-17" d="M75.33,338.73l-6.46-.18c-.79,2.44-1.5,4.89-2.1,7.29l6.4.17C73.8,343.59,74.53,341.13,75.33,338.73Z"/><path class="cls-17" d="M73,346.79l-6.4-.17c-.56,2.3-1,4.58-1.46,6.79l6.37.16C71.9,351.3,72.41,349,73,346.79Z"/><path class="cls-17" d="M69.94,365c.08-1,.19-2.14.32-3.39l-6.34-.16c-.15,1.26-.26,2.44-.35,3.59s-.17,2.49-.24,4l6.35.17C69.75,367.8,69.86,366.4,69.94,365Z"/><path class="cls-17" d="M69.65,370l-6.35-.17c-.1,2.23-.13,4.45-.09,6.61l6.38.17C69.55,374.31,69.56,372.13,69.65,370Z"/><path class="cls-2" d="M179.58,454c60.13-.47,121.56-12.63,115.77-89.24-3.07-40.75-26.93-69.23-33.85-80-12-18.67-10-20.77-.75-41.54C297,161.76,226.9,154.72,180,154.72h-.76c-46.93,0-117,7-80.74,88.47,9.23,20.77,11.23,22.87-.76,41.54C90.83,295.5,67,324,63.9,364.72,58,441.33,119.44,453.49,179.58,454"/><path class="cls-2" d="M420.51,453.25c60.13-.47,121.56-12.63,115.78-89.24-3.08-40.75-26.93-69.23-33.85-80-12-18.66-10-20.77-.76-41.54C537.9,161.05,467.84,154,420.94,154h-.76c-46.92,0-117,7-80.74,88.47,9.24,20.77,11.23,22.88-.75,41.54-6.92,10.77-30.78,39.24-33.85,80-5.89,76.59,55.54,88.75,115.67,89.24"/><rect class="cls-16" y="452.68" width="600" height="148.59"/><rect class="cls-16" y="0.56" width="600" height="148.59"/></g></g></svg>