<svg xmlns="http://www.w3.org/2000/svg" viewBox="0 0 600.3 600.57"><defs><style>.cls-1,.cls-2,.cls-3,.cls-4{fill:none;}.cls-2,.cls-4,.cls-5{stroke:#000;}.cls-2,.cls-3,.cls-4,.cls-5{stroke-miterlimit:10;}.cls-2,.cls-5{stroke-width:0.45px;}.cls-3{stroke:#29abe2;stroke-width:1.3px;}.cls-4{stroke-width:0.11px;stroke-dasharray:2.17 2.17 2.17 2.17 2.17 2.17;}.cls-5{fill:#fff;}.cls-6{fill:#e51729;}.cls-7{fill:#bc402f;}</style></defs><g id="Layer_2" data-name="Layer 2"><g id="Layer_1-2" data-name="Layer 1"><rect class="cls-1" x="0.3" y="0.57" width="600" height="600"/><path class="cls-2" d="M300.34,452.81H258l-11.07-29.47a42.9,42.9,0,0,1-2.67-12.66L229.82,159.2c-.33-5.64,3.63-10.42,8.62-10.42h123.8c5,0,8.94,4.78,8.62,10.42L356.41,410.68a42.92,42.92,0,0,1-2.68,12.66l-11.07,29.47H300.34"/><path class="cls-3" d="M300.18,453H257.85l-11.07-29.47a42.92,42.92,0,0,1-2.68-12.66L229.66,159.41c-.33-5.64,3.62-10.42,8.61-10.42H362.08c5,0,8.94,4.78,8.61,10.42L356.25,410.89a42.92,42.92,0,0,1-2.68,12.66L342.5,453H300.18"/><path class="cls-4" d="M367.75,154.4,353.33,405.17a40.82,40.82,0,0,1-2.54,12L340.3,445.11H260.05l-10.49-27.94a40.82,40.82,0,0,1-2.54-12l-14.3-249.78"/><path class="cls-4" d="M235.73,152.28l14.21,247.17a38.92,38.92,0,0,0,2.4,11.33l9.92,26.41h75.83L348,410.78a38.92,38.92,0,0,0,2.4-11.33l14.08-247.17"/><path class="cls-4" d="M361.38,152.28l-13.9,241.43a36.25,36.25,0,0,1-2.26,10.68l-9.34,24.86H264.47l-9.34-24.86a36.25,36.25,0,0,1-2.26-10.68L239,152.21"/><path class="cls-4" d="M242.24,152.21l13.5,235.88a34.15,34.15,0,0,0,2.12,10l8.77,23.35h67.09l8.77-23.35a34.15,34.15,0,0,0,2.12-10l13.66-235.81"/><path class="cls-4" d="M245.5,152.19l13.17,230.17a31.74,31.74,0,0,0,2,9.37l8.19,21.82h62.67l8.19-21.82a32.07,32.07,0,0,0,2-9.37l13.18-230.08"/><path class="cls-4" d="M351.76,152,338.82,376.74a29.66,29.66,0,0,1-1.85,8.72l-7.62,20.31H271l-7.62-20.31a29.66,29.66,0,0,1-1.85-8.72L248.61,152.28"/><path class="cls-4" d="M251.86,152.13,264.46,371a27.55,27.55,0,0,0,1.7,8.07l7,18.77h53.93l7.05-18.77a27.55,27.55,0,0,0,1.7-8.07l12.76-219"/><path class="cls-4" d="M345.25,152.28,333,365.27a25.08,25.08,0,0,1-1.57,7.41l-6.47,17.23H275.42L269,372.68a25.08,25.08,0,0,1-1.57-7.41L255.12,152.13"/><path class="cls-4" d="M258.37,152.28l11.88,207.37a22.74,22.74,0,0,0,1.43,6.76l5.9,15.73h45.19l5.9-15.73a22.74,22.74,0,0,0,1.43-6.76l12-207.37"/><path class="cls-4" d="M338.74,152.28,327.18,353.92a20.89,20.89,0,0,1-1.29,6.1l-5.33,14.19H279.79L274.46,360a20.89,20.89,0,0,1-1.29-6.1L261.63,152.28"/><path class="cls-4" d="M264.79,152.28,276.1,348.19a18.48,18.48,0,0,0,1.15,5.44L282,366.28h36.35l4.75-12.65a18.48,18.48,0,0,0,1.15-5.44l11.38-195.91"/><path class="cls-4" d="M332.23,152.56l-10.85,190a16.07,16.07,0,0,1-1,4.79l-4.18,11.15h-32L280,347.36a16.07,16.07,0,0,1-1-4.79L268,152.28"/><path class="cls-4" d="M271.11,152.13l10.78,184.71a14.29,14.29,0,0,0,.87,4.13l3.61,9.61H314l3.61-9.61a14.29,14.29,0,0,0,.87-4.13l10.38-184.28"/><path class="cls-4" d="M325.72,152.28,315.59,331.22a12.21,12.21,0,0,1-.73,3.48l-3.05,8.1H288.54l-3.05-8.1a12.21,12.21,0,0,1-.73-3.48L274.6,152.28"/><path class="cls-4" d="M277.62,152.28l10,173.32a9.18,9.18,0,0,0,.6,2.83l2.47,6.6h18.95l2.47-6.6a9.18,9.18,0,0,0,.6-2.83l9.89-173.32"/><path class="cls-4" d="M281,152.28l9.54,167.59A7.38,7.38,0,0,0,291,322l1.9,5.06h14.53l1.9-5.06a7.38,7.38,0,0,0,.46-2.17l9.7-167.59"/><path class="cls-4" d="M284.12,152.18l9.36,162a5,5,0,0,0,.32,1.51l1.32,3.52h10.11l1.32-3.52a5,5,0,0,0,.32-1.51l9.23-162"/><path class="cls-4" d="M287.57,152.18l9.17,155.56a2.58,2.58,0,0,0,.16.78l.68,1.81h5.19l.68-1.81a2.58,2.58,0,0,0,.16-.78l9.1-155.61"/><line class="cls-4" x1="308.7" y1="152.18" x2="300.69" y2="302.01"/><line class="cls-4" x1="305.35" y1="151.99" x2="300.69" y2="236.64"/><line class="cls-4" x1="299.66" y1="302.01" x2="291.58" y2="152.18"/><line class="cls-4" x1="301.08" y1="259.28" x2="295.44" y2="151.99"/><line class="cls-4" x1="299.97" y1="152.13" x2="300.25" y2="205.48"/><circle class="cls-5" cx="328.05" cy="207.47" r="2.46"/><circle class="cls-5" cx="340.23" cy="241.83" r="4.07"/><path class="cls-5" d="M341.21,249.36c3.09-4.35,9.18-7.72,12.4-9.28a3.52,3.52,0,0,0,1.95-3.34c-.83-15.09.21-33.47,2.48-38.37a1,1,0,0,0-.61-1.31c-2.28-.63-7.24-2.64-12.31-8.64a1.43,1.43,0,0,0-2.05-.15c-5.89,5.21-11.09,6.48-13.43,6.79a.94.94,0,0,0-.79,1.2c1.53,5.17-.08,23.52-3.06,38.32a3.49,3.49,0,0,0,1.45,3.59c2.95,2,8.5,6.22,10.93,11A1.79,1.79,0,0,0,341.21,249.36Z"/><circle class="cls-5" cx="343.65" cy="194.46" r="4.07"/><path class="cls-5" d="M352.8,224.05c-.05.59-2.52.74-2.67,1.3s1.89,2,1.65,2.47-2.63-.17-3,.31,1.11,2.48.7,2.89-2.41-1.06-2.89-.73.21,2.71-.32,3-1.9-1.82-2.47-1.67-.73,2.62-1.32,2.67-1.15-2.36-1.74-2.41-1.6,2.2-2.15,2-.29-2.61-.82-2.86-2.25,1.53-2.72,1.19.62-2.55.21-3-2.63.67-3,.19,1.46-2.19,1.22-2.72-2.71-.27-2.86-.84,2.12-1.54,2.07-2.13-2.45-1.17-2.39-1.76,2.52-.75,2.67-1.31-1.89-1.95-1.65-2.47,2.63.17,3-.3-1.11-2.48-.7-2.89,2.41,1.05,2.89.72-.21-2.71.32-3,1.9,1.82,2.47,1.67.73-2.62,1.32-2.66,1.15,2.35,1.74,2.41,1.6-2.21,2.15-2.06.29,2.61.82,2.86,2.25-1.53,2.72-1.19-.62,2.55-.21,3,2.63-.67,3-.19-1.46,2.18-1.22,2.71,2.71.27,2.86.84-2.12,1.54-2.07,2.13S352.86,223.45,352.8,224.05Z"/><line class="cls-6" x1="343.76" y1="219" x2="343.69" y2="219.08"/><line class="cls-6" x1="345.13" y1="220.32" x2="345.2" y2="220.24"/><path class="cls-6" d="M344.94,225.93a4.47,4.47,0,0,0,.19-5.61l-5.71,6.62A4.46,4.46,0,0,0,344.94,225.93Z"/><path class="cls-6" d="M338.17,220.08a4.47,4.47,0,0,0-.19,5.61l5.71-6.61A4.47,4.47,0,0,0,338.17,220.08Z"/><line class="cls-6" x1="343.69" y1="219.08" x2="337.98" y2="225.69"/><line class="cls-6" x1="339.42" y1="226.94" x2="345.13" y2="220.32"/><circle class="cls-5" cx="340.23" cy="241.83" r="4.07"/><path class="cls-7" d="M343.15,240.84l-1.8.15a.48.48,0,0,1-.53-.44l-.17-1.78-1.41.13.17,1.78a.51.51,0,0,1-.45.54l-1.79.18.13,1.41,1.79-.16a.48.48,0,0,1,.54.44l.17,1.79,1.41-.13L341,243a.5.5,0,0,1,.46-.54l1.78-.16Z"/><path class="cls-7" d="M346.65,195.18l-1.6-.83a.5.5,0,0,1-.22-.66l.81-1.59-1.26-.64-.81,1.59a.5.5,0,0,1-.66.22l-1.61-.81-.65,1.27,1.6.81a.49.49,0,0,1,.22.67l-.81,1.6,1.26.64.82-1.61a.5.5,0,0,1,.67-.22l1.6.83Z"/><path class="cls-5" d="M399.75,207.88h0a55,55,0,0,0-.77-6.61,9.29,9.29,0,0,0-8.49-7.64h-.08a9.29,9.29,0,0,0-9.5,6.33c-.35,1.07-.66,2.11-.94,3.15a4.09,4.09,0,0,1-4.26,3h-.22l-.72,9.9h0a4.11,4.11,0,0,1,3.78,3.7c.12,1.21.29,2.44.49,3.71a10.11,10.11,0,0,0,6.87,8,6.3,6.3,0,0,0,1.78.34h.08a9.43,9.43,0,0,0,9.54-6.57,54.24,54.24,0,0,0,1.87-7.43h0a1.18,1.18,0,0,0,1.25-1.08l.54-7.44A1.32,1.32,0,0,0,399.75,207.88Z"/><rect class="cls-5" x="358.62" y="207.29" width="16.52" height="5.97" transform="translate(16.11 -25.9) rotate(4.13)"/><path class="cls-5" d="M357.56,204.5a3.4,3.4,0,0,0-3.13-2.12,3.47,3.47,0,0,0-3.43,3.27l0,.48L334.73,205l0-.49a3.49,3.49,0,0,0-2.93-3.73,3.42,3.42,0,0,0-3.54,1.92,2.63,2.63,0,0,1-.68.84,2.18,2.18,0,0,0-.78,1.53l-.34,4.67a2.26,2.26,0,0,0,.55,1.64,2.44,2.44,0,0,1,.55.93,3.43,3.43,0,0,0,3.23,2.4,3.48,3.48,0,0,0,3.44-3.27l0-.49,16.23,1.18,0,.48a3.48,3.48,0,0,0,2.92,3.73,3.42,3.42,0,0,0,3.41-1.65,4.19,4.19,0,0,1,.86-1.1,2.22,2.22,0,0,0,.78-1.53l.34-4.68a2.24,2.24,0,0,0-.55-1.63A4.16,4.16,0,0,1,357.56,204.5Z"/><path class="cls-5" d="M343.39,212.55a.89.89,0,0,1-1.68-.46l2-7.21a.89.89,0,0,1,1.69.46C344.71,207.74,344.05,210.15,343.39,212.55Z"/><ellipse class="cls-5" cx="339.34" cy="208.42" rx="8.25" ry="0.98" transform="translate(48.37 480.31) rotate(-74.62)"/><circle class="cls-5" cx="322.8" cy="365.4" r="2.46"/><circle class="cls-5" cx="334.97" cy="399.75" r="4.07"/><path class="cls-5" d="M336,407.28c3.1-4.35,9.19-7.71,12.4-9.28a3.47,3.47,0,0,0,1.95-3.34c-.82-15.08.22-33.47,2.49-38.36a1,1,0,0,0-.61-1.31c-2.28-.64-7.25-2.64-12.32-8.65a1.45,1.45,0,0,0-2.05-.15c-5.88,5.22-11.08,6.49-13.43,6.79a1,1,0,0,0-.79,1.21c1.54,5.17-.07,23.51-3.06,38.32A3.5,3.5,0,0,0,322,396.1c3,2,8.5,6.21,10.94,11A1.78,1.78,0,0,0,336,407.28Z"/><path class="cls-5" d="M347.55,382c-.06.6-2.53.75-2.68,1.3s1.9,2,1.65,2.48-2.62-.17-3,.3,1.12,2.48.7,2.89-2.4-1.05-2.88-.72.21,2.71-.33,3-1.89-1.82-2.46-1.67-.73,2.62-1.32,2.66-1.15-2.35-1.75-2.41-1.59,2.21-2.15,2.06-.29-2.61-.81-2.86-2.25,1.53-2.73,1.19.63-2.55.22-3-2.64.67-3,.19,1.46-2.18,1.21-2.71-2.7-.27-2.85-.84,2.12-1.54,2.07-2.13-2.45-1.17-2.4-1.77,2.53-.74,2.68-1.3-1.9-1.95-1.65-2.47,2.62.17,3-.31-1.12-2.48-.7-2.89,2.4,1.06,2.88.73-.2-2.71.33-3,1.89,1.82,2.46,1.67.73-2.62,1.32-2.67,1.15,2.36,1.75,2.41,1.59-2.2,2.15-2.05.29,2.61.81,2.86,2.25-1.53,2.73-1.19-.63,2.55-.22,3,2.64-.67,3-.19-1.46,2.19-1.21,2.72,2.7.26,2.85.83-2.12,1.55-2.07,2.14S347.6,381.38,347.55,382Z"/><line class="cls-6" x1="338.51" y1="376.93" x2="338.44" y2="377.01"/><line class="cls-6" x1="339.88" y1="378.25" x2="339.95" y2="378.17"/><path class="cls-6" d="M339.69,383.86a4.47,4.47,0,0,0,.19-5.61l-5.72,6.62A4.5,4.5,0,0,0,339.69,383.86Z"/><path class="cls-6" d="M332.91,378a4.47,4.47,0,0,0-.19,5.61l5.72-6.61A4.48,4.48,0,0,0,332.91,378Z"/><line class="cls-6" x1="338.44" y1="377.01" x2="332.72" y2="383.62"/><line class="cls-6" x1="334.16" y1="384.87" x2="339.88" y2="378.25"/><circle class="cls-5" cx="334.97" cy="399.75" r="4.07"/><path class="cls-7" d="M337.89,398.77l-1.79.15a.51.51,0,0,1-.54-.45l-.16-1.77-1.42.13.17,1.78a.49.49,0,0,1-.44.54l-1.79.18.13,1.41,1.79-.17a.51.51,0,0,1,.54.45l.17,1.79,1.41-.13-.17-1.81a.5.5,0,0,1,.45-.54l1.79-.15Z"/><circle class="cls-5" cx="338.4" cy="352.38" r="4.07"/><path class="cls-7" d="M341.39,353.11l-1.6-.83a.49.49,0,0,1-.21-.66l.81-1.59-1.27-.65-.8,1.59a.5.5,0,0,1-.67.22l-1.61-.8-.64,1.27,1.6.81a.5.5,0,0,1,.22.67l-.82,1.6,1.27.64.82-1.62a.49.49,0,0,1,.67-.21l1.59.82Z"/><path class="cls-5" d="M394.5,365.81h0a56.88,56.88,0,0,0-.77-6.61,9.3,9.3,0,0,0-8.5-7.64h-.07a9.27,9.27,0,0,0-9.5,6.33c-.35,1.07-.67,2.11-.94,3.14a4.11,4.11,0,0,1-4.26,3l-.23,0-.71,9.91h0a4.09,4.09,0,0,1,3.78,3.69c.12,1.22.28,2.45.49,3.72a10.13,10.13,0,0,0,6.86,8,7.25,7.25,0,0,0,1.79.34h.07a9.44,9.44,0,0,0,9.55-6.57,52.87,52.87,0,0,0,1.86-7.44h0a1.15,1.15,0,0,0,1.25-1.08l.54-7.43A1.31,1.31,0,0,0,394.5,365.81Z"/><rect class="cls-5" x="353.36" y="365.22" width="16.52" height="5.97" transform="translate(27.48 -25.11) rotate(4.13)"/><path class="cls-5" d="M352.31,362.43a3.4,3.4,0,0,0-3.14-2.12,3.46,3.46,0,0,0-3.42,3.26l0,.49-16.23-1.17,0-.49a3.48,3.48,0,0,0-2.93-3.73,3.43,3.43,0,0,0-3.54,1.91,2.41,2.41,0,0,1-.68.84,2.26,2.26,0,0,0-.78,1.54l-.33,4.67a2.19,2.19,0,0,0,.55,1.63,2.67,2.67,0,0,1,.55.93,3.39,3.39,0,0,0,3.22,2.4,3.47,3.47,0,0,0,3.44-3.27l0-.48L345.28,370l0,.49a3.47,3.47,0,0,0,2.92,3.73,3.4,3.4,0,0,0,3.4-1.66,4.18,4.18,0,0,1,.87-1.09,2.25,2.25,0,0,0,.77-1.54l.34-4.67a2.19,2.19,0,0,0-.55-1.63A4,4,0,0,1,352.31,362.43Z"/><path class="cls-5" d="M338.14,370.48a.9.9,0,0,1-1.69-.47l2-7.21a.89.89,0,0,1,1.68.47Z"/><ellipse class="cls-5" cx="334.08" cy="366.34" rx="8.25" ry="0.98" transform="matrix(0.27, -0.96, 0.96, 0.27, -107.76, 591.27)"/><ellipse class="cls-5" cx="342.56" cy="366.91" rx="8.25" ry="0.98" transform="translate(-102.08 599.87) rotate(-74.62)"/><circle class="cls-5" cx="322.51" cy="287.75" r="2.46"/><circle class="cls-5" cx="334.68" cy="322.1" r="4.07"/><path class="cls-5" d="M335.66,329.64c3.09-4.36,9.19-7.72,12.4-9.29A3.47,3.47,0,0,0,350,317c-.82-15.08.22-33.47,2.48-38.36a1,1,0,0,0-.61-1.31c-2.27-.64-7.24-2.64-12.31-8.65a1.45,1.45,0,0,0-2.05-.15c-5.88,5.22-11.08,6.49-13.43,6.79a1,1,0,0,0-.79,1.21c1.54,5.17-.07,23.51-3.06,38.32a3.5,3.5,0,0,0,1.45,3.59c3,2,8.5,6.22,10.94,11A1.78,1.78,0,0,0,335.66,329.64Z"/><path class="cls-5" d="M347.26,304.32c-.06.6-2.53.75-2.68,1.3s1.9,2,1.65,2.48-2.62-.17-3,.3,1.12,2.48.7,2.89-2.4-1.05-2.88-.72.2,2.71-.33,3-1.89-1.82-2.46-1.67-.73,2.62-1.32,2.66-1.15-2.35-1.75-2.41-1.59,2.21-2.15,2.06-.29-2.61-.81-2.86-2.25,1.53-2.73,1.19.63-2.55.22-3-2.64.67-3,.19,1.46-2.18,1.21-2.71-2.7-.27-2.85-.84,2.12-1.54,2.07-2.13-2.45-1.17-2.4-1.77,2.53-.74,2.68-1.3-1.9-2-1.65-2.47,2.62.17,3-.31-1.12-2.48-.7-2.89,2.4,1.06,2.88.73-.21-2.71.33-3,1.89,1.82,2.46,1.67.73-2.62,1.32-2.67,1.15,2.36,1.75,2.41,1.59-2.2,2.15-2.05.29,2.61.81,2.86,2.25-1.53,2.73-1.19-.63,2.55-.22,3,2.64-.67,3-.19-1.46,2.19-1.21,2.72,2.7.27,2.85.84-2.12,1.54-2.07,2.13S347.31,303.73,347.26,304.32Z"/><line class="cls-6" x1="338.21" y1="299.28" x2="338.15" y2="299.36"/><line class="cls-6" x1="339.59" y1="300.6" x2="339.65" y2="300.52"/><path class="cls-6" d="M339.4,306.21a4.47,4.47,0,0,0,.19-5.61l-5.72,6.62A4.5,4.5,0,0,0,339.4,306.21Z"/><path class="cls-6" d="M332.62,300.36a4.47,4.47,0,0,0-.19,5.61l5.72-6.61A4.48,4.48,0,0,0,332.62,300.36Z"/><line class="cls-6" x1="338.15" y1="299.36" x2="332.43" y2="305.97"/><line class="cls-6" x1="333.87" y1="307.22" x2="339.59" y2="300.6"/><circle class="cls-5" cx="334.68" cy="322.1" r="4.07"/><path class="cls-7" d="M337.6,321.12l-1.79.15a.51.51,0,0,1-.54-.45l-.16-1.77-1.42.13.17,1.78a.5.5,0,0,1-.44.54l-1.8.18.14,1.41,1.79-.17a.51.51,0,0,1,.54.45l.16,1.79,1.42-.13-.17-1.81a.49.49,0,0,1,.45-.54l1.78-.15Z"/><circle class="cls-5" cx="338.1" cy="274.73" r="4.07"/><path class="cls-7" d="M341.1,275.46l-1.6-.83a.49.49,0,0,1-.21-.66l.81-1.59-1.27-.65-.81,1.59a.49.49,0,0,1-.66.22l-1.61-.8-.64,1.27,1.6.81a.5.5,0,0,1,.22.67l-.82,1.6,1.27.64.82-1.61a.49.49,0,0,1,.67-.22l1.59.82Z"/><path class="cls-5" d="M394.21,288.16h0a56.88,56.88,0,0,0-.77-6.61,9.3,9.3,0,0,0-8.5-7.64h-.07a9.27,9.27,0,0,0-9.5,6.33c-.35,1.07-.67,2.11-.94,3.14a4.11,4.11,0,0,1-4.26,3l-.23,0-.72,9.91h0A4.09,4.09,0,0,1,373,300c.12,1.22.28,2.45.49,3.72a10.11,10.11,0,0,0,6.86,8,7.25,7.25,0,0,0,1.79.34h.07a9.43,9.43,0,0,0,9.54-6.57,53.17,53.17,0,0,0,1.87-7.43h0a1.17,1.17,0,0,0,1.25-1.09l.54-7.43A1.31,1.31,0,0,0,394.21,288.16Z"/><rect class="cls-5" x="353.07" y="287.57" width="16.52" height="5.97" transform="translate(21.89 -25.29) rotate(4.13)"/><path class="cls-5" d="M352,284.78a3.4,3.4,0,0,0-3.14-2.12,3.47,3.47,0,0,0-3.43,3.26l0,.49-16.23-1.17,0-.49a3.48,3.48,0,0,0-2.93-3.73,3.42,3.42,0,0,0-3.54,1.91,2.41,2.41,0,0,1-.68.84,2.26,2.26,0,0,0-.78,1.54L321,290a2.24,2.24,0,0,0,.55,1.63,2.55,2.55,0,0,1,.56.93,3.38,3.38,0,0,0,3.22,2.4,3.47,3.47,0,0,0,3.44-3.27l0-.48L345,292.36l0,.49a3.49,3.49,0,0,0,2.92,3.73,3.42,3.42,0,0,0,3.41-1.65,4.24,4.24,0,0,1,.86-1.1,2.22,2.22,0,0,0,.78-1.54l.34-4.67a2.24,2.24,0,0,0-.55-1.63A4,4,0,0,1,352,284.78Z"/><path class="cls-5" d="M337.85,292.83a.9.9,0,0,1-1.69-.47l2-7.21a.89.89,0,0,1,1.68.47Z"/><ellipse class="cls-5" cx="333.79" cy="288.69" rx="8.25" ry="0.98" transform="translate(-33.11 533.94) rotate(-74.62)"/><ellipse class="cls-5" cx="342.27" cy="289.26" rx="8.25" ry="0.98" transform="translate(-27.43 542.54) rotate(-74.62)"/><circle class="cls-5" cx="272.38" cy="206.95" r="2.46"/><circle class="cls-5" cx="260.2" cy="241.31" r="4.07"/><circle class="cls-5" cx="256.78" cy="193.94" r="4.07"/><path class="cls-5" d="M259.22,248.84c-3.09-4.35-9.18-7.72-12.39-9.28a3.51,3.51,0,0,1-2-3.34c.83-15.08-.21-33.47-2.48-38.37a1,1,0,0,1,.61-1.3c2.28-.64,7.24-2.64,12.31-8.65a1.44,1.44,0,0,1,2.05-.15c5.89,5.22,11.09,6.48,13.43,6.79a.94.94,0,0,1,.79,1.2c-1.53,5.17.08,23.52,3.06,38.33a3.47,3.47,0,0,1-1.45,3.58c-2.95,2-8.5,6.22-10.93,11A1.78,1.78,0,0,1,259.22,248.84Z"/><path class="cls-5" d="M247.63,223.53c.05.59,2.52.75,2.67,1.3s-1.89,1.95-1.65,2.48,2.63-.17,3,.3-1.11,2.48-.7,2.89,2.41-1.06,2.89-.72-.21,2.71.32,2.95,1.9-1.81,2.47-1.66.73,2.61,1.32,2.66,1.15-2.36,1.74-2.41,1.6,2.21,2.15,2.05.3-2.61.82-2.86,2.25,1.53,2.72,1.2-.62-2.56-.21-3,2.63.67,3,.19-1.46-2.18-1.22-2.72,2.71-.26,2.86-.83-2.12-1.55-2.07-2.14,2.45-1.17,2.39-1.76-2.52-.75-2.67-1.3,1.89-2,1.65-2.48-2.63.17-3-.3,1.11-2.48.7-2.89-2.41,1.06-2.89.72.21-2.71-.32-2.95-1.9,1.81-2.47,1.66-.73-2.61-1.32-2.66-1.15,2.36-1.74,2.41-1.6-2.21-2.15-2.06-.29,2.62-.82,2.86-2.25-1.52-2.72-1.19.62,2.55.21,3-2.63-.67-3-.19,1.46,2.18,1.22,2.72-2.71.26-2.86.83,2.12,1.55,2.07,2.14S247.57,222.94,247.63,223.53Z"/><line class="cls-6" x1="256.67" y1="218.48" x2="256.74" y2="218.56"/><line class="cls-6" x1="255.3" y1="219.81" x2="255.23" y2="219.73"/><path class="cls-6" d="M255.49,225.42a4.47,4.47,0,0,1-.19-5.61l5.71,6.61A4.47,4.47,0,0,1,255.49,225.42Z"/><path class="cls-6" d="M262.26,219.57a4.47,4.47,0,0,1,.19,5.61l-5.71-6.62A4.47,4.47,0,0,1,262.26,219.57Z"/><line class="cls-6" x1="256.74" y1="218.56" x2="262.45" y2="225.18"/><line class="cls-6" x1="261.01" y1="226.42" x2="255.3" y2="219.81"/><circle class="cls-5" cx="260.2" cy="241.31" r="4.07"/><path class="cls-7" d="M257.28,240.32l1.8.16a.49.49,0,0,0,.53-.45l.17-1.78,1.41.14-.16,1.77a.49.49,0,0,0,.44.54l1.79.18-.13,1.42-1.79-.17a.49.49,0,0,0-.54.45l-.17,1.78-1.41-.13.17-1.8a.5.5,0,0,0-.45-.54l-1.79-.16Z"/><circle class="cls-5" cx="256.78" cy="193.94" r="4.07"/><path class="cls-7" d="M253.78,194.66l1.6-.82a.51.51,0,0,0,.22-.67l-.81-1.59,1.26-.64.81,1.59a.5.5,0,0,0,.66.22l1.62-.8.64,1.26-1.6.82a.49.49,0,0,0-.22.66l.81,1.6-1.26.65-.82-1.62a.5.5,0,0,0-.67-.21l-1.59.82Z"/><path class="cls-5" d="M200.68,207.36h0a54.63,54.63,0,0,1,.77-6.6,9.28,9.28,0,0,1,8.5-7.64H210a9.3,9.3,0,0,1,9.5,6.34c.35,1.06.66,2.11.94,3.14a4.11,4.11,0,0,0,4.26,3l.22,0,.72,9.91h0a4.09,4.09,0,0,0-3.78,3.69c-.12,1.21-.28,2.45-.49,3.72a10.1,10.1,0,0,1-6.87,8,6.77,6.77,0,0,1-1.78.35h-.08a9.42,9.42,0,0,1-9.54-6.57,53.88,53.88,0,0,1-1.87-7.43h0A1.17,1.17,0,0,1,200,216.2l-.53-7.43A1.31,1.31,0,0,1,200.68,207.36Z"/><rect class="cls-5" x="225.3" y="206.77" width="16.52" height="5.97" transform="translate(481.63 402.13) rotate(175.87)"/><path class="cls-5" d="M242.87,204a3.41,3.41,0,0,1,3.13-2.13,3.48,3.48,0,0,1,3.43,3.27l0,.49,16.23-1.18,0-.48a3.47,3.47,0,0,1,2.94-3.73,3.39,3.39,0,0,1,3.53,1.91,2.77,2.77,0,0,0,.68.84,2.2,2.2,0,0,1,.78,1.54l.34,4.67a2.19,2.19,0,0,1-.55,1.63,2.44,2.44,0,0,0-.55.93,3.42,3.42,0,0,1-3.23,2.4,3.49,3.49,0,0,1-3.44-3.27l0-.48-16.23,1.17,0,.49a3.47,3.47,0,0,1-2.92,3.72,3.41,3.41,0,0,1-3.41-1.65,4.15,4.15,0,0,0-.86-1.1,2.22,2.22,0,0,1-.78-1.53l-.33-4.67a2.22,2.22,0,0,1,.54-1.64A4.24,4.24,0,0,0,242.87,204Z"/><path class="cls-5" d="M257,212a.89.89,0,0,0,1.68-.46l-2-7.21a.89.89,0,0,0-1.68.46Z"/><ellipse class="cls-5" cx="261.09" cy="207.9" rx="0.98" ry="8.25" transform="translate(-45.8 76.71) rotate(-15.38)"/><ellipse class="cls-5" cx="252.61" cy="208.47" rx="0.98" ry="8.25" transform="translate(-46.25 74.48) rotate(-15.38)"/><circle class="cls-5" cx="277.63" cy="364.88" r="2.46"/><circle class="cls-5" cx="265.46" cy="399.24" r="4.07"/><path class="cls-5" d="M264.48,406.77c-3.09-4.35-9.19-7.72-12.4-9.28a3.49,3.49,0,0,1-2-3.34c.82-15.09-.22-33.48-2.48-38.37a1,1,0,0,1,.61-1.31c2.27-.63,7.24-2.64,12.31-8.64a1.43,1.43,0,0,1,2.05-.15c5.88,5.21,11.08,6.48,13.43,6.79a1,1,0,0,1,.79,1.2c-1.54,5.17.07,23.52,3.06,38.32a3.5,3.5,0,0,1-1.45,3.59c-3,2-8.5,6.22-10.94,11A1.78,1.78,0,0,1,264.48,406.77Z"/><path class="cls-5" d="M252.88,381.46c.06.59,2.53.74,2.68,1.3s-1.9,1.95-1.65,2.47,2.62-.17,3,.31-1.12,2.48-.7,2.89,2.4-1.06,2.88-.73-.2,2.71.33,3,1.89-1.82,2.46-1.67.73,2.62,1.32,2.67,1.15-2.36,1.75-2.41,1.59,2.2,2.15,2.05.29-2.61.81-2.86,2.25,1.53,2.73,1.19-.63-2.55-.22-3,2.64.67,3,.19-1.46-2.19-1.21-2.72,2.7-.27,2.85-.84-2.12-1.54-2.07-2.13,2.45-1.17,2.4-1.76-2.53-.75-2.68-1.31,1.9-2,1.65-2.47-2.62.17-3-.3,1.12-2.48.7-2.9-2.4,1.06-2.88.73.2-2.71-.33-3-1.89,1.82-2.46,1.67-.73-2.62-1.32-2.66-1.15,2.35-1.75,2.41-1.59-2.21-2.15-2.06-.29,2.61-.81,2.86-2.25-1.53-2.73-1.19.63,2.55.22,3-2.64-.67-3-.19,1.46,2.18,1.21,2.71-2.7.27-2.85.84,2.12,1.54,2.07,2.13S252.83,380.86,252.88,381.46Z"/><line class="cls-6" x1="261.92" y1="376.41" x2="261.99" y2="376.49"/><line class="cls-6" x1="260.55" y1="377.73" x2="260.48" y2="377.65"/><path class="cls-6" d="M260.74,383.34a4.47,4.47,0,0,1-.19-5.61l5.72,6.62A4.47,4.47,0,0,1,260.74,383.34Z"/><path class="cls-6" d="M267.52,377.49a4.47,4.47,0,0,1,.19,5.61L262,376.49A4.48,4.48,0,0,1,267.52,377.49Z"/><line class="cls-6" x1="261.99" y1="376.49" x2="267.71" y2="383.1"/><line class="cls-6" x1="266.27" y1="384.35" x2="260.55" y2="377.73"/><circle class="cls-5" cx="265.46" cy="399.24" r="4.07"/><path class="cls-7" d="M262.54,398.25l1.79.15a.49.49,0,0,0,.54-.44l.16-1.78,1.42.13-.17,1.78a.49.49,0,0,0,.44.54l1.79.18-.13,1.41-1.79-.16a.49.49,0,0,0-.54.44l-.17,1.79-1.41-.13.17-1.8a.49.49,0,0,0-.45-.54l-1.79-.16Z"/><circle class="cls-5" cx="262.04" cy="351.87" r="4.07"/><path class="cls-7" d="M259,352.59l1.6-.83a.49.49,0,0,0,.21-.66l-.81-1.59,1.27-.64.81,1.59a.5.5,0,0,0,.66.22l1.61-.81.64,1.27-1.6.81a.51.51,0,0,0-.22.67l.82,1.6-1.27.64-.82-1.61a.5.5,0,0,0-.67-.22l-1.59.83Z"/><path class="cls-5" d="M205.93,365.29h0a57.14,57.14,0,0,1,.77-6.61,9.3,9.3,0,0,1,8.5-7.64h.07a9.29,9.29,0,0,1,9.5,6.33c.35,1.07.67,2.11.94,3.15a4.11,4.11,0,0,0,4.26,3h.23l.72,9.9h0a4.11,4.11,0,0,0-3.79,3.7c-.12,1.21-.28,2.44-.49,3.71a10.1,10.1,0,0,1-6.86,8,6.42,6.42,0,0,1-1.79.34h-.07a9.42,9.42,0,0,1-9.54-6.57,51.48,51.48,0,0,1-1.87-7.43h0a1.17,1.17,0,0,1-1.25-1.08l-.54-7.44A1.31,1.31,0,0,1,205.93,365.29Z"/><rect class="cls-5" x="230.55" y="364.7" width="16.52" height="5.97" transform="translate(503.51 717.2) rotate(175.87)"/><path class="cls-5" d="M248.12,361.91a3.42,3.42,0,0,1,3.14-2.12,3.49,3.49,0,0,1,3.43,3.27l0,.48L271,362.37l0-.49a3.49,3.49,0,0,1,2.93-3.73,3.43,3.43,0,0,1,3.54,1.92,2.5,2.5,0,0,0,.68.84,2.22,2.22,0,0,1,.78,1.53l.34,4.67a2.26,2.26,0,0,1-.55,1.64,2.47,2.47,0,0,0-.56.93,3.41,3.41,0,0,1-3.22,2.4,3.48,3.48,0,0,1-3.44-3.27l0-.49-16.23,1.17,0,.49a3.49,3.49,0,0,1-2.93,3.73,3.41,3.41,0,0,1-3.4-1.65A4.41,4.41,0,0,0,248,371a2.18,2.18,0,0,1-.78-1.53l-.34-4.68a2.19,2.19,0,0,1,.55-1.63A3.92,3.92,0,0,0,248.12,361.91Z"/><path class="cls-5" d="M262.29,370a.89.89,0,0,0,1.69-.46l-2-7.21a.89.89,0,0,0-1.68.46Z"/><ellipse class="cls-5" cx="266.35" cy="365.83" rx="0.98" ry="8.25" transform="translate(-87.51 83.77) rotate(-15.38)"/><ellipse class="cls-5" cx="257.87" cy="366.4" rx="0.98" ry="8.25" transform="translate(-87.96 81.54) rotate(-15.38)"/><circle class="cls-5" cx="277.92" cy="287.23" r="2.46"/><circle class="cls-5" cx="265.75" cy="321.59" r="4.07"/><path class="cls-5" d="M264.77,329.12c-3.09-4.35-9.18-7.72-12.4-9.28a3.51,3.51,0,0,1-2-3.34c.83-15.09-.22-33.47-2.48-38.37a1,1,0,0,1,.61-1.31c2.27-.63,7.24-2.64,12.31-8.64a1.43,1.43,0,0,1,2.05-.15c5.88,5.21,11.08,6.48,13.43,6.79a.94.94,0,0,1,.79,1.2c-1.54,5.17.08,23.52,3.06,38.32a3.5,3.5,0,0,1-1.45,3.59c-3,2-8.5,6.22-10.93,11A1.79,1.79,0,0,1,264.77,329.12Z"/><circle class="cls-5" cx="262.33" cy="274.22" r="4.07"/><circle class="cls-5" cx="265.75" cy="321.59" r="4.07"/><path class="cls-7" d="M262.83,320.6l1.79.15a.49.49,0,0,0,.54-.44l.17-1.78,1.41.13-.17,1.78a.5.5,0,0,0,.45.54l1.79.18-.14,1.41-1.79-.16a.49.49,0,0,0-.54.44l-.16,1.79-1.42-.13.17-1.8a.48.48,0,0,0-.45-.54L262.7,322Z"/><path class="cls-7" d="M259.33,274.94l1.6-.83a.48.48,0,0,0,.21-.66l-.8-1.59,1.26-.64.81,1.59a.5.5,0,0,0,.66.22l1.61-.81.65,1.27-1.61.81a.5.5,0,0,0-.21.67l.81,1.6-1.27.64-.82-1.61a.5.5,0,0,0-.67-.22l-1.59.83Z"/><path class="cls-5" d="M206.23,287.64h0A54.94,54.94,0,0,1,207,281a9.31,9.31,0,0,1,8.5-7.64h.08a9.29,9.29,0,0,1,9.5,6.33c.35,1.07.66,2.11.94,3.15a4.09,4.09,0,0,0,4.25,3h.23l.72,9.9h0a4.12,4.12,0,0,0-3.79,3.7c-.12,1.21-.28,2.44-.48,3.71a10.11,10.11,0,0,1-6.87,8,6.42,6.42,0,0,1-1.79.34h-.07a9.43,9.43,0,0,1-9.54-6.57,54.24,54.24,0,0,1-1.87-7.43h0a1.18,1.18,0,0,1-1.25-1.08L205,289A1.31,1.31,0,0,1,206.23,287.64Z"/><rect class="cls-5" x="230.84" y="287.05" width="16.52" height="5.97" transform="matrix(-1, 0.07, -0.07, -1, 498.49, 562.08)"/><path class="cls-5" d="M248.42,284.26a3.4,3.4,0,0,1,3.13-2.12,3.48,3.48,0,0,1,3.43,3.27l0,.48,16.24-1.17,0-.49a3.49,3.49,0,0,1,2.93-3.73,3.43,3.43,0,0,1,3.54,1.92,2.63,2.63,0,0,0,.68.84,2.22,2.22,0,0,1,.78,1.53l.34,4.68a2.25,2.25,0,0,1-.55,1.63,2.6,2.6,0,0,0-.56.93,3.41,3.41,0,0,1-3.22,2.4,3.48,3.48,0,0,1-3.44-3.27l0-.49-16.24,1.18,0,.48a3.49,3.49,0,0,1-2.92,3.73,3.4,3.4,0,0,1-3.41-1.65,4.41,4.41,0,0,0-.86-1.1,2.18,2.18,0,0,1-.78-1.53l-.34-4.68a2.24,2.24,0,0,1,.55-1.63A4.16,4.16,0,0,0,248.42,284.26Z"/><path class="cls-5" d="M262.59,292.31a.89.89,0,0,0,1.68-.46l-2-7.21a.89.89,0,0,0-1.69.46C261.26,287.5,261.92,289.91,262.59,292.31Z"/><ellipse class="cls-5" cx="266.64" cy="288.18" rx="0.98" ry="8.25" transform="translate(-66.9 81.06) rotate(-15.38)"/><ellipse class="cls-5" cx="258.16" cy="288.75" rx="0.98" ry="8.25" transform="translate(-67.35 78.83) rotate(-15.38)"/><path class="cls-5" d="M253.18,303.81c0,.59,2.52.74,2.67,1.3s-1.9,1.95-1.65,2.47,2.62-.17,3,.31-1.12,2.48-.7,2.89,2.4-1.06,2.88-.73-.2,2.71.33,3,1.89-1.82,2.46-1.67.74,2.62,1.33,2.67,1.14-2.36,1.74-2.41,1.59,2.2,2.15,2,.29-2.61.82-2.86,2.25,1.53,2.72,1.19-.63-2.55-.21-3,2.63.67,3,.19-1.46-2.19-1.21-2.72,2.71-.27,2.86-.84-2.12-1.54-2.08-2.13,2.45-1.17,2.4-1.76-2.52-.75-2.68-1.3,1.9-2,1.65-2.48-2.62.17-2.95-.3,1.11-2.48.7-2.89-2.41,1-2.89.72.21-2.71-.33-3-1.89,1.82-2.46,1.67-.73-2.62-1.32-2.66-1.15,2.35-1.74,2.41-1.6-2.21-2.15-2.06-.3,2.61-.82,2.86-2.25-1.53-2.73-1.19.63,2.55.22,3-2.64-.67-3-.19,1.46,2.18,1.21,2.71-2.7.27-2.85.84,2.12,1.54,2.07,2.13S253.12,303.21,253.18,303.81Z"/><line class="cls-6" x1="262.22" y1="298.76" x2="262.28" y2="298.84"/><line class="cls-6" x1="260.84" y1="300.08" x2="260.78" y2="300"/><path class="cls-6" d="M261,305.69a4.47,4.47,0,0,1-.2-5.61l5.72,6.62A4.46,4.46,0,0,1,261,305.69Z"/><path class="cls-6" d="M267.81,299.84a4.49,4.49,0,0,1,.19,5.62l-5.72-6.62A4.48,4.48,0,0,1,267.81,299.84Z"/><line class="cls-6" x1="262.28" y1="298.84" x2="268" y2="305.46"/><line class="cls-6" x1="266.56" y1="306.7" x2="260.84" y2="300.08"/><ellipse class="cls-5" cx="347.82" cy="208.99" rx="8.25" ry="0.98" transform="translate(54.05 488.9) rotate(-74.62)"/><rect class="cls-1" width="600" height="148.59"/></g></g></svg>