<svg xmlns="http://www.w3.org/2000/svg" viewBox="0 0 601.78 600"><defs><style>.cls-1,.cls-11,.cls-12,.cls-2,.cls-3,.cls-5,.cls-6{fill:none;}.cls-1{stroke:#e51729;}.cls-1,.cls-12,.cls-2,.cls-3,.cls-5,.cls-6{stroke-miterlimit:10;}.cls-1,.cls-2{stroke-width:1.99px;}.cls-2{stroke:#179fe5;}.cls-12,.cls-3{stroke:#000;}.cls-3{stroke-linecap:round;stroke-width:1.44px;}.cls-4{fill:#ff4500;}.cls-5,.cls-6{stroke:#29abe2;}.cls-5{stroke-width:0.44px;}.cls-6{stroke-width:0.44px;}.cls-7{fill:#29abe2;}.cls-10,.cls-13,.cls-8,.cls-9{isolation:isolate;}.cls-10,.cls-13,.cls-8{font-size:8.62px;font-family:Helvetica;}.cls-10{letter-spacing:-0.05em;}.cls-12{stroke-width:0.36px;}.cls-13{letter-spacing:-0.04em;}</style></defs><g id="Layer_2" data-name="Layer 2"><g id="Layer_1-2" data-name="Layer 1"><path class="cls-1" d="M215.63,195.63s32.63-33.17,86.91,0c52.15,31.87,86.91,0,86.91,0"/><path class="cls-1" d="M214.87,283.65s32.63-33.17,86.92,0c52.14,31.87,86.91,0,86.91,0"/><path class="cls-2" d="M214.87,283.65s34.77,31.87,86.92,0c54.27-33.17,86.91,0,86.91,0"/><line class="cls-3" x1="214.87" y1="283.65" x2="388.7" y2="283.65"/><path class="cls-2" d="M213.09,369.39s23.17,31.87,57.94,0"/><path class="cls-2" d="M329,369.71s23.17,31.87,57.94,0"/><path class="cls-2" d="M271,369.39s23.18-31.86,57.94,0"/><path class="cls-1" d="M213.09,369.71s23.17-31.86,57.94,0"/><path class="cls-1" d="M329,369.39s23.17-31.86,57.94,0"/><path class="cls-1" d="M271,369.71s23.18,31.87,57.94,0"/><line class="cls-3" x1="213.09" y1="369.39" x2="386.91" y2="369.39"/><line class="cls-3" x1="215.63" y1="195.63" x2="389.45" y2="195.63"/><circle class="cls-4" cx="301.79" cy="283.65" r="2.9"/><circle class="cls-4" cx="328.97" cy="369.39" r="2.9"/><circle class="cls-4" cx="271.03" cy="369.39" r="2.9"/><line class="cls-5" x1="302.54" y1="181.15" x2="302.54" y2="166.66"/><line class="cls-5" x1="389.45" y1="246.6" x2="389.45" y2="232.12"/><line class="cls-6" x1="221.68" y1="166.66" x2="296.49" y2="166.66"/><polygon class="cls-7" points="222.33 168.85 218.53 166.66 222.33 164.47 222.33 168.85"/><polygon class="cls-7" points="295.85 168.85 299.64 166.66 295.85 164.47 295.85 168.85"/><line class="cls-6" x1="221.46" y1="225.38" x2="383.17" y2="225.38"/><polygon class="cls-7" points="222.1 227.57 218.3 225.38 222.1 223.18 222.1 227.57"/><polygon class="cls-7" points="382.53 227.57 386.33 225.38 382.53 223.18 382.53 227.57"/><text class="cls-8" transform="translate(213.09 418.78)">N = Node</text><text class="cls-8" transform="translate(268.13 340.42)">N</text><text class="cls-8" transform="translate(326.07 340.42)">N</text><g class="cls-9"><text class="cls-8" transform="translate(213.09 439.49)">AN =</text><text class="cls-10" transform="translate(232.49 439.49)"> </text><text class="cls-8" transform="translate(234.42 439.49)">Anti-node</text></g><text class="cls-8" transform="translate(236.26 401.26)">AN</text><text class="cls-8" transform="translate(294.21 401.26)">AN</text><text class="cls-8" transform="translate(352.14 401.26)">AN</text><line class="cls-11" x1="271.03" y1="343.32" x2="271.03" y2="363.6"/><line class="cls-12" x1="271.03" y1="343.32" x2="271.03" y2="361.02"/><polygon points="269.23 360.5 271.03 363.6 272.82 360.5 269.23 360.5"/><text class="cls-8" transform="translate(298.89 251.78)">N</text><line class="cls-11" x1="301.79" y1="254.68" x2="301.79" y2="274.96"/><line class="cls-12" x1="301.79" y1="254.68" x2="301.79" y2="272.38"/><polygon points="299.99 271.85 301.79 274.96 303.57 271.85 299.99 271.85"/><line class="cls-11" x1="328.97" y1="343.32" x2="328.97" y2="363.6"/><line class="cls-12" x1="328.97" y1="343.32" x2="328.97" y2="361.02"/><polygon points="327.18 360.5 328.97 363.6 330.76 360.5 327.18 360.5"/><line class="cls-11" x1="357.94" y1="387.28" x2="357.94" y2="393.08"/><line class="cls-12" x1="357.94" y1="389.87" x2="357.94" y2="393.08"/><polygon points="356.15 390.39 357.94 387.29 359.73 390.39 356.15 390.39"/><line class="cls-11" x1="300" y1="386.77" x2="300" y2="392.57"/><line class="cls-12" x1="300" y1="389.35" x2="300" y2="392.57"/><polygon points="298.21 389.88 300 386.77 301.79 389.88 298.21 389.88"/><line class="cls-11" x1="242.06" y1="386.77" x2="242.06" y2="392.57"/><line class="cls-12" x1="242.06" y1="389.35" x2="242.06" y2="392.57"/><polygon points="240.26 389.88 242.06 386.77 243.85 389.88 240.26 389.88"/><text class="cls-8" transform="translate(246.76 319.8)">AN</text><text class="cls-8" transform="translate(341.21 320.3)">AN</text><line class="cls-11" x1="347" y1="305.82" x2="347" y2="311.61"/><line class="cls-12" x1="347" y1="308.4" x2="347" y2="311.61"/><polygon points="345.21 308.92 347 305.82 348.79 308.92 345.21 308.92"/><line class="cls-11" x1="252.56" y1="305.32" x2="252.56" y2="311.12"/><line class="cls-12" x1="252.56" y1="307.9" x2="252.56" y2="311.12"/><polygon points="250.76 308.43 252.56 305.32 254.35 308.43 250.76 308.43"/><g class="cls-9"><text class="cls-13" transform="translate(282.26 221.7)">W</text><text class="cls-8" transform="translate(290.09 221.7)">avelength</text></g><text class="cls-8" transform="translate(233.01 163.76)">String Length</text><rect class="cls-11" x="1.27" width="600" height="600"/><rect class="cls-11" x="1.78" y="449.36" width="600" height="148.59"/><rect class="cls-11" y="0.7" width="600" height="148.59"/></g></g></svg>