<svg xmlns="http://www.w3.org/2000/svg" viewBox="0 0 605.1 602.61"><defs><style>.cls-1,.cls-12,.cls-13,.cls-14,.cls-15,.cls-3,.cls-4,.cls-5,.cls-7,.cls-8{fill:none;}.cls-10,.cls-11,.cls-2,.cls-6,.cls-9{fill:#fff;}.cls-10,.cls-11,.cls-12,.cls-13,.cls-15,.cls-2,.cls-5,.cls-6,.cls-7,.cls-8,.cls-9{stroke:#000;}.cls-10,.cls-11,.cls-12,.cls-13,.cls-14,.cls-15,.cls-2,.cls-3,.cls-4,.cls-5,.cls-6,.cls-7,.cls-8,.cls-9{stroke-miterlimit:10;}.cls-2,.cls-5{stroke-width:0.56px;}.cls-14,.cls-3,.cls-4{stroke:#999;}.cls-3{stroke-width:0.18px;stroke-dasharray:0.82 0.82 0.82 0.82;}.cls-4{stroke-width:0.19px;stroke-dasharray:0.76 0.76 0.76 0.76;}.cls-6{stroke-width:0.51px;}.cls-7{stroke-width:2.27px;}.cls-8,.cls-9{stroke-width:0.18px;}.cls-10,.cls-15{stroke-width:0.24px;}.cls-11,.cls-13{stroke-width:0.67px;}.cls-12{stroke-width:0.18px;}.cls-14{stroke-width:0.24px;stroke-dasharray:0.76 0.76 0.76 0.76;}</style></defs><g id="Layer_2" data-name="Layer 2"><g id="Layer_1-2" data-name="Layer 1"><rect class="cls-1" x="2.77" width="600" height="600"/><path class="cls-2" d="M207.63,205.06H385.82a52.33,52.33,0,0,0-.92-14.29H208.55A51.55,51.55,0,0,0,207.63,205.06Z"/><path class="cls-2" d="M240.48,190.77s7.09,6.37,0,14.2"/><path class="cls-2" d="M353.19,190.77s-7.08,6.37,0,14.2"/><line class="cls-3" x1="253.75" y1="356.11" x2="345.29" y2="356.11"/><line class="cls-3" x1="250.95" y1="353.88" x2="343.78" y2="353.88"/><line class="cls-3" x1="253.25" y1="351.65" x2="340.94" y2="351.65"/><line class="cls-3" x1="255.65" y1="349.41" x2="339.34" y2="349.41"/><line class="cls-3" x1="258.13" y1="347.18" x2="337.84" y2="347.18"/><line class="cls-3" x1="259.99" y1="344.95" x2="335.61" y2="344.95"/><line class="cls-3" x1="262.31" y1="342.71" x2="333.37" y2="342.71"/><line class="cls-3" x1="264.43" y1="340.48" x2="331.14" y2="340.48"/><line class="cls-3" x1="266.57" y1="338.25" x2="328.9" y2="338.25"/><line class="cls-3" x1="268.52" y1="336.01" x2="326.67" y2="336.01"/><line class="cls-4" x1="209.5" y1="192.43" x2="384.11" y2="192.43"/><line class="cls-4" x1="209.47" y1="193.82" x2="384.08" y2="193.82"/><line class="cls-4" x1="209.44" y1="195.2" x2="384.05" y2="195.2"/><line class="cls-4" x1="209.41" y1="196.59" x2="384.02" y2="196.59"/><line class="cls-4" x1="209.38" y1="197.97" x2="383.99" y2="197.97"/><line class="cls-4" x1="209.35" y1="199.36" x2="383.96" y2="199.36"/><line class="cls-4" x1="209.32" y1="200.74" x2="383.93" y2="200.74"/><line class="cls-4" x1="209.29" y1="202.13" x2="383.9" y2="202.13"/><line class="cls-4" x1="209.26" y1="203.52" x2="383.87" y2="203.52"/><path class="cls-5" d="M353.29,190.79s-7.1,6.38,0,14.2"/><path class="cls-5" d="M240.55,190.79s7.08,6.38,0,14.2"/><path class="cls-5" d="M207.71,205.08H385.9a51.55,51.55,0,0,0-.92-14.29H208.64A52.33,52.33,0,0,0,207.71,205.08Z"/><circle class="cls-6" cx="277.93" cy="350.53" r="2.26"/><circle class="cls-6" cx="285.37" cy="350.53" r="2.26"/><circle class="cls-6" cx="293.31" cy="350.53" r="2.26"/><circle class="cls-6" cx="301.07" cy="350.53" r="2.26"/><circle class="cls-6" cx="308.76" cy="350.53" r="2.26"/><circle class="cls-6" cx="315.51" cy="350.53" r="2.26"/><path class="cls-7" d="M297.06,447.26c59.1-.46,119.46-12.38,113.8-87.7-3-40.06-26.47-68-33.27-78.62-11.79-18.35-9.83-20.42-.75-40.83,35.56-80-33.27-86.94-79.39-86.94h-.75c-46.12,0-115,6.92-79.39,86.94,9.08,20.41,11,22.48-.75,40.83-6.81,10.58-30.25,38.56-33.27,78.62-5.68,75.29,54.68,87.27,113.81,87.7"/><circle class="cls-7" cx="297.07" cy="237.84" r="26.46"/><path class="cls-8" d="M209.55,217.73c-.56-2.35-1-4.62-1.33-6.79"/><polygon class="cls-9" points="268.38 328.72 265.61 331.52 218.47 284.32 220.57 280.94 268.38 328.72"/><polygon class="cls-9" points="241.09 356.74 238.32 359.53 197.1 318.2 199.19 314.82 241.09 356.74"/><polygon class="cls-9" points="348.94 440.08 343.69 441.31 232.82 366.52 234.36 362.76 348.94 440.08"/><polygon class="cls-9" points="349.09 354.33 351.86 357.12 394.99 313.94 392.9 310.56 349.09 354.33"/><polygon class="cls-9" points="324.43 327.29 327.2 330.08 374.34 282.88 372.25 279.5 324.43 327.29"/><polygon class="cls-9" points="249.81 255.4 252.89 258.24 274.77 205.32 270.62 205.23 249.81 255.4"/><polygon class="cls-9" points="344.15 256.24 340.73 258.24 318.84 205.32 323 205.23 344.15 256.24"/><path class="cls-10" d="M324.43,443.32l-9.93.43q-17.42.75-34.85,0l-9.93-.43v-8.85a4.79,4.79,0,0,1,4.87-4.72h45a4.8,4.8,0,0,1,4.89,4.71h0Z"/><path class="cls-9" d="M211.56,214.34c.32,2.19.77,4.45,1.32,6.79L399.25,407.42c.69-1.13,1.34-2.3,2-3.53Z"/><path class="cls-9" d="M382.84,214.34q-.49,3.28-1.32,6.79L195.13,407.42c-.68-1.13-1.33-2.3-1.95-3.53Z"/><path class="cls-11" d="M317.52,176.55h-40.9a3.93,3.93,0,0,1-3.93-3.93h0V156.27h0a400.63,400.63,0,0,1,48.76,0h0v16.35A3.93,3.93,0,0,1,317.52,176.55Z"/><polygon class="cls-12" points="348.04 356.4 254.27 356.4 251.96 350.63 266.82 335.77 327.56 335.77 348.04 356.4"/><polygon class="cls-9" points="385.15 424.06 381.76 426.47 249.02 353.52 251.95 350.62 385.15 424.06"/><line class="cls-4" x1="272.69" y1="157.56" x2="321.45" y2="157.56"/><line class="cls-4" x1="272.7" y1="156.71" x2="321.45" y2="156.71"/><line class="cls-4" x1="272.69" y1="158.42" x2="321.45" y2="158.42"/><line class="cls-4" x1="272.69" y1="159.27" x2="321.45" y2="159.27"/><line class="cls-4" x1="272.69" y1="160.12" x2="321.45" y2="160.12"/><line class="cls-4" x1="272.69" y1="160.97" x2="321.45" y2="160.97"/><line class="cls-4" x1="272.69" y1="161.82" x2="321.45" y2="161.82"/><line class="cls-4" x1="272.69" y1="162.67" x2="321.45" y2="162.67"/><line class="cls-4" x1="272.69" y1="163.52" x2="321.45" y2="163.52"/><line class="cls-4" x1="272.69" y1="164.37" x2="321.45" y2="164.37"/><line class="cls-4" x1="272.69" y1="165.23" x2="321.45" y2="165.23"/><line class="cls-4" x1="272.69" y1="166.08" x2="321.45" y2="166.08"/><line class="cls-4" x1="272.69" y1="166.93" x2="321.45" y2="166.93"/><line class="cls-4" x1="272.69" y1="167.78" x2="321.45" y2="167.78"/><line class="cls-4" x1="272.69" y1="168.63" x2="321.45" y2="168.63"/><line class="cls-4" x1="272.69" y1="169.48" x2="321.45" y2="169.48"/><line class="cls-4" x1="272.69" y1="170.33" x2="321.45" y2="170.33"/><line class="cls-4" x1="272.69" y1="171.18" x2="321.45" y2="171.18"/><line class="cls-4" x1="272.69" y1="172.04" x2="321.45" y2="172.04"/><line class="cls-4" x1="272.69" y1="172.89" x2="321.45" y2="172.89"/><line class="cls-4" x1="272.69" y1="173.74" x2="321.19" y2="173.74"/><line class="cls-4" x1="273.22" y1="174.59" x2="320.92" y2="174.59"/><line class="cls-4" x1="273.89" y1="175.44" x2="320.26" y2="175.44"/><line class="cls-4" x1="275.23" y1="176.29" x2="318.93" y2="176.29"/><path class="cls-13" d="M317.52,176.55h-40.9a3.93,3.93,0,0,1-3.93-3.93h0V156.27h0a400.63,400.63,0,0,1,48.76,0h0v16.35A3.93,3.93,0,0,1,317.52,176.55Z"/><line class="cls-14" x1="273.16" y1="443.46" x2="320.97" y2="443.46"/><line class="cls-14" x1="269.72" y1="442.8" x2="324.43" y2="442.8"/><line class="cls-14" x1="269.72" y1="442.11" x2="324.43" y2="442.11"/><line class="cls-14" x1="269.72" y1="441.42" x2="324.43" y2="441.42"/><line class="cls-14" x1="269.72" y1="440.72" x2="324.43" y2="440.72"/><line class="cls-14" x1="269.72" y1="440.03" x2="324.43" y2="440.03"/><line class="cls-14" x1="269.72" y1="439.33" x2="324.43" y2="439.33"/><line class="cls-14" x1="269.71" y1="438.64" x2="324.43" y2="438.64"/><line class="cls-14" x1="269.71" y1="437.95" x2="324.43" y2="437.95"/><line class="cls-14" x1="269.71" y1="437.25" x2="324.43" y2="437.25"/><line class="cls-14" x1="269.71" y1="436.56" x2="324.43" y2="436.56"/><line class="cls-14" x1="269.71" y1="435.86" x2="324.42" y2="435.86"/><line class="cls-14" x1="269.71" y1="435.17" x2="324.42" y2="435.17"/><line class="cls-14" x1="269.71" y1="434.47" x2="324.42" y2="434.47"/><line class="cls-14" x1="269.71" y1="433.78" x2="324.42" y2="433.78"/><line class="cls-14" x1="269.95" y1="433.09" x2="324.2" y2="433.09"/><line class="cls-14" x1="270.23" y1="432.39" x2="323.92" y2="432.39"/><line class="cls-14" x1="270.66" y1="431.7" x2="323.49" y2="431.7"/><line class="cls-14" x1="271.29" y1="431" x2="322.86" y2="431"/><line class="cls-14" x1="272.27" y1="430.31" x2="321.88" y2="430.31"/><path class="cls-15" d="M324.43,443.32l-9.93.43q-17.42.75-34.85,0l-9.93-.43v-8.85a4.79,4.79,0,0,1,4.87-4.72h45a4.8,4.8,0,0,1,4.89,4.71h0Z"/><rect class="cls-1" x="5.1" y="454.02" width="600" height="148.59"/><rect class="cls-1" y="2.05" width="600" height="148.59"/></g></g></svg>